G04 #@! TF.GenerationSoftware,KiCad,Pcbnew,(5.0.0-3-g5ebb6b6)*
G04 #@! TF.CreationDate,2019-10-05T19:23:03+09:00*
G04 #@! TF.ProjectId,KZ80-MSXCTRG,4B5A38302D4D5358435452472E6B6963,rev?*
G04 #@! TF.SameCoordinates,Original*
G04 #@! TF.FileFunction,Soldermask,Top*
G04 #@! TF.FilePolarity,Negative*
%FSLAX46Y46*%
G04 Gerber Fmt 4.6, Leading zero omitted, Abs format (unit mm)*
G04 Created by KiCad (PCBNEW (5.0.0-3-g5ebb6b6)) date *
%MOMM*%
%LPD*%
G01*
G04 APERTURE LIST*
%ADD10C,2.000000*%
%ADD11R,2.000000X2.000000*%
%ADD12R,2.100000X2.100000*%
%ADD13O,2.100000X2.100000*%
%ADD14C,3.600000*%
%ADD15O,2.000000X2.000000*%
G04 APERTURE END LIST*
D10*
G04 #@! TO.C,C6*
X138570000Y-129880000D03*
D11*
X141070000Y-129880000D03*
G04 #@! TD*
G04 #@! TO.C,C5*
X141550000Y-94330000D03*
D10*
X141550000Y-96830000D03*
G04 #@! TD*
G04 #@! TO.C,C7*
X167260000Y-117450000D03*
X167260000Y-114950000D03*
G04 #@! TD*
G04 #@! TO.C,C4*
X167140000Y-100970000D03*
X167140000Y-103470000D03*
G04 #@! TD*
G04 #@! TO.C,C3*
X141630000Y-117520000D03*
X141630000Y-115020000D03*
G04 #@! TD*
G04 #@! TO.C,C2*
X190420000Y-100970000D03*
X190420000Y-103470000D03*
G04 #@! TD*
G04 #@! TO.C,C1*
X141510000Y-103540000D03*
X141510000Y-101040000D03*
G04 #@! TD*
D12*
G04 #@! TO.C,J1*
X198500000Y-141460000D03*
D13*
X198500000Y-146540000D03*
X195960000Y-141460000D03*
X195960000Y-146540000D03*
X193420000Y-141460000D03*
X193420000Y-146540000D03*
X190880000Y-141460000D03*
X190880000Y-146540000D03*
X188340000Y-141460000D03*
X188340000Y-146540000D03*
X185800000Y-141460000D03*
X185800000Y-146540000D03*
X183260000Y-141460000D03*
X183260000Y-146540000D03*
X180720000Y-141460000D03*
X180720000Y-146540000D03*
X178180000Y-141460000D03*
X178180000Y-146540000D03*
X175640000Y-141460000D03*
X175640000Y-146540000D03*
X173100000Y-141460000D03*
X173100000Y-146540000D03*
X170560000Y-141460000D03*
X170560000Y-146540000D03*
X168020000Y-141460000D03*
X168020000Y-146540000D03*
X165480000Y-141460000D03*
X165480000Y-146540000D03*
X162940000Y-141460000D03*
X162940000Y-146540000D03*
X160400000Y-141460000D03*
X160400000Y-146540000D03*
X157860000Y-141460000D03*
X157860000Y-146540000D03*
X155320000Y-141460000D03*
X155320000Y-146540000D03*
X152780000Y-141460000D03*
X152780000Y-146540000D03*
X150240000Y-141460000D03*
X150240000Y-146540000D03*
X147700000Y-141460000D03*
X147700000Y-146540000D03*
X145160000Y-141460000D03*
X145160000Y-146540000D03*
X142620000Y-141460000D03*
X142620000Y-146540000D03*
X140080000Y-141460000D03*
X140080000Y-146540000D03*
X137540000Y-141460000D03*
X137540000Y-146540000D03*
G04 #@! TD*
D12*
G04 #@! TO.C,JP1*
X199820000Y-117890000D03*
D13*
X199820000Y-120430000D03*
X199820000Y-122970000D03*
G04 #@! TD*
D12*
G04 #@! TO.C,J3*
X208720000Y-117840000D03*
D13*
X208720000Y-120380000D03*
X208720000Y-122920000D03*
X208720000Y-125460000D03*
X208720000Y-128000000D03*
G04 #@! TD*
G04 #@! TO.C,J5*
X128430000Y-86960000D03*
X130970000Y-86960000D03*
X128430000Y-89500000D03*
X130970000Y-89500000D03*
X128430000Y-92040000D03*
X130970000Y-92040000D03*
X128430000Y-94580000D03*
X130970000Y-94580000D03*
X128430000Y-97120000D03*
X130970000Y-97120000D03*
X128430000Y-99660000D03*
X130970000Y-99660000D03*
X128430000Y-102200000D03*
D12*
X130970000Y-102200000D03*
G04 #@! TD*
G04 #@! TO.C,J4*
X130970000Y-128870000D03*
D13*
X128430000Y-128870000D03*
X130970000Y-126330000D03*
X128430000Y-126330000D03*
X130970000Y-123790000D03*
X128430000Y-123790000D03*
X130970000Y-121250000D03*
X128430000Y-121250000D03*
X130970000Y-118710000D03*
X128430000Y-118710000D03*
X130970000Y-116170000D03*
X128430000Y-116170000D03*
X130970000Y-113630000D03*
X128430000Y-113630000D03*
G04 #@! TD*
D12*
G04 #@! TO.C,J2*
X143500000Y-90000000D03*
D13*
X143500000Y-87460000D03*
X146040000Y-90000000D03*
X146040000Y-87460000D03*
X148580000Y-90000000D03*
X148580000Y-87460000D03*
X151120000Y-90000000D03*
X151120000Y-87460000D03*
X153660000Y-90000000D03*
X153660000Y-87460000D03*
X156200000Y-90000000D03*
X156200000Y-87460000D03*
X158740000Y-90000000D03*
X158740000Y-87460000D03*
X161280000Y-90000000D03*
X161280000Y-87460000D03*
X163820000Y-90000000D03*
X163820000Y-87460000D03*
X166360000Y-90000000D03*
X166360000Y-87460000D03*
X168900000Y-90000000D03*
X168900000Y-87460000D03*
X171440000Y-90000000D03*
X171440000Y-87460000D03*
X173980000Y-90000000D03*
X173980000Y-87460000D03*
X176520000Y-90000000D03*
X176520000Y-87460000D03*
X179060000Y-90000000D03*
X179060000Y-87460000D03*
X181600000Y-90000000D03*
X181600000Y-87460000D03*
X184140000Y-90000000D03*
X184140000Y-87460000D03*
X186680000Y-90000000D03*
X186680000Y-87460000D03*
X189220000Y-90000000D03*
X189220000Y-87460000D03*
X191760000Y-90000000D03*
X191760000Y-87460000D03*
G04 #@! TD*
D14*
G04 #@! TO.C,MH4*
X211500000Y-148500000D03*
G04 #@! TD*
G04 #@! TO.C,MH3*
X122500000Y-148500000D03*
G04 #@! TD*
G04 #@! TO.C,MH2*
X211500000Y-82500000D03*
G04 #@! TD*
G04 #@! TO.C,MH1*
X122500000Y-82500000D03*
G04 #@! TD*
D11*
G04 #@! TO.C,U5*
X170140000Y-108970000D03*
D15*
X185380000Y-101350000D03*
X172680000Y-108970000D03*
X182840000Y-101350000D03*
X175220000Y-108970000D03*
X180300000Y-101350000D03*
X177760000Y-108970000D03*
X177760000Y-101350000D03*
X180300000Y-108970000D03*
X175220000Y-101350000D03*
X182840000Y-108970000D03*
X172680000Y-101350000D03*
X185380000Y-108970000D03*
X170140000Y-101350000D03*
G04 #@! TD*
G04 #@! TO.C,U4*
X170260000Y-115330000D03*
X185500000Y-122950000D03*
X172800000Y-115330000D03*
X182960000Y-122950000D03*
X175340000Y-115330000D03*
X180420000Y-122950000D03*
X177880000Y-115330000D03*
X177880000Y-122950000D03*
X180420000Y-115330000D03*
X175340000Y-122950000D03*
X182960000Y-115330000D03*
X172800000Y-122950000D03*
X185500000Y-115330000D03*
D11*
X170260000Y-122950000D03*
G04 #@! TD*
G04 #@! TO.C,U3*
X144630000Y-123020000D03*
D15*
X159870000Y-115400000D03*
X147170000Y-123020000D03*
X157330000Y-115400000D03*
X149710000Y-123020000D03*
X154790000Y-115400000D03*
X152250000Y-123020000D03*
X152250000Y-115400000D03*
X154790000Y-123020000D03*
X149710000Y-115400000D03*
X157330000Y-123020000D03*
X147170000Y-115400000D03*
X159870000Y-123020000D03*
X144630000Y-115400000D03*
G04 #@! TD*
G04 #@! TO.C,U2*
X144510000Y-101420000D03*
X162290000Y-109040000D03*
X147050000Y-101420000D03*
X159750000Y-109040000D03*
X149590000Y-101420000D03*
X157210000Y-109040000D03*
X152130000Y-101420000D03*
X154670000Y-109040000D03*
X154670000Y-101420000D03*
X152130000Y-109040000D03*
X157210000Y-101420000D03*
X149590000Y-109040000D03*
X159750000Y-101420000D03*
X147050000Y-109040000D03*
X162290000Y-101420000D03*
D11*
X144510000Y-109040000D03*
G04 #@! TD*
G04 #@! TO.C,U1*
X193420000Y-108970000D03*
D15*
X211200000Y-101350000D03*
X195960000Y-108970000D03*
X208660000Y-101350000D03*
X198500000Y-108970000D03*
X206120000Y-101350000D03*
X201040000Y-108970000D03*
X203580000Y-101350000D03*
X203580000Y-108970000D03*
X201040000Y-101350000D03*
X206120000Y-108970000D03*
X198500000Y-101350000D03*
X208660000Y-108970000D03*
X195960000Y-101350000D03*
X211200000Y-108970000D03*
X193420000Y-101350000D03*
G04 #@! TD*
D11*
G04 #@! TO.C,RN1*
X136370000Y-113790000D03*
D15*
X136370000Y-111250000D03*
X136370000Y-108710000D03*
X136370000Y-106170000D03*
X136370000Y-103630000D03*
X136370000Y-101090000D03*
X136370000Y-98550000D03*
X136370000Y-96010000D03*
X136370000Y-93470000D03*
G04 #@! TD*
M02*
