G04 #@! TF.GenerationSoftware,KiCad,Pcbnew,(5.1.4-0)*
G04 #@! TF.CreationDate,2019-12-21T12:07:29+09:00*
G04 #@! TF.ProjectId,KZ80-MSXCTRG,4b5a3830-2d4d-4535-9843-5452472e6b69,rev?*
G04 #@! TF.SameCoordinates,Original*
G04 #@! TF.FileFunction,Legend,Top*
G04 #@! TF.FilePolarity,Positive*
%FSLAX46Y46*%
G04 Gerber Fmt 4.6, Leading zero omitted, Abs format (unit mm)*
G04 Created by KiCad (PCBNEW (5.1.4-0)) date 2019-12-21 12:07:29*
%MOMM*%
%LPD*%
G04 APERTURE LIST*
%ADD10C,0.300000*%
%ADD11C,0.150000*%
%ADD12C,0.200000*%
%ADD13C,0.120000*%
%ADD14O,2.000000X2.000000*%
%ADD15R,2.000000X2.000000*%
%ADD16C,2.000000*%
%ADD17O,2.100000X2.100000*%
%ADD18R,2.100000X2.100000*%
%ADD19C,3.600000*%
G04 APERTURE END LIST*
D10*
X174416428Y-129318571D02*
X175416428Y-129318571D01*
X174773571Y-130818571D01*
X176630714Y-129818571D02*
X176630714Y-130818571D01*
X176273571Y-129247142D02*
X175916428Y-130318571D01*
X176845000Y-130318571D01*
X177416428Y-130818571D02*
X177416428Y-129318571D01*
X177416428Y-130032857D02*
X178273571Y-130032857D01*
X178273571Y-130818571D02*
X178273571Y-129318571D01*
X179845000Y-130675714D02*
X179773571Y-130747142D01*
X179559285Y-130818571D01*
X179416428Y-130818571D01*
X179202142Y-130747142D01*
X179059285Y-130604285D01*
X178987857Y-130461428D01*
X178916428Y-130175714D01*
X178916428Y-129961428D01*
X178987857Y-129675714D01*
X179059285Y-129532857D01*
X179202142Y-129390000D01*
X179416428Y-129318571D01*
X179559285Y-129318571D01*
X179773571Y-129390000D01*
X179845000Y-129461428D01*
X180345000Y-129318571D02*
X181345000Y-129318571D01*
X180702142Y-130818571D01*
X182559285Y-129818571D02*
X182559285Y-130818571D01*
X182202142Y-129247142D02*
X181845000Y-130318571D01*
X182773571Y-130318571D01*
D11*
X144106904Y-129592380D02*
X144345000Y-130592380D01*
X144535476Y-129878095D01*
X144725952Y-130592380D01*
X144964047Y-129592380D01*
X145297380Y-130306666D02*
X145773571Y-130306666D01*
X145202142Y-130592380D02*
X145535476Y-129592380D01*
X145868809Y-130592380D01*
X146202142Y-130592380D02*
X146202142Y-129592380D01*
X146535476Y-129592380D02*
X147106904Y-129592380D01*
X146821190Y-130592380D02*
X146821190Y-129592380D01*
X148487857Y-129592380D02*
X148487857Y-130306666D01*
X148440238Y-130449523D01*
X148345000Y-130544761D01*
X148202142Y-130592380D01*
X148106904Y-130592380D01*
X148964047Y-130592380D02*
X148964047Y-129592380D01*
X149345000Y-129592380D01*
X149440238Y-129640000D01*
X149487857Y-129687619D01*
X149535476Y-129782857D01*
X149535476Y-129925714D01*
X149487857Y-130020952D01*
X149440238Y-130068571D01*
X149345000Y-130116190D01*
X148964047Y-130116190D01*
D10*
X208500000Y-114964285D02*
X207857142Y-113821428D01*
X209142857Y-113821428D01*
X208500000Y-114964285D01*
X131500000Y-105035714D02*
X132142857Y-106178571D01*
X130857142Y-106178571D01*
X131500000Y-105035714D01*
X131500000Y-132035714D02*
X132142857Y-133178571D01*
X130857142Y-133178571D01*
X131500000Y-132035714D01*
X152714285Y-144678571D02*
X152714285Y-143178571D01*
X153214285Y-144250000D01*
X153714285Y-143178571D01*
X153714285Y-144678571D01*
X155500000Y-144607142D02*
X155714285Y-144678571D01*
X156071428Y-144678571D01*
X156214285Y-144607142D01*
X156285714Y-144535714D01*
X156357142Y-144392857D01*
X156357142Y-144250000D01*
X156285714Y-144107142D01*
X156214285Y-144035714D01*
X156071428Y-143964285D01*
X155785714Y-143892857D01*
X155642857Y-143821428D01*
X155571428Y-143750000D01*
X155500000Y-143607142D01*
X155500000Y-143464285D01*
X155571428Y-143321428D01*
X155642857Y-143250000D01*
X155785714Y-143178571D01*
X156142857Y-143178571D01*
X156357142Y-143250000D01*
X158000000Y-143178571D02*
X159000000Y-144678571D01*
X159000000Y-143178571D02*
X158000000Y-144678571D01*
X162714285Y-144535714D02*
X162642857Y-144607142D01*
X162428571Y-144678571D01*
X162285714Y-144678571D01*
X162071428Y-144607142D01*
X161928571Y-144464285D01*
X161857142Y-144321428D01*
X161785714Y-144035714D01*
X161785714Y-143821428D01*
X161857142Y-143535714D01*
X161928571Y-143392857D01*
X162071428Y-143250000D01*
X162285714Y-143178571D01*
X162428571Y-143178571D01*
X162642857Y-143250000D01*
X162714285Y-143321428D01*
X164428571Y-144250000D02*
X165142857Y-144250000D01*
X164285714Y-144678571D02*
X164785714Y-143178571D01*
X165285714Y-144678571D01*
X167785714Y-144678571D02*
X167285714Y-143964285D01*
X166928571Y-144678571D02*
X166928571Y-143178571D01*
X167500000Y-143178571D01*
X167642857Y-143250000D01*
X167714285Y-143321428D01*
X167785714Y-143464285D01*
X167785714Y-143678571D01*
X167714285Y-143821428D01*
X167642857Y-143892857D01*
X167500000Y-143964285D01*
X166928571Y-143964285D01*
X169357142Y-143178571D02*
X170214285Y-143178571D01*
X169785714Y-144678571D02*
X169785714Y-143178571D01*
X172714285Y-144678571D02*
X172214285Y-143964285D01*
X171857142Y-144678571D02*
X171857142Y-143178571D01*
X172428571Y-143178571D01*
X172571428Y-143250000D01*
X172642857Y-143321428D01*
X172714285Y-143464285D01*
X172714285Y-143678571D01*
X172642857Y-143821428D01*
X172571428Y-143892857D01*
X172428571Y-143964285D01*
X171857142Y-143964285D01*
X174500000Y-144678571D02*
X174500000Y-143178571D01*
X176357142Y-144678571D02*
X176357142Y-143178571D01*
X176714285Y-143178571D01*
X176928571Y-143250000D01*
X177071428Y-143392857D01*
X177142857Y-143535714D01*
X177214285Y-143821428D01*
X177214285Y-144035714D01*
X177142857Y-144321428D01*
X177071428Y-144464285D01*
X176928571Y-144607142D01*
X176714285Y-144678571D01*
X176357142Y-144678571D01*
X179785714Y-143250000D02*
X179642857Y-143178571D01*
X179428571Y-143178571D01*
X179214285Y-143250000D01*
X179071428Y-143392857D01*
X179000000Y-143535714D01*
X178928571Y-143821428D01*
X178928571Y-144035714D01*
X179000000Y-144321428D01*
X179071428Y-144464285D01*
X179214285Y-144607142D01*
X179428571Y-144678571D01*
X179571428Y-144678571D01*
X179785714Y-144607142D01*
X179857142Y-144535714D01*
X179857142Y-144035714D01*
X179571428Y-144035714D01*
X181642857Y-143892857D02*
X182142857Y-143892857D01*
X182357142Y-144678571D02*
X181642857Y-144678571D01*
X181642857Y-143178571D01*
X182357142Y-143178571D01*
D11*
X210404761Y-131579761D02*
X210547619Y-131627380D01*
X210785714Y-131627380D01*
X210880952Y-131579761D01*
X210928571Y-131532142D01*
X210976190Y-131436904D01*
X210976190Y-131341666D01*
X210928571Y-131246428D01*
X210880952Y-131198809D01*
X210785714Y-131151190D01*
X210595238Y-131103571D01*
X210500000Y-131055952D01*
X210452380Y-131008333D01*
X210404761Y-130913095D01*
X210404761Y-130817857D01*
X210452380Y-130722619D01*
X210500000Y-130675000D01*
X210595238Y-130627380D01*
X210833333Y-130627380D01*
X210976190Y-130675000D01*
X211880952Y-131627380D02*
X211404761Y-131627380D01*
X211404761Y-130627380D01*
X212404761Y-130627380D02*
X212595238Y-130627380D01*
X212690476Y-130675000D01*
X212785714Y-130770238D01*
X212833333Y-130960714D01*
X212833333Y-131294047D01*
X212785714Y-131484523D01*
X212690476Y-131579761D01*
X212595238Y-131627380D01*
X212404761Y-131627380D01*
X212309523Y-131579761D01*
X212214285Y-131484523D01*
X212166666Y-131294047D01*
X212166666Y-130960714D01*
X212214285Y-130770238D01*
X212309523Y-130675000D01*
X212404761Y-130627380D01*
X213119047Y-130627380D02*
X213690476Y-130627380D01*
X213404761Y-131627380D02*
X213404761Y-130627380D01*
X209619047Y-133229761D02*
X209761904Y-133277380D01*
X210000000Y-133277380D01*
X210095238Y-133229761D01*
X210142857Y-133182142D01*
X210190476Y-133086904D01*
X210190476Y-132991666D01*
X210142857Y-132896428D01*
X210095238Y-132848809D01*
X210000000Y-132801190D01*
X209809523Y-132753571D01*
X209714285Y-132705952D01*
X209666666Y-132658333D01*
X209619047Y-132563095D01*
X209619047Y-132467857D01*
X209666666Y-132372619D01*
X209714285Y-132325000D01*
X209809523Y-132277380D01*
X210047619Y-132277380D01*
X210190476Y-132325000D01*
X210619047Y-133277380D02*
X210619047Y-132277380D01*
X211619047Y-132325000D02*
X211523809Y-132277380D01*
X211380952Y-132277380D01*
X211238095Y-132325000D01*
X211142857Y-132420238D01*
X211095238Y-132515476D01*
X211047619Y-132705952D01*
X211047619Y-132848809D01*
X211095238Y-133039285D01*
X211142857Y-133134523D01*
X211238095Y-133229761D01*
X211380952Y-133277380D01*
X211476190Y-133277380D01*
X211619047Y-133229761D01*
X211666666Y-133182142D01*
X211666666Y-132848809D01*
X211476190Y-132848809D01*
X212095238Y-133277380D02*
X212095238Y-132277380D01*
X212666666Y-133277380D01*
X212666666Y-132277380D01*
X213095238Y-132991666D02*
X213571428Y-132991666D01*
X213000000Y-133277380D02*
X213333333Y-132277380D01*
X213666666Y-133277380D01*
X214476190Y-133277380D02*
X214000000Y-133277380D01*
X214000000Y-132277380D01*
D10*
X154665238Y-137487142D02*
X154950952Y-137582380D01*
X155046190Y-137677619D01*
X155141428Y-137868095D01*
X155141428Y-138153809D01*
X155046190Y-138344285D01*
X154950952Y-138439523D01*
X154760476Y-138534761D01*
X153998571Y-138534761D01*
X153998571Y-136534761D01*
X154665238Y-136534761D01*
X154855714Y-136630000D01*
X154950952Y-136725238D01*
X155046190Y-136915714D01*
X155046190Y-137106190D01*
X154950952Y-137296666D01*
X154855714Y-137391904D01*
X154665238Y-137487142D01*
X153998571Y-137487142D01*
X157427142Y-137963333D02*
X158379523Y-137963333D01*
X157236666Y-138534761D02*
X157903333Y-136534761D01*
X158570000Y-138534761D01*
X161903333Y-138344285D02*
X161808095Y-138439523D01*
X161522380Y-138534761D01*
X161331904Y-138534761D01*
X161046190Y-138439523D01*
X160855714Y-138249047D01*
X160760476Y-138058571D01*
X160665238Y-137677619D01*
X160665238Y-137391904D01*
X160760476Y-137010952D01*
X160855714Y-136820476D01*
X161046190Y-136630000D01*
X161331904Y-136534761D01*
X161522380Y-136534761D01*
X161808095Y-136630000D01*
X161903333Y-136725238D01*
X164284285Y-138534761D02*
X164284285Y-136534761D01*
X165427142Y-138534761D02*
X164570000Y-137391904D01*
X165427142Y-136534761D02*
X164284285Y-137677619D01*
X170760476Y-138439523D02*
X171046190Y-138534761D01*
X171522380Y-138534761D01*
X171712857Y-138439523D01*
X171808095Y-138344285D01*
X171903333Y-138153809D01*
X171903333Y-137963333D01*
X171808095Y-137772857D01*
X171712857Y-137677619D01*
X171522380Y-137582380D01*
X171141428Y-137487142D01*
X170950952Y-137391904D01*
X170855714Y-137296666D01*
X170760476Y-137106190D01*
X170760476Y-136915714D01*
X170855714Y-136725238D01*
X170950952Y-136630000D01*
X171141428Y-136534761D01*
X171617619Y-136534761D01*
X171903333Y-136630000D01*
X174284285Y-138534761D02*
X174284285Y-136534761D01*
X176760476Y-138534761D02*
X176760476Y-136534761D01*
X177236666Y-136534761D01*
X177522380Y-136630000D01*
X177712857Y-136820476D01*
X177808095Y-137010952D01*
X177903333Y-137391904D01*
X177903333Y-137677619D01*
X177808095Y-138058571D01*
X177712857Y-138249047D01*
X177522380Y-138439523D01*
X177236666Y-138534761D01*
X176760476Y-138534761D01*
X180284285Y-137487142D02*
X180950952Y-137487142D01*
X181236666Y-138534761D02*
X180284285Y-138534761D01*
X180284285Y-136534761D01*
X181236666Y-136534761D01*
D11*
X195964761Y-90661428D02*
X196012380Y-90518571D01*
X196012380Y-90280476D01*
X195964761Y-90185238D01*
X195917142Y-90137619D01*
X195821904Y-90090000D01*
X195726666Y-90090000D01*
X195631428Y-90137619D01*
X195583809Y-90185238D01*
X195536190Y-90280476D01*
X195488571Y-90470952D01*
X195440952Y-90566190D01*
X195393333Y-90613809D01*
X195298095Y-90661428D01*
X195202857Y-90661428D01*
X195107619Y-90613809D01*
X195060000Y-90566190D01*
X195012380Y-90470952D01*
X195012380Y-90232857D01*
X195060000Y-90090000D01*
X195488571Y-89328095D02*
X195536190Y-89185238D01*
X195583809Y-89137619D01*
X195679047Y-89090000D01*
X195821904Y-89090000D01*
X195917142Y-89137619D01*
X195964761Y-89185238D01*
X196012380Y-89280476D01*
X196012380Y-89661428D01*
X195012380Y-89661428D01*
X195012380Y-89328095D01*
X195060000Y-89232857D01*
X195107619Y-89185238D01*
X195202857Y-89137619D01*
X195298095Y-89137619D01*
X195393333Y-89185238D01*
X195440952Y-89232857D01*
X195488571Y-89328095D01*
X195488571Y-89661428D01*
X195917142Y-88090000D02*
X195964761Y-88137619D01*
X196012380Y-88280476D01*
X196012380Y-88375714D01*
X195964761Y-88518571D01*
X195869523Y-88613809D01*
X195774285Y-88661428D01*
X195583809Y-88709047D01*
X195440952Y-88709047D01*
X195250476Y-88661428D01*
X195155238Y-88613809D01*
X195060000Y-88518571D01*
X195012380Y-88375714D01*
X195012380Y-88280476D01*
X195060000Y-88137619D01*
X195107619Y-88090000D01*
X195440952Y-87518571D02*
X195393333Y-87613809D01*
X195345714Y-87661428D01*
X195250476Y-87709047D01*
X195202857Y-87709047D01*
X195107619Y-87661428D01*
X195060000Y-87613809D01*
X195012380Y-87518571D01*
X195012380Y-87328095D01*
X195060000Y-87232857D01*
X195107619Y-87185238D01*
X195202857Y-87137619D01*
X195250476Y-87137619D01*
X195345714Y-87185238D01*
X195393333Y-87232857D01*
X195440952Y-87328095D01*
X195440952Y-87518571D01*
X195488571Y-87613809D01*
X195536190Y-87661428D01*
X195631428Y-87709047D01*
X195821904Y-87709047D01*
X195917142Y-87661428D01*
X195964761Y-87613809D01*
X196012380Y-87518571D01*
X196012380Y-87328095D01*
X195964761Y-87232857D01*
X195917142Y-87185238D01*
X195821904Y-87137619D01*
X195631428Y-87137619D01*
X195536190Y-87185238D01*
X195488571Y-87232857D01*
X195440952Y-87328095D01*
X195012380Y-86518571D02*
X195012380Y-86423333D01*
X195060000Y-86328095D01*
X195107619Y-86280476D01*
X195202857Y-86232857D01*
X195393333Y-86185238D01*
X195631428Y-86185238D01*
X195821904Y-86232857D01*
X195917142Y-86280476D01*
X195964761Y-86328095D01*
X196012380Y-86423333D01*
X196012380Y-86518571D01*
X195964761Y-86613809D01*
X195917142Y-86661428D01*
X195821904Y-86709047D01*
X195631428Y-86756666D01*
X195393333Y-86756666D01*
X195202857Y-86709047D01*
X195107619Y-86661428D01*
X195060000Y-86613809D01*
X195012380Y-86518571D01*
X195440952Y-85613809D02*
X195393333Y-85709047D01*
X195345714Y-85756666D01*
X195250476Y-85804285D01*
X195202857Y-85804285D01*
X195107619Y-85756666D01*
X195060000Y-85709047D01*
X195012380Y-85613809D01*
X195012380Y-85423333D01*
X195060000Y-85328095D01*
X195107619Y-85280476D01*
X195202857Y-85232857D01*
X195250476Y-85232857D01*
X195345714Y-85280476D01*
X195393333Y-85328095D01*
X195440952Y-85423333D01*
X195440952Y-85613809D01*
X195488571Y-85709047D01*
X195536190Y-85756666D01*
X195631428Y-85804285D01*
X195821904Y-85804285D01*
X195917142Y-85756666D01*
X195964761Y-85709047D01*
X196012380Y-85613809D01*
X196012380Y-85423333D01*
X195964761Y-85328095D01*
X195917142Y-85280476D01*
X195821904Y-85232857D01*
X195631428Y-85232857D01*
X195536190Y-85280476D01*
X195488571Y-85328095D01*
X195440952Y-85423333D01*
X195012380Y-84613809D02*
X195012380Y-84518571D01*
X195060000Y-84423333D01*
X195107619Y-84375714D01*
X195202857Y-84328095D01*
X195393333Y-84280476D01*
X195631428Y-84280476D01*
X195821904Y-84328095D01*
X195917142Y-84375714D01*
X195964761Y-84423333D01*
X196012380Y-84518571D01*
X196012380Y-84613809D01*
X195964761Y-84709047D01*
X195917142Y-84756666D01*
X195821904Y-84804285D01*
X195631428Y-84851904D01*
X195393333Y-84851904D01*
X195202857Y-84804285D01*
X195107619Y-84756666D01*
X195060000Y-84709047D01*
X195012380Y-84613809D01*
X195488571Y-82756666D02*
X195536190Y-82613809D01*
X195583809Y-82566190D01*
X195679047Y-82518571D01*
X195821904Y-82518571D01*
X195917142Y-82566190D01*
X195964761Y-82613809D01*
X196012380Y-82709047D01*
X196012380Y-83090000D01*
X195012380Y-83090000D01*
X195012380Y-82756666D01*
X195060000Y-82661428D01*
X195107619Y-82613809D01*
X195202857Y-82566190D01*
X195298095Y-82566190D01*
X195393333Y-82613809D01*
X195440952Y-82661428D01*
X195488571Y-82756666D01*
X195488571Y-83090000D01*
X195012380Y-82090000D02*
X195821904Y-82090000D01*
X195917142Y-82042380D01*
X195964761Y-81994761D01*
X196012380Y-81899523D01*
X196012380Y-81709047D01*
X195964761Y-81613809D01*
X195917142Y-81566190D01*
X195821904Y-81518571D01*
X195012380Y-81518571D01*
X195964761Y-81090000D02*
X196012380Y-80947142D01*
X196012380Y-80709047D01*
X195964761Y-80613809D01*
X195917142Y-80566190D01*
X195821904Y-80518571D01*
X195726666Y-80518571D01*
X195631428Y-80566190D01*
X195583809Y-80613809D01*
X195536190Y-80709047D01*
X195488571Y-80899523D01*
X195440952Y-80994761D01*
X195393333Y-81042380D01*
X195298095Y-81090000D01*
X195202857Y-81090000D01*
X195107619Y-81042380D01*
X195060000Y-80994761D01*
X195012380Y-80899523D01*
X195012380Y-80661428D01*
X195060000Y-80518571D01*
X197743333Y-126222380D02*
X197743333Y-125222380D01*
X198219523Y-126222380D02*
X198219523Y-125222380D01*
X198790952Y-126222380D01*
X198790952Y-125222380D01*
X199124285Y-125222380D02*
X199695714Y-125222380D01*
X199410000Y-126222380D02*
X199410000Y-125222380D01*
X201076666Y-125222380D02*
X201076666Y-125936666D01*
X201029047Y-126079523D01*
X200933809Y-126174761D01*
X200790952Y-126222380D01*
X200695714Y-126222380D01*
X201552857Y-126222380D02*
X201552857Y-125222380D01*
X201933809Y-125222380D01*
X202029047Y-125270000D01*
X202076666Y-125317619D01*
X202124285Y-125412857D01*
X202124285Y-125555714D01*
X202076666Y-125650952D01*
X202029047Y-125698571D01*
X201933809Y-125746190D01*
X201552857Y-125746190D01*
X194594285Y-116327380D02*
X195260952Y-116327380D01*
X194594285Y-117327380D01*
X195260952Y-117327380D01*
X195784761Y-116755952D02*
X195689523Y-116708333D01*
X195641904Y-116660714D01*
X195594285Y-116565476D01*
X195594285Y-116517857D01*
X195641904Y-116422619D01*
X195689523Y-116375000D01*
X195784761Y-116327380D01*
X195975238Y-116327380D01*
X196070476Y-116375000D01*
X196118095Y-116422619D01*
X196165714Y-116517857D01*
X196165714Y-116565476D01*
X196118095Y-116660714D01*
X196070476Y-116708333D01*
X195975238Y-116755952D01*
X195784761Y-116755952D01*
X195689523Y-116803571D01*
X195641904Y-116851190D01*
X195594285Y-116946428D01*
X195594285Y-117136904D01*
X195641904Y-117232142D01*
X195689523Y-117279761D01*
X195784761Y-117327380D01*
X195975238Y-117327380D01*
X196070476Y-117279761D01*
X196118095Y-117232142D01*
X196165714Y-117136904D01*
X196165714Y-116946428D01*
X196118095Y-116851190D01*
X196070476Y-116803571D01*
X195975238Y-116755952D01*
X196784761Y-116327380D02*
X196880000Y-116327380D01*
X196975238Y-116375000D01*
X197022857Y-116422619D01*
X197070476Y-116517857D01*
X197118095Y-116708333D01*
X197118095Y-116946428D01*
X197070476Y-117136904D01*
X197022857Y-117232142D01*
X196975238Y-117279761D01*
X196880000Y-117327380D01*
X196784761Y-117327380D01*
X196689523Y-117279761D01*
X196641904Y-117232142D01*
X196594285Y-117136904D01*
X196546666Y-116946428D01*
X196546666Y-116708333D01*
X196594285Y-116517857D01*
X196641904Y-116422619D01*
X196689523Y-116375000D01*
X196784761Y-116327380D01*
X194903809Y-118882142D02*
X194856190Y-118929761D01*
X194713333Y-118977380D01*
X194618095Y-118977380D01*
X194475238Y-118929761D01*
X194380000Y-118834523D01*
X194332380Y-118739285D01*
X194284761Y-118548809D01*
X194284761Y-118405952D01*
X194332380Y-118215476D01*
X194380000Y-118120238D01*
X194475238Y-118025000D01*
X194618095Y-117977380D01*
X194713333Y-117977380D01*
X194856190Y-118025000D01*
X194903809Y-118072619D01*
X195189523Y-117977380D02*
X195760952Y-117977380D01*
X195475238Y-118977380D02*
X195475238Y-117977380D01*
X196665714Y-118977380D02*
X196332380Y-118501190D01*
X196094285Y-118977380D02*
X196094285Y-117977380D01*
X196475238Y-117977380D01*
X196570476Y-118025000D01*
X196618095Y-118072619D01*
X196665714Y-118167857D01*
X196665714Y-118310714D01*
X196618095Y-118405952D01*
X196570476Y-118453571D01*
X196475238Y-118501190D01*
X196094285Y-118501190D01*
X197570476Y-118977380D02*
X197094285Y-118977380D01*
X197094285Y-117977380D01*
X195946666Y-122532380D02*
X195946666Y-123246666D01*
X195899047Y-123389523D01*
X195803809Y-123484761D01*
X195660952Y-123532380D01*
X195565714Y-123532380D01*
X196327619Y-122532380D02*
X196946666Y-122532380D01*
X196613333Y-122913333D01*
X196756190Y-122913333D01*
X196851428Y-122960952D01*
X196899047Y-123008571D01*
X196946666Y-123103809D01*
X196946666Y-123341904D01*
X196899047Y-123437142D01*
X196851428Y-123484761D01*
X196756190Y-123532380D01*
X196470476Y-123532380D01*
X196375238Y-123484761D01*
X196327619Y-123437142D01*
X204315238Y-128792380D02*
X204315238Y-127792380D01*
X204791428Y-128792380D02*
X204791428Y-127792380D01*
X205362857Y-128792380D01*
X205362857Y-127792380D01*
X205696190Y-127792380D02*
X206267619Y-127792380D01*
X205981904Y-128792380D02*
X205981904Y-127792380D01*
X203672380Y-126244761D02*
X203815238Y-126292380D01*
X204053333Y-126292380D01*
X204148571Y-126244761D01*
X204196190Y-126197142D01*
X204243809Y-126101904D01*
X204243809Y-126006666D01*
X204196190Y-125911428D01*
X204148571Y-125863809D01*
X204053333Y-125816190D01*
X203862857Y-125768571D01*
X203767619Y-125720952D01*
X203720000Y-125673333D01*
X203672380Y-125578095D01*
X203672380Y-125482857D01*
X203720000Y-125387619D01*
X203767619Y-125340000D01*
X203862857Y-125292380D01*
X204100952Y-125292380D01*
X204243809Y-125340000D01*
X205148571Y-126292380D02*
X204672380Y-126292380D01*
X204672380Y-125292380D01*
X205339047Y-125292380D02*
X205910476Y-125292380D01*
X205624761Y-126292380D02*
X205624761Y-125292380D01*
X206148571Y-125292380D02*
X206767619Y-125292380D01*
X206434285Y-125673333D01*
X206577142Y-125673333D01*
X206672380Y-125720952D01*
X206720000Y-125768571D01*
X206767619Y-125863809D01*
X206767619Y-126101904D01*
X206720000Y-126197142D01*
X206672380Y-126244761D01*
X206577142Y-126292380D01*
X206291428Y-126292380D01*
X206196190Y-126244761D01*
X206148571Y-126197142D01*
X203481904Y-122425000D02*
X204434285Y-122425000D01*
X203672380Y-123744761D02*
X203815238Y-123792380D01*
X204053333Y-123792380D01*
X204148571Y-123744761D01*
X204196190Y-123697142D01*
X204243809Y-123601904D01*
X204243809Y-123506666D01*
X204196190Y-123411428D01*
X204148571Y-123363809D01*
X204053333Y-123316190D01*
X203862857Y-123268571D01*
X203767619Y-123220952D01*
X203720000Y-123173333D01*
X203672380Y-123078095D01*
X203672380Y-122982857D01*
X203720000Y-122887619D01*
X203767619Y-122840000D01*
X203862857Y-122792380D01*
X204100952Y-122792380D01*
X204243809Y-122840000D01*
X204434285Y-122425000D02*
X205243809Y-122425000D01*
X205148571Y-123792380D02*
X204672380Y-123792380D01*
X204672380Y-122792380D01*
X205243809Y-122425000D02*
X206005714Y-122425000D01*
X205339047Y-122792380D02*
X205910476Y-122792380D01*
X205624761Y-123792380D02*
X205624761Y-122792380D01*
X206005714Y-122425000D02*
X206958095Y-122425000D01*
X206148571Y-122792380D02*
X206767619Y-122792380D01*
X206434285Y-123173333D01*
X206577142Y-123173333D01*
X206672380Y-123220952D01*
X206720000Y-123268571D01*
X206767619Y-123363809D01*
X206767619Y-123601904D01*
X206720000Y-123697142D01*
X206672380Y-123744761D01*
X206577142Y-123792380D01*
X206291428Y-123792380D01*
X206196190Y-123744761D01*
X206148571Y-123697142D01*
X203481904Y-119925000D02*
X204434285Y-119925000D01*
X203672380Y-121244761D02*
X203815238Y-121292380D01*
X204053333Y-121292380D01*
X204148571Y-121244761D01*
X204196190Y-121197142D01*
X204243809Y-121101904D01*
X204243809Y-121006666D01*
X204196190Y-120911428D01*
X204148571Y-120863809D01*
X204053333Y-120816190D01*
X203862857Y-120768571D01*
X203767619Y-120720952D01*
X203720000Y-120673333D01*
X203672380Y-120578095D01*
X203672380Y-120482857D01*
X203720000Y-120387619D01*
X203767619Y-120340000D01*
X203862857Y-120292380D01*
X204100952Y-120292380D01*
X204243809Y-120340000D01*
X204434285Y-119925000D02*
X205243809Y-119925000D01*
X205148571Y-121292380D02*
X204672380Y-121292380D01*
X204672380Y-120292380D01*
X205243809Y-119925000D02*
X206005714Y-119925000D01*
X205339047Y-120292380D02*
X205910476Y-120292380D01*
X205624761Y-121292380D02*
X205624761Y-120292380D01*
X206005714Y-119925000D02*
X206958095Y-119925000D01*
X206196190Y-120387619D02*
X206243809Y-120340000D01*
X206339047Y-120292380D01*
X206577142Y-120292380D01*
X206672380Y-120340000D01*
X206720000Y-120387619D01*
X206767619Y-120482857D01*
X206767619Y-120578095D01*
X206720000Y-120720952D01*
X206148571Y-121292380D01*
X206767619Y-121292380D01*
X203481904Y-116925000D02*
X204434285Y-116925000D01*
X203672380Y-118244761D02*
X203815238Y-118292380D01*
X204053333Y-118292380D01*
X204148571Y-118244761D01*
X204196190Y-118197142D01*
X204243809Y-118101904D01*
X204243809Y-118006666D01*
X204196190Y-117911428D01*
X204148571Y-117863809D01*
X204053333Y-117816190D01*
X203862857Y-117768571D01*
X203767619Y-117720952D01*
X203720000Y-117673333D01*
X203672380Y-117578095D01*
X203672380Y-117482857D01*
X203720000Y-117387619D01*
X203767619Y-117340000D01*
X203862857Y-117292380D01*
X204100952Y-117292380D01*
X204243809Y-117340000D01*
X204434285Y-116925000D02*
X205243809Y-116925000D01*
X205148571Y-118292380D02*
X204672380Y-118292380D01*
X204672380Y-117292380D01*
X205243809Y-116925000D02*
X206005714Y-116925000D01*
X205339047Y-117292380D02*
X205910476Y-117292380D01*
X205624761Y-118292380D02*
X205624761Y-117292380D01*
X206005714Y-116925000D02*
X206958095Y-116925000D01*
X206434285Y-117292380D02*
X206529523Y-117292380D01*
X206624761Y-117340000D01*
X206672380Y-117387619D01*
X206720000Y-117482857D01*
X206767619Y-117673333D01*
X206767619Y-117911428D01*
X206720000Y-118101904D01*
X206672380Y-118197142D01*
X206624761Y-118244761D01*
X206529523Y-118292380D01*
X206434285Y-118292380D01*
X206339047Y-118244761D01*
X206291428Y-118197142D01*
X206243809Y-118101904D01*
X206196190Y-117911428D01*
X206196190Y-117673333D01*
X206243809Y-117482857D01*
X206291428Y-117387619D01*
X206339047Y-117340000D01*
X206434285Y-117292380D01*
D12*
X124072380Y-123282380D02*
X124072380Y-122615714D01*
X125072380Y-123282380D01*
X125072380Y-122615714D01*
X124500952Y-122091904D02*
X124453333Y-122187142D01*
X124405714Y-122234761D01*
X124310476Y-122282380D01*
X124262857Y-122282380D01*
X124167619Y-122234761D01*
X124120000Y-122187142D01*
X124072380Y-122091904D01*
X124072380Y-121901428D01*
X124120000Y-121806190D01*
X124167619Y-121758571D01*
X124262857Y-121710952D01*
X124310476Y-121710952D01*
X124405714Y-121758571D01*
X124453333Y-121806190D01*
X124500952Y-121901428D01*
X124500952Y-122091904D01*
X124548571Y-122187142D01*
X124596190Y-122234761D01*
X124691428Y-122282380D01*
X124881904Y-122282380D01*
X124977142Y-122234761D01*
X125024761Y-122187142D01*
X125072380Y-122091904D01*
X125072380Y-121901428D01*
X125024761Y-121806190D01*
X124977142Y-121758571D01*
X124881904Y-121710952D01*
X124691428Y-121710952D01*
X124596190Y-121758571D01*
X124548571Y-121806190D01*
X124500952Y-121901428D01*
X124072380Y-121091904D02*
X124072380Y-120996666D01*
X124120000Y-120901428D01*
X124167619Y-120853809D01*
X124262857Y-120806190D01*
X124453333Y-120758571D01*
X124691428Y-120758571D01*
X124881904Y-120806190D01*
X124977142Y-120853809D01*
X125024761Y-120901428D01*
X125072380Y-120996666D01*
X125072380Y-121091904D01*
X125024761Y-121187142D01*
X124977142Y-121234761D01*
X124881904Y-121282380D01*
X124691428Y-121330000D01*
X124453333Y-121330000D01*
X124262857Y-121282380D01*
X124167619Y-121234761D01*
X124120000Y-121187142D01*
X124072380Y-121091904D01*
X124977142Y-118996666D02*
X125024761Y-119044285D01*
X125072380Y-119187142D01*
X125072380Y-119282380D01*
X125024761Y-119425238D01*
X124929523Y-119520476D01*
X124834285Y-119568095D01*
X124643809Y-119615714D01*
X124500952Y-119615714D01*
X124310476Y-119568095D01*
X124215238Y-119520476D01*
X124120000Y-119425238D01*
X124072380Y-119282380D01*
X124072380Y-119187142D01*
X124120000Y-119044285D01*
X124167619Y-118996666D01*
X124072380Y-118710952D02*
X124072380Y-118139523D01*
X125072380Y-118425238D02*
X124072380Y-118425238D01*
X125072380Y-117234761D02*
X124596190Y-117568095D01*
X125072380Y-117806190D02*
X124072380Y-117806190D01*
X124072380Y-117425238D01*
X124120000Y-117330000D01*
X124167619Y-117282380D01*
X124262857Y-117234761D01*
X124405714Y-117234761D01*
X124500952Y-117282380D01*
X124548571Y-117330000D01*
X124596190Y-117425238D01*
X124596190Y-117806190D01*
X125072380Y-116330000D02*
X125072380Y-116806190D01*
X124072380Y-116806190D01*
X125072380Y-98913333D02*
X124072380Y-98913333D01*
X124072380Y-98532380D01*
X124120000Y-98437142D01*
X124167619Y-98389523D01*
X124262857Y-98341904D01*
X124405714Y-98341904D01*
X124500952Y-98389523D01*
X124548571Y-98437142D01*
X124596190Y-98532380D01*
X124596190Y-98913333D01*
X125072380Y-97913333D02*
X124072380Y-97913333D01*
X124072380Y-97532380D01*
X124120000Y-97437142D01*
X124167619Y-97389523D01*
X124262857Y-97341904D01*
X124405714Y-97341904D01*
X124500952Y-97389523D01*
X124548571Y-97437142D01*
X124596190Y-97532380D01*
X124596190Y-97913333D01*
X125072380Y-96913333D02*
X124072380Y-96913333D01*
X125072380Y-95675238D02*
X124072380Y-95675238D01*
X124072380Y-95294285D01*
X124120000Y-95199047D01*
X124167619Y-95151428D01*
X124262857Y-95103809D01*
X124405714Y-95103809D01*
X124500952Y-95151428D01*
X124548571Y-95199047D01*
X124596190Y-95294285D01*
X124596190Y-95675238D01*
X124072380Y-94484761D02*
X124072380Y-94294285D01*
X124120000Y-94199047D01*
X124215238Y-94103809D01*
X124405714Y-94056190D01*
X124739047Y-94056190D01*
X124929523Y-94103809D01*
X125024761Y-94199047D01*
X125072380Y-94294285D01*
X125072380Y-94484761D01*
X125024761Y-94580000D01*
X124929523Y-94675238D01*
X124739047Y-94722857D01*
X124405714Y-94722857D01*
X124215238Y-94675238D01*
X124120000Y-94580000D01*
X124072380Y-94484761D01*
X125072380Y-93056190D02*
X124596190Y-93389523D01*
X125072380Y-93627619D02*
X124072380Y-93627619D01*
X124072380Y-93246666D01*
X124120000Y-93151428D01*
X124167619Y-93103809D01*
X124262857Y-93056190D01*
X124405714Y-93056190D01*
X124500952Y-93103809D01*
X124548571Y-93151428D01*
X124596190Y-93246666D01*
X124596190Y-93627619D01*
X124072380Y-92770476D02*
X124072380Y-92199047D01*
X125072380Y-92484761D02*
X124072380Y-92484761D01*
X124691428Y-91865714D02*
X124691428Y-91103809D01*
X124786666Y-90675238D02*
X124786666Y-90199047D01*
X125072380Y-90770476D02*
X124072380Y-90437142D01*
X125072380Y-90103809D01*
D10*
X173981428Y-116948571D02*
X174981428Y-116948571D01*
X174338571Y-118448571D01*
X176195714Y-117448571D02*
X176195714Y-118448571D01*
X175838571Y-116877142D02*
X175481428Y-117948571D01*
X176410000Y-117948571D01*
X176981428Y-118448571D02*
X176981428Y-116948571D01*
X176981428Y-117662857D02*
X177838571Y-117662857D01*
X177838571Y-118448571D02*
X177838571Y-116948571D01*
X179410000Y-118305714D02*
X179338571Y-118377142D01*
X179124285Y-118448571D01*
X178981428Y-118448571D01*
X178767142Y-118377142D01*
X178624285Y-118234285D01*
X178552857Y-118091428D01*
X178481428Y-117805714D01*
X178481428Y-117591428D01*
X178552857Y-117305714D01*
X178624285Y-117162857D01*
X178767142Y-117020000D01*
X178981428Y-116948571D01*
X179124285Y-116948571D01*
X179338571Y-117020000D01*
X179410000Y-117091428D01*
X180338571Y-116948571D02*
X180481428Y-116948571D01*
X180624285Y-117020000D01*
X180695714Y-117091428D01*
X180767142Y-117234285D01*
X180838571Y-117520000D01*
X180838571Y-117877142D01*
X180767142Y-118162857D01*
X180695714Y-118305714D01*
X180624285Y-118377142D01*
X180481428Y-118448571D01*
X180338571Y-118448571D01*
X180195714Y-118377142D01*
X180124285Y-118305714D01*
X180052857Y-118162857D01*
X179981428Y-117877142D01*
X179981428Y-117520000D01*
X180052857Y-117234285D01*
X180124285Y-117091428D01*
X180195714Y-117020000D01*
X180338571Y-116948571D01*
X181767142Y-116948571D02*
X181910000Y-116948571D01*
X182052857Y-117020000D01*
X182124285Y-117091428D01*
X182195714Y-117234285D01*
X182267142Y-117520000D01*
X182267142Y-117877142D01*
X182195714Y-118162857D01*
X182124285Y-118305714D01*
X182052857Y-118377142D01*
X181910000Y-118448571D01*
X181767142Y-118448571D01*
X181624285Y-118377142D01*
X181552857Y-118305714D01*
X181481428Y-118162857D01*
X181410000Y-117877142D01*
X181410000Y-117520000D01*
X181481428Y-117234285D01*
X181552857Y-117091428D01*
X181624285Y-117020000D01*
X181767142Y-116948571D01*
X148361428Y-117108571D02*
X149361428Y-117108571D01*
X148718571Y-118608571D01*
X150575714Y-117608571D02*
X150575714Y-118608571D01*
X150218571Y-117037142D02*
X149861428Y-118108571D01*
X150790000Y-118108571D01*
X151361428Y-118608571D02*
X151361428Y-117108571D01*
X151361428Y-117822857D02*
X152218571Y-117822857D01*
X152218571Y-118608571D02*
X152218571Y-117108571D01*
X153790000Y-118465714D02*
X153718571Y-118537142D01*
X153504285Y-118608571D01*
X153361428Y-118608571D01*
X153147142Y-118537142D01*
X153004285Y-118394285D01*
X152932857Y-118251428D01*
X152861428Y-117965714D01*
X152861428Y-117751428D01*
X152932857Y-117465714D01*
X153004285Y-117322857D01*
X153147142Y-117180000D01*
X153361428Y-117108571D01*
X153504285Y-117108571D01*
X153718571Y-117180000D01*
X153790000Y-117251428D01*
X154290000Y-117108571D02*
X155218571Y-117108571D01*
X154718571Y-117680000D01*
X154932857Y-117680000D01*
X155075714Y-117751428D01*
X155147142Y-117822857D01*
X155218571Y-117965714D01*
X155218571Y-118322857D01*
X155147142Y-118465714D01*
X155075714Y-118537142D01*
X154932857Y-118608571D01*
X154504285Y-118608571D01*
X154361428Y-118537142D01*
X154290000Y-118465714D01*
X155790000Y-117251428D02*
X155861428Y-117180000D01*
X156004285Y-117108571D01*
X156361428Y-117108571D01*
X156504285Y-117180000D01*
X156575714Y-117251428D01*
X156647142Y-117394285D01*
X156647142Y-117537142D01*
X156575714Y-117751428D01*
X155718571Y-118608571D01*
X156647142Y-118608571D01*
X197237142Y-104298571D02*
X198237142Y-104298571D01*
X197594285Y-105798571D01*
X199451428Y-104798571D02*
X199451428Y-105798571D01*
X199094285Y-104227142D02*
X198737142Y-105298571D01*
X199665714Y-105298571D01*
X200237142Y-105798571D02*
X200237142Y-104298571D01*
X200237142Y-105012857D02*
X201094285Y-105012857D01*
X201094285Y-105798571D02*
X201094285Y-104298571D01*
X202665714Y-105655714D02*
X202594285Y-105727142D01*
X202380000Y-105798571D01*
X202237142Y-105798571D01*
X202022857Y-105727142D01*
X201880000Y-105584285D01*
X201808571Y-105441428D01*
X201737142Y-105155714D01*
X201737142Y-104941428D01*
X201808571Y-104655714D01*
X201880000Y-104512857D01*
X202022857Y-104370000D01*
X202237142Y-104298571D01*
X202380000Y-104298571D01*
X202594285Y-104370000D01*
X202665714Y-104441428D01*
X204094285Y-105798571D02*
X203237142Y-105798571D01*
X203665714Y-105798571D02*
X203665714Y-104298571D01*
X203522857Y-104512857D01*
X203380000Y-104655714D01*
X203237142Y-104727142D01*
X204594285Y-104298571D02*
X205522857Y-104298571D01*
X205022857Y-104870000D01*
X205237142Y-104870000D01*
X205380000Y-104941428D01*
X205451428Y-105012857D01*
X205522857Y-105155714D01*
X205522857Y-105512857D01*
X205451428Y-105655714D01*
X205380000Y-105727142D01*
X205237142Y-105798571D01*
X204808571Y-105798571D01*
X204665714Y-105727142D01*
X204594285Y-105655714D01*
X206237142Y-105798571D02*
X206522857Y-105798571D01*
X206665714Y-105727142D01*
X206737142Y-105655714D01*
X206880000Y-105441428D01*
X206951428Y-105155714D01*
X206951428Y-104584285D01*
X206880000Y-104441428D01*
X206808571Y-104370000D01*
X206665714Y-104298571D01*
X206380000Y-104298571D01*
X206237142Y-104370000D01*
X206165714Y-104441428D01*
X206094285Y-104584285D01*
X206094285Y-104941428D01*
X206165714Y-105084285D01*
X206237142Y-105155714D01*
X206380000Y-105227142D01*
X206665714Y-105227142D01*
X206808571Y-105155714D01*
X206880000Y-105084285D01*
X206951428Y-104941428D01*
X173431428Y-104458571D02*
X174431428Y-104458571D01*
X173788571Y-105958571D01*
X175645714Y-104958571D02*
X175645714Y-105958571D01*
X175288571Y-104387142D02*
X174931428Y-105458571D01*
X175860000Y-105458571D01*
X176431428Y-105958571D02*
X176431428Y-104458571D01*
X176431428Y-105172857D02*
X177288571Y-105172857D01*
X177288571Y-105958571D02*
X177288571Y-104458571D01*
X178860000Y-105815714D02*
X178788571Y-105887142D01*
X178574285Y-105958571D01*
X178431428Y-105958571D01*
X178217142Y-105887142D01*
X178074285Y-105744285D01*
X178002857Y-105601428D01*
X177931428Y-105315714D01*
X177931428Y-105101428D01*
X178002857Y-104815714D01*
X178074285Y-104672857D01*
X178217142Y-104530000D01*
X178431428Y-104458571D01*
X178574285Y-104458571D01*
X178788571Y-104530000D01*
X178860000Y-104601428D01*
X179788571Y-104458571D02*
X179931428Y-104458571D01*
X180074285Y-104530000D01*
X180145714Y-104601428D01*
X180217142Y-104744285D01*
X180288571Y-105030000D01*
X180288571Y-105387142D01*
X180217142Y-105672857D01*
X180145714Y-105815714D01*
X180074285Y-105887142D01*
X179931428Y-105958571D01*
X179788571Y-105958571D01*
X179645714Y-105887142D01*
X179574285Y-105815714D01*
X179502857Y-105672857D01*
X179431428Y-105387142D01*
X179431428Y-105030000D01*
X179502857Y-104744285D01*
X179574285Y-104601428D01*
X179645714Y-104530000D01*
X179788571Y-104458571D01*
X181217142Y-104458571D02*
X181360000Y-104458571D01*
X181502857Y-104530000D01*
X181574285Y-104601428D01*
X181645714Y-104744285D01*
X181717142Y-105030000D01*
X181717142Y-105387142D01*
X181645714Y-105672857D01*
X181574285Y-105815714D01*
X181502857Y-105887142D01*
X181360000Y-105958571D01*
X181217142Y-105958571D01*
X181074285Y-105887142D01*
X181002857Y-105815714D01*
X180931428Y-105672857D01*
X180860000Y-105387142D01*
X180860000Y-105030000D01*
X180931428Y-104744285D01*
X181002857Y-104601428D01*
X181074285Y-104530000D01*
X181217142Y-104458571D01*
X148277142Y-104618571D02*
X149277142Y-104618571D01*
X148634285Y-106118571D01*
X150491428Y-105118571D02*
X150491428Y-106118571D01*
X150134285Y-104547142D02*
X149777142Y-105618571D01*
X150705714Y-105618571D01*
X151277142Y-106118571D02*
X151277142Y-104618571D01*
X151277142Y-105332857D02*
X152134285Y-105332857D01*
X152134285Y-106118571D02*
X152134285Y-104618571D01*
X153705714Y-105975714D02*
X153634285Y-106047142D01*
X153420000Y-106118571D01*
X153277142Y-106118571D01*
X153062857Y-106047142D01*
X152920000Y-105904285D01*
X152848571Y-105761428D01*
X152777142Y-105475714D01*
X152777142Y-105261428D01*
X152848571Y-104975714D01*
X152920000Y-104832857D01*
X153062857Y-104690000D01*
X153277142Y-104618571D01*
X153420000Y-104618571D01*
X153634285Y-104690000D01*
X153705714Y-104761428D01*
X155134285Y-106118571D02*
X154277142Y-106118571D01*
X154705714Y-106118571D02*
X154705714Y-104618571D01*
X154562857Y-104832857D01*
X154420000Y-104975714D01*
X154277142Y-105047142D01*
X156491428Y-104618571D02*
X155777142Y-104618571D01*
X155705714Y-105332857D01*
X155777142Y-105261428D01*
X155920000Y-105190000D01*
X156277142Y-105190000D01*
X156420000Y-105261428D01*
X156491428Y-105332857D01*
X156562857Y-105475714D01*
X156562857Y-105832857D01*
X156491428Y-105975714D01*
X156420000Y-106047142D01*
X156277142Y-106118571D01*
X155920000Y-106118571D01*
X155777142Y-106047142D01*
X155705714Y-105975714D01*
X157062857Y-104618571D02*
X157991428Y-104618571D01*
X157491428Y-105190000D01*
X157705714Y-105190000D01*
X157848571Y-105261428D01*
X157920000Y-105332857D01*
X157991428Y-105475714D01*
X157991428Y-105832857D01*
X157920000Y-105975714D01*
X157848571Y-106047142D01*
X157705714Y-106118571D01*
X157277142Y-106118571D01*
X157134285Y-106047142D01*
X157062857Y-105975714D01*
X148475714Y-96548571D02*
X148475714Y-95048571D01*
X149332857Y-96548571D02*
X148690000Y-95691428D01*
X149332857Y-95048571D02*
X148475714Y-95905714D01*
X149832857Y-95048571D02*
X150832857Y-95048571D01*
X149832857Y-96548571D01*
X150832857Y-96548571D01*
X151618571Y-95691428D02*
X151475714Y-95620000D01*
X151404285Y-95548571D01*
X151332857Y-95405714D01*
X151332857Y-95334285D01*
X151404285Y-95191428D01*
X151475714Y-95120000D01*
X151618571Y-95048571D01*
X151904285Y-95048571D01*
X152047142Y-95120000D01*
X152118571Y-95191428D01*
X152190000Y-95334285D01*
X152190000Y-95405714D01*
X152118571Y-95548571D01*
X152047142Y-95620000D01*
X151904285Y-95691428D01*
X151618571Y-95691428D01*
X151475714Y-95762857D01*
X151404285Y-95834285D01*
X151332857Y-95977142D01*
X151332857Y-96262857D01*
X151404285Y-96405714D01*
X151475714Y-96477142D01*
X151618571Y-96548571D01*
X151904285Y-96548571D01*
X152047142Y-96477142D01*
X152118571Y-96405714D01*
X152190000Y-96262857D01*
X152190000Y-95977142D01*
X152118571Y-95834285D01*
X152047142Y-95762857D01*
X151904285Y-95691428D01*
X153118571Y-95048571D02*
X153261428Y-95048571D01*
X153404285Y-95120000D01*
X153475714Y-95191428D01*
X153547142Y-95334285D01*
X153618571Y-95620000D01*
X153618571Y-95977142D01*
X153547142Y-96262857D01*
X153475714Y-96405714D01*
X153404285Y-96477142D01*
X153261428Y-96548571D01*
X153118571Y-96548571D01*
X152975714Y-96477142D01*
X152904285Y-96405714D01*
X152832857Y-96262857D01*
X152761428Y-95977142D01*
X152761428Y-95620000D01*
X152832857Y-95334285D01*
X152904285Y-95191428D01*
X152975714Y-95120000D01*
X153118571Y-95048571D01*
X154261428Y-95977142D02*
X155404285Y-95977142D01*
X156118571Y-96548571D02*
X156118571Y-95048571D01*
X156618571Y-96120000D01*
X157118571Y-95048571D01*
X157118571Y-96548571D01*
X157761428Y-96477142D02*
X157975714Y-96548571D01*
X158332857Y-96548571D01*
X158475714Y-96477142D01*
X158547142Y-96405714D01*
X158618571Y-96262857D01*
X158618571Y-96120000D01*
X158547142Y-95977142D01*
X158475714Y-95905714D01*
X158332857Y-95834285D01*
X158047142Y-95762857D01*
X157904285Y-95691428D01*
X157832857Y-95620000D01*
X157761428Y-95477142D01*
X157761428Y-95334285D01*
X157832857Y-95191428D01*
X157904285Y-95120000D01*
X158047142Y-95048571D01*
X158404285Y-95048571D01*
X158618571Y-95120000D01*
X159118571Y-95048571D02*
X160118571Y-96548571D01*
X160118571Y-95048571D02*
X159118571Y-96548571D01*
X161547142Y-96405714D02*
X161475714Y-96477142D01*
X161261428Y-96548571D01*
X161118571Y-96548571D01*
X160904285Y-96477142D01*
X160761428Y-96334285D01*
X160690000Y-96191428D01*
X160618571Y-95905714D01*
X160618571Y-95691428D01*
X160690000Y-95405714D01*
X160761428Y-95262857D01*
X160904285Y-95120000D01*
X161118571Y-95048571D01*
X161261428Y-95048571D01*
X161475714Y-95120000D01*
X161547142Y-95191428D01*
X161975714Y-95048571D02*
X162832857Y-95048571D01*
X162404285Y-96548571D02*
X162404285Y-95048571D01*
X164190000Y-96548571D02*
X163690000Y-95834285D01*
X163332857Y-96548571D02*
X163332857Y-95048571D01*
X163904285Y-95048571D01*
X164047142Y-95120000D01*
X164118571Y-95191428D01*
X164190000Y-95334285D01*
X164190000Y-95548571D01*
X164118571Y-95691428D01*
X164047142Y-95762857D01*
X163904285Y-95834285D01*
X163332857Y-95834285D01*
X165618571Y-95120000D02*
X165475714Y-95048571D01*
X165261428Y-95048571D01*
X165047142Y-95120000D01*
X164904285Y-95262857D01*
X164832857Y-95405714D01*
X164761428Y-95691428D01*
X164761428Y-95905714D01*
X164832857Y-96191428D01*
X164904285Y-96334285D01*
X165047142Y-96477142D01*
X165261428Y-96548571D01*
X165404285Y-96548571D01*
X165618571Y-96477142D01*
X165690000Y-96405714D01*
X165690000Y-95905714D01*
X165404285Y-95905714D01*
X168332857Y-96548571D02*
X167832857Y-95834285D01*
X167475714Y-96548571D02*
X167475714Y-95048571D01*
X168047142Y-95048571D01*
X168190000Y-95120000D01*
X168261428Y-95191428D01*
X168332857Y-95334285D01*
X168332857Y-95548571D01*
X168261428Y-95691428D01*
X168190000Y-95762857D01*
X168047142Y-95834285D01*
X167475714Y-95834285D01*
X168975714Y-95762857D02*
X169475714Y-95762857D01*
X169690000Y-96548571D02*
X168975714Y-96548571D01*
X168975714Y-95048571D01*
X169690000Y-95048571D01*
X170118571Y-95048571D02*
X170618571Y-96548571D01*
X171118571Y-95048571D01*
X172404285Y-96548571D02*
X171547142Y-96548571D01*
X171975714Y-96548571D02*
X171975714Y-95048571D01*
X171832857Y-95262857D01*
X171690000Y-95405714D01*
X171547142Y-95477142D01*
X174190000Y-96405714D02*
X174261428Y-96477142D01*
X174190000Y-96548571D01*
X174118571Y-96477142D01*
X174190000Y-96405714D01*
X174190000Y-96548571D01*
X174190000Y-95620000D02*
X174261428Y-95691428D01*
X174190000Y-95762857D01*
X174118571Y-95691428D01*
X174190000Y-95620000D01*
X174190000Y-95762857D01*
X176047142Y-96548571D02*
X176047142Y-95048571D01*
X176547142Y-96120000D01*
X177047142Y-95048571D01*
X177047142Y-96548571D01*
X177690000Y-96477142D02*
X177904285Y-96548571D01*
X178261428Y-96548571D01*
X178404285Y-96477142D01*
X178475714Y-96405714D01*
X178547142Y-96262857D01*
X178547142Y-96120000D01*
X178475714Y-95977142D01*
X178404285Y-95905714D01*
X178261428Y-95834285D01*
X177975714Y-95762857D01*
X177832857Y-95691428D01*
X177761428Y-95620000D01*
X177690000Y-95477142D01*
X177690000Y-95334285D01*
X177761428Y-95191428D01*
X177832857Y-95120000D01*
X177975714Y-95048571D01*
X178332857Y-95048571D01*
X178547142Y-95120000D01*
X179047142Y-95048571D02*
X180047142Y-96548571D01*
X180047142Y-95048571D02*
X179047142Y-96548571D01*
X182618571Y-96548571D02*
X182118571Y-95834285D01*
X181761428Y-96548571D02*
X181761428Y-95048571D01*
X182332857Y-95048571D01*
X182475714Y-95120000D01*
X182547142Y-95191428D01*
X182618571Y-95334285D01*
X182618571Y-95548571D01*
X182547142Y-95691428D01*
X182475714Y-95762857D01*
X182332857Y-95834285D01*
X181761428Y-95834285D01*
X183547142Y-95048571D02*
X183832857Y-95048571D01*
X183975714Y-95120000D01*
X184118571Y-95262857D01*
X184190000Y-95548571D01*
X184190000Y-96048571D01*
X184118571Y-96334285D01*
X183975714Y-96477142D01*
X183832857Y-96548571D01*
X183547142Y-96548571D01*
X183404285Y-96477142D01*
X183261428Y-96334285D01*
X183190000Y-96048571D01*
X183190000Y-95548571D01*
X183261428Y-95262857D01*
X183404285Y-95120000D01*
X183547142Y-95048571D01*
X184832857Y-96548571D02*
X184832857Y-95048571D01*
X185332857Y-96120000D01*
X185832857Y-95048571D01*
X185832857Y-96548571D01*
X188547142Y-96405714D02*
X188475714Y-96477142D01*
X188261428Y-96548571D01*
X188118571Y-96548571D01*
X187904285Y-96477142D01*
X187761428Y-96334285D01*
X187690000Y-96191428D01*
X187618571Y-95905714D01*
X187618571Y-95691428D01*
X187690000Y-95405714D01*
X187761428Y-95262857D01*
X187904285Y-95120000D01*
X188118571Y-95048571D01*
X188261428Y-95048571D01*
X188475714Y-95120000D01*
X188547142Y-95191428D01*
X189832857Y-96548571D02*
X189832857Y-95762857D01*
X189761428Y-95620000D01*
X189618571Y-95548571D01*
X189332857Y-95548571D01*
X189190000Y-95620000D01*
X189832857Y-96477142D02*
X189690000Y-96548571D01*
X189332857Y-96548571D01*
X189190000Y-96477142D01*
X189118571Y-96334285D01*
X189118571Y-96191428D01*
X189190000Y-96048571D01*
X189332857Y-95977142D01*
X189690000Y-95977142D01*
X189832857Y-95905714D01*
X190547142Y-96548571D02*
X190547142Y-95548571D01*
X190547142Y-95834285D02*
X190618571Y-95691428D01*
X190690000Y-95620000D01*
X190832857Y-95548571D01*
X190975714Y-95548571D01*
X191261428Y-95548571D02*
X191832857Y-95548571D01*
X191475714Y-95048571D02*
X191475714Y-96334285D01*
X191547142Y-96477142D01*
X191690000Y-96548571D01*
X191832857Y-96548571D01*
X192332857Y-96548571D02*
X192332857Y-95548571D01*
X192332857Y-95834285D02*
X192404285Y-95691428D01*
X192475714Y-95620000D01*
X192618571Y-95548571D01*
X192761428Y-95548571D01*
X193261428Y-96548571D02*
X193261428Y-95548571D01*
X193261428Y-95048571D02*
X193190000Y-95120000D01*
X193261428Y-95191428D01*
X193332857Y-95120000D01*
X193261428Y-95048571D01*
X193261428Y-95191428D01*
X194618571Y-96548571D02*
X194618571Y-95048571D01*
X194618571Y-96477142D02*
X194475714Y-96548571D01*
X194190000Y-96548571D01*
X194047142Y-96477142D01*
X193975714Y-96405714D01*
X193904285Y-96262857D01*
X193904285Y-95834285D01*
X193975714Y-95691428D01*
X194047142Y-95620000D01*
X194190000Y-95548571D01*
X194475714Y-95548571D01*
X194618571Y-95620000D01*
X195975714Y-95548571D02*
X195975714Y-96762857D01*
X195904285Y-96905714D01*
X195832857Y-96977142D01*
X195690000Y-97048571D01*
X195475714Y-97048571D01*
X195332857Y-96977142D01*
X195975714Y-96477142D02*
X195832857Y-96548571D01*
X195547142Y-96548571D01*
X195404285Y-96477142D01*
X195332857Y-96405714D01*
X195261428Y-96262857D01*
X195261428Y-95834285D01*
X195332857Y-95691428D01*
X195404285Y-95620000D01*
X195547142Y-95548571D01*
X195832857Y-95548571D01*
X195975714Y-95620000D01*
X197261428Y-96477142D02*
X197118571Y-96548571D01*
X196832857Y-96548571D01*
X196690000Y-96477142D01*
X196618571Y-96334285D01*
X196618571Y-95762857D01*
X196690000Y-95620000D01*
X196832857Y-95548571D01*
X197118571Y-95548571D01*
X197261428Y-95620000D01*
X197332857Y-95762857D01*
X197332857Y-95905714D01*
X196618571Y-96048571D01*
X199618571Y-95762857D02*
X199832857Y-95834285D01*
X199904285Y-95905714D01*
X199975714Y-96048571D01*
X199975714Y-96262857D01*
X199904285Y-96405714D01*
X199832857Y-96477142D01*
X199690000Y-96548571D01*
X199118571Y-96548571D01*
X199118571Y-95048571D01*
X199618571Y-95048571D01*
X199761428Y-95120000D01*
X199832857Y-95191428D01*
X199904285Y-95334285D01*
X199904285Y-95477142D01*
X199832857Y-95620000D01*
X199761428Y-95691428D01*
X199618571Y-95762857D01*
X199118571Y-95762857D01*
X200904285Y-95048571D02*
X201190000Y-95048571D01*
X201332857Y-95120000D01*
X201475714Y-95262857D01*
X201547142Y-95548571D01*
X201547142Y-96048571D01*
X201475714Y-96334285D01*
X201332857Y-96477142D01*
X201190000Y-96548571D01*
X200904285Y-96548571D01*
X200761428Y-96477142D01*
X200618571Y-96334285D01*
X200547142Y-96048571D01*
X200547142Y-95548571D01*
X200618571Y-95262857D01*
X200761428Y-95120000D01*
X200904285Y-95048571D01*
X202118571Y-96120000D02*
X202832857Y-96120000D01*
X201975714Y-96548571D02*
X202475714Y-95048571D01*
X202975714Y-96548571D01*
X204332857Y-96548571D02*
X203832857Y-95834285D01*
X203475714Y-96548571D02*
X203475714Y-95048571D01*
X204047142Y-95048571D01*
X204190000Y-95120000D01*
X204261428Y-95191428D01*
X204332857Y-95334285D01*
X204332857Y-95548571D01*
X204261428Y-95691428D01*
X204190000Y-95762857D01*
X204047142Y-95834285D01*
X203475714Y-95834285D01*
X204975714Y-96548571D02*
X204975714Y-95048571D01*
X205332857Y-95048571D01*
X205547142Y-95120000D01*
X205690000Y-95262857D01*
X205761428Y-95405714D01*
X205832857Y-95691428D01*
X205832857Y-95905714D01*
X205761428Y-96191428D01*
X205690000Y-96334285D01*
X205547142Y-96477142D01*
X205332857Y-96548571D01*
X204975714Y-96548571D01*
X154738095Y-150357142D02*
X154071428Y-150357142D01*
X154071428Y-151404761D02*
X154071428Y-149404761D01*
X155023809Y-149404761D01*
X158452380Y-151404761D02*
X157785714Y-150452380D01*
X157309523Y-151404761D02*
X157309523Y-149404761D01*
X158071428Y-149404761D01*
X158261904Y-149500000D01*
X158357142Y-149595238D01*
X158452380Y-149785714D01*
X158452380Y-150071428D01*
X158357142Y-150261904D01*
X158261904Y-150357142D01*
X158071428Y-150452380D01*
X157309523Y-150452380D01*
X161214285Y-149404761D02*
X161595238Y-149404761D01*
X161785714Y-149500000D01*
X161976190Y-149690476D01*
X162071428Y-150071428D01*
X162071428Y-150738095D01*
X161976190Y-151119047D01*
X161785714Y-151309523D01*
X161595238Y-151404761D01*
X161214285Y-151404761D01*
X161023809Y-151309523D01*
X160833333Y-151119047D01*
X160738095Y-150738095D01*
X160738095Y-150071428D01*
X160833333Y-149690476D01*
X161023809Y-149500000D01*
X161214285Y-149404761D01*
X164452380Y-151404761D02*
X164452380Y-149404761D01*
X165595238Y-151404761D01*
X165595238Y-149404761D01*
X167785714Y-149404761D02*
X168928571Y-149404761D01*
X168357142Y-151404761D02*
X168357142Y-149404761D01*
X172547619Y-151309523D02*
X172833333Y-151404761D01*
X173309523Y-151404761D01*
X173500000Y-151309523D01*
X173595238Y-151214285D01*
X173690476Y-151023809D01*
X173690476Y-150833333D01*
X173595238Y-150642857D01*
X173500000Y-150547619D01*
X173309523Y-150452380D01*
X172928571Y-150357142D01*
X172738095Y-150261904D01*
X172642857Y-150166666D01*
X172547619Y-149976190D01*
X172547619Y-149785714D01*
X172642857Y-149595238D01*
X172738095Y-149500000D01*
X172928571Y-149404761D01*
X173404761Y-149404761D01*
X173690476Y-149500000D01*
X176071428Y-151404761D02*
X176071428Y-149404761D01*
X178547619Y-151404761D02*
X178547619Y-149404761D01*
X179023809Y-149404761D01*
X179309523Y-149500000D01*
X179500000Y-149690476D01*
X179595238Y-149880952D01*
X179690476Y-150261904D01*
X179690476Y-150547619D01*
X179595238Y-150928571D01*
X179500000Y-151119047D01*
X179309523Y-151309523D01*
X179023809Y-151404761D01*
X178547619Y-151404761D01*
X182071428Y-150357142D02*
X182738095Y-150357142D01*
X183023809Y-151404761D02*
X182071428Y-151404761D01*
X182071428Y-149404761D01*
X183023809Y-149404761D01*
D13*
X168950000Y-125000000D02*
X168950000Y-135280000D01*
X186970000Y-125000000D02*
X168950000Y-125000000D01*
X186970000Y-135280000D02*
X186970000Y-125000000D01*
X168950000Y-135280000D02*
X186970000Y-135280000D01*
X169010000Y-127490000D02*
X169010000Y-129140000D01*
X186910000Y-127490000D02*
X169010000Y-127490000D01*
X186910000Y-132790000D02*
X186910000Y-127490000D01*
X169010000Y-132790000D02*
X186910000Y-132790000D01*
X169010000Y-131140000D02*
X169010000Y-132790000D01*
X169010000Y-129140000D02*
G75*
G02X169010000Y-131140000I0J-1000000D01*
G01*
X161680000Y-131410000D02*
X160910000Y-131410000D01*
X153600000Y-131410000D02*
X154370000Y-131410000D01*
X160910000Y-130040000D02*
X154370000Y-130040000D01*
X160910000Y-132780000D02*
X160910000Y-130040000D01*
X154370000Y-132780000D02*
X160910000Y-132780000D01*
X154370000Y-130040000D02*
X154370000Y-132780000D01*
X161680000Y-126965000D02*
X160910000Y-126965000D01*
X153600000Y-126965000D02*
X154370000Y-126965000D01*
X160910000Y-125595000D02*
X154370000Y-125595000D01*
X160910000Y-128335000D02*
X160910000Y-125595000D01*
X154370000Y-128335000D02*
X160910000Y-128335000D01*
X154370000Y-125595000D02*
X154370000Y-128335000D01*
X144245000Y-128930000D02*
X144245000Y-127600000D01*
X145575000Y-128930000D02*
X144245000Y-128930000D01*
X146845000Y-128930000D02*
X146845000Y-126270000D01*
X146845000Y-126270000D02*
X149445000Y-126270000D01*
X146845000Y-128930000D02*
X149445000Y-128930000D01*
X149445000Y-128930000D02*
X149445000Y-126270000D01*
X168085000Y-127614000D02*
X168085000Y-126356000D01*
X166245000Y-127614000D02*
X166245000Y-126356000D01*
X125060000Y-140830000D02*
X125060000Y-135630000D01*
X125060000Y-135630000D02*
X122400000Y-135630000D01*
X122400000Y-135630000D02*
X122400000Y-140830000D01*
X122400000Y-140830000D02*
X125060000Y-140830000D01*
X122400000Y-139880000D02*
X116400000Y-139880000D01*
X116400000Y-139880000D02*
X116400000Y-139120000D01*
X116400000Y-139120000D02*
X122400000Y-139120000D01*
X122400000Y-139820000D02*
X116400000Y-139820000D01*
X122400000Y-139700000D02*
X116400000Y-139700000D01*
X122400000Y-139580000D02*
X116400000Y-139580000D01*
X122400000Y-139460000D02*
X116400000Y-139460000D01*
X122400000Y-139340000D02*
X116400000Y-139340000D01*
X122400000Y-139220000D02*
X116400000Y-139220000D01*
X125390000Y-139880000D02*
X125060000Y-139880000D01*
X125390000Y-139120000D02*
X125060000Y-139120000D01*
X125060000Y-138230000D02*
X122400000Y-138230000D01*
X122400000Y-137340000D02*
X116400000Y-137340000D01*
X116400000Y-137340000D02*
X116400000Y-136580000D01*
X116400000Y-136580000D02*
X122400000Y-136580000D01*
X125457071Y-137340000D02*
X125060000Y-137340000D01*
X125457071Y-136580000D02*
X125060000Y-136580000D01*
X127770000Y-139500000D02*
X127770000Y-140770000D01*
X127770000Y-140770000D02*
X126500000Y-140770000D01*
X142304775Y-133725000D02*
X142304775Y-133225000D01*
X142554775Y-133475000D02*
X142054775Y-133475000D01*
X137149000Y-132284000D02*
X137149000Y-131716000D01*
X137189000Y-132518000D02*
X137189000Y-131482000D01*
X137229000Y-132677000D02*
X137229000Y-131323000D01*
X137269000Y-132805000D02*
X137269000Y-131195000D01*
X137309000Y-132915000D02*
X137309000Y-131085000D01*
X137349000Y-133011000D02*
X137349000Y-130989000D01*
X137389000Y-133098000D02*
X137389000Y-130902000D01*
X137429000Y-133178000D02*
X137429000Y-130822000D01*
X137469000Y-130960000D02*
X137469000Y-130749000D01*
X137469000Y-133251000D02*
X137469000Y-133040000D01*
X137509000Y-130960000D02*
X137509000Y-130681000D01*
X137509000Y-133319000D02*
X137509000Y-133040000D01*
X137549000Y-130960000D02*
X137549000Y-130617000D01*
X137549000Y-133383000D02*
X137549000Y-133040000D01*
X137589000Y-130960000D02*
X137589000Y-130557000D01*
X137589000Y-133443000D02*
X137589000Y-133040000D01*
X137629000Y-130960000D02*
X137629000Y-130500000D01*
X137629000Y-133500000D02*
X137629000Y-133040000D01*
X137669000Y-130960000D02*
X137669000Y-130446000D01*
X137669000Y-133554000D02*
X137669000Y-133040000D01*
X137709000Y-130960000D02*
X137709000Y-130395000D01*
X137709000Y-133605000D02*
X137709000Y-133040000D01*
X137749000Y-130960000D02*
X137749000Y-130347000D01*
X137749000Y-133653000D02*
X137749000Y-133040000D01*
X137789000Y-130960000D02*
X137789000Y-130301000D01*
X137789000Y-133699000D02*
X137789000Y-133040000D01*
X137829000Y-130960000D02*
X137829000Y-130257000D01*
X137829000Y-133743000D02*
X137829000Y-133040000D01*
X137869000Y-130960000D02*
X137869000Y-130215000D01*
X137869000Y-133785000D02*
X137869000Y-133040000D01*
X137909000Y-130960000D02*
X137909000Y-130174000D01*
X137909000Y-133826000D02*
X137909000Y-133040000D01*
X137949000Y-130960000D02*
X137949000Y-130136000D01*
X137949000Y-133864000D02*
X137949000Y-133040000D01*
X137989000Y-130960000D02*
X137989000Y-130099000D01*
X137989000Y-133901000D02*
X137989000Y-133040000D01*
X138029000Y-130960000D02*
X138029000Y-130063000D01*
X138029000Y-133937000D02*
X138029000Y-133040000D01*
X138069000Y-130960000D02*
X138069000Y-130029000D01*
X138069000Y-133971000D02*
X138069000Y-133040000D01*
X138109000Y-130960000D02*
X138109000Y-129996000D01*
X138109000Y-134004000D02*
X138109000Y-133040000D01*
X138149000Y-130960000D02*
X138149000Y-129965000D01*
X138149000Y-134035000D02*
X138149000Y-133040000D01*
X138189000Y-130960000D02*
X138189000Y-129935000D01*
X138189000Y-134065000D02*
X138189000Y-133040000D01*
X138229000Y-130960000D02*
X138229000Y-129905000D01*
X138229000Y-134095000D02*
X138229000Y-133040000D01*
X138269000Y-130960000D02*
X138269000Y-129878000D01*
X138269000Y-134122000D02*
X138269000Y-133040000D01*
X138309000Y-130960000D02*
X138309000Y-129851000D01*
X138309000Y-134149000D02*
X138309000Y-133040000D01*
X138349000Y-130960000D02*
X138349000Y-129825000D01*
X138349000Y-134175000D02*
X138349000Y-133040000D01*
X138389000Y-130960000D02*
X138389000Y-129800000D01*
X138389000Y-134200000D02*
X138389000Y-133040000D01*
X138429000Y-130960000D02*
X138429000Y-129776000D01*
X138429000Y-134224000D02*
X138429000Y-133040000D01*
X138469000Y-130960000D02*
X138469000Y-129753000D01*
X138469000Y-134247000D02*
X138469000Y-133040000D01*
X138509000Y-130960000D02*
X138509000Y-129732000D01*
X138509000Y-134268000D02*
X138509000Y-133040000D01*
X138549000Y-130960000D02*
X138549000Y-129710000D01*
X138549000Y-134290000D02*
X138549000Y-133040000D01*
X138589000Y-130960000D02*
X138589000Y-129690000D01*
X138589000Y-134310000D02*
X138589000Y-133040000D01*
X138629000Y-130960000D02*
X138629000Y-129671000D01*
X138629000Y-134329000D02*
X138629000Y-133040000D01*
X138669000Y-130960000D02*
X138669000Y-129652000D01*
X138669000Y-134348000D02*
X138669000Y-133040000D01*
X138709000Y-130960000D02*
X138709000Y-129635000D01*
X138709000Y-134365000D02*
X138709000Y-133040000D01*
X138749000Y-130960000D02*
X138749000Y-129618000D01*
X138749000Y-134382000D02*
X138749000Y-133040000D01*
X138789000Y-130960000D02*
X138789000Y-129602000D01*
X138789000Y-134398000D02*
X138789000Y-133040000D01*
X138829000Y-130960000D02*
X138829000Y-129586000D01*
X138829000Y-134414000D02*
X138829000Y-133040000D01*
X138869000Y-130960000D02*
X138869000Y-129572000D01*
X138869000Y-134428000D02*
X138869000Y-133040000D01*
X138909000Y-130960000D02*
X138909000Y-129558000D01*
X138909000Y-134442000D02*
X138909000Y-133040000D01*
X138949000Y-130960000D02*
X138949000Y-129545000D01*
X138949000Y-134455000D02*
X138949000Y-133040000D01*
X138989000Y-130960000D02*
X138989000Y-129532000D01*
X138989000Y-134468000D02*
X138989000Y-133040000D01*
X139029000Y-130960000D02*
X139029000Y-129520000D01*
X139029000Y-134480000D02*
X139029000Y-133040000D01*
X139070000Y-130960000D02*
X139070000Y-129509000D01*
X139070000Y-134491000D02*
X139070000Y-133040000D01*
X139110000Y-130960000D02*
X139110000Y-129499000D01*
X139110000Y-134501000D02*
X139110000Y-133040000D01*
X139150000Y-130960000D02*
X139150000Y-129489000D01*
X139150000Y-134511000D02*
X139150000Y-133040000D01*
X139190000Y-130960000D02*
X139190000Y-129480000D01*
X139190000Y-134520000D02*
X139190000Y-133040000D01*
X139230000Y-130960000D02*
X139230000Y-129472000D01*
X139230000Y-134528000D02*
X139230000Y-133040000D01*
X139270000Y-130960000D02*
X139270000Y-129464000D01*
X139270000Y-134536000D02*
X139270000Y-133040000D01*
X139310000Y-130960000D02*
X139310000Y-129457000D01*
X139310000Y-134543000D02*
X139310000Y-133040000D01*
X139350000Y-130960000D02*
X139350000Y-129450000D01*
X139350000Y-134550000D02*
X139350000Y-133040000D01*
X139390000Y-130960000D02*
X139390000Y-129444000D01*
X139390000Y-134556000D02*
X139390000Y-133040000D01*
X139430000Y-130960000D02*
X139430000Y-129439000D01*
X139430000Y-134561000D02*
X139430000Y-133040000D01*
X139470000Y-130960000D02*
X139470000Y-129435000D01*
X139470000Y-134565000D02*
X139470000Y-133040000D01*
X139510000Y-130960000D02*
X139510000Y-129431000D01*
X139510000Y-134569000D02*
X139510000Y-133040000D01*
X139550000Y-134573000D02*
X139550000Y-129427000D01*
X139590000Y-134576000D02*
X139590000Y-129424000D01*
X139630000Y-134578000D02*
X139630000Y-129422000D01*
X139670000Y-134579000D02*
X139670000Y-129421000D01*
X139710000Y-134580000D02*
X139710000Y-129420000D01*
X139750000Y-134580000D02*
X139750000Y-129420000D01*
X142370000Y-132000000D02*
G75*
G03X142370000Y-132000000I-2620000J0D01*
G01*
X144170000Y-95580000D02*
G75*
G03X144170000Y-95580000I-2620000J0D01*
G01*
X144130000Y-95580000D02*
X138970000Y-95580000D01*
X144130000Y-95620000D02*
X138970000Y-95620000D01*
X144129000Y-95660000D02*
X138971000Y-95660000D01*
X144128000Y-95700000D02*
X138972000Y-95700000D01*
X144126000Y-95740000D02*
X138974000Y-95740000D01*
X144123000Y-95780000D02*
X138977000Y-95780000D01*
X144119000Y-95820000D02*
X142590000Y-95820000D01*
X140510000Y-95820000D02*
X138981000Y-95820000D01*
X144115000Y-95860000D02*
X142590000Y-95860000D01*
X140510000Y-95860000D02*
X138985000Y-95860000D01*
X144111000Y-95900000D02*
X142590000Y-95900000D01*
X140510000Y-95900000D02*
X138989000Y-95900000D01*
X144106000Y-95940000D02*
X142590000Y-95940000D01*
X140510000Y-95940000D02*
X138994000Y-95940000D01*
X144100000Y-95980000D02*
X142590000Y-95980000D01*
X140510000Y-95980000D02*
X139000000Y-95980000D01*
X144093000Y-96020000D02*
X142590000Y-96020000D01*
X140510000Y-96020000D02*
X139007000Y-96020000D01*
X144086000Y-96060000D02*
X142590000Y-96060000D01*
X140510000Y-96060000D02*
X139014000Y-96060000D01*
X144078000Y-96100000D02*
X142590000Y-96100000D01*
X140510000Y-96100000D02*
X139022000Y-96100000D01*
X144070000Y-96140000D02*
X142590000Y-96140000D01*
X140510000Y-96140000D02*
X139030000Y-96140000D01*
X144061000Y-96180000D02*
X142590000Y-96180000D01*
X140510000Y-96180000D02*
X139039000Y-96180000D01*
X144051000Y-96220000D02*
X142590000Y-96220000D01*
X140510000Y-96220000D02*
X139049000Y-96220000D01*
X144041000Y-96260000D02*
X142590000Y-96260000D01*
X140510000Y-96260000D02*
X139059000Y-96260000D01*
X144030000Y-96301000D02*
X142590000Y-96301000D01*
X140510000Y-96301000D02*
X139070000Y-96301000D01*
X144018000Y-96341000D02*
X142590000Y-96341000D01*
X140510000Y-96341000D02*
X139082000Y-96341000D01*
X144005000Y-96381000D02*
X142590000Y-96381000D01*
X140510000Y-96381000D02*
X139095000Y-96381000D01*
X143992000Y-96421000D02*
X142590000Y-96421000D01*
X140510000Y-96421000D02*
X139108000Y-96421000D01*
X143978000Y-96461000D02*
X142590000Y-96461000D01*
X140510000Y-96461000D02*
X139122000Y-96461000D01*
X143964000Y-96501000D02*
X142590000Y-96501000D01*
X140510000Y-96501000D02*
X139136000Y-96501000D01*
X143948000Y-96541000D02*
X142590000Y-96541000D01*
X140510000Y-96541000D02*
X139152000Y-96541000D01*
X143932000Y-96581000D02*
X142590000Y-96581000D01*
X140510000Y-96581000D02*
X139168000Y-96581000D01*
X143915000Y-96621000D02*
X142590000Y-96621000D01*
X140510000Y-96621000D02*
X139185000Y-96621000D01*
X143898000Y-96661000D02*
X142590000Y-96661000D01*
X140510000Y-96661000D02*
X139202000Y-96661000D01*
X143879000Y-96701000D02*
X142590000Y-96701000D01*
X140510000Y-96701000D02*
X139221000Y-96701000D01*
X143860000Y-96741000D02*
X142590000Y-96741000D01*
X140510000Y-96741000D02*
X139240000Y-96741000D01*
X143840000Y-96781000D02*
X142590000Y-96781000D01*
X140510000Y-96781000D02*
X139260000Y-96781000D01*
X143818000Y-96821000D02*
X142590000Y-96821000D01*
X140510000Y-96821000D02*
X139282000Y-96821000D01*
X143797000Y-96861000D02*
X142590000Y-96861000D01*
X140510000Y-96861000D02*
X139303000Y-96861000D01*
X143774000Y-96901000D02*
X142590000Y-96901000D01*
X140510000Y-96901000D02*
X139326000Y-96901000D01*
X143750000Y-96941000D02*
X142590000Y-96941000D01*
X140510000Y-96941000D02*
X139350000Y-96941000D01*
X143725000Y-96981000D02*
X142590000Y-96981000D01*
X140510000Y-96981000D02*
X139375000Y-96981000D01*
X143699000Y-97021000D02*
X142590000Y-97021000D01*
X140510000Y-97021000D02*
X139401000Y-97021000D01*
X143672000Y-97061000D02*
X142590000Y-97061000D01*
X140510000Y-97061000D02*
X139428000Y-97061000D01*
X143645000Y-97101000D02*
X142590000Y-97101000D01*
X140510000Y-97101000D02*
X139455000Y-97101000D01*
X143615000Y-97141000D02*
X142590000Y-97141000D01*
X140510000Y-97141000D02*
X139485000Y-97141000D01*
X143585000Y-97181000D02*
X142590000Y-97181000D01*
X140510000Y-97181000D02*
X139515000Y-97181000D01*
X143554000Y-97221000D02*
X142590000Y-97221000D01*
X140510000Y-97221000D02*
X139546000Y-97221000D01*
X143521000Y-97261000D02*
X142590000Y-97261000D01*
X140510000Y-97261000D02*
X139579000Y-97261000D01*
X143487000Y-97301000D02*
X142590000Y-97301000D01*
X140510000Y-97301000D02*
X139613000Y-97301000D01*
X143451000Y-97341000D02*
X142590000Y-97341000D01*
X140510000Y-97341000D02*
X139649000Y-97341000D01*
X143414000Y-97381000D02*
X142590000Y-97381000D01*
X140510000Y-97381000D02*
X139686000Y-97381000D01*
X143376000Y-97421000D02*
X142590000Y-97421000D01*
X140510000Y-97421000D02*
X139724000Y-97421000D01*
X143335000Y-97461000D02*
X142590000Y-97461000D01*
X140510000Y-97461000D02*
X139765000Y-97461000D01*
X143293000Y-97501000D02*
X142590000Y-97501000D01*
X140510000Y-97501000D02*
X139807000Y-97501000D01*
X143249000Y-97541000D02*
X142590000Y-97541000D01*
X140510000Y-97541000D02*
X139851000Y-97541000D01*
X143203000Y-97581000D02*
X142590000Y-97581000D01*
X140510000Y-97581000D02*
X139897000Y-97581000D01*
X143155000Y-97621000D02*
X142590000Y-97621000D01*
X140510000Y-97621000D02*
X139945000Y-97621000D01*
X143104000Y-97661000D02*
X142590000Y-97661000D01*
X140510000Y-97661000D02*
X139996000Y-97661000D01*
X143050000Y-97701000D02*
X142590000Y-97701000D01*
X140510000Y-97701000D02*
X140050000Y-97701000D01*
X142993000Y-97741000D02*
X142590000Y-97741000D01*
X140510000Y-97741000D02*
X140107000Y-97741000D01*
X142933000Y-97781000D02*
X142590000Y-97781000D01*
X140510000Y-97781000D02*
X140167000Y-97781000D01*
X142869000Y-97821000D02*
X142590000Y-97821000D01*
X140510000Y-97821000D02*
X140231000Y-97821000D01*
X142801000Y-97861000D02*
X142590000Y-97861000D01*
X140510000Y-97861000D02*
X140299000Y-97861000D01*
X142728000Y-97901000D02*
X140372000Y-97901000D01*
X142648000Y-97941000D02*
X140452000Y-97941000D01*
X142561000Y-97981000D02*
X140539000Y-97981000D01*
X142465000Y-98021000D02*
X140635000Y-98021000D01*
X142355000Y-98061000D02*
X140745000Y-98061000D01*
X142227000Y-98101000D02*
X140873000Y-98101000D01*
X142068000Y-98141000D02*
X141032000Y-98141000D01*
X141834000Y-98181000D02*
X141266000Y-98181000D01*
X143025000Y-92775225D02*
X143025000Y-93275225D01*
X143275000Y-93025225D02*
X142775000Y-93025225D01*
X166340000Y-115559000D02*
X166340000Y-114301000D01*
X168180000Y-115559000D02*
X168180000Y-114301000D01*
X168060000Y-102849000D02*
X168060000Y-101591000D01*
X166220000Y-102849000D02*
X166220000Y-101591000D01*
X140710000Y-115629000D02*
X140710000Y-114371000D01*
X142550000Y-115629000D02*
X142550000Y-114371000D01*
X191340000Y-102849000D02*
X191340000Y-101591000D01*
X189500000Y-102849000D02*
X189500000Y-101591000D01*
X140590000Y-102919000D02*
X140590000Y-101661000D01*
X142430000Y-102919000D02*
X142430000Y-101661000D01*
X136210000Y-140130000D02*
X136210000Y-147870000D01*
X197230000Y-140130000D02*
X136210000Y-140130000D01*
X199830000Y-147870000D02*
X136210000Y-147870000D01*
X197230000Y-140130000D02*
X197230000Y-145280000D01*
X197230000Y-145270000D02*
X199830000Y-145270000D01*
X199830000Y-145270000D02*
X199830000Y-147870000D01*
X198500000Y-140130000D02*
X199830000Y-140130000D01*
X199830000Y-140130000D02*
X199830000Y-141460000D01*
X198490000Y-124300000D02*
X201150000Y-124300000D01*
X198490000Y-119160000D02*
X198490000Y-124300000D01*
X201150000Y-119160000D02*
X201150000Y-124300000D01*
X198490000Y-119160000D02*
X201150000Y-119160000D01*
X198490000Y-117890000D02*
X198490000Y-116560000D01*
X198490000Y-116560000D02*
X199820000Y-116560000D01*
X210160000Y-116510000D02*
X210160000Y-129330000D01*
X210160000Y-129330000D02*
X212820000Y-129330000D01*
X212820000Y-129330000D02*
X212820000Y-116510000D01*
X212820000Y-116510000D02*
X210160000Y-116510000D01*
X212820000Y-117460000D02*
X218820000Y-117460000D01*
X218820000Y-117460000D02*
X218820000Y-118220000D01*
X218820000Y-118220000D02*
X212820000Y-118220000D01*
X212820000Y-117520000D02*
X218820000Y-117520000D01*
X212820000Y-117640000D02*
X218820000Y-117640000D01*
X212820000Y-117760000D02*
X218820000Y-117760000D01*
X212820000Y-117880000D02*
X218820000Y-117880000D01*
X212820000Y-118000000D02*
X218820000Y-118000000D01*
X212820000Y-118120000D02*
X218820000Y-118120000D01*
X209830000Y-117460000D02*
X210160000Y-117460000D01*
X209830000Y-118220000D02*
X210160000Y-118220000D01*
X210160000Y-119110000D02*
X212820000Y-119110000D01*
X212820000Y-120000000D02*
X218820000Y-120000000D01*
X218820000Y-120000000D02*
X218820000Y-120760000D01*
X218820000Y-120760000D02*
X212820000Y-120760000D01*
X209762929Y-120000000D02*
X210160000Y-120000000D01*
X209762929Y-120760000D02*
X210160000Y-120760000D01*
X210160000Y-121650000D02*
X212820000Y-121650000D01*
X212820000Y-122540000D02*
X218820000Y-122540000D01*
X218820000Y-122540000D02*
X218820000Y-123300000D01*
X218820000Y-123300000D02*
X212820000Y-123300000D01*
X209762929Y-122540000D02*
X210160000Y-122540000D01*
X209762929Y-123300000D02*
X210160000Y-123300000D01*
X210160000Y-124190000D02*
X212820000Y-124190000D01*
X212820000Y-125080000D02*
X218820000Y-125080000D01*
X218820000Y-125080000D02*
X218820000Y-125840000D01*
X218820000Y-125840000D02*
X212820000Y-125840000D01*
X209762929Y-125080000D02*
X210160000Y-125080000D01*
X209762929Y-125840000D02*
X210160000Y-125840000D01*
X210160000Y-126730000D02*
X212820000Y-126730000D01*
X212820000Y-127620000D02*
X218820000Y-127620000D01*
X218820000Y-127620000D02*
X218820000Y-128380000D01*
X218820000Y-128380000D02*
X212820000Y-128380000D01*
X209762929Y-127620000D02*
X210160000Y-127620000D01*
X209762929Y-128380000D02*
X210160000Y-128380000D01*
X207450000Y-117840000D02*
X207450000Y-116570000D01*
X207450000Y-116570000D02*
X208720000Y-116570000D01*
X132300000Y-103530000D02*
X130970000Y-103530000D01*
X132300000Y-102200000D02*
X132300000Y-103530000D01*
X129700000Y-103530000D02*
X127100000Y-103530000D01*
X129700000Y-100930000D02*
X129700000Y-103530000D01*
X132300000Y-100930000D02*
X129700000Y-100930000D01*
X127100000Y-103530000D02*
X127100000Y-85630000D01*
X132300000Y-100930000D02*
X132300000Y-85630000D01*
X132300000Y-85630000D02*
X127100000Y-85630000D01*
X132300000Y-112300000D02*
X127100000Y-112300000D01*
X132300000Y-127600000D02*
X132300000Y-112300000D01*
X127100000Y-130200000D02*
X127100000Y-112300000D01*
X132300000Y-127600000D02*
X129700000Y-127600000D01*
X129700000Y-127600000D02*
X129700000Y-130200000D01*
X129700000Y-130200000D02*
X127100000Y-130200000D01*
X132300000Y-128870000D02*
X132300000Y-130200000D01*
X132300000Y-130200000D02*
X130970000Y-130200000D01*
X142170000Y-86020000D02*
X193090000Y-86020000D01*
X193090000Y-86020000D02*
X193090000Y-83360000D01*
X193090000Y-83360000D02*
X142170000Y-83360000D01*
X142170000Y-83360000D02*
X142170000Y-86020000D01*
X143120000Y-83360000D02*
X143120000Y-77360000D01*
X143120000Y-77360000D02*
X143880000Y-77360000D01*
X143880000Y-77360000D02*
X143880000Y-83360000D01*
X143180000Y-83360000D02*
X143180000Y-77360000D01*
X143300000Y-83360000D02*
X143300000Y-77360000D01*
X143420000Y-83360000D02*
X143420000Y-77360000D01*
X143540000Y-83360000D02*
X143540000Y-77360000D01*
X143660000Y-83360000D02*
X143660000Y-77360000D01*
X143780000Y-83360000D02*
X143780000Y-77360000D01*
X143120000Y-86417071D02*
X143120000Y-86020000D01*
X143880000Y-86417071D02*
X143880000Y-86020000D01*
X143120000Y-88890000D02*
X143120000Y-88502929D01*
X143880000Y-88890000D02*
X143880000Y-88502929D01*
X144770000Y-86020000D02*
X144770000Y-83360000D01*
X145660000Y-83360000D02*
X145660000Y-77360000D01*
X145660000Y-77360000D02*
X146420000Y-77360000D01*
X146420000Y-77360000D02*
X146420000Y-83360000D01*
X145660000Y-86417071D02*
X145660000Y-86020000D01*
X146420000Y-86417071D02*
X146420000Y-86020000D01*
X145660000Y-88957071D02*
X145660000Y-88502929D01*
X146420000Y-88957071D02*
X146420000Y-88502929D01*
X147310000Y-86020000D02*
X147310000Y-83360000D01*
X148200000Y-83360000D02*
X148200000Y-77360000D01*
X148200000Y-77360000D02*
X148960000Y-77360000D01*
X148960000Y-77360000D02*
X148960000Y-83360000D01*
X148200000Y-86417071D02*
X148200000Y-86020000D01*
X148960000Y-86417071D02*
X148960000Y-86020000D01*
X148200000Y-88957071D02*
X148200000Y-88502929D01*
X148960000Y-88957071D02*
X148960000Y-88502929D01*
X149850000Y-86020000D02*
X149850000Y-83360000D01*
X150740000Y-83360000D02*
X150740000Y-77360000D01*
X150740000Y-77360000D02*
X151500000Y-77360000D01*
X151500000Y-77360000D02*
X151500000Y-83360000D01*
X150740000Y-86417071D02*
X150740000Y-86020000D01*
X151500000Y-86417071D02*
X151500000Y-86020000D01*
X150740000Y-88957071D02*
X150740000Y-88502929D01*
X151500000Y-88957071D02*
X151500000Y-88502929D01*
X152390000Y-86020000D02*
X152390000Y-83360000D01*
X153280000Y-83360000D02*
X153280000Y-77360000D01*
X153280000Y-77360000D02*
X154040000Y-77360000D01*
X154040000Y-77360000D02*
X154040000Y-83360000D01*
X153280000Y-86417071D02*
X153280000Y-86020000D01*
X154040000Y-86417071D02*
X154040000Y-86020000D01*
X153280000Y-88957071D02*
X153280000Y-88502929D01*
X154040000Y-88957071D02*
X154040000Y-88502929D01*
X154930000Y-86020000D02*
X154930000Y-83360000D01*
X155820000Y-83360000D02*
X155820000Y-77360000D01*
X155820000Y-77360000D02*
X156580000Y-77360000D01*
X156580000Y-77360000D02*
X156580000Y-83360000D01*
X155820000Y-86417071D02*
X155820000Y-86020000D01*
X156580000Y-86417071D02*
X156580000Y-86020000D01*
X155820000Y-88957071D02*
X155820000Y-88502929D01*
X156580000Y-88957071D02*
X156580000Y-88502929D01*
X157470000Y-86020000D02*
X157470000Y-83360000D01*
X158360000Y-83360000D02*
X158360000Y-77360000D01*
X158360000Y-77360000D02*
X159120000Y-77360000D01*
X159120000Y-77360000D02*
X159120000Y-83360000D01*
X158360000Y-86417071D02*
X158360000Y-86020000D01*
X159120000Y-86417071D02*
X159120000Y-86020000D01*
X158360000Y-88957071D02*
X158360000Y-88502929D01*
X159120000Y-88957071D02*
X159120000Y-88502929D01*
X160010000Y-86020000D02*
X160010000Y-83360000D01*
X160900000Y-83360000D02*
X160900000Y-77360000D01*
X160900000Y-77360000D02*
X161660000Y-77360000D01*
X161660000Y-77360000D02*
X161660000Y-83360000D01*
X160900000Y-86417071D02*
X160900000Y-86020000D01*
X161660000Y-86417071D02*
X161660000Y-86020000D01*
X160900000Y-88957071D02*
X160900000Y-88502929D01*
X161660000Y-88957071D02*
X161660000Y-88502929D01*
X162550000Y-86020000D02*
X162550000Y-83360000D01*
X163440000Y-83360000D02*
X163440000Y-77360000D01*
X163440000Y-77360000D02*
X164200000Y-77360000D01*
X164200000Y-77360000D02*
X164200000Y-83360000D01*
X163440000Y-86417071D02*
X163440000Y-86020000D01*
X164200000Y-86417071D02*
X164200000Y-86020000D01*
X163440000Y-88957071D02*
X163440000Y-88502929D01*
X164200000Y-88957071D02*
X164200000Y-88502929D01*
X165090000Y-86020000D02*
X165090000Y-83360000D01*
X165980000Y-83360000D02*
X165980000Y-77360000D01*
X165980000Y-77360000D02*
X166740000Y-77360000D01*
X166740000Y-77360000D02*
X166740000Y-83360000D01*
X165980000Y-86417071D02*
X165980000Y-86020000D01*
X166740000Y-86417071D02*
X166740000Y-86020000D01*
X165980000Y-88957071D02*
X165980000Y-88502929D01*
X166740000Y-88957071D02*
X166740000Y-88502929D01*
X167630000Y-86020000D02*
X167630000Y-83360000D01*
X168520000Y-83360000D02*
X168520000Y-77360000D01*
X168520000Y-77360000D02*
X169280000Y-77360000D01*
X169280000Y-77360000D02*
X169280000Y-83360000D01*
X168520000Y-86417071D02*
X168520000Y-86020000D01*
X169280000Y-86417071D02*
X169280000Y-86020000D01*
X168520000Y-88957071D02*
X168520000Y-88502929D01*
X169280000Y-88957071D02*
X169280000Y-88502929D01*
X170170000Y-86020000D02*
X170170000Y-83360000D01*
X171060000Y-83360000D02*
X171060000Y-77360000D01*
X171060000Y-77360000D02*
X171820000Y-77360000D01*
X171820000Y-77360000D02*
X171820000Y-83360000D01*
X171060000Y-86417071D02*
X171060000Y-86020000D01*
X171820000Y-86417071D02*
X171820000Y-86020000D01*
X171060000Y-88957071D02*
X171060000Y-88502929D01*
X171820000Y-88957071D02*
X171820000Y-88502929D01*
X172710000Y-86020000D02*
X172710000Y-83360000D01*
X173600000Y-83360000D02*
X173600000Y-77360000D01*
X173600000Y-77360000D02*
X174360000Y-77360000D01*
X174360000Y-77360000D02*
X174360000Y-83360000D01*
X173600000Y-86417071D02*
X173600000Y-86020000D01*
X174360000Y-86417071D02*
X174360000Y-86020000D01*
X173600000Y-88957071D02*
X173600000Y-88502929D01*
X174360000Y-88957071D02*
X174360000Y-88502929D01*
X175250000Y-86020000D02*
X175250000Y-83360000D01*
X176140000Y-83360000D02*
X176140000Y-77360000D01*
X176140000Y-77360000D02*
X176900000Y-77360000D01*
X176900000Y-77360000D02*
X176900000Y-83360000D01*
X176140000Y-86417071D02*
X176140000Y-86020000D01*
X176900000Y-86417071D02*
X176900000Y-86020000D01*
X176140000Y-88957071D02*
X176140000Y-88502929D01*
X176900000Y-88957071D02*
X176900000Y-88502929D01*
X177790000Y-86020000D02*
X177790000Y-83360000D01*
X178680000Y-83360000D02*
X178680000Y-77360000D01*
X178680000Y-77360000D02*
X179440000Y-77360000D01*
X179440000Y-77360000D02*
X179440000Y-83360000D01*
X178680000Y-86417071D02*
X178680000Y-86020000D01*
X179440000Y-86417071D02*
X179440000Y-86020000D01*
X178680000Y-88957071D02*
X178680000Y-88502929D01*
X179440000Y-88957071D02*
X179440000Y-88502929D01*
X180330000Y-86020000D02*
X180330000Y-83360000D01*
X181220000Y-83360000D02*
X181220000Y-77360000D01*
X181220000Y-77360000D02*
X181980000Y-77360000D01*
X181980000Y-77360000D02*
X181980000Y-83360000D01*
X181220000Y-86417071D02*
X181220000Y-86020000D01*
X181980000Y-86417071D02*
X181980000Y-86020000D01*
X181220000Y-88957071D02*
X181220000Y-88502929D01*
X181980000Y-88957071D02*
X181980000Y-88502929D01*
X182870000Y-86020000D02*
X182870000Y-83360000D01*
X183760000Y-83360000D02*
X183760000Y-77360000D01*
X183760000Y-77360000D02*
X184520000Y-77360000D01*
X184520000Y-77360000D02*
X184520000Y-83360000D01*
X183760000Y-86417071D02*
X183760000Y-86020000D01*
X184520000Y-86417071D02*
X184520000Y-86020000D01*
X183760000Y-88957071D02*
X183760000Y-88502929D01*
X184520000Y-88957071D02*
X184520000Y-88502929D01*
X185410000Y-86020000D02*
X185410000Y-83360000D01*
X186300000Y-83360000D02*
X186300000Y-77360000D01*
X186300000Y-77360000D02*
X187060000Y-77360000D01*
X187060000Y-77360000D02*
X187060000Y-83360000D01*
X186300000Y-86417071D02*
X186300000Y-86020000D01*
X187060000Y-86417071D02*
X187060000Y-86020000D01*
X186300000Y-88957071D02*
X186300000Y-88502929D01*
X187060000Y-88957071D02*
X187060000Y-88502929D01*
X187950000Y-86020000D02*
X187950000Y-83360000D01*
X188840000Y-83360000D02*
X188840000Y-77360000D01*
X188840000Y-77360000D02*
X189600000Y-77360000D01*
X189600000Y-77360000D02*
X189600000Y-83360000D01*
X188840000Y-86417071D02*
X188840000Y-86020000D01*
X189600000Y-86417071D02*
X189600000Y-86020000D01*
X188840000Y-88957071D02*
X188840000Y-88502929D01*
X189600000Y-88957071D02*
X189600000Y-88502929D01*
X190490000Y-86020000D02*
X190490000Y-83360000D01*
X191380000Y-83360000D02*
X191380000Y-77360000D01*
X191380000Y-77360000D02*
X192140000Y-77360000D01*
X192140000Y-77360000D02*
X192140000Y-83360000D01*
X191380000Y-86417071D02*
X191380000Y-86020000D01*
X192140000Y-86417071D02*
X192140000Y-86020000D01*
X191380000Y-88957071D02*
X191380000Y-88502929D01*
X192140000Y-88957071D02*
X192140000Y-88502929D01*
X143500000Y-91270000D02*
X142230000Y-91270000D01*
X142230000Y-91270000D02*
X142230000Y-90000000D01*
X168810000Y-104160000D02*
G75*
G02X168810000Y-106160000I0J-1000000D01*
G01*
X168810000Y-106160000D02*
X168810000Y-107810000D01*
X168810000Y-107810000D02*
X186710000Y-107810000D01*
X186710000Y-107810000D02*
X186710000Y-102510000D01*
X186710000Y-102510000D02*
X168810000Y-102510000D01*
X168810000Y-102510000D02*
X168810000Y-104160000D01*
X168750000Y-110300000D02*
X186770000Y-110300000D01*
X186770000Y-110300000D02*
X186770000Y-100020000D01*
X186770000Y-100020000D02*
X168750000Y-100020000D01*
X168750000Y-100020000D02*
X168750000Y-110300000D01*
X168870000Y-112730000D02*
X168870000Y-123010000D01*
X186890000Y-112730000D02*
X168870000Y-112730000D01*
X186890000Y-123010000D02*
X186890000Y-112730000D01*
X168870000Y-123010000D02*
X186890000Y-123010000D01*
X168930000Y-115220000D02*
X168930000Y-116870000D01*
X186830000Y-115220000D02*
X168930000Y-115220000D01*
X186830000Y-120520000D02*
X186830000Y-115220000D01*
X168930000Y-120520000D02*
X186830000Y-120520000D01*
X168930000Y-118870000D02*
X168930000Y-120520000D01*
X168930000Y-116870000D02*
G75*
G02X168930000Y-118870000I0J-1000000D01*
G01*
X143300000Y-116940000D02*
G75*
G02X143300000Y-118940000I0J-1000000D01*
G01*
X143300000Y-118940000D02*
X143300000Y-120590000D01*
X143300000Y-120590000D02*
X161200000Y-120590000D01*
X161200000Y-120590000D02*
X161200000Y-115290000D01*
X161200000Y-115290000D02*
X143300000Y-115290000D01*
X143300000Y-115290000D02*
X143300000Y-116940000D01*
X143240000Y-123080000D02*
X161260000Y-123080000D01*
X161260000Y-123080000D02*
X161260000Y-112800000D01*
X161260000Y-112800000D02*
X143240000Y-112800000D01*
X143240000Y-112800000D02*
X143240000Y-123080000D01*
X143120000Y-100090000D02*
X143120000Y-110370000D01*
X163680000Y-100090000D02*
X143120000Y-100090000D01*
X163680000Y-110370000D02*
X163680000Y-100090000D01*
X143120000Y-110370000D02*
X163680000Y-110370000D01*
X143180000Y-102580000D02*
X143180000Y-104230000D01*
X163620000Y-102580000D02*
X143180000Y-102580000D01*
X163620000Y-107880000D02*
X163620000Y-102580000D01*
X143180000Y-107880000D02*
X163620000Y-107880000D01*
X143180000Y-106230000D02*
X143180000Y-107880000D01*
X143180000Y-104230000D02*
G75*
G02X143180000Y-106230000I0J-1000000D01*
G01*
X192090000Y-104160000D02*
G75*
G02X192090000Y-106160000I0J-1000000D01*
G01*
X192090000Y-106160000D02*
X192090000Y-107810000D01*
X192090000Y-107810000D02*
X212530000Y-107810000D01*
X212530000Y-107810000D02*
X212530000Y-102510000D01*
X212530000Y-102510000D02*
X192090000Y-102510000D01*
X192090000Y-102510000D02*
X192090000Y-104160000D01*
X192030000Y-110300000D02*
X212590000Y-110300000D01*
X212590000Y-110300000D02*
X212590000Y-100020000D01*
X212590000Y-100020000D02*
X192030000Y-100020000D01*
X192030000Y-100020000D02*
X192030000Y-110300000D01*
X134970000Y-115230000D02*
X137770000Y-115230000D01*
X137770000Y-115230000D02*
X137770000Y-92030000D01*
X137770000Y-92030000D02*
X134970000Y-92030000D01*
X134970000Y-92030000D02*
X134970000Y-115230000D01*
X134970000Y-112520000D02*
X137770000Y-112520000D01*
D11*
X167462380Y-130901904D02*
X168271904Y-130901904D01*
X168367142Y-130854285D01*
X168414761Y-130806666D01*
X168462380Y-130711428D01*
X168462380Y-130520952D01*
X168414761Y-130425714D01*
X168367142Y-130378095D01*
X168271904Y-130330476D01*
X167462380Y-130330476D01*
X167462380Y-129425714D02*
X167462380Y-129616190D01*
X167510000Y-129711428D01*
X167557619Y-129759047D01*
X167700476Y-129854285D01*
X167890952Y-129901904D01*
X168271904Y-129901904D01*
X168367142Y-129854285D01*
X168414761Y-129806666D01*
X168462380Y-129711428D01*
X168462380Y-129520952D01*
X168414761Y-129425714D01*
X168367142Y-129378095D01*
X168271904Y-129330476D01*
X168033809Y-129330476D01*
X167938571Y-129378095D01*
X167890952Y-129425714D01*
X167843333Y-129520952D01*
X167843333Y-129711428D01*
X167890952Y-129806666D01*
X167938571Y-129854285D01*
X168033809Y-129901904D01*
X157473333Y-131862380D02*
X157140000Y-131386190D01*
X156901904Y-131862380D02*
X156901904Y-130862380D01*
X157282857Y-130862380D01*
X157378095Y-130910000D01*
X157425714Y-130957619D01*
X157473333Y-131052857D01*
X157473333Y-131195714D01*
X157425714Y-131290952D01*
X157378095Y-131338571D01*
X157282857Y-131386190D01*
X156901904Y-131386190D01*
X157854285Y-130957619D02*
X157901904Y-130910000D01*
X157997142Y-130862380D01*
X158235238Y-130862380D01*
X158330476Y-130910000D01*
X158378095Y-130957619D01*
X158425714Y-131052857D01*
X158425714Y-131148095D01*
X158378095Y-131290952D01*
X157806666Y-131862380D01*
X158425714Y-131862380D01*
X157473333Y-127417380D02*
X157140000Y-126941190D01*
X156901904Y-127417380D02*
X156901904Y-126417380D01*
X157282857Y-126417380D01*
X157378095Y-126465000D01*
X157425714Y-126512619D01*
X157473333Y-126607857D01*
X157473333Y-126750714D01*
X157425714Y-126845952D01*
X157378095Y-126893571D01*
X157282857Y-126941190D01*
X156901904Y-126941190D01*
X158425714Y-127417380D02*
X157854285Y-127417380D01*
X158140000Y-127417380D02*
X158140000Y-126417380D01*
X158044761Y-126560238D01*
X157949523Y-126655476D01*
X157854285Y-126703095D01*
X142697380Y-128433333D02*
X143411666Y-128433333D01*
X143554523Y-128480952D01*
X143649761Y-128576190D01*
X143697380Y-128719047D01*
X143697380Y-128814285D01*
X143697380Y-127957142D02*
X142697380Y-127957142D01*
X142697380Y-127576190D01*
X142745000Y-127480952D01*
X142792619Y-127433333D01*
X142887857Y-127385714D01*
X143030714Y-127385714D01*
X143125952Y-127433333D01*
X143173571Y-127480952D01*
X143221190Y-127576190D01*
X143221190Y-127957142D01*
X142792619Y-127004761D02*
X142745000Y-126957142D01*
X142697380Y-126861904D01*
X142697380Y-126623809D01*
X142745000Y-126528571D01*
X142792619Y-126480952D01*
X142887857Y-126433333D01*
X142983095Y-126433333D01*
X143125952Y-126480952D01*
X143697380Y-127052380D01*
X143697380Y-126433333D01*
X165472142Y-127151666D02*
X165519761Y-127199285D01*
X165567380Y-127342142D01*
X165567380Y-127437380D01*
X165519761Y-127580238D01*
X165424523Y-127675476D01*
X165329285Y-127723095D01*
X165138809Y-127770714D01*
X164995952Y-127770714D01*
X164805476Y-127723095D01*
X164710238Y-127675476D01*
X164615000Y-127580238D01*
X164567380Y-127437380D01*
X164567380Y-127342142D01*
X164615000Y-127199285D01*
X164662619Y-127151666D01*
X164995952Y-126580238D02*
X164948333Y-126675476D01*
X164900714Y-126723095D01*
X164805476Y-126770714D01*
X164757857Y-126770714D01*
X164662619Y-126723095D01*
X164615000Y-126675476D01*
X164567380Y-126580238D01*
X164567380Y-126389761D01*
X164615000Y-126294523D01*
X164662619Y-126246904D01*
X164757857Y-126199285D01*
X164805476Y-126199285D01*
X164900714Y-126246904D01*
X164948333Y-126294523D01*
X164995952Y-126389761D01*
X164995952Y-126580238D01*
X165043571Y-126675476D01*
X165091190Y-126723095D01*
X165186428Y-126770714D01*
X165376904Y-126770714D01*
X165472142Y-126723095D01*
X165519761Y-126675476D01*
X165567380Y-126580238D01*
X165567380Y-126389761D01*
X165519761Y-126294523D01*
X165472142Y-126246904D01*
X165376904Y-126199285D01*
X165186428Y-126199285D01*
X165091190Y-126246904D01*
X165043571Y-126294523D01*
X164995952Y-126389761D01*
X121781666Y-141222380D02*
X121781666Y-141936666D01*
X121734047Y-142079523D01*
X121638809Y-142174761D01*
X121495952Y-142222380D01*
X121400714Y-142222380D01*
X122686428Y-141222380D02*
X122495952Y-141222380D01*
X122400714Y-141270000D01*
X122353095Y-141317619D01*
X122257857Y-141460476D01*
X122210238Y-141650952D01*
X122210238Y-142031904D01*
X122257857Y-142127142D01*
X122305476Y-142174761D01*
X122400714Y-142222380D01*
X122591190Y-142222380D01*
X122686428Y-142174761D01*
X122734047Y-142127142D01*
X122781666Y-142031904D01*
X122781666Y-141793809D01*
X122734047Y-141698571D01*
X122686428Y-141650952D01*
X122591190Y-141603333D01*
X122400714Y-141603333D01*
X122305476Y-141650952D01*
X122257857Y-141698571D01*
X122210238Y-141793809D01*
X139583333Y-136107142D02*
X139535714Y-136154761D01*
X139392857Y-136202380D01*
X139297619Y-136202380D01*
X139154761Y-136154761D01*
X139059523Y-136059523D01*
X139011904Y-135964285D01*
X138964285Y-135773809D01*
X138964285Y-135630952D01*
X139011904Y-135440476D01*
X139059523Y-135345238D01*
X139154761Y-135250000D01*
X139297619Y-135202380D01*
X139392857Y-135202380D01*
X139535714Y-135250000D01*
X139583333Y-135297619D01*
X140440476Y-135202380D02*
X140250000Y-135202380D01*
X140154761Y-135250000D01*
X140107142Y-135297619D01*
X140011904Y-135440476D01*
X139964285Y-135630952D01*
X139964285Y-136011904D01*
X140011904Y-136107142D01*
X140059523Y-136154761D01*
X140154761Y-136202380D01*
X140345238Y-136202380D01*
X140440476Y-136154761D01*
X140488095Y-136107142D01*
X140535714Y-136011904D01*
X140535714Y-135773809D01*
X140488095Y-135678571D01*
X140440476Y-135630952D01*
X140345238Y-135583333D01*
X140154761Y-135583333D01*
X140059523Y-135630952D01*
X140011904Y-135678571D01*
X139964285Y-135773809D01*
X145657142Y-95746666D02*
X145704761Y-95794285D01*
X145752380Y-95937142D01*
X145752380Y-96032380D01*
X145704761Y-96175238D01*
X145609523Y-96270476D01*
X145514285Y-96318095D01*
X145323809Y-96365714D01*
X145180952Y-96365714D01*
X144990476Y-96318095D01*
X144895238Y-96270476D01*
X144800000Y-96175238D01*
X144752380Y-96032380D01*
X144752380Y-95937142D01*
X144800000Y-95794285D01*
X144847619Y-95746666D01*
X144752380Y-94841904D02*
X144752380Y-95318095D01*
X145228571Y-95365714D01*
X145180952Y-95318095D01*
X145133333Y-95222857D01*
X145133333Y-94984761D01*
X145180952Y-94889523D01*
X145228571Y-94841904D01*
X145323809Y-94794285D01*
X145561904Y-94794285D01*
X145657142Y-94841904D01*
X145704761Y-94889523D01*
X145752380Y-94984761D01*
X145752380Y-95222857D01*
X145704761Y-95318095D01*
X145657142Y-95365714D01*
X165567142Y-115096666D02*
X165614761Y-115144285D01*
X165662380Y-115287142D01*
X165662380Y-115382380D01*
X165614761Y-115525238D01*
X165519523Y-115620476D01*
X165424285Y-115668095D01*
X165233809Y-115715714D01*
X165090952Y-115715714D01*
X164900476Y-115668095D01*
X164805238Y-115620476D01*
X164710000Y-115525238D01*
X164662380Y-115382380D01*
X164662380Y-115287142D01*
X164710000Y-115144285D01*
X164757619Y-115096666D01*
X164662380Y-114763333D02*
X164662380Y-114096666D01*
X165662380Y-114525238D01*
X165447142Y-102386666D02*
X165494761Y-102434285D01*
X165542380Y-102577142D01*
X165542380Y-102672380D01*
X165494761Y-102815238D01*
X165399523Y-102910476D01*
X165304285Y-102958095D01*
X165113809Y-103005714D01*
X164970952Y-103005714D01*
X164780476Y-102958095D01*
X164685238Y-102910476D01*
X164590000Y-102815238D01*
X164542380Y-102672380D01*
X164542380Y-102577142D01*
X164590000Y-102434285D01*
X164637619Y-102386666D01*
X164875714Y-101529523D02*
X165542380Y-101529523D01*
X164494761Y-101767619D02*
X165209047Y-102005714D01*
X165209047Y-101386666D01*
X139937142Y-115166666D02*
X139984761Y-115214285D01*
X140032380Y-115357142D01*
X140032380Y-115452380D01*
X139984761Y-115595238D01*
X139889523Y-115690476D01*
X139794285Y-115738095D01*
X139603809Y-115785714D01*
X139460952Y-115785714D01*
X139270476Y-115738095D01*
X139175238Y-115690476D01*
X139080000Y-115595238D01*
X139032380Y-115452380D01*
X139032380Y-115357142D01*
X139080000Y-115214285D01*
X139127619Y-115166666D01*
X139032380Y-114833333D02*
X139032380Y-114214285D01*
X139413333Y-114547619D01*
X139413333Y-114404761D01*
X139460952Y-114309523D01*
X139508571Y-114261904D01*
X139603809Y-114214285D01*
X139841904Y-114214285D01*
X139937142Y-114261904D01*
X139984761Y-114309523D01*
X140032380Y-114404761D01*
X140032380Y-114690476D01*
X139984761Y-114785714D01*
X139937142Y-114833333D01*
X188727142Y-102386666D02*
X188774761Y-102434285D01*
X188822380Y-102577142D01*
X188822380Y-102672380D01*
X188774761Y-102815238D01*
X188679523Y-102910476D01*
X188584285Y-102958095D01*
X188393809Y-103005714D01*
X188250952Y-103005714D01*
X188060476Y-102958095D01*
X187965238Y-102910476D01*
X187870000Y-102815238D01*
X187822380Y-102672380D01*
X187822380Y-102577142D01*
X187870000Y-102434285D01*
X187917619Y-102386666D01*
X187917619Y-102005714D02*
X187870000Y-101958095D01*
X187822380Y-101862857D01*
X187822380Y-101624761D01*
X187870000Y-101529523D01*
X187917619Y-101481904D01*
X188012857Y-101434285D01*
X188108095Y-101434285D01*
X188250952Y-101481904D01*
X188822380Y-102053333D01*
X188822380Y-101434285D01*
X139817142Y-102456666D02*
X139864761Y-102504285D01*
X139912380Y-102647142D01*
X139912380Y-102742380D01*
X139864761Y-102885238D01*
X139769523Y-102980476D01*
X139674285Y-103028095D01*
X139483809Y-103075714D01*
X139340952Y-103075714D01*
X139150476Y-103028095D01*
X139055238Y-102980476D01*
X138960000Y-102885238D01*
X138912380Y-102742380D01*
X138912380Y-102647142D01*
X138960000Y-102504285D01*
X139007619Y-102456666D01*
X139912380Y-101504285D02*
X139912380Y-102075714D01*
X139912380Y-101790000D02*
X138912380Y-101790000D01*
X139055238Y-101885238D01*
X139150476Y-101980476D01*
X139198095Y-102075714D01*
X200282380Y-143063333D02*
X200996666Y-143063333D01*
X201139523Y-143110952D01*
X201234761Y-143206190D01*
X201282380Y-143349047D01*
X201282380Y-143444285D01*
X201282380Y-142063333D02*
X201282380Y-142634761D01*
X201282380Y-142349047D02*
X200282380Y-142349047D01*
X200425238Y-142444285D01*
X200520476Y-142539523D01*
X200568095Y-142634761D01*
X198986666Y-115012380D02*
X198986666Y-115726666D01*
X198939047Y-115869523D01*
X198843809Y-115964761D01*
X198700952Y-116012380D01*
X198605714Y-116012380D01*
X199462857Y-116012380D02*
X199462857Y-115012380D01*
X199843809Y-115012380D01*
X199939047Y-115060000D01*
X199986666Y-115107619D01*
X200034285Y-115202857D01*
X200034285Y-115345714D01*
X199986666Y-115440952D01*
X199939047Y-115488571D01*
X199843809Y-115536190D01*
X199462857Y-115536190D01*
X200986666Y-116012380D02*
X200415238Y-116012380D01*
X200700952Y-116012380D02*
X200700952Y-115012380D01*
X200605714Y-115155238D01*
X200510476Y-115250476D01*
X200415238Y-115298095D01*
X212771666Y-115022380D02*
X212771666Y-115736666D01*
X212724047Y-115879523D01*
X212628809Y-115974761D01*
X212485952Y-116022380D01*
X212390714Y-116022380D01*
X213152619Y-115022380D02*
X213771666Y-115022380D01*
X213438333Y-115403333D01*
X213581190Y-115403333D01*
X213676428Y-115450952D01*
X213724047Y-115498571D01*
X213771666Y-115593809D01*
X213771666Y-115831904D01*
X213724047Y-115927142D01*
X213676428Y-115974761D01*
X213581190Y-116022380D01*
X213295476Y-116022380D01*
X213200238Y-115974761D01*
X213152619Y-115927142D01*
X129366666Y-103982380D02*
X129366666Y-104696666D01*
X129319047Y-104839523D01*
X129223809Y-104934761D01*
X129080952Y-104982380D01*
X128985714Y-104982380D01*
X130319047Y-103982380D02*
X129842857Y-103982380D01*
X129795238Y-104458571D01*
X129842857Y-104410952D01*
X129938095Y-104363333D01*
X130176190Y-104363333D01*
X130271428Y-104410952D01*
X130319047Y-104458571D01*
X130366666Y-104553809D01*
X130366666Y-104791904D01*
X130319047Y-104887142D01*
X130271428Y-104934761D01*
X130176190Y-104982380D01*
X129938095Y-104982380D01*
X129842857Y-104934761D01*
X129795238Y-104887142D01*
X129366666Y-130652380D02*
X129366666Y-131366666D01*
X129319047Y-131509523D01*
X129223809Y-131604761D01*
X129080952Y-131652380D01*
X128985714Y-131652380D01*
X130271428Y-130985714D02*
X130271428Y-131652380D01*
X130033333Y-130604761D02*
X129795238Y-131319047D01*
X130414285Y-131319047D01*
X140682380Y-84678333D02*
X141396666Y-84678333D01*
X141539523Y-84725952D01*
X141634761Y-84821190D01*
X141682380Y-84964047D01*
X141682380Y-85059285D01*
X140777619Y-84249761D02*
X140730000Y-84202142D01*
X140682380Y-84106904D01*
X140682380Y-83868809D01*
X140730000Y-83773571D01*
X140777619Y-83725952D01*
X140872857Y-83678333D01*
X140968095Y-83678333D01*
X141110952Y-83725952D01*
X141682380Y-84297380D01*
X141682380Y-83678333D01*
X167172380Y-109051904D02*
X167981904Y-109051904D01*
X168077142Y-109004285D01*
X168124761Y-108956666D01*
X168172380Y-108861428D01*
X168172380Y-108670952D01*
X168124761Y-108575714D01*
X168077142Y-108528095D01*
X167981904Y-108480476D01*
X167172380Y-108480476D01*
X167172380Y-107528095D02*
X167172380Y-108004285D01*
X167648571Y-108051904D01*
X167600952Y-108004285D01*
X167553333Y-107909047D01*
X167553333Y-107670952D01*
X167600952Y-107575714D01*
X167648571Y-107528095D01*
X167743809Y-107480476D01*
X167981904Y-107480476D01*
X168077142Y-107528095D01*
X168124761Y-107575714D01*
X168172380Y-107670952D01*
X168172380Y-107909047D01*
X168124761Y-108004285D01*
X168077142Y-108051904D01*
X166942380Y-121931904D02*
X167751904Y-121931904D01*
X167847142Y-121884285D01*
X167894761Y-121836666D01*
X167942380Y-121741428D01*
X167942380Y-121550952D01*
X167894761Y-121455714D01*
X167847142Y-121408095D01*
X167751904Y-121360476D01*
X166942380Y-121360476D01*
X167275714Y-120455714D02*
X167942380Y-120455714D01*
X166894761Y-120693809D02*
X167609047Y-120931904D01*
X167609047Y-120312857D01*
X141472380Y-122171904D02*
X142281904Y-122171904D01*
X142377142Y-122124285D01*
X142424761Y-122076666D01*
X142472380Y-121981428D01*
X142472380Y-121790952D01*
X142424761Y-121695714D01*
X142377142Y-121648095D01*
X142281904Y-121600476D01*
X141472380Y-121600476D01*
X141472380Y-121219523D02*
X141472380Y-120600476D01*
X141853333Y-120933809D01*
X141853333Y-120790952D01*
X141900952Y-120695714D01*
X141948571Y-120648095D01*
X142043809Y-120600476D01*
X142281904Y-120600476D01*
X142377142Y-120648095D01*
X142424761Y-120695714D01*
X142472380Y-120790952D01*
X142472380Y-121076666D01*
X142424761Y-121171904D01*
X142377142Y-121219523D01*
X141472380Y-109281904D02*
X142281904Y-109281904D01*
X142377142Y-109234285D01*
X142424761Y-109186666D01*
X142472380Y-109091428D01*
X142472380Y-108900952D01*
X142424761Y-108805714D01*
X142377142Y-108758095D01*
X142281904Y-108710476D01*
X141472380Y-108710476D01*
X141567619Y-108281904D02*
X141520000Y-108234285D01*
X141472380Y-108139047D01*
X141472380Y-107900952D01*
X141520000Y-107805714D01*
X141567619Y-107758095D01*
X141662857Y-107710476D01*
X141758095Y-107710476D01*
X141900952Y-107758095D01*
X142472380Y-108329523D01*
X142472380Y-107710476D01*
X190512380Y-108891904D02*
X191321904Y-108891904D01*
X191417142Y-108844285D01*
X191464761Y-108796666D01*
X191512380Y-108701428D01*
X191512380Y-108510952D01*
X191464761Y-108415714D01*
X191417142Y-108368095D01*
X191321904Y-108320476D01*
X190512380Y-108320476D01*
X191512380Y-107320476D02*
X191512380Y-107891904D01*
X191512380Y-107606190D02*
X190512380Y-107606190D01*
X190655238Y-107701428D01*
X190750476Y-107796666D01*
X190798095Y-107891904D01*
X137062380Y-90610476D02*
X136586190Y-90943809D01*
X137062380Y-91181904D02*
X136062380Y-91181904D01*
X136062380Y-90800952D01*
X136110000Y-90705714D01*
X136157619Y-90658095D01*
X136252857Y-90610476D01*
X136395714Y-90610476D01*
X136490952Y-90658095D01*
X136538571Y-90705714D01*
X136586190Y-90800952D01*
X136586190Y-91181904D01*
X137062380Y-90181904D02*
X136062380Y-90181904D01*
X137062380Y-89610476D01*
X136062380Y-89610476D01*
X137062380Y-88610476D02*
X137062380Y-89181904D01*
X137062380Y-88896190D02*
X136062380Y-88896190D01*
X136205238Y-88991428D01*
X136300476Y-89086666D01*
X136348095Y-89181904D01*
%LPC*%
D14*
X170340000Y-126330000D03*
X185580000Y-133950000D03*
X172880000Y-126330000D03*
X183040000Y-133950000D03*
X175420000Y-126330000D03*
X180500000Y-133950000D03*
X177960000Y-126330000D03*
X177960000Y-133950000D03*
X180500000Y-126330000D03*
X175420000Y-133950000D03*
X183040000Y-126330000D03*
X172880000Y-133950000D03*
X185580000Y-126330000D03*
D15*
X170340000Y-133950000D03*
D14*
X162720000Y-131410000D03*
D16*
X152560000Y-131410000D03*
D14*
X162720000Y-126965000D03*
D16*
X152560000Y-126965000D03*
D17*
X148115000Y-127600000D03*
D18*
X145575000Y-127600000D03*
D16*
X167165000Y-125735000D03*
X167165000Y-128235000D03*
D18*
X126500000Y-139500000D03*
D17*
X126500000Y-136960000D03*
D16*
X138500000Y-132000000D03*
D15*
X141000000Y-132000000D03*
X141550000Y-94330000D03*
D16*
X141550000Y-96830000D03*
X167260000Y-116180000D03*
X167260000Y-113680000D03*
X167140000Y-100970000D03*
X167140000Y-103470000D03*
X141630000Y-116250000D03*
X141630000Y-113750000D03*
X190420000Y-100970000D03*
X190420000Y-103470000D03*
X141510000Y-103540000D03*
X141510000Y-101040000D03*
D18*
X198500000Y-141460000D03*
D17*
X198500000Y-146540000D03*
X195960000Y-141460000D03*
X195960000Y-146540000D03*
X193420000Y-141460000D03*
X193420000Y-146540000D03*
X190880000Y-141460000D03*
X190880000Y-146540000D03*
X188340000Y-141460000D03*
X188340000Y-146540000D03*
X185800000Y-141460000D03*
X185800000Y-146540000D03*
X183260000Y-141460000D03*
X183260000Y-146540000D03*
X180720000Y-141460000D03*
X180720000Y-146540000D03*
X178180000Y-141460000D03*
X178180000Y-146540000D03*
X175640000Y-141460000D03*
X175640000Y-146540000D03*
X173100000Y-141460000D03*
X173100000Y-146540000D03*
X170560000Y-141460000D03*
X170560000Y-146540000D03*
X168020000Y-141460000D03*
X168020000Y-146540000D03*
X165480000Y-141460000D03*
X165480000Y-146540000D03*
X162940000Y-141460000D03*
X162940000Y-146540000D03*
X160400000Y-141460000D03*
X160400000Y-146540000D03*
X157860000Y-141460000D03*
X157860000Y-146540000D03*
X155320000Y-141460000D03*
X155320000Y-146540000D03*
X152780000Y-141460000D03*
X152780000Y-146540000D03*
X150240000Y-141460000D03*
X150240000Y-146540000D03*
X147700000Y-141460000D03*
X147700000Y-146540000D03*
X145160000Y-141460000D03*
X145160000Y-146540000D03*
X142620000Y-141460000D03*
X142620000Y-146540000D03*
X140080000Y-141460000D03*
X140080000Y-146540000D03*
X137540000Y-141460000D03*
X137540000Y-146540000D03*
D18*
X199820000Y-117890000D03*
D17*
X199820000Y-120430000D03*
X199820000Y-122970000D03*
D18*
X208720000Y-117840000D03*
D17*
X208720000Y-120380000D03*
X208720000Y-122920000D03*
X208720000Y-125460000D03*
X208720000Y-128000000D03*
X128430000Y-86960000D03*
X130970000Y-86960000D03*
X128430000Y-89500000D03*
X130970000Y-89500000D03*
X128430000Y-92040000D03*
X130970000Y-92040000D03*
X128430000Y-94580000D03*
X130970000Y-94580000D03*
X128430000Y-97120000D03*
X130970000Y-97120000D03*
X128430000Y-99660000D03*
X130970000Y-99660000D03*
X128430000Y-102200000D03*
D18*
X130970000Y-102200000D03*
X130970000Y-128870000D03*
D17*
X128430000Y-128870000D03*
X130970000Y-126330000D03*
X128430000Y-126330000D03*
X130970000Y-123790000D03*
X128430000Y-123790000D03*
X130970000Y-121250000D03*
X128430000Y-121250000D03*
X130970000Y-118710000D03*
X128430000Y-118710000D03*
X130970000Y-116170000D03*
X128430000Y-116170000D03*
X130970000Y-113630000D03*
X128430000Y-113630000D03*
D18*
X143500000Y-90000000D03*
D17*
X143500000Y-87460000D03*
X146040000Y-90000000D03*
X146040000Y-87460000D03*
X148580000Y-90000000D03*
X148580000Y-87460000D03*
X151120000Y-90000000D03*
X151120000Y-87460000D03*
X153660000Y-90000000D03*
X153660000Y-87460000D03*
X156200000Y-90000000D03*
X156200000Y-87460000D03*
X158740000Y-90000000D03*
X158740000Y-87460000D03*
X161280000Y-90000000D03*
X161280000Y-87460000D03*
X163820000Y-90000000D03*
X163820000Y-87460000D03*
X166360000Y-90000000D03*
X166360000Y-87460000D03*
X168900000Y-90000000D03*
X168900000Y-87460000D03*
X171440000Y-90000000D03*
X171440000Y-87460000D03*
X173980000Y-90000000D03*
X173980000Y-87460000D03*
X176520000Y-90000000D03*
X176520000Y-87460000D03*
X179060000Y-90000000D03*
X179060000Y-87460000D03*
X181600000Y-90000000D03*
X181600000Y-87460000D03*
X184140000Y-90000000D03*
X184140000Y-87460000D03*
X186680000Y-90000000D03*
X186680000Y-87460000D03*
X189220000Y-90000000D03*
X189220000Y-87460000D03*
X191760000Y-90000000D03*
X191760000Y-87460000D03*
D19*
X211500000Y-148500000D03*
X122500000Y-148500000D03*
X211500000Y-82500000D03*
X122500000Y-82500000D03*
D15*
X170140000Y-108970000D03*
D14*
X185380000Y-101350000D03*
X172680000Y-108970000D03*
X182840000Y-101350000D03*
X175220000Y-108970000D03*
X180300000Y-101350000D03*
X177760000Y-108970000D03*
X177760000Y-101350000D03*
X180300000Y-108970000D03*
X175220000Y-101350000D03*
X182840000Y-108970000D03*
X172680000Y-101350000D03*
X185380000Y-108970000D03*
X170140000Y-101350000D03*
X170260000Y-114060000D03*
X185500000Y-121680000D03*
X172800000Y-114060000D03*
X182960000Y-121680000D03*
X175340000Y-114060000D03*
X180420000Y-121680000D03*
X177880000Y-114060000D03*
X177880000Y-121680000D03*
X180420000Y-114060000D03*
X175340000Y-121680000D03*
X182960000Y-114060000D03*
X172800000Y-121680000D03*
X185500000Y-114060000D03*
D15*
X170260000Y-121680000D03*
X144630000Y-121750000D03*
D14*
X159870000Y-114130000D03*
X147170000Y-121750000D03*
X157330000Y-114130000D03*
X149710000Y-121750000D03*
X154790000Y-114130000D03*
X152250000Y-121750000D03*
X152250000Y-114130000D03*
X154790000Y-121750000D03*
X149710000Y-114130000D03*
X157330000Y-121750000D03*
X147170000Y-114130000D03*
X159870000Y-121750000D03*
X144630000Y-114130000D03*
X144510000Y-101420000D03*
X162290000Y-109040000D03*
X147050000Y-101420000D03*
X159750000Y-109040000D03*
X149590000Y-101420000D03*
X157210000Y-109040000D03*
X152130000Y-101420000D03*
X154670000Y-109040000D03*
X154670000Y-101420000D03*
X152130000Y-109040000D03*
X157210000Y-101420000D03*
X149590000Y-109040000D03*
X159750000Y-101420000D03*
X147050000Y-109040000D03*
X162290000Y-101420000D03*
D15*
X144510000Y-109040000D03*
X193420000Y-108970000D03*
D14*
X211200000Y-101350000D03*
X195960000Y-108970000D03*
X208660000Y-101350000D03*
X198500000Y-108970000D03*
X206120000Y-101350000D03*
X201040000Y-108970000D03*
X203580000Y-101350000D03*
X203580000Y-108970000D03*
X201040000Y-101350000D03*
X206120000Y-108970000D03*
X198500000Y-101350000D03*
X208660000Y-108970000D03*
X195960000Y-101350000D03*
X211200000Y-108970000D03*
X193420000Y-101350000D03*
D15*
X136370000Y-113790000D03*
D14*
X136370000Y-111250000D03*
X136370000Y-108710000D03*
X136370000Y-106170000D03*
X136370000Y-103630000D03*
X136370000Y-101090000D03*
X136370000Y-98550000D03*
X136370000Y-96010000D03*
X136370000Y-93470000D03*
M02*
