G04 #@! TF.GenerationSoftware,KiCad,Pcbnew,(5.0.0-3-g5ebb6b6)*
G04 #@! TF.CreationDate,2019-10-05T19:23:03+09:00*
G04 #@! TF.ProjectId,KZ80-MSXCTRG,4B5A38302D4D5358435452472E6B6963,rev?*
G04 #@! TF.SameCoordinates,Original*
G04 #@! TF.FileFunction,Copper,L2,Bot,Signal*
G04 #@! TF.FilePolarity,Positive*
%FSLAX46Y46*%
G04 Gerber Fmt 4.6, Leading zero omitted, Abs format (unit mm)*
G04 Created by KiCad (PCBNEW (5.0.0-3-g5ebb6b6)) date *
%MOMM*%
%LPD*%
G01*
G04 APERTURE LIST*
G04 #@! TA.AperFunction,ComponentPad*
%ADD10C,1.600000*%
G04 #@! TD*
G04 #@! TA.AperFunction,ComponentPad*
%ADD11R,1.600000X1.600000*%
G04 #@! TD*
G04 #@! TA.AperFunction,ComponentPad*
%ADD12R,1.700000X1.700000*%
G04 #@! TD*
G04 #@! TA.AperFunction,ComponentPad*
%ADD13O,1.700000X1.700000*%
G04 #@! TD*
G04 #@! TA.AperFunction,ComponentPad*
%ADD14O,1.600000X1.600000*%
G04 #@! TD*
G04 #@! TA.AperFunction,ViaPad*
%ADD15C,0.800000*%
G04 #@! TD*
G04 #@! TA.AperFunction,Conductor*
%ADD16C,0.600000*%
G04 #@! TD*
G04 #@! TA.AperFunction,Conductor*
%ADD17C,0.250000*%
G04 #@! TD*
G04 #@! TA.AperFunction,Conductor*
%ADD18C,0.254000*%
G04 #@! TD*
G04 APERTURE END LIST*
D10*
G04 #@! TO.P,C6,2*
G04 #@! TO.N,VCC*
X138570000Y-129880000D03*
D11*
G04 #@! TO.P,C6,1*
G04 #@! TO.N,GND*
X141070000Y-129880000D03*
G04 #@! TD*
G04 #@! TO.P,C5,1*
G04 #@! TO.N,GND*
X141550000Y-94330000D03*
D10*
G04 #@! TO.P,C5,2*
G04 #@! TO.N,VCC*
X141550000Y-96830000D03*
G04 #@! TD*
G04 #@! TO.P,C7,1*
G04 #@! TO.N,GND*
X167260000Y-117450000D03*
G04 #@! TO.P,C7,2*
G04 #@! TO.N,VCC*
X167260000Y-114950000D03*
G04 #@! TD*
G04 #@! TO.P,C4,2*
G04 #@! TO.N,VCC*
X167140000Y-100970000D03*
G04 #@! TO.P,C4,1*
G04 #@! TO.N,GND*
X167140000Y-103470000D03*
G04 #@! TD*
G04 #@! TO.P,C3,1*
G04 #@! TO.N,GND*
X141630000Y-117520000D03*
G04 #@! TO.P,C3,2*
G04 #@! TO.N,VCC*
X141630000Y-115020000D03*
G04 #@! TD*
G04 #@! TO.P,C2,2*
G04 #@! TO.N,VCC*
X190420000Y-100970000D03*
G04 #@! TO.P,C2,1*
G04 #@! TO.N,GND*
X190420000Y-103470000D03*
G04 #@! TD*
G04 #@! TO.P,C1,1*
G04 #@! TO.N,GND*
X141510000Y-103540000D03*
G04 #@! TO.P,C1,2*
G04 #@! TO.N,VCC*
X141510000Y-101040000D03*
G04 #@! TD*
D12*
G04 #@! TO.P,J1,1*
G04 #@! TO.N,/~CS1*
X198500000Y-141460000D03*
D13*
G04 #@! TO.P,J1,2*
G04 #@! TO.N,/~CS2*
X198500000Y-146540000D03*
G04 #@! TO.P,J1,3*
G04 #@! TO.N,/~CS12*
X195960000Y-141460000D03*
G04 #@! TO.P,J1,4*
G04 #@! TO.N,/~SLT1*
X195960000Y-146540000D03*
G04 #@! TO.P,J1,5*
G04 #@! TO.N,Net-(J1-Pad5)*
X193420000Y-141460000D03*
G04 #@! TO.P,J1,6*
G04 #@! TO.N,/~RFSH*
X193420000Y-146540000D03*
G04 #@! TO.P,J1,7*
G04 #@! TO.N,/~WAIT*
X190880000Y-141460000D03*
G04 #@! TO.P,J1,8*
G04 #@! TO.N,/~INT-S*
X190880000Y-146540000D03*
G04 #@! TO.P,J1,9*
G04 #@! TO.N,/~M1*
X188340000Y-141460000D03*
G04 #@! TO.P,J1,10*
G04 #@! TO.N,/~BUSDIR*
X188340000Y-146540000D03*
G04 #@! TO.P,J1,11*
G04 #@! TO.N,/~IORQ*
X185800000Y-141460000D03*
G04 #@! TO.P,J1,12*
G04 #@! TO.N,/~MREQ*
X185800000Y-146540000D03*
G04 #@! TO.P,J1,13*
G04 #@! TO.N,/~WR*
X183260000Y-141460000D03*
G04 #@! TO.P,J1,14*
G04 #@! TO.N,/~RD*
X183260000Y-146540000D03*
G04 #@! TO.P,J1,15*
G04 #@! TO.N,/~RESET*
X180720000Y-141460000D03*
G04 #@! TO.P,J1,16*
G04 #@! TO.N,Net-(J1-Pad16)*
X180720000Y-146540000D03*
G04 #@! TO.P,J1,17*
G04 #@! TO.N,/A9*
X178180000Y-141460000D03*
G04 #@! TO.P,J1,18*
G04 #@! TO.N,/A15*
X178180000Y-146540000D03*
G04 #@! TO.P,J1,19*
G04 #@! TO.N,/A11*
X175640000Y-141460000D03*
G04 #@! TO.P,J1,20*
G04 #@! TO.N,/A10*
X175640000Y-146540000D03*
G04 #@! TO.P,J1,21*
G04 #@! TO.N,/A7*
X173100000Y-141460000D03*
G04 #@! TO.P,J1,22*
G04 #@! TO.N,/A6*
X173100000Y-146540000D03*
G04 #@! TO.P,J1,23*
G04 #@! TO.N,/A12*
X170560000Y-141460000D03*
G04 #@! TO.P,J1,24*
G04 #@! TO.N,/A8*
X170560000Y-146540000D03*
G04 #@! TO.P,J1,25*
G04 #@! TO.N,/A14*
X168020000Y-141460000D03*
G04 #@! TO.P,J1,26*
G04 #@! TO.N,/A13*
X168020000Y-146540000D03*
G04 #@! TO.P,J1,27*
G04 #@! TO.N,/A1*
X165480000Y-141460000D03*
G04 #@! TO.P,J1,28*
G04 #@! TO.N,/A0*
X165480000Y-146540000D03*
G04 #@! TO.P,J1,29*
G04 #@! TO.N,/A3*
X162940000Y-141460000D03*
G04 #@! TO.P,J1,30*
G04 #@! TO.N,/A2*
X162940000Y-146540000D03*
G04 #@! TO.P,J1,31*
G04 #@! TO.N,/A5*
X160400000Y-141460000D03*
G04 #@! TO.P,J1,32*
G04 #@! TO.N,/A4*
X160400000Y-146540000D03*
G04 #@! TO.P,J1,33*
G04 #@! TO.N,/D1*
X157860000Y-141460000D03*
G04 #@! TO.P,J1,34*
G04 #@! TO.N,/D0*
X157860000Y-146540000D03*
G04 #@! TO.P,J1,35*
G04 #@! TO.N,/D3*
X155320000Y-141460000D03*
G04 #@! TO.P,J1,36*
G04 #@! TO.N,/D2*
X155320000Y-146540000D03*
G04 #@! TO.P,J1,37*
G04 #@! TO.N,/D5*
X152780000Y-141460000D03*
G04 #@! TO.P,J1,38*
G04 #@! TO.N,/D4*
X152780000Y-146540000D03*
G04 #@! TO.P,J1,39*
G04 #@! TO.N,/D7*
X150240000Y-141460000D03*
G04 #@! TO.P,J1,40*
G04 #@! TO.N,/D6*
X150240000Y-146540000D03*
G04 #@! TO.P,J1,41*
G04 #@! TO.N,GND*
X147700000Y-141460000D03*
G04 #@! TO.P,J1,42*
G04 #@! TO.N,/CLK*
X147700000Y-146540000D03*
G04 #@! TO.P,J1,43*
G04 #@! TO.N,GND*
X145160000Y-141460000D03*
G04 #@! TO.P,J1,44*
G04 #@! TO.N,/SW1*
X145160000Y-146540000D03*
G04 #@! TO.P,J1,45*
G04 #@! TO.N,VCC*
X142620000Y-141460000D03*
G04 #@! TO.P,J1,46*
G04 #@! TO.N,/SW2*
X142620000Y-146540000D03*
G04 #@! TO.P,J1,47*
G04 #@! TO.N,VCC*
X140080000Y-141460000D03*
G04 #@! TO.P,J1,48*
G04 #@! TO.N,/+12V*
X140080000Y-146540000D03*
G04 #@! TO.P,J1,49*
G04 #@! TO.N,Net-(J1-Pad49)*
X137540000Y-141460000D03*
G04 #@! TO.P,J1,50*
G04 #@! TO.N,/-12V*
X137540000Y-146540000D03*
G04 #@! TD*
D12*
G04 #@! TO.P,JP1,1*
G04 #@! TO.N,/~INT*
X199820000Y-117890000D03*
D13*
G04 #@! TO.P,JP1,2*
G04 #@! TO.N,/~INT-S*
X199820000Y-120430000D03*
G04 #@! TO.P,JP1,3*
G04 #@! TO.N,Net-(JP1-Pad3)*
X199820000Y-122970000D03*
G04 #@! TD*
D12*
G04 #@! TO.P,J3,1*
G04 #@! TO.N,/~SLT0*
X208720000Y-117840000D03*
D13*
G04 #@! TO.P,J3,2*
G04 #@! TO.N,/~SLT2*
X208720000Y-120380000D03*
G04 #@! TO.P,J3,3*
G04 #@! TO.N,/~SLT3*
X208720000Y-122920000D03*
G04 #@! TO.P,J3,4*
G04 #@! TO.N,Net-(J3-Pad4)*
X208720000Y-125460000D03*
G04 #@! TO.P,J3,5*
G04 #@! TO.N,/INT-J*
X208720000Y-128000000D03*
G04 #@! TD*
G04 #@! TO.P,J5,14*
G04 #@! TO.N,Net-(J5-Pad14)*
X128430000Y-86960000D03*
G04 #@! TO.P,J5,13*
G04 #@! TO.N,Net-(J5-Pad13)*
X130970000Y-86960000D03*
G04 #@! TO.P,J5,12*
G04 #@! TO.N,/PC7*
X128430000Y-89500000D03*
G04 #@! TO.P,J5,11*
G04 #@! TO.N,/PC6*
X130970000Y-89500000D03*
G04 #@! TO.P,J5,10*
G04 #@! TO.N,/PC5*
X128430000Y-92040000D03*
G04 #@! TO.P,J5,9*
G04 #@! TO.N,/PC4*
X130970000Y-92040000D03*
G04 #@! TO.P,J5,8*
G04 #@! TO.N,/PA7*
X128430000Y-94580000D03*
G04 #@! TO.P,J5,7*
G04 #@! TO.N,/PA6*
X130970000Y-94580000D03*
G04 #@! TO.P,J5,6*
G04 #@! TO.N,/PA5*
X128430000Y-97120000D03*
G04 #@! TO.P,J5,5*
G04 #@! TO.N,/PA4*
X130970000Y-97120000D03*
G04 #@! TO.P,J5,4*
G04 #@! TO.N,/PA3*
X128430000Y-99660000D03*
G04 #@! TO.P,J5,3*
G04 #@! TO.N,/PA2*
X130970000Y-99660000D03*
G04 #@! TO.P,J5,2*
G04 #@! TO.N,/PA1*
X128430000Y-102200000D03*
D12*
G04 #@! TO.P,J5,1*
G04 #@! TO.N,/PA0*
X130970000Y-102200000D03*
G04 #@! TD*
G04 #@! TO.P,J4,1*
G04 #@! TO.N,/~RD*
X130970000Y-128870000D03*
D13*
G04 #@! TO.P,J4,2*
G04 #@! TO.N,/~WR*
X128430000Y-128870000D03*
G04 #@! TO.P,J4,3*
G04 #@! TO.N,/~IORQ*
X130970000Y-126330000D03*
G04 #@! TO.P,J4,4*
G04 #@! TO.N,/~MREQ*
X128430000Y-126330000D03*
G04 #@! TO.P,J4,5*
G04 #@! TO.N,/~M1*
X130970000Y-123790000D03*
G04 #@! TO.P,J4,6*
G04 #@! TO.N,/~RESET*
X128430000Y-123790000D03*
G04 #@! TO.P,J4,7*
G04 #@! TO.N,/~BUSR*
X130970000Y-121250000D03*
G04 #@! TO.P,J4,8*
G04 #@! TO.N,/~BUSA*
X128430000Y-121250000D03*
G04 #@! TO.P,J4,9*
G04 #@! TO.N,/~NMI*
X130970000Y-118710000D03*
G04 #@! TO.P,J4,10*
G04 #@! TO.N,/~INT*
X128430000Y-118710000D03*
G04 #@! TO.P,J4,11*
G04 #@! TO.N,/~RFSH*
X130970000Y-116170000D03*
G04 #@! TO.P,J4,12*
G04 #@! TO.N,/~WAIT*
X128430000Y-116170000D03*
G04 #@! TO.P,J4,13*
G04 #@! TO.N,/~HALT*
X130970000Y-113630000D03*
G04 #@! TO.P,J4,14*
G04 #@! TO.N,Net-(J4-Pad14)*
X128430000Y-113630000D03*
G04 #@! TD*
D12*
G04 #@! TO.P,J2,1*
G04 #@! TO.N,VCC*
X143500000Y-90000000D03*
D13*
G04 #@! TO.P,J2,2*
G04 #@! TO.N,GND*
X143500000Y-87460000D03*
G04 #@! TO.P,J2,3*
G04 #@! TO.N,VCC*
X146040000Y-90000000D03*
G04 #@! TO.P,J2,4*
G04 #@! TO.N,GND*
X146040000Y-87460000D03*
G04 #@! TO.P,J2,5*
G04 #@! TO.N,Net-(J2-Pad5)*
X148580000Y-90000000D03*
G04 #@! TO.P,J2,6*
G04 #@! TO.N,Net-(J2-Pad6)*
X148580000Y-87460000D03*
G04 #@! TO.P,J2,7*
G04 #@! TO.N,Net-(J2-Pad7)*
X151120000Y-90000000D03*
G04 #@! TO.P,J2,8*
G04 #@! TO.N,/CLK*
X151120000Y-87460000D03*
G04 #@! TO.P,J2,9*
G04 #@! TO.N,/D0*
X153660000Y-90000000D03*
G04 #@! TO.P,J2,10*
G04 #@! TO.N,/D1*
X153660000Y-87460000D03*
G04 #@! TO.P,J2,11*
G04 #@! TO.N,/D2*
X156200000Y-90000000D03*
G04 #@! TO.P,J2,12*
G04 #@! TO.N,/D3*
X156200000Y-87460000D03*
G04 #@! TO.P,J2,13*
G04 #@! TO.N,/D4*
X158740000Y-90000000D03*
G04 #@! TO.P,J2,14*
G04 #@! TO.N,/D5*
X158740000Y-87460000D03*
G04 #@! TO.P,J2,15*
G04 #@! TO.N,/D6*
X161280000Y-90000000D03*
G04 #@! TO.P,J2,16*
G04 #@! TO.N,/D7*
X161280000Y-87460000D03*
G04 #@! TO.P,J2,17*
G04 #@! TO.N,Net-(J2-Pad17)*
X163820000Y-90000000D03*
G04 #@! TO.P,J2,18*
G04 #@! TO.N,/~MEMRD*
X163820000Y-87460000D03*
G04 #@! TO.P,J2,19*
G04 #@! TO.N,Net-(J2-Pad19)*
X166360000Y-90000000D03*
G04 #@! TO.P,J2,20*
G04 #@! TO.N,/~MEMWR*
X166360000Y-87460000D03*
G04 #@! TO.P,J2,21*
G04 #@! TO.N,/RES*
X168900000Y-90000000D03*
G04 #@! TO.P,J2,22*
G04 #@! TO.N,Net-(J2-Pad22)*
X168900000Y-87460000D03*
G04 #@! TO.P,J2,23*
G04 #@! TO.N,/INT*
X171440000Y-90000000D03*
G04 #@! TO.P,J2,24*
G04 #@! TO.N,Net-(J2-Pad24)*
X171440000Y-87460000D03*
G04 #@! TO.P,J2,25*
G04 #@! TO.N,/A0*
X173980000Y-90000000D03*
G04 #@! TO.P,J2,26*
G04 #@! TO.N,/A1*
X173980000Y-87460000D03*
G04 #@! TO.P,J2,27*
G04 #@! TO.N,/A2*
X176520000Y-90000000D03*
G04 #@! TO.P,J2,28*
G04 #@! TO.N,/A3*
X176520000Y-87460000D03*
G04 #@! TO.P,J2,29*
G04 #@! TO.N,/A4*
X179060000Y-90000000D03*
G04 #@! TO.P,J2,30*
G04 #@! TO.N,/A5*
X179060000Y-87460000D03*
G04 #@! TO.P,J2,31*
G04 #@! TO.N,/A6*
X181600000Y-90000000D03*
G04 #@! TO.P,J2,32*
G04 #@! TO.N,/A7*
X181600000Y-87460000D03*
G04 #@! TO.P,J2,33*
G04 #@! TO.N,/A8*
X184140000Y-90000000D03*
G04 #@! TO.P,J2,34*
G04 #@! TO.N,/A9*
X184140000Y-87460000D03*
G04 #@! TO.P,J2,35*
G04 #@! TO.N,/A10*
X186680000Y-90000000D03*
G04 #@! TO.P,J2,36*
G04 #@! TO.N,/A11*
X186680000Y-87460000D03*
G04 #@! TO.P,J2,37*
G04 #@! TO.N,/A12*
X189220000Y-90000000D03*
G04 #@! TO.P,J2,38*
G04 #@! TO.N,/A13*
X189220000Y-87460000D03*
G04 #@! TO.P,J2,39*
G04 #@! TO.N,/A14*
X191760000Y-90000000D03*
G04 #@! TO.P,J2,40*
G04 #@! TO.N,/A15*
X191760000Y-87460000D03*
G04 #@! TD*
D11*
G04 #@! TO.P,U5,1*
G04 #@! TO.N,/~RESET*
X170140000Y-108970000D03*
D14*
G04 #@! TO.P,U5,8*
G04 #@! TO.N,/INT-J*
X185380000Y-101350000D03*
G04 #@! TO.P,U5,2*
G04 #@! TO.N,Net-(U5-Pad2)*
X172680000Y-108970000D03*
G04 #@! TO.P,U5,9*
G04 #@! TO.N,Net-(JP1-Pad3)*
X182840000Y-101350000D03*
G04 #@! TO.P,U5,3*
G04 #@! TO.N,Net-(U2-Pad1)*
X175220000Y-108970000D03*
G04 #@! TO.P,U5,10*
G04 #@! TO.N,Net-(JP1-Pad3)*
X180300000Y-101350000D03*
G04 #@! TO.P,U5,4*
G04 #@! TO.N,Net-(U2-Pad1)*
X177760000Y-108970000D03*
G04 #@! TO.P,U5,11*
G04 #@! TO.N,Net-(U5-Pad11)*
X177760000Y-101350000D03*
G04 #@! TO.P,U5,5*
G04 #@! TO.N,Net-(U3-Pad8)*
X180300000Y-108970000D03*
G04 #@! TO.P,U5,12*
G04 #@! TO.N,GND*
X175220000Y-101350000D03*
G04 #@! TO.P,U5,6*
G04 #@! TO.N,Net-(U5-Pad2)*
X182840000Y-108970000D03*
G04 #@! TO.P,U5,13*
G04 #@! TO.N,GND*
X172680000Y-101350000D03*
G04 #@! TO.P,U5,7*
X185380000Y-108970000D03*
G04 #@! TO.P,U5,14*
G04 #@! TO.N,VCC*
X170140000Y-101350000D03*
G04 #@! TD*
G04 #@! TO.P,U4,14*
G04 #@! TO.N,VCC*
X170260000Y-115330000D03*
G04 #@! TO.P,U4,7*
G04 #@! TO.N,GND*
X185500000Y-122950000D03*
G04 #@! TO.P,U4,13*
G04 #@! TO.N,/~SLT3*
X172800000Y-115330000D03*
G04 #@! TO.P,U4,6*
G04 #@! TO.N,/~CS12*
X182960000Y-122950000D03*
G04 #@! TO.P,U4,12*
G04 #@! TO.N,/~SLT3*
X175340000Y-115330000D03*
G04 #@! TO.P,U4,5*
G04 #@! TO.N,Net-(U4-Pad3)*
X180420000Y-122950000D03*
G04 #@! TO.P,U4,11*
G04 #@! TO.N,Net-(J3-Pad4)*
X177880000Y-115330000D03*
G04 #@! TO.P,U4,4*
G04 #@! TO.N,Net-(U4-Pad3)*
X177880000Y-122950000D03*
G04 #@! TO.P,U4,10*
G04 #@! TO.N,/~RFSH*
X180420000Y-115330000D03*
G04 #@! TO.P,U4,3*
G04 #@! TO.N,Net-(U4-Pad3)*
X175340000Y-122950000D03*
G04 #@! TO.P,U4,9*
G04 #@! TO.N,/~RFSH*
X182960000Y-115330000D03*
G04 #@! TO.P,U4,2*
G04 #@! TO.N,/~CS2*
X172800000Y-122950000D03*
G04 #@! TO.P,U4,8*
G04 #@! TO.N,Net-(U3-Pad2)*
X185500000Y-115330000D03*
D11*
G04 #@! TO.P,U4,1*
G04 #@! TO.N,/~CS1*
X170260000Y-122950000D03*
G04 #@! TD*
G04 #@! TO.P,U3,1*
G04 #@! TO.N,/~MREQ*
X144630000Y-123020000D03*
D14*
G04 #@! TO.P,U3,8*
G04 #@! TO.N,Net-(U3-Pad8)*
X159870000Y-115400000D03*
G04 #@! TO.P,U3,2*
G04 #@! TO.N,Net-(U3-Pad2)*
X147170000Y-123020000D03*
G04 #@! TO.P,U3,9*
G04 #@! TO.N,/PA0*
X157330000Y-115400000D03*
G04 #@! TO.P,U3,3*
G04 #@! TO.N,Net-(U1-Pad15)*
X149710000Y-123020000D03*
G04 #@! TO.P,U3,10*
G04 #@! TO.N,/PA1*
X154790000Y-115400000D03*
G04 #@! TO.P,U3,4*
G04 #@! TO.N,/~RD*
X152250000Y-123020000D03*
G04 #@! TO.P,U3,11*
G04 #@! TO.N,Net-(U3-Pad11)*
X152250000Y-115400000D03*
G04 #@! TO.P,U3,5*
G04 #@! TO.N,/~MREQ*
X154790000Y-123020000D03*
G04 #@! TO.P,U3,12*
G04 #@! TO.N,GND*
X149710000Y-115400000D03*
G04 #@! TO.P,U3,6*
G04 #@! TO.N,Net-(U1-Pad1)*
X157330000Y-123020000D03*
G04 #@! TO.P,U3,13*
G04 #@! TO.N,GND*
X147170000Y-115400000D03*
G04 #@! TO.P,U3,7*
X159870000Y-123020000D03*
G04 #@! TO.P,U3,14*
G04 #@! TO.N,VCC*
X144630000Y-115400000D03*
G04 #@! TD*
G04 #@! TO.P,U2,16*
G04 #@! TO.N,VCC*
X144510000Y-101420000D03*
G04 #@! TO.P,U2,8*
G04 #@! TO.N,GND*
X162290000Y-109040000D03*
G04 #@! TO.P,U2,15*
G04 #@! TO.N,Net-(U2-Pad1)*
X147050000Y-101420000D03*
G04 #@! TO.P,U2,7*
G04 #@! TO.N,Net-(U1-Pad14)*
X159750000Y-109040000D03*
G04 #@! TO.P,U2,14*
G04 #@! TO.N,/A14*
X149590000Y-101420000D03*
G04 #@! TO.P,U2,6*
G04 #@! TO.N,/PA0*
X157210000Y-109040000D03*
G04 #@! TO.P,U2,13*
G04 #@! TO.N,/PA7*
X152130000Y-101420000D03*
G04 #@! TO.P,U2,5*
G04 #@! TO.N,/PA2*
X154670000Y-109040000D03*
G04 #@! TO.P,U2,12*
G04 #@! TO.N,/PA5*
X154670000Y-101420000D03*
G04 #@! TO.P,U2,4*
G04 #@! TO.N,/PA4*
X152130000Y-109040000D03*
G04 #@! TO.P,U2,11*
G04 #@! TO.N,/PA3*
X157210000Y-101420000D03*
G04 #@! TO.P,U2,3*
G04 #@! TO.N,/PA6*
X149590000Y-109040000D03*
G04 #@! TO.P,U2,10*
G04 #@! TO.N,/PA1*
X159750000Y-101420000D03*
G04 #@! TO.P,U2,2*
G04 #@! TO.N,/A15*
X147050000Y-109040000D03*
G04 #@! TO.P,U2,9*
G04 #@! TO.N,Net-(U1-Pad13)*
X162290000Y-101420000D03*
D11*
G04 #@! TO.P,U2,1*
G04 #@! TO.N,Net-(U2-Pad1)*
X144510000Y-109040000D03*
G04 #@! TD*
G04 #@! TO.P,U1,1*
G04 #@! TO.N,Net-(U1-Pad1)*
X193420000Y-108970000D03*
D14*
G04 #@! TO.P,U1,9*
G04 #@! TO.N,/~SLT3*
X211200000Y-101350000D03*
G04 #@! TO.P,U1,2*
G04 #@! TO.N,/A14*
X195960000Y-108970000D03*
G04 #@! TO.P,U1,10*
G04 #@! TO.N,/~SLT2*
X208660000Y-101350000D03*
G04 #@! TO.P,U1,3*
G04 #@! TO.N,/A15*
X198500000Y-108970000D03*
G04 #@! TO.P,U1,11*
G04 #@! TO.N,/~SLT1*
X206120000Y-101350000D03*
G04 #@! TO.P,U1,4*
G04 #@! TO.N,/~CS0*
X201040000Y-108970000D03*
G04 #@! TO.P,U1,12*
G04 #@! TO.N,/~SLT0*
X203580000Y-101350000D03*
G04 #@! TO.P,U1,5*
G04 #@! TO.N,/~CS1*
X203580000Y-108970000D03*
G04 #@! TO.P,U1,13*
G04 #@! TO.N,Net-(U1-Pad13)*
X201040000Y-101350000D03*
G04 #@! TO.P,U1,6*
G04 #@! TO.N,/~CS2*
X206120000Y-108970000D03*
G04 #@! TO.P,U1,14*
G04 #@! TO.N,Net-(U1-Pad14)*
X198500000Y-101350000D03*
G04 #@! TO.P,U1,7*
G04 #@! TO.N,Net-(U1-Pad7)*
X208660000Y-108970000D03*
G04 #@! TO.P,U1,15*
G04 #@! TO.N,Net-(U1-Pad15)*
X195960000Y-101350000D03*
G04 #@! TO.P,U1,8*
G04 #@! TO.N,GND*
X211200000Y-108970000D03*
G04 #@! TO.P,U1,16*
G04 #@! TO.N,VCC*
X193420000Y-101350000D03*
G04 #@! TD*
D11*
G04 #@! TO.P,RN1,1*
G04 #@! TO.N,VCC*
X136370000Y-113790000D03*
D14*
G04 #@! TO.P,RN1,2*
G04 #@! TO.N,/PA0*
X136370000Y-111250000D03*
G04 #@! TO.P,RN1,3*
G04 #@! TO.N,/PA2*
X136370000Y-108710000D03*
G04 #@! TO.P,RN1,4*
G04 #@! TO.N,/PA4*
X136370000Y-106170000D03*
G04 #@! TO.P,RN1,5*
G04 #@! TO.N,/PA6*
X136370000Y-103630000D03*
G04 #@! TO.P,RN1,6*
G04 #@! TO.N,/PA1*
X136370000Y-101090000D03*
G04 #@! TO.P,RN1,7*
G04 #@! TO.N,/PA3*
X136370000Y-98550000D03*
G04 #@! TO.P,RN1,8*
G04 #@! TO.N,/PA5*
X136370000Y-96010000D03*
G04 #@! TO.P,RN1,9*
G04 #@! TO.N,/PA7*
X136370000Y-93470000D03*
G04 #@! TD*
D15*
G04 #@! TO.N,/~SLT3*
X184380900Y-120712200D03*
G04 #@! TO.N,/A15*
X153394400Y-116525400D03*
G04 #@! TO.N,GND*
X185443000Y-103632200D03*
X188252100Y-121788400D03*
X211000000Y-121000000D03*
X208000000Y-86000000D03*
X121500000Y-88000000D03*
X122500000Y-143500000D03*
X209500000Y-143500000D03*
G04 #@! TO.N,Net-(U3-Pad8)*
X160139500Y-112577700D03*
G04 #@! TO.N,/~RD*
X148222100Y-127617100D03*
G04 #@! TO.N,Net-(J3-Pad4)*
X185606700Y-120934700D03*
G04 #@! TO.N,/~RESET*
X173925400Y-110732300D03*
G04 #@! TO.N,/D1*
X140636700Y-97985000D03*
G04 #@! TO.N,/A7*
X195048800Y-136513900D03*
X195030000Y-87019300D03*
G04 #@! TO.N,/A12*
X190308300Y-134165100D03*
X193294000Y-90068600D03*
G04 #@! TO.N,/~M1*
X145138500Y-143797900D03*
G04 #@! TO.N,/~INT*
X192296000Y-111180900D03*
X134078900Y-124369500D03*
G04 #@! TD*
D16*
G04 #@! TO.N,VCC*
X141821300Y-101351200D02*
X143140900Y-101351200D01*
X143140900Y-101351200D02*
X143209700Y-101420000D01*
X141510000Y-101040000D02*
X141821300Y-101351200D01*
X141821300Y-101351200D02*
X137676400Y-105496100D01*
X137676400Y-105496100D02*
X137676400Y-113790000D01*
X137676400Y-113790000D02*
X137676400Y-114126400D01*
X137676400Y-114126400D02*
X138570000Y-115020000D01*
X137670300Y-113790000D02*
X137676400Y-113790000D01*
X138570000Y-115020000D02*
X138570000Y-129880000D01*
X138570000Y-115020000D02*
X141630000Y-115020000D01*
X136370000Y-113790000D02*
X137670300Y-113790000D01*
X167260000Y-114950000D02*
X167260000Y-108249800D01*
X167260000Y-108249800D02*
X170140000Y-105369800D01*
X170140000Y-105369800D02*
X170140000Y-101350000D01*
X143500000Y-90000000D02*
X143500000Y-94880000D01*
X143500000Y-94880000D02*
X141550000Y-96830000D01*
X144510000Y-101420000D02*
X143209700Y-101420000D01*
D17*
G04 #@! TO.N,/PA0*
X136370000Y-111250000D02*
X136370000Y-110124700D01*
X136370000Y-110124700D02*
X136088700Y-110124700D01*
X136088700Y-110124700D02*
X130970000Y-105006000D01*
X130970000Y-105006000D02*
X130970000Y-102200000D01*
X157210000Y-110165300D02*
X157210000Y-114154700D01*
X157210000Y-114154700D02*
X157330000Y-114274700D01*
X157210000Y-109040000D02*
X157210000Y-110165300D01*
X157330000Y-115400000D02*
X157330000Y-114274700D01*
G04 #@! TO.N,/PA2*
X130970000Y-99660000D02*
X130970000Y-100835300D01*
X136370000Y-108710000D02*
X136370000Y-107584700D01*
X136370000Y-107584700D02*
X136088700Y-107584700D01*
X136088700Y-107584700D02*
X132145300Y-103641300D01*
X132145300Y-103641300D02*
X132145300Y-101202500D01*
X132145300Y-101202500D02*
X131778100Y-100835300D01*
X131778100Y-100835300D02*
X130970000Y-100835300D01*
G04 #@! TO.N,/PA4*
X130970000Y-97120000D02*
X130970000Y-98295300D01*
X136370000Y-106170000D02*
X136370000Y-105044700D01*
X136370000Y-105044700D02*
X136088700Y-105044700D01*
X136088700Y-105044700D02*
X132668600Y-101624600D01*
X132668600Y-101624600D02*
X132668600Y-99626600D01*
X132668600Y-99626600D02*
X131337300Y-98295300D01*
X131337300Y-98295300D02*
X130970000Y-98295300D01*
G04 #@! TO.N,/PA6*
X130970000Y-94580000D02*
X130970000Y-95755300D01*
X136370000Y-103630000D02*
X136370000Y-102504700D01*
X136370000Y-102504700D02*
X136088600Y-102504700D01*
X136088600Y-102504700D02*
X135244700Y-101660800D01*
X135244700Y-101660800D02*
X135244700Y-99662700D01*
X135244700Y-99662700D02*
X131337300Y-95755300D01*
X131337300Y-95755300D02*
X130970000Y-95755300D01*
G04 #@! TO.N,/PA1*
X153428700Y-106856200D02*
X148341800Y-101769400D01*
X148341800Y-101769400D02*
X148341800Y-101101900D01*
X148341800Y-101101900D02*
X147151000Y-99911100D01*
X147151000Y-99911100D02*
X138674200Y-99911100D01*
X138674200Y-99911100D02*
X137495300Y-101090000D01*
X154790000Y-114274700D02*
X153529500Y-113014200D01*
X153529500Y-113014200D02*
X153529500Y-106957100D01*
X153529500Y-106957100D02*
X153428700Y-106856200D01*
X158624700Y-101420000D02*
X158624700Y-101660200D01*
X158624700Y-101660200D02*
X153428700Y-106856200D01*
X159750000Y-101420000D02*
X158624700Y-101420000D01*
X154790000Y-115400000D02*
X154790000Y-114274700D01*
X136370000Y-101090000D02*
X137495300Y-101090000D01*
G04 #@! TO.N,/PA3*
X157210000Y-101420000D02*
X156084700Y-101420000D01*
X136370000Y-98550000D02*
X137495300Y-98550000D01*
X137495300Y-98550000D02*
X138138900Y-99193600D01*
X138138900Y-99193600D02*
X148957800Y-99193600D01*
X148957800Y-99193600D02*
X150860000Y-101095800D01*
X150860000Y-101095800D02*
X150860000Y-101820700D01*
X150860000Y-101820700D02*
X151584600Y-102545300D01*
X151584600Y-102545300D02*
X155240800Y-102545300D01*
X155240800Y-102545300D02*
X156084700Y-101701400D01*
X156084700Y-101701400D02*
X156084700Y-101420000D01*
G04 #@! TO.N,/PA5*
X137495300Y-96010000D02*
X140228500Y-98743200D01*
X140228500Y-98743200D02*
X151149200Y-98743200D01*
X151149200Y-98743200D02*
X153544700Y-101138700D01*
X153544700Y-101138700D02*
X153544700Y-101420000D01*
X154670000Y-101420000D02*
X153544700Y-101420000D01*
X136370000Y-96010000D02*
X137495300Y-96010000D01*
G04 #@! TO.N,/~SLT3*
X175340000Y-115330000D02*
X176465300Y-115330000D01*
X184380900Y-120712200D02*
X181566200Y-120712200D01*
X181566200Y-120712200D02*
X176465300Y-115611300D01*
X176465300Y-115611300D02*
X176465300Y-115330000D01*
G04 #@! TO.N,/A14*
X191760000Y-90000000D02*
X191760000Y-91175300D01*
X195960000Y-108970000D02*
X195960000Y-107844700D01*
X195960000Y-107844700D02*
X192110000Y-103994700D01*
X192110000Y-103994700D02*
X192110000Y-91525300D01*
X192110000Y-91525300D02*
X191760000Y-91175300D01*
G04 #@! TO.N,/~SLT2*
X208660000Y-102475300D02*
X208660000Y-103986200D01*
X208660000Y-103986200D02*
X209895300Y-105221500D01*
X209895300Y-105221500D02*
X209895300Y-118837500D01*
X209895300Y-118837500D02*
X209528100Y-119204700D01*
X209528100Y-119204700D02*
X208720000Y-119204700D01*
X208720000Y-120380000D02*
X208720000Y-119204700D01*
X208660000Y-101350000D02*
X208660000Y-102475300D01*
G04 #@! TO.N,/A15*
X148175300Y-109040000D02*
X148175300Y-109665400D01*
X148175300Y-109665400D02*
X153394400Y-114884500D01*
X153394400Y-114884500D02*
X153394400Y-116525400D01*
X147050000Y-109040000D02*
X148175300Y-109040000D01*
X178180000Y-146540000D02*
X179355300Y-146540000D01*
X198500000Y-108970000D02*
X198500000Y-110095300D01*
X198500000Y-110095300D02*
X201482400Y-113077700D01*
X201482400Y-113077700D02*
X201482400Y-124244800D01*
X201482400Y-124244800D02*
X194323400Y-131403800D01*
X194323400Y-131403800D02*
X194323400Y-140463200D01*
X194323400Y-140463200D02*
X194629800Y-140769600D01*
X194629800Y-140769600D02*
X194629800Y-147084900D01*
X194629800Y-147084900D02*
X193976500Y-147738200D01*
X193976500Y-147738200D02*
X180239300Y-147738200D01*
X180239300Y-147738200D02*
X179355300Y-146854200D01*
X179355300Y-146854200D02*
X179355300Y-146540000D01*
X198500000Y-108695200D02*
X198500000Y-108970000D01*
X198500000Y-108695200D02*
X198500000Y-107844700D01*
X191760000Y-87460000D02*
X191760000Y-88635300D01*
X198500000Y-107844700D02*
X197374700Y-106719400D01*
X197374700Y-106719400D02*
X197374700Y-93074700D01*
X197374700Y-93074700D02*
X192935300Y-88635300D01*
X192935300Y-88635300D02*
X191760000Y-88635300D01*
G04 #@! TO.N,/~SLT1*
X195960000Y-146540000D02*
X195960000Y-145364700D01*
X206120000Y-101350000D02*
X204994700Y-101350000D01*
X204994700Y-101350000D02*
X204994700Y-101068700D01*
X204994700Y-101068700D02*
X204148900Y-100222900D01*
X204148900Y-100222900D02*
X203089100Y-100222900D01*
X203089100Y-100222900D02*
X202454700Y-100857300D01*
X202454700Y-100857300D02*
X202454700Y-133300700D01*
X202454700Y-133300700D02*
X197135300Y-138620100D01*
X197135300Y-138620100D02*
X197135300Y-144189400D01*
X197135300Y-144189400D02*
X195960000Y-145364700D01*
G04 #@! TO.N,/~SLT0*
X208720000Y-117840000D02*
X208720000Y-116664700D01*
X203580000Y-101350000D02*
X203580000Y-102475300D01*
X203580000Y-102475300D02*
X207390000Y-106285300D01*
X207390000Y-106285300D02*
X207390000Y-115334700D01*
X207390000Y-115334700D02*
X208720000Y-116664700D01*
G04 #@! TO.N,/~CS1*
X198500000Y-141460000D02*
X198500000Y-140284700D01*
X203580000Y-108970000D02*
X203580000Y-135204700D01*
X203580000Y-135204700D02*
X198500000Y-140284700D01*
G04 #@! TO.N,/~CS2*
X206120000Y-108970000D02*
X206120000Y-137744700D01*
X206120000Y-137744700D02*
X198500000Y-145364700D01*
X198500000Y-146540000D02*
X198500000Y-145364700D01*
D16*
G04 #@! TO.N,GND*
X162290000Y-109040000D02*
X162290000Y-107739700D01*
X167140000Y-103470000D02*
X162870300Y-107739700D01*
X162870300Y-107739700D02*
X162290000Y-107739700D01*
X159870000Y-123020000D02*
X161170300Y-123020000D01*
X167260000Y-117450000D02*
X166740300Y-117450000D01*
X166740300Y-117450000D02*
X161170300Y-123020000D01*
X188252100Y-121788400D02*
X188252100Y-113142400D01*
X188252100Y-113142400D02*
X185380000Y-110270300D01*
X185380000Y-107822600D02*
X185443000Y-107759600D01*
X185443000Y-107759600D02*
X185443000Y-103632200D01*
X185443000Y-103632200D02*
X190257800Y-103632200D01*
X190257800Y-103632200D02*
X190420000Y-103470000D01*
X185380000Y-108970000D02*
X185380000Y-107822600D01*
X141630000Y-117520000D02*
X141070000Y-118080000D01*
X141070000Y-118080000D02*
X141070000Y-128579700D01*
X141550000Y-94330000D02*
X141550000Y-89410000D01*
X141550000Y-89410000D02*
X143500000Y-87460000D01*
X147170000Y-114099700D02*
X141510000Y-108439700D01*
X141510000Y-108439700D02*
X141510000Y-103540000D01*
X141070000Y-129880000D02*
X141070000Y-128579700D01*
X147170000Y-115400000D02*
X147170000Y-114099700D01*
X185380000Y-108970000D02*
X185380000Y-110270300D01*
D17*
G04 #@! TO.N,Net-(U2-Pad1)*
X147050000Y-102432700D02*
X147050000Y-105374700D01*
X147050000Y-105374700D02*
X144510000Y-107914700D01*
X144510000Y-109040000D02*
X144510000Y-107914700D01*
X147050000Y-101420000D02*
X147050000Y-102432700D01*
G04 #@! TO.N,/~MREQ*
X185800000Y-146540000D02*
X184624700Y-146540000D01*
X154477800Y-123020000D02*
X154477800Y-132474400D01*
X154477800Y-132474400D02*
X161670000Y-139666600D01*
X161670000Y-139666600D02*
X161670000Y-141886700D01*
X161670000Y-141886700D02*
X164210000Y-144426700D01*
X164210000Y-144426700D02*
X164210000Y-146951100D01*
X164210000Y-146951100D02*
X165509300Y-148250400D01*
X165509300Y-148250400D02*
X170565100Y-148250400D01*
X170565100Y-148250400D02*
X171830000Y-146985500D01*
X171830000Y-146985500D02*
X171830000Y-146073700D01*
X171830000Y-146073700D02*
X172539000Y-145364700D01*
X172539000Y-145364700D02*
X183816800Y-145364700D01*
X183816800Y-145364700D02*
X184624700Y-146172600D01*
X184624700Y-146172600D02*
X184624700Y-146540000D01*
X154790000Y-123020000D02*
X154477800Y-123020000D01*
X154477700Y-123020000D02*
X153664700Y-123020000D01*
X154477700Y-123020000D02*
X154477800Y-123020000D01*
X144630000Y-123020000D02*
X145755300Y-123020000D01*
X153664700Y-123020000D02*
X153664700Y-122738700D01*
X153664700Y-122738700D02*
X152820700Y-121894700D01*
X152820700Y-121894700D02*
X146599200Y-121894700D01*
X146599200Y-121894700D02*
X145755300Y-122738600D01*
X145755300Y-122738600D02*
X145755300Y-123020000D01*
G04 #@! TO.N,Net-(U3-Pad8)*
X159870000Y-115400000D02*
X159870000Y-114274700D01*
X159870000Y-114274700D02*
X160139500Y-114005200D01*
X160139500Y-114005200D02*
X160139500Y-112577700D01*
G04 #@! TO.N,/~RD*
X151124700Y-123020000D02*
X151124700Y-124714500D01*
X151124700Y-124714500D02*
X148222100Y-127617100D01*
X152250000Y-123020000D02*
X151124700Y-123020000D01*
G04 #@! TO.N,Net-(J3-Pad4)*
X185606700Y-120934700D02*
X185606700Y-120912200D01*
X185606700Y-120912200D02*
X181149800Y-116455300D01*
X181149800Y-116455300D02*
X179849200Y-116455300D01*
X179849200Y-116455300D02*
X179005300Y-115611400D01*
X179005300Y-115611400D02*
X179005300Y-115330000D01*
X177880000Y-115330000D02*
X179005300Y-115330000D01*
G04 #@! TO.N,/~RFSH*
X193420000Y-145364700D02*
X192244700Y-144189400D01*
X192244700Y-144189400D02*
X192244700Y-138166000D01*
X192244700Y-138166000D02*
X187526700Y-133448000D01*
X187526700Y-133448000D02*
X187526700Y-121022000D01*
X187526700Y-121022000D02*
X182960000Y-116455300D01*
X193420000Y-146540000D02*
X193420000Y-145364700D01*
X182960000Y-115330000D02*
X182960000Y-116455300D01*
G04 #@! TO.N,/~RESET*
X180720000Y-141460000D02*
X180720000Y-140284700D01*
X180720000Y-140284700D02*
X173925400Y-133490100D01*
X173925400Y-133490100D02*
X173925400Y-110732300D01*
G04 #@! TO.N,Net-(U5-Pad2)*
X172680000Y-108970000D02*
X173805300Y-108970000D01*
X182840000Y-108970000D02*
X181714700Y-108970000D01*
X181714700Y-108970000D02*
X181714700Y-108753300D01*
X181714700Y-108753300D02*
X180806100Y-107844700D01*
X180806100Y-107844700D02*
X174649200Y-107844700D01*
X174649200Y-107844700D02*
X173805300Y-108688600D01*
X173805300Y-108688600D02*
X173805300Y-108970000D01*
G04 #@! TO.N,/CLK*
X147700000Y-145364700D02*
X146524700Y-144189400D01*
X146524700Y-144189400D02*
X146524700Y-139837100D01*
X146524700Y-139837100D02*
X136430100Y-129742500D01*
X136430100Y-129742500D02*
X136430100Y-116541200D01*
X136430100Y-116541200D02*
X129794600Y-109905700D01*
X129794600Y-109905700D02*
X129794600Y-94081800D01*
X129794600Y-94081800D02*
X130471800Y-93404600D01*
X130471800Y-93404600D02*
X132444400Y-93404600D01*
X132444400Y-93404600D02*
X139577400Y-86271600D01*
X139577400Y-86271600D02*
X149123600Y-86271600D01*
X149123600Y-86271600D02*
X149944700Y-87092700D01*
X149944700Y-87092700D02*
X149944700Y-87460000D01*
X147700000Y-146540000D02*
X147700000Y-145364700D01*
X151120000Y-87460000D02*
X149944700Y-87460000D01*
G04 #@! TO.N,/D0*
X157860000Y-146540000D02*
X156684700Y-146540000D01*
X153660000Y-90000000D02*
X152390000Y-88730000D01*
X152390000Y-88730000D02*
X152390000Y-87061400D01*
X152390000Y-87061400D02*
X151070600Y-85742000D01*
X151070600Y-85742000D02*
X127911300Y-85742000D01*
X127911300Y-85742000D02*
X127204000Y-86449300D01*
X127204000Y-86449300D02*
X127204000Y-129377100D01*
X127204000Y-129377100D02*
X138810000Y-140983100D01*
X138810000Y-140983100D02*
X138810000Y-141949500D01*
X138810000Y-141949500D02*
X141821000Y-144960500D01*
X141821000Y-144960500D02*
X145244700Y-144960500D01*
X145244700Y-144960500D02*
X146430000Y-146145800D01*
X146430000Y-146145800D02*
X146430000Y-147028800D01*
X146430000Y-147028800D02*
X147147700Y-147746500D01*
X147147700Y-147746500D02*
X155843500Y-147746500D01*
X155843500Y-147746500D02*
X156684700Y-146905300D01*
X156684700Y-146905300D02*
X156684700Y-146540000D01*
G04 #@! TO.N,/D1*
X153660000Y-87460000D02*
X153660000Y-88635300D01*
X153660000Y-88635300D02*
X154027300Y-88635300D01*
X154027300Y-88635300D02*
X154850600Y-89458600D01*
X154850600Y-89458600D02*
X154850600Y-90490700D01*
X154850600Y-90490700D02*
X147356300Y-97985000D01*
X147356300Y-97985000D02*
X140636700Y-97985000D01*
G04 #@! TO.N,/D2*
X155320000Y-146540000D02*
X155320000Y-145364700D01*
X156200000Y-91175300D02*
X160879800Y-95855100D01*
X160879800Y-95855100D02*
X160879800Y-101910200D01*
X160879800Y-101910200D02*
X156060000Y-106730000D01*
X156060000Y-106730000D02*
X156060000Y-115789400D01*
X156060000Y-115789400D02*
X153023900Y-118825500D01*
X153023900Y-118825500D02*
X145403000Y-118825500D01*
X145403000Y-118825500D02*
X142527200Y-121701300D01*
X142527200Y-121701300D02*
X142527200Y-128611500D01*
X142527200Y-128611500D02*
X154144700Y-140229000D01*
X154144700Y-140229000D02*
X154144700Y-144189400D01*
X154144700Y-144189400D02*
X155320000Y-145364700D01*
X156200000Y-90000000D02*
X156200000Y-91175300D01*
G04 #@! TO.N,/D3*
X156200000Y-88635300D02*
X156567400Y-88635300D01*
X156567400Y-88635300D02*
X157375300Y-89443200D01*
X157375300Y-89443200D02*
X157375300Y-91494500D01*
X157375300Y-91494500D02*
X163439300Y-97558500D01*
X163439300Y-97558500D02*
X163439300Y-103675500D01*
X163439300Y-103675500D02*
X158480000Y-108634800D01*
X158480000Y-108634800D02*
X158480000Y-115912700D01*
X158480000Y-115912700D02*
X155116900Y-119275800D01*
X155116900Y-119275800D02*
X145593700Y-119275800D01*
X145593700Y-119275800D02*
X143016900Y-121852600D01*
X143016900Y-121852600D02*
X143016900Y-127981600D01*
X143016900Y-127981600D02*
X155320000Y-140284700D01*
X156200000Y-87460000D02*
X156200000Y-88635300D01*
X155320000Y-141460000D02*
X155320000Y-140284700D01*
G04 #@! TO.N,/A0*
X173980000Y-90000000D02*
X173980000Y-102414200D01*
X173980000Y-102414200D02*
X168546600Y-107847600D01*
X168546600Y-107847600D02*
X168546600Y-138337700D01*
X168546600Y-138337700D02*
X166750000Y-140134300D01*
X166750000Y-140134300D02*
X166750000Y-142279300D01*
X166750000Y-142279300D02*
X165480000Y-143549300D01*
X165480000Y-143549300D02*
X165480000Y-146540000D01*
G04 #@! TO.N,/A1*
X165480000Y-140284700D02*
X158723900Y-133528600D01*
X158723900Y-133528600D02*
X158723900Y-121894600D01*
X158723900Y-121894600D02*
X165207800Y-115410700D01*
X165207800Y-115410700D02*
X165207800Y-109417600D01*
X165207800Y-109417600D02*
X168938800Y-105686600D01*
X168938800Y-105686600D02*
X168938800Y-96853400D01*
X168938800Y-96853400D02*
X172804700Y-92987500D01*
X172804700Y-92987500D02*
X172804700Y-89443200D01*
X172804700Y-89443200D02*
X173612600Y-88635300D01*
X173612600Y-88635300D02*
X173980000Y-88635300D01*
X173980000Y-87460000D02*
X173980000Y-88635300D01*
X165480000Y-141460000D02*
X165480000Y-140284700D01*
G04 #@! TO.N,/A2*
X162940000Y-146540000D02*
X165506500Y-149106500D01*
X165506500Y-149106500D02*
X198954300Y-149106500D01*
X198954300Y-149106500D02*
X213698200Y-134362600D01*
X213698200Y-134362600D02*
X213698200Y-100929600D01*
X213698200Y-100929600D02*
X197666700Y-84898100D01*
X197666700Y-84898100D02*
X182491200Y-84898100D01*
X182491200Y-84898100D02*
X180330000Y-87059300D01*
X180330000Y-87059300D02*
X180330000Y-87891000D01*
X180330000Y-87891000D02*
X179396300Y-88824700D01*
X179396300Y-88824700D02*
X178503200Y-88824700D01*
X178503200Y-88824700D02*
X177695300Y-89632600D01*
X177695300Y-89632600D02*
X177695300Y-90000000D01*
X176520000Y-90000000D02*
X177695300Y-90000000D01*
G04 #@! TO.N,/A3*
X176520000Y-87460000D02*
X175344700Y-87460000D01*
X175344700Y-87460000D02*
X175344700Y-87092700D01*
X175344700Y-87092700D02*
X174524100Y-86272100D01*
X174524100Y-86272100D02*
X170961700Y-86272100D01*
X170961700Y-86272100D02*
X170170000Y-87063800D01*
X170170000Y-87063800D02*
X170170000Y-91175400D01*
X170170000Y-91175400D02*
X168434000Y-92911400D01*
X168434000Y-92911400D02*
X168434000Y-104595400D01*
X168434000Y-104595400D02*
X162614000Y-110415400D01*
X162614000Y-110415400D02*
X162614000Y-115046800D01*
X162614000Y-115046800D02*
X156200000Y-121460800D01*
X156200000Y-121460800D02*
X156200000Y-132375300D01*
X156200000Y-132375300D02*
X162940000Y-139115300D01*
X162940000Y-139115300D02*
X162940000Y-141460000D01*
G04 #@! TO.N,/A5*
X177884700Y-87460000D02*
X177884700Y-87092700D01*
X177884700Y-87092700D02*
X176582000Y-85790000D01*
X176582000Y-85790000D02*
X168834600Y-85790000D01*
X168834600Y-85790000D02*
X167630000Y-86994600D01*
X167630000Y-86994600D02*
X167630000Y-93238600D01*
X167630000Y-93238600D02*
X163901400Y-96967200D01*
X163901400Y-96967200D02*
X163901400Y-105213000D01*
X163901400Y-105213000D02*
X161111100Y-108003300D01*
X161111100Y-108003300D02*
X161111100Y-115756000D01*
X161111100Y-115756000D02*
X156531600Y-120335500D01*
X156531600Y-120335500D02*
X145183300Y-120335500D01*
X145183300Y-120335500D02*
X143467400Y-122051400D01*
X143467400Y-122051400D02*
X143467400Y-125329600D01*
X143467400Y-125329600D02*
X159224700Y-141086900D01*
X159224700Y-141086900D02*
X159224700Y-141460000D01*
X160400000Y-141460000D02*
X159224700Y-141460000D01*
X179060000Y-87460000D02*
X177884700Y-87460000D01*
G04 #@! TO.N,/A6*
X174275300Y-146540000D02*
X174275300Y-146907300D01*
X174275300Y-146907300D02*
X176024200Y-148656200D01*
X176024200Y-148656200D02*
X198688100Y-148656200D01*
X198688100Y-148656200D02*
X213247900Y-134096400D01*
X213247900Y-134096400D02*
X213247900Y-101133000D01*
X213247900Y-101133000D02*
X197463300Y-85348400D01*
X197463300Y-85348400D02*
X184570300Y-85348400D01*
X184570300Y-85348400D02*
X182775300Y-87143400D01*
X182775300Y-87143400D02*
X182775300Y-88016800D01*
X182775300Y-88016800D02*
X181967400Y-88824700D01*
X181967400Y-88824700D02*
X181600000Y-88824700D01*
X173100000Y-146540000D02*
X174275300Y-146540000D01*
X181600000Y-90000000D02*
X181600000Y-88824700D01*
G04 #@! TO.N,/A7*
X195048800Y-136513900D02*
X201932700Y-129630000D01*
X201932700Y-129630000D02*
X201932700Y-111621300D01*
X201932700Y-111621300D02*
X199770000Y-109458600D01*
X199770000Y-109458600D02*
X199770000Y-91759300D01*
X199770000Y-91759300D02*
X195030000Y-87019300D01*
G04 #@! TO.N,/A8*
X184140000Y-90000000D02*
X184140000Y-91175300D01*
X184140000Y-91175300D02*
X176490000Y-98825300D01*
X176490000Y-98825300D02*
X176490000Y-101674600D01*
X176490000Y-101674600D02*
X170448600Y-107716000D01*
X170448600Y-107716000D02*
X169315100Y-107716000D01*
X169315100Y-107716000D02*
X169014600Y-108016500D01*
X169014600Y-108016500D02*
X169014600Y-132228700D01*
X169014600Y-132228700D02*
X169221100Y-132435200D01*
X169221100Y-132435200D02*
X169221100Y-142504000D01*
X169221100Y-142504000D02*
X166844300Y-144880800D01*
X166844300Y-144880800D02*
X166844300Y-147063100D01*
X166844300Y-147063100D02*
X167504700Y-147723500D01*
X167504700Y-147723500D02*
X169376500Y-147723500D01*
X169376500Y-147723500D02*
X170560000Y-146540000D01*
G04 #@! TO.N,/A9*
X178180000Y-141460000D02*
X178180000Y-140284700D01*
X184140000Y-87460000D02*
X184140000Y-88635300D01*
X184140000Y-88635300D02*
X184507300Y-88635300D01*
X184507300Y-88635300D02*
X185334000Y-89462000D01*
X185334000Y-89462000D02*
X185334000Y-93161500D01*
X185334000Y-93161500D02*
X179030000Y-99465500D01*
X179030000Y-99465500D02*
X179030000Y-101711700D01*
X179030000Y-101711700D02*
X173091700Y-107650000D01*
X173091700Y-107650000D02*
X172368900Y-107650000D01*
X172368900Y-107650000D02*
X171543600Y-108475300D01*
X171543600Y-108475300D02*
X171543600Y-133648300D01*
X171543600Y-133648300D02*
X178180000Y-140284700D01*
G04 #@! TO.N,/A10*
X176815300Y-146540000D02*
X176815300Y-146907400D01*
X176815300Y-146907400D02*
X178113800Y-148205900D01*
X178113800Y-148205900D02*
X198501500Y-148205900D01*
X198501500Y-148205900D02*
X212797600Y-133909800D01*
X212797600Y-133909800D02*
X212797600Y-101334100D01*
X212797600Y-101334100D02*
X197262200Y-85798700D01*
X197262200Y-85798700D02*
X189137200Y-85798700D01*
X189137200Y-85798700D02*
X187855300Y-87080600D01*
X187855300Y-87080600D02*
X187855300Y-88016800D01*
X187855300Y-88016800D02*
X187047400Y-88824700D01*
X187047400Y-88824700D02*
X186680000Y-88824700D01*
X186680000Y-90000000D02*
X186680000Y-88824700D01*
X175640000Y-146540000D02*
X176815300Y-146540000D01*
G04 #@! TO.N,/A12*
X193294000Y-90068600D02*
X194690000Y-91464600D01*
X194690000Y-91464600D02*
X194690000Y-105899800D01*
X194690000Y-105899800D02*
X197303900Y-108513700D01*
X197303900Y-108513700D02*
X197303900Y-110732200D01*
X197303900Y-110732200D02*
X201022600Y-114450900D01*
X201022600Y-114450900D02*
X201022600Y-123450800D01*
X201022600Y-123450800D02*
X190308300Y-134165100D01*
G04 #@! TO.N,/A13*
X168020000Y-146540000D02*
X169195300Y-146540000D01*
X189220000Y-87460000D02*
X189220000Y-88635300D01*
X189220000Y-88635300D02*
X188852600Y-88635300D01*
X188852600Y-88635300D02*
X188044700Y-89443200D01*
X188044700Y-89443200D02*
X188044700Y-94345100D01*
X188044700Y-94345100D02*
X181678500Y-100711300D01*
X181678500Y-100711300D02*
X181678500Y-102873800D01*
X181678500Y-102873800D02*
X184001500Y-105196800D01*
X184001500Y-105196800D02*
X184001500Y-110883700D01*
X184001500Y-110883700D02*
X181775700Y-113109500D01*
X181775700Y-113109500D02*
X181775700Y-116055000D01*
X181775700Y-116055000D02*
X186676900Y-120956200D01*
X186676900Y-120956200D02*
X186676900Y-134118400D01*
X186676900Y-134118400D02*
X181990000Y-138805300D01*
X181990000Y-138805300D02*
X181990000Y-141888900D01*
X181990000Y-141888900D02*
X181243500Y-142635400D01*
X181243500Y-142635400D02*
X172732600Y-142635400D01*
X172732600Y-142635400D02*
X169195300Y-146172700D01*
X169195300Y-146172700D02*
X169195300Y-146540000D01*
G04 #@! TO.N,/~M1*
X130970000Y-123790000D02*
X130970000Y-124965300D01*
X130970000Y-124965300D02*
X131337400Y-124965300D01*
X131337400Y-124965300D02*
X132145300Y-125773200D01*
X132145300Y-125773200D02*
X132145300Y-129085100D01*
X132145300Y-129085100D02*
X143976000Y-140915800D01*
X143976000Y-140915800D02*
X143976000Y-142635400D01*
X143976000Y-142635400D02*
X145138500Y-143797900D01*
G04 #@! TO.N,/~INT*
X128430000Y-119885300D02*
X128797400Y-119885300D01*
X128797400Y-119885300D02*
X129605300Y-120693200D01*
X129605300Y-120693200D02*
X129605300Y-121626000D01*
X129605300Y-121626000D02*
X130499300Y-122520000D01*
X130499300Y-122520000D02*
X132229400Y-122520000D01*
X132229400Y-122520000D02*
X134078900Y-124369500D01*
X198644700Y-117890000D02*
X198644700Y-117529600D01*
X198644700Y-117529600D02*
X192296000Y-111180900D01*
X128430000Y-118710000D02*
X128430000Y-119885300D01*
X199820000Y-117890000D02*
X198644700Y-117890000D01*
G04 #@! TO.N,/INT-J*
X208720000Y-128000000D02*
X208720000Y-126824700D01*
X185380000Y-101350000D02*
X185380000Y-100224700D01*
X185380000Y-100224700D02*
X190490000Y-95114700D01*
X190490000Y-95114700D02*
X190490000Y-87056700D01*
X190490000Y-87056700D02*
X191297600Y-86249100D01*
X191297600Y-86249100D02*
X195300900Y-86249100D01*
X195300900Y-86249100D02*
X210054400Y-101002600D01*
X210054400Y-101002600D02*
X210054400Y-104338900D01*
X210054400Y-104338900D02*
X212347300Y-106631800D01*
X212347300Y-106631800D02*
X212347300Y-123564700D01*
X212347300Y-123564700D02*
X209087300Y-126824700D01*
X209087300Y-126824700D02*
X208720000Y-126824700D01*
G04 #@! TO.N,Net-(JP1-Pad3)*
X199820000Y-122970000D02*
X199820000Y-121794700D01*
X182840000Y-101350000D02*
X183965300Y-101350000D01*
X183965300Y-101350000D02*
X183965300Y-101631300D01*
X183965300Y-101631300D02*
X184812800Y-102478800D01*
X184812800Y-102478800D02*
X187071300Y-102478800D01*
X187071300Y-102478800D02*
X187212000Y-102338100D01*
X187212000Y-102338100D02*
X190942400Y-102338100D01*
X190942400Y-102338100D02*
X191545900Y-102941600D01*
X191545900Y-102941600D02*
X191545900Y-113887900D01*
X191545900Y-113887900D02*
X199452700Y-121794700D01*
X199452700Y-121794700D02*
X199820000Y-121794700D01*
G04 #@! TD*
D18*
G04 #@! TO.N,GND*
G36*
X216290001Y-152290000D02*
X117710000Y-152290000D01*
X117710000Y-148055431D01*
X120265000Y-148055431D01*
X120265000Y-148944569D01*
X120605259Y-149766026D01*
X121233974Y-150394741D01*
X122055431Y-150735000D01*
X122944569Y-150735000D01*
X123766026Y-150394741D01*
X124394741Y-149766026D01*
X124735000Y-148944569D01*
X124735000Y-148055431D01*
X124394741Y-147233974D01*
X123766026Y-146605259D01*
X122944569Y-146265000D01*
X122055431Y-146265000D01*
X121233974Y-146605259D01*
X120605259Y-147233974D01*
X120265000Y-148055431D01*
X117710000Y-148055431D01*
X117710000Y-86449300D01*
X126429112Y-86449300D01*
X126444000Y-86524147D01*
X126444001Y-129302248D01*
X126429112Y-129377100D01*
X126488097Y-129673637D01*
X126612614Y-129859989D01*
X126656072Y-129925029D01*
X126719528Y-129967429D01*
X136872268Y-140120170D01*
X136469375Y-140389375D01*
X136141161Y-140880582D01*
X136025908Y-141460000D01*
X136141161Y-142039418D01*
X136469375Y-142530625D01*
X136960582Y-142858839D01*
X137393744Y-142945000D01*
X137686256Y-142945000D01*
X138119418Y-142858839D01*
X138434204Y-142648505D01*
X141230670Y-145444972D01*
X141273071Y-145508429D01*
X141446051Y-145624011D01*
X141350000Y-145767761D01*
X141150625Y-145469375D01*
X140659418Y-145141161D01*
X140226256Y-145055000D01*
X139933744Y-145055000D01*
X139500582Y-145141161D01*
X139009375Y-145469375D01*
X138810000Y-145767761D01*
X138610625Y-145469375D01*
X138119418Y-145141161D01*
X137686256Y-145055000D01*
X137393744Y-145055000D01*
X136960582Y-145141161D01*
X136469375Y-145469375D01*
X136141161Y-145960582D01*
X136025908Y-146540000D01*
X136141161Y-147119418D01*
X136469375Y-147610625D01*
X136960582Y-147938839D01*
X137393744Y-148025000D01*
X137686256Y-148025000D01*
X138119418Y-147938839D01*
X138610625Y-147610625D01*
X138810000Y-147312239D01*
X139009375Y-147610625D01*
X139500582Y-147938839D01*
X139933744Y-148025000D01*
X140226256Y-148025000D01*
X140659418Y-147938839D01*
X141150625Y-147610625D01*
X141350000Y-147312239D01*
X141549375Y-147610625D01*
X142040582Y-147938839D01*
X142473744Y-148025000D01*
X142766256Y-148025000D01*
X143199418Y-147938839D01*
X143690625Y-147610625D01*
X143890000Y-147312239D01*
X144089375Y-147610625D01*
X144580582Y-147938839D01*
X145013744Y-148025000D01*
X145306256Y-148025000D01*
X145739418Y-147938839D01*
X146054624Y-147728225D01*
X146557371Y-148230973D01*
X146599771Y-148294429D01*
X146851163Y-148462404D01*
X147072848Y-148506500D01*
X147072852Y-148506500D01*
X147147699Y-148521388D01*
X147222546Y-148506500D01*
X155768653Y-148506500D01*
X155843500Y-148521388D01*
X155918347Y-148506500D01*
X155918352Y-148506500D01*
X156140037Y-148462404D01*
X156391429Y-148294429D01*
X156433831Y-148230971D01*
X156948112Y-147716690D01*
X157280582Y-147938839D01*
X157713744Y-148025000D01*
X158006256Y-148025000D01*
X158439418Y-147938839D01*
X158930625Y-147610625D01*
X159130000Y-147312239D01*
X159329375Y-147610625D01*
X159820582Y-147938839D01*
X160253744Y-148025000D01*
X160546256Y-148025000D01*
X160979418Y-147938839D01*
X161470625Y-147610625D01*
X161670000Y-147312239D01*
X161869375Y-147610625D01*
X162360582Y-147938839D01*
X162793744Y-148025000D01*
X163086256Y-148025000D01*
X163306408Y-147981209D01*
X164916171Y-149590973D01*
X164958571Y-149654429D01*
X165209963Y-149822404D01*
X165431648Y-149866500D01*
X165431652Y-149866500D01*
X165506499Y-149881388D01*
X165581346Y-149866500D01*
X198879453Y-149866500D01*
X198954300Y-149881388D01*
X199029147Y-149866500D01*
X199029152Y-149866500D01*
X199250837Y-149822404D01*
X199502229Y-149654429D01*
X199544631Y-149590970D01*
X201080170Y-148055431D01*
X209265000Y-148055431D01*
X209265000Y-148944569D01*
X209605259Y-149766026D01*
X210233974Y-150394741D01*
X211055431Y-150735000D01*
X211944569Y-150735000D01*
X212766026Y-150394741D01*
X213394741Y-149766026D01*
X213735000Y-148944569D01*
X213735000Y-148055431D01*
X213394741Y-147233974D01*
X212766026Y-146605259D01*
X211944569Y-146265000D01*
X211055431Y-146265000D01*
X210233974Y-146605259D01*
X209605259Y-147233974D01*
X209265000Y-148055431D01*
X201080170Y-148055431D01*
X214182676Y-134952927D01*
X214246129Y-134910529D01*
X214288527Y-134847076D01*
X214288529Y-134847074D01*
X214378094Y-134713029D01*
X214414104Y-134659137D01*
X214458200Y-134437452D01*
X214458200Y-134437448D01*
X214473088Y-134362601D01*
X214458200Y-134287754D01*
X214458200Y-101004448D01*
X214473088Y-100929600D01*
X214458200Y-100854752D01*
X214458200Y-100854748D01*
X214414778Y-100636449D01*
X214414104Y-100633062D01*
X214288529Y-100445127D01*
X214246129Y-100381671D01*
X214182673Y-100339271D01*
X198257031Y-84413630D01*
X198214629Y-84350171D01*
X197963237Y-84182196D01*
X197741552Y-84138100D01*
X197741547Y-84138100D01*
X197666700Y-84123212D01*
X197591853Y-84138100D01*
X182566046Y-84138100D01*
X182491199Y-84123212D01*
X182416352Y-84138100D01*
X182416348Y-84138100D01*
X182194663Y-84182196D01*
X182194661Y-84182197D01*
X182194662Y-84182197D01*
X182006726Y-84307771D01*
X182006724Y-84307773D01*
X181943271Y-84350171D01*
X181900873Y-84413624D01*
X180007436Y-86307063D01*
X179639418Y-86061161D01*
X179206256Y-85975000D01*
X178913744Y-85975000D01*
X178480582Y-86061161D01*
X178149311Y-86282509D01*
X177172331Y-85305530D01*
X177129929Y-85242071D01*
X176878537Y-85074096D01*
X176656852Y-85030000D01*
X176656847Y-85030000D01*
X176582000Y-85015112D01*
X176507153Y-85030000D01*
X168909448Y-85030000D01*
X168834600Y-85015112D01*
X168759752Y-85030000D01*
X168759748Y-85030000D01*
X168586205Y-85064520D01*
X168538062Y-85074096D01*
X168421964Y-85151671D01*
X168286671Y-85242071D01*
X168244271Y-85305527D01*
X167268651Y-86281148D01*
X166939418Y-86061161D01*
X166506256Y-85975000D01*
X166213744Y-85975000D01*
X165780582Y-86061161D01*
X165289375Y-86389375D01*
X165090000Y-86687761D01*
X164890625Y-86389375D01*
X164399418Y-86061161D01*
X163966256Y-85975000D01*
X163673744Y-85975000D01*
X163240582Y-86061161D01*
X162749375Y-86389375D01*
X162550000Y-86687761D01*
X162350625Y-86389375D01*
X161859418Y-86061161D01*
X161426256Y-85975000D01*
X161133744Y-85975000D01*
X160700582Y-86061161D01*
X160209375Y-86389375D01*
X160010000Y-86687761D01*
X159810625Y-86389375D01*
X159319418Y-86061161D01*
X158886256Y-85975000D01*
X158593744Y-85975000D01*
X158160582Y-86061161D01*
X157669375Y-86389375D01*
X157470000Y-86687761D01*
X157270625Y-86389375D01*
X156779418Y-86061161D01*
X156346256Y-85975000D01*
X156053744Y-85975000D01*
X155620582Y-86061161D01*
X155129375Y-86389375D01*
X154930000Y-86687761D01*
X154730625Y-86389375D01*
X154239418Y-86061161D01*
X153806256Y-85975000D01*
X153513744Y-85975000D01*
X153080582Y-86061161D01*
X152711306Y-86307903D01*
X151660931Y-85257530D01*
X151618529Y-85194071D01*
X151367137Y-85026096D01*
X151145452Y-84982000D01*
X151145447Y-84982000D01*
X151070600Y-84967112D01*
X150995753Y-84982000D01*
X127986146Y-84982000D01*
X127911299Y-84967112D01*
X127836452Y-84982000D01*
X127836448Y-84982000D01*
X127614763Y-85026096D01*
X127363371Y-85194071D01*
X127320971Y-85257527D01*
X126719530Y-85858969D01*
X126656071Y-85901371D01*
X126488096Y-86152764D01*
X126444000Y-86374449D01*
X126444000Y-86374453D01*
X126429112Y-86449300D01*
X117710000Y-86449300D01*
X117710000Y-82055431D01*
X120265000Y-82055431D01*
X120265000Y-82944569D01*
X120605259Y-83766026D01*
X121233974Y-84394741D01*
X122055431Y-84735000D01*
X122944569Y-84735000D01*
X123766026Y-84394741D01*
X124394741Y-83766026D01*
X124735000Y-82944569D01*
X124735000Y-82055431D01*
X209265000Y-82055431D01*
X209265000Y-82944569D01*
X209605259Y-83766026D01*
X210233974Y-84394741D01*
X211055431Y-84735000D01*
X211944569Y-84735000D01*
X212766026Y-84394741D01*
X213394741Y-83766026D01*
X213735000Y-82944569D01*
X213735000Y-82055431D01*
X213394741Y-81233974D01*
X212766026Y-80605259D01*
X211944569Y-80265000D01*
X211055431Y-80265000D01*
X210233974Y-80605259D01*
X209605259Y-81233974D01*
X209265000Y-82055431D01*
X124735000Y-82055431D01*
X124394741Y-81233974D01*
X123766026Y-80605259D01*
X122944569Y-80265000D01*
X122055431Y-80265000D01*
X121233974Y-80605259D01*
X120605259Y-81233974D01*
X120265000Y-82055431D01*
X117710000Y-82055431D01*
X117710000Y-78710000D01*
X216290000Y-78710000D01*
X216290001Y-152290000D01*
X216290001Y-152290000D01*
G37*
X216290001Y-152290000D02*
X117710000Y-152290000D01*
X117710000Y-148055431D01*
X120265000Y-148055431D01*
X120265000Y-148944569D01*
X120605259Y-149766026D01*
X121233974Y-150394741D01*
X122055431Y-150735000D01*
X122944569Y-150735000D01*
X123766026Y-150394741D01*
X124394741Y-149766026D01*
X124735000Y-148944569D01*
X124735000Y-148055431D01*
X124394741Y-147233974D01*
X123766026Y-146605259D01*
X122944569Y-146265000D01*
X122055431Y-146265000D01*
X121233974Y-146605259D01*
X120605259Y-147233974D01*
X120265000Y-148055431D01*
X117710000Y-148055431D01*
X117710000Y-86449300D01*
X126429112Y-86449300D01*
X126444000Y-86524147D01*
X126444001Y-129302248D01*
X126429112Y-129377100D01*
X126488097Y-129673637D01*
X126612614Y-129859989D01*
X126656072Y-129925029D01*
X126719528Y-129967429D01*
X136872268Y-140120170D01*
X136469375Y-140389375D01*
X136141161Y-140880582D01*
X136025908Y-141460000D01*
X136141161Y-142039418D01*
X136469375Y-142530625D01*
X136960582Y-142858839D01*
X137393744Y-142945000D01*
X137686256Y-142945000D01*
X138119418Y-142858839D01*
X138434204Y-142648505D01*
X141230670Y-145444972D01*
X141273071Y-145508429D01*
X141446051Y-145624011D01*
X141350000Y-145767761D01*
X141150625Y-145469375D01*
X140659418Y-145141161D01*
X140226256Y-145055000D01*
X139933744Y-145055000D01*
X139500582Y-145141161D01*
X139009375Y-145469375D01*
X138810000Y-145767761D01*
X138610625Y-145469375D01*
X138119418Y-145141161D01*
X137686256Y-145055000D01*
X137393744Y-145055000D01*
X136960582Y-145141161D01*
X136469375Y-145469375D01*
X136141161Y-145960582D01*
X136025908Y-146540000D01*
X136141161Y-147119418D01*
X136469375Y-147610625D01*
X136960582Y-147938839D01*
X137393744Y-148025000D01*
X137686256Y-148025000D01*
X138119418Y-147938839D01*
X138610625Y-147610625D01*
X138810000Y-147312239D01*
X139009375Y-147610625D01*
X139500582Y-147938839D01*
X139933744Y-148025000D01*
X140226256Y-148025000D01*
X140659418Y-147938839D01*
X141150625Y-147610625D01*
X141350000Y-147312239D01*
X141549375Y-147610625D01*
X142040582Y-147938839D01*
X142473744Y-148025000D01*
X142766256Y-148025000D01*
X143199418Y-147938839D01*
X143690625Y-147610625D01*
X143890000Y-147312239D01*
X144089375Y-147610625D01*
X144580582Y-147938839D01*
X145013744Y-148025000D01*
X145306256Y-148025000D01*
X145739418Y-147938839D01*
X146054624Y-147728225D01*
X146557371Y-148230973D01*
X146599771Y-148294429D01*
X146851163Y-148462404D01*
X147072848Y-148506500D01*
X147072852Y-148506500D01*
X147147699Y-148521388D01*
X147222546Y-148506500D01*
X155768653Y-148506500D01*
X155843500Y-148521388D01*
X155918347Y-148506500D01*
X155918352Y-148506500D01*
X156140037Y-148462404D01*
X156391429Y-148294429D01*
X156433831Y-148230971D01*
X156948112Y-147716690D01*
X157280582Y-147938839D01*
X157713744Y-148025000D01*
X158006256Y-148025000D01*
X158439418Y-147938839D01*
X158930625Y-147610625D01*
X159130000Y-147312239D01*
X159329375Y-147610625D01*
X159820582Y-147938839D01*
X160253744Y-148025000D01*
X160546256Y-148025000D01*
X160979418Y-147938839D01*
X161470625Y-147610625D01*
X161670000Y-147312239D01*
X161869375Y-147610625D01*
X162360582Y-147938839D01*
X162793744Y-148025000D01*
X163086256Y-148025000D01*
X163306408Y-147981209D01*
X164916171Y-149590973D01*
X164958571Y-149654429D01*
X165209963Y-149822404D01*
X165431648Y-149866500D01*
X165431652Y-149866500D01*
X165506499Y-149881388D01*
X165581346Y-149866500D01*
X198879453Y-149866500D01*
X198954300Y-149881388D01*
X199029147Y-149866500D01*
X199029152Y-149866500D01*
X199250837Y-149822404D01*
X199502229Y-149654429D01*
X199544631Y-149590970D01*
X201080170Y-148055431D01*
X209265000Y-148055431D01*
X209265000Y-148944569D01*
X209605259Y-149766026D01*
X210233974Y-150394741D01*
X211055431Y-150735000D01*
X211944569Y-150735000D01*
X212766026Y-150394741D01*
X213394741Y-149766026D01*
X213735000Y-148944569D01*
X213735000Y-148055431D01*
X213394741Y-147233974D01*
X212766026Y-146605259D01*
X211944569Y-146265000D01*
X211055431Y-146265000D01*
X210233974Y-146605259D01*
X209605259Y-147233974D01*
X209265000Y-148055431D01*
X201080170Y-148055431D01*
X214182676Y-134952927D01*
X214246129Y-134910529D01*
X214288527Y-134847076D01*
X214288529Y-134847074D01*
X214378094Y-134713029D01*
X214414104Y-134659137D01*
X214458200Y-134437452D01*
X214458200Y-134437448D01*
X214473088Y-134362601D01*
X214458200Y-134287754D01*
X214458200Y-101004448D01*
X214473088Y-100929600D01*
X214458200Y-100854752D01*
X214458200Y-100854748D01*
X214414778Y-100636449D01*
X214414104Y-100633062D01*
X214288529Y-100445127D01*
X214246129Y-100381671D01*
X214182673Y-100339271D01*
X198257031Y-84413630D01*
X198214629Y-84350171D01*
X197963237Y-84182196D01*
X197741552Y-84138100D01*
X197741547Y-84138100D01*
X197666700Y-84123212D01*
X197591853Y-84138100D01*
X182566046Y-84138100D01*
X182491199Y-84123212D01*
X182416352Y-84138100D01*
X182416348Y-84138100D01*
X182194663Y-84182196D01*
X182194661Y-84182197D01*
X182194662Y-84182197D01*
X182006726Y-84307771D01*
X182006724Y-84307773D01*
X181943271Y-84350171D01*
X181900873Y-84413624D01*
X180007436Y-86307063D01*
X179639418Y-86061161D01*
X179206256Y-85975000D01*
X178913744Y-85975000D01*
X178480582Y-86061161D01*
X178149311Y-86282509D01*
X177172331Y-85305530D01*
X177129929Y-85242071D01*
X176878537Y-85074096D01*
X176656852Y-85030000D01*
X176656847Y-85030000D01*
X176582000Y-85015112D01*
X176507153Y-85030000D01*
X168909448Y-85030000D01*
X168834600Y-85015112D01*
X168759752Y-85030000D01*
X168759748Y-85030000D01*
X168586205Y-85064520D01*
X168538062Y-85074096D01*
X168421964Y-85151671D01*
X168286671Y-85242071D01*
X168244271Y-85305527D01*
X167268651Y-86281148D01*
X166939418Y-86061161D01*
X166506256Y-85975000D01*
X166213744Y-85975000D01*
X165780582Y-86061161D01*
X165289375Y-86389375D01*
X165090000Y-86687761D01*
X164890625Y-86389375D01*
X164399418Y-86061161D01*
X163966256Y-85975000D01*
X163673744Y-85975000D01*
X163240582Y-86061161D01*
X162749375Y-86389375D01*
X162550000Y-86687761D01*
X162350625Y-86389375D01*
X161859418Y-86061161D01*
X161426256Y-85975000D01*
X161133744Y-85975000D01*
X160700582Y-86061161D01*
X160209375Y-86389375D01*
X160010000Y-86687761D01*
X159810625Y-86389375D01*
X159319418Y-86061161D01*
X158886256Y-85975000D01*
X158593744Y-85975000D01*
X158160582Y-86061161D01*
X157669375Y-86389375D01*
X157470000Y-86687761D01*
X157270625Y-86389375D01*
X156779418Y-86061161D01*
X156346256Y-85975000D01*
X156053744Y-85975000D01*
X155620582Y-86061161D01*
X155129375Y-86389375D01*
X154930000Y-86687761D01*
X154730625Y-86389375D01*
X154239418Y-86061161D01*
X153806256Y-85975000D01*
X153513744Y-85975000D01*
X153080582Y-86061161D01*
X152711306Y-86307903D01*
X151660931Y-85257530D01*
X151618529Y-85194071D01*
X151367137Y-85026096D01*
X151145452Y-84982000D01*
X151145447Y-84982000D01*
X151070600Y-84967112D01*
X150995753Y-84982000D01*
X127986146Y-84982000D01*
X127911299Y-84967112D01*
X127836452Y-84982000D01*
X127836448Y-84982000D01*
X127614763Y-85026096D01*
X127363371Y-85194071D01*
X127320971Y-85257527D01*
X126719530Y-85858969D01*
X126656071Y-85901371D01*
X126488096Y-86152764D01*
X126444000Y-86374449D01*
X126444000Y-86374453D01*
X126429112Y-86449300D01*
X117710000Y-86449300D01*
X117710000Y-82055431D01*
X120265000Y-82055431D01*
X120265000Y-82944569D01*
X120605259Y-83766026D01*
X121233974Y-84394741D01*
X122055431Y-84735000D01*
X122944569Y-84735000D01*
X123766026Y-84394741D01*
X124394741Y-83766026D01*
X124735000Y-82944569D01*
X124735000Y-82055431D01*
X209265000Y-82055431D01*
X209265000Y-82944569D01*
X209605259Y-83766026D01*
X210233974Y-84394741D01*
X211055431Y-84735000D01*
X211944569Y-84735000D01*
X212766026Y-84394741D01*
X213394741Y-83766026D01*
X213735000Y-82944569D01*
X213735000Y-82055431D01*
X213394741Y-81233974D01*
X212766026Y-80605259D01*
X211944569Y-80265000D01*
X211055431Y-80265000D01*
X210233974Y-80605259D01*
X209605259Y-81233974D01*
X209265000Y-82055431D01*
X124735000Y-82055431D01*
X124394741Y-81233974D01*
X123766026Y-80605259D01*
X122944569Y-80265000D01*
X122055431Y-80265000D01*
X121233974Y-80605259D01*
X120605259Y-81233974D01*
X120265000Y-82055431D01*
X117710000Y-82055431D01*
X117710000Y-78710000D01*
X216290000Y-78710000D01*
X216290001Y-152290000D01*
G36*
X146015423Y-102454577D02*
X146290000Y-102638044D01*
X146290001Y-105059896D01*
X144025528Y-107324371D01*
X143962072Y-107366771D01*
X143919672Y-107430227D01*
X143919671Y-107430228D01*
X143811204Y-107592560D01*
X143710000Y-107592560D01*
X143462235Y-107641843D01*
X143252191Y-107782191D01*
X143111843Y-107992235D01*
X143062560Y-108240000D01*
X143062560Y-109840000D01*
X143111843Y-110087765D01*
X143252191Y-110297809D01*
X143462235Y-110438157D01*
X143710000Y-110487440D01*
X145310000Y-110487440D01*
X145557765Y-110438157D01*
X145767809Y-110297809D01*
X145908157Y-110087765D01*
X145934785Y-109953894D01*
X146015423Y-110074577D01*
X146490091Y-110391740D01*
X146908667Y-110475000D01*
X147191333Y-110475000D01*
X147609909Y-110391740D01*
X147739949Y-110304850D01*
X151566164Y-114131066D01*
X151215423Y-114365423D01*
X150959053Y-114749108D01*
X150862389Y-114544866D01*
X150447423Y-114168959D01*
X150059039Y-114008096D01*
X149837000Y-114130085D01*
X149837000Y-115273000D01*
X149857000Y-115273000D01*
X149857000Y-115527000D01*
X149837000Y-115527000D01*
X149837000Y-116669915D01*
X150059039Y-116791904D01*
X150447423Y-116631041D01*
X150862389Y-116255134D01*
X150959053Y-116050892D01*
X151215423Y-116434577D01*
X151690091Y-116751740D01*
X152108667Y-116835000D01*
X152391333Y-116835000D01*
X152401525Y-116832973D01*
X152516969Y-117111680D01*
X152808120Y-117402831D01*
X153188526Y-117560400D01*
X153214199Y-117560400D01*
X152709099Y-118065500D01*
X145477846Y-118065500D01*
X145402999Y-118050612D01*
X145328152Y-118065500D01*
X145328148Y-118065500D01*
X145106463Y-118109596D01*
X145066143Y-118136537D01*
X144918526Y-118235171D01*
X144918524Y-118235173D01*
X144855071Y-118277571D01*
X144812673Y-118341024D01*
X142042730Y-121110969D01*
X141979271Y-121153371D01*
X141811296Y-121404764D01*
X141767200Y-121626449D01*
X141767200Y-121626453D01*
X141752312Y-121701300D01*
X141767200Y-121776147D01*
X141767201Y-128445000D01*
X141355750Y-128445000D01*
X141197000Y-128603750D01*
X141197000Y-129753000D01*
X142346250Y-129753000D01*
X142470074Y-129629176D01*
X152815898Y-139975000D01*
X152633744Y-139975000D01*
X152200582Y-140061161D01*
X151709375Y-140389375D01*
X151510000Y-140687761D01*
X151310625Y-140389375D01*
X150819418Y-140061161D01*
X150386256Y-139975000D01*
X150093744Y-139975000D01*
X149660582Y-140061161D01*
X149169375Y-140389375D01*
X148956157Y-140708478D01*
X148895183Y-140578642D01*
X148466924Y-140188355D01*
X148056890Y-140018524D01*
X147827000Y-140139845D01*
X147827000Y-141333000D01*
X147847000Y-141333000D01*
X147847000Y-141587000D01*
X147827000Y-141587000D01*
X147827000Y-142780155D01*
X148056890Y-142901476D01*
X148466924Y-142731645D01*
X148895183Y-142341358D01*
X148956157Y-142211522D01*
X149169375Y-142530625D01*
X149660582Y-142858839D01*
X150093744Y-142945000D01*
X150386256Y-142945000D01*
X150819418Y-142858839D01*
X151310625Y-142530625D01*
X151510000Y-142232239D01*
X151709375Y-142530625D01*
X152200582Y-142858839D01*
X152633744Y-142945000D01*
X152926256Y-142945000D01*
X153359418Y-142858839D01*
X153384701Y-142841946D01*
X153384701Y-144114548D01*
X153369812Y-144189400D01*
X153428797Y-144485937D01*
X153547750Y-144663962D01*
X153596772Y-144737329D01*
X153660228Y-144779729D01*
X154309619Y-145429121D01*
X154249375Y-145469375D01*
X154050000Y-145767761D01*
X153850625Y-145469375D01*
X153359418Y-145141161D01*
X152926256Y-145055000D01*
X152633744Y-145055000D01*
X152200582Y-145141161D01*
X151709375Y-145469375D01*
X151510000Y-145767761D01*
X151310625Y-145469375D01*
X150819418Y-145141161D01*
X150386256Y-145055000D01*
X150093744Y-145055000D01*
X149660582Y-145141161D01*
X149169375Y-145469375D01*
X148970000Y-145767761D01*
X148770625Y-145469375D01*
X148453571Y-145257526D01*
X148415904Y-145068163D01*
X148247929Y-144816771D01*
X148184473Y-144774371D01*
X147284700Y-143874599D01*
X147284700Y-142877283D01*
X147343110Y-142901476D01*
X147573000Y-142780155D01*
X147573000Y-141587000D01*
X147553000Y-141587000D01*
X147553000Y-141333000D01*
X147573000Y-141333000D01*
X147573000Y-140139845D01*
X147343110Y-140018524D01*
X147284700Y-140042717D01*
X147284700Y-139911946D01*
X147299588Y-139837099D01*
X147284700Y-139762252D01*
X147284700Y-139762248D01*
X147240604Y-139540563D01*
X147072629Y-139289171D01*
X147009173Y-139246771D01*
X139012390Y-131249989D01*
X139382862Y-131096534D01*
X139646155Y-130833241D01*
X139731673Y-131039699D01*
X139910302Y-131218327D01*
X140143691Y-131315000D01*
X140784250Y-131315000D01*
X140943000Y-131156250D01*
X140943000Y-130007000D01*
X141197000Y-130007000D01*
X141197000Y-131156250D01*
X141355750Y-131315000D01*
X141996309Y-131315000D01*
X142229698Y-131218327D01*
X142408327Y-131039699D01*
X142505000Y-130806310D01*
X142505000Y-130165750D01*
X142346250Y-130007000D01*
X141197000Y-130007000D01*
X140943000Y-130007000D01*
X140923000Y-130007000D01*
X140923000Y-129753000D01*
X140943000Y-129753000D01*
X140943000Y-128603750D01*
X140784250Y-128445000D01*
X140143691Y-128445000D01*
X139910302Y-128541673D01*
X139731673Y-128720301D01*
X139646155Y-128926759D01*
X139505000Y-128785604D01*
X139505000Y-118527745D01*
X140801861Y-118527745D01*
X140875995Y-118773864D01*
X141413223Y-118966965D01*
X141983454Y-118939778D01*
X142384005Y-118773864D01*
X142458139Y-118527745D01*
X141630000Y-117699605D01*
X140801861Y-118527745D01*
X139505000Y-118527745D01*
X139505000Y-117303223D01*
X140183035Y-117303223D01*
X140210222Y-117873454D01*
X140376136Y-118274005D01*
X140622255Y-118348139D01*
X141450395Y-117520000D01*
X141809605Y-117520000D01*
X142637745Y-118348139D01*
X142883864Y-118274005D01*
X143076965Y-117736777D01*
X143049778Y-117166546D01*
X142883864Y-116765995D01*
X142637745Y-116691861D01*
X141809605Y-117520000D01*
X141450395Y-117520000D01*
X140622255Y-116691861D01*
X140376136Y-116765995D01*
X140183035Y-117303223D01*
X139505000Y-117303223D01*
X139505000Y-115955000D01*
X140535604Y-115955000D01*
X140817138Y-116236534D01*
X140882299Y-116263525D01*
X140875995Y-116266136D01*
X140801861Y-116512255D01*
X141630000Y-117340395D01*
X142458139Y-116512255D01*
X142384005Y-116266136D01*
X142377254Y-116263710D01*
X142442862Y-116236534D01*
X142846534Y-115832862D01*
X143025831Y-115400000D01*
X143166887Y-115400000D01*
X143278260Y-115959909D01*
X143595423Y-116434577D01*
X144070091Y-116751740D01*
X144488667Y-116835000D01*
X144771333Y-116835000D01*
X145189909Y-116751740D01*
X145664577Y-116434577D01*
X145920947Y-116050892D01*
X146017611Y-116255134D01*
X146432577Y-116631041D01*
X146820961Y-116791904D01*
X147043000Y-116669915D01*
X147043000Y-115527000D01*
X147297000Y-115527000D01*
X147297000Y-116669915D01*
X147519039Y-116791904D01*
X147907423Y-116631041D01*
X148322389Y-116255134D01*
X148440000Y-116006633D01*
X148557611Y-116255134D01*
X148972577Y-116631041D01*
X149360961Y-116791904D01*
X149583000Y-116669915D01*
X149583000Y-115527000D01*
X147297000Y-115527000D01*
X147043000Y-115527000D01*
X147023000Y-115527000D01*
X147023000Y-115273000D01*
X147043000Y-115273000D01*
X147043000Y-114130085D01*
X147297000Y-114130085D01*
X147297000Y-115273000D01*
X149583000Y-115273000D01*
X149583000Y-114130085D01*
X149360961Y-114008096D01*
X148972577Y-114168959D01*
X148557611Y-114544866D01*
X148440000Y-114793367D01*
X148322389Y-114544866D01*
X147907423Y-114168959D01*
X147519039Y-114008096D01*
X147297000Y-114130085D01*
X147043000Y-114130085D01*
X146820961Y-114008096D01*
X146432577Y-114168959D01*
X146017611Y-114544866D01*
X145920947Y-114749108D01*
X145664577Y-114365423D01*
X145189909Y-114048260D01*
X144771333Y-113965000D01*
X144488667Y-113965000D01*
X144070091Y-114048260D01*
X143595423Y-114365423D01*
X143278260Y-114840091D01*
X143166887Y-115400000D01*
X143025831Y-115400000D01*
X143065000Y-115305439D01*
X143065000Y-114734561D01*
X142846534Y-114207138D01*
X142442862Y-113803466D01*
X141915439Y-113585000D01*
X141344561Y-113585000D01*
X140817138Y-113803466D01*
X140535604Y-114085000D01*
X138957290Y-114085000D01*
X138621629Y-113749340D01*
X138611400Y-113697914D01*
X138611400Y-105883389D01*
X139947044Y-104547745D01*
X140681861Y-104547745D01*
X140755995Y-104793864D01*
X141293223Y-104986965D01*
X141863454Y-104959778D01*
X142264005Y-104793864D01*
X142338139Y-104547745D01*
X141510000Y-103719605D01*
X140681861Y-104547745D01*
X139947044Y-104547745D01*
X140239924Y-104254866D01*
X140256136Y-104294005D01*
X140502255Y-104368139D01*
X141330395Y-103540000D01*
X141689605Y-103540000D01*
X142517745Y-104368139D01*
X142763864Y-104294005D01*
X142956965Y-103756777D01*
X142929778Y-103186546D01*
X142763864Y-102785995D01*
X142517745Y-102711861D01*
X141689605Y-103540000D01*
X141330395Y-103540000D01*
X141316253Y-103525858D01*
X141495858Y-103346253D01*
X141510000Y-103360395D01*
X142338139Y-102532255D01*
X142264024Y-102286200D01*
X142823105Y-102286200D01*
X142844881Y-102300750D01*
X143117614Y-102355000D01*
X143209700Y-102373317D01*
X143301786Y-102355000D01*
X143408888Y-102355000D01*
X143475423Y-102454577D01*
X143950091Y-102771740D01*
X144368667Y-102855000D01*
X144651333Y-102855000D01*
X145069909Y-102771740D01*
X145544577Y-102454577D01*
X145780000Y-102102242D01*
X146015423Y-102454577D01*
X146015423Y-102454577D01*
G37*
X146015423Y-102454577D02*
X146290000Y-102638044D01*
X146290001Y-105059896D01*
X144025528Y-107324371D01*
X143962072Y-107366771D01*
X143919672Y-107430227D01*
X143919671Y-107430228D01*
X143811204Y-107592560D01*
X143710000Y-107592560D01*
X143462235Y-107641843D01*
X143252191Y-107782191D01*
X143111843Y-107992235D01*
X143062560Y-108240000D01*
X143062560Y-109840000D01*
X143111843Y-110087765D01*
X143252191Y-110297809D01*
X143462235Y-110438157D01*
X143710000Y-110487440D01*
X145310000Y-110487440D01*
X145557765Y-110438157D01*
X145767809Y-110297809D01*
X145908157Y-110087765D01*
X145934785Y-109953894D01*
X146015423Y-110074577D01*
X146490091Y-110391740D01*
X146908667Y-110475000D01*
X147191333Y-110475000D01*
X147609909Y-110391740D01*
X147739949Y-110304850D01*
X151566164Y-114131066D01*
X151215423Y-114365423D01*
X150959053Y-114749108D01*
X150862389Y-114544866D01*
X150447423Y-114168959D01*
X150059039Y-114008096D01*
X149837000Y-114130085D01*
X149837000Y-115273000D01*
X149857000Y-115273000D01*
X149857000Y-115527000D01*
X149837000Y-115527000D01*
X149837000Y-116669915D01*
X150059039Y-116791904D01*
X150447423Y-116631041D01*
X150862389Y-116255134D01*
X150959053Y-116050892D01*
X151215423Y-116434577D01*
X151690091Y-116751740D01*
X152108667Y-116835000D01*
X152391333Y-116835000D01*
X152401525Y-116832973D01*
X152516969Y-117111680D01*
X152808120Y-117402831D01*
X153188526Y-117560400D01*
X153214199Y-117560400D01*
X152709099Y-118065500D01*
X145477846Y-118065500D01*
X145402999Y-118050612D01*
X145328152Y-118065500D01*
X145328148Y-118065500D01*
X145106463Y-118109596D01*
X145066143Y-118136537D01*
X144918526Y-118235171D01*
X144918524Y-118235173D01*
X144855071Y-118277571D01*
X144812673Y-118341024D01*
X142042730Y-121110969D01*
X141979271Y-121153371D01*
X141811296Y-121404764D01*
X141767200Y-121626449D01*
X141767200Y-121626453D01*
X141752312Y-121701300D01*
X141767200Y-121776147D01*
X141767201Y-128445000D01*
X141355750Y-128445000D01*
X141197000Y-128603750D01*
X141197000Y-129753000D01*
X142346250Y-129753000D01*
X142470074Y-129629176D01*
X152815898Y-139975000D01*
X152633744Y-139975000D01*
X152200582Y-140061161D01*
X151709375Y-140389375D01*
X151510000Y-140687761D01*
X151310625Y-140389375D01*
X150819418Y-140061161D01*
X150386256Y-139975000D01*
X150093744Y-139975000D01*
X149660582Y-140061161D01*
X149169375Y-140389375D01*
X148956157Y-140708478D01*
X148895183Y-140578642D01*
X148466924Y-140188355D01*
X148056890Y-140018524D01*
X147827000Y-140139845D01*
X147827000Y-141333000D01*
X147847000Y-141333000D01*
X147847000Y-141587000D01*
X147827000Y-141587000D01*
X147827000Y-142780155D01*
X148056890Y-142901476D01*
X148466924Y-142731645D01*
X148895183Y-142341358D01*
X148956157Y-142211522D01*
X149169375Y-142530625D01*
X149660582Y-142858839D01*
X150093744Y-142945000D01*
X150386256Y-142945000D01*
X150819418Y-142858839D01*
X151310625Y-142530625D01*
X151510000Y-142232239D01*
X151709375Y-142530625D01*
X152200582Y-142858839D01*
X152633744Y-142945000D01*
X152926256Y-142945000D01*
X153359418Y-142858839D01*
X153384701Y-142841946D01*
X153384701Y-144114548D01*
X153369812Y-144189400D01*
X153428797Y-144485937D01*
X153547750Y-144663962D01*
X153596772Y-144737329D01*
X153660228Y-144779729D01*
X154309619Y-145429121D01*
X154249375Y-145469375D01*
X154050000Y-145767761D01*
X153850625Y-145469375D01*
X153359418Y-145141161D01*
X152926256Y-145055000D01*
X152633744Y-145055000D01*
X152200582Y-145141161D01*
X151709375Y-145469375D01*
X151510000Y-145767761D01*
X151310625Y-145469375D01*
X150819418Y-145141161D01*
X150386256Y-145055000D01*
X150093744Y-145055000D01*
X149660582Y-145141161D01*
X149169375Y-145469375D01*
X148970000Y-145767761D01*
X148770625Y-145469375D01*
X148453571Y-145257526D01*
X148415904Y-145068163D01*
X148247929Y-144816771D01*
X148184473Y-144774371D01*
X147284700Y-143874599D01*
X147284700Y-142877283D01*
X147343110Y-142901476D01*
X147573000Y-142780155D01*
X147573000Y-141587000D01*
X147553000Y-141587000D01*
X147553000Y-141333000D01*
X147573000Y-141333000D01*
X147573000Y-140139845D01*
X147343110Y-140018524D01*
X147284700Y-140042717D01*
X147284700Y-139911946D01*
X147299588Y-139837099D01*
X147284700Y-139762252D01*
X147284700Y-139762248D01*
X147240604Y-139540563D01*
X147072629Y-139289171D01*
X147009173Y-139246771D01*
X139012390Y-131249989D01*
X139382862Y-131096534D01*
X139646155Y-130833241D01*
X139731673Y-131039699D01*
X139910302Y-131218327D01*
X140143691Y-131315000D01*
X140784250Y-131315000D01*
X140943000Y-131156250D01*
X140943000Y-130007000D01*
X141197000Y-130007000D01*
X141197000Y-131156250D01*
X141355750Y-131315000D01*
X141996309Y-131315000D01*
X142229698Y-131218327D01*
X142408327Y-131039699D01*
X142505000Y-130806310D01*
X142505000Y-130165750D01*
X142346250Y-130007000D01*
X141197000Y-130007000D01*
X140943000Y-130007000D01*
X140923000Y-130007000D01*
X140923000Y-129753000D01*
X140943000Y-129753000D01*
X140943000Y-128603750D01*
X140784250Y-128445000D01*
X140143691Y-128445000D01*
X139910302Y-128541673D01*
X139731673Y-128720301D01*
X139646155Y-128926759D01*
X139505000Y-128785604D01*
X139505000Y-118527745D01*
X140801861Y-118527745D01*
X140875995Y-118773864D01*
X141413223Y-118966965D01*
X141983454Y-118939778D01*
X142384005Y-118773864D01*
X142458139Y-118527745D01*
X141630000Y-117699605D01*
X140801861Y-118527745D01*
X139505000Y-118527745D01*
X139505000Y-117303223D01*
X140183035Y-117303223D01*
X140210222Y-117873454D01*
X140376136Y-118274005D01*
X140622255Y-118348139D01*
X141450395Y-117520000D01*
X141809605Y-117520000D01*
X142637745Y-118348139D01*
X142883864Y-118274005D01*
X143076965Y-117736777D01*
X143049778Y-117166546D01*
X142883864Y-116765995D01*
X142637745Y-116691861D01*
X141809605Y-117520000D01*
X141450395Y-117520000D01*
X140622255Y-116691861D01*
X140376136Y-116765995D01*
X140183035Y-117303223D01*
X139505000Y-117303223D01*
X139505000Y-115955000D01*
X140535604Y-115955000D01*
X140817138Y-116236534D01*
X140882299Y-116263525D01*
X140875995Y-116266136D01*
X140801861Y-116512255D01*
X141630000Y-117340395D01*
X142458139Y-116512255D01*
X142384005Y-116266136D01*
X142377254Y-116263710D01*
X142442862Y-116236534D01*
X142846534Y-115832862D01*
X143025831Y-115400000D01*
X143166887Y-115400000D01*
X143278260Y-115959909D01*
X143595423Y-116434577D01*
X144070091Y-116751740D01*
X144488667Y-116835000D01*
X144771333Y-116835000D01*
X145189909Y-116751740D01*
X145664577Y-116434577D01*
X145920947Y-116050892D01*
X146017611Y-116255134D01*
X146432577Y-116631041D01*
X146820961Y-116791904D01*
X147043000Y-116669915D01*
X147043000Y-115527000D01*
X147297000Y-115527000D01*
X147297000Y-116669915D01*
X147519039Y-116791904D01*
X147907423Y-116631041D01*
X148322389Y-116255134D01*
X148440000Y-116006633D01*
X148557611Y-116255134D01*
X148972577Y-116631041D01*
X149360961Y-116791904D01*
X149583000Y-116669915D01*
X149583000Y-115527000D01*
X147297000Y-115527000D01*
X147043000Y-115527000D01*
X147023000Y-115527000D01*
X147023000Y-115273000D01*
X147043000Y-115273000D01*
X147043000Y-114130085D01*
X147297000Y-114130085D01*
X147297000Y-115273000D01*
X149583000Y-115273000D01*
X149583000Y-114130085D01*
X149360961Y-114008096D01*
X148972577Y-114168959D01*
X148557611Y-114544866D01*
X148440000Y-114793367D01*
X148322389Y-114544866D01*
X147907423Y-114168959D01*
X147519039Y-114008096D01*
X147297000Y-114130085D01*
X147043000Y-114130085D01*
X146820961Y-114008096D01*
X146432577Y-114168959D01*
X146017611Y-114544866D01*
X145920947Y-114749108D01*
X145664577Y-114365423D01*
X145189909Y-114048260D01*
X144771333Y-113965000D01*
X144488667Y-113965000D01*
X144070091Y-114048260D01*
X143595423Y-114365423D01*
X143278260Y-114840091D01*
X143166887Y-115400000D01*
X143025831Y-115400000D01*
X143065000Y-115305439D01*
X143065000Y-114734561D01*
X142846534Y-114207138D01*
X142442862Y-113803466D01*
X141915439Y-113585000D01*
X141344561Y-113585000D01*
X140817138Y-113803466D01*
X140535604Y-114085000D01*
X138957290Y-114085000D01*
X138621629Y-113749340D01*
X138611400Y-113697914D01*
X138611400Y-105883389D01*
X139947044Y-104547745D01*
X140681861Y-104547745D01*
X140755995Y-104793864D01*
X141293223Y-104986965D01*
X141863454Y-104959778D01*
X142264005Y-104793864D01*
X142338139Y-104547745D01*
X141510000Y-103719605D01*
X140681861Y-104547745D01*
X139947044Y-104547745D01*
X140239924Y-104254866D01*
X140256136Y-104294005D01*
X140502255Y-104368139D01*
X141330395Y-103540000D01*
X141689605Y-103540000D01*
X142517745Y-104368139D01*
X142763864Y-104294005D01*
X142956965Y-103756777D01*
X142929778Y-103186546D01*
X142763864Y-102785995D01*
X142517745Y-102711861D01*
X141689605Y-103540000D01*
X141330395Y-103540000D01*
X141316253Y-103525858D01*
X141495858Y-103346253D01*
X141510000Y-103360395D01*
X142338139Y-102532255D01*
X142264024Y-102286200D01*
X142823105Y-102286200D01*
X142844881Y-102300750D01*
X143117614Y-102355000D01*
X143209700Y-102373317D01*
X143301786Y-102355000D01*
X143408888Y-102355000D01*
X143475423Y-102454577D01*
X143950091Y-102771740D01*
X144368667Y-102855000D01*
X144651333Y-102855000D01*
X145069909Y-102771740D01*
X145544577Y-102454577D01*
X145780000Y-102102242D01*
X146015423Y-102454577D01*
G36*
X135670101Y-116856003D02*
X135670100Y-129667653D01*
X135655212Y-129742500D01*
X135670100Y-129817347D01*
X135670100Y-129817351D01*
X135714196Y-130039036D01*
X135882171Y-130290429D01*
X135945630Y-130332831D01*
X145712229Y-140099431D01*
X145516890Y-140018524D01*
X145287000Y-140139845D01*
X145287000Y-141333000D01*
X145307000Y-141333000D01*
X145307000Y-141587000D01*
X145287000Y-141587000D01*
X145287000Y-141607000D01*
X145033000Y-141607000D01*
X145033000Y-141587000D01*
X145013000Y-141587000D01*
X145013000Y-141333000D01*
X145033000Y-141333000D01*
X145033000Y-140139845D01*
X144803110Y-140018524D01*
X144393076Y-140188355D01*
X144356600Y-140221597D01*
X132905300Y-128770299D01*
X132905300Y-125848046D01*
X132920188Y-125773199D01*
X132905300Y-125698352D01*
X132905300Y-125698348D01*
X132861204Y-125476663D01*
X132693229Y-125225271D01*
X132629773Y-125182871D01*
X132147531Y-124700629D01*
X132368839Y-124369418D01*
X132474221Y-123839623D01*
X133043900Y-124409302D01*
X133043900Y-124575374D01*
X133201469Y-124955780D01*
X133492620Y-125246931D01*
X133873026Y-125404500D01*
X134284774Y-125404500D01*
X134665180Y-125246931D01*
X134956331Y-124955780D01*
X135113900Y-124575374D01*
X135113900Y-124163626D01*
X134956331Y-123783220D01*
X134665180Y-123492069D01*
X134284774Y-123334500D01*
X134118702Y-123334500D01*
X132819731Y-122035530D01*
X132777329Y-121972071D01*
X132525937Y-121804096D01*
X132379663Y-121775000D01*
X132484092Y-121250000D01*
X132368839Y-120670582D01*
X132040625Y-120179375D01*
X131742239Y-119980000D01*
X132040625Y-119780625D01*
X132368839Y-119289418D01*
X132484092Y-118710000D01*
X132368839Y-118130582D01*
X132040625Y-117639375D01*
X131742239Y-117440000D01*
X132040625Y-117240625D01*
X132368839Y-116749418D01*
X132484092Y-116170000D01*
X132368839Y-115590582D01*
X132040625Y-115099375D01*
X131742239Y-114900000D01*
X132040625Y-114700625D01*
X132368839Y-114209418D01*
X132477457Y-113663358D01*
X135670101Y-116856003D01*
X135670101Y-116856003D01*
G37*
X135670101Y-116856003D02*
X135670100Y-129667653D01*
X135655212Y-129742500D01*
X135670100Y-129817347D01*
X135670100Y-129817351D01*
X135714196Y-130039036D01*
X135882171Y-130290429D01*
X135945630Y-130332831D01*
X145712229Y-140099431D01*
X145516890Y-140018524D01*
X145287000Y-140139845D01*
X145287000Y-141333000D01*
X145307000Y-141333000D01*
X145307000Y-141587000D01*
X145287000Y-141587000D01*
X145287000Y-141607000D01*
X145033000Y-141607000D01*
X145033000Y-141587000D01*
X145013000Y-141587000D01*
X145013000Y-141333000D01*
X145033000Y-141333000D01*
X145033000Y-140139845D01*
X144803110Y-140018524D01*
X144393076Y-140188355D01*
X144356600Y-140221597D01*
X132905300Y-128770299D01*
X132905300Y-125848046D01*
X132920188Y-125773199D01*
X132905300Y-125698352D01*
X132905300Y-125698348D01*
X132861204Y-125476663D01*
X132693229Y-125225271D01*
X132629773Y-125182871D01*
X132147531Y-124700629D01*
X132368839Y-124369418D01*
X132474221Y-123839623D01*
X133043900Y-124409302D01*
X133043900Y-124575374D01*
X133201469Y-124955780D01*
X133492620Y-125246931D01*
X133873026Y-125404500D01*
X134284774Y-125404500D01*
X134665180Y-125246931D01*
X134956331Y-124955780D01*
X135113900Y-124575374D01*
X135113900Y-124163626D01*
X134956331Y-123783220D01*
X134665180Y-123492069D01*
X134284774Y-123334500D01*
X134118702Y-123334500D01*
X132819731Y-122035530D01*
X132777329Y-121972071D01*
X132525937Y-121804096D01*
X132379663Y-121775000D01*
X132484092Y-121250000D01*
X132368839Y-120670582D01*
X132040625Y-120179375D01*
X131742239Y-119980000D01*
X132040625Y-119780625D01*
X132368839Y-119289418D01*
X132484092Y-118710000D01*
X132368839Y-118130582D01*
X132040625Y-117639375D01*
X131742239Y-117440000D01*
X132040625Y-117240625D01*
X132368839Y-116749418D01*
X132484092Y-116170000D01*
X132368839Y-115590582D01*
X132040625Y-115099375D01*
X131742239Y-114900000D01*
X132040625Y-114700625D01*
X132368839Y-114209418D01*
X132477457Y-113663358D01*
X135670101Y-116856003D01*
G36*
X166043466Y-115762862D02*
X166447138Y-116166534D01*
X166512299Y-116193525D01*
X166505995Y-116196136D01*
X166431861Y-116442255D01*
X167260000Y-117270395D01*
X167274142Y-117256252D01*
X167453748Y-117435858D01*
X167439605Y-117450000D01*
X167453748Y-117464143D01*
X167274142Y-117643748D01*
X167260000Y-117629605D01*
X166431861Y-118457745D01*
X166505995Y-118703864D01*
X167043223Y-118896965D01*
X167613454Y-118869778D01*
X167786600Y-118798058D01*
X167786601Y-138022897D01*
X166265530Y-139543969D01*
X166202071Y-139586371D01*
X166064753Y-139791882D01*
X166027929Y-139736771D01*
X165964473Y-139694371D01*
X159483900Y-133213799D01*
X159483900Y-124396554D01*
X159520961Y-124411904D01*
X159743000Y-124289915D01*
X159743000Y-123147000D01*
X159997000Y-123147000D01*
X159997000Y-124289915D01*
X160219039Y-124411904D01*
X160607423Y-124251041D01*
X161022389Y-123875134D01*
X161261914Y-123369041D01*
X161140629Y-123147000D01*
X159997000Y-123147000D01*
X159743000Y-123147000D01*
X159723000Y-123147000D01*
X159723000Y-122893000D01*
X159743000Y-122893000D01*
X159743000Y-122873000D01*
X159997000Y-122873000D01*
X159997000Y-122893000D01*
X161140629Y-122893000D01*
X161261914Y-122670959D01*
X161022389Y-122164866D01*
X160607423Y-121788959D01*
X160219039Y-121628096D01*
X159997002Y-121750084D01*
X159997002Y-121696299D01*
X164460079Y-117233223D01*
X165813035Y-117233223D01*
X165840222Y-117803454D01*
X166006136Y-118204005D01*
X166252255Y-118278139D01*
X167080395Y-117450000D01*
X166252255Y-116621861D01*
X166006136Y-116695995D01*
X165813035Y-117233223D01*
X164460079Y-117233223D01*
X165692276Y-116001027D01*
X165755729Y-115958629D01*
X165798127Y-115895176D01*
X165798129Y-115895174D01*
X165884232Y-115766311D01*
X165923704Y-115707237D01*
X165955083Y-115549486D01*
X166043466Y-115762862D01*
X166043466Y-115762862D01*
G37*
X166043466Y-115762862D02*
X166447138Y-116166534D01*
X166512299Y-116193525D01*
X166505995Y-116196136D01*
X166431861Y-116442255D01*
X167260000Y-117270395D01*
X167274142Y-117256252D01*
X167453748Y-117435858D01*
X167439605Y-117450000D01*
X167453748Y-117464143D01*
X167274142Y-117643748D01*
X167260000Y-117629605D01*
X166431861Y-118457745D01*
X166505995Y-118703864D01*
X167043223Y-118896965D01*
X167613454Y-118869778D01*
X167786600Y-118798058D01*
X167786601Y-138022897D01*
X166265530Y-139543969D01*
X166202071Y-139586371D01*
X166064753Y-139791882D01*
X166027929Y-139736771D01*
X165964473Y-139694371D01*
X159483900Y-133213799D01*
X159483900Y-124396554D01*
X159520961Y-124411904D01*
X159743000Y-124289915D01*
X159743000Y-123147000D01*
X159997000Y-123147000D01*
X159997000Y-124289915D01*
X160219039Y-124411904D01*
X160607423Y-124251041D01*
X161022389Y-123875134D01*
X161261914Y-123369041D01*
X161140629Y-123147000D01*
X159997000Y-123147000D01*
X159743000Y-123147000D01*
X159723000Y-123147000D01*
X159723000Y-122893000D01*
X159743000Y-122893000D01*
X159743000Y-122873000D01*
X159997000Y-122873000D01*
X159997000Y-122893000D01*
X161140629Y-122893000D01*
X161261914Y-122670959D01*
X161022389Y-122164866D01*
X160607423Y-121788959D01*
X160219039Y-121628096D01*
X159997002Y-121750084D01*
X159997002Y-121696299D01*
X164460079Y-117233223D01*
X165813035Y-117233223D01*
X165840222Y-117803454D01*
X166006136Y-118204005D01*
X166252255Y-118278139D01*
X167080395Y-117450000D01*
X166252255Y-116621861D01*
X166006136Y-116695995D01*
X165813035Y-117233223D01*
X164460079Y-117233223D01*
X165692276Y-116001027D01*
X165755729Y-115958629D01*
X165798127Y-115895176D01*
X165798129Y-115895174D01*
X165884232Y-115766311D01*
X165923704Y-115707237D01*
X165955083Y-115549486D01*
X166043466Y-115762862D01*
G36*
X185627000Y-122823000D02*
X185647000Y-122823000D01*
X185647000Y-123077000D01*
X185627000Y-123077000D01*
X185627000Y-124219915D01*
X185849039Y-124341904D01*
X185916900Y-124313797D01*
X185916901Y-133803597D01*
X181505530Y-138214969D01*
X181442071Y-138257371D01*
X181274096Y-138508764D01*
X181230000Y-138730449D01*
X181230000Y-138730453D01*
X181215112Y-138805300D01*
X181230000Y-138880147D01*
X181230000Y-139711428D01*
X181204476Y-139694373D01*
X174685400Y-133175299D01*
X174685400Y-124238470D01*
X174780091Y-124301740D01*
X175198667Y-124385000D01*
X175481333Y-124385000D01*
X175899909Y-124301740D01*
X176374577Y-123984577D01*
X176610000Y-123632242D01*
X176845423Y-123984577D01*
X177320091Y-124301740D01*
X177738667Y-124385000D01*
X178021333Y-124385000D01*
X178439909Y-124301740D01*
X178914577Y-123984577D01*
X179150000Y-123632242D01*
X179385423Y-123984577D01*
X179860091Y-124301740D01*
X180278667Y-124385000D01*
X180561333Y-124385000D01*
X180979909Y-124301740D01*
X181454577Y-123984577D01*
X181690000Y-123632242D01*
X181925423Y-123984577D01*
X182400091Y-124301740D01*
X182818667Y-124385000D01*
X183101333Y-124385000D01*
X183519909Y-124301740D01*
X183994577Y-123984577D01*
X184250947Y-123600892D01*
X184347611Y-123805134D01*
X184762577Y-124181041D01*
X185150961Y-124341904D01*
X185373000Y-124219915D01*
X185373000Y-123077000D01*
X185353000Y-123077000D01*
X185353000Y-122823000D01*
X185373000Y-122823000D01*
X185373000Y-122803000D01*
X185627000Y-122803000D01*
X185627000Y-122823000D01*
X185627000Y-122823000D01*
G37*
X185627000Y-122823000D02*
X185647000Y-122823000D01*
X185647000Y-123077000D01*
X185627000Y-123077000D01*
X185627000Y-124219915D01*
X185849039Y-124341904D01*
X185916900Y-124313797D01*
X185916901Y-133803597D01*
X181505530Y-138214969D01*
X181442071Y-138257371D01*
X181274096Y-138508764D01*
X181230000Y-138730449D01*
X181230000Y-138730453D01*
X181215112Y-138805300D01*
X181230000Y-138880147D01*
X181230000Y-139711428D01*
X181204476Y-139694373D01*
X174685400Y-133175299D01*
X174685400Y-124238470D01*
X174780091Y-124301740D01*
X175198667Y-124385000D01*
X175481333Y-124385000D01*
X175899909Y-124301740D01*
X176374577Y-123984577D01*
X176610000Y-123632242D01*
X176845423Y-123984577D01*
X177320091Y-124301740D01*
X177738667Y-124385000D01*
X178021333Y-124385000D01*
X178439909Y-124301740D01*
X178914577Y-123984577D01*
X179150000Y-123632242D01*
X179385423Y-123984577D01*
X179860091Y-124301740D01*
X180278667Y-124385000D01*
X180561333Y-124385000D01*
X180979909Y-124301740D01*
X181454577Y-123984577D01*
X181690000Y-123632242D01*
X181925423Y-123984577D01*
X182400091Y-124301740D01*
X182818667Y-124385000D01*
X183101333Y-124385000D01*
X183519909Y-124301740D01*
X183994577Y-123984577D01*
X184250947Y-123600892D01*
X184347611Y-123805134D01*
X184762577Y-124181041D01*
X185150961Y-124341904D01*
X185373000Y-124219915D01*
X185373000Y-123077000D01*
X185353000Y-123077000D01*
X185353000Y-122823000D01*
X185373000Y-122823000D01*
X185373000Y-122803000D01*
X185627000Y-122803000D01*
X185627000Y-122823000D01*
G36*
X184222471Y-102963273D02*
X184264871Y-103026729D01*
X184516263Y-103194704D01*
X184737948Y-103238800D01*
X184737953Y-103238800D01*
X184812800Y-103253688D01*
X184887647Y-103238800D01*
X186996453Y-103238800D01*
X187071300Y-103253688D01*
X187146147Y-103238800D01*
X187146152Y-103238800D01*
X187367837Y-103194704D01*
X187512415Y-103098100D01*
X189028792Y-103098100D01*
X188973035Y-103253223D01*
X189000222Y-103823454D01*
X189166136Y-104224005D01*
X189412255Y-104298139D01*
X190240395Y-103470000D01*
X190226253Y-103455858D01*
X190405858Y-103276253D01*
X190420000Y-103290395D01*
X190434143Y-103276253D01*
X190613748Y-103455858D01*
X190599605Y-103470000D01*
X190613748Y-103484143D01*
X190434142Y-103663748D01*
X190420000Y-103649605D01*
X189591861Y-104477745D01*
X189665995Y-104723864D01*
X190203223Y-104916965D01*
X190773454Y-104889778D01*
X190785900Y-104884623D01*
X190785901Y-113813048D01*
X190771012Y-113887900D01*
X190829997Y-114184437D01*
X190904156Y-114295423D01*
X190997972Y-114435829D01*
X191061428Y-114478229D01*
X198642509Y-122059311D01*
X198421161Y-122390582D01*
X198305908Y-122970000D01*
X198421161Y-123549418D01*
X198749375Y-124040625D01*
X199114202Y-124284395D01*
X190268499Y-133130100D01*
X190102426Y-133130100D01*
X189722020Y-133287669D01*
X189430869Y-133578820D01*
X189273300Y-133959226D01*
X189273300Y-134119799D01*
X188286700Y-133133199D01*
X188286700Y-121096846D01*
X188301588Y-121021999D01*
X188286700Y-120947152D01*
X188286700Y-120947148D01*
X188242604Y-120725463D01*
X188074629Y-120474071D01*
X188011173Y-120431671D01*
X183964305Y-116384804D01*
X183994577Y-116364577D01*
X184230000Y-116012242D01*
X184465423Y-116364577D01*
X184940091Y-116681740D01*
X185358667Y-116765000D01*
X185641333Y-116765000D01*
X186059909Y-116681740D01*
X186534577Y-116364577D01*
X186851740Y-115889909D01*
X186963113Y-115330000D01*
X186851740Y-114770091D01*
X186534577Y-114295423D01*
X186059909Y-113978260D01*
X185641333Y-113895000D01*
X185358667Y-113895000D01*
X184940091Y-113978260D01*
X184465423Y-114295423D01*
X184230000Y-114647758D01*
X183994577Y-114295423D01*
X183519909Y-113978260D01*
X183101333Y-113895000D01*
X182818667Y-113895000D01*
X182535700Y-113951286D01*
X182535700Y-113424301D01*
X184485973Y-111474029D01*
X184549429Y-111431629D01*
X184717404Y-111180237D01*
X184761500Y-110958552D01*
X184761500Y-110958548D01*
X184776388Y-110883700D01*
X184761500Y-110808852D01*
X184761500Y-110250297D01*
X185030961Y-110361904D01*
X185253000Y-110239915D01*
X185253000Y-109097000D01*
X185507000Y-109097000D01*
X185507000Y-110239915D01*
X185729039Y-110361904D01*
X186117423Y-110201041D01*
X186532389Y-109825134D01*
X186771914Y-109319041D01*
X186650629Y-109097000D01*
X185507000Y-109097000D01*
X185253000Y-109097000D01*
X185233000Y-109097000D01*
X185233000Y-108843000D01*
X185253000Y-108843000D01*
X185253000Y-107700085D01*
X185507000Y-107700085D01*
X185507000Y-108843000D01*
X186650629Y-108843000D01*
X186771914Y-108620959D01*
X186532389Y-108114866D01*
X186117423Y-107738959D01*
X185729039Y-107578096D01*
X185507000Y-107700085D01*
X185253000Y-107700085D01*
X185030961Y-107578096D01*
X184761500Y-107689703D01*
X184761500Y-105271646D01*
X184776388Y-105196799D01*
X184761500Y-105121952D01*
X184761500Y-105121948D01*
X184717404Y-104900263D01*
X184549429Y-104648871D01*
X184485973Y-104606471D01*
X182656018Y-102776517D01*
X182698667Y-102785000D01*
X182981333Y-102785000D01*
X183399909Y-102701740D01*
X183736222Y-102477023D01*
X184222471Y-102963273D01*
X184222471Y-102963273D01*
G37*
X184222471Y-102963273D02*
X184264871Y-103026729D01*
X184516263Y-103194704D01*
X184737948Y-103238800D01*
X184737953Y-103238800D01*
X184812800Y-103253688D01*
X184887647Y-103238800D01*
X186996453Y-103238800D01*
X187071300Y-103253688D01*
X187146147Y-103238800D01*
X187146152Y-103238800D01*
X187367837Y-103194704D01*
X187512415Y-103098100D01*
X189028792Y-103098100D01*
X188973035Y-103253223D01*
X189000222Y-103823454D01*
X189166136Y-104224005D01*
X189412255Y-104298139D01*
X190240395Y-103470000D01*
X190226253Y-103455858D01*
X190405858Y-103276253D01*
X190420000Y-103290395D01*
X190434143Y-103276253D01*
X190613748Y-103455858D01*
X190599605Y-103470000D01*
X190613748Y-103484143D01*
X190434142Y-103663748D01*
X190420000Y-103649605D01*
X189591861Y-104477745D01*
X189665995Y-104723864D01*
X190203223Y-104916965D01*
X190773454Y-104889778D01*
X190785900Y-104884623D01*
X190785901Y-113813048D01*
X190771012Y-113887900D01*
X190829997Y-114184437D01*
X190904156Y-114295423D01*
X190997972Y-114435829D01*
X191061428Y-114478229D01*
X198642509Y-122059311D01*
X198421161Y-122390582D01*
X198305908Y-122970000D01*
X198421161Y-123549418D01*
X198749375Y-124040625D01*
X199114202Y-124284395D01*
X190268499Y-133130100D01*
X190102426Y-133130100D01*
X189722020Y-133287669D01*
X189430869Y-133578820D01*
X189273300Y-133959226D01*
X189273300Y-134119799D01*
X188286700Y-133133199D01*
X188286700Y-121096846D01*
X188301588Y-121021999D01*
X188286700Y-120947152D01*
X188286700Y-120947148D01*
X188242604Y-120725463D01*
X188074629Y-120474071D01*
X188011173Y-120431671D01*
X183964305Y-116384804D01*
X183994577Y-116364577D01*
X184230000Y-116012242D01*
X184465423Y-116364577D01*
X184940091Y-116681740D01*
X185358667Y-116765000D01*
X185641333Y-116765000D01*
X186059909Y-116681740D01*
X186534577Y-116364577D01*
X186851740Y-115889909D01*
X186963113Y-115330000D01*
X186851740Y-114770091D01*
X186534577Y-114295423D01*
X186059909Y-113978260D01*
X185641333Y-113895000D01*
X185358667Y-113895000D01*
X184940091Y-113978260D01*
X184465423Y-114295423D01*
X184230000Y-114647758D01*
X183994577Y-114295423D01*
X183519909Y-113978260D01*
X183101333Y-113895000D01*
X182818667Y-113895000D01*
X182535700Y-113951286D01*
X182535700Y-113424301D01*
X184485973Y-111474029D01*
X184549429Y-111431629D01*
X184717404Y-111180237D01*
X184761500Y-110958552D01*
X184761500Y-110958548D01*
X184776388Y-110883700D01*
X184761500Y-110808852D01*
X184761500Y-110250297D01*
X185030961Y-110361904D01*
X185253000Y-110239915D01*
X185253000Y-109097000D01*
X185507000Y-109097000D01*
X185507000Y-110239915D01*
X185729039Y-110361904D01*
X186117423Y-110201041D01*
X186532389Y-109825134D01*
X186771914Y-109319041D01*
X186650629Y-109097000D01*
X185507000Y-109097000D01*
X185253000Y-109097000D01*
X185233000Y-109097000D01*
X185233000Y-108843000D01*
X185253000Y-108843000D01*
X185253000Y-107700085D01*
X185507000Y-107700085D01*
X185507000Y-108843000D01*
X186650629Y-108843000D01*
X186771914Y-108620959D01*
X186532389Y-108114866D01*
X186117423Y-107738959D01*
X185729039Y-107578096D01*
X185507000Y-107700085D01*
X185253000Y-107700085D01*
X185030961Y-107578096D01*
X184761500Y-107689703D01*
X184761500Y-105271646D01*
X184776388Y-105196799D01*
X184761500Y-105121952D01*
X184761500Y-105121948D01*
X184717404Y-104900263D01*
X184549429Y-104648871D01*
X184485973Y-104606471D01*
X182656018Y-102776517D01*
X182698667Y-102785000D01*
X182981333Y-102785000D01*
X183399909Y-102701740D01*
X183736222Y-102477023D01*
X184222471Y-102963273D01*
G36*
X211587300Y-106946602D02*
X211587300Y-107593943D01*
X211549039Y-107578096D01*
X211327000Y-107700085D01*
X211327000Y-108843000D01*
X211347000Y-108843000D01*
X211347000Y-109097000D01*
X211327000Y-109097000D01*
X211327000Y-110239915D01*
X211549039Y-110361904D01*
X211587300Y-110346057D01*
X211587301Y-123249897D01*
X210053862Y-124783337D01*
X209790625Y-124389375D01*
X209492239Y-124190000D01*
X209790625Y-123990625D01*
X210118839Y-123499418D01*
X210234092Y-122920000D01*
X210118839Y-122340582D01*
X209790625Y-121849375D01*
X209492239Y-121650000D01*
X209790625Y-121450625D01*
X210118839Y-120959418D01*
X210234092Y-120380000D01*
X210118839Y-119800582D01*
X210081413Y-119744571D01*
X210118431Y-119689170D01*
X210379770Y-119427831D01*
X210443229Y-119385429D01*
X210611204Y-119134037D01*
X210655300Y-118912352D01*
X210655300Y-118912348D01*
X210670188Y-118837501D01*
X210655300Y-118762654D01*
X210655300Y-110280864D01*
X210850961Y-110361904D01*
X211073000Y-110239915D01*
X211073000Y-109097000D01*
X211053000Y-109097000D01*
X211053000Y-108843000D01*
X211073000Y-108843000D01*
X211073000Y-107700085D01*
X210850961Y-107578096D01*
X210655300Y-107659136D01*
X210655300Y-106014601D01*
X211587300Y-106946602D01*
X211587300Y-106946602D01*
G37*
X211587300Y-106946602D02*
X211587300Y-107593943D01*
X211549039Y-107578096D01*
X211327000Y-107700085D01*
X211327000Y-108843000D01*
X211347000Y-108843000D01*
X211347000Y-109097000D01*
X211327000Y-109097000D01*
X211327000Y-110239915D01*
X211549039Y-110361904D01*
X211587300Y-110346057D01*
X211587301Y-123249897D01*
X210053862Y-124783337D01*
X209790625Y-124389375D01*
X209492239Y-124190000D01*
X209790625Y-123990625D01*
X210118839Y-123499418D01*
X210234092Y-122920000D01*
X210118839Y-122340582D01*
X209790625Y-121849375D01*
X209492239Y-121650000D01*
X209790625Y-121450625D01*
X210118839Y-120959418D01*
X210234092Y-120380000D01*
X210118839Y-119800582D01*
X210081413Y-119744571D01*
X210118431Y-119689170D01*
X210379770Y-119427831D01*
X210443229Y-119385429D01*
X210611204Y-119134037D01*
X210655300Y-118912352D01*
X210655300Y-118912348D01*
X210670188Y-118837501D01*
X210655300Y-118762654D01*
X210655300Y-110280864D01*
X210850961Y-110361904D01*
X211073000Y-110239915D01*
X211073000Y-109097000D01*
X211053000Y-109097000D01*
X211053000Y-108843000D01*
X211073000Y-108843000D01*
X211073000Y-107700085D01*
X210850961Y-107578096D01*
X210655300Y-107659136D01*
X210655300Y-106014601D01*
X211587300Y-106946602D01*
G36*
X162417000Y-108913000D02*
X162437000Y-108913000D01*
X162437000Y-109167000D01*
X162417000Y-109167000D01*
X162417000Y-109187000D01*
X162163000Y-109187000D01*
X162163000Y-109167000D01*
X162143000Y-109167000D01*
X162143000Y-108913000D01*
X162163000Y-108913000D01*
X162163000Y-108893000D01*
X162417000Y-108893000D01*
X162417000Y-108913000D01*
X162417000Y-108913000D01*
G37*
X162417000Y-108913000D02*
X162437000Y-108913000D01*
X162437000Y-109167000D01*
X162417000Y-109167000D01*
X162417000Y-109187000D01*
X162163000Y-109187000D01*
X162163000Y-109167000D01*
X162143000Y-109167000D01*
X162143000Y-108913000D01*
X162163000Y-108913000D01*
X162163000Y-108893000D01*
X162417000Y-108893000D01*
X162417000Y-108913000D01*
G36*
X167674001Y-99637958D02*
X167425439Y-99535000D01*
X166854561Y-99535000D01*
X166327138Y-99753466D01*
X165923466Y-100157138D01*
X165705000Y-100684561D01*
X165705000Y-101255439D01*
X165923466Y-101782862D01*
X166327138Y-102186534D01*
X166392299Y-102213525D01*
X166385995Y-102216136D01*
X166311861Y-102462255D01*
X167140000Y-103290395D01*
X167154143Y-103276253D01*
X167333748Y-103455858D01*
X167319605Y-103470000D01*
X167333748Y-103484143D01*
X167154142Y-103663748D01*
X167140000Y-103649605D01*
X166311861Y-104477745D01*
X166385995Y-104723864D01*
X166923223Y-104916965D01*
X167043361Y-104911237D01*
X163547546Y-108407053D01*
X163442389Y-108184866D01*
X163027423Y-107808959D01*
X162639039Y-107648096D01*
X162421697Y-107767505D01*
X164385873Y-105803329D01*
X164449329Y-105760929D01*
X164617304Y-105509537D01*
X164661400Y-105287852D01*
X164661400Y-105287848D01*
X164676288Y-105213001D01*
X164661400Y-105138154D01*
X164661400Y-103253223D01*
X165693035Y-103253223D01*
X165720222Y-103823454D01*
X165886136Y-104224005D01*
X166132255Y-104298139D01*
X166960395Y-103470000D01*
X166132255Y-102641861D01*
X165886136Y-102715995D01*
X165693035Y-103253223D01*
X164661400Y-103253223D01*
X164661400Y-97282001D01*
X167674000Y-94269402D01*
X167674001Y-99637958D01*
X167674001Y-99637958D01*
G37*
X167674001Y-99637958D02*
X167425439Y-99535000D01*
X166854561Y-99535000D01*
X166327138Y-99753466D01*
X165923466Y-100157138D01*
X165705000Y-100684561D01*
X165705000Y-101255439D01*
X165923466Y-101782862D01*
X166327138Y-102186534D01*
X166392299Y-102213525D01*
X166385995Y-102216136D01*
X166311861Y-102462255D01*
X167140000Y-103290395D01*
X167154143Y-103276253D01*
X167333748Y-103455858D01*
X167319605Y-103470000D01*
X167333748Y-103484143D01*
X167154142Y-103663748D01*
X167140000Y-103649605D01*
X166311861Y-104477745D01*
X166385995Y-104723864D01*
X166923223Y-104916965D01*
X167043361Y-104911237D01*
X163547546Y-108407053D01*
X163442389Y-108184866D01*
X163027423Y-107808959D01*
X162639039Y-107648096D01*
X162421697Y-107767505D01*
X164385873Y-105803329D01*
X164449329Y-105760929D01*
X164617304Y-105509537D01*
X164661400Y-105287852D01*
X164661400Y-105287848D01*
X164676288Y-105213001D01*
X164661400Y-105138154D01*
X164661400Y-103253223D01*
X165693035Y-103253223D01*
X165720222Y-103823454D01*
X165886136Y-104224005D01*
X166132255Y-104298139D01*
X166960395Y-103470000D01*
X166132255Y-102641861D01*
X165886136Y-102715995D01*
X165693035Y-103253223D01*
X164661400Y-103253223D01*
X164661400Y-97282001D01*
X167674000Y-94269402D01*
X167674001Y-99637958D01*
G36*
X183069375Y-91070625D02*
X183129619Y-91110879D01*
X176005530Y-98234969D01*
X175942071Y-98277371D01*
X175774096Y-98528764D01*
X175730000Y-98750449D01*
X175730000Y-98750453D01*
X175715112Y-98825300D01*
X175730000Y-98900147D01*
X175730000Y-100024764D01*
X175569039Y-99958096D01*
X175347000Y-100080085D01*
X175347000Y-101223000D01*
X175367000Y-101223000D01*
X175367000Y-101477000D01*
X175347000Y-101477000D01*
X175347000Y-101497000D01*
X175093000Y-101497000D01*
X175093000Y-101477000D01*
X175073000Y-101477000D01*
X175073000Y-101223000D01*
X175093000Y-101223000D01*
X175093000Y-100080085D01*
X174870961Y-99958096D01*
X174740000Y-100012338D01*
X174740000Y-91278178D01*
X175050625Y-91070625D01*
X175250000Y-90772239D01*
X175449375Y-91070625D01*
X175940582Y-91398839D01*
X176373744Y-91485000D01*
X176666256Y-91485000D01*
X177099418Y-91398839D01*
X177590625Y-91070625D01*
X177790000Y-90772239D01*
X177989375Y-91070625D01*
X178480582Y-91398839D01*
X178913744Y-91485000D01*
X179206256Y-91485000D01*
X179639418Y-91398839D01*
X180130625Y-91070625D01*
X180330000Y-90772239D01*
X180529375Y-91070625D01*
X181020582Y-91398839D01*
X181453744Y-91485000D01*
X181746256Y-91485000D01*
X182179418Y-91398839D01*
X182670625Y-91070625D01*
X182870000Y-90772239D01*
X183069375Y-91070625D01*
X183069375Y-91070625D01*
G37*
X183069375Y-91070625D02*
X183129619Y-91110879D01*
X176005530Y-98234969D01*
X175942071Y-98277371D01*
X175774096Y-98528764D01*
X175730000Y-98750449D01*
X175730000Y-98750453D01*
X175715112Y-98825300D01*
X175730000Y-98900147D01*
X175730000Y-100024764D01*
X175569039Y-99958096D01*
X175347000Y-100080085D01*
X175347000Y-101223000D01*
X175367000Y-101223000D01*
X175367000Y-101477000D01*
X175347000Y-101477000D01*
X175347000Y-101497000D01*
X175093000Y-101497000D01*
X175093000Y-101477000D01*
X175073000Y-101477000D01*
X175073000Y-101223000D01*
X175093000Y-101223000D01*
X175093000Y-100080085D01*
X174870961Y-99958096D01*
X174740000Y-100012338D01*
X174740000Y-91278178D01*
X175050625Y-91070625D01*
X175250000Y-90772239D01*
X175449375Y-91070625D01*
X175940582Y-91398839D01*
X176373744Y-91485000D01*
X176666256Y-91485000D01*
X177099418Y-91398839D01*
X177590625Y-91070625D01*
X177790000Y-90772239D01*
X177989375Y-91070625D01*
X178480582Y-91398839D01*
X178913744Y-91485000D01*
X179206256Y-91485000D01*
X179639418Y-91398839D01*
X180130625Y-91070625D01*
X180330000Y-90772239D01*
X180529375Y-91070625D01*
X181020582Y-91398839D01*
X181453744Y-91485000D01*
X181746256Y-91485000D01*
X182179418Y-91398839D01*
X182670625Y-91070625D01*
X182870000Y-90772239D01*
X183069375Y-91070625D01*
G36*
X173220001Y-100037190D02*
X173029039Y-99958096D01*
X172807000Y-100080085D01*
X172807000Y-101223000D01*
X172827000Y-101223000D01*
X172827000Y-101477000D01*
X172807000Y-101477000D01*
X172807000Y-101497000D01*
X172553000Y-101497000D01*
X172553000Y-101477000D01*
X172533000Y-101477000D01*
X172533000Y-101223000D01*
X172553000Y-101223000D01*
X172553000Y-100080085D01*
X172330961Y-99958096D01*
X171942577Y-100118959D01*
X171527611Y-100494866D01*
X171430947Y-100699108D01*
X171174577Y-100315423D01*
X170699909Y-99998260D01*
X170281333Y-99915000D01*
X169998667Y-99915000D01*
X169698800Y-99974647D01*
X169698800Y-97168201D01*
X173220000Y-93647002D01*
X173220001Y-100037190D01*
X173220001Y-100037190D01*
G37*
X173220001Y-100037190D02*
X173029039Y-99958096D01*
X172807000Y-100080085D01*
X172807000Y-101223000D01*
X172827000Y-101223000D01*
X172827000Y-101477000D01*
X172807000Y-101477000D01*
X172807000Y-101497000D01*
X172553000Y-101497000D01*
X172553000Y-101477000D01*
X172533000Y-101477000D01*
X172533000Y-101223000D01*
X172553000Y-101223000D01*
X172553000Y-100080085D01*
X172330961Y-99958096D01*
X171942577Y-100118959D01*
X171527611Y-100494866D01*
X171430947Y-100699108D01*
X171174577Y-100315423D01*
X170699909Y-99998260D01*
X170281333Y-99915000D01*
X169998667Y-99915000D01*
X169698800Y-99974647D01*
X169698800Y-97168201D01*
X173220000Y-93647002D01*
X173220001Y-100037190D01*
G36*
X142058514Y-87103108D02*
X142179181Y-87333000D01*
X143373000Y-87333000D01*
X143373000Y-87313000D01*
X143627000Y-87313000D01*
X143627000Y-87333000D01*
X145913000Y-87333000D01*
X145913000Y-87313000D01*
X146167000Y-87313000D01*
X146167000Y-87333000D01*
X146187000Y-87333000D01*
X146187000Y-87587000D01*
X146167000Y-87587000D01*
X146167000Y-87607000D01*
X145913000Y-87607000D01*
X145913000Y-87587000D01*
X143627000Y-87587000D01*
X143627000Y-87607000D01*
X143373000Y-87607000D01*
X143373000Y-87587000D01*
X142179181Y-87587000D01*
X142058514Y-87816892D01*
X142304817Y-88341358D01*
X142511855Y-88530039D01*
X142402235Y-88551843D01*
X142192191Y-88692191D01*
X142051843Y-88902235D01*
X142002560Y-89150000D01*
X142002560Y-90850000D01*
X142051843Y-91097765D01*
X142192191Y-91307809D01*
X142402235Y-91448157D01*
X142565000Y-91480533D01*
X142565001Y-92931737D01*
X142476310Y-92895000D01*
X141835750Y-92895000D01*
X141677000Y-93053750D01*
X141677000Y-94203000D01*
X141697000Y-94203000D01*
X141697000Y-94457000D01*
X141677000Y-94457000D01*
X141677000Y-94477000D01*
X141423000Y-94477000D01*
X141423000Y-94457000D01*
X140273750Y-94457000D01*
X140115000Y-94615750D01*
X140115000Y-95256309D01*
X140211673Y-95489698D01*
X140390301Y-95668327D01*
X140596759Y-95753845D01*
X140333466Y-96017138D01*
X140115000Y-96544561D01*
X140115000Y-97080819D01*
X140050420Y-97107569D01*
X139859045Y-97298944D01*
X138085631Y-95525530D01*
X138043229Y-95462071D01*
X137791837Y-95294096D01*
X137590786Y-95254104D01*
X137404577Y-94975423D01*
X137052242Y-94740000D01*
X137404577Y-94504577D01*
X137721740Y-94029909D01*
X137833113Y-93470000D01*
X137819924Y-93403691D01*
X140115000Y-93403691D01*
X140115000Y-94044250D01*
X140273750Y-94203000D01*
X141423000Y-94203000D01*
X141423000Y-93053750D01*
X141264250Y-92895000D01*
X140623690Y-92895000D01*
X140390301Y-92991673D01*
X140211673Y-93170302D01*
X140115000Y-93403691D01*
X137819924Y-93403691D01*
X137721740Y-92910091D01*
X137404577Y-92435423D01*
X136929909Y-92118260D01*
X136511333Y-92035000D01*
X136228667Y-92035000D01*
X135810091Y-92118260D01*
X135335423Y-92435423D01*
X135018260Y-92910091D01*
X134906887Y-93470000D01*
X135018260Y-94029909D01*
X135335423Y-94504577D01*
X135687758Y-94740000D01*
X135335423Y-94975423D01*
X135018260Y-95450091D01*
X134906887Y-96010000D01*
X135018260Y-96569909D01*
X135335423Y-97044577D01*
X135687758Y-97280000D01*
X135335423Y-97515423D01*
X135018260Y-97990091D01*
X134956646Y-98299844D01*
X132147491Y-95490689D01*
X132368839Y-95159418D01*
X132484092Y-94580000D01*
X132402779Y-94171209D01*
X132444400Y-94179488D01*
X132519247Y-94164600D01*
X132519252Y-94164600D01*
X132740937Y-94120504D01*
X132992329Y-93952529D01*
X133034731Y-93889070D01*
X139892203Y-87031600D01*
X142092096Y-87031600D01*
X142058514Y-87103108D01*
X142058514Y-87103108D01*
G37*
X142058514Y-87103108D02*
X142179181Y-87333000D01*
X143373000Y-87333000D01*
X143373000Y-87313000D01*
X143627000Y-87313000D01*
X143627000Y-87333000D01*
X145913000Y-87333000D01*
X145913000Y-87313000D01*
X146167000Y-87313000D01*
X146167000Y-87333000D01*
X146187000Y-87333000D01*
X146187000Y-87587000D01*
X146167000Y-87587000D01*
X146167000Y-87607000D01*
X145913000Y-87607000D01*
X145913000Y-87587000D01*
X143627000Y-87587000D01*
X143627000Y-87607000D01*
X143373000Y-87607000D01*
X143373000Y-87587000D01*
X142179181Y-87587000D01*
X142058514Y-87816892D01*
X142304817Y-88341358D01*
X142511855Y-88530039D01*
X142402235Y-88551843D01*
X142192191Y-88692191D01*
X142051843Y-88902235D01*
X142002560Y-89150000D01*
X142002560Y-90850000D01*
X142051843Y-91097765D01*
X142192191Y-91307809D01*
X142402235Y-91448157D01*
X142565000Y-91480533D01*
X142565001Y-92931737D01*
X142476310Y-92895000D01*
X141835750Y-92895000D01*
X141677000Y-93053750D01*
X141677000Y-94203000D01*
X141697000Y-94203000D01*
X141697000Y-94457000D01*
X141677000Y-94457000D01*
X141677000Y-94477000D01*
X141423000Y-94477000D01*
X141423000Y-94457000D01*
X140273750Y-94457000D01*
X140115000Y-94615750D01*
X140115000Y-95256309D01*
X140211673Y-95489698D01*
X140390301Y-95668327D01*
X140596759Y-95753845D01*
X140333466Y-96017138D01*
X140115000Y-96544561D01*
X140115000Y-97080819D01*
X140050420Y-97107569D01*
X139859045Y-97298944D01*
X138085631Y-95525530D01*
X138043229Y-95462071D01*
X137791837Y-95294096D01*
X137590786Y-95254104D01*
X137404577Y-94975423D01*
X137052242Y-94740000D01*
X137404577Y-94504577D01*
X137721740Y-94029909D01*
X137833113Y-93470000D01*
X137819924Y-93403691D01*
X140115000Y-93403691D01*
X140115000Y-94044250D01*
X140273750Y-94203000D01*
X141423000Y-94203000D01*
X141423000Y-93053750D01*
X141264250Y-92895000D01*
X140623690Y-92895000D01*
X140390301Y-92991673D01*
X140211673Y-93170302D01*
X140115000Y-93403691D01*
X137819924Y-93403691D01*
X137721740Y-92910091D01*
X137404577Y-92435423D01*
X136929909Y-92118260D01*
X136511333Y-92035000D01*
X136228667Y-92035000D01*
X135810091Y-92118260D01*
X135335423Y-92435423D01*
X135018260Y-92910091D01*
X134906887Y-93470000D01*
X135018260Y-94029909D01*
X135335423Y-94504577D01*
X135687758Y-94740000D01*
X135335423Y-94975423D01*
X135018260Y-95450091D01*
X134906887Y-96010000D01*
X135018260Y-96569909D01*
X135335423Y-97044577D01*
X135687758Y-97280000D01*
X135335423Y-97515423D01*
X135018260Y-97990091D01*
X134956646Y-98299844D01*
X132147491Y-95490689D01*
X132368839Y-95159418D01*
X132484092Y-94580000D01*
X132402779Y-94171209D01*
X132444400Y-94179488D01*
X132519247Y-94164600D01*
X132519252Y-94164600D01*
X132740937Y-94120504D01*
X132992329Y-93952529D01*
X133034731Y-93889070D01*
X139892203Y-87031600D01*
X142092096Y-87031600D01*
X142058514Y-87103108D01*
G04 #@! TD*
M02*
