M48
; DRILL file {KiCad (5.1.4-0)} date 2019年12月21日 土曜日 12:09:24
; FORMAT={-:-/ absolute / metric / decimal}
; #@! TF.CreationDate,2019-12-21T12:09:24+09:00
; #@! TF.GenerationSoftware,Kicad,Pcbnew,(5.1.4-0)
FMAT,2
METRIC
T1C0.400
T2C0.800
T3C1.000
T4C3.200
%
G90
G05
T1
X122.0Y-94.5
X123.0Y-144.0
X135.892Y-86.233
X140.971Y-144.712
X143.598Y-130.144
X146.507Y-144.826
X150.905Y-109.887
X154.884Y-137.607
X159.069Y-122.938
X184.169Y-95.382
X188.693Y-107.376
X189.421Y-119.788
X189.52Y-106.378
X190.774Y-98.466
X192.308Y-113.802
X192.984Y-102.888
X200.463Y-144.436
X201.992Y-118.139
X204.534Y-121.715
X209.5Y-89.0
X209.5Y-143.5
T2
X170.34Y-126.33
X172.88Y-126.33
X175.42Y-126.33
X177.96Y-126.33
X180.5Y-133.95
X183.04Y-133.95
X185.58Y-133.95
X141.63Y-113.75
X170.34Y-133.95
X172.88Y-133.95
X175.42Y-133.95
X180.5Y-126.33
X183.04Y-126.33
X185.58Y-126.33
X141.63Y-116.25
X138.5Y-132.0
X141.0Y-132.0
X167.165Y-125.735
X167.165Y-128.235
X170.26Y-114.06
X177.96Y-133.95
X170.26Y-121.68
X172.8Y-121.68
X175.34Y-121.68
X180.42Y-114.06
X185.5Y-114.06
X152.56Y-131.41
X172.8Y-114.06
X175.34Y-114.06
X177.88Y-114.06
X177.88Y-121.68
X180.42Y-121.68
X182.96Y-121.68
X162.72Y-131.41
X182.96Y-114.06
X185.5Y-121.68
X141.51Y-103.54
X141.51Y-101.04
X136.37Y-96.01
X136.37Y-98.55
X136.37Y-101.09
X136.37Y-103.63
X144.63Y-121.75
X159.87Y-114.13
X147.17Y-121.75
X157.33Y-114.13
X149.71Y-121.75
X154.79Y-114.13
X152.25Y-121.75
X152.25Y-114.13
X154.79Y-121.75
X149.71Y-114.13
X157.33Y-121.75
X147.17Y-114.13
X159.87Y-121.75
X144.63Y-114.13
X136.37Y-93.47
X136.37Y-106.17
X136.37Y-108.71
X136.37Y-111.25
X136.37Y-113.79
X167.26Y-113.68
X167.26Y-116.18
X152.56Y-126.965
X162.72Y-126.965
X193.42Y-101.35
X193.42Y-108.97
X195.96Y-101.35
X195.96Y-108.97
X198.5Y-101.35
X198.5Y-108.97
X201.04Y-101.35
X201.04Y-108.97
X203.58Y-101.35
X203.58Y-108.97
X206.12Y-101.35
X141.55Y-94.33
X141.55Y-96.83
X170.14Y-101.35
X170.14Y-108.97
X172.68Y-101.35
X172.68Y-108.97
X175.22Y-101.35
X175.22Y-108.97
X177.76Y-101.35
X177.76Y-108.97
X180.3Y-101.35
X180.3Y-108.97
X182.84Y-101.35
X182.84Y-108.97
X185.38Y-101.35
X185.38Y-108.97
X167.14Y-100.97
X167.14Y-103.47
X206.12Y-108.97
X208.66Y-101.35
X208.66Y-108.97
X211.2Y-101.35
X211.2Y-108.97
X190.42Y-100.97
X190.42Y-103.47
X144.51Y-101.42
X144.51Y-109.04
X147.05Y-101.42
X147.05Y-109.04
X149.59Y-101.42
X149.59Y-109.04
X152.13Y-101.42
X152.13Y-109.04
X154.67Y-101.42
X154.67Y-109.04
X157.21Y-101.42
X157.21Y-109.04
X159.75Y-101.42
X159.75Y-109.04
X162.29Y-101.42
X162.29Y-109.04
T3
X128.43Y-113.63
X128.43Y-116.17
X128.43Y-118.71
X128.43Y-121.25
X126.5Y-136.96
X126.5Y-139.5
X137.54Y-141.46
X137.54Y-146.54
X140.08Y-141.46
X140.08Y-146.54
X142.62Y-141.46
X142.62Y-146.54
X145.16Y-141.46
X145.16Y-146.54
X147.7Y-141.46
X147.7Y-146.54
X150.24Y-141.46
X150.24Y-146.54
X152.78Y-141.46
X152.78Y-146.54
X155.32Y-141.46
X155.32Y-146.54
X157.86Y-141.46
X157.86Y-146.54
X160.4Y-141.46
X160.4Y-146.54
X162.94Y-141.46
X162.94Y-146.54
X165.48Y-141.46
X165.48Y-146.54
X168.02Y-141.46
X168.02Y-146.54
X170.56Y-141.46
X170.56Y-146.54
X173.1Y-141.46
X173.1Y-146.54
X175.64Y-141.46
X145.575Y-127.6
X198.5Y-141.46
X198.5Y-146.54
X148.115Y-127.6
X175.64Y-146.54
X178.18Y-141.46
X178.18Y-146.54
X180.72Y-141.46
X180.72Y-146.54
X183.26Y-141.46
X183.26Y-146.54
X185.8Y-141.46
X185.8Y-146.54
X188.34Y-141.46
X188.34Y-146.54
X190.88Y-141.46
X190.88Y-146.54
X193.42Y-141.46
X193.42Y-146.54
X195.96Y-141.46
X195.96Y-146.54
X128.43Y-123.79
X128.43Y-126.33
X128.43Y-128.87
X130.97Y-113.63
X130.97Y-116.17
X130.97Y-118.71
X130.97Y-121.25
X130.97Y-123.79
X130.97Y-126.33
X130.97Y-128.87
X143.5Y-87.46
X143.5Y-90.0
X146.04Y-87.46
X146.04Y-90.0
X148.58Y-87.46
X148.58Y-90.0
X151.12Y-87.46
X151.12Y-90.0
X153.66Y-87.46
X153.66Y-90.0
X156.2Y-87.46
X156.2Y-90.0
X158.74Y-87.46
X158.74Y-90.0
X161.28Y-87.46
X161.28Y-90.0
X163.82Y-87.46
X163.82Y-90.0
X166.36Y-87.46
X166.36Y-90.0
X168.9Y-87.46
X168.9Y-90.0
X171.44Y-87.46
X171.44Y-90.0
X173.98Y-87.46
X173.98Y-90.0
X176.52Y-87.46
X176.52Y-90.0
X179.06Y-87.46
X179.06Y-90.0
X181.6Y-87.46
X181.6Y-90.0
X184.14Y-87.46
X184.14Y-90.0
X186.68Y-87.46
X186.68Y-90.0
X199.82Y-117.89
X189.22Y-87.46
X189.22Y-90.0
X191.76Y-87.46
X191.76Y-90.0
X199.82Y-120.43
X199.82Y-122.97
X208.72Y-117.84
X208.72Y-120.38
X208.72Y-122.92
X208.72Y-125.46
X208.72Y-128.0
X128.43Y-86.96
X128.43Y-89.5
X128.43Y-92.04
X128.43Y-94.58
X128.43Y-97.12
X128.43Y-99.66
X128.43Y-102.2
X130.97Y-86.96
X130.97Y-89.5
X130.97Y-92.04
X130.97Y-94.58
X130.97Y-97.12
X130.97Y-99.66
X130.97Y-102.2
T4
X211.5Y-148.5
X211.5Y-82.5
X122.5Y-148.5
X122.5Y-82.5
T0
M30
