G04 #@! TF.GenerationSoftware,KiCad,Pcbnew,(5.1.4-0)*
G04 #@! TF.CreationDate,2019-12-21T12:07:29+09:00*
G04 #@! TF.ProjectId,KZ80-MSXCTRG,4b5a3830-2d4d-4535-9843-5452472e6b69,rev?*
G04 #@! TF.SameCoordinates,Original*
G04 #@! TF.FileFunction,Copper,L1,Top*
G04 #@! TF.FilePolarity,Positive*
%FSLAX46Y46*%
G04 Gerber Fmt 4.6, Leading zero omitted, Abs format (unit mm)*
G04 Created by KiCad (PCBNEW (5.1.4-0)) date 2019-12-21 12:07:29*
%MOMM*%
%LPD*%
G04 APERTURE LIST*
%ADD10O,1.600000X1.600000*%
%ADD11R,1.600000X1.600000*%
%ADD12C,1.600000*%
%ADD13O,1.700000X1.700000*%
%ADD14R,1.700000X1.700000*%
%ADD15C,0.800000*%
%ADD16C,0.600000*%
%ADD17C,0.250000*%
%ADD18C,0.254000*%
G04 APERTURE END LIST*
D10*
X170340000Y-126330000D03*
X185580000Y-133950000D03*
X172880000Y-126330000D03*
X183040000Y-133950000D03*
X175420000Y-126330000D03*
X180500000Y-133950000D03*
X177960000Y-126330000D03*
X177960000Y-133950000D03*
X180500000Y-126330000D03*
X175420000Y-133950000D03*
X183040000Y-126330000D03*
X172880000Y-133950000D03*
X185580000Y-126330000D03*
D11*
X170340000Y-133950000D03*
D10*
X162720000Y-131410000D03*
D12*
X152560000Y-131410000D03*
D10*
X162720000Y-126965000D03*
D12*
X152560000Y-126965000D03*
D13*
X148115000Y-127600000D03*
D14*
X145575000Y-127600000D03*
D12*
X167165000Y-125735000D03*
X167165000Y-128235000D03*
D14*
X126500000Y-139500000D03*
D13*
X126500000Y-136960000D03*
D12*
X138500000Y-132000000D03*
D11*
X141000000Y-132000000D03*
X141550000Y-94330000D03*
D12*
X141550000Y-96830000D03*
X167260000Y-116180000D03*
X167260000Y-113680000D03*
X167140000Y-100970000D03*
X167140000Y-103470000D03*
X141630000Y-116250000D03*
X141630000Y-113750000D03*
X190420000Y-100970000D03*
X190420000Y-103470000D03*
X141510000Y-103540000D03*
X141510000Y-101040000D03*
D14*
X198500000Y-141460000D03*
D13*
X198500000Y-146540000D03*
X195960000Y-141460000D03*
X195960000Y-146540000D03*
X193420000Y-141460000D03*
X193420000Y-146540000D03*
X190880000Y-141460000D03*
X190880000Y-146540000D03*
X188340000Y-141460000D03*
X188340000Y-146540000D03*
X185800000Y-141460000D03*
X185800000Y-146540000D03*
X183260000Y-141460000D03*
X183260000Y-146540000D03*
X180720000Y-141460000D03*
X180720000Y-146540000D03*
X178180000Y-141460000D03*
X178180000Y-146540000D03*
X175640000Y-141460000D03*
X175640000Y-146540000D03*
X173100000Y-141460000D03*
X173100000Y-146540000D03*
X170560000Y-141460000D03*
X170560000Y-146540000D03*
X168020000Y-141460000D03*
X168020000Y-146540000D03*
X165480000Y-141460000D03*
X165480000Y-146540000D03*
X162940000Y-141460000D03*
X162940000Y-146540000D03*
X160400000Y-141460000D03*
X160400000Y-146540000D03*
X157860000Y-141460000D03*
X157860000Y-146540000D03*
X155320000Y-141460000D03*
X155320000Y-146540000D03*
X152780000Y-141460000D03*
X152780000Y-146540000D03*
X150240000Y-141460000D03*
X150240000Y-146540000D03*
X147700000Y-141460000D03*
X147700000Y-146540000D03*
X145160000Y-141460000D03*
X145160000Y-146540000D03*
X142620000Y-141460000D03*
X142620000Y-146540000D03*
X140080000Y-141460000D03*
X140080000Y-146540000D03*
X137540000Y-141460000D03*
X137540000Y-146540000D03*
D14*
X199820000Y-117890000D03*
D13*
X199820000Y-120430000D03*
X199820000Y-122970000D03*
D14*
X208720000Y-117840000D03*
D13*
X208720000Y-120380000D03*
X208720000Y-122920000D03*
X208720000Y-125460000D03*
X208720000Y-128000000D03*
X128430000Y-86960000D03*
X130970000Y-86960000D03*
X128430000Y-89500000D03*
X130970000Y-89500000D03*
X128430000Y-92040000D03*
X130970000Y-92040000D03*
X128430000Y-94580000D03*
X130970000Y-94580000D03*
X128430000Y-97120000D03*
X130970000Y-97120000D03*
X128430000Y-99660000D03*
X130970000Y-99660000D03*
X128430000Y-102200000D03*
D14*
X130970000Y-102200000D03*
X130970000Y-128870000D03*
D13*
X128430000Y-128870000D03*
X130970000Y-126330000D03*
X128430000Y-126330000D03*
X130970000Y-123790000D03*
X128430000Y-123790000D03*
X130970000Y-121250000D03*
X128430000Y-121250000D03*
X130970000Y-118710000D03*
X128430000Y-118710000D03*
X130970000Y-116170000D03*
X128430000Y-116170000D03*
X130970000Y-113630000D03*
X128430000Y-113630000D03*
D14*
X143500000Y-90000000D03*
D13*
X143500000Y-87460000D03*
X146040000Y-90000000D03*
X146040000Y-87460000D03*
X148580000Y-90000000D03*
X148580000Y-87460000D03*
X151120000Y-90000000D03*
X151120000Y-87460000D03*
X153660000Y-90000000D03*
X153660000Y-87460000D03*
X156200000Y-90000000D03*
X156200000Y-87460000D03*
X158740000Y-90000000D03*
X158740000Y-87460000D03*
X161280000Y-90000000D03*
X161280000Y-87460000D03*
X163820000Y-90000000D03*
X163820000Y-87460000D03*
X166360000Y-90000000D03*
X166360000Y-87460000D03*
X168900000Y-90000000D03*
X168900000Y-87460000D03*
X171440000Y-90000000D03*
X171440000Y-87460000D03*
X173980000Y-90000000D03*
X173980000Y-87460000D03*
X176520000Y-90000000D03*
X176520000Y-87460000D03*
X179060000Y-90000000D03*
X179060000Y-87460000D03*
X181600000Y-90000000D03*
X181600000Y-87460000D03*
X184140000Y-90000000D03*
X184140000Y-87460000D03*
X186680000Y-90000000D03*
X186680000Y-87460000D03*
X189220000Y-90000000D03*
X189220000Y-87460000D03*
X191760000Y-90000000D03*
X191760000Y-87460000D03*
D11*
X170140000Y-108970000D03*
D10*
X185380000Y-101350000D03*
X172680000Y-108970000D03*
X182840000Y-101350000D03*
X175220000Y-108970000D03*
X180300000Y-101350000D03*
X177760000Y-108970000D03*
X177760000Y-101350000D03*
X180300000Y-108970000D03*
X175220000Y-101350000D03*
X182840000Y-108970000D03*
X172680000Y-101350000D03*
X185380000Y-108970000D03*
X170140000Y-101350000D03*
X170260000Y-114060000D03*
X185500000Y-121680000D03*
X172800000Y-114060000D03*
X182960000Y-121680000D03*
X175340000Y-114060000D03*
X180420000Y-121680000D03*
X177880000Y-114060000D03*
X177880000Y-121680000D03*
X180420000Y-114060000D03*
X175340000Y-121680000D03*
X182960000Y-114060000D03*
X172800000Y-121680000D03*
X185500000Y-114060000D03*
D11*
X170260000Y-121680000D03*
X144630000Y-121750000D03*
D10*
X159870000Y-114130000D03*
X147170000Y-121750000D03*
X157330000Y-114130000D03*
X149710000Y-121750000D03*
X154790000Y-114130000D03*
X152250000Y-121750000D03*
X152250000Y-114130000D03*
X154790000Y-121750000D03*
X149710000Y-114130000D03*
X157330000Y-121750000D03*
X147170000Y-114130000D03*
X159870000Y-121750000D03*
X144630000Y-114130000D03*
X144510000Y-101420000D03*
X162290000Y-109040000D03*
X147050000Y-101420000D03*
X159750000Y-109040000D03*
X149590000Y-101420000D03*
X157210000Y-109040000D03*
X152130000Y-101420000D03*
X154670000Y-109040000D03*
X154670000Y-101420000D03*
X152130000Y-109040000D03*
X157210000Y-101420000D03*
X149590000Y-109040000D03*
X159750000Y-101420000D03*
X147050000Y-109040000D03*
X162290000Y-101420000D03*
D11*
X144510000Y-109040000D03*
X193420000Y-108970000D03*
D10*
X211200000Y-101350000D03*
X195960000Y-108970000D03*
X208660000Y-101350000D03*
X198500000Y-108970000D03*
X206120000Y-101350000D03*
X201040000Y-108970000D03*
X203580000Y-101350000D03*
X203580000Y-108970000D03*
X201040000Y-101350000D03*
X206120000Y-108970000D03*
X198500000Y-101350000D03*
X208660000Y-108970000D03*
X195960000Y-101350000D03*
X211200000Y-108970000D03*
X193420000Y-101350000D03*
D11*
X136370000Y-113790000D03*
D10*
X136370000Y-111250000D03*
X136370000Y-108710000D03*
X136370000Y-106170000D03*
X136370000Y-103630000D03*
X136370000Y-101090000D03*
X136370000Y-98550000D03*
X136370000Y-96010000D03*
X136370000Y-93470000D03*
D15*
X192307700Y-113801700D03*
X188692700Y-107376100D03*
X204533700Y-121715000D03*
X150905500Y-109886900D03*
X122000000Y-94500000D03*
X209500000Y-89000000D03*
X209500000Y-143500000D03*
X123000000Y-144000000D03*
X159069100Y-122938000D03*
X143598300Y-130144000D03*
X201991500Y-118138800D03*
X189520500Y-106378500D03*
X189421000Y-119787900D03*
X154883600Y-137607100D03*
X146507400Y-144826300D03*
X140971200Y-144711700D03*
X135892100Y-86232700D03*
X200463400Y-144436500D03*
X184169000Y-95381500D03*
X190774500Y-98466500D03*
X192984500Y-102887800D03*
D16*
X152560000Y-126965000D02*
X153860400Y-125664600D01*
X153860400Y-125664600D02*
X167094600Y-125664600D01*
X167094600Y-125664600D02*
X167165000Y-125735000D01*
X190420000Y-100970000D02*
X189444100Y-99994100D01*
X189444100Y-99994100D02*
X171495900Y-99994100D01*
X171495900Y-99994100D02*
X170140000Y-101350000D01*
X192119700Y-101350000D02*
X191739700Y-100970000D01*
X191739700Y-100970000D02*
X190420000Y-100970000D01*
X170140000Y-101350000D02*
X167520000Y-101350000D01*
X167520000Y-101350000D02*
X167140000Y-100970000D01*
X141550000Y-101040000D02*
X142829700Y-101040000D01*
X142829700Y-101040000D02*
X143209700Y-101420000D01*
X141510000Y-101040000D02*
X141550000Y-101040000D01*
X141550000Y-101040000D02*
X141550000Y-96830000D01*
X142039100Y-141460000D02*
X141430300Y-141460000D01*
X140080000Y-141460000D02*
X141430300Y-141460000D01*
X142620000Y-141460000D02*
X142039100Y-141460000D01*
X144510000Y-101420000D02*
X143209700Y-101420000D01*
X193420000Y-101350000D02*
X192119700Y-101350000D01*
X167165000Y-125735000D02*
X168444700Y-125735000D01*
X168444700Y-125735000D02*
X169039700Y-126330000D01*
X170340000Y-126330000D02*
X169039700Y-126330000D01*
X170260000Y-114060000D02*
X168959700Y-114060000D01*
X141630000Y-113770000D02*
X142969700Y-113770000D01*
X142969700Y-113770000D02*
X143329700Y-114130000D01*
X136370000Y-113790000D02*
X141610000Y-113790000D01*
X141610000Y-113790000D02*
X141630000Y-113770000D01*
X141630000Y-113770000D02*
X141630000Y-113750000D01*
X144630000Y-114130000D02*
X143329700Y-114130000D01*
X167260000Y-113680000D02*
X168579700Y-113680000D01*
X168579700Y-113680000D02*
X168959700Y-114060000D01*
X146040000Y-90000000D02*
X143500000Y-90000000D01*
D17*
X137495300Y-111250000D02*
X137945600Y-111700300D01*
X137945600Y-111700300D02*
X154056300Y-111700300D01*
X154056300Y-111700300D02*
X156204700Y-113848700D01*
X156204700Y-113848700D02*
X156204700Y-114130000D01*
X157330000Y-114130000D02*
X156204700Y-114130000D01*
X136370000Y-111250000D02*
X137495300Y-111250000D01*
X154670000Y-109040000D02*
X153544700Y-109040000D01*
X136370000Y-108710000D02*
X136370000Y-107584700D01*
X136370000Y-107584700D02*
X136088700Y-107584700D01*
X136088700Y-107584700D02*
X135218700Y-106714700D01*
X135218700Y-106714700D02*
X135218700Y-105728000D01*
X135218700Y-105728000D02*
X135932500Y-105014200D01*
X135932500Y-105014200D02*
X137381200Y-105014200D01*
X137381200Y-105014200D02*
X137495400Y-105128400D01*
X137495400Y-105128400D02*
X149914400Y-105128400D01*
X149914400Y-105128400D02*
X153544700Y-108758700D01*
X153544700Y-108758700D02*
X153544700Y-109040000D01*
X137495300Y-106170000D02*
X148339000Y-106170000D01*
X148339000Y-106170000D02*
X151004700Y-108835700D01*
X151004700Y-108835700D02*
X151004700Y-109040000D01*
X136370000Y-106170000D02*
X137495300Y-106170000D01*
X152130000Y-109040000D02*
X151004700Y-109040000D01*
X136370000Y-103630000D02*
X134768300Y-105231700D01*
X134768300Y-105231700D02*
X134768300Y-108710700D01*
X134768300Y-108710700D02*
X135949000Y-109891400D01*
X135949000Y-109891400D02*
X136835600Y-109891400D01*
X136835600Y-109891400D02*
X138858300Y-107868700D01*
X138858300Y-107868700D02*
X148418700Y-107868700D01*
X148418700Y-107868700D02*
X149590000Y-109040000D01*
X136370000Y-101090000D02*
X137495300Y-101090000D01*
X159750000Y-101420000D02*
X158624700Y-101420000D01*
X158624700Y-101420000D02*
X158624700Y-101701300D01*
X158624700Y-101701300D02*
X155648000Y-104678000D01*
X155648000Y-104678000D02*
X140942600Y-104678000D01*
X140942600Y-104678000D02*
X137495300Y-101230700D01*
X137495300Y-101230700D02*
X137495300Y-101090000D01*
X128430000Y-102200000D02*
X129605300Y-102200000D01*
X136370000Y-101090000D02*
X135244700Y-101090000D01*
X135244700Y-101090000D02*
X135179400Y-101024700D01*
X135179400Y-101024700D02*
X129972500Y-101024700D01*
X129972500Y-101024700D02*
X129605300Y-101391900D01*
X129605300Y-101391900D02*
X129605300Y-102200000D01*
X128430000Y-99660000D02*
X129605300Y-99660000D01*
X136370000Y-98550000D02*
X135244700Y-98550000D01*
X135244700Y-98550000D02*
X135179400Y-98484700D01*
X135179400Y-98484700D02*
X130413200Y-98484700D01*
X130413200Y-98484700D02*
X129605300Y-99292600D01*
X129605300Y-99292600D02*
X129605300Y-99660000D01*
X128430000Y-97120000D02*
X129605300Y-97120000D01*
X136370000Y-96010000D02*
X135244700Y-96010000D01*
X135244700Y-96010000D02*
X135179400Y-95944700D01*
X135179400Y-95944700D02*
X130413200Y-95944700D01*
X130413200Y-95944700D02*
X129605300Y-96752600D01*
X129605300Y-96752600D02*
X129605300Y-97120000D01*
X128430000Y-94580000D02*
X129605300Y-94580000D01*
X136370000Y-93470000D02*
X135244700Y-93470000D01*
X135244700Y-93470000D02*
X135179400Y-93404700D01*
X135179400Y-93404700D02*
X130413200Y-93404700D01*
X130413200Y-93404700D02*
X129605300Y-94212600D01*
X129605300Y-94212600D02*
X129605300Y-94580000D01*
X192307700Y-113801700D02*
X187770000Y-118339400D01*
X187770000Y-118339400D02*
X161584600Y-118339400D01*
X161584600Y-118339400D02*
X158455300Y-121468700D01*
X158455300Y-121468700D02*
X158455300Y-121750000D01*
X157330000Y-121750000D02*
X158455300Y-121750000D01*
X207544700Y-122920000D02*
X207544700Y-122656500D01*
X207544700Y-122656500D02*
X197351900Y-112463700D01*
X197351900Y-112463700D02*
X180363800Y-112463700D01*
X180363800Y-112463700D02*
X179294700Y-113532800D01*
X179294700Y-113532800D02*
X179294700Y-114261700D01*
X179294700Y-114261700D02*
X178371100Y-115185300D01*
X178371100Y-115185300D02*
X177309200Y-115185300D01*
X177309200Y-115185300D02*
X176465300Y-114341400D01*
X176465300Y-114341400D02*
X176465300Y-114060000D01*
X175340000Y-114060000D02*
X176465300Y-114060000D01*
X208720000Y-122920000D02*
X207544700Y-122920000D01*
X175340000Y-114060000D02*
X172800000Y-114060000D01*
X149590000Y-101420000D02*
X150715300Y-101420000D01*
X191760000Y-90000000D02*
X190584700Y-90000000D01*
X190584700Y-90000000D02*
X190584700Y-90367300D01*
X190584700Y-90367300D02*
X182063000Y-98889000D01*
X182063000Y-98889000D02*
X152965000Y-98889000D01*
X152965000Y-98889000D02*
X150715300Y-101138700D01*
X150715300Y-101138700D02*
X150715300Y-101420000D01*
X188692700Y-107376100D02*
X196062100Y-107376100D01*
X196062100Y-107376100D02*
X197374700Y-108688700D01*
X197374700Y-108688700D02*
X197374700Y-108970000D01*
X148175300Y-109040000D02*
X148175300Y-109321400D01*
X148175300Y-109321400D02*
X149469500Y-110615600D01*
X149469500Y-110615600D02*
X170580800Y-110615600D01*
X170580800Y-110615600D02*
X171265400Y-109931000D01*
X171265400Y-109931000D02*
X171265400Y-108779800D01*
X171265400Y-108779800D02*
X172669100Y-107376100D01*
X172669100Y-107376100D02*
X188692700Y-107376100D01*
X147050000Y-109040000D02*
X148175300Y-109040000D01*
X198500000Y-108970000D02*
X197374700Y-108970000D01*
X170260000Y-121680000D02*
X171385300Y-121680000D01*
X198500000Y-141460000D02*
X197324700Y-141460000D01*
X197324700Y-141460000D02*
X197324700Y-141783100D01*
X197324700Y-141783100D02*
X196472500Y-142635300D01*
X196472500Y-142635300D02*
X195471000Y-142635300D01*
X195471000Y-142635300D02*
X194690000Y-141854300D01*
X194690000Y-141854300D02*
X194690000Y-140515300D01*
X194690000Y-140515300D02*
X181770000Y-127595300D01*
X181770000Y-127595300D02*
X181770000Y-125951600D01*
X181770000Y-125951600D02*
X178623700Y-122805300D01*
X178623700Y-122805300D02*
X172229200Y-122805300D01*
X172229200Y-122805300D02*
X171385300Y-121961400D01*
X171385300Y-121961400D02*
X171385300Y-121680000D01*
X163415300Y-101420000D02*
X165466600Y-99368700D01*
X165466600Y-99368700D02*
X198137700Y-99368700D01*
X198137700Y-99368700D02*
X199914700Y-101145700D01*
X199914700Y-101145700D02*
X199914700Y-101350000D01*
X162290000Y-101420000D02*
X163415300Y-101420000D01*
X201040000Y-101350000D02*
X199914700Y-101350000D01*
X173925300Y-121680000D02*
X173925300Y-121398600D01*
X173925300Y-121398600D02*
X174769200Y-120554700D01*
X174769200Y-120554700D02*
X188189400Y-120554700D01*
X188189400Y-120554700D02*
X189349600Y-121714900D01*
X189349600Y-121714900D02*
X204533700Y-121714900D01*
X204533700Y-121714900D02*
X204533700Y-121715000D01*
X172800000Y-121680000D02*
X173925300Y-121680000D01*
X160875300Y-109040000D02*
X160875300Y-108758700D01*
X160875300Y-108758700D02*
X164214500Y-105419500D01*
X164214500Y-105419500D02*
X193539100Y-105419500D01*
X193539100Y-105419500D02*
X197374700Y-101583900D01*
X197374700Y-101583900D02*
X197374700Y-101350000D01*
X159750000Y-109040000D02*
X160875300Y-109040000D01*
X198500000Y-101350000D02*
X197374700Y-101350000D01*
X150905500Y-109886900D02*
X151183900Y-110165300D01*
X151183900Y-110165300D02*
X157737400Y-110165300D01*
X157737400Y-110165300D02*
X158480000Y-109422700D01*
X158480000Y-109422700D02*
X158480000Y-108680000D01*
X158480000Y-108680000D02*
X162564600Y-104595400D01*
X162564600Y-104595400D02*
X192302700Y-104595400D01*
X192302700Y-104595400D02*
X194834700Y-102063400D01*
X194834700Y-102063400D02*
X194834700Y-101350000D01*
X195960000Y-101350000D02*
X194834700Y-101350000D01*
D16*
X145160000Y-141460000D02*
X146349700Y-141460000D01*
X147700000Y-141460000D02*
X146349700Y-141460000D01*
X145160000Y-141460000D02*
X145160000Y-139459900D01*
X145160000Y-139459900D02*
X138500000Y-132799900D01*
X185380000Y-108970000D02*
X186680300Y-108970000D01*
X211200000Y-108970000D02*
X209899700Y-110270300D01*
X209899700Y-110270300D02*
X187980600Y-110270300D01*
X187980600Y-110270300D02*
X186680300Y-108970000D01*
X172680000Y-101350000D02*
X170560000Y-103470000D01*
X170560000Y-103470000D02*
X167140000Y-103470000D01*
X172680000Y-101350000D02*
X173919700Y-101350000D01*
X190420000Y-103470000D02*
X177340000Y-103470000D01*
X177340000Y-103470000D02*
X175220000Y-101350000D01*
X149710000Y-114130000D02*
X151760000Y-116180000D01*
X151760000Y-116180000D02*
X167260000Y-116180000D01*
X141510000Y-103540000D02*
X140206900Y-102236900D01*
X140206900Y-102236900D02*
X140206900Y-95673100D01*
X140206900Y-95673100D02*
X141550000Y-94330000D01*
X138500000Y-132799900D02*
X132010400Y-132799900D01*
X132010400Y-132799900D02*
X127850300Y-136960000D01*
X138500000Y-132000000D02*
X138500000Y-132799900D01*
X126500000Y-136960000D02*
X127850300Y-136960000D01*
X147170000Y-114130000D02*
X145050000Y-116250000D01*
X145050000Y-116250000D02*
X141630000Y-116250000D01*
X147170000Y-114130000D02*
X148409700Y-114130000D01*
X149710000Y-114130000D02*
X148409700Y-114130000D01*
X175220000Y-101350000D02*
X173919700Y-101350000D01*
X146040000Y-87460000D02*
X143500000Y-87460000D01*
D17*
X175220000Y-108970000D02*
X176634700Y-108970000D01*
X145635300Y-109040000D02*
X145635300Y-109258500D01*
X145635300Y-109258500D02*
X147442800Y-111066000D01*
X147442800Y-111066000D02*
X173124000Y-111066000D01*
X173124000Y-111066000D02*
X175220000Y-108970000D01*
X177760000Y-108970000D02*
X176634700Y-108970000D01*
X144510000Y-109040000D02*
X145635300Y-109040000D01*
X159069100Y-122938000D02*
X154852700Y-122938000D01*
X154852700Y-122938000D02*
X154790000Y-122875300D01*
X144630000Y-121750000D02*
X143504700Y-121750000D01*
X143504700Y-121750000D02*
X139254100Y-117499400D01*
X139254100Y-117499400D02*
X127968800Y-117499400D01*
X127968800Y-117499400D02*
X127216900Y-118251300D01*
X127216900Y-118251300D02*
X127216900Y-124300000D01*
X127216900Y-124300000D02*
X128071600Y-125154700D01*
X128071600Y-125154700D02*
X128430000Y-125154700D01*
X154790000Y-122875300D02*
X146599300Y-122875300D01*
X146599300Y-122875300D02*
X145755300Y-122031300D01*
X145755300Y-122031300D02*
X145755300Y-121750000D01*
X144630000Y-121750000D02*
X145755300Y-121750000D01*
X128430000Y-126330000D02*
X128430000Y-125154700D01*
X154790000Y-121750000D02*
X154790000Y-122875300D01*
X160995300Y-114130000D02*
X163025500Y-112099800D01*
X163025500Y-112099800D02*
X176237700Y-112099800D01*
X176237700Y-112099800D02*
X179174700Y-109162800D01*
X179174700Y-109162800D02*
X179174700Y-108970000D01*
X180300000Y-108970000D02*
X179174700Y-108970000D01*
X159870000Y-114130000D02*
X160995300Y-114130000D01*
X147170000Y-121750000D02*
X148295300Y-121750000D01*
X148295300Y-121750000D02*
X148295300Y-121468700D01*
X148295300Y-121468700D02*
X152007500Y-117756500D01*
X152007500Y-117756500D02*
X181803500Y-117756500D01*
X181803500Y-117756500D02*
X185500000Y-114060000D01*
X143598300Y-130144000D02*
X153148400Y-139694100D01*
X153148400Y-139694100D02*
X157830400Y-139694100D01*
X157830400Y-139694100D02*
X159130000Y-140993700D01*
X159130000Y-140993700D02*
X159130000Y-143369800D01*
X159130000Y-143369800D02*
X161670000Y-145909800D01*
X161670000Y-145909800D02*
X161670000Y-147038400D01*
X161670000Y-147038400D02*
X162346900Y-147715300D01*
X162346900Y-147715300D02*
X181276800Y-147715300D01*
X181276800Y-147715300D02*
X182084700Y-146907400D01*
X182084700Y-146907400D02*
X182084700Y-146540000D01*
X132145300Y-128870000D02*
X133419300Y-130144000D01*
X133419300Y-130144000D02*
X143598300Y-130144000D01*
X183260000Y-146540000D02*
X182084700Y-146540000D01*
X130970000Y-128870000D02*
X132145300Y-128870000D01*
X182960000Y-121680000D02*
X182960000Y-122805300D01*
X195960000Y-141460000D02*
X195960000Y-135102000D01*
X195960000Y-135102000D02*
X183663300Y-122805300D01*
X183663300Y-122805300D02*
X182960000Y-122805300D01*
X175340000Y-121680000D02*
X177880000Y-121680000D01*
X208720000Y-124284700D02*
X209087300Y-124284700D01*
X209087300Y-124284700D02*
X209905600Y-123466400D01*
X209905600Y-123466400D02*
X209905600Y-122430200D01*
X209905600Y-122430200D02*
X209125400Y-121650000D01*
X209125400Y-121650000D02*
X207544600Y-121650000D01*
X207544600Y-121650000D02*
X197852100Y-111957500D01*
X197852100Y-111957500D02*
X179982500Y-111957500D01*
X179982500Y-111957500D02*
X177880000Y-114060000D01*
X208720000Y-125460000D02*
X208720000Y-124284700D01*
X130970000Y-116170000D02*
X132145300Y-116170000D01*
X132145300Y-116170000D02*
X132145300Y-115949600D01*
X132145300Y-115949600D02*
X135471000Y-112623900D01*
X135471000Y-112623900D02*
X149800400Y-112623900D01*
X149800400Y-112623900D02*
X150835400Y-113658900D01*
X150835400Y-113658900D02*
X150835400Y-114371000D01*
X150835400Y-114371000D02*
X151719800Y-115255400D01*
X151719800Y-115255400D02*
X163239300Y-115255400D01*
X163239300Y-115255400D02*
X163454600Y-115040100D01*
X163454600Y-115040100D02*
X169648600Y-115040100D01*
X169648600Y-115040100D02*
X170245800Y-115637300D01*
X170245800Y-115637300D02*
X178842700Y-115637300D01*
X178842700Y-115637300D02*
X180420000Y-114060000D01*
X201991500Y-118138800D02*
X201991500Y-117875600D01*
X201991500Y-117875600D02*
X197036000Y-112920100D01*
X197036000Y-112920100D02*
X184943900Y-112920100D01*
X184943900Y-112920100D02*
X184085300Y-113778700D01*
X184085300Y-113778700D02*
X184085300Y-114060000D01*
X182960000Y-114060000D02*
X184085300Y-114060000D01*
X181545300Y-114060000D02*
X182960000Y-114060000D01*
X180420000Y-114060000D02*
X181545300Y-114060000D01*
X129605300Y-123790000D02*
X129605300Y-123422600D01*
X129605300Y-123422600D02*
X130413200Y-122614700D01*
X130413200Y-122614700D02*
X141923600Y-122614700D01*
X141923600Y-122614700D02*
X143465200Y-124156300D01*
X143465200Y-124156300D02*
X165474100Y-124156300D01*
X165474100Y-124156300D02*
X169842500Y-119787900D01*
X169842500Y-119787900D02*
X189421000Y-119787900D01*
X170140000Y-108970000D02*
X172731500Y-106378500D01*
X172731500Y-106378500D02*
X189520500Y-106378500D01*
X128430000Y-123790000D02*
X129605300Y-123790000D01*
X172680000Y-108970000D02*
X173805300Y-108970000D01*
X182840000Y-108970000D02*
X181714700Y-108970000D01*
X181714700Y-108970000D02*
X181714700Y-108688700D01*
X181714700Y-108688700D02*
X180870700Y-107844700D01*
X180870700Y-107844700D02*
X174649200Y-107844700D01*
X174649200Y-107844700D02*
X173805300Y-108688600D01*
X173805300Y-108688600D02*
X173805300Y-108970000D01*
X174294700Y-133950000D02*
X174294700Y-134231300D01*
X174294700Y-134231300D02*
X170918900Y-137607100D01*
X170918900Y-137607100D02*
X154883600Y-137607100D01*
X175420000Y-133950000D02*
X174294700Y-133950000D01*
X157860000Y-146540000D02*
X156684700Y-146540000D01*
X146507400Y-144826300D02*
X155338300Y-144826300D01*
X155338300Y-144826300D02*
X156684700Y-146172700D01*
X156684700Y-146172700D02*
X156684700Y-146540000D01*
X154144700Y-141460000D02*
X154144700Y-141827300D01*
X154144700Y-141827300D02*
X151871000Y-144101000D01*
X151871000Y-144101000D02*
X141581900Y-144101000D01*
X141581900Y-144101000D02*
X140971200Y-144711700D01*
X155320000Y-141460000D02*
X154144700Y-141460000D01*
X157564700Y-90000000D02*
X157564700Y-89632600D01*
X157564700Y-89632600D02*
X156756800Y-88824700D01*
X156756800Y-88824700D02*
X138484100Y-88824700D01*
X138484100Y-88824700D02*
X135892100Y-86232700D01*
X158740000Y-90000000D02*
X157564700Y-90000000D01*
X161280000Y-88824700D02*
X161647300Y-88824700D01*
X161647300Y-88824700D02*
X162470600Y-88001400D01*
X162470600Y-88001400D02*
X162470600Y-86969300D01*
X162470600Y-86969300D02*
X160558400Y-85057100D01*
X160558400Y-85057100D02*
X128661600Y-85057100D01*
X128661600Y-85057100D02*
X125308700Y-88410000D01*
X125308700Y-88410000D02*
X125308700Y-140536300D01*
X125308700Y-140536300D02*
X130137100Y-145364700D01*
X130137100Y-145364700D02*
X140598500Y-145364700D01*
X140598500Y-145364700D02*
X140670800Y-145437000D01*
X140670800Y-145437000D02*
X141271700Y-145437000D01*
X141271700Y-145437000D02*
X141344000Y-145364700D01*
X141344000Y-145364700D02*
X146020100Y-145364700D01*
X146020100Y-145364700D02*
X146207000Y-145551600D01*
X146207000Y-145551600D02*
X146807900Y-145551600D01*
X146807900Y-145551600D02*
X146994800Y-145364700D01*
X146994800Y-145364700D02*
X148256800Y-145364700D01*
X148256800Y-145364700D02*
X149064700Y-146172600D01*
X149064700Y-146172600D02*
X149064700Y-146540000D01*
X161280000Y-90000000D02*
X161280000Y-88824700D01*
X150240000Y-146540000D02*
X149064700Y-146540000D01*
X160104700Y-87460000D02*
X160104700Y-87092700D01*
X160104700Y-87092700D02*
X158519400Y-85507400D01*
X158519400Y-85507400D02*
X135591700Y-85507400D01*
X135591700Y-85507400D02*
X133641400Y-87457700D01*
X133641400Y-87457700D02*
X133641400Y-88568900D01*
X133641400Y-88568900D02*
X131345700Y-90864600D01*
X131345700Y-90864600D02*
X130480600Y-90864600D01*
X130480600Y-90864600D02*
X129769800Y-91575400D01*
X129769800Y-91575400D02*
X129769800Y-92435400D01*
X129769800Y-92435400D02*
X128895200Y-93310000D01*
X128895200Y-93310000D02*
X127972300Y-93310000D01*
X127972300Y-93310000D02*
X126730300Y-94552000D01*
X126730300Y-94552000D02*
X126730300Y-128905300D01*
X126730300Y-128905300D02*
X128680600Y-130855600D01*
X128680600Y-130855600D02*
X141948300Y-130855600D01*
X141948300Y-130855600D02*
X150240000Y-139147300D01*
X150240000Y-139147300D02*
X150240000Y-140284700D01*
X150240000Y-141460000D02*
X150240000Y-140284700D01*
X161280000Y-87460000D02*
X160104700Y-87460000D01*
X166655300Y-146540000D02*
X166655300Y-146172700D01*
X166655300Y-146172700D02*
X168841800Y-143986200D01*
X168841800Y-143986200D02*
X199506600Y-143986200D01*
X199506600Y-143986200D02*
X213724400Y-129768400D01*
X213724400Y-129768400D02*
X213724400Y-102247200D01*
X213724400Y-102247200D02*
X196854000Y-85376800D01*
X196854000Y-85376800D02*
X174353500Y-85376800D01*
X174353500Y-85376800D02*
X172802000Y-86928300D01*
X172802000Y-86928300D02*
X172802000Y-88014000D01*
X172802000Y-88014000D02*
X173612700Y-88824700D01*
X173612700Y-88824700D02*
X173980000Y-88824700D01*
X165480000Y-146540000D02*
X166655300Y-146540000D01*
X173980000Y-90000000D02*
X173980000Y-88824700D01*
X164115300Y-146540000D02*
X164115300Y-146225900D01*
X164115300Y-146225900D02*
X166805300Y-143535900D01*
X166805300Y-143535900D02*
X199261800Y-143535900D01*
X199261800Y-143535900D02*
X213226100Y-129571600D01*
X213226100Y-129571600D02*
X213226100Y-107581200D01*
X213226100Y-107581200D02*
X209930000Y-104285100D01*
X209930000Y-104285100D02*
X209930000Y-100961400D01*
X209930000Y-100961400D02*
X194795800Y-85827200D01*
X194795800Y-85827200D02*
X176417100Y-85827200D01*
X176417100Y-85827200D02*
X175338700Y-86905600D01*
X175338700Y-86905600D02*
X175338700Y-88010700D01*
X175338700Y-88010700D02*
X176152700Y-88824700D01*
X176152700Y-88824700D02*
X176520000Y-88824700D01*
X162940000Y-146540000D02*
X164115300Y-146540000D01*
X176520000Y-90000000D02*
X176520000Y-88824700D01*
X164115300Y-141460000D02*
X164115300Y-141827400D01*
X164115300Y-141827400D02*
X165373500Y-143085600D01*
X165373500Y-143085600D02*
X199075200Y-143085600D01*
X199075200Y-143085600D02*
X212775800Y-129385000D01*
X212775800Y-129385000D02*
X212775800Y-107844100D01*
X212775800Y-107844100D02*
X207390000Y-102458300D01*
X207390000Y-102458300D02*
X207390000Y-100976600D01*
X207390000Y-100976600D02*
X192690900Y-86277500D01*
X192690900Y-86277500D02*
X178510500Y-86277500D01*
X178510500Y-86277500D02*
X177695300Y-87092700D01*
X177695300Y-87092700D02*
X177695300Y-87460000D01*
X162940000Y-141460000D02*
X164115300Y-141460000D01*
X176520000Y-87460000D02*
X177695300Y-87460000D01*
X171735300Y-146540000D02*
X171735300Y-146172700D01*
X171735300Y-146172700D02*
X173471500Y-144436500D01*
X173471500Y-144436500D02*
X200463400Y-144436500D01*
X170560000Y-146540000D02*
X171735300Y-146540000D01*
X184140000Y-88635300D02*
X183772700Y-88635300D01*
X183772700Y-88635300D02*
X182949400Y-89458600D01*
X182949400Y-89458600D02*
X182949400Y-94161900D01*
X182949400Y-94161900D02*
X184169000Y-95381500D01*
X184140000Y-87460000D02*
X184140000Y-88635300D01*
X129605300Y-128870000D02*
X129605300Y-128062000D01*
X129605300Y-128062000D02*
X129972700Y-127694600D01*
X129972700Y-127694600D02*
X142222900Y-127694600D01*
X142222900Y-127694600D02*
X153311000Y-138782700D01*
X153311000Y-138782700D02*
X179774800Y-138782700D01*
X179774800Y-138782700D02*
X182084700Y-141092600D01*
X182084700Y-141092600D02*
X182084700Y-141460000D01*
X183260000Y-141460000D02*
X182084700Y-141460000D01*
X128430000Y-128870000D02*
X129605300Y-128870000D01*
X132145300Y-126330000D02*
X141495300Y-126330000D01*
X141495300Y-126330000D02*
X153497700Y-138332400D01*
X153497700Y-138332400D02*
X181864400Y-138332400D01*
X181864400Y-138332400D02*
X184624700Y-141092700D01*
X184624700Y-141092700D02*
X184624700Y-141460000D01*
X130970000Y-126330000D02*
X132145300Y-126330000D01*
X185800000Y-141460000D02*
X184624700Y-141460000D01*
X171754700Y-133950000D02*
X171754700Y-134658600D01*
X171754700Y-134658600D02*
X171319200Y-135094100D01*
X171319200Y-135094100D02*
X150896300Y-135094100D01*
X150896300Y-135094100D02*
X139592200Y-123790000D01*
X139592200Y-123790000D02*
X132145300Y-123790000D01*
X172880000Y-133950000D02*
X174011100Y-132818900D01*
X174011100Y-132818900D02*
X175890900Y-132818900D01*
X175890900Y-132818900D02*
X176690000Y-133618000D01*
X176690000Y-133618000D02*
X176690000Y-134346700D01*
X176690000Y-134346700D02*
X179254300Y-136911000D01*
X179254300Y-136911000D02*
X182983000Y-136911000D01*
X182983000Y-136911000D02*
X187164700Y-141092700D01*
X187164700Y-141092700D02*
X187164700Y-141460000D01*
X188340000Y-141460000D02*
X187164700Y-141460000D01*
X172510100Y-133950000D02*
X172880000Y-133950000D01*
X172510100Y-133950000D02*
X171754700Y-133950000D01*
X130970000Y-123790000D02*
X132145300Y-123790000D01*
X129605300Y-118710000D02*
X129605300Y-119077400D01*
X129605300Y-119077400D02*
X130413200Y-119885300D01*
X130413200Y-119885300D02*
X140705200Y-119885300D01*
X140705200Y-119885300D02*
X144525800Y-123705900D01*
X144525800Y-123705900D02*
X162735800Y-123705900D01*
X162735800Y-123705900D02*
X167379200Y-119062500D01*
X167379200Y-119062500D02*
X197472200Y-119062500D01*
X197472200Y-119062500D02*
X198644700Y-117890000D01*
X199820000Y-117890000D02*
X198644700Y-117890000D01*
X128430000Y-118710000D02*
X129605300Y-118710000D01*
X126500000Y-139500000D02*
X127675300Y-139500000D01*
X137540000Y-141460000D02*
X129635300Y-141460000D01*
X129635300Y-141460000D02*
X127675300Y-139500000D01*
X208720000Y-128000000D02*
X208720000Y-126824700D01*
X190774500Y-98466500D02*
X199791400Y-98466500D01*
X199791400Y-98466500D02*
X202454600Y-101129700D01*
X202454600Y-101129700D02*
X202454600Y-101874900D01*
X202454600Y-101874900D02*
X203199700Y-102620000D01*
X203199700Y-102620000D02*
X206500100Y-102620000D01*
X206500100Y-102620000D02*
X212325400Y-108445300D01*
X212325400Y-108445300D02*
X212325400Y-123586600D01*
X212325400Y-123586600D02*
X209087300Y-126824700D01*
X209087300Y-126824700D02*
X208720000Y-126824700D01*
X182840000Y-101350000D02*
X183965300Y-101350000D01*
X183965300Y-101350000D02*
X183965300Y-101631300D01*
X183965300Y-101631300D02*
X184823900Y-102489900D01*
X184823900Y-102489900D02*
X187594800Y-102489900D01*
X187594800Y-102489900D02*
X187740100Y-102344600D01*
X187740100Y-102344600D02*
X192441300Y-102344600D01*
X192441300Y-102344600D02*
X192984500Y-102887800D01*
X180300000Y-101350000D02*
X182840000Y-101350000D01*
X170340000Y-133950000D02*
X169214700Y-133950000D01*
X162720000Y-131410000D02*
X166674700Y-131410000D01*
X166674700Y-131410000D02*
X169214700Y-133950000D01*
X181654200Y-135081900D02*
X180008400Y-135081900D01*
X180008400Y-135081900D02*
X179230000Y-134303500D01*
X179230000Y-134303500D02*
X179230000Y-133599000D01*
X179230000Y-133599000D02*
X177946400Y-132315400D01*
X177946400Y-132315400D02*
X171974600Y-132315400D01*
X171974600Y-132315400D02*
X170340000Y-133950000D01*
X189704700Y-141460000D02*
X189704700Y-141092700D01*
X189704700Y-141092700D02*
X183693900Y-135081900D01*
X183693900Y-135081900D02*
X181654200Y-135081900D01*
X181654200Y-135081900D02*
X181654200Y-128609500D01*
X181654200Y-128609500D02*
X180500000Y-127455300D01*
X180500000Y-126330000D02*
X180500000Y-127455300D01*
X190880000Y-141460000D02*
X189704700Y-141460000D01*
X146750300Y-127600000D02*
X146750300Y-127232700D01*
X146750300Y-127232700D02*
X149373400Y-124609600D01*
X149373400Y-124609600D02*
X172855600Y-124609600D01*
X172855600Y-124609600D02*
X174294700Y-126048700D01*
X174294700Y-126048700D02*
X174294700Y-126330000D01*
X180500000Y-133950000D02*
X180500000Y-132824700D01*
X180500000Y-132824700D02*
X175420000Y-127744700D01*
X175420000Y-127744700D02*
X175420000Y-126330000D01*
X175420000Y-126330000D02*
X174294700Y-126330000D01*
X145575000Y-127600000D02*
X146750300Y-127600000D01*
X172880000Y-126330000D02*
X171754700Y-126330000D01*
X162720000Y-126965000D02*
X168541000Y-126965000D01*
X168541000Y-126965000D02*
X169031300Y-127455300D01*
X169031300Y-127455300D02*
X170910800Y-127455300D01*
X170910800Y-127455300D02*
X171754700Y-126611400D01*
X171754700Y-126611400D02*
X171754700Y-126330000D01*
D18*
G36*
X216290001Y-152290000D02*
G01*
X117710000Y-152290000D01*
X117710000Y-148279872D01*
X120265000Y-148279872D01*
X120265000Y-148720128D01*
X120350890Y-149151925D01*
X120519369Y-149558669D01*
X120763962Y-149924729D01*
X121075271Y-150236038D01*
X121441331Y-150480631D01*
X121848075Y-150649110D01*
X122279872Y-150735000D01*
X122720128Y-150735000D01*
X123151925Y-150649110D01*
X123558669Y-150480631D01*
X123924729Y-150236038D01*
X124236038Y-149924729D01*
X124480631Y-149558669D01*
X124649110Y-149151925D01*
X124735000Y-148720128D01*
X124735000Y-148279872D01*
X124649110Y-147848075D01*
X124480631Y-147441331D01*
X124236038Y-147075271D01*
X123924729Y-146763962D01*
X123558669Y-146519369D01*
X123151925Y-146350890D01*
X122720128Y-146265000D01*
X122279872Y-146265000D01*
X121848075Y-146350890D01*
X121441331Y-146519369D01*
X121075271Y-146763962D01*
X120763962Y-147075271D01*
X120519369Y-147441331D01*
X120350890Y-147848075D01*
X120265000Y-148279872D01*
X117710000Y-148279872D01*
X117710000Y-88410000D01*
X124545024Y-88410000D01*
X124548700Y-88447322D01*
X124548701Y-140498967D01*
X124545024Y-140536300D01*
X124548701Y-140573633D01*
X124559698Y-140685286D01*
X124565525Y-140704494D01*
X124603154Y-140828546D01*
X124673726Y-140960576D01*
X124734064Y-141034097D01*
X124768700Y-141076301D01*
X124797698Y-141100099D01*
X129573300Y-145875702D01*
X129597099Y-145904701D01*
X129712824Y-145999674D01*
X129844853Y-146070246D01*
X129988114Y-146113703D01*
X130099767Y-146124700D01*
X130099775Y-146124700D01*
X130137100Y-146128376D01*
X130174425Y-146124700D01*
X136114159Y-146124700D01*
X136076487Y-146248889D01*
X136047815Y-146540000D01*
X136076487Y-146831111D01*
X136161401Y-147111034D01*
X136299294Y-147369014D01*
X136484866Y-147595134D01*
X136710986Y-147780706D01*
X136968966Y-147918599D01*
X137248889Y-148003513D01*
X137467050Y-148025000D01*
X137612950Y-148025000D01*
X137831111Y-148003513D01*
X138111034Y-147918599D01*
X138369014Y-147780706D01*
X138595134Y-147595134D01*
X138780706Y-147369014D01*
X138810000Y-147314209D01*
X138839294Y-147369014D01*
X139024866Y-147595134D01*
X139250986Y-147780706D01*
X139508966Y-147918599D01*
X139788889Y-148003513D01*
X140007050Y-148025000D01*
X140152950Y-148025000D01*
X140371111Y-148003513D01*
X140651034Y-147918599D01*
X140909014Y-147780706D01*
X141135134Y-147595134D01*
X141320706Y-147369014D01*
X141350000Y-147314209D01*
X141379294Y-147369014D01*
X141564866Y-147595134D01*
X141790986Y-147780706D01*
X142048966Y-147918599D01*
X142328889Y-148003513D01*
X142547050Y-148025000D01*
X142692950Y-148025000D01*
X142911111Y-148003513D01*
X143191034Y-147918599D01*
X143449014Y-147780706D01*
X143675134Y-147595134D01*
X143860706Y-147369014D01*
X143890000Y-147314209D01*
X143919294Y-147369014D01*
X144104866Y-147595134D01*
X144330986Y-147780706D01*
X144588966Y-147918599D01*
X144868889Y-148003513D01*
X145087050Y-148025000D01*
X145232950Y-148025000D01*
X145451111Y-148003513D01*
X145731034Y-147918599D01*
X145989014Y-147780706D01*
X146215134Y-147595134D01*
X146400706Y-147369014D01*
X146430000Y-147314209D01*
X146459294Y-147369014D01*
X146644866Y-147595134D01*
X146870986Y-147780706D01*
X147128966Y-147918599D01*
X147408889Y-148003513D01*
X147627050Y-148025000D01*
X147772950Y-148025000D01*
X147991111Y-148003513D01*
X148271034Y-147918599D01*
X148529014Y-147780706D01*
X148755134Y-147595134D01*
X148940706Y-147369014D01*
X148970000Y-147314209D01*
X148999294Y-147369014D01*
X149184866Y-147595134D01*
X149410986Y-147780706D01*
X149668966Y-147918599D01*
X149948889Y-148003513D01*
X150167050Y-148025000D01*
X150312950Y-148025000D01*
X150531111Y-148003513D01*
X150811034Y-147918599D01*
X151069014Y-147780706D01*
X151295134Y-147595134D01*
X151480706Y-147369014D01*
X151510000Y-147314209D01*
X151539294Y-147369014D01*
X151724866Y-147595134D01*
X151950986Y-147780706D01*
X152208966Y-147918599D01*
X152488889Y-148003513D01*
X152707050Y-148025000D01*
X152852950Y-148025000D01*
X153071111Y-148003513D01*
X153351034Y-147918599D01*
X153609014Y-147780706D01*
X153835134Y-147595134D01*
X154020706Y-147369014D01*
X154050000Y-147314209D01*
X154079294Y-147369014D01*
X154264866Y-147595134D01*
X154490986Y-147780706D01*
X154748966Y-147918599D01*
X155028889Y-148003513D01*
X155247050Y-148025000D01*
X155392950Y-148025000D01*
X155611111Y-148003513D01*
X155891034Y-147918599D01*
X156149014Y-147780706D01*
X156375134Y-147595134D01*
X156560706Y-147369014D01*
X156590000Y-147314209D01*
X156619294Y-147369014D01*
X156804866Y-147595134D01*
X157030986Y-147780706D01*
X157288966Y-147918599D01*
X157568889Y-148003513D01*
X157787050Y-148025000D01*
X157932950Y-148025000D01*
X158151111Y-148003513D01*
X158431034Y-147918599D01*
X158689014Y-147780706D01*
X158915134Y-147595134D01*
X159100706Y-147369014D01*
X159130000Y-147314209D01*
X159159294Y-147369014D01*
X159344866Y-147595134D01*
X159570986Y-147780706D01*
X159828966Y-147918599D01*
X160108889Y-148003513D01*
X160327050Y-148025000D01*
X160472950Y-148025000D01*
X160691111Y-148003513D01*
X160971034Y-147918599D01*
X161229014Y-147780706D01*
X161288602Y-147731803D01*
X161783101Y-148226302D01*
X161806899Y-148255301D01*
X161922624Y-148350274D01*
X162054653Y-148420846D01*
X162197914Y-148464303D01*
X162309567Y-148475300D01*
X162309576Y-148475300D01*
X162346899Y-148478976D01*
X162384222Y-148475300D01*
X181239478Y-148475300D01*
X181276800Y-148478976D01*
X181314122Y-148475300D01*
X181314133Y-148475300D01*
X181425786Y-148464303D01*
X181569047Y-148420846D01*
X181701076Y-148350274D01*
X181786861Y-148279872D01*
X209265000Y-148279872D01*
X209265000Y-148720128D01*
X209350890Y-149151925D01*
X209519369Y-149558669D01*
X209763962Y-149924729D01*
X210075271Y-150236038D01*
X210441331Y-150480631D01*
X210848075Y-150649110D01*
X211279872Y-150735000D01*
X211720128Y-150735000D01*
X212151925Y-150649110D01*
X212558669Y-150480631D01*
X212924729Y-150236038D01*
X213236038Y-149924729D01*
X213480631Y-149558669D01*
X213649110Y-149151925D01*
X213735000Y-148720128D01*
X213735000Y-148279872D01*
X213649110Y-147848075D01*
X213480631Y-147441331D01*
X213236038Y-147075271D01*
X212924729Y-146763962D01*
X212558669Y-146519369D01*
X212151925Y-146350890D01*
X211720128Y-146265000D01*
X211279872Y-146265000D01*
X210848075Y-146350890D01*
X210441331Y-146519369D01*
X210075271Y-146763962D01*
X209763962Y-147075271D01*
X209519369Y-147441331D01*
X209350890Y-147848075D01*
X209265000Y-148279872D01*
X181786861Y-148279872D01*
X181816801Y-148255301D01*
X181840603Y-148226298D01*
X182351461Y-147715441D01*
X182430986Y-147780706D01*
X182688966Y-147918599D01*
X182968889Y-148003513D01*
X183187050Y-148025000D01*
X183332950Y-148025000D01*
X183551111Y-148003513D01*
X183831034Y-147918599D01*
X184089014Y-147780706D01*
X184315134Y-147595134D01*
X184500706Y-147369014D01*
X184530000Y-147314209D01*
X184559294Y-147369014D01*
X184744866Y-147595134D01*
X184970986Y-147780706D01*
X185228966Y-147918599D01*
X185508889Y-148003513D01*
X185727050Y-148025000D01*
X185872950Y-148025000D01*
X186091111Y-148003513D01*
X186371034Y-147918599D01*
X186629014Y-147780706D01*
X186855134Y-147595134D01*
X187040706Y-147369014D01*
X187070000Y-147314209D01*
X187099294Y-147369014D01*
X187284866Y-147595134D01*
X187510986Y-147780706D01*
X187768966Y-147918599D01*
X188048889Y-148003513D01*
X188267050Y-148025000D01*
X188412950Y-148025000D01*
X188631111Y-148003513D01*
X188911034Y-147918599D01*
X189169014Y-147780706D01*
X189395134Y-147595134D01*
X189580706Y-147369014D01*
X189610000Y-147314209D01*
X189639294Y-147369014D01*
X189824866Y-147595134D01*
X190050986Y-147780706D01*
X190308966Y-147918599D01*
X190588889Y-148003513D01*
X190807050Y-148025000D01*
X190952950Y-148025000D01*
X191171111Y-148003513D01*
X191451034Y-147918599D01*
X191709014Y-147780706D01*
X191935134Y-147595134D01*
X192120706Y-147369014D01*
X192150000Y-147314209D01*
X192179294Y-147369014D01*
X192364866Y-147595134D01*
X192590986Y-147780706D01*
X192848966Y-147918599D01*
X193128889Y-148003513D01*
X193347050Y-148025000D01*
X193492950Y-148025000D01*
X193711111Y-148003513D01*
X193991034Y-147918599D01*
X194249014Y-147780706D01*
X194475134Y-147595134D01*
X194660706Y-147369014D01*
X194690000Y-147314209D01*
X194719294Y-147369014D01*
X194904866Y-147595134D01*
X195130986Y-147780706D01*
X195388966Y-147918599D01*
X195668889Y-148003513D01*
X195887050Y-148025000D01*
X196032950Y-148025000D01*
X196251111Y-148003513D01*
X196531034Y-147918599D01*
X196789014Y-147780706D01*
X197015134Y-147595134D01*
X197200706Y-147369014D01*
X197230000Y-147314209D01*
X197259294Y-147369014D01*
X197444866Y-147595134D01*
X197670986Y-147780706D01*
X197928966Y-147918599D01*
X198208889Y-148003513D01*
X198427050Y-148025000D01*
X198572950Y-148025000D01*
X198791111Y-148003513D01*
X199071034Y-147918599D01*
X199329014Y-147780706D01*
X199555134Y-147595134D01*
X199740706Y-147369014D01*
X199878599Y-147111034D01*
X199963513Y-146831111D01*
X199992185Y-146540000D01*
X199963513Y-146248889D01*
X199878599Y-145968966D01*
X199740706Y-145710986D01*
X199555134Y-145484866D01*
X199329014Y-145299294D01*
X199136700Y-145196500D01*
X199759689Y-145196500D01*
X199803626Y-145240437D01*
X199973144Y-145353705D01*
X200161502Y-145431726D01*
X200361461Y-145471500D01*
X200565339Y-145471500D01*
X200765298Y-145431726D01*
X200953656Y-145353705D01*
X201123174Y-145240437D01*
X201267337Y-145096274D01*
X201380605Y-144926756D01*
X201458626Y-144738398D01*
X201498400Y-144538439D01*
X201498400Y-144334561D01*
X201458626Y-144134602D01*
X201380605Y-143946244D01*
X201267337Y-143776726D01*
X201123174Y-143632563D01*
X201010395Y-143557206D01*
X214235404Y-130332198D01*
X214264401Y-130308401D01*
X214359374Y-130192676D01*
X214429946Y-130060647D01*
X214473403Y-129917386D01*
X214484400Y-129805733D01*
X214484400Y-129805732D01*
X214488077Y-129768400D01*
X214484400Y-129731067D01*
X214484400Y-102284522D01*
X214488076Y-102247199D01*
X214484400Y-102209876D01*
X214484400Y-102209867D01*
X214473403Y-102098214D01*
X214429946Y-101954953D01*
X214359374Y-101822924D01*
X214344335Y-101804599D01*
X214288199Y-101736196D01*
X214288195Y-101736192D01*
X214264401Y-101707199D01*
X214235408Y-101683405D01*
X197417804Y-84865803D01*
X197394001Y-84836799D01*
X197278276Y-84741826D01*
X197146247Y-84671254D01*
X197002986Y-84627797D01*
X196891333Y-84616800D01*
X196891322Y-84616800D01*
X196854000Y-84613124D01*
X196816678Y-84616800D01*
X174390822Y-84616800D01*
X174353499Y-84613124D01*
X174316176Y-84616800D01*
X174316167Y-84616800D01*
X174204514Y-84627797D01*
X174061253Y-84671254D01*
X173929224Y-84741826D01*
X173813499Y-84836799D01*
X173789701Y-84865797D01*
X172360843Y-86294656D01*
X172269014Y-86219294D01*
X172011034Y-86081401D01*
X171731111Y-85996487D01*
X171512950Y-85975000D01*
X171367050Y-85975000D01*
X171148889Y-85996487D01*
X170868966Y-86081401D01*
X170610986Y-86219294D01*
X170384866Y-86404866D01*
X170199294Y-86630986D01*
X170170000Y-86685791D01*
X170140706Y-86630986D01*
X169955134Y-86404866D01*
X169729014Y-86219294D01*
X169471034Y-86081401D01*
X169191111Y-85996487D01*
X168972950Y-85975000D01*
X168827050Y-85975000D01*
X168608889Y-85996487D01*
X168328966Y-86081401D01*
X168070986Y-86219294D01*
X167844866Y-86404866D01*
X167659294Y-86630986D01*
X167630000Y-86685791D01*
X167600706Y-86630986D01*
X167415134Y-86404866D01*
X167189014Y-86219294D01*
X166931034Y-86081401D01*
X166651111Y-85996487D01*
X166432950Y-85975000D01*
X166287050Y-85975000D01*
X166068889Y-85996487D01*
X165788966Y-86081401D01*
X165530986Y-86219294D01*
X165304866Y-86404866D01*
X165119294Y-86630986D01*
X165090000Y-86685791D01*
X165060706Y-86630986D01*
X164875134Y-86404866D01*
X164649014Y-86219294D01*
X164391034Y-86081401D01*
X164111111Y-85996487D01*
X163892950Y-85975000D01*
X163747050Y-85975000D01*
X163528889Y-85996487D01*
X163248966Y-86081401D01*
X162990986Y-86219294D01*
X162883559Y-86307457D01*
X161122204Y-84546103D01*
X161098401Y-84517099D01*
X160982676Y-84422126D01*
X160850647Y-84351554D01*
X160707386Y-84308097D01*
X160595733Y-84297100D01*
X160595722Y-84297100D01*
X160558400Y-84293424D01*
X160521078Y-84297100D01*
X128698925Y-84297100D01*
X128661600Y-84293424D01*
X128624275Y-84297100D01*
X128624267Y-84297100D01*
X128512614Y-84308097D01*
X128369353Y-84351554D01*
X128237324Y-84422126D01*
X128121599Y-84517099D01*
X128097801Y-84546097D01*
X124797703Y-87846196D01*
X124768699Y-87869999D01*
X124719660Y-87929754D01*
X124673726Y-87985724D01*
X124645392Y-88038733D01*
X124603154Y-88117754D01*
X124559697Y-88261015D01*
X124548700Y-88372668D01*
X124548700Y-88372678D01*
X124545024Y-88410000D01*
X117710000Y-88410000D01*
X117710000Y-82279872D01*
X120265000Y-82279872D01*
X120265000Y-82720128D01*
X120350890Y-83151925D01*
X120519369Y-83558669D01*
X120763962Y-83924729D01*
X121075271Y-84236038D01*
X121441331Y-84480631D01*
X121848075Y-84649110D01*
X122279872Y-84735000D01*
X122720128Y-84735000D01*
X123151925Y-84649110D01*
X123558669Y-84480631D01*
X123924729Y-84236038D01*
X124236038Y-83924729D01*
X124480631Y-83558669D01*
X124649110Y-83151925D01*
X124735000Y-82720128D01*
X124735000Y-82279872D01*
X209265000Y-82279872D01*
X209265000Y-82720128D01*
X209350890Y-83151925D01*
X209519369Y-83558669D01*
X209763962Y-83924729D01*
X210075271Y-84236038D01*
X210441331Y-84480631D01*
X210848075Y-84649110D01*
X211279872Y-84735000D01*
X211720128Y-84735000D01*
X212151925Y-84649110D01*
X212558669Y-84480631D01*
X212924729Y-84236038D01*
X213236038Y-83924729D01*
X213480631Y-83558669D01*
X213649110Y-83151925D01*
X213735000Y-82720128D01*
X213735000Y-82279872D01*
X213649110Y-81848075D01*
X213480631Y-81441331D01*
X213236038Y-81075271D01*
X212924729Y-80763962D01*
X212558669Y-80519369D01*
X212151925Y-80350890D01*
X211720128Y-80265000D01*
X211279872Y-80265000D01*
X210848075Y-80350890D01*
X210441331Y-80519369D01*
X210075271Y-80763962D01*
X209763962Y-81075271D01*
X209519369Y-81441331D01*
X209350890Y-81848075D01*
X209265000Y-82279872D01*
X124735000Y-82279872D01*
X124649110Y-81848075D01*
X124480631Y-81441331D01*
X124236038Y-81075271D01*
X123924729Y-80763962D01*
X123558669Y-80519369D01*
X123151925Y-80350890D01*
X122720128Y-80265000D01*
X122279872Y-80265000D01*
X121848075Y-80350890D01*
X121441331Y-80519369D01*
X121075271Y-80763962D01*
X120763962Y-81075271D01*
X120519369Y-81441331D01*
X120350890Y-81848075D01*
X120265000Y-82279872D01*
X117710000Y-82279872D01*
X117710000Y-78710000D01*
X216290000Y-78710000D01*
X216290001Y-152290000D01*
X216290001Y-152290000D01*
G37*
X216290001Y-152290000D02*
X117710000Y-152290000D01*
X117710000Y-148279872D01*
X120265000Y-148279872D01*
X120265000Y-148720128D01*
X120350890Y-149151925D01*
X120519369Y-149558669D01*
X120763962Y-149924729D01*
X121075271Y-150236038D01*
X121441331Y-150480631D01*
X121848075Y-150649110D01*
X122279872Y-150735000D01*
X122720128Y-150735000D01*
X123151925Y-150649110D01*
X123558669Y-150480631D01*
X123924729Y-150236038D01*
X124236038Y-149924729D01*
X124480631Y-149558669D01*
X124649110Y-149151925D01*
X124735000Y-148720128D01*
X124735000Y-148279872D01*
X124649110Y-147848075D01*
X124480631Y-147441331D01*
X124236038Y-147075271D01*
X123924729Y-146763962D01*
X123558669Y-146519369D01*
X123151925Y-146350890D01*
X122720128Y-146265000D01*
X122279872Y-146265000D01*
X121848075Y-146350890D01*
X121441331Y-146519369D01*
X121075271Y-146763962D01*
X120763962Y-147075271D01*
X120519369Y-147441331D01*
X120350890Y-147848075D01*
X120265000Y-148279872D01*
X117710000Y-148279872D01*
X117710000Y-88410000D01*
X124545024Y-88410000D01*
X124548700Y-88447322D01*
X124548701Y-140498967D01*
X124545024Y-140536300D01*
X124548701Y-140573633D01*
X124559698Y-140685286D01*
X124565525Y-140704494D01*
X124603154Y-140828546D01*
X124673726Y-140960576D01*
X124734064Y-141034097D01*
X124768700Y-141076301D01*
X124797698Y-141100099D01*
X129573300Y-145875702D01*
X129597099Y-145904701D01*
X129712824Y-145999674D01*
X129844853Y-146070246D01*
X129988114Y-146113703D01*
X130099767Y-146124700D01*
X130099775Y-146124700D01*
X130137100Y-146128376D01*
X130174425Y-146124700D01*
X136114159Y-146124700D01*
X136076487Y-146248889D01*
X136047815Y-146540000D01*
X136076487Y-146831111D01*
X136161401Y-147111034D01*
X136299294Y-147369014D01*
X136484866Y-147595134D01*
X136710986Y-147780706D01*
X136968966Y-147918599D01*
X137248889Y-148003513D01*
X137467050Y-148025000D01*
X137612950Y-148025000D01*
X137831111Y-148003513D01*
X138111034Y-147918599D01*
X138369014Y-147780706D01*
X138595134Y-147595134D01*
X138780706Y-147369014D01*
X138810000Y-147314209D01*
X138839294Y-147369014D01*
X139024866Y-147595134D01*
X139250986Y-147780706D01*
X139508966Y-147918599D01*
X139788889Y-148003513D01*
X140007050Y-148025000D01*
X140152950Y-148025000D01*
X140371111Y-148003513D01*
X140651034Y-147918599D01*
X140909014Y-147780706D01*
X141135134Y-147595134D01*
X141320706Y-147369014D01*
X141350000Y-147314209D01*
X141379294Y-147369014D01*
X141564866Y-147595134D01*
X141790986Y-147780706D01*
X142048966Y-147918599D01*
X142328889Y-148003513D01*
X142547050Y-148025000D01*
X142692950Y-148025000D01*
X142911111Y-148003513D01*
X143191034Y-147918599D01*
X143449014Y-147780706D01*
X143675134Y-147595134D01*
X143860706Y-147369014D01*
X143890000Y-147314209D01*
X143919294Y-147369014D01*
X144104866Y-147595134D01*
X144330986Y-147780706D01*
X144588966Y-147918599D01*
X144868889Y-148003513D01*
X145087050Y-148025000D01*
X145232950Y-148025000D01*
X145451111Y-148003513D01*
X145731034Y-147918599D01*
X145989014Y-147780706D01*
X146215134Y-147595134D01*
X146400706Y-147369014D01*
X146430000Y-147314209D01*
X146459294Y-147369014D01*
X146644866Y-147595134D01*
X146870986Y-147780706D01*
X147128966Y-147918599D01*
X147408889Y-148003513D01*
X147627050Y-148025000D01*
X147772950Y-148025000D01*
X147991111Y-148003513D01*
X148271034Y-147918599D01*
X148529014Y-147780706D01*
X148755134Y-147595134D01*
X148940706Y-147369014D01*
X148970000Y-147314209D01*
X148999294Y-147369014D01*
X149184866Y-147595134D01*
X149410986Y-147780706D01*
X149668966Y-147918599D01*
X149948889Y-148003513D01*
X150167050Y-148025000D01*
X150312950Y-148025000D01*
X150531111Y-148003513D01*
X150811034Y-147918599D01*
X151069014Y-147780706D01*
X151295134Y-147595134D01*
X151480706Y-147369014D01*
X151510000Y-147314209D01*
X151539294Y-147369014D01*
X151724866Y-147595134D01*
X151950986Y-147780706D01*
X152208966Y-147918599D01*
X152488889Y-148003513D01*
X152707050Y-148025000D01*
X152852950Y-148025000D01*
X153071111Y-148003513D01*
X153351034Y-147918599D01*
X153609014Y-147780706D01*
X153835134Y-147595134D01*
X154020706Y-147369014D01*
X154050000Y-147314209D01*
X154079294Y-147369014D01*
X154264866Y-147595134D01*
X154490986Y-147780706D01*
X154748966Y-147918599D01*
X155028889Y-148003513D01*
X155247050Y-148025000D01*
X155392950Y-148025000D01*
X155611111Y-148003513D01*
X155891034Y-147918599D01*
X156149014Y-147780706D01*
X156375134Y-147595134D01*
X156560706Y-147369014D01*
X156590000Y-147314209D01*
X156619294Y-147369014D01*
X156804866Y-147595134D01*
X157030986Y-147780706D01*
X157288966Y-147918599D01*
X157568889Y-148003513D01*
X157787050Y-148025000D01*
X157932950Y-148025000D01*
X158151111Y-148003513D01*
X158431034Y-147918599D01*
X158689014Y-147780706D01*
X158915134Y-147595134D01*
X159100706Y-147369014D01*
X159130000Y-147314209D01*
X159159294Y-147369014D01*
X159344866Y-147595134D01*
X159570986Y-147780706D01*
X159828966Y-147918599D01*
X160108889Y-148003513D01*
X160327050Y-148025000D01*
X160472950Y-148025000D01*
X160691111Y-148003513D01*
X160971034Y-147918599D01*
X161229014Y-147780706D01*
X161288602Y-147731803D01*
X161783101Y-148226302D01*
X161806899Y-148255301D01*
X161922624Y-148350274D01*
X162054653Y-148420846D01*
X162197914Y-148464303D01*
X162309567Y-148475300D01*
X162309576Y-148475300D01*
X162346899Y-148478976D01*
X162384222Y-148475300D01*
X181239478Y-148475300D01*
X181276800Y-148478976D01*
X181314122Y-148475300D01*
X181314133Y-148475300D01*
X181425786Y-148464303D01*
X181569047Y-148420846D01*
X181701076Y-148350274D01*
X181786861Y-148279872D01*
X209265000Y-148279872D01*
X209265000Y-148720128D01*
X209350890Y-149151925D01*
X209519369Y-149558669D01*
X209763962Y-149924729D01*
X210075271Y-150236038D01*
X210441331Y-150480631D01*
X210848075Y-150649110D01*
X211279872Y-150735000D01*
X211720128Y-150735000D01*
X212151925Y-150649110D01*
X212558669Y-150480631D01*
X212924729Y-150236038D01*
X213236038Y-149924729D01*
X213480631Y-149558669D01*
X213649110Y-149151925D01*
X213735000Y-148720128D01*
X213735000Y-148279872D01*
X213649110Y-147848075D01*
X213480631Y-147441331D01*
X213236038Y-147075271D01*
X212924729Y-146763962D01*
X212558669Y-146519369D01*
X212151925Y-146350890D01*
X211720128Y-146265000D01*
X211279872Y-146265000D01*
X210848075Y-146350890D01*
X210441331Y-146519369D01*
X210075271Y-146763962D01*
X209763962Y-147075271D01*
X209519369Y-147441331D01*
X209350890Y-147848075D01*
X209265000Y-148279872D01*
X181786861Y-148279872D01*
X181816801Y-148255301D01*
X181840603Y-148226298D01*
X182351461Y-147715441D01*
X182430986Y-147780706D01*
X182688966Y-147918599D01*
X182968889Y-148003513D01*
X183187050Y-148025000D01*
X183332950Y-148025000D01*
X183551111Y-148003513D01*
X183831034Y-147918599D01*
X184089014Y-147780706D01*
X184315134Y-147595134D01*
X184500706Y-147369014D01*
X184530000Y-147314209D01*
X184559294Y-147369014D01*
X184744866Y-147595134D01*
X184970986Y-147780706D01*
X185228966Y-147918599D01*
X185508889Y-148003513D01*
X185727050Y-148025000D01*
X185872950Y-148025000D01*
X186091111Y-148003513D01*
X186371034Y-147918599D01*
X186629014Y-147780706D01*
X186855134Y-147595134D01*
X187040706Y-147369014D01*
X187070000Y-147314209D01*
X187099294Y-147369014D01*
X187284866Y-147595134D01*
X187510986Y-147780706D01*
X187768966Y-147918599D01*
X188048889Y-148003513D01*
X188267050Y-148025000D01*
X188412950Y-148025000D01*
X188631111Y-148003513D01*
X188911034Y-147918599D01*
X189169014Y-147780706D01*
X189395134Y-147595134D01*
X189580706Y-147369014D01*
X189610000Y-147314209D01*
X189639294Y-147369014D01*
X189824866Y-147595134D01*
X190050986Y-147780706D01*
X190308966Y-147918599D01*
X190588889Y-148003513D01*
X190807050Y-148025000D01*
X190952950Y-148025000D01*
X191171111Y-148003513D01*
X191451034Y-147918599D01*
X191709014Y-147780706D01*
X191935134Y-147595134D01*
X192120706Y-147369014D01*
X192150000Y-147314209D01*
X192179294Y-147369014D01*
X192364866Y-147595134D01*
X192590986Y-147780706D01*
X192848966Y-147918599D01*
X193128889Y-148003513D01*
X193347050Y-148025000D01*
X193492950Y-148025000D01*
X193711111Y-148003513D01*
X193991034Y-147918599D01*
X194249014Y-147780706D01*
X194475134Y-147595134D01*
X194660706Y-147369014D01*
X194690000Y-147314209D01*
X194719294Y-147369014D01*
X194904866Y-147595134D01*
X195130986Y-147780706D01*
X195388966Y-147918599D01*
X195668889Y-148003513D01*
X195887050Y-148025000D01*
X196032950Y-148025000D01*
X196251111Y-148003513D01*
X196531034Y-147918599D01*
X196789014Y-147780706D01*
X197015134Y-147595134D01*
X197200706Y-147369014D01*
X197230000Y-147314209D01*
X197259294Y-147369014D01*
X197444866Y-147595134D01*
X197670986Y-147780706D01*
X197928966Y-147918599D01*
X198208889Y-148003513D01*
X198427050Y-148025000D01*
X198572950Y-148025000D01*
X198791111Y-148003513D01*
X199071034Y-147918599D01*
X199329014Y-147780706D01*
X199555134Y-147595134D01*
X199740706Y-147369014D01*
X199878599Y-147111034D01*
X199963513Y-146831111D01*
X199992185Y-146540000D01*
X199963513Y-146248889D01*
X199878599Y-145968966D01*
X199740706Y-145710986D01*
X199555134Y-145484866D01*
X199329014Y-145299294D01*
X199136700Y-145196500D01*
X199759689Y-145196500D01*
X199803626Y-145240437D01*
X199973144Y-145353705D01*
X200161502Y-145431726D01*
X200361461Y-145471500D01*
X200565339Y-145471500D01*
X200765298Y-145431726D01*
X200953656Y-145353705D01*
X201123174Y-145240437D01*
X201267337Y-145096274D01*
X201380605Y-144926756D01*
X201458626Y-144738398D01*
X201498400Y-144538439D01*
X201498400Y-144334561D01*
X201458626Y-144134602D01*
X201380605Y-143946244D01*
X201267337Y-143776726D01*
X201123174Y-143632563D01*
X201010395Y-143557206D01*
X214235404Y-130332198D01*
X214264401Y-130308401D01*
X214359374Y-130192676D01*
X214429946Y-130060647D01*
X214473403Y-129917386D01*
X214484400Y-129805733D01*
X214484400Y-129805732D01*
X214488077Y-129768400D01*
X214484400Y-129731067D01*
X214484400Y-102284522D01*
X214488076Y-102247199D01*
X214484400Y-102209876D01*
X214484400Y-102209867D01*
X214473403Y-102098214D01*
X214429946Y-101954953D01*
X214359374Y-101822924D01*
X214344335Y-101804599D01*
X214288199Y-101736196D01*
X214288195Y-101736192D01*
X214264401Y-101707199D01*
X214235408Y-101683405D01*
X197417804Y-84865803D01*
X197394001Y-84836799D01*
X197278276Y-84741826D01*
X197146247Y-84671254D01*
X197002986Y-84627797D01*
X196891333Y-84616800D01*
X196891322Y-84616800D01*
X196854000Y-84613124D01*
X196816678Y-84616800D01*
X174390822Y-84616800D01*
X174353499Y-84613124D01*
X174316176Y-84616800D01*
X174316167Y-84616800D01*
X174204514Y-84627797D01*
X174061253Y-84671254D01*
X173929224Y-84741826D01*
X173813499Y-84836799D01*
X173789701Y-84865797D01*
X172360843Y-86294656D01*
X172269014Y-86219294D01*
X172011034Y-86081401D01*
X171731111Y-85996487D01*
X171512950Y-85975000D01*
X171367050Y-85975000D01*
X171148889Y-85996487D01*
X170868966Y-86081401D01*
X170610986Y-86219294D01*
X170384866Y-86404866D01*
X170199294Y-86630986D01*
X170170000Y-86685791D01*
X170140706Y-86630986D01*
X169955134Y-86404866D01*
X169729014Y-86219294D01*
X169471034Y-86081401D01*
X169191111Y-85996487D01*
X168972950Y-85975000D01*
X168827050Y-85975000D01*
X168608889Y-85996487D01*
X168328966Y-86081401D01*
X168070986Y-86219294D01*
X167844866Y-86404866D01*
X167659294Y-86630986D01*
X167630000Y-86685791D01*
X167600706Y-86630986D01*
X167415134Y-86404866D01*
X167189014Y-86219294D01*
X166931034Y-86081401D01*
X166651111Y-85996487D01*
X166432950Y-85975000D01*
X166287050Y-85975000D01*
X166068889Y-85996487D01*
X165788966Y-86081401D01*
X165530986Y-86219294D01*
X165304866Y-86404866D01*
X165119294Y-86630986D01*
X165090000Y-86685791D01*
X165060706Y-86630986D01*
X164875134Y-86404866D01*
X164649014Y-86219294D01*
X164391034Y-86081401D01*
X164111111Y-85996487D01*
X163892950Y-85975000D01*
X163747050Y-85975000D01*
X163528889Y-85996487D01*
X163248966Y-86081401D01*
X162990986Y-86219294D01*
X162883559Y-86307457D01*
X161122204Y-84546103D01*
X161098401Y-84517099D01*
X160982676Y-84422126D01*
X160850647Y-84351554D01*
X160707386Y-84308097D01*
X160595733Y-84297100D01*
X160595722Y-84297100D01*
X160558400Y-84293424D01*
X160521078Y-84297100D01*
X128698925Y-84297100D01*
X128661600Y-84293424D01*
X128624275Y-84297100D01*
X128624267Y-84297100D01*
X128512614Y-84308097D01*
X128369353Y-84351554D01*
X128237324Y-84422126D01*
X128121599Y-84517099D01*
X128097801Y-84546097D01*
X124797703Y-87846196D01*
X124768699Y-87869999D01*
X124719660Y-87929754D01*
X124673726Y-87985724D01*
X124645392Y-88038733D01*
X124603154Y-88117754D01*
X124559697Y-88261015D01*
X124548700Y-88372668D01*
X124548700Y-88372678D01*
X124545024Y-88410000D01*
X117710000Y-88410000D01*
X117710000Y-82279872D01*
X120265000Y-82279872D01*
X120265000Y-82720128D01*
X120350890Y-83151925D01*
X120519369Y-83558669D01*
X120763962Y-83924729D01*
X121075271Y-84236038D01*
X121441331Y-84480631D01*
X121848075Y-84649110D01*
X122279872Y-84735000D01*
X122720128Y-84735000D01*
X123151925Y-84649110D01*
X123558669Y-84480631D01*
X123924729Y-84236038D01*
X124236038Y-83924729D01*
X124480631Y-83558669D01*
X124649110Y-83151925D01*
X124735000Y-82720128D01*
X124735000Y-82279872D01*
X209265000Y-82279872D01*
X209265000Y-82720128D01*
X209350890Y-83151925D01*
X209519369Y-83558669D01*
X209763962Y-83924729D01*
X210075271Y-84236038D01*
X210441331Y-84480631D01*
X210848075Y-84649110D01*
X211279872Y-84735000D01*
X211720128Y-84735000D01*
X212151925Y-84649110D01*
X212558669Y-84480631D01*
X212924729Y-84236038D01*
X213236038Y-83924729D01*
X213480631Y-83558669D01*
X213649110Y-83151925D01*
X213735000Y-82720128D01*
X213735000Y-82279872D01*
X213649110Y-81848075D01*
X213480631Y-81441331D01*
X213236038Y-81075271D01*
X212924729Y-80763962D01*
X212558669Y-80519369D01*
X212151925Y-80350890D01*
X211720128Y-80265000D01*
X211279872Y-80265000D01*
X210848075Y-80350890D01*
X210441331Y-80519369D01*
X210075271Y-80763962D01*
X209763962Y-81075271D01*
X209519369Y-81441331D01*
X209350890Y-81848075D01*
X209265000Y-82279872D01*
X124735000Y-82279872D01*
X124649110Y-81848075D01*
X124480631Y-81441331D01*
X124236038Y-81075271D01*
X123924729Y-80763962D01*
X123558669Y-80519369D01*
X123151925Y-80350890D01*
X122720128Y-80265000D01*
X122279872Y-80265000D01*
X121848075Y-80350890D01*
X121441331Y-80519369D01*
X121075271Y-80763962D01*
X120763962Y-81075271D01*
X120519369Y-81441331D01*
X120350890Y-81848075D01*
X120265000Y-82279872D01*
X117710000Y-82279872D01*
X117710000Y-78710000D01*
X216290000Y-78710000D01*
X216290001Y-152290000D01*
G36*
X126095326Y-129329576D02*
G01*
X126149017Y-129394998D01*
X126190300Y-129445301D01*
X126219298Y-129469099D01*
X128116800Y-131366602D01*
X128140599Y-131395601D01*
X128256324Y-131490574D01*
X128388353Y-131561146D01*
X128531614Y-131604603D01*
X128643267Y-131615600D01*
X128643275Y-131615600D01*
X128680600Y-131619276D01*
X128717925Y-131615600D01*
X137116961Y-131615600D01*
X137073700Y-131788184D01*
X137059783Y-132070512D01*
X137101213Y-132350130D01*
X137196397Y-132616292D01*
X137263329Y-132741514D01*
X137507298Y-132813097D01*
X138320395Y-132000000D01*
X138306253Y-131985858D01*
X138485858Y-131806253D01*
X138500000Y-131820395D01*
X138514143Y-131806253D01*
X138693748Y-131985858D01*
X138679605Y-132000000D01*
X139492702Y-132813097D01*
X139561928Y-132792785D01*
X139561928Y-132800000D01*
X139574188Y-132924482D01*
X139610498Y-133044180D01*
X139669463Y-133154494D01*
X139748815Y-133251185D01*
X139845506Y-133330537D01*
X139955820Y-133389502D01*
X140075518Y-133425812D01*
X140200000Y-133438072D01*
X141800000Y-133438072D01*
X141924482Y-133425812D01*
X142044180Y-133389502D01*
X142154494Y-133330537D01*
X142251185Y-133251185D01*
X142330537Y-133154494D01*
X142389502Y-133044180D01*
X142425812Y-132924482D01*
X142438072Y-132800000D01*
X142438072Y-132420173D01*
X149480000Y-139462102D01*
X149480001Y-140182405D01*
X149410986Y-140219294D01*
X149184866Y-140404866D01*
X148999294Y-140630986D01*
X148964799Y-140695523D01*
X148895178Y-140578645D01*
X148700269Y-140362412D01*
X148466920Y-140188359D01*
X148204099Y-140063175D01*
X148056890Y-140018524D01*
X147827000Y-140139845D01*
X147827000Y-141333000D01*
X147847000Y-141333000D01*
X147847000Y-141587000D01*
X147827000Y-141587000D01*
X147827000Y-142780155D01*
X148056890Y-142901476D01*
X148204099Y-142856825D01*
X148466920Y-142731641D01*
X148700269Y-142557588D01*
X148895178Y-142341355D01*
X148964799Y-142224477D01*
X148999294Y-142289014D01*
X149184866Y-142515134D01*
X149410986Y-142700706D01*
X149668966Y-142838599D01*
X149948889Y-142923513D01*
X150167050Y-142945000D01*
X150312950Y-142945000D01*
X150531111Y-142923513D01*
X150811034Y-142838599D01*
X151069014Y-142700706D01*
X151295134Y-142515134D01*
X151480706Y-142289014D01*
X151510000Y-142234209D01*
X151539294Y-142289014D01*
X151724866Y-142515134D01*
X151950986Y-142700706D01*
X152110976Y-142786222D01*
X151556199Y-143341000D01*
X141619222Y-143341000D01*
X141581899Y-143337324D01*
X141544576Y-143341000D01*
X141544567Y-143341000D01*
X141432914Y-143351997D01*
X141289653Y-143395454D01*
X141157624Y-143466026D01*
X141041899Y-143560999D01*
X141018100Y-143589998D01*
X140931398Y-143676700D01*
X140869261Y-143676700D01*
X140669302Y-143716474D01*
X140480944Y-143794495D01*
X140311426Y-143907763D01*
X140167263Y-144051926D01*
X140053995Y-144221444D01*
X139975974Y-144409802D01*
X139937207Y-144604700D01*
X130451902Y-144604700D01*
X126835273Y-140988072D01*
X127350000Y-140988072D01*
X127474482Y-140975812D01*
X127594180Y-140939502D01*
X127704494Y-140880537D01*
X127801185Y-140801185D01*
X127846485Y-140745986D01*
X129071501Y-141971003D01*
X129095299Y-142000001D01*
X129124297Y-142023799D01*
X129211024Y-142094974D01*
X129343053Y-142165546D01*
X129486314Y-142209003D01*
X129635300Y-142223677D01*
X129672633Y-142220000D01*
X136262405Y-142220000D01*
X136299294Y-142289014D01*
X136484866Y-142515134D01*
X136710986Y-142700706D01*
X136968966Y-142838599D01*
X137248889Y-142923513D01*
X137467050Y-142945000D01*
X137612950Y-142945000D01*
X137831111Y-142923513D01*
X138111034Y-142838599D01*
X138369014Y-142700706D01*
X138595134Y-142515134D01*
X138780706Y-142289014D01*
X138810000Y-142234209D01*
X138839294Y-142289014D01*
X139024866Y-142515134D01*
X139250986Y-142700706D01*
X139508966Y-142838599D01*
X139788889Y-142923513D01*
X140007050Y-142945000D01*
X140152950Y-142945000D01*
X140371111Y-142923513D01*
X140651034Y-142838599D01*
X140909014Y-142700706D01*
X141135134Y-142515134D01*
X141233725Y-142395000D01*
X141466275Y-142395000D01*
X141564866Y-142515134D01*
X141790986Y-142700706D01*
X142048966Y-142838599D01*
X142328889Y-142923513D01*
X142547050Y-142945000D01*
X142692950Y-142945000D01*
X142911111Y-142923513D01*
X143191034Y-142838599D01*
X143449014Y-142700706D01*
X143675134Y-142515134D01*
X143860706Y-142289014D01*
X143895201Y-142224477D01*
X143964822Y-142341355D01*
X144159731Y-142557588D01*
X144393080Y-142731641D01*
X144655901Y-142856825D01*
X144803110Y-142901476D01*
X145033000Y-142780155D01*
X145033000Y-141587000D01*
X145287000Y-141587000D01*
X145287000Y-142780155D01*
X145516890Y-142901476D01*
X145664099Y-142856825D01*
X145926920Y-142731641D01*
X146160269Y-142557588D01*
X146355178Y-142341355D01*
X146430000Y-142215745D01*
X146504822Y-142341355D01*
X146699731Y-142557588D01*
X146933080Y-142731641D01*
X147195901Y-142856825D01*
X147343110Y-142901476D01*
X147573000Y-142780155D01*
X147573000Y-141587000D01*
X145287000Y-141587000D01*
X145033000Y-141587000D01*
X145013000Y-141587000D01*
X145013000Y-141333000D01*
X145033000Y-141333000D01*
X145033000Y-140139845D01*
X145287000Y-140139845D01*
X145287000Y-141333000D01*
X147573000Y-141333000D01*
X147573000Y-140139845D01*
X147343110Y-140018524D01*
X147195901Y-140063175D01*
X146933080Y-140188359D01*
X146699731Y-140362412D01*
X146504822Y-140578645D01*
X146430000Y-140704255D01*
X146355178Y-140578645D01*
X146160269Y-140362412D01*
X145926920Y-140188359D01*
X145664099Y-140063175D01*
X145516890Y-140018524D01*
X145287000Y-140139845D01*
X145033000Y-140139845D01*
X144803110Y-140018524D01*
X144655901Y-140063175D01*
X144393080Y-140188359D01*
X144159731Y-140362412D01*
X143964822Y-140578645D01*
X143895201Y-140695523D01*
X143860706Y-140630986D01*
X143675134Y-140404866D01*
X143449014Y-140219294D01*
X143191034Y-140081401D01*
X142911111Y-139996487D01*
X142692950Y-139975000D01*
X142547050Y-139975000D01*
X142328889Y-139996487D01*
X142048966Y-140081401D01*
X141790986Y-140219294D01*
X141564866Y-140404866D01*
X141466275Y-140525000D01*
X141233725Y-140525000D01*
X141135134Y-140404866D01*
X140909014Y-140219294D01*
X140651034Y-140081401D01*
X140371111Y-139996487D01*
X140152950Y-139975000D01*
X140007050Y-139975000D01*
X139788889Y-139996487D01*
X139508966Y-140081401D01*
X139250986Y-140219294D01*
X139024866Y-140404866D01*
X138839294Y-140630986D01*
X138810000Y-140685791D01*
X138780706Y-140630986D01*
X138595134Y-140404866D01*
X138369014Y-140219294D01*
X138111034Y-140081401D01*
X137831111Y-139996487D01*
X137612950Y-139975000D01*
X137467050Y-139975000D01*
X137248889Y-139996487D01*
X136968966Y-140081401D01*
X136710986Y-140219294D01*
X136484866Y-140404866D01*
X136299294Y-140630986D01*
X136262405Y-140700000D01*
X129950102Y-140700000D01*
X128239104Y-138989003D01*
X128215301Y-138959999D01*
X128099576Y-138865026D01*
X127988072Y-138805425D01*
X127988072Y-138650000D01*
X127975812Y-138525518D01*
X127939502Y-138405820D01*
X127880537Y-138295506D01*
X127801185Y-138198815D01*
X127704494Y-138119463D01*
X127594180Y-138060498D01*
X127513534Y-138036034D01*
X127597588Y-137960269D01*
X127771641Y-137726920D01*
X127896825Y-137464099D01*
X127941476Y-137316890D01*
X127820155Y-137087000D01*
X126627000Y-137087000D01*
X126627000Y-137107000D01*
X126373000Y-137107000D01*
X126373000Y-137087000D01*
X126353000Y-137087000D01*
X126353000Y-136833000D01*
X126373000Y-136833000D01*
X126373000Y-135639186D01*
X126627000Y-135639186D01*
X126627000Y-136833000D01*
X127820155Y-136833000D01*
X127941476Y-136603110D01*
X127896825Y-136455901D01*
X127771641Y-136193080D01*
X127597588Y-135959731D01*
X127381355Y-135764822D01*
X127131252Y-135615843D01*
X126856891Y-135518519D01*
X126627000Y-135639186D01*
X126373000Y-135639186D01*
X126143109Y-135518519D01*
X126068700Y-135544914D01*
X126068700Y-132992702D01*
X137686903Y-132992702D01*
X137758486Y-133236671D01*
X138013996Y-133357571D01*
X138288184Y-133426300D01*
X138570512Y-133440217D01*
X138850130Y-133398787D01*
X139116292Y-133303603D01*
X139241514Y-133236671D01*
X139313097Y-132992702D01*
X138500000Y-132179605D01*
X137686903Y-132992702D01*
X126068700Y-132992702D01*
X126068700Y-129279763D01*
X126095326Y-129329576D01*
X126095326Y-129329576D01*
G37*
X126095326Y-129329576D02*
X126149017Y-129394998D01*
X126190300Y-129445301D01*
X126219298Y-129469099D01*
X128116800Y-131366602D01*
X128140599Y-131395601D01*
X128256324Y-131490574D01*
X128388353Y-131561146D01*
X128531614Y-131604603D01*
X128643267Y-131615600D01*
X128643275Y-131615600D01*
X128680600Y-131619276D01*
X128717925Y-131615600D01*
X137116961Y-131615600D01*
X137073700Y-131788184D01*
X137059783Y-132070512D01*
X137101213Y-132350130D01*
X137196397Y-132616292D01*
X137263329Y-132741514D01*
X137507298Y-132813097D01*
X138320395Y-132000000D01*
X138306253Y-131985858D01*
X138485858Y-131806253D01*
X138500000Y-131820395D01*
X138514143Y-131806253D01*
X138693748Y-131985858D01*
X138679605Y-132000000D01*
X139492702Y-132813097D01*
X139561928Y-132792785D01*
X139561928Y-132800000D01*
X139574188Y-132924482D01*
X139610498Y-133044180D01*
X139669463Y-133154494D01*
X139748815Y-133251185D01*
X139845506Y-133330537D01*
X139955820Y-133389502D01*
X140075518Y-133425812D01*
X140200000Y-133438072D01*
X141800000Y-133438072D01*
X141924482Y-133425812D01*
X142044180Y-133389502D01*
X142154494Y-133330537D01*
X142251185Y-133251185D01*
X142330537Y-133154494D01*
X142389502Y-133044180D01*
X142425812Y-132924482D01*
X142438072Y-132800000D01*
X142438072Y-132420173D01*
X149480000Y-139462102D01*
X149480001Y-140182405D01*
X149410986Y-140219294D01*
X149184866Y-140404866D01*
X148999294Y-140630986D01*
X148964799Y-140695523D01*
X148895178Y-140578645D01*
X148700269Y-140362412D01*
X148466920Y-140188359D01*
X148204099Y-140063175D01*
X148056890Y-140018524D01*
X147827000Y-140139845D01*
X147827000Y-141333000D01*
X147847000Y-141333000D01*
X147847000Y-141587000D01*
X147827000Y-141587000D01*
X147827000Y-142780155D01*
X148056890Y-142901476D01*
X148204099Y-142856825D01*
X148466920Y-142731641D01*
X148700269Y-142557588D01*
X148895178Y-142341355D01*
X148964799Y-142224477D01*
X148999294Y-142289014D01*
X149184866Y-142515134D01*
X149410986Y-142700706D01*
X149668966Y-142838599D01*
X149948889Y-142923513D01*
X150167050Y-142945000D01*
X150312950Y-142945000D01*
X150531111Y-142923513D01*
X150811034Y-142838599D01*
X151069014Y-142700706D01*
X151295134Y-142515134D01*
X151480706Y-142289014D01*
X151510000Y-142234209D01*
X151539294Y-142289014D01*
X151724866Y-142515134D01*
X151950986Y-142700706D01*
X152110976Y-142786222D01*
X151556199Y-143341000D01*
X141619222Y-143341000D01*
X141581899Y-143337324D01*
X141544576Y-143341000D01*
X141544567Y-143341000D01*
X141432914Y-143351997D01*
X141289653Y-143395454D01*
X141157624Y-143466026D01*
X141041899Y-143560999D01*
X141018100Y-143589998D01*
X140931398Y-143676700D01*
X140869261Y-143676700D01*
X140669302Y-143716474D01*
X140480944Y-143794495D01*
X140311426Y-143907763D01*
X140167263Y-144051926D01*
X140053995Y-144221444D01*
X139975974Y-144409802D01*
X139937207Y-144604700D01*
X130451902Y-144604700D01*
X126835273Y-140988072D01*
X127350000Y-140988072D01*
X127474482Y-140975812D01*
X127594180Y-140939502D01*
X127704494Y-140880537D01*
X127801185Y-140801185D01*
X127846485Y-140745986D01*
X129071501Y-141971003D01*
X129095299Y-142000001D01*
X129124297Y-142023799D01*
X129211024Y-142094974D01*
X129343053Y-142165546D01*
X129486314Y-142209003D01*
X129635300Y-142223677D01*
X129672633Y-142220000D01*
X136262405Y-142220000D01*
X136299294Y-142289014D01*
X136484866Y-142515134D01*
X136710986Y-142700706D01*
X136968966Y-142838599D01*
X137248889Y-142923513D01*
X137467050Y-142945000D01*
X137612950Y-142945000D01*
X137831111Y-142923513D01*
X138111034Y-142838599D01*
X138369014Y-142700706D01*
X138595134Y-142515134D01*
X138780706Y-142289014D01*
X138810000Y-142234209D01*
X138839294Y-142289014D01*
X139024866Y-142515134D01*
X139250986Y-142700706D01*
X139508966Y-142838599D01*
X139788889Y-142923513D01*
X140007050Y-142945000D01*
X140152950Y-142945000D01*
X140371111Y-142923513D01*
X140651034Y-142838599D01*
X140909014Y-142700706D01*
X141135134Y-142515134D01*
X141233725Y-142395000D01*
X141466275Y-142395000D01*
X141564866Y-142515134D01*
X141790986Y-142700706D01*
X142048966Y-142838599D01*
X142328889Y-142923513D01*
X142547050Y-142945000D01*
X142692950Y-142945000D01*
X142911111Y-142923513D01*
X143191034Y-142838599D01*
X143449014Y-142700706D01*
X143675134Y-142515134D01*
X143860706Y-142289014D01*
X143895201Y-142224477D01*
X143964822Y-142341355D01*
X144159731Y-142557588D01*
X144393080Y-142731641D01*
X144655901Y-142856825D01*
X144803110Y-142901476D01*
X145033000Y-142780155D01*
X145033000Y-141587000D01*
X145287000Y-141587000D01*
X145287000Y-142780155D01*
X145516890Y-142901476D01*
X145664099Y-142856825D01*
X145926920Y-142731641D01*
X146160269Y-142557588D01*
X146355178Y-142341355D01*
X146430000Y-142215745D01*
X146504822Y-142341355D01*
X146699731Y-142557588D01*
X146933080Y-142731641D01*
X147195901Y-142856825D01*
X147343110Y-142901476D01*
X147573000Y-142780155D01*
X147573000Y-141587000D01*
X145287000Y-141587000D01*
X145033000Y-141587000D01*
X145013000Y-141587000D01*
X145013000Y-141333000D01*
X145033000Y-141333000D01*
X145033000Y-140139845D01*
X145287000Y-140139845D01*
X145287000Y-141333000D01*
X147573000Y-141333000D01*
X147573000Y-140139845D01*
X147343110Y-140018524D01*
X147195901Y-140063175D01*
X146933080Y-140188359D01*
X146699731Y-140362412D01*
X146504822Y-140578645D01*
X146430000Y-140704255D01*
X146355178Y-140578645D01*
X146160269Y-140362412D01*
X145926920Y-140188359D01*
X145664099Y-140063175D01*
X145516890Y-140018524D01*
X145287000Y-140139845D01*
X145033000Y-140139845D01*
X144803110Y-140018524D01*
X144655901Y-140063175D01*
X144393080Y-140188359D01*
X144159731Y-140362412D01*
X143964822Y-140578645D01*
X143895201Y-140695523D01*
X143860706Y-140630986D01*
X143675134Y-140404866D01*
X143449014Y-140219294D01*
X143191034Y-140081401D01*
X142911111Y-139996487D01*
X142692950Y-139975000D01*
X142547050Y-139975000D01*
X142328889Y-139996487D01*
X142048966Y-140081401D01*
X141790986Y-140219294D01*
X141564866Y-140404866D01*
X141466275Y-140525000D01*
X141233725Y-140525000D01*
X141135134Y-140404866D01*
X140909014Y-140219294D01*
X140651034Y-140081401D01*
X140371111Y-139996487D01*
X140152950Y-139975000D01*
X140007050Y-139975000D01*
X139788889Y-139996487D01*
X139508966Y-140081401D01*
X139250986Y-140219294D01*
X139024866Y-140404866D01*
X138839294Y-140630986D01*
X138810000Y-140685791D01*
X138780706Y-140630986D01*
X138595134Y-140404866D01*
X138369014Y-140219294D01*
X138111034Y-140081401D01*
X137831111Y-139996487D01*
X137612950Y-139975000D01*
X137467050Y-139975000D01*
X137248889Y-139996487D01*
X136968966Y-140081401D01*
X136710986Y-140219294D01*
X136484866Y-140404866D01*
X136299294Y-140630986D01*
X136262405Y-140700000D01*
X129950102Y-140700000D01*
X128239104Y-138989003D01*
X128215301Y-138959999D01*
X128099576Y-138865026D01*
X127988072Y-138805425D01*
X127988072Y-138650000D01*
X127975812Y-138525518D01*
X127939502Y-138405820D01*
X127880537Y-138295506D01*
X127801185Y-138198815D01*
X127704494Y-138119463D01*
X127594180Y-138060498D01*
X127513534Y-138036034D01*
X127597588Y-137960269D01*
X127771641Y-137726920D01*
X127896825Y-137464099D01*
X127941476Y-137316890D01*
X127820155Y-137087000D01*
X126627000Y-137087000D01*
X126627000Y-137107000D01*
X126373000Y-137107000D01*
X126373000Y-137087000D01*
X126353000Y-137087000D01*
X126353000Y-136833000D01*
X126373000Y-136833000D01*
X126373000Y-135639186D01*
X126627000Y-135639186D01*
X126627000Y-136833000D01*
X127820155Y-136833000D01*
X127941476Y-136603110D01*
X127896825Y-136455901D01*
X127771641Y-136193080D01*
X127597588Y-135959731D01*
X127381355Y-135764822D01*
X127131252Y-135615843D01*
X126856891Y-135518519D01*
X126627000Y-135639186D01*
X126373000Y-135639186D01*
X126143109Y-135518519D01*
X126068700Y-135544914D01*
X126068700Y-132992702D01*
X137686903Y-132992702D01*
X137758486Y-133236671D01*
X138013996Y-133357571D01*
X138288184Y-133426300D01*
X138570512Y-133440217D01*
X138850130Y-133398787D01*
X139116292Y-133303603D01*
X139241514Y-133236671D01*
X139313097Y-132992702D01*
X138500000Y-132179605D01*
X137686903Y-132992702D01*
X126068700Y-132992702D01*
X126068700Y-129279763D01*
X126095326Y-129329576D01*
G36*
X188785801Y-122225903D02*
G01*
X188809599Y-122254901D01*
X188857096Y-122293881D01*
X188925324Y-122349874D01*
X189057353Y-122420446D01*
X189200614Y-122463903D01*
X189349600Y-122478577D01*
X189386933Y-122474900D01*
X198418367Y-122474900D01*
X198356487Y-122678889D01*
X198327815Y-122970000D01*
X198356487Y-123261111D01*
X198441401Y-123541034D01*
X198579294Y-123799014D01*
X198764866Y-124025134D01*
X198990986Y-124210706D01*
X199248966Y-124348599D01*
X199528889Y-124433513D01*
X199747050Y-124455000D01*
X199892950Y-124455000D01*
X200111111Y-124433513D01*
X200391034Y-124348599D01*
X200649014Y-124210706D01*
X200875134Y-124025134D01*
X201060706Y-123799014D01*
X201198599Y-123541034D01*
X201283513Y-123261111D01*
X201312185Y-122970000D01*
X201283513Y-122678889D01*
X201221633Y-122474900D01*
X203829889Y-122474900D01*
X203873926Y-122518937D01*
X204043444Y-122632205D01*
X204231802Y-122710226D01*
X204431761Y-122750000D01*
X204635639Y-122750000D01*
X204835598Y-122710226D01*
X205023956Y-122632205D01*
X205193474Y-122518937D01*
X205337637Y-122374774D01*
X205450905Y-122205256D01*
X205528926Y-122016898D01*
X205568700Y-121816939D01*
X205568700Y-121755302D01*
X206786226Y-122972828D01*
X206795697Y-123068986D01*
X206839154Y-123212247D01*
X206909726Y-123344276D01*
X206997110Y-123450754D01*
X207004699Y-123460001D01*
X207120424Y-123554974D01*
X207252453Y-123625546D01*
X207395714Y-123669003D01*
X207438795Y-123673246D01*
X207479294Y-123749014D01*
X207664866Y-123975134D01*
X207890986Y-124160706D01*
X207945791Y-124190000D01*
X207890986Y-124219294D01*
X207664866Y-124404866D01*
X207479294Y-124630986D01*
X207341401Y-124888966D01*
X207256487Y-125168889D01*
X207227815Y-125460000D01*
X207256487Y-125751111D01*
X207341401Y-126031034D01*
X207479294Y-126289014D01*
X207664866Y-126515134D01*
X207890986Y-126700706D01*
X207945791Y-126730000D01*
X207890986Y-126759294D01*
X207664866Y-126944866D01*
X207479294Y-127170986D01*
X207341401Y-127428966D01*
X207256487Y-127708889D01*
X207227815Y-128000000D01*
X207256487Y-128291111D01*
X207341401Y-128571034D01*
X207479294Y-128829014D01*
X207664866Y-129055134D01*
X207890986Y-129240706D01*
X208148966Y-129378599D01*
X208428889Y-129463513D01*
X208647050Y-129485000D01*
X208792950Y-129485000D01*
X209011111Y-129463513D01*
X209291034Y-129378599D01*
X209549014Y-129240706D01*
X209775134Y-129055134D01*
X209960706Y-128829014D01*
X210098599Y-128571034D01*
X210183513Y-128291111D01*
X210212185Y-128000000D01*
X210183513Y-127708889D01*
X210098599Y-127428966D01*
X209960706Y-127170986D01*
X209895396Y-127091405D01*
X212015800Y-124971002D01*
X212015800Y-129070198D01*
X199988072Y-141097927D01*
X199988072Y-140610000D01*
X199975812Y-140485518D01*
X199939502Y-140365820D01*
X199880537Y-140255506D01*
X199801185Y-140158815D01*
X199704494Y-140079463D01*
X199594180Y-140020498D01*
X199474482Y-139984188D01*
X199350000Y-139971928D01*
X197650000Y-139971928D01*
X197525518Y-139984188D01*
X197405820Y-140020498D01*
X197295506Y-140079463D01*
X197198815Y-140158815D01*
X197119463Y-140255506D01*
X197060498Y-140365820D01*
X197039607Y-140434687D01*
X197015134Y-140404866D01*
X196789014Y-140219294D01*
X196720000Y-140182405D01*
X196720000Y-135139323D01*
X196723676Y-135102000D01*
X196720000Y-135064677D01*
X196720000Y-135064667D01*
X196709003Y-134953014D01*
X196665546Y-134809753D01*
X196644819Y-134770976D01*
X196594974Y-134677723D01*
X196523799Y-134590997D01*
X196500001Y-134561999D01*
X196471003Y-134538201D01*
X184916666Y-122983865D01*
X185016913Y-123031246D01*
X185150961Y-123071904D01*
X185373000Y-122949915D01*
X185373000Y-121807000D01*
X185627000Y-121807000D01*
X185627000Y-122949915D01*
X185849039Y-123071904D01*
X185983087Y-123031246D01*
X186237420Y-122911037D01*
X186463414Y-122743519D01*
X186652385Y-122535131D01*
X186797070Y-122293881D01*
X186891909Y-122029040D01*
X186770624Y-121807000D01*
X185627000Y-121807000D01*
X185373000Y-121807000D01*
X185353000Y-121807000D01*
X185353000Y-121553000D01*
X185373000Y-121553000D01*
X185373000Y-121533000D01*
X185627000Y-121533000D01*
X185627000Y-121553000D01*
X186770624Y-121553000D01*
X186891909Y-121330960D01*
X186886086Y-121314700D01*
X187874599Y-121314700D01*
X188785801Y-122225903D01*
X188785801Y-122225903D01*
G37*
X188785801Y-122225903D02*
X188809599Y-122254901D01*
X188857096Y-122293881D01*
X188925324Y-122349874D01*
X189057353Y-122420446D01*
X189200614Y-122463903D01*
X189349600Y-122478577D01*
X189386933Y-122474900D01*
X198418367Y-122474900D01*
X198356487Y-122678889D01*
X198327815Y-122970000D01*
X198356487Y-123261111D01*
X198441401Y-123541034D01*
X198579294Y-123799014D01*
X198764866Y-124025134D01*
X198990986Y-124210706D01*
X199248966Y-124348599D01*
X199528889Y-124433513D01*
X199747050Y-124455000D01*
X199892950Y-124455000D01*
X200111111Y-124433513D01*
X200391034Y-124348599D01*
X200649014Y-124210706D01*
X200875134Y-124025134D01*
X201060706Y-123799014D01*
X201198599Y-123541034D01*
X201283513Y-123261111D01*
X201312185Y-122970000D01*
X201283513Y-122678889D01*
X201221633Y-122474900D01*
X203829889Y-122474900D01*
X203873926Y-122518937D01*
X204043444Y-122632205D01*
X204231802Y-122710226D01*
X204431761Y-122750000D01*
X204635639Y-122750000D01*
X204835598Y-122710226D01*
X205023956Y-122632205D01*
X205193474Y-122518937D01*
X205337637Y-122374774D01*
X205450905Y-122205256D01*
X205528926Y-122016898D01*
X205568700Y-121816939D01*
X205568700Y-121755302D01*
X206786226Y-122972828D01*
X206795697Y-123068986D01*
X206839154Y-123212247D01*
X206909726Y-123344276D01*
X206997110Y-123450754D01*
X207004699Y-123460001D01*
X207120424Y-123554974D01*
X207252453Y-123625546D01*
X207395714Y-123669003D01*
X207438795Y-123673246D01*
X207479294Y-123749014D01*
X207664866Y-123975134D01*
X207890986Y-124160706D01*
X207945791Y-124190000D01*
X207890986Y-124219294D01*
X207664866Y-124404866D01*
X207479294Y-124630986D01*
X207341401Y-124888966D01*
X207256487Y-125168889D01*
X207227815Y-125460000D01*
X207256487Y-125751111D01*
X207341401Y-126031034D01*
X207479294Y-126289014D01*
X207664866Y-126515134D01*
X207890986Y-126700706D01*
X207945791Y-126730000D01*
X207890986Y-126759294D01*
X207664866Y-126944866D01*
X207479294Y-127170986D01*
X207341401Y-127428966D01*
X207256487Y-127708889D01*
X207227815Y-128000000D01*
X207256487Y-128291111D01*
X207341401Y-128571034D01*
X207479294Y-128829014D01*
X207664866Y-129055134D01*
X207890986Y-129240706D01*
X208148966Y-129378599D01*
X208428889Y-129463513D01*
X208647050Y-129485000D01*
X208792950Y-129485000D01*
X209011111Y-129463513D01*
X209291034Y-129378599D01*
X209549014Y-129240706D01*
X209775134Y-129055134D01*
X209960706Y-128829014D01*
X210098599Y-128571034D01*
X210183513Y-128291111D01*
X210212185Y-128000000D01*
X210183513Y-127708889D01*
X210098599Y-127428966D01*
X209960706Y-127170986D01*
X209895396Y-127091405D01*
X212015800Y-124971002D01*
X212015800Y-129070198D01*
X199988072Y-141097927D01*
X199988072Y-140610000D01*
X199975812Y-140485518D01*
X199939502Y-140365820D01*
X199880537Y-140255506D01*
X199801185Y-140158815D01*
X199704494Y-140079463D01*
X199594180Y-140020498D01*
X199474482Y-139984188D01*
X199350000Y-139971928D01*
X197650000Y-139971928D01*
X197525518Y-139984188D01*
X197405820Y-140020498D01*
X197295506Y-140079463D01*
X197198815Y-140158815D01*
X197119463Y-140255506D01*
X197060498Y-140365820D01*
X197039607Y-140434687D01*
X197015134Y-140404866D01*
X196789014Y-140219294D01*
X196720000Y-140182405D01*
X196720000Y-135139323D01*
X196723676Y-135102000D01*
X196720000Y-135064677D01*
X196720000Y-135064667D01*
X196709003Y-134953014D01*
X196665546Y-134809753D01*
X196644819Y-134770976D01*
X196594974Y-134677723D01*
X196523799Y-134590997D01*
X196500001Y-134561999D01*
X196471003Y-134538201D01*
X184916666Y-122983865D01*
X185016913Y-123031246D01*
X185150961Y-123071904D01*
X185373000Y-122949915D01*
X185373000Y-121807000D01*
X185627000Y-121807000D01*
X185627000Y-122949915D01*
X185849039Y-123071904D01*
X185983087Y-123031246D01*
X186237420Y-122911037D01*
X186463414Y-122743519D01*
X186652385Y-122535131D01*
X186797070Y-122293881D01*
X186891909Y-122029040D01*
X186770624Y-121807000D01*
X185627000Y-121807000D01*
X185373000Y-121807000D01*
X185353000Y-121807000D01*
X185353000Y-121553000D01*
X185373000Y-121553000D01*
X185373000Y-121533000D01*
X185627000Y-121533000D01*
X185627000Y-121553000D01*
X186770624Y-121553000D01*
X186891909Y-121330960D01*
X186886086Y-121314700D01*
X187874599Y-121314700D01*
X188785801Y-122225903D01*
G36*
X185754104Y-132654206D02*
G01*
X185707000Y-132680085D01*
X185707000Y-133823000D01*
X186850624Y-133823000D01*
X186876156Y-133776258D01*
X193103950Y-140004052D01*
X192848966Y-140081401D01*
X192590986Y-140219294D01*
X192364866Y-140404866D01*
X192179294Y-140630986D01*
X192150000Y-140685791D01*
X192120706Y-140630986D01*
X191935134Y-140404866D01*
X191709014Y-140219294D01*
X191451034Y-140081401D01*
X191171111Y-139996487D01*
X190952950Y-139975000D01*
X190807050Y-139975000D01*
X190588889Y-139996487D01*
X190308966Y-140081401D01*
X190050986Y-140219294D01*
X189971406Y-140284604D01*
X184890476Y-135203675D01*
X185096913Y-135301246D01*
X185230961Y-135341904D01*
X185453000Y-135219915D01*
X185453000Y-134077000D01*
X185707000Y-134077000D01*
X185707000Y-135219915D01*
X185929039Y-135341904D01*
X186063087Y-135301246D01*
X186317420Y-135181037D01*
X186543414Y-135013519D01*
X186732385Y-134805131D01*
X186877070Y-134563881D01*
X186971909Y-134299040D01*
X186850624Y-134077000D01*
X185707000Y-134077000D01*
X185453000Y-134077000D01*
X185433000Y-134077000D01*
X185433000Y-133823000D01*
X185453000Y-133823000D01*
X185453000Y-132680085D01*
X185230961Y-132558096D01*
X185096913Y-132598754D01*
X184842580Y-132718963D01*
X184616586Y-132886481D01*
X184427615Y-133094869D01*
X184312579Y-133286682D01*
X184238932Y-133148899D01*
X184059608Y-132930392D01*
X183841101Y-132751068D01*
X183591808Y-132617818D01*
X183321309Y-132535764D01*
X183110492Y-132515000D01*
X182969508Y-132515000D01*
X182758691Y-132535764D01*
X182488192Y-132617818D01*
X182414200Y-132657368D01*
X182414200Y-129314301D01*
X185754104Y-132654206D01*
X185754104Y-132654206D01*
G37*
X185754104Y-132654206D02*
X185707000Y-132680085D01*
X185707000Y-133823000D01*
X186850624Y-133823000D01*
X186876156Y-133776258D01*
X193103950Y-140004052D01*
X192848966Y-140081401D01*
X192590986Y-140219294D01*
X192364866Y-140404866D01*
X192179294Y-140630986D01*
X192150000Y-140685791D01*
X192120706Y-140630986D01*
X191935134Y-140404866D01*
X191709014Y-140219294D01*
X191451034Y-140081401D01*
X191171111Y-139996487D01*
X190952950Y-139975000D01*
X190807050Y-139975000D01*
X190588889Y-139996487D01*
X190308966Y-140081401D01*
X190050986Y-140219294D01*
X189971406Y-140284604D01*
X184890476Y-135203675D01*
X185096913Y-135301246D01*
X185230961Y-135341904D01*
X185453000Y-135219915D01*
X185453000Y-134077000D01*
X185707000Y-134077000D01*
X185707000Y-135219915D01*
X185929039Y-135341904D01*
X186063087Y-135301246D01*
X186317420Y-135181037D01*
X186543414Y-135013519D01*
X186732385Y-134805131D01*
X186877070Y-134563881D01*
X186971909Y-134299040D01*
X186850624Y-134077000D01*
X185707000Y-134077000D01*
X185453000Y-134077000D01*
X185433000Y-134077000D01*
X185433000Y-133823000D01*
X185453000Y-133823000D01*
X185453000Y-132680085D01*
X185230961Y-132558096D01*
X185096913Y-132598754D01*
X184842580Y-132718963D01*
X184616586Y-132886481D01*
X184427615Y-133094869D01*
X184312579Y-133286682D01*
X184238932Y-133148899D01*
X184059608Y-132930392D01*
X183841101Y-132751068D01*
X183591808Y-132617818D01*
X183321309Y-132535764D01*
X183110492Y-132515000D01*
X182969508Y-132515000D01*
X182758691Y-132535764D01*
X182488192Y-132617818D01*
X182414200Y-132657368D01*
X182414200Y-129314301D01*
X185754104Y-132654206D01*
G36*
X152672710Y-125530000D02*
G01*
X152418665Y-125530000D01*
X152141426Y-125585147D01*
X151880273Y-125693320D01*
X151645241Y-125850363D01*
X151445363Y-126050241D01*
X151288320Y-126285273D01*
X151180147Y-126546426D01*
X151125000Y-126823665D01*
X151125000Y-127106335D01*
X151180147Y-127383574D01*
X151288320Y-127644727D01*
X151445363Y-127879759D01*
X151645241Y-128079637D01*
X151880273Y-128236680D01*
X152141426Y-128344853D01*
X152418665Y-128400000D01*
X152701335Y-128400000D01*
X152978574Y-128344853D01*
X153239727Y-128236680D01*
X153474759Y-128079637D01*
X153674637Y-127879759D01*
X153831680Y-127644727D01*
X153939853Y-127383574D01*
X153995000Y-127106335D01*
X153995000Y-126852290D01*
X154247690Y-126599600D01*
X161331272Y-126599600D01*
X161305764Y-126683691D01*
X161278057Y-126965000D01*
X161305764Y-127246309D01*
X161387818Y-127516808D01*
X161521068Y-127766101D01*
X161700392Y-127984608D01*
X161918899Y-128163932D01*
X162168192Y-128297182D01*
X162438691Y-128379236D01*
X162649508Y-128400000D01*
X162790492Y-128400000D01*
X163001309Y-128379236D01*
X163271808Y-128297182D01*
X163521101Y-128163932D01*
X163739608Y-127984608D01*
X163918932Y-127766101D01*
X163940901Y-127725000D01*
X165818783Y-127725000D01*
X165807429Y-127748996D01*
X165738700Y-128023184D01*
X165724783Y-128305512D01*
X165766213Y-128585130D01*
X165861397Y-128851292D01*
X165928329Y-128976514D01*
X166172298Y-129048097D01*
X166985395Y-128235000D01*
X166971253Y-128220858D01*
X167150858Y-128041253D01*
X167165000Y-128055395D01*
X167179143Y-128041253D01*
X167358748Y-128220858D01*
X167344605Y-128235000D01*
X168157702Y-129048097D01*
X168401671Y-128976514D01*
X168522571Y-128721004D01*
X168591300Y-128446816D01*
X168605217Y-128164488D01*
X168592449Y-128078313D01*
X168607023Y-128090274D01*
X168716863Y-128148985D01*
X168739053Y-128160846D01*
X168882314Y-128204303D01*
X168993967Y-128215300D01*
X168993977Y-128215300D01*
X169031300Y-128218976D01*
X169068623Y-128215300D01*
X170873478Y-128215300D01*
X170910800Y-128218976D01*
X170948122Y-128215300D01*
X170948133Y-128215300D01*
X171059786Y-128204303D01*
X171203047Y-128160846D01*
X171335076Y-128090274D01*
X171450801Y-127995301D01*
X171474603Y-127966298D01*
X171987214Y-127453688D01*
X172078899Y-127528932D01*
X172328192Y-127662182D01*
X172598691Y-127744236D01*
X172809508Y-127765000D01*
X172950492Y-127765000D01*
X173161309Y-127744236D01*
X173431808Y-127662182D01*
X173681101Y-127528932D01*
X173899608Y-127349608D01*
X174078932Y-127131101D01*
X174112211Y-127068840D01*
X174145714Y-127079003D01*
X174195861Y-127083942D01*
X174221068Y-127131101D01*
X174400392Y-127349608D01*
X174618899Y-127528932D01*
X174660000Y-127550901D01*
X174660000Y-127707377D01*
X174656324Y-127744700D01*
X174660000Y-127782022D01*
X174660000Y-127782032D01*
X174670997Y-127893685D01*
X174710610Y-128024275D01*
X174714454Y-128036946D01*
X174785026Y-128168976D01*
X174815085Y-128205602D01*
X174879999Y-128284701D01*
X174909003Y-128308504D01*
X178198032Y-131597534D01*
X178095386Y-131566397D01*
X177983733Y-131555400D01*
X177983722Y-131555400D01*
X177946400Y-131551724D01*
X177909078Y-131555400D01*
X172011922Y-131555400D01*
X171974599Y-131551724D01*
X171937276Y-131555400D01*
X171937267Y-131555400D01*
X171825614Y-131566397D01*
X171682353Y-131609854D01*
X171550324Y-131680426D01*
X171550322Y-131680427D01*
X171550323Y-131680427D01*
X171463596Y-131751601D01*
X171463592Y-131751605D01*
X171434599Y-131775399D01*
X171410805Y-131804392D01*
X170703270Y-132511928D01*
X169540000Y-132511928D01*
X169415518Y-132524188D01*
X169295820Y-132560498D01*
X169185506Y-132619463D01*
X169088815Y-132698815D01*
X169066053Y-132726551D01*
X167238504Y-130899003D01*
X167214701Y-130869999D01*
X167098976Y-130775026D01*
X166966947Y-130704454D01*
X166823686Y-130660997D01*
X166712033Y-130650000D01*
X166712022Y-130650000D01*
X166674700Y-130646324D01*
X166637378Y-130650000D01*
X163940901Y-130650000D01*
X163918932Y-130608899D01*
X163739608Y-130390392D01*
X163521101Y-130211068D01*
X163271808Y-130077818D01*
X163001309Y-129995764D01*
X162790492Y-129975000D01*
X162649508Y-129975000D01*
X162438691Y-129995764D01*
X162168192Y-130077818D01*
X161918899Y-130211068D01*
X161700392Y-130390392D01*
X161521068Y-130608899D01*
X161387818Y-130858192D01*
X161305764Y-131128691D01*
X161278057Y-131410000D01*
X161305764Y-131691309D01*
X161387818Y-131961808D01*
X161521068Y-132211101D01*
X161700392Y-132429608D01*
X161918899Y-132608932D01*
X162168192Y-132742182D01*
X162438691Y-132824236D01*
X162649508Y-132845000D01*
X162790492Y-132845000D01*
X163001309Y-132824236D01*
X163271808Y-132742182D01*
X163521101Y-132608932D01*
X163739608Y-132429608D01*
X163918932Y-132211101D01*
X163940901Y-132170000D01*
X166359899Y-132170000D01*
X168523997Y-134334100D01*
X151211102Y-134334100D01*
X148145667Y-131268665D01*
X151125000Y-131268665D01*
X151125000Y-131551335D01*
X151180147Y-131828574D01*
X151288320Y-132089727D01*
X151445363Y-132324759D01*
X151645241Y-132524637D01*
X151880273Y-132681680D01*
X152141426Y-132789853D01*
X152418665Y-132845000D01*
X152701335Y-132845000D01*
X152978574Y-132789853D01*
X153239727Y-132681680D01*
X153474759Y-132524637D01*
X153674637Y-132324759D01*
X153831680Y-132089727D01*
X153939853Y-131828574D01*
X153995000Y-131551335D01*
X153995000Y-131268665D01*
X153939853Y-130991426D01*
X153831680Y-130730273D01*
X153674637Y-130495241D01*
X153474759Y-130295363D01*
X153239727Y-130138320D01*
X152978574Y-130030147D01*
X152701335Y-129975000D01*
X152418665Y-129975000D01*
X152141426Y-130030147D01*
X151880273Y-130138320D01*
X151645241Y-130295363D01*
X151445363Y-130495241D01*
X151288320Y-130730273D01*
X151180147Y-130991426D01*
X151125000Y-131268665D01*
X148145667Y-131268665D01*
X146104704Y-129227702D01*
X166351903Y-129227702D01*
X166423486Y-129471671D01*
X166678996Y-129592571D01*
X166953184Y-129661300D01*
X167235512Y-129675217D01*
X167515130Y-129633787D01*
X167781292Y-129538603D01*
X167906514Y-129471671D01*
X167978097Y-129227702D01*
X167165000Y-128414605D01*
X166351903Y-129227702D01*
X146104704Y-129227702D01*
X145965074Y-129088072D01*
X146425000Y-129088072D01*
X146549482Y-129075812D01*
X146669180Y-129039502D01*
X146779494Y-128980537D01*
X146876185Y-128901185D01*
X146955537Y-128804494D01*
X147014502Y-128694180D01*
X147035393Y-128625313D01*
X147059866Y-128655134D01*
X147285986Y-128840706D01*
X147543966Y-128978599D01*
X147823889Y-129063513D01*
X148042050Y-129085000D01*
X148187950Y-129085000D01*
X148406111Y-129063513D01*
X148686034Y-128978599D01*
X148944014Y-128840706D01*
X149170134Y-128655134D01*
X149355706Y-128429014D01*
X149493599Y-128171034D01*
X149578513Y-127891111D01*
X149607185Y-127600000D01*
X149578513Y-127308889D01*
X149493599Y-127028966D01*
X149355706Y-126770986D01*
X149170134Y-126544866D01*
X148944014Y-126359294D01*
X148784024Y-126273778D01*
X149688202Y-125369600D01*
X152833110Y-125369600D01*
X152672710Y-125530000D01*
X152672710Y-125530000D01*
G37*
X152672710Y-125530000D02*
X152418665Y-125530000D01*
X152141426Y-125585147D01*
X151880273Y-125693320D01*
X151645241Y-125850363D01*
X151445363Y-126050241D01*
X151288320Y-126285273D01*
X151180147Y-126546426D01*
X151125000Y-126823665D01*
X151125000Y-127106335D01*
X151180147Y-127383574D01*
X151288320Y-127644727D01*
X151445363Y-127879759D01*
X151645241Y-128079637D01*
X151880273Y-128236680D01*
X152141426Y-128344853D01*
X152418665Y-128400000D01*
X152701335Y-128400000D01*
X152978574Y-128344853D01*
X153239727Y-128236680D01*
X153474759Y-128079637D01*
X153674637Y-127879759D01*
X153831680Y-127644727D01*
X153939853Y-127383574D01*
X153995000Y-127106335D01*
X153995000Y-126852290D01*
X154247690Y-126599600D01*
X161331272Y-126599600D01*
X161305764Y-126683691D01*
X161278057Y-126965000D01*
X161305764Y-127246309D01*
X161387818Y-127516808D01*
X161521068Y-127766101D01*
X161700392Y-127984608D01*
X161918899Y-128163932D01*
X162168192Y-128297182D01*
X162438691Y-128379236D01*
X162649508Y-128400000D01*
X162790492Y-128400000D01*
X163001309Y-128379236D01*
X163271808Y-128297182D01*
X163521101Y-128163932D01*
X163739608Y-127984608D01*
X163918932Y-127766101D01*
X163940901Y-127725000D01*
X165818783Y-127725000D01*
X165807429Y-127748996D01*
X165738700Y-128023184D01*
X165724783Y-128305512D01*
X165766213Y-128585130D01*
X165861397Y-128851292D01*
X165928329Y-128976514D01*
X166172298Y-129048097D01*
X166985395Y-128235000D01*
X166971253Y-128220858D01*
X167150858Y-128041253D01*
X167165000Y-128055395D01*
X167179143Y-128041253D01*
X167358748Y-128220858D01*
X167344605Y-128235000D01*
X168157702Y-129048097D01*
X168401671Y-128976514D01*
X168522571Y-128721004D01*
X168591300Y-128446816D01*
X168605217Y-128164488D01*
X168592449Y-128078313D01*
X168607023Y-128090274D01*
X168716863Y-128148985D01*
X168739053Y-128160846D01*
X168882314Y-128204303D01*
X168993967Y-128215300D01*
X168993977Y-128215300D01*
X169031300Y-128218976D01*
X169068623Y-128215300D01*
X170873478Y-128215300D01*
X170910800Y-128218976D01*
X170948122Y-128215300D01*
X170948133Y-128215300D01*
X171059786Y-128204303D01*
X171203047Y-128160846D01*
X171335076Y-128090274D01*
X171450801Y-127995301D01*
X171474603Y-127966298D01*
X171987214Y-127453688D01*
X172078899Y-127528932D01*
X172328192Y-127662182D01*
X172598691Y-127744236D01*
X172809508Y-127765000D01*
X172950492Y-127765000D01*
X173161309Y-127744236D01*
X173431808Y-127662182D01*
X173681101Y-127528932D01*
X173899608Y-127349608D01*
X174078932Y-127131101D01*
X174112211Y-127068840D01*
X174145714Y-127079003D01*
X174195861Y-127083942D01*
X174221068Y-127131101D01*
X174400392Y-127349608D01*
X174618899Y-127528932D01*
X174660000Y-127550901D01*
X174660000Y-127707377D01*
X174656324Y-127744700D01*
X174660000Y-127782022D01*
X174660000Y-127782032D01*
X174670997Y-127893685D01*
X174710610Y-128024275D01*
X174714454Y-128036946D01*
X174785026Y-128168976D01*
X174815085Y-128205602D01*
X174879999Y-128284701D01*
X174909003Y-128308504D01*
X178198032Y-131597534D01*
X178095386Y-131566397D01*
X177983733Y-131555400D01*
X177983722Y-131555400D01*
X177946400Y-131551724D01*
X177909078Y-131555400D01*
X172011922Y-131555400D01*
X171974599Y-131551724D01*
X171937276Y-131555400D01*
X171937267Y-131555400D01*
X171825614Y-131566397D01*
X171682353Y-131609854D01*
X171550324Y-131680426D01*
X171550322Y-131680427D01*
X171550323Y-131680427D01*
X171463596Y-131751601D01*
X171463592Y-131751605D01*
X171434599Y-131775399D01*
X171410805Y-131804392D01*
X170703270Y-132511928D01*
X169540000Y-132511928D01*
X169415518Y-132524188D01*
X169295820Y-132560498D01*
X169185506Y-132619463D01*
X169088815Y-132698815D01*
X169066053Y-132726551D01*
X167238504Y-130899003D01*
X167214701Y-130869999D01*
X167098976Y-130775026D01*
X166966947Y-130704454D01*
X166823686Y-130660997D01*
X166712033Y-130650000D01*
X166712022Y-130650000D01*
X166674700Y-130646324D01*
X166637378Y-130650000D01*
X163940901Y-130650000D01*
X163918932Y-130608899D01*
X163739608Y-130390392D01*
X163521101Y-130211068D01*
X163271808Y-130077818D01*
X163001309Y-129995764D01*
X162790492Y-129975000D01*
X162649508Y-129975000D01*
X162438691Y-129995764D01*
X162168192Y-130077818D01*
X161918899Y-130211068D01*
X161700392Y-130390392D01*
X161521068Y-130608899D01*
X161387818Y-130858192D01*
X161305764Y-131128691D01*
X161278057Y-131410000D01*
X161305764Y-131691309D01*
X161387818Y-131961808D01*
X161521068Y-132211101D01*
X161700392Y-132429608D01*
X161918899Y-132608932D01*
X162168192Y-132742182D01*
X162438691Y-132824236D01*
X162649508Y-132845000D01*
X162790492Y-132845000D01*
X163001309Y-132824236D01*
X163271808Y-132742182D01*
X163521101Y-132608932D01*
X163739608Y-132429608D01*
X163918932Y-132211101D01*
X163940901Y-132170000D01*
X166359899Y-132170000D01*
X168523997Y-134334100D01*
X151211102Y-134334100D01*
X148145667Y-131268665D01*
X151125000Y-131268665D01*
X151125000Y-131551335D01*
X151180147Y-131828574D01*
X151288320Y-132089727D01*
X151445363Y-132324759D01*
X151645241Y-132524637D01*
X151880273Y-132681680D01*
X152141426Y-132789853D01*
X152418665Y-132845000D01*
X152701335Y-132845000D01*
X152978574Y-132789853D01*
X153239727Y-132681680D01*
X153474759Y-132524637D01*
X153674637Y-132324759D01*
X153831680Y-132089727D01*
X153939853Y-131828574D01*
X153995000Y-131551335D01*
X153995000Y-131268665D01*
X153939853Y-130991426D01*
X153831680Y-130730273D01*
X153674637Y-130495241D01*
X153474759Y-130295363D01*
X153239727Y-130138320D01*
X152978574Y-130030147D01*
X152701335Y-129975000D01*
X152418665Y-129975000D01*
X152141426Y-130030147D01*
X151880273Y-130138320D01*
X151645241Y-130295363D01*
X151445363Y-130495241D01*
X151288320Y-130730273D01*
X151180147Y-130991426D01*
X151125000Y-131268665D01*
X148145667Y-131268665D01*
X146104704Y-129227702D01*
X166351903Y-129227702D01*
X166423486Y-129471671D01*
X166678996Y-129592571D01*
X166953184Y-129661300D01*
X167235512Y-129675217D01*
X167515130Y-129633787D01*
X167781292Y-129538603D01*
X167906514Y-129471671D01*
X167978097Y-129227702D01*
X167165000Y-128414605D01*
X166351903Y-129227702D01*
X146104704Y-129227702D01*
X145965074Y-129088072D01*
X146425000Y-129088072D01*
X146549482Y-129075812D01*
X146669180Y-129039502D01*
X146779494Y-128980537D01*
X146876185Y-128901185D01*
X146955537Y-128804494D01*
X147014502Y-128694180D01*
X147035393Y-128625313D01*
X147059866Y-128655134D01*
X147285986Y-128840706D01*
X147543966Y-128978599D01*
X147823889Y-129063513D01*
X148042050Y-129085000D01*
X148187950Y-129085000D01*
X148406111Y-129063513D01*
X148686034Y-128978599D01*
X148944014Y-128840706D01*
X149170134Y-128655134D01*
X149355706Y-128429014D01*
X149493599Y-128171034D01*
X149578513Y-127891111D01*
X149607185Y-127600000D01*
X149578513Y-127308889D01*
X149493599Y-127028966D01*
X149355706Y-126770986D01*
X149170134Y-126544866D01*
X148944014Y-126359294D01*
X148784024Y-126273778D01*
X149688202Y-125369600D01*
X152833110Y-125369600D01*
X152672710Y-125530000D01*
G36*
X188032926Y-108180037D02*
G01*
X188202444Y-108293305D01*
X188390802Y-108371326D01*
X188590761Y-108411100D01*
X188794639Y-108411100D01*
X188994598Y-108371326D01*
X189182956Y-108293305D01*
X189352474Y-108180037D01*
X189396411Y-108136100D01*
X191985267Y-108136100D01*
X191981928Y-108170000D01*
X191981928Y-109770000D01*
X191994188Y-109894482D01*
X192030498Y-110014180D01*
X192089463Y-110124494D01*
X192168815Y-110221185D01*
X192265506Y-110300537D01*
X192375820Y-110359502D01*
X192495518Y-110395812D01*
X192620000Y-110408072D01*
X194220000Y-110408072D01*
X194344482Y-110395812D01*
X194464180Y-110359502D01*
X194574494Y-110300537D01*
X194671185Y-110221185D01*
X194750537Y-110124494D01*
X194809502Y-110014180D01*
X194845812Y-109894482D01*
X194847581Y-109876518D01*
X194940392Y-109989608D01*
X195158899Y-110168932D01*
X195408192Y-110302182D01*
X195678691Y-110384236D01*
X195889508Y-110405000D01*
X196030492Y-110405000D01*
X196241309Y-110384236D01*
X196511808Y-110302182D01*
X196761101Y-110168932D01*
X196979608Y-109989608D01*
X197158932Y-109771101D01*
X197192211Y-109708840D01*
X197225714Y-109719003D01*
X197275861Y-109723942D01*
X197301068Y-109771101D01*
X197480392Y-109989608D01*
X197698899Y-110168932D01*
X197948192Y-110302182D01*
X198218691Y-110384236D01*
X198429508Y-110405000D01*
X198570492Y-110405000D01*
X198781309Y-110384236D01*
X199051808Y-110302182D01*
X199301101Y-110168932D01*
X199519608Y-109989608D01*
X199698932Y-109771101D01*
X199770000Y-109638142D01*
X199841068Y-109771101D01*
X200020392Y-109989608D01*
X200238899Y-110168932D01*
X200488192Y-110302182D01*
X200758691Y-110384236D01*
X200969508Y-110405000D01*
X201110492Y-110405000D01*
X201321309Y-110384236D01*
X201591808Y-110302182D01*
X201841101Y-110168932D01*
X202059608Y-109989608D01*
X202238932Y-109771101D01*
X202310000Y-109638142D01*
X202381068Y-109771101D01*
X202560392Y-109989608D01*
X202778899Y-110168932D01*
X203028192Y-110302182D01*
X203298691Y-110384236D01*
X203509508Y-110405000D01*
X203650492Y-110405000D01*
X203861309Y-110384236D01*
X204131808Y-110302182D01*
X204381101Y-110168932D01*
X204599608Y-109989608D01*
X204778932Y-109771101D01*
X204850000Y-109638142D01*
X204921068Y-109771101D01*
X205100392Y-109989608D01*
X205318899Y-110168932D01*
X205568192Y-110302182D01*
X205838691Y-110384236D01*
X206049508Y-110405000D01*
X206190492Y-110405000D01*
X206401309Y-110384236D01*
X206671808Y-110302182D01*
X206921101Y-110168932D01*
X207139608Y-109989608D01*
X207318932Y-109771101D01*
X207390000Y-109638142D01*
X207461068Y-109771101D01*
X207640392Y-109989608D01*
X207858899Y-110168932D01*
X208108192Y-110302182D01*
X208378691Y-110384236D01*
X208589508Y-110405000D01*
X208730492Y-110405000D01*
X208941309Y-110384236D01*
X209211808Y-110302182D01*
X209461101Y-110168932D01*
X209679608Y-109989608D01*
X209858932Y-109771101D01*
X209932579Y-109633318D01*
X210047615Y-109825131D01*
X210236586Y-110033519D01*
X210462580Y-110201037D01*
X210716913Y-110321246D01*
X210850961Y-110361904D01*
X211073000Y-110239915D01*
X211073000Y-109097000D01*
X211053000Y-109097000D01*
X211053000Y-108843000D01*
X211073000Y-108843000D01*
X211073000Y-108823000D01*
X211327000Y-108823000D01*
X211327000Y-108843000D01*
X211347000Y-108843000D01*
X211347000Y-109097000D01*
X211327000Y-109097000D01*
X211327000Y-110239915D01*
X211549039Y-110361904D01*
X211565400Y-110356942D01*
X211565401Y-123271797D01*
X210046222Y-124790976D01*
X209960706Y-124630986D01*
X209895396Y-124551405D01*
X210416604Y-124030198D01*
X210445601Y-124006401D01*
X210500928Y-123938985D01*
X210540574Y-123890677D01*
X210611146Y-123758647D01*
X210619222Y-123732024D01*
X210654603Y-123615386D01*
X210665600Y-123503733D01*
X210665600Y-123503723D01*
X210669276Y-123466400D01*
X210665600Y-123429077D01*
X210665600Y-122467522D01*
X210669276Y-122430199D01*
X210665600Y-122392876D01*
X210665600Y-122392867D01*
X210654603Y-122281214D01*
X210611146Y-122137953D01*
X210540574Y-122005924D01*
X210504034Y-121961400D01*
X210469399Y-121919196D01*
X210469395Y-121919192D01*
X210445601Y-121890199D01*
X210416608Y-121866405D01*
X209869883Y-121319682D01*
X209960706Y-121209014D01*
X210098599Y-120951034D01*
X210183513Y-120671111D01*
X210212185Y-120380000D01*
X210183513Y-120088889D01*
X210098599Y-119808966D01*
X209960706Y-119550986D01*
X209775134Y-119324866D01*
X209745313Y-119300393D01*
X209814180Y-119279502D01*
X209924494Y-119220537D01*
X210021185Y-119141185D01*
X210100537Y-119044494D01*
X210159502Y-118934180D01*
X210195812Y-118814482D01*
X210208072Y-118690000D01*
X210208072Y-116990000D01*
X210195812Y-116865518D01*
X210159502Y-116745820D01*
X210100537Y-116635506D01*
X210021185Y-116538815D01*
X209924494Y-116459463D01*
X209814180Y-116400498D01*
X209694482Y-116364188D01*
X209570000Y-116351928D01*
X207870000Y-116351928D01*
X207745518Y-116364188D01*
X207625820Y-116400498D01*
X207515506Y-116459463D01*
X207418815Y-116538815D01*
X207339463Y-116635506D01*
X207280498Y-116745820D01*
X207244188Y-116865518D01*
X207231928Y-116990000D01*
X207231928Y-118690000D01*
X207244188Y-118814482D01*
X207280498Y-118934180D01*
X207339463Y-119044494D01*
X207418815Y-119141185D01*
X207515506Y-119220537D01*
X207625820Y-119279502D01*
X207694687Y-119300393D01*
X207664866Y-119324866D01*
X207479294Y-119550986D01*
X207341401Y-119808966D01*
X207256487Y-120088889D01*
X207238717Y-120269315D01*
X198415904Y-111446503D01*
X198392101Y-111417499D01*
X198276376Y-111322526D01*
X198144347Y-111251954D01*
X198001086Y-111208497D01*
X197889433Y-111197500D01*
X197889422Y-111197500D01*
X197852100Y-111193824D01*
X197814778Y-111197500D01*
X180019822Y-111197500D01*
X179982499Y-111193824D01*
X179945177Y-111197500D01*
X179945167Y-111197500D01*
X179833514Y-111208497D01*
X179696695Y-111250000D01*
X179690253Y-111251954D01*
X179558223Y-111322526D01*
X179506954Y-111364602D01*
X179442499Y-111417499D01*
X179418701Y-111446497D01*
X178205906Y-112659292D01*
X178161309Y-112645764D01*
X177950492Y-112625000D01*
X177809508Y-112625000D01*
X177598691Y-112645764D01*
X177328192Y-112727818D01*
X177078899Y-112861068D01*
X176860392Y-113040392D01*
X176681068Y-113258899D01*
X176647789Y-113321160D01*
X176614286Y-113310997D01*
X176564139Y-113306058D01*
X176538932Y-113258899D01*
X176359608Y-113040392D01*
X176141101Y-112861068D01*
X176138729Y-112859800D01*
X176200378Y-112859800D01*
X176237700Y-112863476D01*
X176275022Y-112859800D01*
X176275033Y-112859800D01*
X176386686Y-112848803D01*
X176529947Y-112805346D01*
X176661976Y-112734774D01*
X176777701Y-112639801D01*
X176801504Y-112610797D01*
X179358551Y-110053751D01*
X179498899Y-110168932D01*
X179748192Y-110302182D01*
X180018691Y-110384236D01*
X180229508Y-110405000D01*
X180370492Y-110405000D01*
X180581309Y-110384236D01*
X180851808Y-110302182D01*
X181101101Y-110168932D01*
X181319608Y-109989608D01*
X181498932Y-109771101D01*
X181532211Y-109708840D01*
X181565714Y-109719003D01*
X181615861Y-109723942D01*
X181641068Y-109771101D01*
X181820392Y-109989608D01*
X182038899Y-110168932D01*
X182288192Y-110302182D01*
X182558691Y-110384236D01*
X182769508Y-110405000D01*
X182910492Y-110405000D01*
X183121309Y-110384236D01*
X183391808Y-110302182D01*
X183641101Y-110168932D01*
X183859608Y-109989608D01*
X184038932Y-109771101D01*
X184112579Y-109633318D01*
X184227615Y-109825131D01*
X184416586Y-110033519D01*
X184642580Y-110201037D01*
X184896913Y-110321246D01*
X185030961Y-110361904D01*
X185253000Y-110239915D01*
X185253000Y-109097000D01*
X185507000Y-109097000D01*
X185507000Y-110239915D01*
X185729039Y-110361904D01*
X185863087Y-110321246D01*
X186117420Y-110201037D01*
X186343414Y-110033519D01*
X186532385Y-109825131D01*
X186677070Y-109583881D01*
X186771909Y-109319040D01*
X186650624Y-109097000D01*
X185507000Y-109097000D01*
X185253000Y-109097000D01*
X185233000Y-109097000D01*
X185233000Y-108843000D01*
X185253000Y-108843000D01*
X185253000Y-108823000D01*
X185507000Y-108823000D01*
X185507000Y-108843000D01*
X186650624Y-108843000D01*
X186771909Y-108620960D01*
X186677070Y-108356119D01*
X186545118Y-108136100D01*
X187988989Y-108136100D01*
X188032926Y-108180037D01*
X188032926Y-108180037D01*
G37*
X188032926Y-108180037D02*
X188202444Y-108293305D01*
X188390802Y-108371326D01*
X188590761Y-108411100D01*
X188794639Y-108411100D01*
X188994598Y-108371326D01*
X189182956Y-108293305D01*
X189352474Y-108180037D01*
X189396411Y-108136100D01*
X191985267Y-108136100D01*
X191981928Y-108170000D01*
X191981928Y-109770000D01*
X191994188Y-109894482D01*
X192030498Y-110014180D01*
X192089463Y-110124494D01*
X192168815Y-110221185D01*
X192265506Y-110300537D01*
X192375820Y-110359502D01*
X192495518Y-110395812D01*
X192620000Y-110408072D01*
X194220000Y-110408072D01*
X194344482Y-110395812D01*
X194464180Y-110359502D01*
X194574494Y-110300537D01*
X194671185Y-110221185D01*
X194750537Y-110124494D01*
X194809502Y-110014180D01*
X194845812Y-109894482D01*
X194847581Y-109876518D01*
X194940392Y-109989608D01*
X195158899Y-110168932D01*
X195408192Y-110302182D01*
X195678691Y-110384236D01*
X195889508Y-110405000D01*
X196030492Y-110405000D01*
X196241309Y-110384236D01*
X196511808Y-110302182D01*
X196761101Y-110168932D01*
X196979608Y-109989608D01*
X197158932Y-109771101D01*
X197192211Y-109708840D01*
X197225714Y-109719003D01*
X197275861Y-109723942D01*
X197301068Y-109771101D01*
X197480392Y-109989608D01*
X197698899Y-110168932D01*
X197948192Y-110302182D01*
X198218691Y-110384236D01*
X198429508Y-110405000D01*
X198570492Y-110405000D01*
X198781309Y-110384236D01*
X199051808Y-110302182D01*
X199301101Y-110168932D01*
X199519608Y-109989608D01*
X199698932Y-109771101D01*
X199770000Y-109638142D01*
X199841068Y-109771101D01*
X200020392Y-109989608D01*
X200238899Y-110168932D01*
X200488192Y-110302182D01*
X200758691Y-110384236D01*
X200969508Y-110405000D01*
X201110492Y-110405000D01*
X201321309Y-110384236D01*
X201591808Y-110302182D01*
X201841101Y-110168932D01*
X202059608Y-109989608D01*
X202238932Y-109771101D01*
X202310000Y-109638142D01*
X202381068Y-109771101D01*
X202560392Y-109989608D01*
X202778899Y-110168932D01*
X203028192Y-110302182D01*
X203298691Y-110384236D01*
X203509508Y-110405000D01*
X203650492Y-110405000D01*
X203861309Y-110384236D01*
X204131808Y-110302182D01*
X204381101Y-110168932D01*
X204599608Y-109989608D01*
X204778932Y-109771101D01*
X204850000Y-109638142D01*
X204921068Y-109771101D01*
X205100392Y-109989608D01*
X205318899Y-110168932D01*
X205568192Y-110302182D01*
X205838691Y-110384236D01*
X206049508Y-110405000D01*
X206190492Y-110405000D01*
X206401309Y-110384236D01*
X206671808Y-110302182D01*
X206921101Y-110168932D01*
X207139608Y-109989608D01*
X207318932Y-109771101D01*
X207390000Y-109638142D01*
X207461068Y-109771101D01*
X207640392Y-109989608D01*
X207858899Y-110168932D01*
X208108192Y-110302182D01*
X208378691Y-110384236D01*
X208589508Y-110405000D01*
X208730492Y-110405000D01*
X208941309Y-110384236D01*
X209211808Y-110302182D01*
X209461101Y-110168932D01*
X209679608Y-109989608D01*
X209858932Y-109771101D01*
X209932579Y-109633318D01*
X210047615Y-109825131D01*
X210236586Y-110033519D01*
X210462580Y-110201037D01*
X210716913Y-110321246D01*
X210850961Y-110361904D01*
X211073000Y-110239915D01*
X211073000Y-109097000D01*
X211053000Y-109097000D01*
X211053000Y-108843000D01*
X211073000Y-108843000D01*
X211073000Y-108823000D01*
X211327000Y-108823000D01*
X211327000Y-108843000D01*
X211347000Y-108843000D01*
X211347000Y-109097000D01*
X211327000Y-109097000D01*
X211327000Y-110239915D01*
X211549039Y-110361904D01*
X211565400Y-110356942D01*
X211565401Y-123271797D01*
X210046222Y-124790976D01*
X209960706Y-124630986D01*
X209895396Y-124551405D01*
X210416604Y-124030198D01*
X210445601Y-124006401D01*
X210500928Y-123938985D01*
X210540574Y-123890677D01*
X210611146Y-123758647D01*
X210619222Y-123732024D01*
X210654603Y-123615386D01*
X210665600Y-123503733D01*
X210665600Y-123503723D01*
X210669276Y-123466400D01*
X210665600Y-123429077D01*
X210665600Y-122467522D01*
X210669276Y-122430199D01*
X210665600Y-122392876D01*
X210665600Y-122392867D01*
X210654603Y-122281214D01*
X210611146Y-122137953D01*
X210540574Y-122005924D01*
X210504034Y-121961400D01*
X210469399Y-121919196D01*
X210469395Y-121919192D01*
X210445601Y-121890199D01*
X210416608Y-121866405D01*
X209869883Y-121319682D01*
X209960706Y-121209014D01*
X210098599Y-120951034D01*
X210183513Y-120671111D01*
X210212185Y-120380000D01*
X210183513Y-120088889D01*
X210098599Y-119808966D01*
X209960706Y-119550986D01*
X209775134Y-119324866D01*
X209745313Y-119300393D01*
X209814180Y-119279502D01*
X209924494Y-119220537D01*
X210021185Y-119141185D01*
X210100537Y-119044494D01*
X210159502Y-118934180D01*
X210195812Y-118814482D01*
X210208072Y-118690000D01*
X210208072Y-116990000D01*
X210195812Y-116865518D01*
X210159502Y-116745820D01*
X210100537Y-116635506D01*
X210021185Y-116538815D01*
X209924494Y-116459463D01*
X209814180Y-116400498D01*
X209694482Y-116364188D01*
X209570000Y-116351928D01*
X207870000Y-116351928D01*
X207745518Y-116364188D01*
X207625820Y-116400498D01*
X207515506Y-116459463D01*
X207418815Y-116538815D01*
X207339463Y-116635506D01*
X207280498Y-116745820D01*
X207244188Y-116865518D01*
X207231928Y-116990000D01*
X207231928Y-118690000D01*
X207244188Y-118814482D01*
X207280498Y-118934180D01*
X207339463Y-119044494D01*
X207418815Y-119141185D01*
X207515506Y-119220537D01*
X207625820Y-119279502D01*
X207694687Y-119300393D01*
X207664866Y-119324866D01*
X207479294Y-119550986D01*
X207341401Y-119808966D01*
X207256487Y-120088889D01*
X207238717Y-120269315D01*
X198415904Y-111446503D01*
X198392101Y-111417499D01*
X198276376Y-111322526D01*
X198144347Y-111251954D01*
X198001086Y-111208497D01*
X197889433Y-111197500D01*
X197889422Y-111197500D01*
X197852100Y-111193824D01*
X197814778Y-111197500D01*
X180019822Y-111197500D01*
X179982499Y-111193824D01*
X179945177Y-111197500D01*
X179945167Y-111197500D01*
X179833514Y-111208497D01*
X179696695Y-111250000D01*
X179690253Y-111251954D01*
X179558223Y-111322526D01*
X179506954Y-111364602D01*
X179442499Y-111417499D01*
X179418701Y-111446497D01*
X178205906Y-112659292D01*
X178161309Y-112645764D01*
X177950492Y-112625000D01*
X177809508Y-112625000D01*
X177598691Y-112645764D01*
X177328192Y-112727818D01*
X177078899Y-112861068D01*
X176860392Y-113040392D01*
X176681068Y-113258899D01*
X176647789Y-113321160D01*
X176614286Y-113310997D01*
X176564139Y-113306058D01*
X176538932Y-113258899D01*
X176359608Y-113040392D01*
X176141101Y-112861068D01*
X176138729Y-112859800D01*
X176200378Y-112859800D01*
X176237700Y-112863476D01*
X176275022Y-112859800D01*
X176275033Y-112859800D01*
X176386686Y-112848803D01*
X176529947Y-112805346D01*
X176661976Y-112734774D01*
X176777701Y-112639801D01*
X176801504Y-112610797D01*
X179358551Y-110053751D01*
X179498899Y-110168932D01*
X179748192Y-110302182D01*
X180018691Y-110384236D01*
X180229508Y-110405000D01*
X180370492Y-110405000D01*
X180581309Y-110384236D01*
X180851808Y-110302182D01*
X181101101Y-110168932D01*
X181319608Y-109989608D01*
X181498932Y-109771101D01*
X181532211Y-109708840D01*
X181565714Y-109719003D01*
X181615861Y-109723942D01*
X181641068Y-109771101D01*
X181820392Y-109989608D01*
X182038899Y-110168932D01*
X182288192Y-110302182D01*
X182558691Y-110384236D01*
X182769508Y-110405000D01*
X182910492Y-110405000D01*
X183121309Y-110384236D01*
X183391808Y-110302182D01*
X183641101Y-110168932D01*
X183859608Y-109989608D01*
X184038932Y-109771101D01*
X184112579Y-109633318D01*
X184227615Y-109825131D01*
X184416586Y-110033519D01*
X184642580Y-110201037D01*
X184896913Y-110321246D01*
X185030961Y-110361904D01*
X185253000Y-110239915D01*
X185253000Y-109097000D01*
X185507000Y-109097000D01*
X185507000Y-110239915D01*
X185729039Y-110361904D01*
X185863087Y-110321246D01*
X186117420Y-110201037D01*
X186343414Y-110033519D01*
X186532385Y-109825131D01*
X186677070Y-109583881D01*
X186771909Y-109319040D01*
X186650624Y-109097000D01*
X185507000Y-109097000D01*
X185253000Y-109097000D01*
X185233000Y-109097000D01*
X185233000Y-108843000D01*
X185253000Y-108843000D01*
X185253000Y-108823000D01*
X185507000Y-108823000D01*
X185507000Y-108843000D01*
X186650624Y-108843000D01*
X186771909Y-108620960D01*
X186677070Y-108356119D01*
X186545118Y-108136100D01*
X187988989Y-108136100D01*
X188032926Y-108180037D01*
G36*
X162420999Y-122945900D02*
G01*
X160654822Y-122945900D01*
X160833414Y-122813519D01*
X161022385Y-122605131D01*
X161167070Y-122363881D01*
X161261909Y-122099040D01*
X161140624Y-121877000D01*
X159997000Y-121877000D01*
X159997000Y-121897000D01*
X159743000Y-121897000D01*
X159743000Y-121877000D01*
X159723000Y-121877000D01*
X159723000Y-121623000D01*
X159743000Y-121623000D01*
X159743000Y-121603000D01*
X159997000Y-121603000D01*
X159997000Y-121623000D01*
X161140624Y-121623000D01*
X161261909Y-121400960D01*
X161167070Y-121136119D01*
X161022385Y-120894869D01*
X160833414Y-120686481D01*
X160607420Y-120518963D01*
X160520786Y-120478016D01*
X161899402Y-119099400D01*
X166267498Y-119099400D01*
X162420999Y-122945900D01*
X162420999Y-122945900D01*
G37*
X162420999Y-122945900D02*
X160654822Y-122945900D01*
X160833414Y-122813519D01*
X161022385Y-122605131D01*
X161167070Y-122363881D01*
X161261909Y-122099040D01*
X161140624Y-121877000D01*
X159997000Y-121877000D01*
X159997000Y-121897000D01*
X159743000Y-121897000D01*
X159743000Y-121877000D01*
X159723000Y-121877000D01*
X159723000Y-121623000D01*
X159743000Y-121623000D01*
X159743000Y-121603000D01*
X159997000Y-121603000D01*
X159997000Y-121623000D01*
X161140624Y-121623000D01*
X161261909Y-121400960D01*
X161167070Y-121136119D01*
X161022385Y-120894869D01*
X160833414Y-120686481D01*
X160607420Y-120518963D01*
X160520786Y-120478016D01*
X161899402Y-119099400D01*
X166267498Y-119099400D01*
X162420999Y-122945900D01*
G36*
X147297000Y-114003000D02*
G01*
X149583000Y-114003000D01*
X149583000Y-113983000D01*
X149837000Y-113983000D01*
X149837000Y-114003000D01*
X149857000Y-114003000D01*
X149857000Y-114257000D01*
X149837000Y-114257000D01*
X149837000Y-115399915D01*
X150059039Y-115521904D01*
X150193087Y-115481246D01*
X150447420Y-115361037D01*
X150621557Y-115231958D01*
X151156005Y-115766408D01*
X151179799Y-115795401D01*
X151208792Y-115819195D01*
X151208796Y-115819199D01*
X151279485Y-115877211D01*
X151295524Y-115890374D01*
X151427553Y-115960946D01*
X151570814Y-116004403D01*
X151682467Y-116015400D01*
X151682476Y-116015400D01*
X151719799Y-116019076D01*
X151757122Y-116015400D01*
X163201978Y-116015400D01*
X163239300Y-116019076D01*
X163276622Y-116015400D01*
X163276633Y-116015400D01*
X163388286Y-116004403D01*
X163531547Y-115960946D01*
X163663576Y-115890374D01*
X163773575Y-115800100D01*
X165875833Y-115800100D01*
X165833700Y-115968184D01*
X165819783Y-116250512D01*
X165861213Y-116530130D01*
X165956397Y-116796292D01*
X166023329Y-116921514D01*
X166267296Y-116993097D01*
X166263893Y-116996500D01*
X152044833Y-116996500D01*
X152007500Y-116992823D01*
X151970167Y-116996500D01*
X151858514Y-117007497D01*
X151715253Y-117050954D01*
X151583224Y-117121526D01*
X151467499Y-117216499D01*
X151443701Y-117245497D01*
X148062841Y-120626357D01*
X147971101Y-120551068D01*
X147721808Y-120417818D01*
X147451309Y-120335764D01*
X147240492Y-120315000D01*
X147099508Y-120315000D01*
X146888691Y-120335764D01*
X146618192Y-120417818D01*
X146368899Y-120551068D01*
X146150392Y-120730392D01*
X146057581Y-120843482D01*
X146055812Y-120825518D01*
X146019502Y-120705820D01*
X145960537Y-120595506D01*
X145881185Y-120498815D01*
X145784494Y-120419463D01*
X145674180Y-120360498D01*
X145554482Y-120324188D01*
X145430000Y-120311928D01*
X143830000Y-120311928D01*
X143705518Y-120324188D01*
X143585820Y-120360498D01*
X143475506Y-120419463D01*
X143378815Y-120498815D01*
X143356053Y-120526551D01*
X140072204Y-117242702D01*
X140816903Y-117242702D01*
X140888486Y-117486671D01*
X141143996Y-117607571D01*
X141418184Y-117676300D01*
X141700512Y-117690217D01*
X141980130Y-117648787D01*
X142246292Y-117553603D01*
X142371514Y-117486671D01*
X142443097Y-117242702D01*
X141630000Y-116429605D01*
X140816903Y-117242702D01*
X140072204Y-117242702D01*
X139817904Y-116988403D01*
X139794101Y-116959399D01*
X139678376Y-116864426D01*
X139546347Y-116793854D01*
X139403086Y-116750397D01*
X139291433Y-116739400D01*
X139291422Y-116739400D01*
X139254100Y-116735724D01*
X139216778Y-116739400D01*
X132649478Y-116739400D01*
X132685301Y-116710001D01*
X132780274Y-116594276D01*
X132850846Y-116462247D01*
X132893840Y-116320512D01*
X140189783Y-116320512D01*
X140231213Y-116600130D01*
X140326397Y-116866292D01*
X140393329Y-116991514D01*
X140637298Y-117063097D01*
X141450395Y-116250000D01*
X141809605Y-116250000D01*
X142622702Y-117063097D01*
X142866671Y-116991514D01*
X142987571Y-116736004D01*
X143056300Y-116461816D01*
X143070217Y-116179488D01*
X143028787Y-115899870D01*
X142933603Y-115633708D01*
X142866671Y-115508486D01*
X142622702Y-115436903D01*
X141809605Y-116250000D01*
X141450395Y-116250000D01*
X140637298Y-115436903D01*
X140393329Y-115508486D01*
X140272429Y-115763996D01*
X140203700Y-116038184D01*
X140189783Y-116320512D01*
X132893840Y-116320512D01*
X132894303Y-116318986D01*
X132899065Y-116270636D01*
X134931928Y-114237774D01*
X134931928Y-114590000D01*
X134944188Y-114714482D01*
X134980498Y-114834180D01*
X135039463Y-114944494D01*
X135118815Y-115041185D01*
X135215506Y-115120537D01*
X135325820Y-115179502D01*
X135445518Y-115215812D01*
X135570000Y-115228072D01*
X137170000Y-115228072D01*
X137294482Y-115215812D01*
X137414180Y-115179502D01*
X137524494Y-115120537D01*
X137621185Y-115041185D01*
X137700537Y-114944494D01*
X137759502Y-114834180D01*
X137792621Y-114725000D01*
X140575604Y-114725000D01*
X140715241Y-114864637D01*
X140915869Y-114998692D01*
X140888486Y-115013329D01*
X140816903Y-115257298D01*
X141630000Y-116070395D01*
X142443097Y-115257298D01*
X142371514Y-115013329D01*
X142342659Y-114999676D01*
X142544759Y-114864637D01*
X142642681Y-114766715D01*
X142665356Y-114794344D01*
X142807728Y-114911186D01*
X142970160Y-114998007D01*
X143131491Y-115046946D01*
X143146408Y-115051471D01*
X143329700Y-115069524D01*
X143375632Y-115065000D01*
X143540956Y-115065000D01*
X143610392Y-115149608D01*
X143828899Y-115328932D01*
X144078192Y-115462182D01*
X144348691Y-115544236D01*
X144559508Y-115565000D01*
X144700492Y-115565000D01*
X144911309Y-115544236D01*
X145181808Y-115462182D01*
X145431101Y-115328932D01*
X145649608Y-115149608D01*
X145828932Y-114931101D01*
X145902579Y-114793318D01*
X146017615Y-114985131D01*
X146206586Y-115193519D01*
X146432580Y-115361037D01*
X146686913Y-115481246D01*
X146820961Y-115521904D01*
X147043000Y-115399915D01*
X147043000Y-114257000D01*
X147297000Y-114257000D01*
X147297000Y-115399915D01*
X147519039Y-115521904D01*
X147653087Y-115481246D01*
X147907420Y-115361037D01*
X148133414Y-115193519D01*
X148322385Y-114985131D01*
X148440000Y-114789018D01*
X148557615Y-114985131D01*
X148746586Y-115193519D01*
X148972580Y-115361037D01*
X149226913Y-115481246D01*
X149360961Y-115521904D01*
X149583000Y-115399915D01*
X149583000Y-114257000D01*
X147297000Y-114257000D01*
X147043000Y-114257000D01*
X147023000Y-114257000D01*
X147023000Y-114003000D01*
X147043000Y-114003000D01*
X147043000Y-113983000D01*
X147297000Y-113983000D01*
X147297000Y-114003000D01*
X147297000Y-114003000D01*
G37*
X147297000Y-114003000D02*
X149583000Y-114003000D01*
X149583000Y-113983000D01*
X149837000Y-113983000D01*
X149837000Y-114003000D01*
X149857000Y-114003000D01*
X149857000Y-114257000D01*
X149837000Y-114257000D01*
X149837000Y-115399915D01*
X150059039Y-115521904D01*
X150193087Y-115481246D01*
X150447420Y-115361037D01*
X150621557Y-115231958D01*
X151156005Y-115766408D01*
X151179799Y-115795401D01*
X151208792Y-115819195D01*
X151208796Y-115819199D01*
X151279485Y-115877211D01*
X151295524Y-115890374D01*
X151427553Y-115960946D01*
X151570814Y-116004403D01*
X151682467Y-116015400D01*
X151682476Y-116015400D01*
X151719799Y-116019076D01*
X151757122Y-116015400D01*
X163201978Y-116015400D01*
X163239300Y-116019076D01*
X163276622Y-116015400D01*
X163276633Y-116015400D01*
X163388286Y-116004403D01*
X163531547Y-115960946D01*
X163663576Y-115890374D01*
X163773575Y-115800100D01*
X165875833Y-115800100D01*
X165833700Y-115968184D01*
X165819783Y-116250512D01*
X165861213Y-116530130D01*
X165956397Y-116796292D01*
X166023329Y-116921514D01*
X166267296Y-116993097D01*
X166263893Y-116996500D01*
X152044833Y-116996500D01*
X152007500Y-116992823D01*
X151970167Y-116996500D01*
X151858514Y-117007497D01*
X151715253Y-117050954D01*
X151583224Y-117121526D01*
X151467499Y-117216499D01*
X151443701Y-117245497D01*
X148062841Y-120626357D01*
X147971101Y-120551068D01*
X147721808Y-120417818D01*
X147451309Y-120335764D01*
X147240492Y-120315000D01*
X147099508Y-120315000D01*
X146888691Y-120335764D01*
X146618192Y-120417818D01*
X146368899Y-120551068D01*
X146150392Y-120730392D01*
X146057581Y-120843482D01*
X146055812Y-120825518D01*
X146019502Y-120705820D01*
X145960537Y-120595506D01*
X145881185Y-120498815D01*
X145784494Y-120419463D01*
X145674180Y-120360498D01*
X145554482Y-120324188D01*
X145430000Y-120311928D01*
X143830000Y-120311928D01*
X143705518Y-120324188D01*
X143585820Y-120360498D01*
X143475506Y-120419463D01*
X143378815Y-120498815D01*
X143356053Y-120526551D01*
X140072204Y-117242702D01*
X140816903Y-117242702D01*
X140888486Y-117486671D01*
X141143996Y-117607571D01*
X141418184Y-117676300D01*
X141700512Y-117690217D01*
X141980130Y-117648787D01*
X142246292Y-117553603D01*
X142371514Y-117486671D01*
X142443097Y-117242702D01*
X141630000Y-116429605D01*
X140816903Y-117242702D01*
X140072204Y-117242702D01*
X139817904Y-116988403D01*
X139794101Y-116959399D01*
X139678376Y-116864426D01*
X139546347Y-116793854D01*
X139403086Y-116750397D01*
X139291433Y-116739400D01*
X139291422Y-116739400D01*
X139254100Y-116735724D01*
X139216778Y-116739400D01*
X132649478Y-116739400D01*
X132685301Y-116710001D01*
X132780274Y-116594276D01*
X132850846Y-116462247D01*
X132893840Y-116320512D01*
X140189783Y-116320512D01*
X140231213Y-116600130D01*
X140326397Y-116866292D01*
X140393329Y-116991514D01*
X140637298Y-117063097D01*
X141450395Y-116250000D01*
X141809605Y-116250000D01*
X142622702Y-117063097D01*
X142866671Y-116991514D01*
X142987571Y-116736004D01*
X143056300Y-116461816D01*
X143070217Y-116179488D01*
X143028787Y-115899870D01*
X142933603Y-115633708D01*
X142866671Y-115508486D01*
X142622702Y-115436903D01*
X141809605Y-116250000D01*
X141450395Y-116250000D01*
X140637298Y-115436903D01*
X140393329Y-115508486D01*
X140272429Y-115763996D01*
X140203700Y-116038184D01*
X140189783Y-116320512D01*
X132893840Y-116320512D01*
X132894303Y-116318986D01*
X132899065Y-116270636D01*
X134931928Y-114237774D01*
X134931928Y-114590000D01*
X134944188Y-114714482D01*
X134980498Y-114834180D01*
X135039463Y-114944494D01*
X135118815Y-115041185D01*
X135215506Y-115120537D01*
X135325820Y-115179502D01*
X135445518Y-115215812D01*
X135570000Y-115228072D01*
X137170000Y-115228072D01*
X137294482Y-115215812D01*
X137414180Y-115179502D01*
X137524494Y-115120537D01*
X137621185Y-115041185D01*
X137700537Y-114944494D01*
X137759502Y-114834180D01*
X137792621Y-114725000D01*
X140575604Y-114725000D01*
X140715241Y-114864637D01*
X140915869Y-114998692D01*
X140888486Y-115013329D01*
X140816903Y-115257298D01*
X141630000Y-116070395D01*
X142443097Y-115257298D01*
X142371514Y-115013329D01*
X142342659Y-114999676D01*
X142544759Y-114864637D01*
X142642681Y-114766715D01*
X142665356Y-114794344D01*
X142807728Y-114911186D01*
X142970160Y-114998007D01*
X143131491Y-115046946D01*
X143146408Y-115051471D01*
X143329700Y-115069524D01*
X143375632Y-115065000D01*
X143540956Y-115065000D01*
X143610392Y-115149608D01*
X143828899Y-115328932D01*
X144078192Y-115462182D01*
X144348691Y-115544236D01*
X144559508Y-115565000D01*
X144700492Y-115565000D01*
X144911309Y-115544236D01*
X145181808Y-115462182D01*
X145431101Y-115328932D01*
X145649608Y-115149608D01*
X145828932Y-114931101D01*
X145902579Y-114793318D01*
X146017615Y-114985131D01*
X146206586Y-115193519D01*
X146432580Y-115361037D01*
X146686913Y-115481246D01*
X146820961Y-115521904D01*
X147043000Y-115399915D01*
X147043000Y-114257000D01*
X147297000Y-114257000D01*
X147297000Y-115399915D01*
X147519039Y-115521904D01*
X147653087Y-115481246D01*
X147907420Y-115361037D01*
X148133414Y-115193519D01*
X148322385Y-114985131D01*
X148440000Y-114789018D01*
X148557615Y-114985131D01*
X148746586Y-115193519D01*
X148972580Y-115361037D01*
X149226913Y-115481246D01*
X149360961Y-115521904D01*
X149583000Y-115399915D01*
X149583000Y-114257000D01*
X147297000Y-114257000D01*
X147043000Y-114257000D01*
X147023000Y-114257000D01*
X147023000Y-114003000D01*
X147043000Y-114003000D01*
X147043000Y-113983000D01*
X147297000Y-113983000D01*
X147297000Y-114003000D01*
G36*
X167453748Y-116165858D02*
G01*
X167439605Y-116180000D01*
X167453748Y-116194143D01*
X167274143Y-116373748D01*
X167260000Y-116359605D01*
X167245858Y-116373748D01*
X167066253Y-116194143D01*
X167080395Y-116180000D01*
X167066253Y-116165858D01*
X167245858Y-115986253D01*
X167260000Y-116000395D01*
X167274143Y-115986253D01*
X167453748Y-116165858D01*
X167453748Y-116165858D01*
G37*
X167453748Y-116165858D02*
X167439605Y-116180000D01*
X167453748Y-116194143D01*
X167274143Y-116373748D01*
X167260000Y-116359605D01*
X167245858Y-116373748D01*
X167066253Y-116194143D01*
X167080395Y-116180000D01*
X167066253Y-116165858D01*
X167245858Y-115986253D01*
X167260000Y-116000395D01*
X167274143Y-115986253D01*
X167453748Y-116165858D01*
G36*
X170503270Y-107531928D02*
G01*
X169340000Y-107531928D01*
X169215518Y-107544188D01*
X169095820Y-107580498D01*
X168985506Y-107639463D01*
X168888815Y-107718815D01*
X168809463Y-107815506D01*
X168750498Y-107925820D01*
X168714188Y-108045518D01*
X168701928Y-108170000D01*
X168701928Y-109770000D01*
X168710359Y-109855600D01*
X163466093Y-109855600D01*
X163587070Y-109653881D01*
X163681909Y-109389040D01*
X163560624Y-109167000D01*
X162417000Y-109167000D01*
X162417000Y-109187000D01*
X162163000Y-109187000D01*
X162163000Y-109167000D01*
X162143000Y-109167000D01*
X162143000Y-108913000D01*
X162163000Y-108913000D01*
X162163000Y-108893000D01*
X162417000Y-108893000D01*
X162417000Y-108913000D01*
X163560624Y-108913000D01*
X163681909Y-108690960D01*
X163587070Y-108426119D01*
X163442385Y-108184869D01*
X163253414Y-107976481D01*
X163027420Y-107808963D01*
X162940786Y-107768016D01*
X164529302Y-106179500D01*
X171855697Y-106179500D01*
X170503270Y-107531928D01*
X170503270Y-107531928D01*
G37*
X170503270Y-107531928D02*
X169340000Y-107531928D01*
X169215518Y-107544188D01*
X169095820Y-107580498D01*
X168985506Y-107639463D01*
X168888815Y-107718815D01*
X168809463Y-107815506D01*
X168750498Y-107925820D01*
X168714188Y-108045518D01*
X168701928Y-108170000D01*
X168701928Y-109770000D01*
X168710359Y-109855600D01*
X163466093Y-109855600D01*
X163587070Y-109653881D01*
X163681909Y-109389040D01*
X163560624Y-109167000D01*
X162417000Y-109167000D01*
X162417000Y-109187000D01*
X162163000Y-109187000D01*
X162163000Y-109167000D01*
X162143000Y-109167000D01*
X162143000Y-108913000D01*
X162163000Y-108913000D01*
X162163000Y-108893000D01*
X162417000Y-108893000D01*
X162417000Y-108913000D01*
X163560624Y-108913000D01*
X163681909Y-108690960D01*
X163587070Y-108426119D01*
X163442385Y-108184869D01*
X163253414Y-107976481D01*
X163027420Y-107808963D01*
X162940786Y-107768016D01*
X164529302Y-106179500D01*
X171855697Y-106179500D01*
X170503270Y-107531928D01*
G36*
X165868320Y-100290273D02*
G01*
X165760147Y-100551426D01*
X165705000Y-100828665D01*
X165705000Y-101111335D01*
X165760147Y-101388574D01*
X165868320Y-101649727D01*
X166025363Y-101884759D01*
X166225241Y-102084637D01*
X166425869Y-102218692D01*
X166398486Y-102233329D01*
X166326903Y-102477298D01*
X167140000Y-103290395D01*
X167953097Y-102477298D01*
X167896675Y-102285000D01*
X169050956Y-102285000D01*
X169120392Y-102369608D01*
X169338899Y-102548932D01*
X169588192Y-102682182D01*
X169858691Y-102764236D01*
X170069508Y-102785000D01*
X170210492Y-102785000D01*
X170421309Y-102764236D01*
X170691808Y-102682182D01*
X170941101Y-102548932D01*
X171159608Y-102369608D01*
X171338932Y-102151101D01*
X171412579Y-102013318D01*
X171527615Y-102205131D01*
X171716586Y-102413519D01*
X171942580Y-102581037D01*
X172196913Y-102701246D01*
X172330961Y-102741904D01*
X172553000Y-102619915D01*
X172553000Y-101477000D01*
X172807000Y-101477000D01*
X172807000Y-102619915D01*
X173029039Y-102741904D01*
X173163087Y-102701246D01*
X173417420Y-102581037D01*
X173643414Y-102413519D01*
X173832385Y-102205131D01*
X173950000Y-102009018D01*
X174067615Y-102205131D01*
X174256586Y-102413519D01*
X174482580Y-102581037D01*
X174736913Y-102701246D01*
X174870961Y-102741904D01*
X175093000Y-102619915D01*
X175093000Y-101477000D01*
X172807000Y-101477000D01*
X172553000Y-101477000D01*
X172533000Y-101477000D01*
X172533000Y-101223000D01*
X172553000Y-101223000D01*
X172553000Y-101203000D01*
X172807000Y-101203000D01*
X172807000Y-101223000D01*
X175093000Y-101223000D01*
X175093000Y-101203000D01*
X175347000Y-101203000D01*
X175347000Y-101223000D01*
X175367000Y-101223000D01*
X175367000Y-101477000D01*
X175347000Y-101477000D01*
X175347000Y-102619915D01*
X175569039Y-102741904D01*
X175703087Y-102701246D01*
X175957420Y-102581037D01*
X176183414Y-102413519D01*
X176372385Y-102205131D01*
X176487421Y-102013318D01*
X176561068Y-102151101D01*
X176740392Y-102369608D01*
X176958899Y-102548932D01*
X177208192Y-102682182D01*
X177478691Y-102764236D01*
X177689508Y-102785000D01*
X177830492Y-102785000D01*
X178041309Y-102764236D01*
X178311808Y-102682182D01*
X178561101Y-102548932D01*
X178779608Y-102369608D01*
X178958932Y-102151101D01*
X179030000Y-102018142D01*
X179101068Y-102151101D01*
X179280392Y-102369608D01*
X179498899Y-102548932D01*
X179748192Y-102682182D01*
X180018691Y-102764236D01*
X180229508Y-102785000D01*
X180370492Y-102785000D01*
X180581309Y-102764236D01*
X180851808Y-102682182D01*
X181101101Y-102548932D01*
X181319608Y-102369608D01*
X181498932Y-102151101D01*
X181520901Y-102110000D01*
X181619099Y-102110000D01*
X181641068Y-102151101D01*
X181820392Y-102369608D01*
X182038899Y-102548932D01*
X182288192Y-102682182D01*
X182558691Y-102764236D01*
X182769508Y-102785000D01*
X182910492Y-102785000D01*
X183121309Y-102764236D01*
X183391808Y-102682182D01*
X183641101Y-102548932D01*
X183732841Y-102473643D01*
X184260101Y-103000903D01*
X184283899Y-103029901D01*
X184399624Y-103124874D01*
X184531653Y-103195446D01*
X184674914Y-103238903D01*
X184786567Y-103249900D01*
X184786575Y-103249900D01*
X184823900Y-103253576D01*
X184861225Y-103249900D01*
X187557478Y-103249900D01*
X187594800Y-103253576D01*
X187632122Y-103249900D01*
X187632133Y-103249900D01*
X187743786Y-103238903D01*
X187887047Y-103195446D01*
X188019076Y-103124874D01*
X188043780Y-103104600D01*
X189032198Y-103104600D01*
X188993700Y-103258184D01*
X188979783Y-103540512D01*
X189021213Y-103820130D01*
X189026674Y-103835400D01*
X168527802Y-103835400D01*
X168566300Y-103681816D01*
X168580217Y-103399488D01*
X168538787Y-103119870D01*
X168443603Y-102853708D01*
X168376671Y-102728486D01*
X168132702Y-102656903D01*
X167319605Y-103470000D01*
X167333748Y-103484143D01*
X167154143Y-103663748D01*
X167140000Y-103649605D01*
X167125858Y-103663748D01*
X166946253Y-103484143D01*
X166960395Y-103470000D01*
X166147298Y-102656903D01*
X165903329Y-102728486D01*
X165782429Y-102983996D01*
X165713700Y-103258184D01*
X165699783Y-103540512D01*
X165741213Y-103820130D01*
X165746674Y-103835400D01*
X162601925Y-103835400D01*
X162564600Y-103831724D01*
X162527275Y-103835400D01*
X162527267Y-103835400D01*
X162415614Y-103846397D01*
X162272353Y-103889854D01*
X162140324Y-103960426D01*
X162024599Y-104055399D01*
X162000801Y-104084397D01*
X158139092Y-107946107D01*
X158011101Y-107841068D01*
X157761808Y-107707818D01*
X157491309Y-107625764D01*
X157280492Y-107605000D01*
X157139508Y-107605000D01*
X156928691Y-107625764D01*
X156658192Y-107707818D01*
X156408899Y-107841068D01*
X156190392Y-108020392D01*
X156011068Y-108238899D01*
X155940000Y-108371858D01*
X155868932Y-108238899D01*
X155689608Y-108020392D01*
X155471101Y-107841068D01*
X155221808Y-107707818D01*
X154951309Y-107625764D01*
X154740492Y-107605000D01*
X154599508Y-107605000D01*
X154388691Y-107625764D01*
X154118192Y-107707818D01*
X153868899Y-107841068D01*
X153777159Y-107916357D01*
X151298801Y-105438000D01*
X155610678Y-105438000D01*
X155648000Y-105441676D01*
X155685322Y-105438000D01*
X155685333Y-105438000D01*
X155796986Y-105427003D01*
X155940247Y-105383546D01*
X156072276Y-105312974D01*
X156188001Y-105218001D01*
X156211804Y-105188997D01*
X158857159Y-102543643D01*
X158948899Y-102618932D01*
X159198192Y-102752182D01*
X159468691Y-102834236D01*
X159679508Y-102855000D01*
X159820492Y-102855000D01*
X160031309Y-102834236D01*
X160301808Y-102752182D01*
X160551101Y-102618932D01*
X160769608Y-102439608D01*
X160948932Y-102221101D01*
X161020000Y-102088142D01*
X161091068Y-102221101D01*
X161270392Y-102439608D01*
X161488899Y-102618932D01*
X161738192Y-102752182D01*
X162008691Y-102834236D01*
X162219508Y-102855000D01*
X162360492Y-102855000D01*
X162571309Y-102834236D01*
X162841808Y-102752182D01*
X163091101Y-102618932D01*
X163309608Y-102439608D01*
X163488932Y-102221101D01*
X163514139Y-102173942D01*
X163564286Y-102169003D01*
X163707547Y-102125546D01*
X163839576Y-102054974D01*
X163955301Y-101960001D01*
X163979104Y-101930997D01*
X165781402Y-100128700D01*
X165976279Y-100128700D01*
X165868320Y-100290273D01*
X165868320Y-100290273D01*
G37*
X165868320Y-100290273D02*
X165760147Y-100551426D01*
X165705000Y-100828665D01*
X165705000Y-101111335D01*
X165760147Y-101388574D01*
X165868320Y-101649727D01*
X166025363Y-101884759D01*
X166225241Y-102084637D01*
X166425869Y-102218692D01*
X166398486Y-102233329D01*
X166326903Y-102477298D01*
X167140000Y-103290395D01*
X167953097Y-102477298D01*
X167896675Y-102285000D01*
X169050956Y-102285000D01*
X169120392Y-102369608D01*
X169338899Y-102548932D01*
X169588192Y-102682182D01*
X169858691Y-102764236D01*
X170069508Y-102785000D01*
X170210492Y-102785000D01*
X170421309Y-102764236D01*
X170691808Y-102682182D01*
X170941101Y-102548932D01*
X171159608Y-102369608D01*
X171338932Y-102151101D01*
X171412579Y-102013318D01*
X171527615Y-102205131D01*
X171716586Y-102413519D01*
X171942580Y-102581037D01*
X172196913Y-102701246D01*
X172330961Y-102741904D01*
X172553000Y-102619915D01*
X172553000Y-101477000D01*
X172807000Y-101477000D01*
X172807000Y-102619915D01*
X173029039Y-102741904D01*
X173163087Y-102701246D01*
X173417420Y-102581037D01*
X173643414Y-102413519D01*
X173832385Y-102205131D01*
X173950000Y-102009018D01*
X174067615Y-102205131D01*
X174256586Y-102413519D01*
X174482580Y-102581037D01*
X174736913Y-102701246D01*
X174870961Y-102741904D01*
X175093000Y-102619915D01*
X175093000Y-101477000D01*
X172807000Y-101477000D01*
X172553000Y-101477000D01*
X172533000Y-101477000D01*
X172533000Y-101223000D01*
X172553000Y-101223000D01*
X172553000Y-101203000D01*
X172807000Y-101203000D01*
X172807000Y-101223000D01*
X175093000Y-101223000D01*
X175093000Y-101203000D01*
X175347000Y-101203000D01*
X175347000Y-101223000D01*
X175367000Y-101223000D01*
X175367000Y-101477000D01*
X175347000Y-101477000D01*
X175347000Y-102619915D01*
X175569039Y-102741904D01*
X175703087Y-102701246D01*
X175957420Y-102581037D01*
X176183414Y-102413519D01*
X176372385Y-102205131D01*
X176487421Y-102013318D01*
X176561068Y-102151101D01*
X176740392Y-102369608D01*
X176958899Y-102548932D01*
X177208192Y-102682182D01*
X177478691Y-102764236D01*
X177689508Y-102785000D01*
X177830492Y-102785000D01*
X178041309Y-102764236D01*
X178311808Y-102682182D01*
X178561101Y-102548932D01*
X178779608Y-102369608D01*
X178958932Y-102151101D01*
X179030000Y-102018142D01*
X179101068Y-102151101D01*
X179280392Y-102369608D01*
X179498899Y-102548932D01*
X179748192Y-102682182D01*
X180018691Y-102764236D01*
X180229508Y-102785000D01*
X180370492Y-102785000D01*
X180581309Y-102764236D01*
X180851808Y-102682182D01*
X181101101Y-102548932D01*
X181319608Y-102369608D01*
X181498932Y-102151101D01*
X181520901Y-102110000D01*
X181619099Y-102110000D01*
X181641068Y-102151101D01*
X181820392Y-102369608D01*
X182038899Y-102548932D01*
X182288192Y-102682182D01*
X182558691Y-102764236D01*
X182769508Y-102785000D01*
X182910492Y-102785000D01*
X183121309Y-102764236D01*
X183391808Y-102682182D01*
X183641101Y-102548932D01*
X183732841Y-102473643D01*
X184260101Y-103000903D01*
X184283899Y-103029901D01*
X184399624Y-103124874D01*
X184531653Y-103195446D01*
X184674914Y-103238903D01*
X184786567Y-103249900D01*
X184786575Y-103249900D01*
X184823900Y-103253576D01*
X184861225Y-103249900D01*
X187557478Y-103249900D01*
X187594800Y-103253576D01*
X187632122Y-103249900D01*
X187632133Y-103249900D01*
X187743786Y-103238903D01*
X187887047Y-103195446D01*
X188019076Y-103124874D01*
X188043780Y-103104600D01*
X189032198Y-103104600D01*
X188993700Y-103258184D01*
X188979783Y-103540512D01*
X189021213Y-103820130D01*
X189026674Y-103835400D01*
X168527802Y-103835400D01*
X168566300Y-103681816D01*
X168580217Y-103399488D01*
X168538787Y-103119870D01*
X168443603Y-102853708D01*
X168376671Y-102728486D01*
X168132702Y-102656903D01*
X167319605Y-103470000D01*
X167333748Y-103484143D01*
X167154143Y-103663748D01*
X167140000Y-103649605D01*
X167125858Y-103663748D01*
X166946253Y-103484143D01*
X166960395Y-103470000D01*
X166147298Y-102656903D01*
X165903329Y-102728486D01*
X165782429Y-102983996D01*
X165713700Y-103258184D01*
X165699783Y-103540512D01*
X165741213Y-103820130D01*
X165746674Y-103835400D01*
X162601925Y-103835400D01*
X162564600Y-103831724D01*
X162527275Y-103835400D01*
X162527267Y-103835400D01*
X162415614Y-103846397D01*
X162272353Y-103889854D01*
X162140324Y-103960426D01*
X162024599Y-104055399D01*
X162000801Y-104084397D01*
X158139092Y-107946107D01*
X158011101Y-107841068D01*
X157761808Y-107707818D01*
X157491309Y-107625764D01*
X157280492Y-107605000D01*
X157139508Y-107605000D01*
X156928691Y-107625764D01*
X156658192Y-107707818D01*
X156408899Y-107841068D01*
X156190392Y-108020392D01*
X156011068Y-108238899D01*
X155940000Y-108371858D01*
X155868932Y-108238899D01*
X155689608Y-108020392D01*
X155471101Y-107841068D01*
X155221808Y-107707818D01*
X154951309Y-107625764D01*
X154740492Y-107605000D01*
X154599508Y-107605000D01*
X154388691Y-107625764D01*
X154118192Y-107707818D01*
X153868899Y-107841068D01*
X153777159Y-107916357D01*
X151298801Y-105438000D01*
X155610678Y-105438000D01*
X155648000Y-105441676D01*
X155685322Y-105438000D01*
X155685333Y-105438000D01*
X155796986Y-105427003D01*
X155940247Y-105383546D01*
X156072276Y-105312974D01*
X156188001Y-105218001D01*
X156211804Y-105188997D01*
X158857159Y-102543643D01*
X158948899Y-102618932D01*
X159198192Y-102752182D01*
X159468691Y-102834236D01*
X159679508Y-102855000D01*
X159820492Y-102855000D01*
X160031309Y-102834236D01*
X160301808Y-102752182D01*
X160551101Y-102618932D01*
X160769608Y-102439608D01*
X160948932Y-102221101D01*
X161020000Y-102088142D01*
X161091068Y-102221101D01*
X161270392Y-102439608D01*
X161488899Y-102618932D01*
X161738192Y-102752182D01*
X162008691Y-102834236D01*
X162219508Y-102855000D01*
X162360492Y-102855000D01*
X162571309Y-102834236D01*
X162841808Y-102752182D01*
X163091101Y-102618932D01*
X163309608Y-102439608D01*
X163488932Y-102221101D01*
X163514139Y-102173942D01*
X163564286Y-102169003D01*
X163707547Y-102125546D01*
X163839576Y-102054974D01*
X163955301Y-101960001D01*
X163979104Y-101930997D01*
X165781402Y-100128700D01*
X165976279Y-100128700D01*
X165868320Y-100290273D01*
G36*
X135232326Y-87036637D02*
G01*
X135401844Y-87149905D01*
X135590202Y-87227926D01*
X135790161Y-87267700D01*
X135852299Y-87267700D01*
X137920300Y-89335702D01*
X137944099Y-89364701D01*
X137973097Y-89388499D01*
X138059824Y-89459674D01*
X138191853Y-89530246D01*
X138335114Y-89573703D01*
X138484100Y-89588377D01*
X138521433Y-89584700D01*
X142011928Y-89584700D01*
X142011928Y-90850000D01*
X142024188Y-90974482D01*
X142060498Y-91094180D01*
X142119463Y-91204494D01*
X142198815Y-91301185D01*
X142295506Y-91380537D01*
X142405820Y-91439502D01*
X142525518Y-91475812D01*
X142650000Y-91488072D01*
X144350000Y-91488072D01*
X144474482Y-91475812D01*
X144594180Y-91439502D01*
X144704494Y-91380537D01*
X144801185Y-91301185D01*
X144880537Y-91204494D01*
X144939502Y-91094180D01*
X144960393Y-91025313D01*
X144984866Y-91055134D01*
X145210986Y-91240706D01*
X145468966Y-91378599D01*
X145748889Y-91463513D01*
X145967050Y-91485000D01*
X146112950Y-91485000D01*
X146331111Y-91463513D01*
X146611034Y-91378599D01*
X146869014Y-91240706D01*
X147095134Y-91055134D01*
X147280706Y-90829014D01*
X147310000Y-90774209D01*
X147339294Y-90829014D01*
X147524866Y-91055134D01*
X147750986Y-91240706D01*
X148008966Y-91378599D01*
X148288889Y-91463513D01*
X148507050Y-91485000D01*
X148652950Y-91485000D01*
X148871111Y-91463513D01*
X149151034Y-91378599D01*
X149409014Y-91240706D01*
X149635134Y-91055134D01*
X149820706Y-90829014D01*
X149850000Y-90774209D01*
X149879294Y-90829014D01*
X150064866Y-91055134D01*
X150290986Y-91240706D01*
X150548966Y-91378599D01*
X150828889Y-91463513D01*
X151047050Y-91485000D01*
X151192950Y-91485000D01*
X151411111Y-91463513D01*
X151691034Y-91378599D01*
X151949014Y-91240706D01*
X152175134Y-91055134D01*
X152360706Y-90829014D01*
X152390000Y-90774209D01*
X152419294Y-90829014D01*
X152604866Y-91055134D01*
X152830986Y-91240706D01*
X153088966Y-91378599D01*
X153368889Y-91463513D01*
X153587050Y-91485000D01*
X153732950Y-91485000D01*
X153951111Y-91463513D01*
X154231034Y-91378599D01*
X154489014Y-91240706D01*
X154715134Y-91055134D01*
X154900706Y-90829014D01*
X154930000Y-90774209D01*
X154959294Y-90829014D01*
X155144866Y-91055134D01*
X155370986Y-91240706D01*
X155628966Y-91378599D01*
X155908889Y-91463513D01*
X156127050Y-91485000D01*
X156272950Y-91485000D01*
X156491111Y-91463513D01*
X156771034Y-91378599D01*
X157029014Y-91240706D01*
X157255134Y-91055134D01*
X157440706Y-90829014D01*
X157470000Y-90774209D01*
X157499294Y-90829014D01*
X157684866Y-91055134D01*
X157910986Y-91240706D01*
X158168966Y-91378599D01*
X158448889Y-91463513D01*
X158667050Y-91485000D01*
X158812950Y-91485000D01*
X159031111Y-91463513D01*
X159311034Y-91378599D01*
X159569014Y-91240706D01*
X159795134Y-91055134D01*
X159980706Y-90829014D01*
X160010000Y-90774209D01*
X160039294Y-90829014D01*
X160224866Y-91055134D01*
X160450986Y-91240706D01*
X160708966Y-91378599D01*
X160988889Y-91463513D01*
X161207050Y-91485000D01*
X161352950Y-91485000D01*
X161571111Y-91463513D01*
X161851034Y-91378599D01*
X162109014Y-91240706D01*
X162335134Y-91055134D01*
X162520706Y-90829014D01*
X162550000Y-90774209D01*
X162579294Y-90829014D01*
X162764866Y-91055134D01*
X162990986Y-91240706D01*
X163248966Y-91378599D01*
X163528889Y-91463513D01*
X163747050Y-91485000D01*
X163892950Y-91485000D01*
X164111111Y-91463513D01*
X164391034Y-91378599D01*
X164649014Y-91240706D01*
X164875134Y-91055134D01*
X165060706Y-90829014D01*
X165090000Y-90774209D01*
X165119294Y-90829014D01*
X165304866Y-91055134D01*
X165530986Y-91240706D01*
X165788966Y-91378599D01*
X166068889Y-91463513D01*
X166287050Y-91485000D01*
X166432950Y-91485000D01*
X166651111Y-91463513D01*
X166931034Y-91378599D01*
X167189014Y-91240706D01*
X167415134Y-91055134D01*
X167600706Y-90829014D01*
X167630000Y-90774209D01*
X167659294Y-90829014D01*
X167844866Y-91055134D01*
X168070986Y-91240706D01*
X168328966Y-91378599D01*
X168608889Y-91463513D01*
X168827050Y-91485000D01*
X168972950Y-91485000D01*
X169191111Y-91463513D01*
X169471034Y-91378599D01*
X169729014Y-91240706D01*
X169955134Y-91055134D01*
X170140706Y-90829014D01*
X170170000Y-90774209D01*
X170199294Y-90829014D01*
X170384866Y-91055134D01*
X170610986Y-91240706D01*
X170868966Y-91378599D01*
X171148889Y-91463513D01*
X171367050Y-91485000D01*
X171512950Y-91485000D01*
X171731111Y-91463513D01*
X172011034Y-91378599D01*
X172269014Y-91240706D01*
X172495134Y-91055134D01*
X172680706Y-90829014D01*
X172710000Y-90774209D01*
X172739294Y-90829014D01*
X172924866Y-91055134D01*
X173150986Y-91240706D01*
X173408966Y-91378599D01*
X173688889Y-91463513D01*
X173907050Y-91485000D01*
X174052950Y-91485000D01*
X174271111Y-91463513D01*
X174551034Y-91378599D01*
X174809014Y-91240706D01*
X175035134Y-91055134D01*
X175220706Y-90829014D01*
X175250000Y-90774209D01*
X175279294Y-90829014D01*
X175464866Y-91055134D01*
X175690986Y-91240706D01*
X175948966Y-91378599D01*
X176228889Y-91463513D01*
X176447050Y-91485000D01*
X176592950Y-91485000D01*
X176811111Y-91463513D01*
X177091034Y-91378599D01*
X177349014Y-91240706D01*
X177575134Y-91055134D01*
X177760706Y-90829014D01*
X177790000Y-90774209D01*
X177819294Y-90829014D01*
X178004866Y-91055134D01*
X178230986Y-91240706D01*
X178488966Y-91378599D01*
X178768889Y-91463513D01*
X178987050Y-91485000D01*
X179132950Y-91485000D01*
X179351111Y-91463513D01*
X179631034Y-91378599D01*
X179889014Y-91240706D01*
X180115134Y-91055134D01*
X180300706Y-90829014D01*
X180330000Y-90774209D01*
X180359294Y-90829014D01*
X180544866Y-91055134D01*
X180770986Y-91240706D01*
X181028966Y-91378599D01*
X181308889Y-91463513D01*
X181527050Y-91485000D01*
X181672950Y-91485000D01*
X181891111Y-91463513D01*
X182171034Y-91378599D01*
X182189400Y-91368782D01*
X182189401Y-94124568D01*
X182185724Y-94161900D01*
X182189401Y-94199233D01*
X182198232Y-94288889D01*
X182200398Y-94310885D01*
X182243854Y-94454146D01*
X182314426Y-94586176D01*
X182356035Y-94636876D01*
X182409400Y-94701901D01*
X182438398Y-94725699D01*
X183134000Y-95421302D01*
X183134000Y-95483439D01*
X183173774Y-95683398D01*
X183251795Y-95871756D01*
X183365063Y-96041274D01*
X183509226Y-96185437D01*
X183618648Y-96258550D01*
X181748199Y-98129000D01*
X153002322Y-98129000D01*
X152964999Y-98125324D01*
X152927676Y-98129000D01*
X152927667Y-98129000D01*
X152816014Y-98139997D01*
X152672753Y-98183454D01*
X152540724Y-98254026D01*
X152424999Y-98348999D01*
X152401201Y-98377997D01*
X150482841Y-100296357D01*
X150391101Y-100221068D01*
X150141808Y-100087818D01*
X149871309Y-100005764D01*
X149660492Y-99985000D01*
X149519508Y-99985000D01*
X149308691Y-100005764D01*
X149038192Y-100087818D01*
X148788899Y-100221068D01*
X148570392Y-100400392D01*
X148391068Y-100618899D01*
X148320000Y-100751858D01*
X148248932Y-100618899D01*
X148069608Y-100400392D01*
X147851101Y-100221068D01*
X147601808Y-100087818D01*
X147331309Y-100005764D01*
X147120492Y-99985000D01*
X146979508Y-99985000D01*
X146768691Y-100005764D01*
X146498192Y-100087818D01*
X146248899Y-100221068D01*
X146030392Y-100400392D01*
X145851068Y-100618899D01*
X145780000Y-100751858D01*
X145708932Y-100618899D01*
X145529608Y-100400392D01*
X145311101Y-100221068D01*
X145061808Y-100087818D01*
X144791309Y-100005764D01*
X144580492Y-99985000D01*
X144439508Y-99985000D01*
X144228691Y-100005764D01*
X143958192Y-100087818D01*
X143708899Y-100221068D01*
X143504705Y-100388646D01*
X143494044Y-100375656D01*
X143351672Y-100258814D01*
X143189240Y-100171993D01*
X143012992Y-100118529D01*
X142875632Y-100105000D01*
X142829700Y-100100476D01*
X142783768Y-100105000D01*
X142604396Y-100105000D01*
X142485000Y-99985604D01*
X142485000Y-97924396D01*
X142664637Y-97744759D01*
X142821680Y-97509727D01*
X142929853Y-97248574D01*
X142985000Y-96971335D01*
X142985000Y-96688665D01*
X142929853Y-96411426D01*
X142821680Y-96150273D01*
X142664637Y-95915241D01*
X142498057Y-95748661D01*
X142594180Y-95719502D01*
X142704494Y-95660537D01*
X142801185Y-95581185D01*
X142880537Y-95484494D01*
X142939502Y-95374180D01*
X142975812Y-95254482D01*
X142988072Y-95130000D01*
X142985000Y-94615750D01*
X142826250Y-94457000D01*
X141677000Y-94457000D01*
X141677000Y-94477000D01*
X141423000Y-94477000D01*
X141423000Y-94457000D01*
X140273750Y-94457000D01*
X140115000Y-94615750D01*
X140111928Y-95130000D01*
X140124188Y-95254482D01*
X140160498Y-95374180D01*
X140219463Y-95484494D01*
X140298815Y-95581185D01*
X140395506Y-95660537D01*
X140505820Y-95719502D01*
X140601943Y-95748661D01*
X140435363Y-95915241D01*
X140278320Y-96150273D01*
X140170147Y-96411426D01*
X140115000Y-96688665D01*
X140115000Y-96971335D01*
X140170147Y-97248574D01*
X140278320Y-97509727D01*
X140435363Y-97744759D01*
X140615001Y-97924397D01*
X140615000Y-99912160D01*
X140595241Y-99925363D01*
X140395363Y-100125241D01*
X140238320Y-100360273D01*
X140130147Y-100621426D01*
X140075000Y-100898665D01*
X140075000Y-101181335D01*
X140130147Y-101458574D01*
X140238320Y-101719727D01*
X140395363Y-101954759D01*
X140595241Y-102154637D01*
X140795869Y-102288692D01*
X140768486Y-102303329D01*
X140696903Y-102547298D01*
X141510000Y-103360395D01*
X142323097Y-102547298D01*
X142251514Y-102303329D01*
X142222659Y-102289676D01*
X142424759Y-102154637D01*
X142522681Y-102056715D01*
X142545356Y-102084344D01*
X142687728Y-102201186D01*
X142850160Y-102288007D01*
X142972943Y-102325253D01*
X143026407Y-102341471D01*
X143209699Y-102359524D01*
X143255631Y-102355000D01*
X143420956Y-102355000D01*
X143490392Y-102439608D01*
X143708899Y-102618932D01*
X143958192Y-102752182D01*
X144228691Y-102834236D01*
X144439508Y-102855000D01*
X144580492Y-102855000D01*
X144791309Y-102834236D01*
X145061808Y-102752182D01*
X145311101Y-102618932D01*
X145529608Y-102439608D01*
X145708932Y-102221101D01*
X145780000Y-102088142D01*
X145851068Y-102221101D01*
X146030392Y-102439608D01*
X146248899Y-102618932D01*
X146498192Y-102752182D01*
X146768691Y-102834236D01*
X146979508Y-102855000D01*
X147120492Y-102855000D01*
X147331309Y-102834236D01*
X147601808Y-102752182D01*
X147851101Y-102618932D01*
X148069608Y-102439608D01*
X148248932Y-102221101D01*
X148320000Y-102088142D01*
X148391068Y-102221101D01*
X148570392Y-102439608D01*
X148788899Y-102618932D01*
X149038192Y-102752182D01*
X149308691Y-102834236D01*
X149519508Y-102855000D01*
X149660492Y-102855000D01*
X149871309Y-102834236D01*
X150141808Y-102752182D01*
X150391101Y-102618932D01*
X150609608Y-102439608D01*
X150788932Y-102221101D01*
X150814139Y-102173942D01*
X150864286Y-102169003D01*
X150897789Y-102158840D01*
X150931068Y-102221101D01*
X151110392Y-102439608D01*
X151328899Y-102618932D01*
X151578192Y-102752182D01*
X151848691Y-102834236D01*
X152059508Y-102855000D01*
X152200492Y-102855000D01*
X152411309Y-102834236D01*
X152681808Y-102752182D01*
X152931101Y-102618932D01*
X153149608Y-102439608D01*
X153328932Y-102221101D01*
X153400000Y-102088142D01*
X153471068Y-102221101D01*
X153650392Y-102439608D01*
X153868899Y-102618932D01*
X154118192Y-102752182D01*
X154388691Y-102834236D01*
X154599508Y-102855000D01*
X154740492Y-102855000D01*
X154951309Y-102834236D01*
X155221808Y-102752182D01*
X155471101Y-102618932D01*
X155689608Y-102439608D01*
X155868932Y-102221101D01*
X155940000Y-102088142D01*
X156011068Y-102221101D01*
X156190392Y-102439608D01*
X156408899Y-102618932D01*
X156554462Y-102696737D01*
X155333199Y-103918000D01*
X142894644Y-103918000D01*
X142936300Y-103751816D01*
X142950217Y-103469488D01*
X142908787Y-103189870D01*
X142813603Y-102923708D01*
X142746671Y-102798486D01*
X142502702Y-102726903D01*
X141689605Y-103540000D01*
X141703748Y-103554143D01*
X141524143Y-103733748D01*
X141510000Y-103719605D01*
X141495858Y-103733748D01*
X141316253Y-103554143D01*
X141330395Y-103540000D01*
X140517298Y-102726903D01*
X140273329Y-102798486D01*
X140229826Y-102890424D01*
X138228579Y-100889178D01*
X138200846Y-100797753D01*
X138130274Y-100665724D01*
X138035301Y-100549999D01*
X137919576Y-100455026D01*
X137787547Y-100384454D01*
X137644286Y-100340997D01*
X137594139Y-100336058D01*
X137568932Y-100288899D01*
X137389608Y-100070392D01*
X137171101Y-99891068D01*
X137038142Y-99820000D01*
X137171101Y-99748932D01*
X137389608Y-99569608D01*
X137568932Y-99351101D01*
X137702182Y-99101808D01*
X137784236Y-98831309D01*
X137811943Y-98550000D01*
X137784236Y-98268691D01*
X137702182Y-97998192D01*
X137568932Y-97748899D01*
X137389608Y-97530392D01*
X137171101Y-97351068D01*
X137038142Y-97280000D01*
X137171101Y-97208932D01*
X137389608Y-97029608D01*
X137568932Y-96811101D01*
X137702182Y-96561808D01*
X137784236Y-96291309D01*
X137811943Y-96010000D01*
X137784236Y-95728691D01*
X137702182Y-95458192D01*
X137568932Y-95208899D01*
X137389608Y-94990392D01*
X137171101Y-94811068D01*
X137038142Y-94740000D01*
X137171101Y-94668932D01*
X137389608Y-94489608D01*
X137568932Y-94271101D01*
X137702182Y-94021808D01*
X137784236Y-93751309D01*
X137806033Y-93530000D01*
X140111928Y-93530000D01*
X140115000Y-94044250D01*
X140273750Y-94203000D01*
X141423000Y-94203000D01*
X141423000Y-93053750D01*
X141677000Y-93053750D01*
X141677000Y-94203000D01*
X142826250Y-94203000D01*
X142985000Y-94044250D01*
X142988072Y-93530000D01*
X142975812Y-93405518D01*
X142939502Y-93285820D01*
X142880537Y-93175506D01*
X142801185Y-93078815D01*
X142704494Y-92999463D01*
X142594180Y-92940498D01*
X142474482Y-92904188D01*
X142350000Y-92891928D01*
X141835750Y-92895000D01*
X141677000Y-93053750D01*
X141423000Y-93053750D01*
X141264250Y-92895000D01*
X140750000Y-92891928D01*
X140625518Y-92904188D01*
X140505820Y-92940498D01*
X140395506Y-92999463D01*
X140298815Y-93078815D01*
X140219463Y-93175506D01*
X140160498Y-93285820D01*
X140124188Y-93405518D01*
X140111928Y-93530000D01*
X137806033Y-93530000D01*
X137811943Y-93470000D01*
X137784236Y-93188691D01*
X137702182Y-92918192D01*
X137568932Y-92668899D01*
X137389608Y-92450392D01*
X137171101Y-92271068D01*
X136921808Y-92137818D01*
X136651309Y-92055764D01*
X136440492Y-92035000D01*
X136299508Y-92035000D01*
X136088691Y-92055764D01*
X135818192Y-92137818D01*
X135568899Y-92271068D01*
X135350392Y-92450392D01*
X135192857Y-92642349D01*
X135179400Y-92641024D01*
X135142078Y-92644700D01*
X132330604Y-92644700D01*
X132348599Y-92611034D01*
X132433513Y-92331111D01*
X132462185Y-92040000D01*
X132433513Y-91748889D01*
X132348599Y-91468966D01*
X132210706Y-91210986D01*
X132149137Y-91135964D01*
X134152403Y-89132699D01*
X134181401Y-89108901D01*
X134249832Y-89025518D01*
X134276374Y-88993177D01*
X134346946Y-88861147D01*
X134358002Y-88824700D01*
X134390403Y-88717886D01*
X134401400Y-88606233D01*
X134401400Y-88606224D01*
X134405076Y-88568901D01*
X134401400Y-88531578D01*
X134401400Y-87772501D01*
X135184795Y-86989106D01*
X135232326Y-87036637D01*
X135232326Y-87036637D01*
G37*
X135232326Y-87036637D02*
X135401844Y-87149905D01*
X135590202Y-87227926D01*
X135790161Y-87267700D01*
X135852299Y-87267700D01*
X137920300Y-89335702D01*
X137944099Y-89364701D01*
X137973097Y-89388499D01*
X138059824Y-89459674D01*
X138191853Y-89530246D01*
X138335114Y-89573703D01*
X138484100Y-89588377D01*
X138521433Y-89584700D01*
X142011928Y-89584700D01*
X142011928Y-90850000D01*
X142024188Y-90974482D01*
X142060498Y-91094180D01*
X142119463Y-91204494D01*
X142198815Y-91301185D01*
X142295506Y-91380537D01*
X142405820Y-91439502D01*
X142525518Y-91475812D01*
X142650000Y-91488072D01*
X144350000Y-91488072D01*
X144474482Y-91475812D01*
X144594180Y-91439502D01*
X144704494Y-91380537D01*
X144801185Y-91301185D01*
X144880537Y-91204494D01*
X144939502Y-91094180D01*
X144960393Y-91025313D01*
X144984866Y-91055134D01*
X145210986Y-91240706D01*
X145468966Y-91378599D01*
X145748889Y-91463513D01*
X145967050Y-91485000D01*
X146112950Y-91485000D01*
X146331111Y-91463513D01*
X146611034Y-91378599D01*
X146869014Y-91240706D01*
X147095134Y-91055134D01*
X147280706Y-90829014D01*
X147310000Y-90774209D01*
X147339294Y-90829014D01*
X147524866Y-91055134D01*
X147750986Y-91240706D01*
X148008966Y-91378599D01*
X148288889Y-91463513D01*
X148507050Y-91485000D01*
X148652950Y-91485000D01*
X148871111Y-91463513D01*
X149151034Y-91378599D01*
X149409014Y-91240706D01*
X149635134Y-91055134D01*
X149820706Y-90829014D01*
X149850000Y-90774209D01*
X149879294Y-90829014D01*
X150064866Y-91055134D01*
X150290986Y-91240706D01*
X150548966Y-91378599D01*
X150828889Y-91463513D01*
X151047050Y-91485000D01*
X151192950Y-91485000D01*
X151411111Y-91463513D01*
X151691034Y-91378599D01*
X151949014Y-91240706D01*
X152175134Y-91055134D01*
X152360706Y-90829014D01*
X152390000Y-90774209D01*
X152419294Y-90829014D01*
X152604866Y-91055134D01*
X152830986Y-91240706D01*
X153088966Y-91378599D01*
X153368889Y-91463513D01*
X153587050Y-91485000D01*
X153732950Y-91485000D01*
X153951111Y-91463513D01*
X154231034Y-91378599D01*
X154489014Y-91240706D01*
X154715134Y-91055134D01*
X154900706Y-90829014D01*
X154930000Y-90774209D01*
X154959294Y-90829014D01*
X155144866Y-91055134D01*
X155370986Y-91240706D01*
X155628966Y-91378599D01*
X155908889Y-91463513D01*
X156127050Y-91485000D01*
X156272950Y-91485000D01*
X156491111Y-91463513D01*
X156771034Y-91378599D01*
X157029014Y-91240706D01*
X157255134Y-91055134D01*
X157440706Y-90829014D01*
X157470000Y-90774209D01*
X157499294Y-90829014D01*
X157684866Y-91055134D01*
X157910986Y-91240706D01*
X158168966Y-91378599D01*
X158448889Y-91463513D01*
X158667050Y-91485000D01*
X158812950Y-91485000D01*
X159031111Y-91463513D01*
X159311034Y-91378599D01*
X159569014Y-91240706D01*
X159795134Y-91055134D01*
X159980706Y-90829014D01*
X160010000Y-90774209D01*
X160039294Y-90829014D01*
X160224866Y-91055134D01*
X160450986Y-91240706D01*
X160708966Y-91378599D01*
X160988889Y-91463513D01*
X161207050Y-91485000D01*
X161352950Y-91485000D01*
X161571111Y-91463513D01*
X161851034Y-91378599D01*
X162109014Y-91240706D01*
X162335134Y-91055134D01*
X162520706Y-90829014D01*
X162550000Y-90774209D01*
X162579294Y-90829014D01*
X162764866Y-91055134D01*
X162990986Y-91240706D01*
X163248966Y-91378599D01*
X163528889Y-91463513D01*
X163747050Y-91485000D01*
X163892950Y-91485000D01*
X164111111Y-91463513D01*
X164391034Y-91378599D01*
X164649014Y-91240706D01*
X164875134Y-91055134D01*
X165060706Y-90829014D01*
X165090000Y-90774209D01*
X165119294Y-90829014D01*
X165304866Y-91055134D01*
X165530986Y-91240706D01*
X165788966Y-91378599D01*
X166068889Y-91463513D01*
X166287050Y-91485000D01*
X166432950Y-91485000D01*
X166651111Y-91463513D01*
X166931034Y-91378599D01*
X167189014Y-91240706D01*
X167415134Y-91055134D01*
X167600706Y-90829014D01*
X167630000Y-90774209D01*
X167659294Y-90829014D01*
X167844866Y-91055134D01*
X168070986Y-91240706D01*
X168328966Y-91378599D01*
X168608889Y-91463513D01*
X168827050Y-91485000D01*
X168972950Y-91485000D01*
X169191111Y-91463513D01*
X169471034Y-91378599D01*
X169729014Y-91240706D01*
X169955134Y-91055134D01*
X170140706Y-90829014D01*
X170170000Y-90774209D01*
X170199294Y-90829014D01*
X170384866Y-91055134D01*
X170610986Y-91240706D01*
X170868966Y-91378599D01*
X171148889Y-91463513D01*
X171367050Y-91485000D01*
X171512950Y-91485000D01*
X171731111Y-91463513D01*
X172011034Y-91378599D01*
X172269014Y-91240706D01*
X172495134Y-91055134D01*
X172680706Y-90829014D01*
X172710000Y-90774209D01*
X172739294Y-90829014D01*
X172924866Y-91055134D01*
X173150986Y-91240706D01*
X173408966Y-91378599D01*
X173688889Y-91463513D01*
X173907050Y-91485000D01*
X174052950Y-91485000D01*
X174271111Y-91463513D01*
X174551034Y-91378599D01*
X174809014Y-91240706D01*
X175035134Y-91055134D01*
X175220706Y-90829014D01*
X175250000Y-90774209D01*
X175279294Y-90829014D01*
X175464866Y-91055134D01*
X175690986Y-91240706D01*
X175948966Y-91378599D01*
X176228889Y-91463513D01*
X176447050Y-91485000D01*
X176592950Y-91485000D01*
X176811111Y-91463513D01*
X177091034Y-91378599D01*
X177349014Y-91240706D01*
X177575134Y-91055134D01*
X177760706Y-90829014D01*
X177790000Y-90774209D01*
X177819294Y-90829014D01*
X178004866Y-91055134D01*
X178230986Y-91240706D01*
X178488966Y-91378599D01*
X178768889Y-91463513D01*
X178987050Y-91485000D01*
X179132950Y-91485000D01*
X179351111Y-91463513D01*
X179631034Y-91378599D01*
X179889014Y-91240706D01*
X180115134Y-91055134D01*
X180300706Y-90829014D01*
X180330000Y-90774209D01*
X180359294Y-90829014D01*
X180544866Y-91055134D01*
X180770986Y-91240706D01*
X181028966Y-91378599D01*
X181308889Y-91463513D01*
X181527050Y-91485000D01*
X181672950Y-91485000D01*
X181891111Y-91463513D01*
X182171034Y-91378599D01*
X182189400Y-91368782D01*
X182189401Y-94124568D01*
X182185724Y-94161900D01*
X182189401Y-94199233D01*
X182198232Y-94288889D01*
X182200398Y-94310885D01*
X182243854Y-94454146D01*
X182314426Y-94586176D01*
X182356035Y-94636876D01*
X182409400Y-94701901D01*
X182438398Y-94725699D01*
X183134000Y-95421302D01*
X183134000Y-95483439D01*
X183173774Y-95683398D01*
X183251795Y-95871756D01*
X183365063Y-96041274D01*
X183509226Y-96185437D01*
X183618648Y-96258550D01*
X181748199Y-98129000D01*
X153002322Y-98129000D01*
X152964999Y-98125324D01*
X152927676Y-98129000D01*
X152927667Y-98129000D01*
X152816014Y-98139997D01*
X152672753Y-98183454D01*
X152540724Y-98254026D01*
X152424999Y-98348999D01*
X152401201Y-98377997D01*
X150482841Y-100296357D01*
X150391101Y-100221068D01*
X150141808Y-100087818D01*
X149871309Y-100005764D01*
X149660492Y-99985000D01*
X149519508Y-99985000D01*
X149308691Y-100005764D01*
X149038192Y-100087818D01*
X148788899Y-100221068D01*
X148570392Y-100400392D01*
X148391068Y-100618899D01*
X148320000Y-100751858D01*
X148248932Y-100618899D01*
X148069608Y-100400392D01*
X147851101Y-100221068D01*
X147601808Y-100087818D01*
X147331309Y-100005764D01*
X147120492Y-99985000D01*
X146979508Y-99985000D01*
X146768691Y-100005764D01*
X146498192Y-100087818D01*
X146248899Y-100221068D01*
X146030392Y-100400392D01*
X145851068Y-100618899D01*
X145780000Y-100751858D01*
X145708932Y-100618899D01*
X145529608Y-100400392D01*
X145311101Y-100221068D01*
X145061808Y-100087818D01*
X144791309Y-100005764D01*
X144580492Y-99985000D01*
X144439508Y-99985000D01*
X144228691Y-100005764D01*
X143958192Y-100087818D01*
X143708899Y-100221068D01*
X143504705Y-100388646D01*
X143494044Y-100375656D01*
X143351672Y-100258814D01*
X143189240Y-100171993D01*
X143012992Y-100118529D01*
X142875632Y-100105000D01*
X142829700Y-100100476D01*
X142783768Y-100105000D01*
X142604396Y-100105000D01*
X142485000Y-99985604D01*
X142485000Y-97924396D01*
X142664637Y-97744759D01*
X142821680Y-97509727D01*
X142929853Y-97248574D01*
X142985000Y-96971335D01*
X142985000Y-96688665D01*
X142929853Y-96411426D01*
X142821680Y-96150273D01*
X142664637Y-95915241D01*
X142498057Y-95748661D01*
X142594180Y-95719502D01*
X142704494Y-95660537D01*
X142801185Y-95581185D01*
X142880537Y-95484494D01*
X142939502Y-95374180D01*
X142975812Y-95254482D01*
X142988072Y-95130000D01*
X142985000Y-94615750D01*
X142826250Y-94457000D01*
X141677000Y-94457000D01*
X141677000Y-94477000D01*
X141423000Y-94477000D01*
X141423000Y-94457000D01*
X140273750Y-94457000D01*
X140115000Y-94615750D01*
X140111928Y-95130000D01*
X140124188Y-95254482D01*
X140160498Y-95374180D01*
X140219463Y-95484494D01*
X140298815Y-95581185D01*
X140395506Y-95660537D01*
X140505820Y-95719502D01*
X140601943Y-95748661D01*
X140435363Y-95915241D01*
X140278320Y-96150273D01*
X140170147Y-96411426D01*
X140115000Y-96688665D01*
X140115000Y-96971335D01*
X140170147Y-97248574D01*
X140278320Y-97509727D01*
X140435363Y-97744759D01*
X140615001Y-97924397D01*
X140615000Y-99912160D01*
X140595241Y-99925363D01*
X140395363Y-100125241D01*
X140238320Y-100360273D01*
X140130147Y-100621426D01*
X140075000Y-100898665D01*
X140075000Y-101181335D01*
X140130147Y-101458574D01*
X140238320Y-101719727D01*
X140395363Y-101954759D01*
X140595241Y-102154637D01*
X140795869Y-102288692D01*
X140768486Y-102303329D01*
X140696903Y-102547298D01*
X141510000Y-103360395D01*
X142323097Y-102547298D01*
X142251514Y-102303329D01*
X142222659Y-102289676D01*
X142424759Y-102154637D01*
X142522681Y-102056715D01*
X142545356Y-102084344D01*
X142687728Y-102201186D01*
X142850160Y-102288007D01*
X142972943Y-102325253D01*
X143026407Y-102341471D01*
X143209699Y-102359524D01*
X143255631Y-102355000D01*
X143420956Y-102355000D01*
X143490392Y-102439608D01*
X143708899Y-102618932D01*
X143958192Y-102752182D01*
X144228691Y-102834236D01*
X144439508Y-102855000D01*
X144580492Y-102855000D01*
X144791309Y-102834236D01*
X145061808Y-102752182D01*
X145311101Y-102618932D01*
X145529608Y-102439608D01*
X145708932Y-102221101D01*
X145780000Y-102088142D01*
X145851068Y-102221101D01*
X146030392Y-102439608D01*
X146248899Y-102618932D01*
X146498192Y-102752182D01*
X146768691Y-102834236D01*
X146979508Y-102855000D01*
X147120492Y-102855000D01*
X147331309Y-102834236D01*
X147601808Y-102752182D01*
X147851101Y-102618932D01*
X148069608Y-102439608D01*
X148248932Y-102221101D01*
X148320000Y-102088142D01*
X148391068Y-102221101D01*
X148570392Y-102439608D01*
X148788899Y-102618932D01*
X149038192Y-102752182D01*
X149308691Y-102834236D01*
X149519508Y-102855000D01*
X149660492Y-102855000D01*
X149871309Y-102834236D01*
X150141808Y-102752182D01*
X150391101Y-102618932D01*
X150609608Y-102439608D01*
X150788932Y-102221101D01*
X150814139Y-102173942D01*
X150864286Y-102169003D01*
X150897789Y-102158840D01*
X150931068Y-102221101D01*
X151110392Y-102439608D01*
X151328899Y-102618932D01*
X151578192Y-102752182D01*
X151848691Y-102834236D01*
X152059508Y-102855000D01*
X152200492Y-102855000D01*
X152411309Y-102834236D01*
X152681808Y-102752182D01*
X152931101Y-102618932D01*
X153149608Y-102439608D01*
X153328932Y-102221101D01*
X153400000Y-102088142D01*
X153471068Y-102221101D01*
X153650392Y-102439608D01*
X153868899Y-102618932D01*
X154118192Y-102752182D01*
X154388691Y-102834236D01*
X154599508Y-102855000D01*
X154740492Y-102855000D01*
X154951309Y-102834236D01*
X155221808Y-102752182D01*
X155471101Y-102618932D01*
X155689608Y-102439608D01*
X155868932Y-102221101D01*
X155940000Y-102088142D01*
X156011068Y-102221101D01*
X156190392Y-102439608D01*
X156408899Y-102618932D01*
X156554462Y-102696737D01*
X155333199Y-103918000D01*
X142894644Y-103918000D01*
X142936300Y-103751816D01*
X142950217Y-103469488D01*
X142908787Y-103189870D01*
X142813603Y-102923708D01*
X142746671Y-102798486D01*
X142502702Y-102726903D01*
X141689605Y-103540000D01*
X141703748Y-103554143D01*
X141524143Y-103733748D01*
X141510000Y-103719605D01*
X141495858Y-103733748D01*
X141316253Y-103554143D01*
X141330395Y-103540000D01*
X140517298Y-102726903D01*
X140273329Y-102798486D01*
X140229826Y-102890424D01*
X138228579Y-100889178D01*
X138200846Y-100797753D01*
X138130274Y-100665724D01*
X138035301Y-100549999D01*
X137919576Y-100455026D01*
X137787547Y-100384454D01*
X137644286Y-100340997D01*
X137594139Y-100336058D01*
X137568932Y-100288899D01*
X137389608Y-100070392D01*
X137171101Y-99891068D01*
X137038142Y-99820000D01*
X137171101Y-99748932D01*
X137389608Y-99569608D01*
X137568932Y-99351101D01*
X137702182Y-99101808D01*
X137784236Y-98831309D01*
X137811943Y-98550000D01*
X137784236Y-98268691D01*
X137702182Y-97998192D01*
X137568932Y-97748899D01*
X137389608Y-97530392D01*
X137171101Y-97351068D01*
X137038142Y-97280000D01*
X137171101Y-97208932D01*
X137389608Y-97029608D01*
X137568932Y-96811101D01*
X137702182Y-96561808D01*
X137784236Y-96291309D01*
X137811943Y-96010000D01*
X137784236Y-95728691D01*
X137702182Y-95458192D01*
X137568932Y-95208899D01*
X137389608Y-94990392D01*
X137171101Y-94811068D01*
X137038142Y-94740000D01*
X137171101Y-94668932D01*
X137389608Y-94489608D01*
X137568932Y-94271101D01*
X137702182Y-94021808D01*
X137784236Y-93751309D01*
X137806033Y-93530000D01*
X140111928Y-93530000D01*
X140115000Y-94044250D01*
X140273750Y-94203000D01*
X141423000Y-94203000D01*
X141423000Y-93053750D01*
X141677000Y-93053750D01*
X141677000Y-94203000D01*
X142826250Y-94203000D01*
X142985000Y-94044250D01*
X142988072Y-93530000D01*
X142975812Y-93405518D01*
X142939502Y-93285820D01*
X142880537Y-93175506D01*
X142801185Y-93078815D01*
X142704494Y-92999463D01*
X142594180Y-92940498D01*
X142474482Y-92904188D01*
X142350000Y-92891928D01*
X141835750Y-92895000D01*
X141677000Y-93053750D01*
X141423000Y-93053750D01*
X141264250Y-92895000D01*
X140750000Y-92891928D01*
X140625518Y-92904188D01*
X140505820Y-92940498D01*
X140395506Y-92999463D01*
X140298815Y-93078815D01*
X140219463Y-93175506D01*
X140160498Y-93285820D01*
X140124188Y-93405518D01*
X140111928Y-93530000D01*
X137806033Y-93530000D01*
X137811943Y-93470000D01*
X137784236Y-93188691D01*
X137702182Y-92918192D01*
X137568932Y-92668899D01*
X137389608Y-92450392D01*
X137171101Y-92271068D01*
X136921808Y-92137818D01*
X136651309Y-92055764D01*
X136440492Y-92035000D01*
X136299508Y-92035000D01*
X136088691Y-92055764D01*
X135818192Y-92137818D01*
X135568899Y-92271068D01*
X135350392Y-92450392D01*
X135192857Y-92642349D01*
X135179400Y-92641024D01*
X135142078Y-92644700D01*
X132330604Y-92644700D01*
X132348599Y-92611034D01*
X132433513Y-92331111D01*
X132462185Y-92040000D01*
X132433513Y-91748889D01*
X132348599Y-91468966D01*
X132210706Y-91210986D01*
X132149137Y-91135964D01*
X134152403Y-89132699D01*
X134181401Y-89108901D01*
X134249832Y-89025518D01*
X134276374Y-88993177D01*
X134346946Y-88861147D01*
X134358002Y-88824700D01*
X134390403Y-88717886D01*
X134401400Y-88606233D01*
X134401400Y-88606224D01*
X134405076Y-88568901D01*
X134401400Y-88531578D01*
X134401400Y-87772501D01*
X135184795Y-86989106D01*
X135232326Y-87036637D01*
G36*
X190613748Y-103455858D02*
G01*
X190599605Y-103470000D01*
X190613748Y-103484143D01*
X190434143Y-103663748D01*
X190420000Y-103649605D01*
X190405858Y-103663748D01*
X190226253Y-103484143D01*
X190240395Y-103470000D01*
X190226253Y-103455858D01*
X190405858Y-103276253D01*
X190420000Y-103290395D01*
X190434143Y-103276253D01*
X190613748Y-103455858D01*
X190613748Y-103455858D01*
G37*
X190613748Y-103455858D02*
X190599605Y-103470000D01*
X190613748Y-103484143D01*
X190434143Y-103663748D01*
X190420000Y-103649605D01*
X190405858Y-103663748D01*
X190226253Y-103484143D01*
X190240395Y-103470000D01*
X190226253Y-103455858D01*
X190405858Y-103276253D01*
X190420000Y-103290395D01*
X190434143Y-103276253D01*
X190613748Y-103455858D01*
G36*
X142499731Y-86362412D02*
G01*
X142304822Y-86578645D01*
X142155843Y-86828748D01*
X142058519Y-87103109D01*
X142179186Y-87333000D01*
X143373000Y-87333000D01*
X143373000Y-87313000D01*
X143627000Y-87313000D01*
X143627000Y-87333000D01*
X145913000Y-87333000D01*
X145913000Y-87313000D01*
X146167000Y-87313000D01*
X146167000Y-87333000D01*
X146187000Y-87333000D01*
X146187000Y-87587000D01*
X146167000Y-87587000D01*
X146167000Y-87607000D01*
X145913000Y-87607000D01*
X145913000Y-87587000D01*
X143627000Y-87587000D01*
X143627000Y-87607000D01*
X143373000Y-87607000D01*
X143373000Y-87587000D01*
X142179186Y-87587000D01*
X142058519Y-87816891D01*
X142146424Y-88064700D01*
X138798902Y-88064700D01*
X137001601Y-86267400D01*
X142627111Y-86267400D01*
X142499731Y-86362412D01*
X142499731Y-86362412D01*
G37*
X142499731Y-86362412D02*
X142304822Y-86578645D01*
X142155843Y-86828748D01*
X142058519Y-87103109D01*
X142179186Y-87333000D01*
X143373000Y-87333000D01*
X143373000Y-87313000D01*
X143627000Y-87313000D01*
X143627000Y-87333000D01*
X145913000Y-87333000D01*
X145913000Y-87313000D01*
X146167000Y-87313000D01*
X146167000Y-87333000D01*
X146187000Y-87333000D01*
X146187000Y-87587000D01*
X146167000Y-87587000D01*
X146167000Y-87607000D01*
X145913000Y-87607000D01*
X145913000Y-87587000D01*
X143627000Y-87587000D01*
X143627000Y-87607000D01*
X143373000Y-87607000D01*
X143373000Y-87587000D01*
X142179186Y-87587000D01*
X142058519Y-87816891D01*
X142146424Y-88064700D01*
X138798902Y-88064700D01*
X137001601Y-86267400D01*
X142627111Y-86267400D01*
X142499731Y-86362412D01*
M02*
