G04 #@! TF.GenerationSoftware,KiCad,Pcbnew,(5.0.0-3-g5ebb6b6)*
G04 #@! TF.CreationDate,2019-10-05T19:23:03+09:00*
G04 #@! TF.ProjectId,KZ80-MSXCTRG,4B5A38302D4D5358435452472E6B6963,rev?*
G04 #@! TF.SameCoordinates,Original*
G04 #@! TF.FileFunction,Copper,L1,Top,Signal*
G04 #@! TF.FilePolarity,Positive*
%FSLAX46Y46*%
G04 Gerber Fmt 4.6, Leading zero omitted, Abs format (unit mm)*
G04 Created by KiCad (PCBNEW (5.0.0-3-g5ebb6b6)) date *
%MOMM*%
%LPD*%
G01*
G04 APERTURE LIST*
G04 #@! TA.AperFunction,ComponentPad*
%ADD10C,1.600000*%
G04 #@! TD*
G04 #@! TA.AperFunction,ComponentPad*
%ADD11R,1.600000X1.600000*%
G04 #@! TD*
G04 #@! TA.AperFunction,ComponentPad*
%ADD12R,1.700000X1.700000*%
G04 #@! TD*
G04 #@! TA.AperFunction,ComponentPad*
%ADD13O,1.700000X1.700000*%
G04 #@! TD*
G04 #@! TA.AperFunction,ComponentPad*
%ADD14O,1.600000X1.600000*%
G04 #@! TD*
G04 #@! TA.AperFunction,ViaPad*
%ADD15C,0.800000*%
G04 #@! TD*
G04 #@! TA.AperFunction,Conductor*
%ADD16C,0.600000*%
G04 #@! TD*
G04 #@! TA.AperFunction,Conductor*
%ADD17C,0.250000*%
G04 #@! TD*
G04 #@! TA.AperFunction,Conductor*
%ADD18C,0.254000*%
G04 #@! TD*
G04 APERTURE END LIST*
D10*
G04 #@! TO.P,C6,2*
G04 #@! TO.N,VCC*
X138570000Y-129880000D03*
D11*
G04 #@! TO.P,C6,1*
G04 #@! TO.N,GND*
X141070000Y-129880000D03*
G04 #@! TD*
G04 #@! TO.P,C5,1*
G04 #@! TO.N,GND*
X141550000Y-94330000D03*
D10*
G04 #@! TO.P,C5,2*
G04 #@! TO.N,VCC*
X141550000Y-96830000D03*
G04 #@! TD*
G04 #@! TO.P,C7,1*
G04 #@! TO.N,GND*
X167260000Y-117450000D03*
G04 #@! TO.P,C7,2*
G04 #@! TO.N,VCC*
X167260000Y-114950000D03*
G04 #@! TD*
G04 #@! TO.P,C4,2*
G04 #@! TO.N,VCC*
X167140000Y-100970000D03*
G04 #@! TO.P,C4,1*
G04 #@! TO.N,GND*
X167140000Y-103470000D03*
G04 #@! TD*
G04 #@! TO.P,C3,1*
G04 #@! TO.N,GND*
X141630000Y-117520000D03*
G04 #@! TO.P,C3,2*
G04 #@! TO.N,VCC*
X141630000Y-115020000D03*
G04 #@! TD*
G04 #@! TO.P,C2,2*
G04 #@! TO.N,VCC*
X190420000Y-100970000D03*
G04 #@! TO.P,C2,1*
G04 #@! TO.N,GND*
X190420000Y-103470000D03*
G04 #@! TD*
G04 #@! TO.P,C1,1*
G04 #@! TO.N,GND*
X141510000Y-103540000D03*
G04 #@! TO.P,C1,2*
G04 #@! TO.N,VCC*
X141510000Y-101040000D03*
G04 #@! TD*
D12*
G04 #@! TO.P,J1,1*
G04 #@! TO.N,/~CS1*
X198500000Y-141460000D03*
D13*
G04 #@! TO.P,J1,2*
G04 #@! TO.N,/~CS2*
X198500000Y-146540000D03*
G04 #@! TO.P,J1,3*
G04 #@! TO.N,/~CS12*
X195960000Y-141460000D03*
G04 #@! TO.P,J1,4*
G04 #@! TO.N,/~SLT1*
X195960000Y-146540000D03*
G04 #@! TO.P,J1,5*
G04 #@! TO.N,Net-(J1-Pad5)*
X193420000Y-141460000D03*
G04 #@! TO.P,J1,6*
G04 #@! TO.N,/~RFSH*
X193420000Y-146540000D03*
G04 #@! TO.P,J1,7*
G04 #@! TO.N,/~WAIT*
X190880000Y-141460000D03*
G04 #@! TO.P,J1,8*
G04 #@! TO.N,/~INT-S*
X190880000Y-146540000D03*
G04 #@! TO.P,J1,9*
G04 #@! TO.N,/~M1*
X188340000Y-141460000D03*
G04 #@! TO.P,J1,10*
G04 #@! TO.N,/~BUSDIR*
X188340000Y-146540000D03*
G04 #@! TO.P,J1,11*
G04 #@! TO.N,/~IORQ*
X185800000Y-141460000D03*
G04 #@! TO.P,J1,12*
G04 #@! TO.N,/~MREQ*
X185800000Y-146540000D03*
G04 #@! TO.P,J1,13*
G04 #@! TO.N,/~WR*
X183260000Y-141460000D03*
G04 #@! TO.P,J1,14*
G04 #@! TO.N,/~RD*
X183260000Y-146540000D03*
G04 #@! TO.P,J1,15*
G04 #@! TO.N,/~RESET*
X180720000Y-141460000D03*
G04 #@! TO.P,J1,16*
G04 #@! TO.N,Net-(J1-Pad16)*
X180720000Y-146540000D03*
G04 #@! TO.P,J1,17*
G04 #@! TO.N,/A9*
X178180000Y-141460000D03*
G04 #@! TO.P,J1,18*
G04 #@! TO.N,/A15*
X178180000Y-146540000D03*
G04 #@! TO.P,J1,19*
G04 #@! TO.N,/A11*
X175640000Y-141460000D03*
G04 #@! TO.P,J1,20*
G04 #@! TO.N,/A10*
X175640000Y-146540000D03*
G04 #@! TO.P,J1,21*
G04 #@! TO.N,/A7*
X173100000Y-141460000D03*
G04 #@! TO.P,J1,22*
G04 #@! TO.N,/A6*
X173100000Y-146540000D03*
G04 #@! TO.P,J1,23*
G04 #@! TO.N,/A12*
X170560000Y-141460000D03*
G04 #@! TO.P,J1,24*
G04 #@! TO.N,/A8*
X170560000Y-146540000D03*
G04 #@! TO.P,J1,25*
G04 #@! TO.N,/A14*
X168020000Y-141460000D03*
G04 #@! TO.P,J1,26*
G04 #@! TO.N,/A13*
X168020000Y-146540000D03*
G04 #@! TO.P,J1,27*
G04 #@! TO.N,/A1*
X165480000Y-141460000D03*
G04 #@! TO.P,J1,28*
G04 #@! TO.N,/A0*
X165480000Y-146540000D03*
G04 #@! TO.P,J1,29*
G04 #@! TO.N,/A3*
X162940000Y-141460000D03*
G04 #@! TO.P,J1,30*
G04 #@! TO.N,/A2*
X162940000Y-146540000D03*
G04 #@! TO.P,J1,31*
G04 #@! TO.N,/A5*
X160400000Y-141460000D03*
G04 #@! TO.P,J1,32*
G04 #@! TO.N,/A4*
X160400000Y-146540000D03*
G04 #@! TO.P,J1,33*
G04 #@! TO.N,/D1*
X157860000Y-141460000D03*
G04 #@! TO.P,J1,34*
G04 #@! TO.N,/D0*
X157860000Y-146540000D03*
G04 #@! TO.P,J1,35*
G04 #@! TO.N,/D3*
X155320000Y-141460000D03*
G04 #@! TO.P,J1,36*
G04 #@! TO.N,/D2*
X155320000Y-146540000D03*
G04 #@! TO.P,J1,37*
G04 #@! TO.N,/D5*
X152780000Y-141460000D03*
G04 #@! TO.P,J1,38*
G04 #@! TO.N,/D4*
X152780000Y-146540000D03*
G04 #@! TO.P,J1,39*
G04 #@! TO.N,/D7*
X150240000Y-141460000D03*
G04 #@! TO.P,J1,40*
G04 #@! TO.N,/D6*
X150240000Y-146540000D03*
G04 #@! TO.P,J1,41*
G04 #@! TO.N,GND*
X147700000Y-141460000D03*
G04 #@! TO.P,J1,42*
G04 #@! TO.N,/CLK*
X147700000Y-146540000D03*
G04 #@! TO.P,J1,43*
G04 #@! TO.N,GND*
X145160000Y-141460000D03*
G04 #@! TO.P,J1,44*
G04 #@! TO.N,/SW1*
X145160000Y-146540000D03*
G04 #@! TO.P,J1,45*
G04 #@! TO.N,VCC*
X142620000Y-141460000D03*
G04 #@! TO.P,J1,46*
G04 #@! TO.N,/SW2*
X142620000Y-146540000D03*
G04 #@! TO.P,J1,47*
G04 #@! TO.N,VCC*
X140080000Y-141460000D03*
G04 #@! TO.P,J1,48*
G04 #@! TO.N,/+12V*
X140080000Y-146540000D03*
G04 #@! TO.P,J1,49*
G04 #@! TO.N,Net-(J1-Pad49)*
X137540000Y-141460000D03*
G04 #@! TO.P,J1,50*
G04 #@! TO.N,/-12V*
X137540000Y-146540000D03*
G04 #@! TD*
D12*
G04 #@! TO.P,JP1,1*
G04 #@! TO.N,/~INT*
X199820000Y-117890000D03*
D13*
G04 #@! TO.P,JP1,2*
G04 #@! TO.N,/~INT-S*
X199820000Y-120430000D03*
G04 #@! TO.P,JP1,3*
G04 #@! TO.N,Net-(JP1-Pad3)*
X199820000Y-122970000D03*
G04 #@! TD*
D12*
G04 #@! TO.P,J3,1*
G04 #@! TO.N,/~SLT0*
X208720000Y-117840000D03*
D13*
G04 #@! TO.P,J3,2*
G04 #@! TO.N,/~SLT2*
X208720000Y-120380000D03*
G04 #@! TO.P,J3,3*
G04 #@! TO.N,/~SLT3*
X208720000Y-122920000D03*
G04 #@! TO.P,J3,4*
G04 #@! TO.N,Net-(J3-Pad4)*
X208720000Y-125460000D03*
G04 #@! TO.P,J3,5*
G04 #@! TO.N,/INT-J*
X208720000Y-128000000D03*
G04 #@! TD*
G04 #@! TO.P,J5,14*
G04 #@! TO.N,Net-(J5-Pad14)*
X128430000Y-86960000D03*
G04 #@! TO.P,J5,13*
G04 #@! TO.N,Net-(J5-Pad13)*
X130970000Y-86960000D03*
G04 #@! TO.P,J5,12*
G04 #@! TO.N,/PC7*
X128430000Y-89500000D03*
G04 #@! TO.P,J5,11*
G04 #@! TO.N,/PC6*
X130970000Y-89500000D03*
G04 #@! TO.P,J5,10*
G04 #@! TO.N,/PC5*
X128430000Y-92040000D03*
G04 #@! TO.P,J5,9*
G04 #@! TO.N,/PC4*
X130970000Y-92040000D03*
G04 #@! TO.P,J5,8*
G04 #@! TO.N,/PA7*
X128430000Y-94580000D03*
G04 #@! TO.P,J5,7*
G04 #@! TO.N,/PA6*
X130970000Y-94580000D03*
G04 #@! TO.P,J5,6*
G04 #@! TO.N,/PA5*
X128430000Y-97120000D03*
G04 #@! TO.P,J5,5*
G04 #@! TO.N,/PA4*
X130970000Y-97120000D03*
G04 #@! TO.P,J5,4*
G04 #@! TO.N,/PA3*
X128430000Y-99660000D03*
G04 #@! TO.P,J5,3*
G04 #@! TO.N,/PA2*
X130970000Y-99660000D03*
G04 #@! TO.P,J5,2*
G04 #@! TO.N,/PA1*
X128430000Y-102200000D03*
D12*
G04 #@! TO.P,J5,1*
G04 #@! TO.N,/PA0*
X130970000Y-102200000D03*
G04 #@! TD*
G04 #@! TO.P,J4,1*
G04 #@! TO.N,/~RD*
X130970000Y-128870000D03*
D13*
G04 #@! TO.P,J4,2*
G04 #@! TO.N,/~WR*
X128430000Y-128870000D03*
G04 #@! TO.P,J4,3*
G04 #@! TO.N,/~IORQ*
X130970000Y-126330000D03*
G04 #@! TO.P,J4,4*
G04 #@! TO.N,/~MREQ*
X128430000Y-126330000D03*
G04 #@! TO.P,J4,5*
G04 #@! TO.N,/~M1*
X130970000Y-123790000D03*
G04 #@! TO.P,J4,6*
G04 #@! TO.N,/~RESET*
X128430000Y-123790000D03*
G04 #@! TO.P,J4,7*
G04 #@! TO.N,/~BUSR*
X130970000Y-121250000D03*
G04 #@! TO.P,J4,8*
G04 #@! TO.N,/~BUSA*
X128430000Y-121250000D03*
G04 #@! TO.P,J4,9*
G04 #@! TO.N,/~NMI*
X130970000Y-118710000D03*
G04 #@! TO.P,J4,10*
G04 #@! TO.N,/~INT*
X128430000Y-118710000D03*
G04 #@! TO.P,J4,11*
G04 #@! TO.N,/~RFSH*
X130970000Y-116170000D03*
G04 #@! TO.P,J4,12*
G04 #@! TO.N,/~WAIT*
X128430000Y-116170000D03*
G04 #@! TO.P,J4,13*
G04 #@! TO.N,/~HALT*
X130970000Y-113630000D03*
G04 #@! TO.P,J4,14*
G04 #@! TO.N,Net-(J4-Pad14)*
X128430000Y-113630000D03*
G04 #@! TD*
D12*
G04 #@! TO.P,J2,1*
G04 #@! TO.N,VCC*
X143500000Y-90000000D03*
D13*
G04 #@! TO.P,J2,2*
G04 #@! TO.N,GND*
X143500000Y-87460000D03*
G04 #@! TO.P,J2,3*
G04 #@! TO.N,VCC*
X146040000Y-90000000D03*
G04 #@! TO.P,J2,4*
G04 #@! TO.N,GND*
X146040000Y-87460000D03*
G04 #@! TO.P,J2,5*
G04 #@! TO.N,Net-(J2-Pad5)*
X148580000Y-90000000D03*
G04 #@! TO.P,J2,6*
G04 #@! TO.N,Net-(J2-Pad6)*
X148580000Y-87460000D03*
G04 #@! TO.P,J2,7*
G04 #@! TO.N,Net-(J2-Pad7)*
X151120000Y-90000000D03*
G04 #@! TO.P,J2,8*
G04 #@! TO.N,/CLK*
X151120000Y-87460000D03*
G04 #@! TO.P,J2,9*
G04 #@! TO.N,/D0*
X153660000Y-90000000D03*
G04 #@! TO.P,J2,10*
G04 #@! TO.N,/D1*
X153660000Y-87460000D03*
G04 #@! TO.P,J2,11*
G04 #@! TO.N,/D2*
X156200000Y-90000000D03*
G04 #@! TO.P,J2,12*
G04 #@! TO.N,/D3*
X156200000Y-87460000D03*
G04 #@! TO.P,J2,13*
G04 #@! TO.N,/D4*
X158740000Y-90000000D03*
G04 #@! TO.P,J2,14*
G04 #@! TO.N,/D5*
X158740000Y-87460000D03*
G04 #@! TO.P,J2,15*
G04 #@! TO.N,/D6*
X161280000Y-90000000D03*
G04 #@! TO.P,J2,16*
G04 #@! TO.N,/D7*
X161280000Y-87460000D03*
G04 #@! TO.P,J2,17*
G04 #@! TO.N,Net-(J2-Pad17)*
X163820000Y-90000000D03*
G04 #@! TO.P,J2,18*
G04 #@! TO.N,/~MEMRD*
X163820000Y-87460000D03*
G04 #@! TO.P,J2,19*
G04 #@! TO.N,Net-(J2-Pad19)*
X166360000Y-90000000D03*
G04 #@! TO.P,J2,20*
G04 #@! TO.N,/~MEMWR*
X166360000Y-87460000D03*
G04 #@! TO.P,J2,21*
G04 #@! TO.N,/RES*
X168900000Y-90000000D03*
G04 #@! TO.P,J2,22*
G04 #@! TO.N,Net-(J2-Pad22)*
X168900000Y-87460000D03*
G04 #@! TO.P,J2,23*
G04 #@! TO.N,/INT*
X171440000Y-90000000D03*
G04 #@! TO.P,J2,24*
G04 #@! TO.N,Net-(J2-Pad24)*
X171440000Y-87460000D03*
G04 #@! TO.P,J2,25*
G04 #@! TO.N,/A0*
X173980000Y-90000000D03*
G04 #@! TO.P,J2,26*
G04 #@! TO.N,/A1*
X173980000Y-87460000D03*
G04 #@! TO.P,J2,27*
G04 #@! TO.N,/A2*
X176520000Y-90000000D03*
G04 #@! TO.P,J2,28*
G04 #@! TO.N,/A3*
X176520000Y-87460000D03*
G04 #@! TO.P,J2,29*
G04 #@! TO.N,/A4*
X179060000Y-90000000D03*
G04 #@! TO.P,J2,30*
G04 #@! TO.N,/A5*
X179060000Y-87460000D03*
G04 #@! TO.P,J2,31*
G04 #@! TO.N,/A6*
X181600000Y-90000000D03*
G04 #@! TO.P,J2,32*
G04 #@! TO.N,/A7*
X181600000Y-87460000D03*
G04 #@! TO.P,J2,33*
G04 #@! TO.N,/A8*
X184140000Y-90000000D03*
G04 #@! TO.P,J2,34*
G04 #@! TO.N,/A9*
X184140000Y-87460000D03*
G04 #@! TO.P,J2,35*
G04 #@! TO.N,/A10*
X186680000Y-90000000D03*
G04 #@! TO.P,J2,36*
G04 #@! TO.N,/A11*
X186680000Y-87460000D03*
G04 #@! TO.P,J2,37*
G04 #@! TO.N,/A12*
X189220000Y-90000000D03*
G04 #@! TO.P,J2,38*
G04 #@! TO.N,/A13*
X189220000Y-87460000D03*
G04 #@! TO.P,J2,39*
G04 #@! TO.N,/A14*
X191760000Y-90000000D03*
G04 #@! TO.P,J2,40*
G04 #@! TO.N,/A15*
X191760000Y-87460000D03*
G04 #@! TD*
D11*
G04 #@! TO.P,U5,1*
G04 #@! TO.N,/~RESET*
X170140000Y-108970000D03*
D14*
G04 #@! TO.P,U5,8*
G04 #@! TO.N,/INT-J*
X185380000Y-101350000D03*
G04 #@! TO.P,U5,2*
G04 #@! TO.N,Net-(U5-Pad2)*
X172680000Y-108970000D03*
G04 #@! TO.P,U5,9*
G04 #@! TO.N,Net-(JP1-Pad3)*
X182840000Y-101350000D03*
G04 #@! TO.P,U5,3*
G04 #@! TO.N,Net-(U2-Pad1)*
X175220000Y-108970000D03*
G04 #@! TO.P,U5,10*
G04 #@! TO.N,Net-(JP1-Pad3)*
X180300000Y-101350000D03*
G04 #@! TO.P,U5,4*
G04 #@! TO.N,Net-(U2-Pad1)*
X177760000Y-108970000D03*
G04 #@! TO.P,U5,11*
G04 #@! TO.N,Net-(U5-Pad11)*
X177760000Y-101350000D03*
G04 #@! TO.P,U5,5*
G04 #@! TO.N,Net-(U3-Pad8)*
X180300000Y-108970000D03*
G04 #@! TO.P,U5,12*
G04 #@! TO.N,GND*
X175220000Y-101350000D03*
G04 #@! TO.P,U5,6*
G04 #@! TO.N,Net-(U5-Pad2)*
X182840000Y-108970000D03*
G04 #@! TO.P,U5,13*
G04 #@! TO.N,GND*
X172680000Y-101350000D03*
G04 #@! TO.P,U5,7*
X185380000Y-108970000D03*
G04 #@! TO.P,U5,14*
G04 #@! TO.N,VCC*
X170140000Y-101350000D03*
G04 #@! TD*
G04 #@! TO.P,U4,14*
G04 #@! TO.N,VCC*
X170260000Y-115330000D03*
G04 #@! TO.P,U4,7*
G04 #@! TO.N,GND*
X185500000Y-122950000D03*
G04 #@! TO.P,U4,13*
G04 #@! TO.N,/~SLT3*
X172800000Y-115330000D03*
G04 #@! TO.P,U4,6*
G04 #@! TO.N,/~CS12*
X182960000Y-122950000D03*
G04 #@! TO.P,U4,12*
G04 #@! TO.N,/~SLT3*
X175340000Y-115330000D03*
G04 #@! TO.P,U4,5*
G04 #@! TO.N,Net-(U4-Pad3)*
X180420000Y-122950000D03*
G04 #@! TO.P,U4,11*
G04 #@! TO.N,Net-(J3-Pad4)*
X177880000Y-115330000D03*
G04 #@! TO.P,U4,4*
G04 #@! TO.N,Net-(U4-Pad3)*
X177880000Y-122950000D03*
G04 #@! TO.P,U4,10*
G04 #@! TO.N,/~RFSH*
X180420000Y-115330000D03*
G04 #@! TO.P,U4,3*
G04 #@! TO.N,Net-(U4-Pad3)*
X175340000Y-122950000D03*
G04 #@! TO.P,U4,9*
G04 #@! TO.N,/~RFSH*
X182960000Y-115330000D03*
G04 #@! TO.P,U4,2*
G04 #@! TO.N,/~CS2*
X172800000Y-122950000D03*
G04 #@! TO.P,U4,8*
G04 #@! TO.N,Net-(U3-Pad2)*
X185500000Y-115330000D03*
D11*
G04 #@! TO.P,U4,1*
G04 #@! TO.N,/~CS1*
X170260000Y-122950000D03*
G04 #@! TD*
G04 #@! TO.P,U3,1*
G04 #@! TO.N,/~MREQ*
X144630000Y-123020000D03*
D14*
G04 #@! TO.P,U3,8*
G04 #@! TO.N,Net-(U3-Pad8)*
X159870000Y-115400000D03*
G04 #@! TO.P,U3,2*
G04 #@! TO.N,Net-(U3-Pad2)*
X147170000Y-123020000D03*
G04 #@! TO.P,U3,9*
G04 #@! TO.N,/PA0*
X157330000Y-115400000D03*
G04 #@! TO.P,U3,3*
G04 #@! TO.N,Net-(U1-Pad15)*
X149710000Y-123020000D03*
G04 #@! TO.P,U3,10*
G04 #@! TO.N,/PA1*
X154790000Y-115400000D03*
G04 #@! TO.P,U3,4*
G04 #@! TO.N,/~RD*
X152250000Y-123020000D03*
G04 #@! TO.P,U3,11*
G04 #@! TO.N,Net-(U3-Pad11)*
X152250000Y-115400000D03*
G04 #@! TO.P,U3,5*
G04 #@! TO.N,/~MREQ*
X154790000Y-123020000D03*
G04 #@! TO.P,U3,12*
G04 #@! TO.N,GND*
X149710000Y-115400000D03*
G04 #@! TO.P,U3,6*
G04 #@! TO.N,Net-(U1-Pad1)*
X157330000Y-123020000D03*
G04 #@! TO.P,U3,13*
G04 #@! TO.N,GND*
X147170000Y-115400000D03*
G04 #@! TO.P,U3,7*
X159870000Y-123020000D03*
G04 #@! TO.P,U3,14*
G04 #@! TO.N,VCC*
X144630000Y-115400000D03*
G04 #@! TD*
G04 #@! TO.P,U2,16*
G04 #@! TO.N,VCC*
X144510000Y-101420000D03*
G04 #@! TO.P,U2,8*
G04 #@! TO.N,GND*
X162290000Y-109040000D03*
G04 #@! TO.P,U2,15*
G04 #@! TO.N,Net-(U2-Pad1)*
X147050000Y-101420000D03*
G04 #@! TO.P,U2,7*
G04 #@! TO.N,Net-(U1-Pad14)*
X159750000Y-109040000D03*
G04 #@! TO.P,U2,14*
G04 #@! TO.N,/A14*
X149590000Y-101420000D03*
G04 #@! TO.P,U2,6*
G04 #@! TO.N,/PA0*
X157210000Y-109040000D03*
G04 #@! TO.P,U2,13*
G04 #@! TO.N,/PA7*
X152130000Y-101420000D03*
G04 #@! TO.P,U2,5*
G04 #@! TO.N,/PA2*
X154670000Y-109040000D03*
G04 #@! TO.P,U2,12*
G04 #@! TO.N,/PA5*
X154670000Y-101420000D03*
G04 #@! TO.P,U2,4*
G04 #@! TO.N,/PA4*
X152130000Y-109040000D03*
G04 #@! TO.P,U2,11*
G04 #@! TO.N,/PA3*
X157210000Y-101420000D03*
G04 #@! TO.P,U2,3*
G04 #@! TO.N,/PA6*
X149590000Y-109040000D03*
G04 #@! TO.P,U2,10*
G04 #@! TO.N,/PA1*
X159750000Y-101420000D03*
G04 #@! TO.P,U2,2*
G04 #@! TO.N,/A15*
X147050000Y-109040000D03*
G04 #@! TO.P,U2,9*
G04 #@! TO.N,Net-(U1-Pad13)*
X162290000Y-101420000D03*
D11*
G04 #@! TO.P,U2,1*
G04 #@! TO.N,Net-(U2-Pad1)*
X144510000Y-109040000D03*
G04 #@! TD*
G04 #@! TO.P,U1,1*
G04 #@! TO.N,Net-(U1-Pad1)*
X193420000Y-108970000D03*
D14*
G04 #@! TO.P,U1,9*
G04 #@! TO.N,/~SLT3*
X211200000Y-101350000D03*
G04 #@! TO.P,U1,2*
G04 #@! TO.N,/A14*
X195960000Y-108970000D03*
G04 #@! TO.P,U1,10*
G04 #@! TO.N,/~SLT2*
X208660000Y-101350000D03*
G04 #@! TO.P,U1,3*
G04 #@! TO.N,/A15*
X198500000Y-108970000D03*
G04 #@! TO.P,U1,11*
G04 #@! TO.N,/~SLT1*
X206120000Y-101350000D03*
G04 #@! TO.P,U1,4*
G04 #@! TO.N,/~CS0*
X201040000Y-108970000D03*
G04 #@! TO.P,U1,12*
G04 #@! TO.N,/~SLT0*
X203580000Y-101350000D03*
G04 #@! TO.P,U1,5*
G04 #@! TO.N,/~CS1*
X203580000Y-108970000D03*
G04 #@! TO.P,U1,13*
G04 #@! TO.N,Net-(U1-Pad13)*
X201040000Y-101350000D03*
G04 #@! TO.P,U1,6*
G04 #@! TO.N,/~CS2*
X206120000Y-108970000D03*
G04 #@! TO.P,U1,14*
G04 #@! TO.N,Net-(U1-Pad14)*
X198500000Y-101350000D03*
G04 #@! TO.P,U1,7*
G04 #@! TO.N,Net-(U1-Pad7)*
X208660000Y-108970000D03*
G04 #@! TO.P,U1,15*
G04 #@! TO.N,Net-(U1-Pad15)*
X195960000Y-101350000D03*
G04 #@! TO.P,U1,8*
G04 #@! TO.N,GND*
X211200000Y-108970000D03*
G04 #@! TO.P,U1,16*
G04 #@! TO.N,VCC*
X193420000Y-101350000D03*
G04 #@! TD*
D11*
G04 #@! TO.P,RN1,1*
G04 #@! TO.N,VCC*
X136370000Y-113790000D03*
D14*
G04 #@! TO.P,RN1,2*
G04 #@! TO.N,/PA0*
X136370000Y-111250000D03*
G04 #@! TO.P,RN1,3*
G04 #@! TO.N,/PA2*
X136370000Y-108710000D03*
G04 #@! TO.P,RN1,4*
G04 #@! TO.N,/PA4*
X136370000Y-106170000D03*
G04 #@! TO.P,RN1,5*
G04 #@! TO.N,/PA6*
X136370000Y-103630000D03*
G04 #@! TO.P,RN1,6*
G04 #@! TO.N,/PA1*
X136370000Y-101090000D03*
G04 #@! TO.P,RN1,7*
G04 #@! TO.N,/PA3*
X136370000Y-98550000D03*
G04 #@! TO.P,RN1,8*
G04 #@! TO.N,/PA5*
X136370000Y-96010000D03*
G04 #@! TO.P,RN1,9*
G04 #@! TO.N,/PA7*
X136370000Y-93470000D03*
G04 #@! TD*
D15*
G04 #@! TO.N,/~SLT3*
X184380900Y-120712200D03*
G04 #@! TO.N,/A15*
X153394400Y-116525400D03*
G04 #@! TO.N,GND*
X185443000Y-103632200D03*
X188252100Y-121788400D03*
X211000000Y-121000000D03*
X208000000Y-86000000D03*
X121500000Y-88000000D03*
X122500000Y-143500000D03*
X209500000Y-143500000D03*
G04 #@! TO.N,Net-(U3-Pad8)*
X160139500Y-112577700D03*
G04 #@! TO.N,/~RD*
X148222100Y-127617100D03*
G04 #@! TO.N,Net-(J3-Pad4)*
X185606700Y-120934700D03*
G04 #@! TO.N,/~RESET*
X173925400Y-110732300D03*
G04 #@! TO.N,/D1*
X140636700Y-97985000D03*
G04 #@! TO.N,/A7*
X195048800Y-136513900D03*
X195030000Y-87019300D03*
G04 #@! TO.N,/A12*
X190308300Y-134165100D03*
X193294000Y-90068600D03*
G04 #@! TO.N,/~M1*
X145138500Y-143797900D03*
G04 #@! TO.N,/~INT*
X192296000Y-111180900D03*
X134078900Y-124369500D03*
G04 #@! TD*
D16*
G04 #@! TO.N,VCC*
X167451300Y-101281200D02*
X167140000Y-100970000D01*
X170140000Y-101350000D02*
X167520000Y-101350000D01*
X167520000Y-101350000D02*
X167451300Y-101281200D01*
X190420000Y-100970000D02*
X186619400Y-104770600D01*
X186619400Y-104770600D02*
X166588100Y-104770600D01*
X166588100Y-104770600D02*
X165815300Y-103997800D01*
X165815300Y-103997800D02*
X165815300Y-102917200D01*
X165815300Y-102917200D02*
X167451300Y-101281200D01*
X192119700Y-101350000D02*
X191739700Y-100970000D01*
X191739700Y-100970000D02*
X190420000Y-100970000D01*
X144630000Y-115400000D02*
X145935900Y-114094100D01*
X145935900Y-114094100D02*
X166404100Y-114094100D01*
X166404100Y-114094100D02*
X167260000Y-114950000D01*
X168959700Y-115330000D02*
X168579700Y-114950000D01*
X168579700Y-114950000D02*
X167260000Y-114950000D01*
X144630000Y-115400000D02*
X143329700Y-115400000D01*
X141630000Y-115020000D02*
X142949700Y-115020000D01*
X142949700Y-115020000D02*
X143329700Y-115400000D01*
X193420000Y-101350000D02*
X192119700Y-101350000D01*
X141510000Y-101040000D02*
X141550000Y-101000000D01*
X141550000Y-101000000D02*
X141550000Y-96830000D01*
X170260000Y-115330000D02*
X168959700Y-115330000D01*
X140080000Y-141460000D02*
X140080000Y-140109700D01*
X138570000Y-129880000D02*
X138570000Y-138599700D01*
X138570000Y-138599700D02*
X140080000Y-140109700D01*
X140080000Y-141460000D02*
X141269700Y-141460000D01*
X142620000Y-141460000D02*
X141269700Y-141460000D01*
X146040000Y-90000000D02*
X143500000Y-90000000D01*
D17*
G04 #@! TO.N,/PA0*
X137495300Y-111250000D02*
X137786100Y-111540800D01*
X137786100Y-111540800D02*
X150137100Y-111540800D01*
X150137100Y-111540800D02*
X150427900Y-111250000D01*
X150427900Y-111250000D02*
X154156000Y-111250000D01*
X154156000Y-111250000D02*
X156084700Y-109321300D01*
X156084700Y-109321300D02*
X156084700Y-109040000D01*
X157210000Y-109040000D02*
X156084700Y-109040000D01*
X136370000Y-111250000D02*
X137495300Y-111250000D01*
G04 #@! TO.N,/PA2*
X137495300Y-108710000D02*
X139875800Y-111090500D01*
X139875800Y-111090500D02*
X149950500Y-111090500D01*
X149950500Y-111090500D02*
X150400800Y-110640200D01*
X150400800Y-110640200D02*
X152225800Y-110640200D01*
X152225800Y-110640200D02*
X153544700Y-109321300D01*
X153544700Y-109321300D02*
X153544700Y-109040000D01*
X154670000Y-109040000D02*
X153544700Y-109040000D01*
X136370000Y-108710000D02*
X137495300Y-108710000D01*
G04 #@! TO.N,/PA4*
X152130000Y-109040000D02*
X151004700Y-109040000D01*
X136370000Y-106170000D02*
X137495300Y-106170000D01*
X137495300Y-106170000D02*
X141965400Y-110640100D01*
X141965400Y-110640100D02*
X149581500Y-110640100D01*
X149581500Y-110640100D02*
X151004700Y-109216900D01*
X151004700Y-109216900D02*
X151004700Y-109040000D01*
G04 #@! TO.N,/PA6*
X149590000Y-109040000D02*
X148464700Y-109040000D01*
X136370000Y-103630000D02*
X137495300Y-103630000D01*
X137495300Y-103630000D02*
X137495300Y-104192700D01*
X137495300Y-104192700D02*
X143467900Y-110165300D01*
X143467900Y-110165300D02*
X147532200Y-110165300D01*
X147532200Y-110165300D02*
X148464700Y-109232800D01*
X148464700Y-109232800D02*
X148464700Y-109040000D01*
G04 #@! TO.N,/PA1*
X128430000Y-102200000D02*
X129605300Y-102200000D01*
X136370000Y-101090000D02*
X135244700Y-101090000D01*
X135244700Y-101090000D02*
X135179400Y-101024700D01*
X135179400Y-101024700D02*
X129972500Y-101024700D01*
X129972500Y-101024700D02*
X129605300Y-101391900D01*
X129605300Y-101391900D02*
X129605300Y-102200000D01*
G04 #@! TO.N,/PA3*
X128430000Y-99660000D02*
X129605300Y-99660000D01*
X136370000Y-98550000D02*
X135244700Y-98550000D01*
X135244700Y-98550000D02*
X135179400Y-98484700D01*
X135179400Y-98484700D02*
X130413200Y-98484700D01*
X130413200Y-98484700D02*
X129605300Y-99292600D01*
X129605300Y-99292600D02*
X129605300Y-99660000D01*
G04 #@! TO.N,/PA5*
X128430000Y-97120000D02*
X129605300Y-97120000D01*
X136370000Y-96010000D02*
X135244700Y-96010000D01*
X135244700Y-96010000D02*
X135179400Y-95944700D01*
X135179400Y-95944700D02*
X130413200Y-95944700D01*
X130413200Y-95944700D02*
X129605300Y-96752600D01*
X129605300Y-96752600D02*
X129605300Y-97120000D01*
G04 #@! TO.N,/PA7*
X136370000Y-93470000D02*
X137495300Y-93470000D01*
X137495300Y-93470000D02*
X137783700Y-93181600D01*
X137783700Y-93181600D02*
X143891600Y-93181600D01*
X143891600Y-93181600D02*
X152130000Y-101420000D01*
X135807400Y-93470000D02*
X136370000Y-93470000D01*
X135807400Y-93470000D02*
X135244700Y-93470000D01*
X128430000Y-94580000D02*
X129605300Y-94580000D01*
X135244700Y-93470000D02*
X135179400Y-93404700D01*
X135179400Y-93404700D02*
X130413200Y-93404700D01*
X130413200Y-93404700D02*
X129605300Y-94212600D01*
X129605300Y-94212600D02*
X129605300Y-94580000D01*
G04 #@! TO.N,Net-(U1-Pad1)*
X157330000Y-123020000D02*
X158455300Y-123020000D01*
X193420000Y-108970000D02*
X192294700Y-108970000D01*
X192294700Y-108970000D02*
X187577800Y-113686900D01*
X187577800Y-113686900D02*
X180406400Y-113686900D01*
X180406400Y-113686900D02*
X179150000Y-114943300D01*
X179150000Y-114943300D02*
X179150000Y-115708100D01*
X179150000Y-115708100D02*
X177937800Y-116920300D01*
X177937800Y-116920300D02*
X170323800Y-116920300D01*
X170323800Y-116920300D02*
X163094000Y-124150100D01*
X163094000Y-124150100D02*
X159390200Y-124150100D01*
X159390200Y-124150100D02*
X158455300Y-123215200D01*
X158455300Y-123215200D02*
X158455300Y-123020000D01*
G04 #@! TO.N,/~SLT3*
X203862400Y-119237700D02*
X198319500Y-119237700D01*
X198319500Y-119237700D02*
X197347800Y-120209400D01*
X197347800Y-120209400D02*
X184883700Y-120209400D01*
X184883700Y-120209400D02*
X184380900Y-120712200D01*
X207544700Y-122920000D02*
X203862400Y-119237700D01*
X211200000Y-102475300D02*
X212853900Y-104129200D01*
X212853900Y-104129200D02*
X212853900Y-110246200D01*
X212853900Y-110246200D02*
X203862400Y-119237700D01*
X211200000Y-101350000D02*
X211200000Y-102475300D01*
X208720000Y-122920000D02*
X207544700Y-122920000D01*
X175340000Y-115330000D02*
X172800000Y-115330000D01*
G04 #@! TO.N,/A14*
X195960000Y-108970000D02*
X194834700Y-108970000D01*
X194834700Y-108970000D02*
X194834700Y-109673300D01*
X194834700Y-109673300D02*
X186379500Y-118128500D01*
X186379500Y-118128500D02*
X184028100Y-118128500D01*
X184028100Y-118128500D02*
X181777100Y-120379500D01*
X181777100Y-120379500D02*
X170721600Y-120379500D01*
X170721600Y-120379500D02*
X168020000Y-123081100D01*
X168020000Y-123081100D02*
X168020000Y-141460000D01*
X150715300Y-101420000D02*
X150715300Y-101612800D01*
X150715300Y-101612800D02*
X151647800Y-102545300D01*
X151647800Y-102545300D02*
X157709300Y-102545300D01*
X157709300Y-102545300D02*
X158480000Y-101774600D01*
X158480000Y-101774600D02*
X158480000Y-101058500D01*
X158480000Y-101058500D02*
X160699000Y-98839500D01*
X160699000Y-98839500D02*
X182112600Y-98839500D01*
X182112600Y-98839500D02*
X190584700Y-90367400D01*
X190584700Y-90367400D02*
X190584700Y-90000000D01*
X149590000Y-101420000D02*
X150715300Y-101420000D01*
X191760000Y-90000000D02*
X190584700Y-90000000D01*
G04 #@! TO.N,/A15*
X197374700Y-108970000D02*
X197374700Y-108688700D01*
X197374700Y-108688700D02*
X196530600Y-107844600D01*
X196530600Y-107844600D02*
X188897100Y-107844600D01*
X188897100Y-107844600D02*
X186196100Y-110545600D01*
X186196100Y-110545600D02*
X181072800Y-110545600D01*
X181072800Y-110545600D02*
X176610000Y-115008400D01*
X176610000Y-115008400D02*
X176610000Y-115732000D01*
X176610000Y-115732000D02*
X175872100Y-116469900D01*
X175872100Y-116469900D02*
X169808300Y-116469900D01*
X169808300Y-116469900D02*
X169663000Y-116324600D01*
X169663000Y-116324600D02*
X163890800Y-116324600D01*
X163890800Y-116324600D02*
X163690000Y-116525400D01*
X163690000Y-116525400D02*
X153394400Y-116525400D01*
X198500000Y-108970000D02*
X197374700Y-108970000D01*
G04 #@! TO.N,/~CS1*
X202454700Y-108970000D02*
X202454700Y-109229700D01*
X202454700Y-109229700D02*
X193051100Y-118633300D01*
X193051100Y-118633300D02*
X184160200Y-118633300D01*
X184160200Y-118633300D02*
X181520800Y-121272700D01*
X181520800Y-121272700D02*
X172879900Y-121272700D01*
X172879900Y-121272700D02*
X171385300Y-122767300D01*
X171385300Y-122767300D02*
X171385300Y-122950000D01*
X170260000Y-122950000D02*
X171385300Y-122950000D01*
X203580000Y-108970000D02*
X202454700Y-108970000D01*
G04 #@! TO.N,Net-(U1-Pad13)*
X163415300Y-101420000D02*
X165442000Y-99393300D01*
X165442000Y-99393300D02*
X198239300Y-99393300D01*
X198239300Y-99393300D02*
X199914700Y-101068700D01*
X199914700Y-101068700D02*
X199914700Y-101350000D01*
X162290000Y-101420000D02*
X163415300Y-101420000D01*
X201040000Y-101350000D02*
X199914700Y-101350000D01*
G04 #@! TO.N,/~CS2*
X204994700Y-108970000D02*
X204994700Y-109147500D01*
X204994700Y-109147500D02*
X194887900Y-119254300D01*
X194887900Y-119254300D02*
X184176100Y-119254300D01*
X184176100Y-119254300D02*
X181605700Y-121824700D01*
X181605700Y-121824700D02*
X174769200Y-121824700D01*
X174769200Y-121824700D02*
X173925300Y-122668600D01*
X173925300Y-122668600D02*
X173925300Y-122950000D01*
X172800000Y-122950000D02*
X173925300Y-122950000D01*
X206120000Y-108970000D02*
X204994700Y-108970000D01*
G04 #@! TO.N,Net-(U1-Pad14)*
X159750000Y-109040000D02*
X160875300Y-109040000D01*
X198500000Y-101350000D02*
X197374700Y-101350000D01*
X197374700Y-101350000D02*
X197374700Y-101068700D01*
X197374700Y-101068700D02*
X196149700Y-99843700D01*
X196149700Y-99843700D02*
X166647600Y-99843700D01*
X166647600Y-99843700D02*
X163967600Y-102523700D01*
X163967600Y-102523700D02*
X163967600Y-108960800D01*
X163967600Y-108960800D02*
X162763100Y-110165300D01*
X162763100Y-110165300D02*
X161719200Y-110165300D01*
X161719200Y-110165300D02*
X160875300Y-109321400D01*
X160875300Y-109321400D02*
X160875300Y-109040000D01*
G04 #@! TO.N,Net-(U1-Pad15)*
X148584700Y-123020000D02*
X148584700Y-122738700D01*
X148584700Y-122738700D02*
X145935000Y-120089000D01*
X145935000Y-120089000D02*
X142599100Y-120089000D01*
X142599100Y-120089000D02*
X140498000Y-117987900D01*
X140498000Y-117987900D02*
X140498000Y-114492200D01*
X140498000Y-114492200D02*
X141535200Y-113455000D01*
X141535200Y-113455000D02*
X177455700Y-113455000D01*
X177455700Y-113455000D02*
X181570000Y-109340700D01*
X181570000Y-109340700D02*
X181570000Y-108586000D01*
X181570000Y-108586000D02*
X183031400Y-107124600D01*
X183031400Y-107124600D02*
X185149900Y-107124600D01*
X185149900Y-107124600D02*
X189981900Y-102292600D01*
X189981900Y-102292600D02*
X192771000Y-102292600D01*
X192771000Y-102292600D02*
X192968300Y-102489900D01*
X192968300Y-102489900D02*
X193976100Y-102489900D01*
X193976100Y-102489900D02*
X194834700Y-101631300D01*
X194834700Y-101631300D02*
X194834700Y-101350000D01*
X149710000Y-123020000D02*
X148584700Y-123020000D01*
X195960000Y-101350000D02*
X194834700Y-101350000D01*
D16*
G04 #@! TO.N,GND*
X175220000Y-101350000D02*
X173980300Y-101350000D01*
X185443000Y-103632200D02*
X177502200Y-103632200D01*
X177502200Y-103632200D02*
X175220000Y-101350000D01*
X172680000Y-101350000D02*
X173980300Y-101350000D01*
X159870000Y-123020000D02*
X155074000Y-118224000D01*
X155074000Y-118224000D02*
X152534000Y-118224000D01*
X152534000Y-118224000D02*
X149710000Y-115400000D01*
X147170000Y-115400000D02*
X148409700Y-115400000D01*
X141630000Y-117520000D02*
X145050000Y-117520000D01*
X145050000Y-117520000D02*
X147170000Y-115400000D01*
X149710000Y-115400000D02*
X148409700Y-115400000D01*
X145160000Y-141460000D02*
X145160000Y-140109700D01*
X141070000Y-129880000D02*
X141070000Y-136019700D01*
X141070000Y-136019700D02*
X145160000Y-140109700D01*
X211200000Y-108970000D02*
X205700000Y-103470000D01*
X205700000Y-103470000D02*
X190420000Y-103470000D01*
X142918700Y-103540000D02*
X156790000Y-103540000D01*
X156790000Y-103540000D02*
X162290000Y-109040000D01*
X186800300Y-122950000D02*
X187961900Y-121788400D01*
X187961900Y-121788400D02*
X188252100Y-121788400D01*
X142918700Y-103540000D02*
X141510000Y-103540000D01*
X142918700Y-103540000D02*
X142918700Y-95698700D01*
X142918700Y-95698700D02*
X141550000Y-94330000D01*
X185500000Y-122950000D02*
X186800300Y-122950000D01*
X145160000Y-141460000D02*
X146349700Y-141460000D01*
X147700000Y-141460000D02*
X146349700Y-141460000D01*
X146040000Y-87460000D02*
X143500000Y-87460000D01*
X172680000Y-101350000D02*
X170560000Y-103470000D01*
X170560000Y-103470000D02*
X167140000Y-103470000D01*
D17*
G04 #@! TO.N,Net-(U2-Pad1)*
X175220000Y-108970000D02*
X174094700Y-108970000D01*
X144510000Y-109040000D02*
X145635300Y-109040000D01*
X145635300Y-109040000D02*
X145635300Y-108758700D01*
X145635300Y-108758700D02*
X146511000Y-107883000D01*
X146511000Y-107883000D02*
X157708100Y-107883000D01*
X157708100Y-107883000D02*
X158480000Y-108654900D01*
X158480000Y-108654900D02*
X158480000Y-109390300D01*
X158480000Y-109390300D02*
X159716300Y-110626600D01*
X159716300Y-110626600D02*
X164700400Y-110626600D01*
X164700400Y-110626600D02*
X167482300Y-107844700D01*
X167482300Y-107844700D02*
X173250800Y-107844700D01*
X173250800Y-107844700D02*
X174094700Y-108688600D01*
X174094700Y-108688600D02*
X174094700Y-108970000D01*
X177760000Y-108970000D02*
X175220000Y-108970000D01*
G04 #@! TO.N,/~MREQ*
X144630000Y-123020000D02*
X134402600Y-123020000D01*
X134402600Y-123020000D02*
X132267900Y-125154700D01*
X132267900Y-125154700D02*
X130413200Y-125154700D01*
X130413200Y-125154700D02*
X129605300Y-125962600D01*
X129605300Y-125962600D02*
X129605300Y-126330000D01*
X128430000Y-126330000D02*
X129605300Y-126330000D01*
G04 #@! TO.N,Net-(U3-Pad8)*
X180300000Y-108970000D02*
X179174700Y-108970000D01*
X160139500Y-112577700D02*
X175848300Y-112577700D01*
X175848300Y-112577700D02*
X179174700Y-109251300D01*
X179174700Y-109251300D02*
X179174700Y-108970000D01*
G04 #@! TO.N,Net-(U3-Pad2)*
X184374700Y-115330000D02*
X184374700Y-115611400D01*
X184374700Y-115611400D02*
X183530800Y-116455300D01*
X183530800Y-116455300D02*
X179294700Y-116455300D01*
X179294700Y-116455300D02*
X177070800Y-118679200D01*
X177070800Y-118679200D02*
X169533200Y-118679200D01*
X169533200Y-118679200D02*
X163612000Y-124600400D01*
X163612000Y-124600400D02*
X149216000Y-124600400D01*
X149216000Y-124600400D02*
X147635600Y-123020000D01*
X147635600Y-123020000D02*
X147170000Y-123020000D01*
X185500000Y-115330000D02*
X184374700Y-115330000D01*
G04 #@! TO.N,/~RD*
X132145300Y-128870000D02*
X132782200Y-128870000D01*
X132782200Y-128870000D02*
X135206500Y-126445700D01*
X135206500Y-126445700D02*
X144708400Y-126445700D01*
X144708400Y-126445700D02*
X145879800Y-127617100D01*
X145879800Y-127617100D02*
X148222100Y-127617100D01*
X183260000Y-146540000D02*
X182084700Y-146540000D01*
X148222100Y-127617100D02*
X161670000Y-141065000D01*
X161670000Y-141065000D02*
X161670000Y-141919900D01*
X161670000Y-141919900D02*
X165114800Y-145364700D01*
X165114800Y-145364700D02*
X181276800Y-145364700D01*
X181276800Y-145364700D02*
X182084700Y-146172600D01*
X182084700Y-146172600D02*
X182084700Y-146540000D01*
X130970000Y-128870000D02*
X132145300Y-128870000D01*
G04 #@! TO.N,/~CS12*
X195960000Y-141460000D02*
X195960000Y-136399300D01*
X195960000Y-136399300D02*
X183636000Y-124075300D01*
X183636000Y-124075300D02*
X182960000Y-124075300D01*
X182960000Y-122950000D02*
X182960000Y-124075300D01*
G04 #@! TO.N,Net-(U4-Pad3)*
X177880000Y-122950000D02*
X180420000Y-122950000D01*
X175340000Y-122950000D02*
X177880000Y-122950000D01*
G04 #@! TO.N,Net-(J3-Pad4)*
X208720000Y-125460000D02*
X198611200Y-125460000D01*
X198611200Y-125460000D02*
X194085900Y-120934700D01*
X194085900Y-120934700D02*
X185606700Y-120934700D01*
G04 #@! TO.N,/~RFSH*
X182960000Y-115330000D02*
X184094100Y-114195900D01*
X184094100Y-114195900D02*
X186011300Y-114195900D01*
X186011300Y-114195900D02*
X186627200Y-114811800D01*
X186627200Y-114811800D02*
X186627200Y-115819700D01*
X186627200Y-115819700D02*
X185389700Y-117057200D01*
X185389700Y-117057200D02*
X181565400Y-117057200D01*
X181565400Y-117057200D02*
X179493100Y-119129500D01*
X179493100Y-119129500D02*
X169838600Y-119129500D01*
X169838600Y-119129500D02*
X163917400Y-125050700D01*
X163917400Y-125050700D02*
X149029400Y-125050700D01*
X149029400Y-125050700D02*
X148957800Y-124979100D01*
X148957800Y-124979100D02*
X147468700Y-124979100D01*
X147468700Y-124979100D02*
X145755400Y-123265800D01*
X145755400Y-123265800D02*
X145755400Y-122066000D01*
X145755400Y-122066000D02*
X145065700Y-121376300D01*
X145065700Y-121376300D02*
X137351600Y-121376300D01*
X137351600Y-121376300D02*
X132145300Y-116170000D01*
X182960000Y-115330000D02*
X180420000Y-115330000D01*
X130970000Y-116170000D02*
X132145300Y-116170000D01*
G04 #@! TO.N,/~RESET*
X128430000Y-122614700D02*
X128797400Y-122614700D01*
X128797400Y-122614700D02*
X129605300Y-121806800D01*
X129605300Y-121806800D02*
X129605300Y-115807800D01*
X129605300Y-115807800D02*
X130418500Y-114994600D01*
X130418500Y-114994600D02*
X138290100Y-114994600D01*
X138290100Y-114994600D02*
X141293600Y-111991100D01*
X141293600Y-111991100D02*
X150323700Y-111991100D01*
X150323700Y-111991100D02*
X150614400Y-111700400D01*
X150614400Y-111700400D02*
X167972300Y-111700400D01*
X167972300Y-111700400D02*
X170702700Y-108970000D01*
X128430000Y-123790000D02*
X128430000Y-122614700D01*
X170702700Y-108970000D02*
X171265300Y-108970000D01*
X170140000Y-108970000D02*
X170702700Y-108970000D01*
X171265300Y-108970000D02*
X171265300Y-109251300D01*
X171265300Y-109251300D02*
X172746300Y-110732300D01*
X172746300Y-110732300D02*
X173925400Y-110732300D01*
G04 #@! TO.N,/D1*
X140636700Y-97985000D02*
X140636700Y-98473800D01*
X140636700Y-98473800D02*
X136895100Y-102215400D01*
X136895100Y-102215400D02*
X136135100Y-102215400D01*
X136135100Y-102215400D02*
X126792200Y-111558300D01*
X126792200Y-111558300D02*
X126792200Y-129567900D01*
X126792200Y-129567900D02*
X127779500Y-130555200D01*
X127779500Y-130555200D02*
X132771200Y-130555200D01*
X132771200Y-130555200D02*
X135973000Y-127353400D01*
X135973000Y-127353400D02*
X143753400Y-127353400D01*
X143753400Y-127353400D02*
X157860000Y-141460000D01*
G04 #@! TO.N,/D4*
X157564700Y-90000000D02*
X157564700Y-89632600D01*
X157564700Y-89632600D02*
X156756800Y-88824700D01*
X156756800Y-88824700D02*
X155814500Y-88824700D01*
X155814500Y-88824700D02*
X154930000Y-87940200D01*
X154930000Y-87940200D02*
X154930000Y-87008900D01*
X154930000Y-87008900D02*
X154177400Y-86256300D01*
X154177400Y-86256300D02*
X134924700Y-86256300D01*
X134924700Y-86256300D02*
X132856400Y-88324600D01*
X132856400Y-88324600D02*
X130444400Y-88324600D01*
X130444400Y-88324600D02*
X129682100Y-89086900D01*
X129682100Y-89086900D02*
X129682100Y-89939800D01*
X129682100Y-89939800D02*
X128851900Y-90770000D01*
X128851900Y-90770000D02*
X128036800Y-90770000D01*
X128036800Y-90770000D02*
X125891600Y-92915200D01*
X125891600Y-92915200D02*
X125891600Y-129941100D01*
X125891600Y-129941100D02*
X127406300Y-131455800D01*
X127406300Y-131455800D02*
X133638500Y-131455800D01*
X133638500Y-131455800D02*
X136837400Y-128256900D01*
X136837400Y-128256900D02*
X142189800Y-128256900D01*
X142189800Y-128256900D02*
X153955300Y-140022400D01*
X153955300Y-140022400D02*
X153955300Y-144189400D01*
X153955300Y-144189400D02*
X152780000Y-145364700D01*
X152780000Y-146540000D02*
X152780000Y-145364700D01*
X158740000Y-90000000D02*
X157564700Y-90000000D01*
G04 #@! TO.N,/D5*
X157564700Y-87460000D02*
X157564700Y-87092700D01*
X157564700Y-87092700D02*
X156251800Y-85779800D01*
X156251800Y-85779800D02*
X127946300Y-85779800D01*
X127946300Y-85779800D02*
X125441300Y-88284800D01*
X125441300Y-88284800D02*
X125441300Y-130127700D01*
X125441300Y-130127700D02*
X127219700Y-131906100D01*
X127219700Y-131906100D02*
X133932300Y-131906100D01*
X133932300Y-131906100D02*
X137083800Y-128754600D01*
X137083800Y-128754600D02*
X142016800Y-128754600D01*
X142016800Y-128754600D02*
X152780000Y-139517800D01*
X152780000Y-139517800D02*
X152780000Y-140284700D01*
X158740000Y-87460000D02*
X157564700Y-87460000D01*
X152780000Y-141460000D02*
X152780000Y-140284700D01*
G04 #@! TO.N,/D6*
X161280000Y-88824700D02*
X161647300Y-88824700D01*
X161647300Y-88824700D02*
X162460100Y-88011900D01*
X162460100Y-88011900D02*
X162460100Y-86933000D01*
X162460100Y-86933000D02*
X160367300Y-84840200D01*
X160367300Y-84840200D02*
X127524900Y-84840200D01*
X127524900Y-84840200D02*
X124540700Y-87824400D01*
X124540700Y-87824400D02*
X124540700Y-130500900D01*
X124540700Y-130500900D02*
X139404500Y-145364700D01*
X139404500Y-145364700D02*
X148256800Y-145364700D01*
X148256800Y-145364700D02*
X149064700Y-146172600D01*
X149064700Y-146172600D02*
X149064700Y-146540000D01*
X150240000Y-146540000D02*
X149064700Y-146540000D01*
X161280000Y-90000000D02*
X161280000Y-88824700D01*
G04 #@! TO.N,/D7*
X160104700Y-87460000D02*
X160104700Y-87092700D01*
X160104700Y-87092700D02*
X158320900Y-85308900D01*
X158320900Y-85308900D02*
X127780300Y-85308900D01*
X127780300Y-85308900D02*
X124991000Y-88098200D01*
X124991000Y-88098200D02*
X124991000Y-130314300D01*
X124991000Y-130314300D02*
X127033100Y-132356400D01*
X127033100Y-132356400D02*
X130107800Y-132356400D01*
X130107800Y-132356400D02*
X138809300Y-141057900D01*
X138809300Y-141057900D02*
X138809300Y-141945300D01*
X138809300Y-141945300D02*
X139499300Y-142635300D01*
X139499300Y-142635300D02*
X148256800Y-142635300D01*
X148256800Y-142635300D02*
X149064700Y-141827400D01*
X149064700Y-141827400D02*
X149064700Y-141460000D01*
X150240000Y-141460000D02*
X149064700Y-141460000D01*
X161280000Y-87460000D02*
X160104700Y-87460000D01*
G04 #@! TO.N,/A4*
X177884700Y-90000000D02*
X177884700Y-90367300D01*
X177884700Y-90367300D02*
X176989300Y-91262700D01*
X176989300Y-91262700D02*
X132671400Y-91262700D01*
X132671400Y-91262700D02*
X132273300Y-90864600D01*
X132273300Y-90864600D02*
X130444400Y-90864600D01*
X130444400Y-90864600D02*
X129666600Y-91642400D01*
X129666600Y-91642400D02*
X129666600Y-92487600D01*
X129666600Y-92487600D02*
X128844200Y-93310000D01*
X128844200Y-93310000D02*
X127950000Y-93310000D01*
X127950000Y-93310000D02*
X126341900Y-94918100D01*
X126341900Y-94918100D02*
X126341900Y-129754500D01*
X126341900Y-129754500D02*
X127592900Y-131005500D01*
X127592900Y-131005500D02*
X132957800Y-131005500D01*
X132957800Y-131005500D02*
X136156700Y-127806600D01*
X136156700Y-127806600D02*
X143349600Y-127806600D01*
X143349600Y-127806600D02*
X156590000Y-141047000D01*
X156590000Y-141047000D02*
X156590000Y-141922000D01*
X156590000Y-141922000D02*
X160032700Y-145364700D01*
X160032700Y-145364700D02*
X160400000Y-145364700D01*
X160400000Y-146540000D02*
X160400000Y-145364700D01*
X179060000Y-90000000D02*
X177884700Y-90000000D01*
G04 #@! TO.N,/A7*
X195030000Y-87019300D02*
X193814200Y-85803500D01*
X193814200Y-85803500D02*
X184064500Y-85803500D01*
X184064500Y-85803500D02*
X182775300Y-87092700D01*
X182775300Y-87092700D02*
X182775300Y-87460000D01*
X181600000Y-87460000D02*
X182775300Y-87460000D01*
X173100000Y-141460000D02*
X174275300Y-141460000D01*
X195048800Y-136513900D02*
X178854100Y-136513900D01*
X178854100Y-136513900D02*
X174275300Y-141092700D01*
X174275300Y-141092700D02*
X174275300Y-141460000D01*
G04 #@! TO.N,/A11*
X186680000Y-87460000D02*
X187855300Y-87460000D01*
X187855300Y-87460000D02*
X187855300Y-87092700D01*
X187855300Y-87092700D02*
X188694100Y-86253900D01*
X188694100Y-86253900D02*
X192245400Y-86253900D01*
X192245400Y-86253900D02*
X204705400Y-98713900D01*
X204705400Y-98713900D02*
X204705400Y-101591000D01*
X204705400Y-101591000D02*
X205589800Y-102475400D01*
X205589800Y-102475400D02*
X206391100Y-102475400D01*
X206391100Y-102475400D02*
X212364100Y-108448400D01*
X212364100Y-108448400D02*
X212364100Y-109401600D01*
X212364100Y-109401600D02*
X205500500Y-116265200D01*
X205500500Y-116265200D02*
X198644600Y-116265200D01*
X198644600Y-116265200D02*
X195150700Y-119759100D01*
X195150700Y-119759100D02*
X184308200Y-119759100D01*
X184308200Y-119759100D02*
X181763900Y-122303400D01*
X181763900Y-122303400D02*
X181763900Y-126366100D01*
X181763900Y-126366100D02*
X169371200Y-138758800D01*
X169371200Y-138758800D02*
X169371200Y-141937200D01*
X169371200Y-141937200D02*
X170069300Y-142635300D01*
X170069300Y-142635300D02*
X174464700Y-142635300D01*
X174464700Y-142635300D02*
X175640000Y-141460000D01*
G04 #@! TO.N,/A12*
X171735300Y-141460000D02*
X171735300Y-141092700D01*
X171735300Y-141092700D02*
X178662900Y-134165100D01*
X178662900Y-134165100D02*
X190308300Y-134165100D01*
X170560000Y-141460000D02*
X171735300Y-141460000D01*
X189220000Y-90000000D02*
X190400400Y-88819600D01*
X190400400Y-88819600D02*
X192290000Y-88819600D01*
X192290000Y-88819600D02*
X193294000Y-89823600D01*
X193294000Y-89823600D02*
X193294000Y-90068600D01*
G04 #@! TO.N,/~WR*
X183260000Y-141460000D02*
X182084700Y-141460000D01*
X128430000Y-128870000D02*
X129605300Y-128870000D01*
X129605300Y-128870000D02*
X129605300Y-128061900D01*
X129605300Y-128061900D02*
X129972500Y-127694700D01*
X129972500Y-127694700D02*
X133320600Y-127694700D01*
X133320600Y-127694700D02*
X135044700Y-125970600D01*
X135044700Y-125970600D02*
X144870200Y-125970600D01*
X144870200Y-125970600D02*
X145342100Y-126442500D01*
X145342100Y-126442500D02*
X148285200Y-126442500D01*
X148285200Y-126442500D02*
X161714400Y-139871700D01*
X161714400Y-139871700D02*
X163021400Y-139871700D01*
X163021400Y-139871700D02*
X164210000Y-141060300D01*
X164210000Y-141060300D02*
X164210000Y-141852500D01*
X164210000Y-141852500D02*
X165905300Y-143547800D01*
X165905300Y-143547800D02*
X180364200Y-143547800D01*
X180364200Y-143547800D02*
X182084700Y-141827300D01*
X182084700Y-141827300D02*
X182084700Y-141460000D01*
G04 #@! TO.N,/~IORQ*
X184624700Y-141460000D02*
X184624700Y-141092600D01*
X184624700Y-141092600D02*
X183816800Y-140284700D01*
X183816800Y-140284700D02*
X180181900Y-140284700D01*
X180181900Y-140284700D02*
X179450000Y-141016600D01*
X179450000Y-141016600D02*
X179450000Y-141930600D01*
X179450000Y-141930600D02*
X178295000Y-143085600D01*
X178295000Y-143085600D02*
X167920500Y-143085600D01*
X167920500Y-143085600D02*
X166750000Y-141915100D01*
X166750000Y-141915100D02*
X166750000Y-141029500D01*
X166750000Y-141029500D02*
X152050500Y-126330000D01*
X152050500Y-126330000D02*
X149034900Y-126330000D01*
X149034900Y-126330000D02*
X148650500Y-125945600D01*
X148650500Y-125945600D02*
X145878900Y-125945600D01*
X145878900Y-125945600D02*
X145422000Y-125488700D01*
X145422000Y-125488700D02*
X132986600Y-125488700D01*
X132986600Y-125488700D02*
X132145300Y-126330000D01*
X185800000Y-141460000D02*
X184624700Y-141460000D01*
X130970000Y-126330000D02*
X132145300Y-126330000D01*
G04 #@! TO.N,/~M1*
X145138500Y-143797900D02*
X149167500Y-143797900D01*
X149167500Y-143797900D02*
X151510000Y-146140400D01*
X151510000Y-146140400D02*
X151510000Y-147026400D01*
X151510000Y-147026400D02*
X152683000Y-148199400D01*
X152683000Y-148199400D02*
X185816100Y-148199400D01*
X185816100Y-148199400D02*
X187070000Y-146945500D01*
X187070000Y-146945500D02*
X187070000Y-146056200D01*
X187070000Y-146056200D02*
X190285900Y-142840300D01*
X190285900Y-142840300D02*
X191240300Y-142840300D01*
X191240300Y-142840300D02*
X192093100Y-141987500D01*
X192093100Y-141987500D02*
X192093100Y-140958900D01*
X192093100Y-140958900D02*
X191397600Y-140263400D01*
X191397600Y-140263400D02*
X189536600Y-140263400D01*
X189536600Y-140263400D02*
X188340000Y-141460000D01*
G04 #@! TO.N,/~INT*
X192296000Y-111180900D02*
X185853300Y-117623600D01*
X185853300Y-117623600D02*
X182009200Y-117623600D01*
X182009200Y-117623600D02*
X179827900Y-119804900D01*
X179827900Y-119804900D02*
X170318300Y-119804900D01*
X170318300Y-119804900D02*
X164619600Y-125503600D01*
X164619600Y-125503600D02*
X148845400Y-125503600D01*
X148845400Y-125503600D02*
X148771200Y-125429400D01*
X148771200Y-125429400D02*
X146239700Y-125429400D01*
X146239700Y-125429400D02*
X145179800Y-124369500D01*
X145179800Y-124369500D02*
X134078900Y-124369500D01*
G04 #@! TO.N,/~WAIT*
X128430000Y-117345300D02*
X128121100Y-117345300D01*
X128121100Y-117345300D02*
X127242500Y-118223900D01*
X127242500Y-118223900D02*
X127242500Y-129381300D01*
X127242500Y-129381300D02*
X127909800Y-130048600D01*
X127909800Y-130048600D02*
X132294900Y-130048600D01*
X132294900Y-130048600D02*
X135447500Y-126896000D01*
X135447500Y-126896000D02*
X144296500Y-126896000D01*
X144296500Y-126896000D02*
X157290000Y-139889500D01*
X157290000Y-139889500D02*
X157980100Y-139889500D01*
X157980100Y-139889500D02*
X159224600Y-141134000D01*
X159224600Y-141134000D02*
X159224600Y-142044200D01*
X159224600Y-142044200D02*
X162482700Y-145302300D01*
X162482700Y-145302300D02*
X163447100Y-145302300D01*
X163447100Y-145302300D02*
X164210000Y-146065200D01*
X164210000Y-146065200D02*
X164210000Y-146995900D01*
X164210000Y-146995900D02*
X164933700Y-147719600D01*
X164933700Y-147719600D02*
X183747900Y-147719600D01*
X183747900Y-147719600D02*
X184530000Y-146937500D01*
X184530000Y-146937500D02*
X184530000Y-146145300D01*
X184530000Y-146145300D02*
X188040000Y-142635300D01*
X188040000Y-142635300D02*
X188896800Y-142635300D01*
X188896800Y-142635300D02*
X189704700Y-141827400D01*
X189704700Y-141827400D02*
X189704700Y-141460000D01*
X190880000Y-141460000D02*
X189704700Y-141460000D01*
X128430000Y-116170000D02*
X128430000Y-117345300D01*
G04 #@! TO.N,/~INT-S*
X190880000Y-146540000D02*
X192055300Y-146540000D01*
X199820000Y-120430000D02*
X200995300Y-120430000D01*
X200995300Y-120430000D02*
X204755300Y-124190000D01*
X204755300Y-124190000D02*
X209114900Y-124190000D01*
X209114900Y-124190000D02*
X209908700Y-124983800D01*
X209908700Y-124983800D02*
X209908700Y-128524700D01*
X209908700Y-128524700D02*
X200107700Y-138325700D01*
X200107700Y-138325700D02*
X199388200Y-138325700D01*
X199388200Y-138325700D02*
X197324600Y-140389300D01*
X197324600Y-140389300D02*
X197324600Y-141793100D01*
X197324600Y-141793100D02*
X193753000Y-145364700D01*
X193753000Y-145364700D02*
X192863200Y-145364700D01*
X192863200Y-145364700D02*
X192055300Y-146172600D01*
X192055300Y-146172600D02*
X192055300Y-146540000D01*
G04 #@! TO.N,Net-(JP1-Pad3)*
X180300000Y-101350000D02*
X182840000Y-101350000D01*
G04 #@! TD*
D18*
G04 #@! TO.N,GND*
G36*
X216290001Y-152290000D02*
X117710000Y-152290000D01*
X117710000Y-148055431D01*
X120265000Y-148055431D01*
X120265000Y-148944569D01*
X120605259Y-149766026D01*
X121233974Y-150394741D01*
X122055431Y-150735000D01*
X122944569Y-150735000D01*
X123766026Y-150394741D01*
X124394741Y-149766026D01*
X124735000Y-148944569D01*
X124735000Y-148055431D01*
X124394741Y-147233974D01*
X123766026Y-146605259D01*
X122944569Y-146265000D01*
X122055431Y-146265000D01*
X121233974Y-146605259D01*
X120605259Y-147233974D01*
X120265000Y-148055431D01*
X117710000Y-148055431D01*
X117710000Y-87824400D01*
X123765812Y-87824400D01*
X123780700Y-87899247D01*
X123780701Y-130426048D01*
X123765812Y-130500900D01*
X123824797Y-130797437D01*
X123940987Y-130971327D01*
X123992772Y-131048829D01*
X124056228Y-131091229D01*
X138102867Y-145137869D01*
X137686256Y-145055000D01*
X137393744Y-145055000D01*
X136960582Y-145141161D01*
X136469375Y-145469375D01*
X136141161Y-145960582D01*
X136025908Y-146540000D01*
X136141161Y-147119418D01*
X136469375Y-147610625D01*
X136960582Y-147938839D01*
X137393744Y-148025000D01*
X137686256Y-148025000D01*
X138119418Y-147938839D01*
X138610625Y-147610625D01*
X138810000Y-147312239D01*
X139009375Y-147610625D01*
X139500582Y-147938839D01*
X139933744Y-148025000D01*
X140226256Y-148025000D01*
X140659418Y-147938839D01*
X141150625Y-147610625D01*
X141350000Y-147312239D01*
X141549375Y-147610625D01*
X142040582Y-147938839D01*
X142473744Y-148025000D01*
X142766256Y-148025000D01*
X143199418Y-147938839D01*
X143690625Y-147610625D01*
X143890000Y-147312239D01*
X144089375Y-147610625D01*
X144580582Y-147938839D01*
X145013744Y-148025000D01*
X145306256Y-148025000D01*
X145739418Y-147938839D01*
X146230625Y-147610625D01*
X146430000Y-147312239D01*
X146629375Y-147610625D01*
X147120582Y-147938839D01*
X147553744Y-148025000D01*
X147846256Y-148025000D01*
X148279418Y-147938839D01*
X148770625Y-147610625D01*
X148970000Y-147312239D01*
X149169375Y-147610625D01*
X149660582Y-147938839D01*
X150093744Y-148025000D01*
X150386256Y-148025000D01*
X150819418Y-147938839D01*
X151136063Y-147727264D01*
X152092671Y-148683873D01*
X152135071Y-148747329D01*
X152386463Y-148915304D01*
X152608148Y-148959400D01*
X152608152Y-148959400D01*
X152683000Y-148974288D01*
X152757848Y-148959400D01*
X185741253Y-148959400D01*
X185816100Y-148974288D01*
X185890947Y-148959400D01*
X185890952Y-148959400D01*
X186112637Y-148915304D01*
X186364029Y-148747329D01*
X186406431Y-148683870D01*
X187034870Y-148055431D01*
X209265000Y-148055431D01*
X209265000Y-148944569D01*
X209605259Y-149766026D01*
X210233974Y-150394741D01*
X211055431Y-150735000D01*
X211944569Y-150735000D01*
X212766026Y-150394741D01*
X213394741Y-149766026D01*
X213735000Y-148944569D01*
X213735000Y-148055431D01*
X213394741Y-147233974D01*
X212766026Y-146605259D01*
X211944569Y-146265000D01*
X211055431Y-146265000D01*
X210233974Y-146605259D01*
X209605259Y-147233974D01*
X209265000Y-148055431D01*
X187034870Y-148055431D01*
X187395442Y-147694860D01*
X187760582Y-147938839D01*
X188193744Y-148025000D01*
X188486256Y-148025000D01*
X188919418Y-147938839D01*
X189410625Y-147610625D01*
X189610000Y-147312239D01*
X189809375Y-147610625D01*
X190300582Y-147938839D01*
X190733744Y-148025000D01*
X191026256Y-148025000D01*
X191459418Y-147938839D01*
X191950625Y-147610625D01*
X192150000Y-147312239D01*
X192349375Y-147610625D01*
X192840582Y-147938839D01*
X193273744Y-148025000D01*
X193566256Y-148025000D01*
X193999418Y-147938839D01*
X194490625Y-147610625D01*
X194690000Y-147312239D01*
X194889375Y-147610625D01*
X195380582Y-147938839D01*
X195813744Y-148025000D01*
X196106256Y-148025000D01*
X196539418Y-147938839D01*
X197030625Y-147610625D01*
X197230000Y-147312239D01*
X197429375Y-147610625D01*
X197920582Y-147938839D01*
X198353744Y-148025000D01*
X198646256Y-148025000D01*
X199079418Y-147938839D01*
X199570625Y-147610625D01*
X199898839Y-147119418D01*
X200014092Y-146540000D01*
X199898839Y-145960582D01*
X199570625Y-145469375D01*
X199079418Y-145141161D01*
X198646256Y-145055000D01*
X198353744Y-145055000D01*
X197920582Y-145141161D01*
X197429375Y-145469375D01*
X197230000Y-145767761D01*
X197030625Y-145469375D01*
X196539418Y-145141161D01*
X196106256Y-145055000D01*
X195813744Y-145055000D01*
X195380582Y-145141161D01*
X194889375Y-145469375D01*
X194690000Y-145767761D01*
X194583752Y-145608749D01*
X197331565Y-142860937D01*
X197402235Y-142908157D01*
X197650000Y-142957440D01*
X199350000Y-142957440D01*
X199597765Y-142908157D01*
X199807809Y-142767809D01*
X199948157Y-142557765D01*
X199997440Y-142310000D01*
X199997440Y-140610000D01*
X199948157Y-140362235D01*
X199807809Y-140152191D01*
X199597765Y-140011843D01*
X199350000Y-139962560D01*
X198826141Y-139962560D01*
X199703002Y-139085700D01*
X200032853Y-139085700D01*
X200107700Y-139100588D01*
X200182547Y-139085700D01*
X200182552Y-139085700D01*
X200404237Y-139041604D01*
X200655629Y-138873629D01*
X200698031Y-138810170D01*
X210393173Y-129115029D01*
X210456629Y-129072629D01*
X210624604Y-128821237D01*
X210668700Y-128599552D01*
X210668700Y-128599548D01*
X210683588Y-128524701D01*
X210668700Y-128449854D01*
X210668700Y-125058648D01*
X210683588Y-124983800D01*
X210668700Y-124908952D01*
X210668700Y-124908948D01*
X210627138Y-124700000D01*
X210624604Y-124687262D01*
X210499029Y-124499327D01*
X210456629Y-124435871D01*
X210393173Y-124393471D01*
X209870614Y-123870913D01*
X210118839Y-123499418D01*
X210234092Y-122920000D01*
X210118839Y-122340582D01*
X209790625Y-121849375D01*
X209492239Y-121650000D01*
X209790625Y-121450625D01*
X210118839Y-120959418D01*
X210234092Y-120380000D01*
X210118839Y-119800582D01*
X209790625Y-119309375D01*
X209772381Y-119297184D01*
X209817765Y-119288157D01*
X210027809Y-119147809D01*
X210168157Y-118937765D01*
X210217440Y-118690000D01*
X210217440Y-116990000D01*
X210168157Y-116742235D01*
X210027809Y-116532191D01*
X209817765Y-116391843D01*
X209570000Y-116342560D01*
X207870000Y-116342560D01*
X207822991Y-116351911D01*
X213338373Y-110836529D01*
X213401829Y-110794129D01*
X213569804Y-110542737D01*
X213613900Y-110321052D01*
X213613900Y-110321048D01*
X213628788Y-110246201D01*
X213613900Y-110171354D01*
X213613900Y-104204048D01*
X213628788Y-104129200D01*
X213613900Y-104054352D01*
X213613900Y-104054348D01*
X213569804Y-103832663D01*
X213569804Y-103832662D01*
X213444229Y-103644727D01*
X213401829Y-103581271D01*
X213338373Y-103538871D01*
X212204305Y-102404804D01*
X212234577Y-102384577D01*
X212551740Y-101909909D01*
X212663113Y-101350000D01*
X212551740Y-100790091D01*
X212234577Y-100315423D01*
X211759909Y-99998260D01*
X211341333Y-99915000D01*
X211058667Y-99915000D01*
X210640091Y-99998260D01*
X210165423Y-100315423D01*
X209930000Y-100667758D01*
X209694577Y-100315423D01*
X209219909Y-99998260D01*
X208801333Y-99915000D01*
X208518667Y-99915000D01*
X208100091Y-99998260D01*
X207625423Y-100315423D01*
X207390000Y-100667758D01*
X207154577Y-100315423D01*
X206679909Y-99998260D01*
X206261333Y-99915000D01*
X205978667Y-99915000D01*
X205560091Y-99998260D01*
X205465400Y-100061530D01*
X205465400Y-98788747D01*
X205480288Y-98713900D01*
X205465400Y-98639053D01*
X205465400Y-98639048D01*
X205421304Y-98417363D01*
X205253329Y-98165971D01*
X205189873Y-98123571D01*
X195120601Y-88054300D01*
X195235874Y-88054300D01*
X195616280Y-87896731D01*
X195907431Y-87605580D01*
X196065000Y-87225174D01*
X196065000Y-86813426D01*
X195907431Y-86433020D01*
X195616280Y-86141869D01*
X195235874Y-85984300D01*
X195069802Y-85984300D01*
X194404531Y-85319030D01*
X194362129Y-85255571D01*
X194110737Y-85087596D01*
X193889052Y-85043500D01*
X193889047Y-85043500D01*
X193814200Y-85028612D01*
X193739353Y-85043500D01*
X184139346Y-85043500D01*
X184064499Y-85028612D01*
X183989652Y-85043500D01*
X183989648Y-85043500D01*
X183767963Y-85087596D01*
X183516571Y-85255571D01*
X183474171Y-85319027D01*
X182510689Y-86282509D01*
X182179418Y-86061161D01*
X181746256Y-85975000D01*
X181453744Y-85975000D01*
X181020582Y-86061161D01*
X180529375Y-86389375D01*
X180330000Y-86687761D01*
X180130625Y-86389375D01*
X179639418Y-86061161D01*
X179206256Y-85975000D01*
X178913744Y-85975000D01*
X178480582Y-86061161D01*
X177989375Y-86389375D01*
X177790000Y-86687761D01*
X177590625Y-86389375D01*
X177099418Y-86061161D01*
X176666256Y-85975000D01*
X176373744Y-85975000D01*
X175940582Y-86061161D01*
X175449375Y-86389375D01*
X175250000Y-86687761D01*
X175050625Y-86389375D01*
X174559418Y-86061161D01*
X174126256Y-85975000D01*
X173833744Y-85975000D01*
X173400582Y-86061161D01*
X172909375Y-86389375D01*
X172710000Y-86687761D01*
X172510625Y-86389375D01*
X172019418Y-86061161D01*
X171586256Y-85975000D01*
X171293744Y-85975000D01*
X170860582Y-86061161D01*
X170369375Y-86389375D01*
X170170000Y-86687761D01*
X169970625Y-86389375D01*
X169479418Y-86061161D01*
X169046256Y-85975000D01*
X168753744Y-85975000D01*
X168320582Y-86061161D01*
X167829375Y-86389375D01*
X167630000Y-86687761D01*
X167430625Y-86389375D01*
X166939418Y-86061161D01*
X166506256Y-85975000D01*
X166213744Y-85975000D01*
X165780582Y-86061161D01*
X165289375Y-86389375D01*
X165090000Y-86687761D01*
X164890625Y-86389375D01*
X164399418Y-86061161D01*
X163966256Y-85975000D01*
X163673744Y-85975000D01*
X163240582Y-86061161D01*
X162894385Y-86292483D01*
X160957631Y-84355730D01*
X160915229Y-84292271D01*
X160663837Y-84124296D01*
X160442152Y-84080200D01*
X160442147Y-84080200D01*
X160367300Y-84065312D01*
X160292453Y-84080200D01*
X127599746Y-84080200D01*
X127524899Y-84065312D01*
X127450052Y-84080200D01*
X127450048Y-84080200D01*
X127228363Y-84124296D01*
X126976971Y-84292271D01*
X126934571Y-84355727D01*
X124056230Y-87234069D01*
X123992771Y-87276471D01*
X123824796Y-87527864D01*
X123780700Y-87749549D01*
X123780700Y-87749553D01*
X123765812Y-87824400D01*
X117710000Y-87824400D01*
X117710000Y-82055431D01*
X120265000Y-82055431D01*
X120265000Y-82944569D01*
X120605259Y-83766026D01*
X121233974Y-84394741D01*
X122055431Y-84735000D01*
X122944569Y-84735000D01*
X123766026Y-84394741D01*
X124394741Y-83766026D01*
X124735000Y-82944569D01*
X124735000Y-82055431D01*
X209265000Y-82055431D01*
X209265000Y-82944569D01*
X209605259Y-83766026D01*
X210233974Y-84394741D01*
X211055431Y-84735000D01*
X211944569Y-84735000D01*
X212766026Y-84394741D01*
X213394741Y-83766026D01*
X213735000Y-82944569D01*
X213735000Y-82055431D01*
X213394741Y-81233974D01*
X212766026Y-80605259D01*
X211944569Y-80265000D01*
X211055431Y-80265000D01*
X210233974Y-80605259D01*
X209605259Y-81233974D01*
X209265000Y-82055431D01*
X124735000Y-82055431D01*
X124394741Y-81233974D01*
X123766026Y-80605259D01*
X122944569Y-80265000D01*
X122055431Y-80265000D01*
X121233974Y-80605259D01*
X120605259Y-81233974D01*
X120265000Y-82055431D01*
X117710000Y-82055431D01*
X117710000Y-78710000D01*
X216290000Y-78710000D01*
X216290001Y-152290000D01*
X216290001Y-152290000D01*
G37*
X216290001Y-152290000D02*
X117710000Y-152290000D01*
X117710000Y-148055431D01*
X120265000Y-148055431D01*
X120265000Y-148944569D01*
X120605259Y-149766026D01*
X121233974Y-150394741D01*
X122055431Y-150735000D01*
X122944569Y-150735000D01*
X123766026Y-150394741D01*
X124394741Y-149766026D01*
X124735000Y-148944569D01*
X124735000Y-148055431D01*
X124394741Y-147233974D01*
X123766026Y-146605259D01*
X122944569Y-146265000D01*
X122055431Y-146265000D01*
X121233974Y-146605259D01*
X120605259Y-147233974D01*
X120265000Y-148055431D01*
X117710000Y-148055431D01*
X117710000Y-87824400D01*
X123765812Y-87824400D01*
X123780700Y-87899247D01*
X123780701Y-130426048D01*
X123765812Y-130500900D01*
X123824797Y-130797437D01*
X123940987Y-130971327D01*
X123992772Y-131048829D01*
X124056228Y-131091229D01*
X138102867Y-145137869D01*
X137686256Y-145055000D01*
X137393744Y-145055000D01*
X136960582Y-145141161D01*
X136469375Y-145469375D01*
X136141161Y-145960582D01*
X136025908Y-146540000D01*
X136141161Y-147119418D01*
X136469375Y-147610625D01*
X136960582Y-147938839D01*
X137393744Y-148025000D01*
X137686256Y-148025000D01*
X138119418Y-147938839D01*
X138610625Y-147610625D01*
X138810000Y-147312239D01*
X139009375Y-147610625D01*
X139500582Y-147938839D01*
X139933744Y-148025000D01*
X140226256Y-148025000D01*
X140659418Y-147938839D01*
X141150625Y-147610625D01*
X141350000Y-147312239D01*
X141549375Y-147610625D01*
X142040582Y-147938839D01*
X142473744Y-148025000D01*
X142766256Y-148025000D01*
X143199418Y-147938839D01*
X143690625Y-147610625D01*
X143890000Y-147312239D01*
X144089375Y-147610625D01*
X144580582Y-147938839D01*
X145013744Y-148025000D01*
X145306256Y-148025000D01*
X145739418Y-147938839D01*
X146230625Y-147610625D01*
X146430000Y-147312239D01*
X146629375Y-147610625D01*
X147120582Y-147938839D01*
X147553744Y-148025000D01*
X147846256Y-148025000D01*
X148279418Y-147938839D01*
X148770625Y-147610625D01*
X148970000Y-147312239D01*
X149169375Y-147610625D01*
X149660582Y-147938839D01*
X150093744Y-148025000D01*
X150386256Y-148025000D01*
X150819418Y-147938839D01*
X151136063Y-147727264D01*
X152092671Y-148683873D01*
X152135071Y-148747329D01*
X152386463Y-148915304D01*
X152608148Y-148959400D01*
X152608152Y-148959400D01*
X152683000Y-148974288D01*
X152757848Y-148959400D01*
X185741253Y-148959400D01*
X185816100Y-148974288D01*
X185890947Y-148959400D01*
X185890952Y-148959400D01*
X186112637Y-148915304D01*
X186364029Y-148747329D01*
X186406431Y-148683870D01*
X187034870Y-148055431D01*
X209265000Y-148055431D01*
X209265000Y-148944569D01*
X209605259Y-149766026D01*
X210233974Y-150394741D01*
X211055431Y-150735000D01*
X211944569Y-150735000D01*
X212766026Y-150394741D01*
X213394741Y-149766026D01*
X213735000Y-148944569D01*
X213735000Y-148055431D01*
X213394741Y-147233974D01*
X212766026Y-146605259D01*
X211944569Y-146265000D01*
X211055431Y-146265000D01*
X210233974Y-146605259D01*
X209605259Y-147233974D01*
X209265000Y-148055431D01*
X187034870Y-148055431D01*
X187395442Y-147694860D01*
X187760582Y-147938839D01*
X188193744Y-148025000D01*
X188486256Y-148025000D01*
X188919418Y-147938839D01*
X189410625Y-147610625D01*
X189610000Y-147312239D01*
X189809375Y-147610625D01*
X190300582Y-147938839D01*
X190733744Y-148025000D01*
X191026256Y-148025000D01*
X191459418Y-147938839D01*
X191950625Y-147610625D01*
X192150000Y-147312239D01*
X192349375Y-147610625D01*
X192840582Y-147938839D01*
X193273744Y-148025000D01*
X193566256Y-148025000D01*
X193999418Y-147938839D01*
X194490625Y-147610625D01*
X194690000Y-147312239D01*
X194889375Y-147610625D01*
X195380582Y-147938839D01*
X195813744Y-148025000D01*
X196106256Y-148025000D01*
X196539418Y-147938839D01*
X197030625Y-147610625D01*
X197230000Y-147312239D01*
X197429375Y-147610625D01*
X197920582Y-147938839D01*
X198353744Y-148025000D01*
X198646256Y-148025000D01*
X199079418Y-147938839D01*
X199570625Y-147610625D01*
X199898839Y-147119418D01*
X200014092Y-146540000D01*
X199898839Y-145960582D01*
X199570625Y-145469375D01*
X199079418Y-145141161D01*
X198646256Y-145055000D01*
X198353744Y-145055000D01*
X197920582Y-145141161D01*
X197429375Y-145469375D01*
X197230000Y-145767761D01*
X197030625Y-145469375D01*
X196539418Y-145141161D01*
X196106256Y-145055000D01*
X195813744Y-145055000D01*
X195380582Y-145141161D01*
X194889375Y-145469375D01*
X194690000Y-145767761D01*
X194583752Y-145608749D01*
X197331565Y-142860937D01*
X197402235Y-142908157D01*
X197650000Y-142957440D01*
X199350000Y-142957440D01*
X199597765Y-142908157D01*
X199807809Y-142767809D01*
X199948157Y-142557765D01*
X199997440Y-142310000D01*
X199997440Y-140610000D01*
X199948157Y-140362235D01*
X199807809Y-140152191D01*
X199597765Y-140011843D01*
X199350000Y-139962560D01*
X198826141Y-139962560D01*
X199703002Y-139085700D01*
X200032853Y-139085700D01*
X200107700Y-139100588D01*
X200182547Y-139085700D01*
X200182552Y-139085700D01*
X200404237Y-139041604D01*
X200655629Y-138873629D01*
X200698031Y-138810170D01*
X210393173Y-129115029D01*
X210456629Y-129072629D01*
X210624604Y-128821237D01*
X210668700Y-128599552D01*
X210668700Y-128599548D01*
X210683588Y-128524701D01*
X210668700Y-128449854D01*
X210668700Y-125058648D01*
X210683588Y-124983800D01*
X210668700Y-124908952D01*
X210668700Y-124908948D01*
X210627138Y-124700000D01*
X210624604Y-124687262D01*
X210499029Y-124499327D01*
X210456629Y-124435871D01*
X210393173Y-124393471D01*
X209870614Y-123870913D01*
X210118839Y-123499418D01*
X210234092Y-122920000D01*
X210118839Y-122340582D01*
X209790625Y-121849375D01*
X209492239Y-121650000D01*
X209790625Y-121450625D01*
X210118839Y-120959418D01*
X210234092Y-120380000D01*
X210118839Y-119800582D01*
X209790625Y-119309375D01*
X209772381Y-119297184D01*
X209817765Y-119288157D01*
X210027809Y-119147809D01*
X210168157Y-118937765D01*
X210217440Y-118690000D01*
X210217440Y-116990000D01*
X210168157Y-116742235D01*
X210027809Y-116532191D01*
X209817765Y-116391843D01*
X209570000Y-116342560D01*
X207870000Y-116342560D01*
X207822991Y-116351911D01*
X213338373Y-110836529D01*
X213401829Y-110794129D01*
X213569804Y-110542737D01*
X213613900Y-110321052D01*
X213613900Y-110321048D01*
X213628788Y-110246201D01*
X213613900Y-110171354D01*
X213613900Y-104204048D01*
X213628788Y-104129200D01*
X213613900Y-104054352D01*
X213613900Y-104054348D01*
X213569804Y-103832663D01*
X213569804Y-103832662D01*
X213444229Y-103644727D01*
X213401829Y-103581271D01*
X213338373Y-103538871D01*
X212204305Y-102404804D01*
X212234577Y-102384577D01*
X212551740Y-101909909D01*
X212663113Y-101350000D01*
X212551740Y-100790091D01*
X212234577Y-100315423D01*
X211759909Y-99998260D01*
X211341333Y-99915000D01*
X211058667Y-99915000D01*
X210640091Y-99998260D01*
X210165423Y-100315423D01*
X209930000Y-100667758D01*
X209694577Y-100315423D01*
X209219909Y-99998260D01*
X208801333Y-99915000D01*
X208518667Y-99915000D01*
X208100091Y-99998260D01*
X207625423Y-100315423D01*
X207390000Y-100667758D01*
X207154577Y-100315423D01*
X206679909Y-99998260D01*
X206261333Y-99915000D01*
X205978667Y-99915000D01*
X205560091Y-99998260D01*
X205465400Y-100061530D01*
X205465400Y-98788747D01*
X205480288Y-98713900D01*
X205465400Y-98639053D01*
X205465400Y-98639048D01*
X205421304Y-98417363D01*
X205253329Y-98165971D01*
X205189873Y-98123571D01*
X195120601Y-88054300D01*
X195235874Y-88054300D01*
X195616280Y-87896731D01*
X195907431Y-87605580D01*
X196065000Y-87225174D01*
X196065000Y-86813426D01*
X195907431Y-86433020D01*
X195616280Y-86141869D01*
X195235874Y-85984300D01*
X195069802Y-85984300D01*
X194404531Y-85319030D01*
X194362129Y-85255571D01*
X194110737Y-85087596D01*
X193889052Y-85043500D01*
X193889047Y-85043500D01*
X193814200Y-85028612D01*
X193739353Y-85043500D01*
X184139346Y-85043500D01*
X184064499Y-85028612D01*
X183989652Y-85043500D01*
X183989648Y-85043500D01*
X183767963Y-85087596D01*
X183516571Y-85255571D01*
X183474171Y-85319027D01*
X182510689Y-86282509D01*
X182179418Y-86061161D01*
X181746256Y-85975000D01*
X181453744Y-85975000D01*
X181020582Y-86061161D01*
X180529375Y-86389375D01*
X180330000Y-86687761D01*
X180130625Y-86389375D01*
X179639418Y-86061161D01*
X179206256Y-85975000D01*
X178913744Y-85975000D01*
X178480582Y-86061161D01*
X177989375Y-86389375D01*
X177790000Y-86687761D01*
X177590625Y-86389375D01*
X177099418Y-86061161D01*
X176666256Y-85975000D01*
X176373744Y-85975000D01*
X175940582Y-86061161D01*
X175449375Y-86389375D01*
X175250000Y-86687761D01*
X175050625Y-86389375D01*
X174559418Y-86061161D01*
X174126256Y-85975000D01*
X173833744Y-85975000D01*
X173400582Y-86061161D01*
X172909375Y-86389375D01*
X172710000Y-86687761D01*
X172510625Y-86389375D01*
X172019418Y-86061161D01*
X171586256Y-85975000D01*
X171293744Y-85975000D01*
X170860582Y-86061161D01*
X170369375Y-86389375D01*
X170170000Y-86687761D01*
X169970625Y-86389375D01*
X169479418Y-86061161D01*
X169046256Y-85975000D01*
X168753744Y-85975000D01*
X168320582Y-86061161D01*
X167829375Y-86389375D01*
X167630000Y-86687761D01*
X167430625Y-86389375D01*
X166939418Y-86061161D01*
X166506256Y-85975000D01*
X166213744Y-85975000D01*
X165780582Y-86061161D01*
X165289375Y-86389375D01*
X165090000Y-86687761D01*
X164890625Y-86389375D01*
X164399418Y-86061161D01*
X163966256Y-85975000D01*
X163673744Y-85975000D01*
X163240582Y-86061161D01*
X162894385Y-86292483D01*
X160957631Y-84355730D01*
X160915229Y-84292271D01*
X160663837Y-84124296D01*
X160442152Y-84080200D01*
X160442147Y-84080200D01*
X160367300Y-84065312D01*
X160292453Y-84080200D01*
X127599746Y-84080200D01*
X127524899Y-84065312D01*
X127450052Y-84080200D01*
X127450048Y-84080200D01*
X127228363Y-84124296D01*
X126976971Y-84292271D01*
X126934571Y-84355727D01*
X124056230Y-87234069D01*
X123992771Y-87276471D01*
X123824796Y-87527864D01*
X123780700Y-87749549D01*
X123780700Y-87749553D01*
X123765812Y-87824400D01*
X117710000Y-87824400D01*
X117710000Y-82055431D01*
X120265000Y-82055431D01*
X120265000Y-82944569D01*
X120605259Y-83766026D01*
X121233974Y-84394741D01*
X122055431Y-84735000D01*
X122944569Y-84735000D01*
X123766026Y-84394741D01*
X124394741Y-83766026D01*
X124735000Y-82944569D01*
X124735000Y-82055431D01*
X209265000Y-82055431D01*
X209265000Y-82944569D01*
X209605259Y-83766026D01*
X210233974Y-84394741D01*
X211055431Y-84735000D01*
X211944569Y-84735000D01*
X212766026Y-84394741D01*
X213394741Y-83766026D01*
X213735000Y-82944569D01*
X213735000Y-82055431D01*
X213394741Y-81233974D01*
X212766026Y-80605259D01*
X211944569Y-80265000D01*
X211055431Y-80265000D01*
X210233974Y-80605259D01*
X209605259Y-81233974D01*
X209265000Y-82055431D01*
X124735000Y-82055431D01*
X124394741Y-81233974D01*
X123766026Y-80605259D01*
X122944569Y-80265000D01*
X122055431Y-80265000D01*
X121233974Y-80605259D01*
X120605259Y-81233974D01*
X120265000Y-82055431D01*
X117710000Y-82055431D01*
X117710000Y-78710000D01*
X216290000Y-78710000D01*
X216290001Y-152290000D01*
G36*
X141197000Y-129753000D02*
X141217000Y-129753000D01*
X141217000Y-130007000D01*
X141197000Y-130007000D01*
X141197000Y-131156250D01*
X141355750Y-131315000D01*
X141996309Y-131315000D01*
X142229698Y-131218327D01*
X142408327Y-131039699D01*
X142505000Y-130806310D01*
X142505000Y-130317601D01*
X152020000Y-139832603D01*
X152020000Y-140181822D01*
X151709375Y-140389375D01*
X151510000Y-140687761D01*
X151310625Y-140389375D01*
X150819418Y-140061161D01*
X150386256Y-139975000D01*
X150093744Y-139975000D01*
X149660582Y-140061161D01*
X149169375Y-140389375D01*
X148957526Y-140706429D01*
X148955394Y-140706853D01*
X148895183Y-140578642D01*
X148466924Y-140188355D01*
X148056890Y-140018524D01*
X147827000Y-140139845D01*
X147827000Y-141333000D01*
X147847000Y-141333000D01*
X147847000Y-141587000D01*
X147827000Y-141587000D01*
X147827000Y-141607000D01*
X147573000Y-141607000D01*
X147573000Y-141587000D01*
X145287000Y-141587000D01*
X145287000Y-141607000D01*
X145033000Y-141607000D01*
X145033000Y-141587000D01*
X145013000Y-141587000D01*
X145013000Y-141333000D01*
X145033000Y-141333000D01*
X145033000Y-140139845D01*
X145287000Y-140139845D01*
X145287000Y-141333000D01*
X147573000Y-141333000D01*
X147573000Y-140139845D01*
X147343110Y-140018524D01*
X146933076Y-140188355D01*
X146504817Y-140578642D01*
X146430000Y-140737954D01*
X146355183Y-140578642D01*
X145926924Y-140188355D01*
X145516890Y-140018524D01*
X145287000Y-140139845D01*
X145033000Y-140139845D01*
X144803110Y-140018524D01*
X144393076Y-140188355D01*
X143964817Y-140578642D01*
X143903843Y-140708478D01*
X143690625Y-140389375D01*
X143199418Y-140061161D01*
X142766256Y-139975000D01*
X142473744Y-139975000D01*
X142040582Y-140061161D01*
X141549375Y-140389375D01*
X141458753Y-140525000D01*
X141241247Y-140525000D01*
X141150625Y-140389375D01*
X141015000Y-140298753D01*
X141015000Y-140201780D01*
X141033316Y-140109699D01*
X141015000Y-140017618D01*
X141015000Y-140017614D01*
X140960750Y-139744881D01*
X140754097Y-139435603D01*
X140676031Y-139383441D01*
X139505000Y-138212411D01*
X139505000Y-130974396D01*
X139646155Y-130833241D01*
X139731673Y-131039699D01*
X139910302Y-131218327D01*
X140143691Y-131315000D01*
X140784250Y-131315000D01*
X140943000Y-131156250D01*
X140943000Y-130007000D01*
X140923000Y-130007000D01*
X140923000Y-129753000D01*
X140943000Y-129753000D01*
X140943000Y-129733000D01*
X141197000Y-129733000D01*
X141197000Y-129753000D01*
X141197000Y-129753000D01*
G37*
X141197000Y-129753000D02*
X141217000Y-129753000D01*
X141217000Y-130007000D01*
X141197000Y-130007000D01*
X141197000Y-131156250D01*
X141355750Y-131315000D01*
X141996309Y-131315000D01*
X142229698Y-131218327D01*
X142408327Y-131039699D01*
X142505000Y-130806310D01*
X142505000Y-130317601D01*
X152020000Y-139832603D01*
X152020000Y-140181822D01*
X151709375Y-140389375D01*
X151510000Y-140687761D01*
X151310625Y-140389375D01*
X150819418Y-140061161D01*
X150386256Y-139975000D01*
X150093744Y-139975000D01*
X149660582Y-140061161D01*
X149169375Y-140389375D01*
X148957526Y-140706429D01*
X148955394Y-140706853D01*
X148895183Y-140578642D01*
X148466924Y-140188355D01*
X148056890Y-140018524D01*
X147827000Y-140139845D01*
X147827000Y-141333000D01*
X147847000Y-141333000D01*
X147847000Y-141587000D01*
X147827000Y-141587000D01*
X147827000Y-141607000D01*
X147573000Y-141607000D01*
X147573000Y-141587000D01*
X145287000Y-141587000D01*
X145287000Y-141607000D01*
X145033000Y-141607000D01*
X145033000Y-141587000D01*
X145013000Y-141587000D01*
X145013000Y-141333000D01*
X145033000Y-141333000D01*
X145033000Y-140139845D01*
X145287000Y-140139845D01*
X145287000Y-141333000D01*
X147573000Y-141333000D01*
X147573000Y-140139845D01*
X147343110Y-140018524D01*
X146933076Y-140188355D01*
X146504817Y-140578642D01*
X146430000Y-140737954D01*
X146355183Y-140578642D01*
X145926924Y-140188355D01*
X145516890Y-140018524D01*
X145287000Y-140139845D01*
X145033000Y-140139845D01*
X144803110Y-140018524D01*
X144393076Y-140188355D01*
X143964817Y-140578642D01*
X143903843Y-140708478D01*
X143690625Y-140389375D01*
X143199418Y-140061161D01*
X142766256Y-139975000D01*
X142473744Y-139975000D01*
X142040582Y-140061161D01*
X141549375Y-140389375D01*
X141458753Y-140525000D01*
X141241247Y-140525000D01*
X141150625Y-140389375D01*
X141015000Y-140298753D01*
X141015000Y-140201780D01*
X141033316Y-140109699D01*
X141015000Y-140017618D01*
X141015000Y-140017614D01*
X140960750Y-139744881D01*
X140754097Y-139435603D01*
X140676031Y-139383441D01*
X139505000Y-138212411D01*
X139505000Y-130974396D01*
X139646155Y-130833241D01*
X139731673Y-131039699D01*
X139910302Y-131218327D01*
X140143691Y-131315000D01*
X140784250Y-131315000D01*
X140943000Y-131156250D01*
X140943000Y-130007000D01*
X140923000Y-130007000D01*
X140923000Y-129753000D01*
X140943000Y-129753000D01*
X140943000Y-129733000D01*
X141197000Y-129733000D01*
X141197000Y-129753000D01*
G36*
X198020871Y-125944473D02*
X198063271Y-126007929D01*
X198314663Y-126175904D01*
X198536348Y-126220000D01*
X198536352Y-126220000D01*
X198611200Y-126234888D01*
X198686048Y-126220000D01*
X207441822Y-126220000D01*
X207649375Y-126530625D01*
X207947761Y-126730000D01*
X207649375Y-126929375D01*
X207321161Y-127420582D01*
X207205908Y-128000000D01*
X207321161Y-128579418D01*
X207649375Y-129070625D01*
X208032187Y-129326412D01*
X199792899Y-137565700D01*
X199463046Y-137565700D01*
X199388199Y-137550812D01*
X199313352Y-137565700D01*
X199313348Y-137565700D01*
X199091663Y-137609796D01*
X198840271Y-137777771D01*
X198797871Y-137841227D01*
X196840130Y-139798969D01*
X196776671Y-139841371D01*
X196720000Y-139926185D01*
X196720000Y-136474147D01*
X196734888Y-136399300D01*
X196720000Y-136324453D01*
X196720000Y-136324448D01*
X196675904Y-136102763D01*
X196507929Y-135851371D01*
X196444473Y-135808971D01*
X184854697Y-124219196D01*
X185150961Y-124341904D01*
X185373000Y-124219915D01*
X185373000Y-123077000D01*
X185627000Y-123077000D01*
X185627000Y-124219915D01*
X185849039Y-124341904D01*
X186237423Y-124181041D01*
X186652389Y-123805134D01*
X186891914Y-123299041D01*
X186770629Y-123077000D01*
X185627000Y-123077000D01*
X185373000Y-123077000D01*
X185353000Y-123077000D01*
X185353000Y-122823000D01*
X185373000Y-122823000D01*
X185373000Y-122803000D01*
X185627000Y-122803000D01*
X185627000Y-122823000D01*
X186770629Y-122823000D01*
X186891914Y-122600959D01*
X186652389Y-122094866D01*
X186262991Y-121742120D01*
X186310411Y-121694700D01*
X193771099Y-121694700D01*
X198020871Y-125944473D01*
X198020871Y-125944473D01*
G37*
X198020871Y-125944473D02*
X198063271Y-126007929D01*
X198314663Y-126175904D01*
X198536348Y-126220000D01*
X198536352Y-126220000D01*
X198611200Y-126234888D01*
X198686048Y-126220000D01*
X207441822Y-126220000D01*
X207649375Y-126530625D01*
X207947761Y-126730000D01*
X207649375Y-126929375D01*
X207321161Y-127420582D01*
X207205908Y-128000000D01*
X207321161Y-128579418D01*
X207649375Y-129070625D01*
X208032187Y-129326412D01*
X199792899Y-137565700D01*
X199463046Y-137565700D01*
X199388199Y-137550812D01*
X199313352Y-137565700D01*
X199313348Y-137565700D01*
X199091663Y-137609796D01*
X198840271Y-137777771D01*
X198797871Y-137841227D01*
X196840130Y-139798969D01*
X196776671Y-139841371D01*
X196720000Y-139926185D01*
X196720000Y-136474147D01*
X196734888Y-136399300D01*
X196720000Y-136324453D01*
X196720000Y-136324448D01*
X196675904Y-136102763D01*
X196507929Y-135851371D01*
X196444473Y-135808971D01*
X184854697Y-124219196D01*
X185150961Y-124341904D01*
X185373000Y-124219915D01*
X185373000Y-123077000D01*
X185627000Y-123077000D01*
X185627000Y-124219915D01*
X185849039Y-124341904D01*
X186237423Y-124181041D01*
X186652389Y-123805134D01*
X186891914Y-123299041D01*
X186770629Y-123077000D01*
X185627000Y-123077000D01*
X185373000Y-123077000D01*
X185353000Y-123077000D01*
X185353000Y-122823000D01*
X185373000Y-122823000D01*
X185373000Y-122803000D01*
X185627000Y-122803000D01*
X185627000Y-122823000D01*
X186770629Y-122823000D01*
X186891914Y-122600959D01*
X186652389Y-122094866D01*
X186262991Y-121742120D01*
X186310411Y-121694700D01*
X193771099Y-121694700D01*
X198020871Y-125944473D01*
G36*
X147297000Y-115273000D02*
X149583000Y-115273000D01*
X149583000Y-115253000D01*
X149837000Y-115253000D01*
X149837000Y-115273000D01*
X149857000Y-115273000D01*
X149857000Y-115527000D01*
X149837000Y-115527000D01*
X149837000Y-116669915D01*
X150059039Y-116791904D01*
X150447423Y-116631041D01*
X150862389Y-116255134D01*
X150959053Y-116050892D01*
X151215423Y-116434577D01*
X151690091Y-116751740D01*
X152108667Y-116835000D01*
X152391333Y-116835000D01*
X152401525Y-116832973D01*
X152516969Y-117111680D01*
X152808120Y-117402831D01*
X153188526Y-117560400D01*
X153600274Y-117560400D01*
X153980680Y-117402831D01*
X154098111Y-117285400D01*
X163615153Y-117285400D01*
X163690000Y-117300288D01*
X163764847Y-117285400D01*
X163764852Y-117285400D01*
X163986537Y-117241304D01*
X164221061Y-117084600D01*
X165866456Y-117084600D01*
X165813035Y-117233223D01*
X165840222Y-117803454D01*
X166006136Y-118204005D01*
X166252255Y-118278139D01*
X167080395Y-117450000D01*
X167066253Y-117435858D01*
X167245858Y-117256253D01*
X167260000Y-117270395D01*
X167274143Y-117256253D01*
X167453748Y-117435858D01*
X167439605Y-117450000D01*
X167453748Y-117464142D01*
X167274142Y-117643748D01*
X167260000Y-117629605D01*
X166431861Y-118457745D01*
X166505995Y-118703864D01*
X167043223Y-118896965D01*
X167283804Y-118885495D01*
X162779199Y-123390100D01*
X161251947Y-123390100D01*
X161261914Y-123369041D01*
X161140629Y-123147000D01*
X159997000Y-123147000D01*
X159997000Y-123167000D01*
X159743000Y-123167000D01*
X159743000Y-123147000D01*
X159723000Y-123147000D01*
X159723000Y-122893000D01*
X159743000Y-122893000D01*
X159743000Y-121750085D01*
X159997000Y-121750085D01*
X159997000Y-122893000D01*
X161140629Y-122893000D01*
X161261914Y-122670959D01*
X161022389Y-122164866D01*
X160607423Y-121788959D01*
X160219039Y-121628096D01*
X159997000Y-121750085D01*
X159743000Y-121750085D01*
X159520961Y-121628096D01*
X159132577Y-121788959D01*
X158717611Y-122164866D01*
X158660330Y-122285894D01*
X158550786Y-122264104D01*
X158364577Y-121985423D01*
X157889909Y-121668260D01*
X157471333Y-121585000D01*
X157188667Y-121585000D01*
X156770091Y-121668260D01*
X156295423Y-121985423D01*
X156060000Y-122337758D01*
X155824577Y-121985423D01*
X155349909Y-121668260D01*
X154931333Y-121585000D01*
X154648667Y-121585000D01*
X154230091Y-121668260D01*
X153755423Y-121985423D01*
X153520000Y-122337758D01*
X153284577Y-121985423D01*
X152809909Y-121668260D01*
X152391333Y-121585000D01*
X152108667Y-121585000D01*
X151690091Y-121668260D01*
X151215423Y-121985423D01*
X150980000Y-122337758D01*
X150744577Y-121985423D01*
X150269909Y-121668260D01*
X149851333Y-121585000D01*
X149568667Y-121585000D01*
X149150091Y-121668260D01*
X148813779Y-121892977D01*
X146525331Y-119604530D01*
X146482929Y-119541071D01*
X146231537Y-119373096D01*
X146009852Y-119329000D01*
X146009847Y-119329000D01*
X145935000Y-119314112D01*
X145860153Y-119329000D01*
X142913902Y-119329000D01*
X142366158Y-118781256D01*
X142384005Y-118773864D01*
X142458139Y-118527745D01*
X141630000Y-117699605D01*
X141615858Y-117713748D01*
X141436253Y-117534143D01*
X141450395Y-117520000D01*
X141809605Y-117520000D01*
X142637745Y-118348139D01*
X142883864Y-118274005D01*
X143076965Y-117736777D01*
X143049778Y-117166546D01*
X142883864Y-116765995D01*
X142637745Y-116691861D01*
X141809605Y-117520000D01*
X141450395Y-117520000D01*
X141436253Y-117505858D01*
X141615858Y-117326253D01*
X141630000Y-117340395D01*
X142458139Y-116512255D01*
X142384005Y-116266136D01*
X142377254Y-116263710D01*
X142442862Y-116236534D01*
X142635454Y-116043942D01*
X142655603Y-116074097D01*
X142941609Y-116265200D01*
X142964881Y-116280750D01*
X143329699Y-116353317D01*
X143421785Y-116335000D01*
X143528888Y-116335000D01*
X143595423Y-116434577D01*
X144070091Y-116751740D01*
X144488667Y-116835000D01*
X144771333Y-116835000D01*
X145189909Y-116751740D01*
X145664577Y-116434577D01*
X145920947Y-116050892D01*
X146017611Y-116255134D01*
X146432577Y-116631041D01*
X146820961Y-116791904D01*
X147043000Y-116669915D01*
X147043000Y-115527000D01*
X147297000Y-115527000D01*
X147297000Y-116669915D01*
X147519039Y-116791904D01*
X147907423Y-116631041D01*
X148322389Y-116255134D01*
X148440000Y-116006633D01*
X148557611Y-116255134D01*
X148972577Y-116631041D01*
X149360961Y-116791904D01*
X149583000Y-116669915D01*
X149583000Y-115527000D01*
X147297000Y-115527000D01*
X147043000Y-115527000D01*
X147023000Y-115527000D01*
X147023000Y-115273000D01*
X147043000Y-115273000D01*
X147043000Y-115253000D01*
X147297000Y-115253000D01*
X147297000Y-115273000D01*
X147297000Y-115273000D01*
G37*
X147297000Y-115273000D02*
X149583000Y-115273000D01*
X149583000Y-115253000D01*
X149837000Y-115253000D01*
X149837000Y-115273000D01*
X149857000Y-115273000D01*
X149857000Y-115527000D01*
X149837000Y-115527000D01*
X149837000Y-116669915D01*
X150059039Y-116791904D01*
X150447423Y-116631041D01*
X150862389Y-116255134D01*
X150959053Y-116050892D01*
X151215423Y-116434577D01*
X151690091Y-116751740D01*
X152108667Y-116835000D01*
X152391333Y-116835000D01*
X152401525Y-116832973D01*
X152516969Y-117111680D01*
X152808120Y-117402831D01*
X153188526Y-117560400D01*
X153600274Y-117560400D01*
X153980680Y-117402831D01*
X154098111Y-117285400D01*
X163615153Y-117285400D01*
X163690000Y-117300288D01*
X163764847Y-117285400D01*
X163764852Y-117285400D01*
X163986537Y-117241304D01*
X164221061Y-117084600D01*
X165866456Y-117084600D01*
X165813035Y-117233223D01*
X165840222Y-117803454D01*
X166006136Y-118204005D01*
X166252255Y-118278139D01*
X167080395Y-117450000D01*
X167066253Y-117435858D01*
X167245858Y-117256253D01*
X167260000Y-117270395D01*
X167274143Y-117256253D01*
X167453748Y-117435858D01*
X167439605Y-117450000D01*
X167453748Y-117464142D01*
X167274142Y-117643748D01*
X167260000Y-117629605D01*
X166431861Y-118457745D01*
X166505995Y-118703864D01*
X167043223Y-118896965D01*
X167283804Y-118885495D01*
X162779199Y-123390100D01*
X161251947Y-123390100D01*
X161261914Y-123369041D01*
X161140629Y-123147000D01*
X159997000Y-123147000D01*
X159997000Y-123167000D01*
X159743000Y-123167000D01*
X159743000Y-123147000D01*
X159723000Y-123147000D01*
X159723000Y-122893000D01*
X159743000Y-122893000D01*
X159743000Y-121750085D01*
X159997000Y-121750085D01*
X159997000Y-122893000D01*
X161140629Y-122893000D01*
X161261914Y-122670959D01*
X161022389Y-122164866D01*
X160607423Y-121788959D01*
X160219039Y-121628096D01*
X159997000Y-121750085D01*
X159743000Y-121750085D01*
X159520961Y-121628096D01*
X159132577Y-121788959D01*
X158717611Y-122164866D01*
X158660330Y-122285894D01*
X158550786Y-122264104D01*
X158364577Y-121985423D01*
X157889909Y-121668260D01*
X157471333Y-121585000D01*
X157188667Y-121585000D01*
X156770091Y-121668260D01*
X156295423Y-121985423D01*
X156060000Y-122337758D01*
X155824577Y-121985423D01*
X155349909Y-121668260D01*
X154931333Y-121585000D01*
X154648667Y-121585000D01*
X154230091Y-121668260D01*
X153755423Y-121985423D01*
X153520000Y-122337758D01*
X153284577Y-121985423D01*
X152809909Y-121668260D01*
X152391333Y-121585000D01*
X152108667Y-121585000D01*
X151690091Y-121668260D01*
X151215423Y-121985423D01*
X150980000Y-122337758D01*
X150744577Y-121985423D01*
X150269909Y-121668260D01*
X149851333Y-121585000D01*
X149568667Y-121585000D01*
X149150091Y-121668260D01*
X148813779Y-121892977D01*
X146525331Y-119604530D01*
X146482929Y-119541071D01*
X146231537Y-119373096D01*
X146009852Y-119329000D01*
X146009847Y-119329000D01*
X145935000Y-119314112D01*
X145860153Y-119329000D01*
X142913902Y-119329000D01*
X142366158Y-118781256D01*
X142384005Y-118773864D01*
X142458139Y-118527745D01*
X141630000Y-117699605D01*
X141615858Y-117713748D01*
X141436253Y-117534143D01*
X141450395Y-117520000D01*
X141809605Y-117520000D01*
X142637745Y-118348139D01*
X142883864Y-118274005D01*
X143076965Y-117736777D01*
X143049778Y-117166546D01*
X142883864Y-116765995D01*
X142637745Y-116691861D01*
X141809605Y-117520000D01*
X141450395Y-117520000D01*
X141436253Y-117505858D01*
X141615858Y-117326253D01*
X141630000Y-117340395D01*
X142458139Y-116512255D01*
X142384005Y-116266136D01*
X142377254Y-116263710D01*
X142442862Y-116236534D01*
X142635454Y-116043942D01*
X142655603Y-116074097D01*
X142941609Y-116265200D01*
X142964881Y-116280750D01*
X143329699Y-116353317D01*
X143421785Y-116335000D01*
X143528888Y-116335000D01*
X143595423Y-116434577D01*
X144070091Y-116751740D01*
X144488667Y-116835000D01*
X144771333Y-116835000D01*
X145189909Y-116751740D01*
X145664577Y-116434577D01*
X145920947Y-116050892D01*
X146017611Y-116255134D01*
X146432577Y-116631041D01*
X146820961Y-116791904D01*
X147043000Y-116669915D01*
X147043000Y-115527000D01*
X147297000Y-115527000D01*
X147297000Y-116669915D01*
X147519039Y-116791904D01*
X147907423Y-116631041D01*
X148322389Y-116255134D01*
X148440000Y-116006633D01*
X148557611Y-116255134D01*
X148972577Y-116631041D01*
X149360961Y-116791904D01*
X149583000Y-116669915D01*
X149583000Y-115527000D01*
X147297000Y-115527000D01*
X147043000Y-115527000D01*
X147023000Y-115527000D01*
X147023000Y-115273000D01*
X147043000Y-115273000D01*
X147043000Y-115253000D01*
X147297000Y-115253000D01*
X147297000Y-115273000D01*
G36*
X140115000Y-94044250D02*
X140273750Y-94203000D01*
X141423000Y-94203000D01*
X141423000Y-94183000D01*
X141677000Y-94183000D01*
X141677000Y-94203000D01*
X142826250Y-94203000D01*
X142985000Y-94044250D01*
X142985000Y-93941600D01*
X143576799Y-93941600D01*
X149620198Y-99985000D01*
X149448667Y-99985000D01*
X149030091Y-100068260D01*
X148555423Y-100385423D01*
X148320000Y-100737758D01*
X148084577Y-100385423D01*
X147609909Y-100068260D01*
X147191333Y-99985000D01*
X146908667Y-99985000D01*
X146490091Y-100068260D01*
X146015423Y-100385423D01*
X145780000Y-100737758D01*
X145544577Y-100385423D01*
X145069909Y-100068260D01*
X144651333Y-99985000D01*
X144368667Y-99985000D01*
X143950091Y-100068260D01*
X143475423Y-100385423D01*
X143158260Y-100860091D01*
X143046887Y-101420000D01*
X143158260Y-101979909D01*
X143475423Y-102454577D01*
X143950091Y-102771740D01*
X144368667Y-102855000D01*
X144651333Y-102855000D01*
X145069909Y-102771740D01*
X145544577Y-102454577D01*
X145780000Y-102102242D01*
X146015423Y-102454577D01*
X146490091Y-102771740D01*
X146908667Y-102855000D01*
X147191333Y-102855000D01*
X147609909Y-102771740D01*
X148084577Y-102454577D01*
X148320000Y-102102242D01*
X148555423Y-102454577D01*
X149030091Y-102771740D01*
X149448667Y-102855000D01*
X149731333Y-102855000D01*
X150149909Y-102771740D01*
X150539274Y-102511575D01*
X151057471Y-103029773D01*
X151099871Y-103093229D01*
X151351263Y-103261204D01*
X151572948Y-103305300D01*
X151572952Y-103305300D01*
X151647799Y-103320188D01*
X151722646Y-103305300D01*
X157634453Y-103305300D01*
X157709300Y-103320188D01*
X157784147Y-103305300D01*
X157784152Y-103305300D01*
X158005837Y-103261204D01*
X158257229Y-103093229D01*
X158299631Y-103029771D01*
X158810978Y-102518425D01*
X159190091Y-102771740D01*
X159608667Y-102855000D01*
X159891333Y-102855000D01*
X160309909Y-102771740D01*
X160784577Y-102454577D01*
X161020000Y-102102242D01*
X161255423Y-102454577D01*
X161730091Y-102771740D01*
X162148667Y-102855000D01*
X162431333Y-102855000D01*
X162849909Y-102771740D01*
X163196046Y-102540459D01*
X163207600Y-102598547D01*
X163207601Y-107972177D01*
X163027423Y-107808959D01*
X162639039Y-107648096D01*
X162417000Y-107770085D01*
X162417000Y-108913000D01*
X162437000Y-108913000D01*
X162437000Y-109167000D01*
X162417000Y-109167000D01*
X162417000Y-109187000D01*
X162163000Y-109187000D01*
X162163000Y-109167000D01*
X162143000Y-109167000D01*
X162143000Y-108913000D01*
X162163000Y-108913000D01*
X162163000Y-107770085D01*
X161940961Y-107648096D01*
X161552577Y-107808959D01*
X161137611Y-108184866D01*
X161080330Y-108305894D01*
X160970786Y-108284104D01*
X160784577Y-108005423D01*
X160309909Y-107688260D01*
X159891333Y-107605000D01*
X159608667Y-107605000D01*
X159190091Y-107688260D01*
X158829261Y-107929359D01*
X158298431Y-107398529D01*
X158256029Y-107335071D01*
X158004637Y-107167096D01*
X157782952Y-107123000D01*
X157782947Y-107123000D01*
X157708100Y-107108112D01*
X157633253Y-107123000D01*
X146585848Y-107123000D01*
X146511000Y-107108112D01*
X146436152Y-107123000D01*
X146436148Y-107123000D01*
X146262605Y-107157520D01*
X146214462Y-107167096D01*
X146083847Y-107254371D01*
X145963071Y-107335071D01*
X145920671Y-107398527D01*
X145629454Y-107689744D01*
X145557765Y-107641843D01*
X145310000Y-107592560D01*
X143710000Y-107592560D01*
X143462235Y-107641843D01*
X143252191Y-107782191D01*
X143111843Y-107992235D01*
X143062560Y-108240000D01*
X143062560Y-108685158D01*
X138925147Y-104547745D01*
X140681861Y-104547745D01*
X140755995Y-104793864D01*
X141293223Y-104986965D01*
X141863454Y-104959778D01*
X142264005Y-104793864D01*
X142338139Y-104547745D01*
X141510000Y-103719605D01*
X140681861Y-104547745D01*
X138925147Y-104547745D01*
X138255300Y-103877899D01*
X138255300Y-103704852D01*
X138270189Y-103630000D01*
X138211204Y-103333463D01*
X138204362Y-103323223D01*
X140063035Y-103323223D01*
X140090222Y-103893454D01*
X140256136Y-104294005D01*
X140502255Y-104368139D01*
X141330395Y-103540000D01*
X141689605Y-103540000D01*
X142517745Y-104368139D01*
X142763864Y-104294005D01*
X142956965Y-103756777D01*
X142929778Y-103186546D01*
X142763864Y-102785995D01*
X142517745Y-102711861D01*
X141689605Y-103540000D01*
X141330395Y-103540000D01*
X140502255Y-102711861D01*
X140256136Y-102785995D01*
X140063035Y-103323223D01*
X138204362Y-103323223D01*
X138043229Y-103082071D01*
X137791837Y-102914096D01*
X137590786Y-102874104D01*
X137479899Y-102708150D01*
X137485431Y-102699870D01*
X140615000Y-99570302D01*
X140615000Y-99905604D01*
X140293466Y-100227138D01*
X140075000Y-100754561D01*
X140075000Y-101325439D01*
X140293466Y-101852862D01*
X140697138Y-102256534D01*
X140762299Y-102283525D01*
X140755995Y-102286136D01*
X140681861Y-102532255D01*
X141510000Y-103360395D01*
X142338139Y-102532255D01*
X142264005Y-102286136D01*
X142257254Y-102283710D01*
X142322862Y-102256534D01*
X142726534Y-101852862D01*
X142945000Y-101325439D01*
X142945000Y-100754561D01*
X142726534Y-100227138D01*
X142485000Y-99985604D01*
X142485000Y-97924396D01*
X142766534Y-97642862D01*
X142985000Y-97115439D01*
X142985000Y-96544561D01*
X142766534Y-96017138D01*
X142503241Y-95753845D01*
X142709699Y-95668327D01*
X142888327Y-95489698D01*
X142985000Y-95256309D01*
X142985000Y-94615750D01*
X142826250Y-94457000D01*
X141677000Y-94457000D01*
X141677000Y-94477000D01*
X141423000Y-94477000D01*
X141423000Y-94457000D01*
X140273750Y-94457000D01*
X140115000Y-94615750D01*
X140115000Y-95256309D01*
X140211673Y-95489698D01*
X140390301Y-95668327D01*
X140596759Y-95753845D01*
X140333466Y-96017138D01*
X140115000Y-96544561D01*
X140115000Y-97080819D01*
X140050420Y-97107569D01*
X139759269Y-97398720D01*
X139601700Y-97779126D01*
X139601700Y-98190874D01*
X139672909Y-98362788D01*
X137635169Y-100400529D01*
X137404577Y-100055423D01*
X137052242Y-99820000D01*
X137404577Y-99584577D01*
X137721740Y-99109909D01*
X137833113Y-98550000D01*
X137721740Y-97990091D01*
X137404577Y-97515423D01*
X137052242Y-97280000D01*
X137404577Y-97044577D01*
X137721740Y-96569909D01*
X137833113Y-96010000D01*
X137721740Y-95450091D01*
X137404577Y-94975423D01*
X137052242Y-94740000D01*
X137404577Y-94504577D01*
X137590786Y-94225896D01*
X137791837Y-94185904D01*
X138043229Y-94017929D01*
X138085631Y-93954470D01*
X138098501Y-93941600D01*
X140115000Y-93941600D01*
X140115000Y-94044250D01*
X140115000Y-94044250D01*
G37*
X140115000Y-94044250D02*
X140273750Y-94203000D01*
X141423000Y-94203000D01*
X141423000Y-94183000D01*
X141677000Y-94183000D01*
X141677000Y-94203000D01*
X142826250Y-94203000D01*
X142985000Y-94044250D01*
X142985000Y-93941600D01*
X143576799Y-93941600D01*
X149620198Y-99985000D01*
X149448667Y-99985000D01*
X149030091Y-100068260D01*
X148555423Y-100385423D01*
X148320000Y-100737758D01*
X148084577Y-100385423D01*
X147609909Y-100068260D01*
X147191333Y-99985000D01*
X146908667Y-99985000D01*
X146490091Y-100068260D01*
X146015423Y-100385423D01*
X145780000Y-100737758D01*
X145544577Y-100385423D01*
X145069909Y-100068260D01*
X144651333Y-99985000D01*
X144368667Y-99985000D01*
X143950091Y-100068260D01*
X143475423Y-100385423D01*
X143158260Y-100860091D01*
X143046887Y-101420000D01*
X143158260Y-101979909D01*
X143475423Y-102454577D01*
X143950091Y-102771740D01*
X144368667Y-102855000D01*
X144651333Y-102855000D01*
X145069909Y-102771740D01*
X145544577Y-102454577D01*
X145780000Y-102102242D01*
X146015423Y-102454577D01*
X146490091Y-102771740D01*
X146908667Y-102855000D01*
X147191333Y-102855000D01*
X147609909Y-102771740D01*
X148084577Y-102454577D01*
X148320000Y-102102242D01*
X148555423Y-102454577D01*
X149030091Y-102771740D01*
X149448667Y-102855000D01*
X149731333Y-102855000D01*
X150149909Y-102771740D01*
X150539274Y-102511575D01*
X151057471Y-103029773D01*
X151099871Y-103093229D01*
X151351263Y-103261204D01*
X151572948Y-103305300D01*
X151572952Y-103305300D01*
X151647799Y-103320188D01*
X151722646Y-103305300D01*
X157634453Y-103305300D01*
X157709300Y-103320188D01*
X157784147Y-103305300D01*
X157784152Y-103305300D01*
X158005837Y-103261204D01*
X158257229Y-103093229D01*
X158299631Y-103029771D01*
X158810978Y-102518425D01*
X159190091Y-102771740D01*
X159608667Y-102855000D01*
X159891333Y-102855000D01*
X160309909Y-102771740D01*
X160784577Y-102454577D01*
X161020000Y-102102242D01*
X161255423Y-102454577D01*
X161730091Y-102771740D01*
X162148667Y-102855000D01*
X162431333Y-102855000D01*
X162849909Y-102771740D01*
X163196046Y-102540459D01*
X163207600Y-102598547D01*
X163207601Y-107972177D01*
X163027423Y-107808959D01*
X162639039Y-107648096D01*
X162417000Y-107770085D01*
X162417000Y-108913000D01*
X162437000Y-108913000D01*
X162437000Y-109167000D01*
X162417000Y-109167000D01*
X162417000Y-109187000D01*
X162163000Y-109187000D01*
X162163000Y-109167000D01*
X162143000Y-109167000D01*
X162143000Y-108913000D01*
X162163000Y-108913000D01*
X162163000Y-107770085D01*
X161940961Y-107648096D01*
X161552577Y-107808959D01*
X161137611Y-108184866D01*
X161080330Y-108305894D01*
X160970786Y-108284104D01*
X160784577Y-108005423D01*
X160309909Y-107688260D01*
X159891333Y-107605000D01*
X159608667Y-107605000D01*
X159190091Y-107688260D01*
X158829261Y-107929359D01*
X158298431Y-107398529D01*
X158256029Y-107335071D01*
X158004637Y-107167096D01*
X157782952Y-107123000D01*
X157782947Y-107123000D01*
X157708100Y-107108112D01*
X157633253Y-107123000D01*
X146585848Y-107123000D01*
X146511000Y-107108112D01*
X146436152Y-107123000D01*
X146436148Y-107123000D01*
X146262605Y-107157520D01*
X146214462Y-107167096D01*
X146083847Y-107254371D01*
X145963071Y-107335071D01*
X145920671Y-107398527D01*
X145629454Y-107689744D01*
X145557765Y-107641843D01*
X145310000Y-107592560D01*
X143710000Y-107592560D01*
X143462235Y-107641843D01*
X143252191Y-107782191D01*
X143111843Y-107992235D01*
X143062560Y-108240000D01*
X143062560Y-108685158D01*
X138925147Y-104547745D01*
X140681861Y-104547745D01*
X140755995Y-104793864D01*
X141293223Y-104986965D01*
X141863454Y-104959778D01*
X142264005Y-104793864D01*
X142338139Y-104547745D01*
X141510000Y-103719605D01*
X140681861Y-104547745D01*
X138925147Y-104547745D01*
X138255300Y-103877899D01*
X138255300Y-103704852D01*
X138270189Y-103630000D01*
X138211204Y-103333463D01*
X138204362Y-103323223D01*
X140063035Y-103323223D01*
X140090222Y-103893454D01*
X140256136Y-104294005D01*
X140502255Y-104368139D01*
X141330395Y-103540000D01*
X141689605Y-103540000D01*
X142517745Y-104368139D01*
X142763864Y-104294005D01*
X142956965Y-103756777D01*
X142929778Y-103186546D01*
X142763864Y-102785995D01*
X142517745Y-102711861D01*
X141689605Y-103540000D01*
X141330395Y-103540000D01*
X140502255Y-102711861D01*
X140256136Y-102785995D01*
X140063035Y-103323223D01*
X138204362Y-103323223D01*
X138043229Y-103082071D01*
X137791837Y-102914096D01*
X137590786Y-102874104D01*
X137479899Y-102708150D01*
X137485431Y-102699870D01*
X140615000Y-99570302D01*
X140615000Y-99905604D01*
X140293466Y-100227138D01*
X140075000Y-100754561D01*
X140075000Y-101325439D01*
X140293466Y-101852862D01*
X140697138Y-102256534D01*
X140762299Y-102283525D01*
X140755995Y-102286136D01*
X140681861Y-102532255D01*
X141510000Y-103360395D01*
X142338139Y-102532255D01*
X142264005Y-102286136D01*
X142257254Y-102283710D01*
X142322862Y-102256534D01*
X142726534Y-101852862D01*
X142945000Y-101325439D01*
X142945000Y-100754561D01*
X142726534Y-100227138D01*
X142485000Y-99985604D01*
X142485000Y-97924396D01*
X142766534Y-97642862D01*
X142985000Y-97115439D01*
X142985000Y-96544561D01*
X142766534Y-96017138D01*
X142503241Y-95753845D01*
X142709699Y-95668327D01*
X142888327Y-95489698D01*
X142985000Y-95256309D01*
X142985000Y-94615750D01*
X142826250Y-94457000D01*
X141677000Y-94457000D01*
X141677000Y-94477000D01*
X141423000Y-94477000D01*
X141423000Y-94457000D01*
X140273750Y-94457000D01*
X140115000Y-94615750D01*
X140115000Y-95256309D01*
X140211673Y-95489698D01*
X140390301Y-95668327D01*
X140596759Y-95753845D01*
X140333466Y-96017138D01*
X140115000Y-96544561D01*
X140115000Y-97080819D01*
X140050420Y-97107569D01*
X139759269Y-97398720D01*
X139601700Y-97779126D01*
X139601700Y-98190874D01*
X139672909Y-98362788D01*
X137635169Y-100400529D01*
X137404577Y-100055423D01*
X137052242Y-99820000D01*
X137404577Y-99584577D01*
X137721740Y-99109909D01*
X137833113Y-98550000D01*
X137721740Y-97990091D01*
X137404577Y-97515423D01*
X137052242Y-97280000D01*
X137404577Y-97044577D01*
X137721740Y-96569909D01*
X137833113Y-96010000D01*
X137721740Y-95450091D01*
X137404577Y-94975423D01*
X137052242Y-94740000D01*
X137404577Y-94504577D01*
X137590786Y-94225896D01*
X137791837Y-94185904D01*
X138043229Y-94017929D01*
X138085631Y-93954470D01*
X138098501Y-93941600D01*
X140115000Y-93941600D01*
X140115000Y-94044250D01*
G36*
X211327000Y-108843000D02*
X211347000Y-108843000D01*
X211347000Y-109097000D01*
X211327000Y-109097000D01*
X211327000Y-109117000D01*
X211073000Y-109117000D01*
X211073000Y-109097000D01*
X211053000Y-109097000D01*
X211053000Y-108843000D01*
X211073000Y-108843000D01*
X211073000Y-108823000D01*
X211327000Y-108823000D01*
X211327000Y-108843000D01*
X211327000Y-108843000D01*
G37*
X211327000Y-108843000D02*
X211347000Y-108843000D01*
X211347000Y-109097000D01*
X211327000Y-109097000D01*
X211327000Y-109117000D01*
X211073000Y-109117000D01*
X211073000Y-109097000D01*
X211053000Y-109097000D01*
X211053000Y-108843000D01*
X211073000Y-108843000D01*
X211073000Y-108823000D01*
X211327000Y-108823000D01*
X211327000Y-108843000D01*
G36*
X185507000Y-108843000D02*
X185527000Y-108843000D01*
X185527000Y-109097000D01*
X185507000Y-109097000D01*
X185507000Y-109117000D01*
X185253000Y-109117000D01*
X185253000Y-109097000D01*
X185233000Y-109097000D01*
X185233000Y-108843000D01*
X185253000Y-108843000D01*
X185253000Y-108823000D01*
X185507000Y-108823000D01*
X185507000Y-108843000D01*
X185507000Y-108843000D01*
G37*
X185507000Y-108843000D02*
X185527000Y-108843000D01*
X185527000Y-109097000D01*
X185507000Y-109097000D01*
X185507000Y-109117000D01*
X185253000Y-109117000D01*
X185253000Y-109097000D01*
X185233000Y-109097000D01*
X185233000Y-108843000D01*
X185253000Y-108843000D01*
X185253000Y-108823000D01*
X185507000Y-108823000D01*
X185507000Y-108843000D01*
G36*
X202545423Y-102384577D02*
X203020091Y-102701740D01*
X203438667Y-102785000D01*
X203721333Y-102785000D01*
X204139909Y-102701740D01*
X204500439Y-102460841D01*
X204999473Y-102959875D01*
X205041871Y-103023329D01*
X205105324Y-103065727D01*
X205105326Y-103065729D01*
X205230702Y-103149502D01*
X205293263Y-103191304D01*
X205514948Y-103235400D01*
X205514952Y-103235400D01*
X205589799Y-103250288D01*
X205664646Y-103235400D01*
X206076299Y-103235400D01*
X210545508Y-107704610D01*
X210462577Y-107738959D01*
X210047611Y-108114866D01*
X209950947Y-108319108D01*
X209694577Y-107935423D01*
X209219909Y-107618260D01*
X208801333Y-107535000D01*
X208518667Y-107535000D01*
X208100091Y-107618260D01*
X207625423Y-107935423D01*
X207390000Y-108287758D01*
X207154577Y-107935423D01*
X206679909Y-107618260D01*
X206261333Y-107535000D01*
X205978667Y-107535000D01*
X205560091Y-107618260D01*
X205085423Y-107935423D01*
X204899214Y-108214104D01*
X204812333Y-108231386D01*
X204614577Y-107935423D01*
X204139909Y-107618260D01*
X203721333Y-107535000D01*
X203438667Y-107535000D01*
X203020091Y-107618260D01*
X202545423Y-107935423D01*
X202359214Y-108214104D01*
X202272333Y-108231386D01*
X202074577Y-107935423D01*
X201599909Y-107618260D01*
X201181333Y-107535000D01*
X200898667Y-107535000D01*
X200480091Y-107618260D01*
X200005423Y-107935423D01*
X199770000Y-108287758D01*
X199534577Y-107935423D01*
X199059909Y-107618260D01*
X198641333Y-107535000D01*
X198358667Y-107535000D01*
X197940091Y-107618260D01*
X197603778Y-107842977D01*
X197120931Y-107360130D01*
X197078529Y-107296671D01*
X196827137Y-107128696D01*
X196605452Y-107084600D01*
X196605447Y-107084600D01*
X196530600Y-107069712D01*
X196455753Y-107084600D01*
X188971948Y-107084600D01*
X188897100Y-107069712D01*
X188822252Y-107084600D01*
X188822248Y-107084600D01*
X188648705Y-107119120D01*
X188600562Y-107128696D01*
X188486999Y-107204577D01*
X188349171Y-107296671D01*
X188306771Y-107360127D01*
X186815000Y-108851899D01*
X186815000Y-108842998D01*
X186650630Y-108842998D01*
X186771914Y-108620959D01*
X186532389Y-108114866D01*
X186117423Y-107738959D01*
X185758855Y-107590446D01*
X188871556Y-104477745D01*
X189591861Y-104477745D01*
X189665995Y-104723864D01*
X190203223Y-104916965D01*
X190773454Y-104889778D01*
X191174005Y-104723864D01*
X191248139Y-104477745D01*
X190420000Y-103649605D01*
X189591861Y-104477745D01*
X188871556Y-104477745D01*
X189154174Y-104195127D01*
X189166136Y-104224005D01*
X189412255Y-104298139D01*
X190240395Y-103470000D01*
X190226252Y-103455858D01*
X190405858Y-103276252D01*
X190420000Y-103290395D01*
X190434143Y-103276253D01*
X190613748Y-103455858D01*
X190599605Y-103470000D01*
X191427745Y-104298139D01*
X191673864Y-104224005D01*
X191866965Y-103686777D01*
X191839778Y-103116546D01*
X191813291Y-103052600D01*
X192442477Y-103052600D01*
X192671763Y-103205804D01*
X192893448Y-103249900D01*
X192893452Y-103249900D01*
X192968299Y-103264788D01*
X193043146Y-103249900D01*
X193901253Y-103249900D01*
X193976100Y-103264788D01*
X194050947Y-103249900D01*
X194050952Y-103249900D01*
X194272637Y-103205804D01*
X194524029Y-103037829D01*
X194566431Y-102974370D01*
X195063778Y-102477023D01*
X195400091Y-102701740D01*
X195818667Y-102785000D01*
X196101333Y-102785000D01*
X196519909Y-102701740D01*
X196994577Y-102384577D01*
X197192333Y-102088614D01*
X197279214Y-102105896D01*
X197465423Y-102384577D01*
X197940091Y-102701740D01*
X198358667Y-102785000D01*
X198641333Y-102785000D01*
X199059909Y-102701740D01*
X199534577Y-102384577D01*
X199732333Y-102088614D01*
X199819214Y-102105896D01*
X200005423Y-102384577D01*
X200480091Y-102701740D01*
X200898667Y-102785000D01*
X201181333Y-102785000D01*
X201599909Y-102701740D01*
X202074577Y-102384577D01*
X202310000Y-102032242D01*
X202545423Y-102384577D01*
X202545423Y-102384577D01*
G37*
X202545423Y-102384577D02*
X203020091Y-102701740D01*
X203438667Y-102785000D01*
X203721333Y-102785000D01*
X204139909Y-102701740D01*
X204500439Y-102460841D01*
X204999473Y-102959875D01*
X205041871Y-103023329D01*
X205105324Y-103065727D01*
X205105326Y-103065729D01*
X205230702Y-103149502D01*
X205293263Y-103191304D01*
X205514948Y-103235400D01*
X205514952Y-103235400D01*
X205589799Y-103250288D01*
X205664646Y-103235400D01*
X206076299Y-103235400D01*
X210545508Y-107704610D01*
X210462577Y-107738959D01*
X210047611Y-108114866D01*
X209950947Y-108319108D01*
X209694577Y-107935423D01*
X209219909Y-107618260D01*
X208801333Y-107535000D01*
X208518667Y-107535000D01*
X208100091Y-107618260D01*
X207625423Y-107935423D01*
X207390000Y-108287758D01*
X207154577Y-107935423D01*
X206679909Y-107618260D01*
X206261333Y-107535000D01*
X205978667Y-107535000D01*
X205560091Y-107618260D01*
X205085423Y-107935423D01*
X204899214Y-108214104D01*
X204812333Y-108231386D01*
X204614577Y-107935423D01*
X204139909Y-107618260D01*
X203721333Y-107535000D01*
X203438667Y-107535000D01*
X203020091Y-107618260D01*
X202545423Y-107935423D01*
X202359214Y-108214104D01*
X202272333Y-108231386D01*
X202074577Y-107935423D01*
X201599909Y-107618260D01*
X201181333Y-107535000D01*
X200898667Y-107535000D01*
X200480091Y-107618260D01*
X200005423Y-107935423D01*
X199770000Y-108287758D01*
X199534577Y-107935423D01*
X199059909Y-107618260D01*
X198641333Y-107535000D01*
X198358667Y-107535000D01*
X197940091Y-107618260D01*
X197603778Y-107842977D01*
X197120931Y-107360130D01*
X197078529Y-107296671D01*
X196827137Y-107128696D01*
X196605452Y-107084600D01*
X196605447Y-107084600D01*
X196530600Y-107069712D01*
X196455753Y-107084600D01*
X188971948Y-107084600D01*
X188897100Y-107069712D01*
X188822252Y-107084600D01*
X188822248Y-107084600D01*
X188648705Y-107119120D01*
X188600562Y-107128696D01*
X188486999Y-107204577D01*
X188349171Y-107296671D01*
X188306771Y-107360127D01*
X186815000Y-108851899D01*
X186815000Y-108842998D01*
X186650630Y-108842998D01*
X186771914Y-108620959D01*
X186532389Y-108114866D01*
X186117423Y-107738959D01*
X185758855Y-107590446D01*
X188871556Y-104477745D01*
X189591861Y-104477745D01*
X189665995Y-104723864D01*
X190203223Y-104916965D01*
X190773454Y-104889778D01*
X191174005Y-104723864D01*
X191248139Y-104477745D01*
X190420000Y-103649605D01*
X189591861Y-104477745D01*
X188871556Y-104477745D01*
X189154174Y-104195127D01*
X189166136Y-104224005D01*
X189412255Y-104298139D01*
X190240395Y-103470000D01*
X190226252Y-103455858D01*
X190405858Y-103276252D01*
X190420000Y-103290395D01*
X190434143Y-103276253D01*
X190613748Y-103455858D01*
X190599605Y-103470000D01*
X191427745Y-104298139D01*
X191673864Y-104224005D01*
X191866965Y-103686777D01*
X191839778Y-103116546D01*
X191813291Y-103052600D01*
X192442477Y-103052600D01*
X192671763Y-103205804D01*
X192893448Y-103249900D01*
X192893452Y-103249900D01*
X192968299Y-103264788D01*
X193043146Y-103249900D01*
X193901253Y-103249900D01*
X193976100Y-103264788D01*
X194050947Y-103249900D01*
X194050952Y-103249900D01*
X194272637Y-103205804D01*
X194524029Y-103037829D01*
X194566431Y-102974370D01*
X195063778Y-102477023D01*
X195400091Y-102701740D01*
X195818667Y-102785000D01*
X196101333Y-102785000D01*
X196519909Y-102701740D01*
X196994577Y-102384577D01*
X197192333Y-102088614D01*
X197279214Y-102105896D01*
X197465423Y-102384577D01*
X197940091Y-102701740D01*
X198358667Y-102785000D01*
X198641333Y-102785000D01*
X199059909Y-102701740D01*
X199534577Y-102384577D01*
X199732333Y-102088614D01*
X199819214Y-102105896D01*
X200005423Y-102384577D01*
X200480091Y-102701740D01*
X200898667Y-102785000D01*
X201181333Y-102785000D01*
X201599909Y-102701740D01*
X202074577Y-102384577D01*
X202310000Y-102032242D01*
X202545423Y-102384577D01*
G36*
X188985000Y-100684561D02*
X188985000Y-101082710D01*
X186232111Y-103835600D01*
X168533472Y-103835600D01*
X168586965Y-103686777D01*
X168559778Y-103116546D01*
X168393864Y-102715995D01*
X168147745Y-102641861D01*
X167319605Y-103470000D01*
X167333748Y-103484143D01*
X167154143Y-103663748D01*
X167140000Y-103649605D01*
X167125858Y-103663748D01*
X166946253Y-103484143D01*
X166960395Y-103470000D01*
X166946253Y-103455858D01*
X167125858Y-103276253D01*
X167140000Y-103290395D01*
X167968139Y-102462255D01*
X167914748Y-102285000D01*
X169038888Y-102285000D01*
X169105423Y-102384577D01*
X169580091Y-102701740D01*
X169998667Y-102785000D01*
X170281333Y-102785000D01*
X170699909Y-102701740D01*
X171174577Y-102384577D01*
X171430947Y-102000892D01*
X171527611Y-102205134D01*
X171942577Y-102581041D01*
X172330961Y-102741904D01*
X172553000Y-102619915D01*
X172553000Y-101477000D01*
X172807000Y-101477000D01*
X172807000Y-102619915D01*
X173029039Y-102741904D01*
X173417423Y-102581041D01*
X173832389Y-102205134D01*
X173950000Y-101956633D01*
X174067611Y-102205134D01*
X174482577Y-102581041D01*
X174870961Y-102741904D01*
X175093000Y-102619915D01*
X175093000Y-101477000D01*
X172807000Y-101477000D01*
X172553000Y-101477000D01*
X172533000Y-101477000D01*
X172533000Y-101223000D01*
X172553000Y-101223000D01*
X172553000Y-101203000D01*
X172807000Y-101203000D01*
X172807000Y-101223000D01*
X175093000Y-101223000D01*
X175093000Y-101203000D01*
X175347000Y-101203000D01*
X175347000Y-101223000D01*
X175367000Y-101223000D01*
X175367000Y-101477000D01*
X175347000Y-101477000D01*
X175347000Y-102619915D01*
X175569039Y-102741904D01*
X175957423Y-102581041D01*
X176372389Y-102205134D01*
X176469053Y-102000892D01*
X176725423Y-102384577D01*
X177200091Y-102701740D01*
X177618667Y-102785000D01*
X177901333Y-102785000D01*
X178319909Y-102701740D01*
X178794577Y-102384577D01*
X179030000Y-102032242D01*
X179265423Y-102384577D01*
X179740091Y-102701740D01*
X180158667Y-102785000D01*
X180441333Y-102785000D01*
X180859909Y-102701740D01*
X181334577Y-102384577D01*
X181518043Y-102110000D01*
X181621957Y-102110000D01*
X181805423Y-102384577D01*
X182280091Y-102701740D01*
X182698667Y-102785000D01*
X182981333Y-102785000D01*
X183399909Y-102701740D01*
X183874577Y-102384577D01*
X184110000Y-102032242D01*
X184345423Y-102384577D01*
X184820091Y-102701740D01*
X185238667Y-102785000D01*
X185521333Y-102785000D01*
X185939909Y-102701740D01*
X186414577Y-102384577D01*
X186731740Y-101909909D01*
X186843113Y-101350000D01*
X186731740Y-100790091D01*
X186607198Y-100603700D01*
X189018494Y-100603700D01*
X188985000Y-100684561D01*
X188985000Y-100684561D01*
G37*
X188985000Y-100684561D02*
X188985000Y-101082710D01*
X186232111Y-103835600D01*
X168533472Y-103835600D01*
X168586965Y-103686777D01*
X168559778Y-103116546D01*
X168393864Y-102715995D01*
X168147745Y-102641861D01*
X167319605Y-103470000D01*
X167333748Y-103484143D01*
X167154143Y-103663748D01*
X167140000Y-103649605D01*
X167125858Y-103663748D01*
X166946253Y-103484143D01*
X166960395Y-103470000D01*
X166946253Y-103455858D01*
X167125858Y-103276253D01*
X167140000Y-103290395D01*
X167968139Y-102462255D01*
X167914748Y-102285000D01*
X169038888Y-102285000D01*
X169105423Y-102384577D01*
X169580091Y-102701740D01*
X169998667Y-102785000D01*
X170281333Y-102785000D01*
X170699909Y-102701740D01*
X171174577Y-102384577D01*
X171430947Y-102000892D01*
X171527611Y-102205134D01*
X171942577Y-102581041D01*
X172330961Y-102741904D01*
X172553000Y-102619915D01*
X172553000Y-101477000D01*
X172807000Y-101477000D01*
X172807000Y-102619915D01*
X173029039Y-102741904D01*
X173417423Y-102581041D01*
X173832389Y-102205134D01*
X173950000Y-101956633D01*
X174067611Y-102205134D01*
X174482577Y-102581041D01*
X174870961Y-102741904D01*
X175093000Y-102619915D01*
X175093000Y-101477000D01*
X172807000Y-101477000D01*
X172553000Y-101477000D01*
X172533000Y-101477000D01*
X172533000Y-101223000D01*
X172553000Y-101223000D01*
X172553000Y-101203000D01*
X172807000Y-101203000D01*
X172807000Y-101223000D01*
X175093000Y-101223000D01*
X175093000Y-101203000D01*
X175347000Y-101203000D01*
X175347000Y-101223000D01*
X175367000Y-101223000D01*
X175367000Y-101477000D01*
X175347000Y-101477000D01*
X175347000Y-102619915D01*
X175569039Y-102741904D01*
X175957423Y-102581041D01*
X176372389Y-102205134D01*
X176469053Y-102000892D01*
X176725423Y-102384577D01*
X177200091Y-102701740D01*
X177618667Y-102785000D01*
X177901333Y-102785000D01*
X178319909Y-102701740D01*
X178794577Y-102384577D01*
X179030000Y-102032242D01*
X179265423Y-102384577D01*
X179740091Y-102701740D01*
X180158667Y-102785000D01*
X180441333Y-102785000D01*
X180859909Y-102701740D01*
X181334577Y-102384577D01*
X181518043Y-102110000D01*
X181621957Y-102110000D01*
X181805423Y-102384577D01*
X182280091Y-102701740D01*
X182698667Y-102785000D01*
X182981333Y-102785000D01*
X183399909Y-102701740D01*
X183874577Y-102384577D01*
X184110000Y-102032242D01*
X184345423Y-102384577D01*
X184820091Y-102701740D01*
X185238667Y-102785000D01*
X185521333Y-102785000D01*
X185939909Y-102701740D01*
X186414577Y-102384577D01*
X186731740Y-101909909D01*
X186843113Y-101350000D01*
X186731740Y-100790091D01*
X186607198Y-100603700D01*
X189018494Y-100603700D01*
X188985000Y-100684561D01*
G36*
X142058514Y-87103108D02*
X142179181Y-87333000D01*
X143373000Y-87333000D01*
X143373000Y-87313000D01*
X143627000Y-87313000D01*
X143627000Y-87333000D01*
X145913000Y-87333000D01*
X145913000Y-87313000D01*
X146167000Y-87313000D01*
X146167000Y-87333000D01*
X146187000Y-87333000D01*
X146187000Y-87587000D01*
X146167000Y-87587000D01*
X146167000Y-87607000D01*
X145913000Y-87607000D01*
X145913000Y-87587000D01*
X143627000Y-87587000D01*
X143627000Y-87607000D01*
X143373000Y-87607000D01*
X143373000Y-87587000D01*
X142179181Y-87587000D01*
X142058514Y-87816892D01*
X142304817Y-88341358D01*
X142511855Y-88530039D01*
X142402235Y-88551843D01*
X142192191Y-88692191D01*
X142051843Y-88902235D01*
X142002560Y-89150000D01*
X142002560Y-90502700D01*
X132986201Y-90502700D01*
X132863631Y-90380129D01*
X132821229Y-90316671D01*
X132569837Y-90148696D01*
X132351560Y-90105278D01*
X132368839Y-90079418D01*
X132484092Y-89500000D01*
X132401464Y-89084600D01*
X132781553Y-89084600D01*
X132856400Y-89099488D01*
X132931247Y-89084600D01*
X132931252Y-89084600D01*
X133152937Y-89040504D01*
X133404329Y-88872529D01*
X133446731Y-88809070D01*
X135239502Y-87016300D01*
X142099281Y-87016300D01*
X142058514Y-87103108D01*
X142058514Y-87103108D01*
G37*
X142058514Y-87103108D02*
X142179181Y-87333000D01*
X143373000Y-87333000D01*
X143373000Y-87313000D01*
X143627000Y-87313000D01*
X143627000Y-87333000D01*
X145913000Y-87333000D01*
X145913000Y-87313000D01*
X146167000Y-87313000D01*
X146167000Y-87333000D01*
X146187000Y-87333000D01*
X146187000Y-87587000D01*
X146167000Y-87587000D01*
X146167000Y-87607000D01*
X145913000Y-87607000D01*
X145913000Y-87587000D01*
X143627000Y-87587000D01*
X143627000Y-87607000D01*
X143373000Y-87607000D01*
X143373000Y-87587000D01*
X142179181Y-87587000D01*
X142058514Y-87816892D01*
X142304817Y-88341358D01*
X142511855Y-88530039D01*
X142402235Y-88551843D01*
X142192191Y-88692191D01*
X142051843Y-88902235D01*
X142002560Y-89150000D01*
X142002560Y-90502700D01*
X132986201Y-90502700D01*
X132863631Y-90380129D01*
X132821229Y-90316671D01*
X132569837Y-90148696D01*
X132351560Y-90105278D01*
X132368839Y-90079418D01*
X132484092Y-89500000D01*
X132401464Y-89084600D01*
X132781553Y-89084600D01*
X132856400Y-89099488D01*
X132931247Y-89084600D01*
X132931252Y-89084600D01*
X133152937Y-89040504D01*
X133404329Y-88872529D01*
X133446731Y-88809070D01*
X135239502Y-87016300D01*
X142099281Y-87016300D01*
X142058514Y-87103108D01*
G04 #@! TD*
M02*
