G04 #@! TF.GenerationSoftware,KiCad,Pcbnew,(5.1.4-0-10_14)*
G04 #@! TF.CreationDate,2021-02-18T19:41:58+09:00*
G04 #@! TF.ProjectId,KZ80-MSXCTRG,4b5a3830-2d4d-4535-9843-5452472e6b69,rev?*
G04 #@! TF.SameCoordinates,Original*
G04 #@! TF.FileFunction,Soldermask,Top*
G04 #@! TF.FilePolarity,Negative*
%FSLAX46Y46*%
G04 Gerber Fmt 4.6, Leading zero omitted, Abs format (unit mm)*
G04 Created by KiCad (PCBNEW (5.1.4-0-10_14)) date 2021-02-18 19:41:58*
%MOMM*%
%LPD*%
G04 APERTURE LIST*
%ADD10O,2.100000X2.100000*%
%ADD11R,2.100000X2.100000*%
%ADD12O,2.000000X2.000000*%
%ADD13C,2.000000*%
%ADD14R,2.000000X2.000000*%
%ADD15C,3.600000*%
G04 APERTURE END LIST*
D10*
X137540000Y-146540000D03*
X137540000Y-141460000D03*
X140080000Y-146540000D03*
X140080000Y-141460000D03*
X142620000Y-146540000D03*
X142620000Y-141460000D03*
X145160000Y-146540000D03*
X145160000Y-141460000D03*
X147700000Y-146540000D03*
X147700000Y-141460000D03*
X150240000Y-146540000D03*
X150240000Y-141460000D03*
X152780000Y-146540000D03*
X152780000Y-141460000D03*
X155320000Y-146540000D03*
X155320000Y-141460000D03*
X157860000Y-146540000D03*
X157860000Y-141460000D03*
X160400000Y-146540000D03*
X160400000Y-141460000D03*
X162940000Y-146540000D03*
X162940000Y-141460000D03*
X165480000Y-146540000D03*
X165480000Y-141460000D03*
X168020000Y-146540000D03*
X168020000Y-141460000D03*
X170560000Y-146540000D03*
X170560000Y-141460000D03*
X173100000Y-146540000D03*
X173100000Y-141460000D03*
X175640000Y-146540000D03*
X175640000Y-141460000D03*
X178180000Y-146540000D03*
X178180000Y-141460000D03*
X180720000Y-146540000D03*
X180720000Y-141460000D03*
X183260000Y-146540000D03*
X183260000Y-141460000D03*
X185800000Y-146540000D03*
X185800000Y-141460000D03*
X188340000Y-146540000D03*
X188340000Y-141460000D03*
X190880000Y-146540000D03*
X190880000Y-141460000D03*
X193420000Y-146540000D03*
X193420000Y-141460000D03*
X195960000Y-146540000D03*
X195960000Y-141460000D03*
X198500000Y-146540000D03*
D11*
X198500000Y-141460000D03*
D12*
X129500000Y-173160000D03*
D13*
X129500000Y-163000000D03*
D12*
X129700000Y-138630000D03*
D13*
X129700000Y-148790000D03*
D12*
X205900000Y-133550000D03*
D13*
X195740000Y-133550000D03*
D12*
X167800000Y-113230000D03*
D13*
X167800000Y-123390000D03*
D12*
X163990000Y-113230000D03*
D13*
X163990000Y-123390000D03*
D10*
X120810000Y-169110000D03*
D11*
X120810000Y-171650000D03*
D13*
X129000000Y-156250000D03*
D14*
X126500000Y-156250000D03*
D13*
X145500000Y-156250000D03*
D14*
X143000000Y-156250000D03*
D13*
X137000000Y-156250000D03*
D14*
X134500000Y-156250000D03*
D12*
X174150000Y-126330000D03*
X189390000Y-133950000D03*
X176690000Y-126330000D03*
X186850000Y-133950000D03*
X179230000Y-126330000D03*
X184310000Y-133950000D03*
X181770000Y-126330000D03*
X181770000Y-133950000D03*
X184310000Y-126330000D03*
X179230000Y-133950000D03*
X186850000Y-126330000D03*
X176690000Y-133950000D03*
X189390000Y-126330000D03*
D14*
X174150000Y-133950000D03*
D12*
X162720000Y-131410000D03*
D13*
X152560000Y-131410000D03*
D12*
X162720000Y-126965000D03*
D13*
X152560000Y-126965000D03*
D10*
X148115000Y-127600000D03*
D11*
X145575000Y-127600000D03*
D13*
X170975000Y-125735000D03*
X170975000Y-128235000D03*
X139500000Y-132000000D03*
D14*
X137000000Y-132000000D03*
X141550000Y-94330000D03*
D13*
X141550000Y-96830000D03*
X171070000Y-116180000D03*
X171070000Y-113680000D03*
X167140000Y-100970000D03*
X167140000Y-103470000D03*
X141630000Y-116250000D03*
X141630000Y-113750000D03*
X190420000Y-100970000D03*
X190420000Y-103470000D03*
X141510000Y-103540000D03*
X141510000Y-101040000D03*
D11*
X198500000Y-166460000D03*
D10*
X198500000Y-171540000D03*
X195960000Y-166460000D03*
X195960000Y-171540000D03*
X193420000Y-166460000D03*
X193420000Y-171540000D03*
X190880000Y-166460000D03*
X190880000Y-171540000D03*
X188340000Y-166460000D03*
X188340000Y-171540000D03*
X185800000Y-166460000D03*
X185800000Y-171540000D03*
X183260000Y-166460000D03*
X183260000Y-171540000D03*
X180720000Y-166460000D03*
X180720000Y-171540000D03*
X178180000Y-166460000D03*
X178180000Y-171540000D03*
X175640000Y-166460000D03*
X175640000Y-171540000D03*
X173100000Y-166460000D03*
X173100000Y-171540000D03*
X170560000Y-166460000D03*
X170560000Y-171540000D03*
X168020000Y-166460000D03*
X168020000Y-171540000D03*
X165480000Y-166460000D03*
X165480000Y-171540000D03*
X162940000Y-166460000D03*
X162940000Y-171540000D03*
X160400000Y-166460000D03*
X160400000Y-171540000D03*
X157860000Y-166460000D03*
X157860000Y-171540000D03*
X155320000Y-166460000D03*
X155320000Y-171540000D03*
X152780000Y-166460000D03*
X152780000Y-171540000D03*
X150240000Y-166460000D03*
X150240000Y-171540000D03*
X147700000Y-166460000D03*
X147700000Y-171540000D03*
X145160000Y-166460000D03*
X145160000Y-171540000D03*
X142620000Y-166460000D03*
X142620000Y-171540000D03*
X140080000Y-166460000D03*
X140080000Y-171540000D03*
X137540000Y-166460000D03*
X137540000Y-171540000D03*
D11*
X199820000Y-117890000D03*
D10*
X199820000Y-120430000D03*
X199820000Y-122970000D03*
D11*
X208720000Y-117840000D03*
D10*
X208720000Y-120380000D03*
X208720000Y-122920000D03*
X208720000Y-125460000D03*
X208720000Y-128000000D03*
X128430000Y-86960000D03*
X130970000Y-86960000D03*
X128430000Y-89500000D03*
X130970000Y-89500000D03*
X128430000Y-92040000D03*
X130970000Y-92040000D03*
X128430000Y-94580000D03*
X130970000Y-94580000D03*
X128430000Y-97120000D03*
X130970000Y-97120000D03*
X128430000Y-99660000D03*
X130970000Y-99660000D03*
X128430000Y-102200000D03*
D11*
X130970000Y-102200000D03*
X130970000Y-128870000D03*
D10*
X128430000Y-128870000D03*
X130970000Y-126330000D03*
X128430000Y-126330000D03*
X130970000Y-123790000D03*
X128430000Y-123790000D03*
X130970000Y-121250000D03*
X128430000Y-121250000D03*
X130970000Y-118710000D03*
X128430000Y-118710000D03*
X130970000Y-116170000D03*
X128430000Y-116170000D03*
X130970000Y-113630000D03*
X128430000Y-113630000D03*
D11*
X143500000Y-90000000D03*
D10*
X143500000Y-87460000D03*
X146040000Y-90000000D03*
X146040000Y-87460000D03*
X148580000Y-90000000D03*
X148580000Y-87460000D03*
X151120000Y-90000000D03*
X151120000Y-87460000D03*
X153660000Y-90000000D03*
X153660000Y-87460000D03*
X156200000Y-90000000D03*
X156200000Y-87460000D03*
X158740000Y-90000000D03*
X158740000Y-87460000D03*
X161280000Y-90000000D03*
X161280000Y-87460000D03*
X163820000Y-90000000D03*
X163820000Y-87460000D03*
X166360000Y-90000000D03*
X166360000Y-87460000D03*
X168900000Y-90000000D03*
X168900000Y-87460000D03*
X171440000Y-90000000D03*
X171440000Y-87460000D03*
X173980000Y-90000000D03*
X173980000Y-87460000D03*
X176520000Y-90000000D03*
X176520000Y-87460000D03*
X179060000Y-90000000D03*
X179060000Y-87460000D03*
X181600000Y-90000000D03*
X181600000Y-87460000D03*
X184140000Y-90000000D03*
X184140000Y-87460000D03*
X186680000Y-90000000D03*
X186680000Y-87460000D03*
X189220000Y-90000000D03*
X189220000Y-87460000D03*
X191760000Y-90000000D03*
X191760000Y-87460000D03*
D15*
X211500000Y-148500000D03*
X122500000Y-148500000D03*
X211500000Y-82500000D03*
X122500000Y-82500000D03*
D14*
X170140000Y-108970000D03*
D12*
X185380000Y-101350000D03*
X172680000Y-108970000D03*
X182840000Y-101350000D03*
X175220000Y-108970000D03*
X180300000Y-101350000D03*
X177760000Y-108970000D03*
X177760000Y-101350000D03*
X180300000Y-108970000D03*
X175220000Y-101350000D03*
X182840000Y-108970000D03*
X172680000Y-101350000D03*
X185380000Y-108970000D03*
X170140000Y-101350000D03*
X174070000Y-114060000D03*
X189310000Y-121680000D03*
X176610000Y-114060000D03*
X186770000Y-121680000D03*
X179150000Y-114060000D03*
X184230000Y-121680000D03*
X181690000Y-114060000D03*
X181690000Y-121680000D03*
X184230000Y-114060000D03*
X179150000Y-121680000D03*
X186770000Y-114060000D03*
X176610000Y-121680000D03*
X189310000Y-114060000D03*
D14*
X174070000Y-121680000D03*
X144630000Y-121750000D03*
D12*
X159870000Y-114130000D03*
X147170000Y-121750000D03*
X157330000Y-114130000D03*
X149710000Y-121750000D03*
X154790000Y-114130000D03*
X152250000Y-121750000D03*
X152250000Y-114130000D03*
X154790000Y-121750000D03*
X149710000Y-114130000D03*
X157330000Y-121750000D03*
X147170000Y-114130000D03*
X159870000Y-121750000D03*
X144630000Y-114130000D03*
X144510000Y-101420000D03*
X162290000Y-109040000D03*
X147050000Y-101420000D03*
X159750000Y-109040000D03*
X149590000Y-101420000D03*
X157210000Y-109040000D03*
X152130000Y-101420000D03*
X154670000Y-109040000D03*
X154670000Y-101420000D03*
X152130000Y-109040000D03*
X157210000Y-101420000D03*
X149590000Y-109040000D03*
X159750000Y-101420000D03*
X147050000Y-109040000D03*
X162290000Y-101420000D03*
D14*
X144510000Y-109040000D03*
X193420000Y-108970000D03*
D12*
X211200000Y-101350000D03*
X195960000Y-108970000D03*
X208660000Y-101350000D03*
X198500000Y-108970000D03*
X206120000Y-101350000D03*
X201040000Y-108970000D03*
X203580000Y-101350000D03*
X203580000Y-108970000D03*
X201040000Y-101350000D03*
X206120000Y-108970000D03*
X198500000Y-101350000D03*
X208660000Y-108970000D03*
X195960000Y-101350000D03*
X211200000Y-108970000D03*
X193420000Y-101350000D03*
D14*
X136370000Y-113790000D03*
D12*
X136370000Y-111250000D03*
X136370000Y-108710000D03*
X136370000Y-106170000D03*
X136370000Y-103630000D03*
X136370000Y-101090000D03*
X136370000Y-98550000D03*
X136370000Y-96010000D03*
X136370000Y-93470000D03*
M02*
