G04 #@! TF.GenerationSoftware,KiCad,Pcbnew,(5.1.4-0-10_14)*
G04 #@! TF.CreationDate,2021-02-18T19:41:58+09:00*
G04 #@! TF.ProjectId,KZ80-MSXCTRG,4b5a3830-2d4d-4535-9843-5452472e6b69,rev?*
G04 #@! TF.SameCoordinates,Original*
G04 #@! TF.FileFunction,Legend,Top*
G04 #@! TF.FilePolarity,Positive*
%FSLAX46Y46*%
G04 Gerber Fmt 4.6, Leading zero omitted, Abs format (unit mm)*
G04 Created by KiCad (PCBNEW (5.1.4-0-10_14)) date 2021-02-18 19:41:58*
%MOMM*%
%LPD*%
G04 APERTURE LIST*
%ADD10C,0.500000*%
%ADD11C,0.300000*%
%ADD12C,0.150000*%
%ADD13C,0.200000*%
%ADD14C,0.120000*%
G04 APERTURE END LIST*
D10*
X205357142Y-142690476D02*
X205547619Y-142500000D01*
X205928571Y-142309523D01*
X206880952Y-142309523D01*
X207261904Y-142500000D01*
X207452380Y-142690476D01*
X207642857Y-143071428D01*
X207642857Y-143452380D01*
X207452380Y-144023809D01*
X205166666Y-146309523D01*
X207642857Y-146309523D01*
X207642857Y-170309523D02*
X205357142Y-170309523D01*
X206500000Y-170309523D02*
X206500000Y-166309523D01*
X206119047Y-166880952D01*
X205738095Y-167261904D01*
X205357142Y-167452380D01*
D11*
X154665238Y-161857142D02*
X154950952Y-161952380D01*
X155046190Y-162047619D01*
X155141428Y-162238095D01*
X155141428Y-162523809D01*
X155046190Y-162714285D01*
X154950952Y-162809523D01*
X154760476Y-162904761D01*
X153998571Y-162904761D01*
X153998571Y-160904761D01*
X154665238Y-160904761D01*
X154855714Y-161000000D01*
X154950952Y-161095238D01*
X155046190Y-161285714D01*
X155046190Y-161476190D01*
X154950952Y-161666666D01*
X154855714Y-161761904D01*
X154665238Y-161857142D01*
X153998571Y-161857142D01*
X157427142Y-162333333D02*
X158379523Y-162333333D01*
X157236666Y-162904761D02*
X157903333Y-160904761D01*
X158570000Y-162904761D01*
X161903333Y-162714285D02*
X161808095Y-162809523D01*
X161522380Y-162904761D01*
X161331904Y-162904761D01*
X161046190Y-162809523D01*
X160855714Y-162619047D01*
X160760476Y-162428571D01*
X160665238Y-162047619D01*
X160665238Y-161761904D01*
X160760476Y-161380952D01*
X160855714Y-161190476D01*
X161046190Y-161000000D01*
X161331904Y-160904761D01*
X161522380Y-160904761D01*
X161808095Y-161000000D01*
X161903333Y-161095238D01*
X164284285Y-162904761D02*
X164284285Y-160904761D01*
X165427142Y-162904761D02*
X164570000Y-161761904D01*
X165427142Y-160904761D02*
X164284285Y-162047619D01*
X170760476Y-162809523D02*
X171046190Y-162904761D01*
X171522380Y-162904761D01*
X171712857Y-162809523D01*
X171808095Y-162714285D01*
X171903333Y-162523809D01*
X171903333Y-162333333D01*
X171808095Y-162142857D01*
X171712857Y-162047619D01*
X171522380Y-161952380D01*
X171141428Y-161857142D01*
X170950952Y-161761904D01*
X170855714Y-161666666D01*
X170760476Y-161476190D01*
X170760476Y-161285714D01*
X170855714Y-161095238D01*
X170950952Y-161000000D01*
X171141428Y-160904761D01*
X171617619Y-160904761D01*
X171903333Y-161000000D01*
X174284285Y-162904761D02*
X174284285Y-160904761D01*
X176760476Y-162904761D02*
X176760476Y-160904761D01*
X177236666Y-160904761D01*
X177522380Y-161000000D01*
X177712857Y-161190476D01*
X177808095Y-161380952D01*
X177903333Y-161761904D01*
X177903333Y-162047619D01*
X177808095Y-162428571D01*
X177712857Y-162619047D01*
X177522380Y-162809523D01*
X177236666Y-162904761D01*
X176760476Y-162904761D01*
X180284285Y-161857142D02*
X180950952Y-161857142D01*
X181236666Y-162904761D02*
X180284285Y-162904761D01*
X180284285Y-160904761D01*
X181236666Y-160904761D01*
X149928571Y-144678571D02*
X149928571Y-143178571D01*
X150428571Y-144250000D01*
X150928571Y-143178571D01*
X150928571Y-144678571D01*
X152714285Y-144607142D02*
X152928571Y-144678571D01*
X153285714Y-144678571D01*
X153428571Y-144607142D01*
X153500000Y-144535714D01*
X153571428Y-144392857D01*
X153571428Y-144250000D01*
X153500000Y-144107142D01*
X153428571Y-144035714D01*
X153285714Y-143964285D01*
X153000000Y-143892857D01*
X152857142Y-143821428D01*
X152785714Y-143750000D01*
X152714285Y-143607142D01*
X152714285Y-143464285D01*
X152785714Y-143321428D01*
X152857142Y-143250000D01*
X153000000Y-143178571D01*
X153357142Y-143178571D01*
X153571428Y-143250000D01*
X155214285Y-143178571D02*
X156214285Y-144678571D01*
X156214285Y-143178571D02*
X155214285Y-144678571D01*
X159928571Y-144535714D02*
X159857142Y-144607142D01*
X159642857Y-144678571D01*
X159500000Y-144678571D01*
X159285714Y-144607142D01*
X159142857Y-144464285D01*
X159071428Y-144321428D01*
X159000000Y-144035714D01*
X159000000Y-143821428D01*
X159071428Y-143535714D01*
X159142857Y-143392857D01*
X159285714Y-143250000D01*
X159500000Y-143178571D01*
X159642857Y-143178571D01*
X159857142Y-143250000D01*
X159928571Y-143321428D01*
X161642857Y-144250000D02*
X162357142Y-144250000D01*
X161500000Y-144678571D02*
X162000000Y-143178571D01*
X162500000Y-144678571D01*
X165000000Y-144678571D02*
X164500000Y-143964285D01*
X164142857Y-144678571D02*
X164142857Y-143178571D01*
X164714285Y-143178571D01*
X164857142Y-143250000D01*
X164928571Y-143321428D01*
X165000000Y-143464285D01*
X165000000Y-143678571D01*
X164928571Y-143821428D01*
X164857142Y-143892857D01*
X164714285Y-143964285D01*
X164142857Y-143964285D01*
X166571428Y-143178571D02*
X167428571Y-143178571D01*
X167000000Y-144678571D02*
X167000000Y-143178571D01*
X169928571Y-144678571D02*
X169428571Y-143964285D01*
X169071428Y-144678571D02*
X169071428Y-143178571D01*
X169642857Y-143178571D01*
X169785714Y-143250000D01*
X169857142Y-143321428D01*
X169928571Y-143464285D01*
X169928571Y-143678571D01*
X169857142Y-143821428D01*
X169785714Y-143892857D01*
X169642857Y-143964285D01*
X169071428Y-143964285D01*
X171714285Y-144678571D02*
X171714285Y-143178571D01*
X173571428Y-144678571D02*
X173571428Y-143178571D01*
X173928571Y-143178571D01*
X174142857Y-143250000D01*
X174285714Y-143392857D01*
X174357142Y-143535714D01*
X174428571Y-143821428D01*
X174428571Y-144035714D01*
X174357142Y-144321428D01*
X174285714Y-144464285D01*
X174142857Y-144607142D01*
X173928571Y-144678571D01*
X173571428Y-144678571D01*
X177000000Y-143250000D02*
X176857142Y-143178571D01*
X176642857Y-143178571D01*
X176428571Y-143250000D01*
X176285714Y-143392857D01*
X176214285Y-143535714D01*
X176142857Y-143821428D01*
X176142857Y-144035714D01*
X176214285Y-144321428D01*
X176285714Y-144464285D01*
X176428571Y-144607142D01*
X176642857Y-144678571D01*
X176785714Y-144678571D01*
X177000000Y-144607142D01*
X177071428Y-144535714D01*
X177071428Y-144035714D01*
X176785714Y-144035714D01*
X178857142Y-143892857D02*
X179357142Y-143892857D01*
X179571428Y-144678571D02*
X178857142Y-144678571D01*
X178857142Y-143178571D01*
X179571428Y-143178571D01*
X181357142Y-144107142D02*
X182500000Y-144107142D01*
X184285714Y-143321428D02*
X184357142Y-143250000D01*
X184500000Y-143178571D01*
X184857142Y-143178571D01*
X185000000Y-143250000D01*
X185071428Y-143321428D01*
X185142857Y-143464285D01*
X185142857Y-143607142D01*
X185071428Y-143821428D01*
X184214285Y-144678571D01*
X185142857Y-144678571D01*
X154738095Y-175357142D02*
X154071428Y-175357142D01*
X154071428Y-176404761D02*
X154071428Y-174404761D01*
X155023809Y-174404761D01*
X158452380Y-176404761D02*
X157785714Y-175452380D01*
X157309523Y-176404761D02*
X157309523Y-174404761D01*
X158071428Y-174404761D01*
X158261904Y-174500000D01*
X158357142Y-174595238D01*
X158452380Y-174785714D01*
X158452380Y-175071428D01*
X158357142Y-175261904D01*
X158261904Y-175357142D01*
X158071428Y-175452380D01*
X157309523Y-175452380D01*
X161214285Y-174404761D02*
X161595238Y-174404761D01*
X161785714Y-174500000D01*
X161976190Y-174690476D01*
X162071428Y-175071428D01*
X162071428Y-175738095D01*
X161976190Y-176119047D01*
X161785714Y-176309523D01*
X161595238Y-176404761D01*
X161214285Y-176404761D01*
X161023809Y-176309523D01*
X160833333Y-176119047D01*
X160738095Y-175738095D01*
X160738095Y-175071428D01*
X160833333Y-174690476D01*
X161023809Y-174500000D01*
X161214285Y-174404761D01*
X164452380Y-176404761D02*
X164452380Y-174404761D01*
X165595238Y-176404761D01*
X165595238Y-174404761D01*
X167785714Y-174404761D02*
X168928571Y-174404761D01*
X168357142Y-176404761D02*
X168357142Y-174404761D01*
X172547619Y-176309523D02*
X172833333Y-176404761D01*
X173309523Y-176404761D01*
X173500000Y-176309523D01*
X173595238Y-176214285D01*
X173690476Y-176023809D01*
X173690476Y-175833333D01*
X173595238Y-175642857D01*
X173500000Y-175547619D01*
X173309523Y-175452380D01*
X172928571Y-175357142D01*
X172738095Y-175261904D01*
X172642857Y-175166666D01*
X172547619Y-174976190D01*
X172547619Y-174785714D01*
X172642857Y-174595238D01*
X172738095Y-174500000D01*
X172928571Y-174404761D01*
X173404761Y-174404761D01*
X173690476Y-174500000D01*
X176071428Y-176404761D02*
X176071428Y-174404761D01*
X178547619Y-176404761D02*
X178547619Y-174404761D01*
X179023809Y-174404761D01*
X179309523Y-174500000D01*
X179500000Y-174690476D01*
X179595238Y-174880952D01*
X179690476Y-175261904D01*
X179690476Y-175547619D01*
X179595238Y-175928571D01*
X179500000Y-176119047D01*
X179309523Y-176309523D01*
X179023809Y-176404761D01*
X178547619Y-176404761D01*
X182071428Y-175357142D02*
X182738095Y-175357142D01*
X183023809Y-176404761D02*
X182071428Y-176404761D01*
X182071428Y-174404761D01*
X183023809Y-174404761D01*
X178226428Y-129318571D02*
X179226428Y-129318571D01*
X178583571Y-130818571D01*
X180440714Y-129818571D02*
X180440714Y-130818571D01*
X180083571Y-129247142D02*
X179726428Y-130318571D01*
X180655000Y-130318571D01*
X181226428Y-130818571D02*
X181226428Y-129318571D01*
X181226428Y-130032857D02*
X182083571Y-130032857D01*
X182083571Y-130818571D02*
X182083571Y-129318571D01*
X183655000Y-130675714D02*
X183583571Y-130747142D01*
X183369285Y-130818571D01*
X183226428Y-130818571D01*
X183012142Y-130747142D01*
X182869285Y-130604285D01*
X182797857Y-130461428D01*
X182726428Y-130175714D01*
X182726428Y-129961428D01*
X182797857Y-129675714D01*
X182869285Y-129532857D01*
X183012142Y-129390000D01*
X183226428Y-129318571D01*
X183369285Y-129318571D01*
X183583571Y-129390000D01*
X183655000Y-129461428D01*
X184155000Y-129318571D02*
X185155000Y-129318571D01*
X184512142Y-130818571D01*
X186369285Y-129818571D02*
X186369285Y-130818571D01*
X186012142Y-129247142D02*
X185655000Y-130318571D01*
X186583571Y-130318571D01*
D12*
X144106904Y-129592380D02*
X144345000Y-130592380D01*
X144535476Y-129878095D01*
X144725952Y-130592380D01*
X144964047Y-129592380D01*
X145297380Y-130306666D02*
X145773571Y-130306666D01*
X145202142Y-130592380D02*
X145535476Y-129592380D01*
X145868809Y-130592380D01*
X146202142Y-130592380D02*
X146202142Y-129592380D01*
X146535476Y-129592380D02*
X147106904Y-129592380D01*
X146821190Y-130592380D02*
X146821190Y-129592380D01*
X148487857Y-129592380D02*
X148487857Y-130306666D01*
X148440238Y-130449523D01*
X148345000Y-130544761D01*
X148202142Y-130592380D01*
X148106904Y-130592380D01*
X148964047Y-130592380D02*
X148964047Y-129592380D01*
X149345000Y-129592380D01*
X149440238Y-129640000D01*
X149487857Y-129687619D01*
X149535476Y-129782857D01*
X149535476Y-129925714D01*
X149487857Y-130020952D01*
X149440238Y-130068571D01*
X149345000Y-130116190D01*
X148964047Y-130116190D01*
D11*
X208500000Y-114964285D02*
X207857142Y-113821428D01*
X209142857Y-113821428D01*
X208500000Y-114964285D01*
X131500000Y-105035714D02*
X132142857Y-106178571D01*
X130857142Y-106178571D01*
X131500000Y-105035714D01*
X131500000Y-132035714D02*
X132142857Y-133178571D01*
X130857142Y-133178571D01*
X131500000Y-132035714D01*
X149928571Y-169678571D02*
X149928571Y-168178571D01*
X150428571Y-169250000D01*
X150928571Y-168178571D01*
X150928571Y-169678571D01*
X152714285Y-169607142D02*
X152928571Y-169678571D01*
X153285714Y-169678571D01*
X153428571Y-169607142D01*
X153500000Y-169535714D01*
X153571428Y-169392857D01*
X153571428Y-169250000D01*
X153500000Y-169107142D01*
X153428571Y-169035714D01*
X153285714Y-168964285D01*
X153000000Y-168892857D01*
X152857142Y-168821428D01*
X152785714Y-168750000D01*
X152714285Y-168607142D01*
X152714285Y-168464285D01*
X152785714Y-168321428D01*
X152857142Y-168250000D01*
X153000000Y-168178571D01*
X153357142Y-168178571D01*
X153571428Y-168250000D01*
X155214285Y-168178571D02*
X156214285Y-169678571D01*
X156214285Y-168178571D02*
X155214285Y-169678571D01*
X159928571Y-169535714D02*
X159857142Y-169607142D01*
X159642857Y-169678571D01*
X159500000Y-169678571D01*
X159285714Y-169607142D01*
X159142857Y-169464285D01*
X159071428Y-169321428D01*
X159000000Y-169035714D01*
X159000000Y-168821428D01*
X159071428Y-168535714D01*
X159142857Y-168392857D01*
X159285714Y-168250000D01*
X159500000Y-168178571D01*
X159642857Y-168178571D01*
X159857142Y-168250000D01*
X159928571Y-168321428D01*
X161642857Y-169250000D02*
X162357142Y-169250000D01*
X161500000Y-169678571D02*
X162000000Y-168178571D01*
X162500000Y-169678571D01*
X165000000Y-169678571D02*
X164500000Y-168964285D01*
X164142857Y-169678571D02*
X164142857Y-168178571D01*
X164714285Y-168178571D01*
X164857142Y-168250000D01*
X164928571Y-168321428D01*
X165000000Y-168464285D01*
X165000000Y-168678571D01*
X164928571Y-168821428D01*
X164857142Y-168892857D01*
X164714285Y-168964285D01*
X164142857Y-168964285D01*
X166571428Y-168178571D02*
X167428571Y-168178571D01*
X167000000Y-169678571D02*
X167000000Y-168178571D01*
X169928571Y-169678571D02*
X169428571Y-168964285D01*
X169071428Y-169678571D02*
X169071428Y-168178571D01*
X169642857Y-168178571D01*
X169785714Y-168250000D01*
X169857142Y-168321428D01*
X169928571Y-168464285D01*
X169928571Y-168678571D01*
X169857142Y-168821428D01*
X169785714Y-168892857D01*
X169642857Y-168964285D01*
X169071428Y-168964285D01*
X171714285Y-169678571D02*
X171714285Y-168178571D01*
X173571428Y-169678571D02*
X173571428Y-168178571D01*
X173928571Y-168178571D01*
X174142857Y-168250000D01*
X174285714Y-168392857D01*
X174357142Y-168535714D01*
X174428571Y-168821428D01*
X174428571Y-169035714D01*
X174357142Y-169321428D01*
X174285714Y-169464285D01*
X174142857Y-169607142D01*
X173928571Y-169678571D01*
X173571428Y-169678571D01*
X177000000Y-168250000D02*
X176857142Y-168178571D01*
X176642857Y-168178571D01*
X176428571Y-168250000D01*
X176285714Y-168392857D01*
X176214285Y-168535714D01*
X176142857Y-168821428D01*
X176142857Y-169035714D01*
X176214285Y-169321428D01*
X176285714Y-169464285D01*
X176428571Y-169607142D01*
X176642857Y-169678571D01*
X176785714Y-169678571D01*
X177000000Y-169607142D01*
X177071428Y-169535714D01*
X177071428Y-169035714D01*
X176785714Y-169035714D01*
X178857142Y-168892857D02*
X179357142Y-168892857D01*
X179571428Y-169678571D02*
X178857142Y-169678571D01*
X178857142Y-168178571D01*
X179571428Y-168178571D01*
X181357142Y-169107142D02*
X182500000Y-169107142D01*
X185142857Y-169678571D02*
X184285714Y-169678571D01*
X184714285Y-169678571D02*
X184714285Y-168178571D01*
X184571428Y-168392857D01*
X184428571Y-168535714D01*
X184285714Y-168607142D01*
D12*
X210404761Y-131579761D02*
X210547619Y-131627380D01*
X210785714Y-131627380D01*
X210880952Y-131579761D01*
X210928571Y-131532142D01*
X210976190Y-131436904D01*
X210976190Y-131341666D01*
X210928571Y-131246428D01*
X210880952Y-131198809D01*
X210785714Y-131151190D01*
X210595238Y-131103571D01*
X210500000Y-131055952D01*
X210452380Y-131008333D01*
X210404761Y-130913095D01*
X210404761Y-130817857D01*
X210452380Y-130722619D01*
X210500000Y-130675000D01*
X210595238Y-130627380D01*
X210833333Y-130627380D01*
X210976190Y-130675000D01*
X211880952Y-131627380D02*
X211404761Y-131627380D01*
X211404761Y-130627380D01*
X212404761Y-130627380D02*
X212595238Y-130627380D01*
X212690476Y-130675000D01*
X212785714Y-130770238D01*
X212833333Y-130960714D01*
X212833333Y-131294047D01*
X212785714Y-131484523D01*
X212690476Y-131579761D01*
X212595238Y-131627380D01*
X212404761Y-131627380D01*
X212309523Y-131579761D01*
X212214285Y-131484523D01*
X212166666Y-131294047D01*
X212166666Y-130960714D01*
X212214285Y-130770238D01*
X212309523Y-130675000D01*
X212404761Y-130627380D01*
X213119047Y-130627380D02*
X213690476Y-130627380D01*
X213404761Y-131627380D02*
X213404761Y-130627380D01*
X209619047Y-133229761D02*
X209761904Y-133277380D01*
X210000000Y-133277380D01*
X210095238Y-133229761D01*
X210142857Y-133182142D01*
X210190476Y-133086904D01*
X210190476Y-132991666D01*
X210142857Y-132896428D01*
X210095238Y-132848809D01*
X210000000Y-132801190D01*
X209809523Y-132753571D01*
X209714285Y-132705952D01*
X209666666Y-132658333D01*
X209619047Y-132563095D01*
X209619047Y-132467857D01*
X209666666Y-132372619D01*
X209714285Y-132325000D01*
X209809523Y-132277380D01*
X210047619Y-132277380D01*
X210190476Y-132325000D01*
X210619047Y-133277380D02*
X210619047Y-132277380D01*
X211619047Y-132325000D02*
X211523809Y-132277380D01*
X211380952Y-132277380D01*
X211238095Y-132325000D01*
X211142857Y-132420238D01*
X211095238Y-132515476D01*
X211047619Y-132705952D01*
X211047619Y-132848809D01*
X211095238Y-133039285D01*
X211142857Y-133134523D01*
X211238095Y-133229761D01*
X211380952Y-133277380D01*
X211476190Y-133277380D01*
X211619047Y-133229761D01*
X211666666Y-133182142D01*
X211666666Y-132848809D01*
X211476190Y-132848809D01*
X212095238Y-133277380D02*
X212095238Y-132277380D01*
X212666666Y-133277380D01*
X212666666Y-132277380D01*
X213095238Y-132991666D02*
X213571428Y-132991666D01*
X213000000Y-133277380D02*
X213333333Y-132277380D01*
X213666666Y-133277380D01*
X214476190Y-133277380D02*
X214000000Y-133277380D01*
X214000000Y-132277380D01*
D11*
X154665238Y-137487142D02*
X154950952Y-137582380D01*
X155046190Y-137677619D01*
X155141428Y-137868095D01*
X155141428Y-138153809D01*
X155046190Y-138344285D01*
X154950952Y-138439523D01*
X154760476Y-138534761D01*
X153998571Y-138534761D01*
X153998571Y-136534761D01*
X154665238Y-136534761D01*
X154855714Y-136630000D01*
X154950952Y-136725238D01*
X155046190Y-136915714D01*
X155046190Y-137106190D01*
X154950952Y-137296666D01*
X154855714Y-137391904D01*
X154665238Y-137487142D01*
X153998571Y-137487142D01*
X157427142Y-137963333D02*
X158379523Y-137963333D01*
X157236666Y-138534761D02*
X157903333Y-136534761D01*
X158570000Y-138534761D01*
X161903333Y-138344285D02*
X161808095Y-138439523D01*
X161522380Y-138534761D01*
X161331904Y-138534761D01*
X161046190Y-138439523D01*
X160855714Y-138249047D01*
X160760476Y-138058571D01*
X160665238Y-137677619D01*
X160665238Y-137391904D01*
X160760476Y-137010952D01*
X160855714Y-136820476D01*
X161046190Y-136630000D01*
X161331904Y-136534761D01*
X161522380Y-136534761D01*
X161808095Y-136630000D01*
X161903333Y-136725238D01*
X164284285Y-138534761D02*
X164284285Y-136534761D01*
X165427142Y-138534761D02*
X164570000Y-137391904D01*
X165427142Y-136534761D02*
X164284285Y-137677619D01*
X170760476Y-138439523D02*
X171046190Y-138534761D01*
X171522380Y-138534761D01*
X171712857Y-138439523D01*
X171808095Y-138344285D01*
X171903333Y-138153809D01*
X171903333Y-137963333D01*
X171808095Y-137772857D01*
X171712857Y-137677619D01*
X171522380Y-137582380D01*
X171141428Y-137487142D01*
X170950952Y-137391904D01*
X170855714Y-137296666D01*
X170760476Y-137106190D01*
X170760476Y-136915714D01*
X170855714Y-136725238D01*
X170950952Y-136630000D01*
X171141428Y-136534761D01*
X171617619Y-136534761D01*
X171903333Y-136630000D01*
X174284285Y-138534761D02*
X174284285Y-136534761D01*
X176760476Y-138534761D02*
X176760476Y-136534761D01*
X177236666Y-136534761D01*
X177522380Y-136630000D01*
X177712857Y-136820476D01*
X177808095Y-137010952D01*
X177903333Y-137391904D01*
X177903333Y-137677619D01*
X177808095Y-138058571D01*
X177712857Y-138249047D01*
X177522380Y-138439523D01*
X177236666Y-138534761D01*
X176760476Y-138534761D01*
X180284285Y-137487142D02*
X180950952Y-137487142D01*
X181236666Y-138534761D02*
X180284285Y-138534761D01*
X180284285Y-136534761D01*
X181236666Y-136534761D01*
D12*
X195964761Y-90661428D02*
X196012380Y-90518571D01*
X196012380Y-90280476D01*
X195964761Y-90185238D01*
X195917142Y-90137619D01*
X195821904Y-90090000D01*
X195726666Y-90090000D01*
X195631428Y-90137619D01*
X195583809Y-90185238D01*
X195536190Y-90280476D01*
X195488571Y-90470952D01*
X195440952Y-90566190D01*
X195393333Y-90613809D01*
X195298095Y-90661428D01*
X195202857Y-90661428D01*
X195107619Y-90613809D01*
X195060000Y-90566190D01*
X195012380Y-90470952D01*
X195012380Y-90232857D01*
X195060000Y-90090000D01*
X195488571Y-89328095D02*
X195536190Y-89185238D01*
X195583809Y-89137619D01*
X195679047Y-89090000D01*
X195821904Y-89090000D01*
X195917142Y-89137619D01*
X195964761Y-89185238D01*
X196012380Y-89280476D01*
X196012380Y-89661428D01*
X195012380Y-89661428D01*
X195012380Y-89328095D01*
X195060000Y-89232857D01*
X195107619Y-89185238D01*
X195202857Y-89137619D01*
X195298095Y-89137619D01*
X195393333Y-89185238D01*
X195440952Y-89232857D01*
X195488571Y-89328095D01*
X195488571Y-89661428D01*
X195917142Y-88090000D02*
X195964761Y-88137619D01*
X196012380Y-88280476D01*
X196012380Y-88375714D01*
X195964761Y-88518571D01*
X195869523Y-88613809D01*
X195774285Y-88661428D01*
X195583809Y-88709047D01*
X195440952Y-88709047D01*
X195250476Y-88661428D01*
X195155238Y-88613809D01*
X195060000Y-88518571D01*
X195012380Y-88375714D01*
X195012380Y-88280476D01*
X195060000Y-88137619D01*
X195107619Y-88090000D01*
X195440952Y-87518571D02*
X195393333Y-87613809D01*
X195345714Y-87661428D01*
X195250476Y-87709047D01*
X195202857Y-87709047D01*
X195107619Y-87661428D01*
X195060000Y-87613809D01*
X195012380Y-87518571D01*
X195012380Y-87328095D01*
X195060000Y-87232857D01*
X195107619Y-87185238D01*
X195202857Y-87137619D01*
X195250476Y-87137619D01*
X195345714Y-87185238D01*
X195393333Y-87232857D01*
X195440952Y-87328095D01*
X195440952Y-87518571D01*
X195488571Y-87613809D01*
X195536190Y-87661428D01*
X195631428Y-87709047D01*
X195821904Y-87709047D01*
X195917142Y-87661428D01*
X195964761Y-87613809D01*
X196012380Y-87518571D01*
X196012380Y-87328095D01*
X195964761Y-87232857D01*
X195917142Y-87185238D01*
X195821904Y-87137619D01*
X195631428Y-87137619D01*
X195536190Y-87185238D01*
X195488571Y-87232857D01*
X195440952Y-87328095D01*
X195012380Y-86518571D02*
X195012380Y-86423333D01*
X195060000Y-86328095D01*
X195107619Y-86280476D01*
X195202857Y-86232857D01*
X195393333Y-86185238D01*
X195631428Y-86185238D01*
X195821904Y-86232857D01*
X195917142Y-86280476D01*
X195964761Y-86328095D01*
X196012380Y-86423333D01*
X196012380Y-86518571D01*
X195964761Y-86613809D01*
X195917142Y-86661428D01*
X195821904Y-86709047D01*
X195631428Y-86756666D01*
X195393333Y-86756666D01*
X195202857Y-86709047D01*
X195107619Y-86661428D01*
X195060000Y-86613809D01*
X195012380Y-86518571D01*
X195440952Y-85613809D02*
X195393333Y-85709047D01*
X195345714Y-85756666D01*
X195250476Y-85804285D01*
X195202857Y-85804285D01*
X195107619Y-85756666D01*
X195060000Y-85709047D01*
X195012380Y-85613809D01*
X195012380Y-85423333D01*
X195060000Y-85328095D01*
X195107619Y-85280476D01*
X195202857Y-85232857D01*
X195250476Y-85232857D01*
X195345714Y-85280476D01*
X195393333Y-85328095D01*
X195440952Y-85423333D01*
X195440952Y-85613809D01*
X195488571Y-85709047D01*
X195536190Y-85756666D01*
X195631428Y-85804285D01*
X195821904Y-85804285D01*
X195917142Y-85756666D01*
X195964761Y-85709047D01*
X196012380Y-85613809D01*
X196012380Y-85423333D01*
X195964761Y-85328095D01*
X195917142Y-85280476D01*
X195821904Y-85232857D01*
X195631428Y-85232857D01*
X195536190Y-85280476D01*
X195488571Y-85328095D01*
X195440952Y-85423333D01*
X195012380Y-84613809D02*
X195012380Y-84518571D01*
X195060000Y-84423333D01*
X195107619Y-84375714D01*
X195202857Y-84328095D01*
X195393333Y-84280476D01*
X195631428Y-84280476D01*
X195821904Y-84328095D01*
X195917142Y-84375714D01*
X195964761Y-84423333D01*
X196012380Y-84518571D01*
X196012380Y-84613809D01*
X195964761Y-84709047D01*
X195917142Y-84756666D01*
X195821904Y-84804285D01*
X195631428Y-84851904D01*
X195393333Y-84851904D01*
X195202857Y-84804285D01*
X195107619Y-84756666D01*
X195060000Y-84709047D01*
X195012380Y-84613809D01*
X195488571Y-82756666D02*
X195536190Y-82613809D01*
X195583809Y-82566190D01*
X195679047Y-82518571D01*
X195821904Y-82518571D01*
X195917142Y-82566190D01*
X195964761Y-82613809D01*
X196012380Y-82709047D01*
X196012380Y-83090000D01*
X195012380Y-83090000D01*
X195012380Y-82756666D01*
X195060000Y-82661428D01*
X195107619Y-82613809D01*
X195202857Y-82566190D01*
X195298095Y-82566190D01*
X195393333Y-82613809D01*
X195440952Y-82661428D01*
X195488571Y-82756666D01*
X195488571Y-83090000D01*
X195012380Y-82090000D02*
X195821904Y-82090000D01*
X195917142Y-82042380D01*
X195964761Y-81994761D01*
X196012380Y-81899523D01*
X196012380Y-81709047D01*
X195964761Y-81613809D01*
X195917142Y-81566190D01*
X195821904Y-81518571D01*
X195012380Y-81518571D01*
X195964761Y-81090000D02*
X196012380Y-80947142D01*
X196012380Y-80709047D01*
X195964761Y-80613809D01*
X195917142Y-80566190D01*
X195821904Y-80518571D01*
X195726666Y-80518571D01*
X195631428Y-80566190D01*
X195583809Y-80613809D01*
X195536190Y-80709047D01*
X195488571Y-80899523D01*
X195440952Y-80994761D01*
X195393333Y-81042380D01*
X195298095Y-81090000D01*
X195202857Y-81090000D01*
X195107619Y-81042380D01*
X195060000Y-80994761D01*
X195012380Y-80899523D01*
X195012380Y-80661428D01*
X195060000Y-80518571D01*
X197743333Y-126222380D02*
X197743333Y-125222380D01*
X198219523Y-126222380D02*
X198219523Y-125222380D01*
X198790952Y-126222380D01*
X198790952Y-125222380D01*
X199124285Y-125222380D02*
X199695714Y-125222380D01*
X199410000Y-126222380D02*
X199410000Y-125222380D01*
X201076666Y-125222380D02*
X201076666Y-125936666D01*
X201029047Y-126079523D01*
X200933809Y-126174761D01*
X200790952Y-126222380D01*
X200695714Y-126222380D01*
X201552857Y-126222380D02*
X201552857Y-125222380D01*
X201933809Y-125222380D01*
X202029047Y-125270000D01*
X202076666Y-125317619D01*
X202124285Y-125412857D01*
X202124285Y-125555714D01*
X202076666Y-125650952D01*
X202029047Y-125698571D01*
X201933809Y-125746190D01*
X201552857Y-125746190D01*
X194594285Y-116327380D02*
X195260952Y-116327380D01*
X194594285Y-117327380D01*
X195260952Y-117327380D01*
X195784761Y-116755952D02*
X195689523Y-116708333D01*
X195641904Y-116660714D01*
X195594285Y-116565476D01*
X195594285Y-116517857D01*
X195641904Y-116422619D01*
X195689523Y-116375000D01*
X195784761Y-116327380D01*
X195975238Y-116327380D01*
X196070476Y-116375000D01*
X196118095Y-116422619D01*
X196165714Y-116517857D01*
X196165714Y-116565476D01*
X196118095Y-116660714D01*
X196070476Y-116708333D01*
X195975238Y-116755952D01*
X195784761Y-116755952D01*
X195689523Y-116803571D01*
X195641904Y-116851190D01*
X195594285Y-116946428D01*
X195594285Y-117136904D01*
X195641904Y-117232142D01*
X195689523Y-117279761D01*
X195784761Y-117327380D01*
X195975238Y-117327380D01*
X196070476Y-117279761D01*
X196118095Y-117232142D01*
X196165714Y-117136904D01*
X196165714Y-116946428D01*
X196118095Y-116851190D01*
X196070476Y-116803571D01*
X195975238Y-116755952D01*
X196784761Y-116327380D02*
X196880000Y-116327380D01*
X196975238Y-116375000D01*
X197022857Y-116422619D01*
X197070476Y-116517857D01*
X197118095Y-116708333D01*
X197118095Y-116946428D01*
X197070476Y-117136904D01*
X197022857Y-117232142D01*
X196975238Y-117279761D01*
X196880000Y-117327380D01*
X196784761Y-117327380D01*
X196689523Y-117279761D01*
X196641904Y-117232142D01*
X196594285Y-117136904D01*
X196546666Y-116946428D01*
X196546666Y-116708333D01*
X196594285Y-116517857D01*
X196641904Y-116422619D01*
X196689523Y-116375000D01*
X196784761Y-116327380D01*
X194903809Y-118882142D02*
X194856190Y-118929761D01*
X194713333Y-118977380D01*
X194618095Y-118977380D01*
X194475238Y-118929761D01*
X194380000Y-118834523D01*
X194332380Y-118739285D01*
X194284761Y-118548809D01*
X194284761Y-118405952D01*
X194332380Y-118215476D01*
X194380000Y-118120238D01*
X194475238Y-118025000D01*
X194618095Y-117977380D01*
X194713333Y-117977380D01*
X194856190Y-118025000D01*
X194903809Y-118072619D01*
X195189523Y-117977380D02*
X195760952Y-117977380D01*
X195475238Y-118977380D02*
X195475238Y-117977380D01*
X196665714Y-118977380D02*
X196332380Y-118501190D01*
X196094285Y-118977380D02*
X196094285Y-117977380D01*
X196475238Y-117977380D01*
X196570476Y-118025000D01*
X196618095Y-118072619D01*
X196665714Y-118167857D01*
X196665714Y-118310714D01*
X196618095Y-118405952D01*
X196570476Y-118453571D01*
X196475238Y-118501190D01*
X196094285Y-118501190D01*
X197570476Y-118977380D02*
X197094285Y-118977380D01*
X197094285Y-117977380D01*
X195946666Y-122532380D02*
X195946666Y-123246666D01*
X195899047Y-123389523D01*
X195803809Y-123484761D01*
X195660952Y-123532380D01*
X195565714Y-123532380D01*
X196327619Y-122532380D02*
X196946666Y-122532380D01*
X196613333Y-122913333D01*
X196756190Y-122913333D01*
X196851428Y-122960952D01*
X196899047Y-123008571D01*
X196946666Y-123103809D01*
X196946666Y-123341904D01*
X196899047Y-123437142D01*
X196851428Y-123484761D01*
X196756190Y-123532380D01*
X196470476Y-123532380D01*
X196375238Y-123484761D01*
X196327619Y-123437142D01*
X204315238Y-128792380D02*
X204315238Y-127792380D01*
X204791428Y-128792380D02*
X204791428Y-127792380D01*
X205362857Y-128792380D01*
X205362857Y-127792380D01*
X205696190Y-127792380D02*
X206267619Y-127792380D01*
X205981904Y-128792380D02*
X205981904Y-127792380D01*
X203672380Y-126244761D02*
X203815238Y-126292380D01*
X204053333Y-126292380D01*
X204148571Y-126244761D01*
X204196190Y-126197142D01*
X204243809Y-126101904D01*
X204243809Y-126006666D01*
X204196190Y-125911428D01*
X204148571Y-125863809D01*
X204053333Y-125816190D01*
X203862857Y-125768571D01*
X203767619Y-125720952D01*
X203720000Y-125673333D01*
X203672380Y-125578095D01*
X203672380Y-125482857D01*
X203720000Y-125387619D01*
X203767619Y-125340000D01*
X203862857Y-125292380D01*
X204100952Y-125292380D01*
X204243809Y-125340000D01*
X205148571Y-126292380D02*
X204672380Y-126292380D01*
X204672380Y-125292380D01*
X205339047Y-125292380D02*
X205910476Y-125292380D01*
X205624761Y-126292380D02*
X205624761Y-125292380D01*
X206148571Y-125292380D02*
X206767619Y-125292380D01*
X206434285Y-125673333D01*
X206577142Y-125673333D01*
X206672380Y-125720952D01*
X206720000Y-125768571D01*
X206767619Y-125863809D01*
X206767619Y-126101904D01*
X206720000Y-126197142D01*
X206672380Y-126244761D01*
X206577142Y-126292380D01*
X206291428Y-126292380D01*
X206196190Y-126244761D01*
X206148571Y-126197142D01*
X203481904Y-122425000D02*
X204434285Y-122425000D01*
X203672380Y-123744761D02*
X203815238Y-123792380D01*
X204053333Y-123792380D01*
X204148571Y-123744761D01*
X204196190Y-123697142D01*
X204243809Y-123601904D01*
X204243809Y-123506666D01*
X204196190Y-123411428D01*
X204148571Y-123363809D01*
X204053333Y-123316190D01*
X203862857Y-123268571D01*
X203767619Y-123220952D01*
X203720000Y-123173333D01*
X203672380Y-123078095D01*
X203672380Y-122982857D01*
X203720000Y-122887619D01*
X203767619Y-122840000D01*
X203862857Y-122792380D01*
X204100952Y-122792380D01*
X204243809Y-122840000D01*
X204434285Y-122425000D02*
X205243809Y-122425000D01*
X205148571Y-123792380D02*
X204672380Y-123792380D01*
X204672380Y-122792380D01*
X205243809Y-122425000D02*
X206005714Y-122425000D01*
X205339047Y-122792380D02*
X205910476Y-122792380D01*
X205624761Y-123792380D02*
X205624761Y-122792380D01*
X206005714Y-122425000D02*
X206958095Y-122425000D01*
X206148571Y-122792380D02*
X206767619Y-122792380D01*
X206434285Y-123173333D01*
X206577142Y-123173333D01*
X206672380Y-123220952D01*
X206720000Y-123268571D01*
X206767619Y-123363809D01*
X206767619Y-123601904D01*
X206720000Y-123697142D01*
X206672380Y-123744761D01*
X206577142Y-123792380D01*
X206291428Y-123792380D01*
X206196190Y-123744761D01*
X206148571Y-123697142D01*
X203481904Y-119925000D02*
X204434285Y-119925000D01*
X203672380Y-121244761D02*
X203815238Y-121292380D01*
X204053333Y-121292380D01*
X204148571Y-121244761D01*
X204196190Y-121197142D01*
X204243809Y-121101904D01*
X204243809Y-121006666D01*
X204196190Y-120911428D01*
X204148571Y-120863809D01*
X204053333Y-120816190D01*
X203862857Y-120768571D01*
X203767619Y-120720952D01*
X203720000Y-120673333D01*
X203672380Y-120578095D01*
X203672380Y-120482857D01*
X203720000Y-120387619D01*
X203767619Y-120340000D01*
X203862857Y-120292380D01*
X204100952Y-120292380D01*
X204243809Y-120340000D01*
X204434285Y-119925000D02*
X205243809Y-119925000D01*
X205148571Y-121292380D02*
X204672380Y-121292380D01*
X204672380Y-120292380D01*
X205243809Y-119925000D02*
X206005714Y-119925000D01*
X205339047Y-120292380D02*
X205910476Y-120292380D01*
X205624761Y-121292380D02*
X205624761Y-120292380D01*
X206005714Y-119925000D02*
X206958095Y-119925000D01*
X206196190Y-120387619D02*
X206243809Y-120340000D01*
X206339047Y-120292380D01*
X206577142Y-120292380D01*
X206672380Y-120340000D01*
X206720000Y-120387619D01*
X206767619Y-120482857D01*
X206767619Y-120578095D01*
X206720000Y-120720952D01*
X206148571Y-121292380D01*
X206767619Y-121292380D01*
X203481904Y-116925000D02*
X204434285Y-116925000D01*
X203672380Y-118244761D02*
X203815238Y-118292380D01*
X204053333Y-118292380D01*
X204148571Y-118244761D01*
X204196190Y-118197142D01*
X204243809Y-118101904D01*
X204243809Y-118006666D01*
X204196190Y-117911428D01*
X204148571Y-117863809D01*
X204053333Y-117816190D01*
X203862857Y-117768571D01*
X203767619Y-117720952D01*
X203720000Y-117673333D01*
X203672380Y-117578095D01*
X203672380Y-117482857D01*
X203720000Y-117387619D01*
X203767619Y-117340000D01*
X203862857Y-117292380D01*
X204100952Y-117292380D01*
X204243809Y-117340000D01*
X204434285Y-116925000D02*
X205243809Y-116925000D01*
X205148571Y-118292380D02*
X204672380Y-118292380D01*
X204672380Y-117292380D01*
X205243809Y-116925000D02*
X206005714Y-116925000D01*
X205339047Y-117292380D02*
X205910476Y-117292380D01*
X205624761Y-118292380D02*
X205624761Y-117292380D01*
X206005714Y-116925000D02*
X206958095Y-116925000D01*
X206434285Y-117292380D02*
X206529523Y-117292380D01*
X206624761Y-117340000D01*
X206672380Y-117387619D01*
X206720000Y-117482857D01*
X206767619Y-117673333D01*
X206767619Y-117911428D01*
X206720000Y-118101904D01*
X206672380Y-118197142D01*
X206624761Y-118244761D01*
X206529523Y-118292380D01*
X206434285Y-118292380D01*
X206339047Y-118244761D01*
X206291428Y-118197142D01*
X206243809Y-118101904D01*
X206196190Y-117911428D01*
X206196190Y-117673333D01*
X206243809Y-117482857D01*
X206291428Y-117387619D01*
X206339047Y-117340000D01*
X206434285Y-117292380D01*
D13*
X124072380Y-123282380D02*
X124072380Y-122615714D01*
X125072380Y-123282380D01*
X125072380Y-122615714D01*
X124500952Y-122091904D02*
X124453333Y-122187142D01*
X124405714Y-122234761D01*
X124310476Y-122282380D01*
X124262857Y-122282380D01*
X124167619Y-122234761D01*
X124120000Y-122187142D01*
X124072380Y-122091904D01*
X124072380Y-121901428D01*
X124120000Y-121806190D01*
X124167619Y-121758571D01*
X124262857Y-121710952D01*
X124310476Y-121710952D01*
X124405714Y-121758571D01*
X124453333Y-121806190D01*
X124500952Y-121901428D01*
X124500952Y-122091904D01*
X124548571Y-122187142D01*
X124596190Y-122234761D01*
X124691428Y-122282380D01*
X124881904Y-122282380D01*
X124977142Y-122234761D01*
X125024761Y-122187142D01*
X125072380Y-122091904D01*
X125072380Y-121901428D01*
X125024761Y-121806190D01*
X124977142Y-121758571D01*
X124881904Y-121710952D01*
X124691428Y-121710952D01*
X124596190Y-121758571D01*
X124548571Y-121806190D01*
X124500952Y-121901428D01*
X124072380Y-121091904D02*
X124072380Y-120996666D01*
X124120000Y-120901428D01*
X124167619Y-120853809D01*
X124262857Y-120806190D01*
X124453333Y-120758571D01*
X124691428Y-120758571D01*
X124881904Y-120806190D01*
X124977142Y-120853809D01*
X125024761Y-120901428D01*
X125072380Y-120996666D01*
X125072380Y-121091904D01*
X125024761Y-121187142D01*
X124977142Y-121234761D01*
X124881904Y-121282380D01*
X124691428Y-121330000D01*
X124453333Y-121330000D01*
X124262857Y-121282380D01*
X124167619Y-121234761D01*
X124120000Y-121187142D01*
X124072380Y-121091904D01*
X124977142Y-118996666D02*
X125024761Y-119044285D01*
X125072380Y-119187142D01*
X125072380Y-119282380D01*
X125024761Y-119425238D01*
X124929523Y-119520476D01*
X124834285Y-119568095D01*
X124643809Y-119615714D01*
X124500952Y-119615714D01*
X124310476Y-119568095D01*
X124215238Y-119520476D01*
X124120000Y-119425238D01*
X124072380Y-119282380D01*
X124072380Y-119187142D01*
X124120000Y-119044285D01*
X124167619Y-118996666D01*
X124072380Y-118710952D02*
X124072380Y-118139523D01*
X125072380Y-118425238D02*
X124072380Y-118425238D01*
X125072380Y-117234761D02*
X124596190Y-117568095D01*
X125072380Y-117806190D02*
X124072380Y-117806190D01*
X124072380Y-117425238D01*
X124120000Y-117330000D01*
X124167619Y-117282380D01*
X124262857Y-117234761D01*
X124405714Y-117234761D01*
X124500952Y-117282380D01*
X124548571Y-117330000D01*
X124596190Y-117425238D01*
X124596190Y-117806190D01*
X125072380Y-116330000D02*
X125072380Y-116806190D01*
X124072380Y-116806190D01*
X125072380Y-98913333D02*
X124072380Y-98913333D01*
X124072380Y-98532380D01*
X124120000Y-98437142D01*
X124167619Y-98389523D01*
X124262857Y-98341904D01*
X124405714Y-98341904D01*
X124500952Y-98389523D01*
X124548571Y-98437142D01*
X124596190Y-98532380D01*
X124596190Y-98913333D01*
X125072380Y-97913333D02*
X124072380Y-97913333D01*
X124072380Y-97532380D01*
X124120000Y-97437142D01*
X124167619Y-97389523D01*
X124262857Y-97341904D01*
X124405714Y-97341904D01*
X124500952Y-97389523D01*
X124548571Y-97437142D01*
X124596190Y-97532380D01*
X124596190Y-97913333D01*
X125072380Y-96913333D02*
X124072380Y-96913333D01*
X125072380Y-95675238D02*
X124072380Y-95675238D01*
X124072380Y-95294285D01*
X124120000Y-95199047D01*
X124167619Y-95151428D01*
X124262857Y-95103809D01*
X124405714Y-95103809D01*
X124500952Y-95151428D01*
X124548571Y-95199047D01*
X124596190Y-95294285D01*
X124596190Y-95675238D01*
X124072380Y-94484761D02*
X124072380Y-94294285D01*
X124120000Y-94199047D01*
X124215238Y-94103809D01*
X124405714Y-94056190D01*
X124739047Y-94056190D01*
X124929523Y-94103809D01*
X125024761Y-94199047D01*
X125072380Y-94294285D01*
X125072380Y-94484761D01*
X125024761Y-94580000D01*
X124929523Y-94675238D01*
X124739047Y-94722857D01*
X124405714Y-94722857D01*
X124215238Y-94675238D01*
X124120000Y-94580000D01*
X124072380Y-94484761D01*
X125072380Y-93056190D02*
X124596190Y-93389523D01*
X125072380Y-93627619D02*
X124072380Y-93627619D01*
X124072380Y-93246666D01*
X124120000Y-93151428D01*
X124167619Y-93103809D01*
X124262857Y-93056190D01*
X124405714Y-93056190D01*
X124500952Y-93103809D01*
X124548571Y-93151428D01*
X124596190Y-93246666D01*
X124596190Y-93627619D01*
X124072380Y-92770476D02*
X124072380Y-92199047D01*
X125072380Y-92484761D02*
X124072380Y-92484761D01*
X124691428Y-91865714D02*
X124691428Y-91103809D01*
X124786666Y-90675238D02*
X124786666Y-90199047D01*
X125072380Y-90770476D02*
X124072380Y-90437142D01*
X125072380Y-90103809D01*
D11*
X177791428Y-116948571D02*
X178791428Y-116948571D01*
X178148571Y-118448571D01*
X180005714Y-117448571D02*
X180005714Y-118448571D01*
X179648571Y-116877142D02*
X179291428Y-117948571D01*
X180220000Y-117948571D01*
X180791428Y-118448571D02*
X180791428Y-116948571D01*
X180791428Y-117662857D02*
X181648571Y-117662857D01*
X181648571Y-118448571D02*
X181648571Y-116948571D01*
X183220000Y-118305714D02*
X183148571Y-118377142D01*
X182934285Y-118448571D01*
X182791428Y-118448571D01*
X182577142Y-118377142D01*
X182434285Y-118234285D01*
X182362857Y-118091428D01*
X182291428Y-117805714D01*
X182291428Y-117591428D01*
X182362857Y-117305714D01*
X182434285Y-117162857D01*
X182577142Y-117020000D01*
X182791428Y-116948571D01*
X182934285Y-116948571D01*
X183148571Y-117020000D01*
X183220000Y-117091428D01*
X184148571Y-116948571D02*
X184291428Y-116948571D01*
X184434285Y-117020000D01*
X184505714Y-117091428D01*
X184577142Y-117234285D01*
X184648571Y-117520000D01*
X184648571Y-117877142D01*
X184577142Y-118162857D01*
X184505714Y-118305714D01*
X184434285Y-118377142D01*
X184291428Y-118448571D01*
X184148571Y-118448571D01*
X184005714Y-118377142D01*
X183934285Y-118305714D01*
X183862857Y-118162857D01*
X183791428Y-117877142D01*
X183791428Y-117520000D01*
X183862857Y-117234285D01*
X183934285Y-117091428D01*
X184005714Y-117020000D01*
X184148571Y-116948571D01*
X185577142Y-116948571D02*
X185720000Y-116948571D01*
X185862857Y-117020000D01*
X185934285Y-117091428D01*
X186005714Y-117234285D01*
X186077142Y-117520000D01*
X186077142Y-117877142D01*
X186005714Y-118162857D01*
X185934285Y-118305714D01*
X185862857Y-118377142D01*
X185720000Y-118448571D01*
X185577142Y-118448571D01*
X185434285Y-118377142D01*
X185362857Y-118305714D01*
X185291428Y-118162857D01*
X185220000Y-117877142D01*
X185220000Y-117520000D01*
X185291428Y-117234285D01*
X185362857Y-117091428D01*
X185434285Y-117020000D01*
X185577142Y-116948571D01*
X148361428Y-117108571D02*
X149361428Y-117108571D01*
X148718571Y-118608571D01*
X150575714Y-117608571D02*
X150575714Y-118608571D01*
X150218571Y-117037142D02*
X149861428Y-118108571D01*
X150790000Y-118108571D01*
X151361428Y-118608571D02*
X151361428Y-117108571D01*
X151361428Y-117822857D02*
X152218571Y-117822857D01*
X152218571Y-118608571D02*
X152218571Y-117108571D01*
X153790000Y-118465714D02*
X153718571Y-118537142D01*
X153504285Y-118608571D01*
X153361428Y-118608571D01*
X153147142Y-118537142D01*
X153004285Y-118394285D01*
X152932857Y-118251428D01*
X152861428Y-117965714D01*
X152861428Y-117751428D01*
X152932857Y-117465714D01*
X153004285Y-117322857D01*
X153147142Y-117180000D01*
X153361428Y-117108571D01*
X153504285Y-117108571D01*
X153718571Y-117180000D01*
X153790000Y-117251428D01*
X154290000Y-117108571D02*
X155218571Y-117108571D01*
X154718571Y-117680000D01*
X154932857Y-117680000D01*
X155075714Y-117751428D01*
X155147142Y-117822857D01*
X155218571Y-117965714D01*
X155218571Y-118322857D01*
X155147142Y-118465714D01*
X155075714Y-118537142D01*
X154932857Y-118608571D01*
X154504285Y-118608571D01*
X154361428Y-118537142D01*
X154290000Y-118465714D01*
X155790000Y-117251428D02*
X155861428Y-117180000D01*
X156004285Y-117108571D01*
X156361428Y-117108571D01*
X156504285Y-117180000D01*
X156575714Y-117251428D01*
X156647142Y-117394285D01*
X156647142Y-117537142D01*
X156575714Y-117751428D01*
X155718571Y-118608571D01*
X156647142Y-118608571D01*
X197237142Y-104298571D02*
X198237142Y-104298571D01*
X197594285Y-105798571D01*
X199451428Y-104798571D02*
X199451428Y-105798571D01*
X199094285Y-104227142D02*
X198737142Y-105298571D01*
X199665714Y-105298571D01*
X200237142Y-105798571D02*
X200237142Y-104298571D01*
X200237142Y-105012857D02*
X201094285Y-105012857D01*
X201094285Y-105798571D02*
X201094285Y-104298571D01*
X202665714Y-105655714D02*
X202594285Y-105727142D01*
X202380000Y-105798571D01*
X202237142Y-105798571D01*
X202022857Y-105727142D01*
X201880000Y-105584285D01*
X201808571Y-105441428D01*
X201737142Y-105155714D01*
X201737142Y-104941428D01*
X201808571Y-104655714D01*
X201880000Y-104512857D01*
X202022857Y-104370000D01*
X202237142Y-104298571D01*
X202380000Y-104298571D01*
X202594285Y-104370000D01*
X202665714Y-104441428D01*
X204094285Y-105798571D02*
X203237142Y-105798571D01*
X203665714Y-105798571D02*
X203665714Y-104298571D01*
X203522857Y-104512857D01*
X203380000Y-104655714D01*
X203237142Y-104727142D01*
X204594285Y-104298571D02*
X205522857Y-104298571D01*
X205022857Y-104870000D01*
X205237142Y-104870000D01*
X205380000Y-104941428D01*
X205451428Y-105012857D01*
X205522857Y-105155714D01*
X205522857Y-105512857D01*
X205451428Y-105655714D01*
X205380000Y-105727142D01*
X205237142Y-105798571D01*
X204808571Y-105798571D01*
X204665714Y-105727142D01*
X204594285Y-105655714D01*
X206237142Y-105798571D02*
X206522857Y-105798571D01*
X206665714Y-105727142D01*
X206737142Y-105655714D01*
X206880000Y-105441428D01*
X206951428Y-105155714D01*
X206951428Y-104584285D01*
X206880000Y-104441428D01*
X206808571Y-104370000D01*
X206665714Y-104298571D01*
X206380000Y-104298571D01*
X206237142Y-104370000D01*
X206165714Y-104441428D01*
X206094285Y-104584285D01*
X206094285Y-104941428D01*
X206165714Y-105084285D01*
X206237142Y-105155714D01*
X206380000Y-105227142D01*
X206665714Y-105227142D01*
X206808571Y-105155714D01*
X206880000Y-105084285D01*
X206951428Y-104941428D01*
X173431428Y-104458571D02*
X174431428Y-104458571D01*
X173788571Y-105958571D01*
X175645714Y-104958571D02*
X175645714Y-105958571D01*
X175288571Y-104387142D02*
X174931428Y-105458571D01*
X175860000Y-105458571D01*
X176431428Y-105958571D02*
X176431428Y-104458571D01*
X176431428Y-105172857D02*
X177288571Y-105172857D01*
X177288571Y-105958571D02*
X177288571Y-104458571D01*
X178860000Y-105815714D02*
X178788571Y-105887142D01*
X178574285Y-105958571D01*
X178431428Y-105958571D01*
X178217142Y-105887142D01*
X178074285Y-105744285D01*
X178002857Y-105601428D01*
X177931428Y-105315714D01*
X177931428Y-105101428D01*
X178002857Y-104815714D01*
X178074285Y-104672857D01*
X178217142Y-104530000D01*
X178431428Y-104458571D01*
X178574285Y-104458571D01*
X178788571Y-104530000D01*
X178860000Y-104601428D01*
X179788571Y-104458571D02*
X179931428Y-104458571D01*
X180074285Y-104530000D01*
X180145714Y-104601428D01*
X180217142Y-104744285D01*
X180288571Y-105030000D01*
X180288571Y-105387142D01*
X180217142Y-105672857D01*
X180145714Y-105815714D01*
X180074285Y-105887142D01*
X179931428Y-105958571D01*
X179788571Y-105958571D01*
X179645714Y-105887142D01*
X179574285Y-105815714D01*
X179502857Y-105672857D01*
X179431428Y-105387142D01*
X179431428Y-105030000D01*
X179502857Y-104744285D01*
X179574285Y-104601428D01*
X179645714Y-104530000D01*
X179788571Y-104458571D01*
X181217142Y-104458571D02*
X181360000Y-104458571D01*
X181502857Y-104530000D01*
X181574285Y-104601428D01*
X181645714Y-104744285D01*
X181717142Y-105030000D01*
X181717142Y-105387142D01*
X181645714Y-105672857D01*
X181574285Y-105815714D01*
X181502857Y-105887142D01*
X181360000Y-105958571D01*
X181217142Y-105958571D01*
X181074285Y-105887142D01*
X181002857Y-105815714D01*
X180931428Y-105672857D01*
X180860000Y-105387142D01*
X180860000Y-105030000D01*
X180931428Y-104744285D01*
X181002857Y-104601428D01*
X181074285Y-104530000D01*
X181217142Y-104458571D01*
X148277142Y-104618571D02*
X149277142Y-104618571D01*
X148634285Y-106118571D01*
X150491428Y-105118571D02*
X150491428Y-106118571D01*
X150134285Y-104547142D02*
X149777142Y-105618571D01*
X150705714Y-105618571D01*
X151277142Y-106118571D02*
X151277142Y-104618571D01*
X151277142Y-105332857D02*
X152134285Y-105332857D01*
X152134285Y-106118571D02*
X152134285Y-104618571D01*
X153705714Y-105975714D02*
X153634285Y-106047142D01*
X153420000Y-106118571D01*
X153277142Y-106118571D01*
X153062857Y-106047142D01*
X152920000Y-105904285D01*
X152848571Y-105761428D01*
X152777142Y-105475714D01*
X152777142Y-105261428D01*
X152848571Y-104975714D01*
X152920000Y-104832857D01*
X153062857Y-104690000D01*
X153277142Y-104618571D01*
X153420000Y-104618571D01*
X153634285Y-104690000D01*
X153705714Y-104761428D01*
X155134285Y-106118571D02*
X154277142Y-106118571D01*
X154705714Y-106118571D02*
X154705714Y-104618571D01*
X154562857Y-104832857D01*
X154420000Y-104975714D01*
X154277142Y-105047142D01*
X156491428Y-104618571D02*
X155777142Y-104618571D01*
X155705714Y-105332857D01*
X155777142Y-105261428D01*
X155920000Y-105190000D01*
X156277142Y-105190000D01*
X156420000Y-105261428D01*
X156491428Y-105332857D01*
X156562857Y-105475714D01*
X156562857Y-105832857D01*
X156491428Y-105975714D01*
X156420000Y-106047142D01*
X156277142Y-106118571D01*
X155920000Y-106118571D01*
X155777142Y-106047142D01*
X155705714Y-105975714D01*
X157062857Y-104618571D02*
X157991428Y-104618571D01*
X157491428Y-105190000D01*
X157705714Y-105190000D01*
X157848571Y-105261428D01*
X157920000Y-105332857D01*
X157991428Y-105475714D01*
X157991428Y-105832857D01*
X157920000Y-105975714D01*
X157848571Y-106047142D01*
X157705714Y-106118571D01*
X157277142Y-106118571D01*
X157134285Y-106047142D01*
X157062857Y-105975714D01*
X148475714Y-96548571D02*
X148475714Y-95048571D01*
X149332857Y-96548571D02*
X148690000Y-95691428D01*
X149332857Y-95048571D02*
X148475714Y-95905714D01*
X149832857Y-95048571D02*
X150832857Y-95048571D01*
X149832857Y-96548571D01*
X150832857Y-96548571D01*
X151618571Y-95691428D02*
X151475714Y-95620000D01*
X151404285Y-95548571D01*
X151332857Y-95405714D01*
X151332857Y-95334285D01*
X151404285Y-95191428D01*
X151475714Y-95120000D01*
X151618571Y-95048571D01*
X151904285Y-95048571D01*
X152047142Y-95120000D01*
X152118571Y-95191428D01*
X152190000Y-95334285D01*
X152190000Y-95405714D01*
X152118571Y-95548571D01*
X152047142Y-95620000D01*
X151904285Y-95691428D01*
X151618571Y-95691428D01*
X151475714Y-95762857D01*
X151404285Y-95834285D01*
X151332857Y-95977142D01*
X151332857Y-96262857D01*
X151404285Y-96405714D01*
X151475714Y-96477142D01*
X151618571Y-96548571D01*
X151904285Y-96548571D01*
X152047142Y-96477142D01*
X152118571Y-96405714D01*
X152190000Y-96262857D01*
X152190000Y-95977142D01*
X152118571Y-95834285D01*
X152047142Y-95762857D01*
X151904285Y-95691428D01*
X153118571Y-95048571D02*
X153261428Y-95048571D01*
X153404285Y-95120000D01*
X153475714Y-95191428D01*
X153547142Y-95334285D01*
X153618571Y-95620000D01*
X153618571Y-95977142D01*
X153547142Y-96262857D01*
X153475714Y-96405714D01*
X153404285Y-96477142D01*
X153261428Y-96548571D01*
X153118571Y-96548571D01*
X152975714Y-96477142D01*
X152904285Y-96405714D01*
X152832857Y-96262857D01*
X152761428Y-95977142D01*
X152761428Y-95620000D01*
X152832857Y-95334285D01*
X152904285Y-95191428D01*
X152975714Y-95120000D01*
X153118571Y-95048571D01*
X154261428Y-95977142D02*
X155404285Y-95977142D01*
X156118571Y-96548571D02*
X156118571Y-95048571D01*
X156618571Y-96120000D01*
X157118571Y-95048571D01*
X157118571Y-96548571D01*
X157761428Y-96477142D02*
X157975714Y-96548571D01*
X158332857Y-96548571D01*
X158475714Y-96477142D01*
X158547142Y-96405714D01*
X158618571Y-96262857D01*
X158618571Y-96120000D01*
X158547142Y-95977142D01*
X158475714Y-95905714D01*
X158332857Y-95834285D01*
X158047142Y-95762857D01*
X157904285Y-95691428D01*
X157832857Y-95620000D01*
X157761428Y-95477142D01*
X157761428Y-95334285D01*
X157832857Y-95191428D01*
X157904285Y-95120000D01*
X158047142Y-95048571D01*
X158404285Y-95048571D01*
X158618571Y-95120000D01*
X159118571Y-95048571D02*
X160118571Y-96548571D01*
X160118571Y-95048571D02*
X159118571Y-96548571D01*
X161547142Y-96405714D02*
X161475714Y-96477142D01*
X161261428Y-96548571D01*
X161118571Y-96548571D01*
X160904285Y-96477142D01*
X160761428Y-96334285D01*
X160690000Y-96191428D01*
X160618571Y-95905714D01*
X160618571Y-95691428D01*
X160690000Y-95405714D01*
X160761428Y-95262857D01*
X160904285Y-95120000D01*
X161118571Y-95048571D01*
X161261428Y-95048571D01*
X161475714Y-95120000D01*
X161547142Y-95191428D01*
X161975714Y-95048571D02*
X162832857Y-95048571D01*
X162404285Y-96548571D02*
X162404285Y-95048571D01*
X164190000Y-96548571D02*
X163690000Y-95834285D01*
X163332857Y-96548571D02*
X163332857Y-95048571D01*
X163904285Y-95048571D01*
X164047142Y-95120000D01*
X164118571Y-95191428D01*
X164190000Y-95334285D01*
X164190000Y-95548571D01*
X164118571Y-95691428D01*
X164047142Y-95762857D01*
X163904285Y-95834285D01*
X163332857Y-95834285D01*
X165618571Y-95120000D02*
X165475714Y-95048571D01*
X165261428Y-95048571D01*
X165047142Y-95120000D01*
X164904285Y-95262857D01*
X164832857Y-95405714D01*
X164761428Y-95691428D01*
X164761428Y-95905714D01*
X164832857Y-96191428D01*
X164904285Y-96334285D01*
X165047142Y-96477142D01*
X165261428Y-96548571D01*
X165404285Y-96548571D01*
X165618571Y-96477142D01*
X165690000Y-96405714D01*
X165690000Y-95905714D01*
X165404285Y-95905714D01*
X168332857Y-96548571D02*
X167832857Y-95834285D01*
X167475714Y-96548571D02*
X167475714Y-95048571D01*
X168047142Y-95048571D01*
X168190000Y-95120000D01*
X168261428Y-95191428D01*
X168332857Y-95334285D01*
X168332857Y-95548571D01*
X168261428Y-95691428D01*
X168190000Y-95762857D01*
X168047142Y-95834285D01*
X167475714Y-95834285D01*
X168975714Y-95762857D02*
X169475714Y-95762857D01*
X169690000Y-96548571D02*
X168975714Y-96548571D01*
X168975714Y-95048571D01*
X169690000Y-95048571D01*
X170118571Y-95048571D02*
X170618571Y-96548571D01*
X171118571Y-95048571D01*
X171547142Y-95191428D02*
X171618571Y-95120000D01*
X171761428Y-95048571D01*
X172118571Y-95048571D01*
X172261428Y-95120000D01*
X172332857Y-95191428D01*
X172404285Y-95334285D01*
X172404285Y-95477142D01*
X172332857Y-95691428D01*
X171475714Y-96548571D01*
X172404285Y-96548571D01*
X174190000Y-96405714D02*
X174261428Y-96477142D01*
X174190000Y-96548571D01*
X174118571Y-96477142D01*
X174190000Y-96405714D01*
X174190000Y-96548571D01*
X174190000Y-95620000D02*
X174261428Y-95691428D01*
X174190000Y-95762857D01*
X174118571Y-95691428D01*
X174190000Y-95620000D01*
X174190000Y-95762857D01*
X176047142Y-96548571D02*
X176047142Y-95048571D01*
X176547142Y-96120000D01*
X177047142Y-95048571D01*
X177047142Y-96548571D01*
X177690000Y-96477142D02*
X177904285Y-96548571D01*
X178261428Y-96548571D01*
X178404285Y-96477142D01*
X178475714Y-96405714D01*
X178547142Y-96262857D01*
X178547142Y-96120000D01*
X178475714Y-95977142D01*
X178404285Y-95905714D01*
X178261428Y-95834285D01*
X177975714Y-95762857D01*
X177832857Y-95691428D01*
X177761428Y-95620000D01*
X177690000Y-95477142D01*
X177690000Y-95334285D01*
X177761428Y-95191428D01*
X177832857Y-95120000D01*
X177975714Y-95048571D01*
X178332857Y-95048571D01*
X178547142Y-95120000D01*
X179047142Y-95048571D02*
X180047142Y-96548571D01*
X180047142Y-95048571D02*
X179047142Y-96548571D01*
X182618571Y-96548571D02*
X182118571Y-95834285D01*
X181761428Y-96548571D02*
X181761428Y-95048571D01*
X182332857Y-95048571D01*
X182475714Y-95120000D01*
X182547142Y-95191428D01*
X182618571Y-95334285D01*
X182618571Y-95548571D01*
X182547142Y-95691428D01*
X182475714Y-95762857D01*
X182332857Y-95834285D01*
X181761428Y-95834285D01*
X183547142Y-95048571D02*
X183832857Y-95048571D01*
X183975714Y-95120000D01*
X184118571Y-95262857D01*
X184190000Y-95548571D01*
X184190000Y-96048571D01*
X184118571Y-96334285D01*
X183975714Y-96477142D01*
X183832857Y-96548571D01*
X183547142Y-96548571D01*
X183404285Y-96477142D01*
X183261428Y-96334285D01*
X183190000Y-96048571D01*
X183190000Y-95548571D01*
X183261428Y-95262857D01*
X183404285Y-95120000D01*
X183547142Y-95048571D01*
X184832857Y-96548571D02*
X184832857Y-95048571D01*
X185332857Y-96120000D01*
X185832857Y-95048571D01*
X185832857Y-96548571D01*
X188547142Y-96405714D02*
X188475714Y-96477142D01*
X188261428Y-96548571D01*
X188118571Y-96548571D01*
X187904285Y-96477142D01*
X187761428Y-96334285D01*
X187690000Y-96191428D01*
X187618571Y-95905714D01*
X187618571Y-95691428D01*
X187690000Y-95405714D01*
X187761428Y-95262857D01*
X187904285Y-95120000D01*
X188118571Y-95048571D01*
X188261428Y-95048571D01*
X188475714Y-95120000D01*
X188547142Y-95191428D01*
X189832857Y-96548571D02*
X189832857Y-95762857D01*
X189761428Y-95620000D01*
X189618571Y-95548571D01*
X189332857Y-95548571D01*
X189190000Y-95620000D01*
X189832857Y-96477142D02*
X189690000Y-96548571D01*
X189332857Y-96548571D01*
X189190000Y-96477142D01*
X189118571Y-96334285D01*
X189118571Y-96191428D01*
X189190000Y-96048571D01*
X189332857Y-95977142D01*
X189690000Y-95977142D01*
X189832857Y-95905714D01*
X190547142Y-96548571D02*
X190547142Y-95548571D01*
X190547142Y-95834285D02*
X190618571Y-95691428D01*
X190690000Y-95620000D01*
X190832857Y-95548571D01*
X190975714Y-95548571D01*
X191261428Y-95548571D02*
X191832857Y-95548571D01*
X191475714Y-95048571D02*
X191475714Y-96334285D01*
X191547142Y-96477142D01*
X191690000Y-96548571D01*
X191832857Y-96548571D01*
X192332857Y-96548571D02*
X192332857Y-95548571D01*
X192332857Y-95834285D02*
X192404285Y-95691428D01*
X192475714Y-95620000D01*
X192618571Y-95548571D01*
X192761428Y-95548571D01*
X193261428Y-96548571D02*
X193261428Y-95548571D01*
X193261428Y-95048571D02*
X193190000Y-95120000D01*
X193261428Y-95191428D01*
X193332857Y-95120000D01*
X193261428Y-95048571D01*
X193261428Y-95191428D01*
X194618571Y-96548571D02*
X194618571Y-95048571D01*
X194618571Y-96477142D02*
X194475714Y-96548571D01*
X194190000Y-96548571D01*
X194047142Y-96477142D01*
X193975714Y-96405714D01*
X193904285Y-96262857D01*
X193904285Y-95834285D01*
X193975714Y-95691428D01*
X194047142Y-95620000D01*
X194190000Y-95548571D01*
X194475714Y-95548571D01*
X194618571Y-95620000D01*
X195975714Y-95548571D02*
X195975714Y-96762857D01*
X195904285Y-96905714D01*
X195832857Y-96977142D01*
X195690000Y-97048571D01*
X195475714Y-97048571D01*
X195332857Y-96977142D01*
X195975714Y-96477142D02*
X195832857Y-96548571D01*
X195547142Y-96548571D01*
X195404285Y-96477142D01*
X195332857Y-96405714D01*
X195261428Y-96262857D01*
X195261428Y-95834285D01*
X195332857Y-95691428D01*
X195404285Y-95620000D01*
X195547142Y-95548571D01*
X195832857Y-95548571D01*
X195975714Y-95620000D01*
X197261428Y-96477142D02*
X197118571Y-96548571D01*
X196832857Y-96548571D01*
X196690000Y-96477142D01*
X196618571Y-96334285D01*
X196618571Y-95762857D01*
X196690000Y-95620000D01*
X196832857Y-95548571D01*
X197118571Y-95548571D01*
X197261428Y-95620000D01*
X197332857Y-95762857D01*
X197332857Y-95905714D01*
X196618571Y-96048571D01*
X199618571Y-95762857D02*
X199832857Y-95834285D01*
X199904285Y-95905714D01*
X199975714Y-96048571D01*
X199975714Y-96262857D01*
X199904285Y-96405714D01*
X199832857Y-96477142D01*
X199690000Y-96548571D01*
X199118571Y-96548571D01*
X199118571Y-95048571D01*
X199618571Y-95048571D01*
X199761428Y-95120000D01*
X199832857Y-95191428D01*
X199904285Y-95334285D01*
X199904285Y-95477142D01*
X199832857Y-95620000D01*
X199761428Y-95691428D01*
X199618571Y-95762857D01*
X199118571Y-95762857D01*
X200904285Y-95048571D02*
X201190000Y-95048571D01*
X201332857Y-95120000D01*
X201475714Y-95262857D01*
X201547142Y-95548571D01*
X201547142Y-96048571D01*
X201475714Y-96334285D01*
X201332857Y-96477142D01*
X201190000Y-96548571D01*
X200904285Y-96548571D01*
X200761428Y-96477142D01*
X200618571Y-96334285D01*
X200547142Y-96048571D01*
X200547142Y-95548571D01*
X200618571Y-95262857D01*
X200761428Y-95120000D01*
X200904285Y-95048571D01*
X202118571Y-96120000D02*
X202832857Y-96120000D01*
X201975714Y-96548571D02*
X202475714Y-95048571D01*
X202975714Y-96548571D01*
X204332857Y-96548571D02*
X203832857Y-95834285D01*
X203475714Y-96548571D02*
X203475714Y-95048571D01*
X204047142Y-95048571D01*
X204190000Y-95120000D01*
X204261428Y-95191428D01*
X204332857Y-95334285D01*
X204332857Y-95548571D01*
X204261428Y-95691428D01*
X204190000Y-95762857D01*
X204047142Y-95834285D01*
X203475714Y-95834285D01*
X204975714Y-96548571D02*
X204975714Y-95048571D01*
X205332857Y-95048571D01*
X205547142Y-95120000D01*
X205690000Y-95262857D01*
X205761428Y-95405714D01*
X205832857Y-95691428D01*
X205832857Y-95905714D01*
X205761428Y-96191428D01*
X205690000Y-96334285D01*
X205547142Y-96477142D01*
X205332857Y-96548571D01*
X204975714Y-96548571D01*
X154738095Y-150357142D02*
X154071428Y-150357142D01*
X154071428Y-151404761D02*
X154071428Y-149404761D01*
X155023809Y-149404761D01*
X158452380Y-151404761D02*
X157785714Y-150452380D01*
X157309523Y-151404761D02*
X157309523Y-149404761D01*
X158071428Y-149404761D01*
X158261904Y-149500000D01*
X158357142Y-149595238D01*
X158452380Y-149785714D01*
X158452380Y-150071428D01*
X158357142Y-150261904D01*
X158261904Y-150357142D01*
X158071428Y-150452380D01*
X157309523Y-150452380D01*
X161214285Y-149404761D02*
X161595238Y-149404761D01*
X161785714Y-149500000D01*
X161976190Y-149690476D01*
X162071428Y-150071428D01*
X162071428Y-150738095D01*
X161976190Y-151119047D01*
X161785714Y-151309523D01*
X161595238Y-151404761D01*
X161214285Y-151404761D01*
X161023809Y-151309523D01*
X160833333Y-151119047D01*
X160738095Y-150738095D01*
X160738095Y-150071428D01*
X160833333Y-149690476D01*
X161023809Y-149500000D01*
X161214285Y-149404761D01*
X164452380Y-151404761D02*
X164452380Y-149404761D01*
X165595238Y-151404761D01*
X165595238Y-149404761D01*
X167785714Y-149404761D02*
X168928571Y-149404761D01*
X168357142Y-151404761D02*
X168357142Y-149404761D01*
X172547619Y-151309523D02*
X172833333Y-151404761D01*
X173309523Y-151404761D01*
X173500000Y-151309523D01*
X173595238Y-151214285D01*
X173690476Y-151023809D01*
X173690476Y-150833333D01*
X173595238Y-150642857D01*
X173500000Y-150547619D01*
X173309523Y-150452380D01*
X172928571Y-150357142D01*
X172738095Y-150261904D01*
X172642857Y-150166666D01*
X172547619Y-149976190D01*
X172547619Y-149785714D01*
X172642857Y-149595238D01*
X172738095Y-149500000D01*
X172928571Y-149404761D01*
X173404761Y-149404761D01*
X173690476Y-149500000D01*
X176071428Y-151404761D02*
X176071428Y-149404761D01*
X178547619Y-151404761D02*
X178547619Y-149404761D01*
X179023809Y-149404761D01*
X179309523Y-149500000D01*
X179500000Y-149690476D01*
X179595238Y-149880952D01*
X179690476Y-150261904D01*
X179690476Y-150547619D01*
X179595238Y-150928571D01*
X179500000Y-151119047D01*
X179309523Y-151309523D01*
X179023809Y-151404761D01*
X178547619Y-151404761D01*
X182071428Y-150357142D02*
X182738095Y-150357142D01*
X183023809Y-151404761D02*
X182071428Y-151404761D01*
X182071428Y-149404761D01*
X183023809Y-149404761D01*
D14*
X199830000Y-140130000D02*
X199830000Y-141460000D01*
X198500000Y-140130000D02*
X199830000Y-140130000D01*
X199830000Y-145270000D02*
X199830000Y-147870000D01*
X197230000Y-145270000D02*
X199830000Y-145270000D01*
X197230000Y-140130000D02*
X197230000Y-145280000D01*
X199830000Y-147870000D02*
X136210000Y-147870000D01*
X197230000Y-140130000D02*
X136210000Y-140130000D01*
X136210000Y-140130000D02*
X136210000Y-147870000D01*
X129500000Y-172120000D02*
X129500000Y-171350000D01*
X129500000Y-164040000D02*
X129500000Y-164810000D01*
X130870000Y-171350000D02*
X130870000Y-164810000D01*
X128130000Y-171350000D02*
X130870000Y-171350000D01*
X128130000Y-164810000D02*
X128130000Y-171350000D01*
X130870000Y-164810000D02*
X128130000Y-164810000D01*
X129700000Y-139670000D02*
X129700000Y-140440000D01*
X129700000Y-147750000D02*
X129700000Y-146980000D01*
X128330000Y-140440000D02*
X128330000Y-146980000D01*
X131070000Y-140440000D02*
X128330000Y-140440000D01*
X131070000Y-146980000D02*
X131070000Y-140440000D01*
X128330000Y-146980000D02*
X131070000Y-146980000D01*
X204860000Y-133550000D02*
X204090000Y-133550000D01*
X196780000Y-133550000D02*
X197550000Y-133550000D01*
X204090000Y-132180000D02*
X197550000Y-132180000D01*
X204090000Y-134920000D02*
X204090000Y-132180000D01*
X197550000Y-134920000D02*
X204090000Y-134920000D01*
X197550000Y-132180000D02*
X197550000Y-134920000D01*
X167800000Y-114270000D02*
X167800000Y-115040000D01*
X167800000Y-122350000D02*
X167800000Y-121580000D01*
X166430000Y-115040000D02*
X166430000Y-121580000D01*
X169170000Y-115040000D02*
X166430000Y-115040000D01*
X169170000Y-121580000D02*
X169170000Y-115040000D01*
X166430000Y-121580000D02*
X169170000Y-121580000D01*
X163990000Y-114270000D02*
X163990000Y-115040000D01*
X163990000Y-122350000D02*
X163990000Y-121580000D01*
X162620000Y-115040000D02*
X162620000Y-121580000D01*
X165360000Y-115040000D02*
X162620000Y-115040000D01*
X165360000Y-121580000D02*
X165360000Y-115040000D01*
X162620000Y-121580000D02*
X165360000Y-121580000D01*
X122080000Y-172920000D02*
X120810000Y-172920000D01*
X122080000Y-171650000D02*
X122080000Y-172920000D01*
X119767071Y-168730000D02*
X119370000Y-168730000D01*
X119767071Y-169490000D02*
X119370000Y-169490000D01*
X110710000Y-168730000D02*
X116710000Y-168730000D01*
X110710000Y-169490000D02*
X110710000Y-168730000D01*
X116710000Y-169490000D02*
X110710000Y-169490000D01*
X119370000Y-170380000D02*
X116710000Y-170380000D01*
X119700000Y-171270000D02*
X119370000Y-171270000D01*
X119700000Y-172030000D02*
X119370000Y-172030000D01*
X116710000Y-171370000D02*
X110710000Y-171370000D01*
X116710000Y-171490000D02*
X110710000Y-171490000D01*
X116710000Y-171610000D02*
X110710000Y-171610000D01*
X116710000Y-171730000D02*
X110710000Y-171730000D01*
X116710000Y-171850000D02*
X110710000Y-171850000D01*
X116710000Y-171970000D02*
X110710000Y-171970000D01*
X110710000Y-171270000D02*
X116710000Y-171270000D01*
X110710000Y-172030000D02*
X110710000Y-171270000D01*
X116710000Y-172030000D02*
X110710000Y-172030000D01*
X116710000Y-172980000D02*
X119370000Y-172980000D01*
X116710000Y-167780000D02*
X116710000Y-172980000D01*
X119370000Y-167780000D02*
X116710000Y-167780000D01*
X119370000Y-172980000D02*
X119370000Y-167780000D01*
X125195225Y-154525000D02*
X125195225Y-155025000D01*
X124945225Y-154775000D02*
X125445225Y-154775000D01*
X130351000Y-155966000D02*
X130351000Y-156534000D01*
X130311000Y-155732000D02*
X130311000Y-156768000D01*
X130271000Y-155573000D02*
X130271000Y-156927000D01*
X130231000Y-155445000D02*
X130231000Y-157055000D01*
X130191000Y-155335000D02*
X130191000Y-157165000D01*
X130151000Y-155239000D02*
X130151000Y-157261000D01*
X130111000Y-155152000D02*
X130111000Y-157348000D01*
X130071000Y-155072000D02*
X130071000Y-157428000D01*
X130031000Y-157290000D02*
X130031000Y-157501000D01*
X130031000Y-154999000D02*
X130031000Y-155210000D01*
X129991000Y-157290000D02*
X129991000Y-157569000D01*
X129991000Y-154931000D02*
X129991000Y-155210000D01*
X129951000Y-157290000D02*
X129951000Y-157633000D01*
X129951000Y-154867000D02*
X129951000Y-155210000D01*
X129911000Y-157290000D02*
X129911000Y-157693000D01*
X129911000Y-154807000D02*
X129911000Y-155210000D01*
X129871000Y-157290000D02*
X129871000Y-157750000D01*
X129871000Y-154750000D02*
X129871000Y-155210000D01*
X129831000Y-157290000D02*
X129831000Y-157804000D01*
X129831000Y-154696000D02*
X129831000Y-155210000D01*
X129791000Y-157290000D02*
X129791000Y-157855000D01*
X129791000Y-154645000D02*
X129791000Y-155210000D01*
X129751000Y-157290000D02*
X129751000Y-157903000D01*
X129751000Y-154597000D02*
X129751000Y-155210000D01*
X129711000Y-157290000D02*
X129711000Y-157949000D01*
X129711000Y-154551000D02*
X129711000Y-155210000D01*
X129671000Y-157290000D02*
X129671000Y-157993000D01*
X129671000Y-154507000D02*
X129671000Y-155210000D01*
X129631000Y-157290000D02*
X129631000Y-158035000D01*
X129631000Y-154465000D02*
X129631000Y-155210000D01*
X129591000Y-157290000D02*
X129591000Y-158076000D01*
X129591000Y-154424000D02*
X129591000Y-155210000D01*
X129551000Y-157290000D02*
X129551000Y-158114000D01*
X129551000Y-154386000D02*
X129551000Y-155210000D01*
X129511000Y-157290000D02*
X129511000Y-158151000D01*
X129511000Y-154349000D02*
X129511000Y-155210000D01*
X129471000Y-157290000D02*
X129471000Y-158187000D01*
X129471000Y-154313000D02*
X129471000Y-155210000D01*
X129431000Y-157290000D02*
X129431000Y-158221000D01*
X129431000Y-154279000D02*
X129431000Y-155210000D01*
X129391000Y-157290000D02*
X129391000Y-158254000D01*
X129391000Y-154246000D02*
X129391000Y-155210000D01*
X129351000Y-157290000D02*
X129351000Y-158285000D01*
X129351000Y-154215000D02*
X129351000Y-155210000D01*
X129311000Y-157290000D02*
X129311000Y-158315000D01*
X129311000Y-154185000D02*
X129311000Y-155210000D01*
X129271000Y-157290000D02*
X129271000Y-158345000D01*
X129271000Y-154155000D02*
X129271000Y-155210000D01*
X129231000Y-157290000D02*
X129231000Y-158372000D01*
X129231000Y-154128000D02*
X129231000Y-155210000D01*
X129191000Y-157290000D02*
X129191000Y-158399000D01*
X129191000Y-154101000D02*
X129191000Y-155210000D01*
X129151000Y-157290000D02*
X129151000Y-158425000D01*
X129151000Y-154075000D02*
X129151000Y-155210000D01*
X129111000Y-157290000D02*
X129111000Y-158450000D01*
X129111000Y-154050000D02*
X129111000Y-155210000D01*
X129071000Y-157290000D02*
X129071000Y-158474000D01*
X129071000Y-154026000D02*
X129071000Y-155210000D01*
X129031000Y-157290000D02*
X129031000Y-158497000D01*
X129031000Y-154003000D02*
X129031000Y-155210000D01*
X128991000Y-157290000D02*
X128991000Y-158518000D01*
X128991000Y-153982000D02*
X128991000Y-155210000D01*
X128951000Y-157290000D02*
X128951000Y-158540000D01*
X128951000Y-153960000D02*
X128951000Y-155210000D01*
X128911000Y-157290000D02*
X128911000Y-158560000D01*
X128911000Y-153940000D02*
X128911000Y-155210000D01*
X128871000Y-157290000D02*
X128871000Y-158579000D01*
X128871000Y-153921000D02*
X128871000Y-155210000D01*
X128831000Y-157290000D02*
X128831000Y-158598000D01*
X128831000Y-153902000D02*
X128831000Y-155210000D01*
X128791000Y-157290000D02*
X128791000Y-158615000D01*
X128791000Y-153885000D02*
X128791000Y-155210000D01*
X128751000Y-157290000D02*
X128751000Y-158632000D01*
X128751000Y-153868000D02*
X128751000Y-155210000D01*
X128711000Y-157290000D02*
X128711000Y-158648000D01*
X128711000Y-153852000D02*
X128711000Y-155210000D01*
X128671000Y-157290000D02*
X128671000Y-158664000D01*
X128671000Y-153836000D02*
X128671000Y-155210000D01*
X128631000Y-157290000D02*
X128631000Y-158678000D01*
X128631000Y-153822000D02*
X128631000Y-155210000D01*
X128591000Y-157290000D02*
X128591000Y-158692000D01*
X128591000Y-153808000D02*
X128591000Y-155210000D01*
X128551000Y-157290000D02*
X128551000Y-158705000D01*
X128551000Y-153795000D02*
X128551000Y-155210000D01*
X128511000Y-157290000D02*
X128511000Y-158718000D01*
X128511000Y-153782000D02*
X128511000Y-155210000D01*
X128471000Y-157290000D02*
X128471000Y-158730000D01*
X128471000Y-153770000D02*
X128471000Y-155210000D01*
X128430000Y-157290000D02*
X128430000Y-158741000D01*
X128430000Y-153759000D02*
X128430000Y-155210000D01*
X128390000Y-157290000D02*
X128390000Y-158751000D01*
X128390000Y-153749000D02*
X128390000Y-155210000D01*
X128350000Y-157290000D02*
X128350000Y-158761000D01*
X128350000Y-153739000D02*
X128350000Y-155210000D01*
X128310000Y-157290000D02*
X128310000Y-158770000D01*
X128310000Y-153730000D02*
X128310000Y-155210000D01*
X128270000Y-157290000D02*
X128270000Y-158778000D01*
X128270000Y-153722000D02*
X128270000Y-155210000D01*
X128230000Y-157290000D02*
X128230000Y-158786000D01*
X128230000Y-153714000D02*
X128230000Y-155210000D01*
X128190000Y-157290000D02*
X128190000Y-158793000D01*
X128190000Y-153707000D02*
X128190000Y-155210000D01*
X128150000Y-157290000D02*
X128150000Y-158800000D01*
X128150000Y-153700000D02*
X128150000Y-155210000D01*
X128110000Y-157290000D02*
X128110000Y-158806000D01*
X128110000Y-153694000D02*
X128110000Y-155210000D01*
X128070000Y-157290000D02*
X128070000Y-158811000D01*
X128070000Y-153689000D02*
X128070000Y-155210000D01*
X128030000Y-157290000D02*
X128030000Y-158815000D01*
X128030000Y-153685000D02*
X128030000Y-155210000D01*
X127990000Y-157290000D02*
X127990000Y-158819000D01*
X127990000Y-153681000D02*
X127990000Y-155210000D01*
X127950000Y-153677000D02*
X127950000Y-158823000D01*
X127910000Y-153674000D02*
X127910000Y-158826000D01*
X127870000Y-153672000D02*
X127870000Y-158828000D01*
X127830000Y-153671000D02*
X127830000Y-158829000D01*
X127790000Y-153670000D02*
X127790000Y-158830000D01*
X127750000Y-153670000D02*
X127750000Y-158830000D01*
X130370000Y-156250000D02*
G75*
G03X130370000Y-156250000I-2620000J0D01*
G01*
X141695225Y-154525000D02*
X141695225Y-155025000D01*
X141445225Y-154775000D02*
X141945225Y-154775000D01*
X146851000Y-155966000D02*
X146851000Y-156534000D01*
X146811000Y-155732000D02*
X146811000Y-156768000D01*
X146771000Y-155573000D02*
X146771000Y-156927000D01*
X146731000Y-155445000D02*
X146731000Y-157055000D01*
X146691000Y-155335000D02*
X146691000Y-157165000D01*
X146651000Y-155239000D02*
X146651000Y-157261000D01*
X146611000Y-155152000D02*
X146611000Y-157348000D01*
X146571000Y-155072000D02*
X146571000Y-157428000D01*
X146531000Y-157290000D02*
X146531000Y-157501000D01*
X146531000Y-154999000D02*
X146531000Y-155210000D01*
X146491000Y-157290000D02*
X146491000Y-157569000D01*
X146491000Y-154931000D02*
X146491000Y-155210000D01*
X146451000Y-157290000D02*
X146451000Y-157633000D01*
X146451000Y-154867000D02*
X146451000Y-155210000D01*
X146411000Y-157290000D02*
X146411000Y-157693000D01*
X146411000Y-154807000D02*
X146411000Y-155210000D01*
X146371000Y-157290000D02*
X146371000Y-157750000D01*
X146371000Y-154750000D02*
X146371000Y-155210000D01*
X146331000Y-157290000D02*
X146331000Y-157804000D01*
X146331000Y-154696000D02*
X146331000Y-155210000D01*
X146291000Y-157290000D02*
X146291000Y-157855000D01*
X146291000Y-154645000D02*
X146291000Y-155210000D01*
X146251000Y-157290000D02*
X146251000Y-157903000D01*
X146251000Y-154597000D02*
X146251000Y-155210000D01*
X146211000Y-157290000D02*
X146211000Y-157949000D01*
X146211000Y-154551000D02*
X146211000Y-155210000D01*
X146171000Y-157290000D02*
X146171000Y-157993000D01*
X146171000Y-154507000D02*
X146171000Y-155210000D01*
X146131000Y-157290000D02*
X146131000Y-158035000D01*
X146131000Y-154465000D02*
X146131000Y-155210000D01*
X146091000Y-157290000D02*
X146091000Y-158076000D01*
X146091000Y-154424000D02*
X146091000Y-155210000D01*
X146051000Y-157290000D02*
X146051000Y-158114000D01*
X146051000Y-154386000D02*
X146051000Y-155210000D01*
X146011000Y-157290000D02*
X146011000Y-158151000D01*
X146011000Y-154349000D02*
X146011000Y-155210000D01*
X145971000Y-157290000D02*
X145971000Y-158187000D01*
X145971000Y-154313000D02*
X145971000Y-155210000D01*
X145931000Y-157290000D02*
X145931000Y-158221000D01*
X145931000Y-154279000D02*
X145931000Y-155210000D01*
X145891000Y-157290000D02*
X145891000Y-158254000D01*
X145891000Y-154246000D02*
X145891000Y-155210000D01*
X145851000Y-157290000D02*
X145851000Y-158285000D01*
X145851000Y-154215000D02*
X145851000Y-155210000D01*
X145811000Y-157290000D02*
X145811000Y-158315000D01*
X145811000Y-154185000D02*
X145811000Y-155210000D01*
X145771000Y-157290000D02*
X145771000Y-158345000D01*
X145771000Y-154155000D02*
X145771000Y-155210000D01*
X145731000Y-157290000D02*
X145731000Y-158372000D01*
X145731000Y-154128000D02*
X145731000Y-155210000D01*
X145691000Y-157290000D02*
X145691000Y-158399000D01*
X145691000Y-154101000D02*
X145691000Y-155210000D01*
X145651000Y-157290000D02*
X145651000Y-158425000D01*
X145651000Y-154075000D02*
X145651000Y-155210000D01*
X145611000Y-157290000D02*
X145611000Y-158450000D01*
X145611000Y-154050000D02*
X145611000Y-155210000D01*
X145571000Y-157290000D02*
X145571000Y-158474000D01*
X145571000Y-154026000D02*
X145571000Y-155210000D01*
X145531000Y-157290000D02*
X145531000Y-158497000D01*
X145531000Y-154003000D02*
X145531000Y-155210000D01*
X145491000Y-157290000D02*
X145491000Y-158518000D01*
X145491000Y-153982000D02*
X145491000Y-155210000D01*
X145451000Y-157290000D02*
X145451000Y-158540000D01*
X145451000Y-153960000D02*
X145451000Y-155210000D01*
X145411000Y-157290000D02*
X145411000Y-158560000D01*
X145411000Y-153940000D02*
X145411000Y-155210000D01*
X145371000Y-157290000D02*
X145371000Y-158579000D01*
X145371000Y-153921000D02*
X145371000Y-155210000D01*
X145331000Y-157290000D02*
X145331000Y-158598000D01*
X145331000Y-153902000D02*
X145331000Y-155210000D01*
X145291000Y-157290000D02*
X145291000Y-158615000D01*
X145291000Y-153885000D02*
X145291000Y-155210000D01*
X145251000Y-157290000D02*
X145251000Y-158632000D01*
X145251000Y-153868000D02*
X145251000Y-155210000D01*
X145211000Y-157290000D02*
X145211000Y-158648000D01*
X145211000Y-153852000D02*
X145211000Y-155210000D01*
X145171000Y-157290000D02*
X145171000Y-158664000D01*
X145171000Y-153836000D02*
X145171000Y-155210000D01*
X145131000Y-157290000D02*
X145131000Y-158678000D01*
X145131000Y-153822000D02*
X145131000Y-155210000D01*
X145091000Y-157290000D02*
X145091000Y-158692000D01*
X145091000Y-153808000D02*
X145091000Y-155210000D01*
X145051000Y-157290000D02*
X145051000Y-158705000D01*
X145051000Y-153795000D02*
X145051000Y-155210000D01*
X145011000Y-157290000D02*
X145011000Y-158718000D01*
X145011000Y-153782000D02*
X145011000Y-155210000D01*
X144971000Y-157290000D02*
X144971000Y-158730000D01*
X144971000Y-153770000D02*
X144971000Y-155210000D01*
X144930000Y-157290000D02*
X144930000Y-158741000D01*
X144930000Y-153759000D02*
X144930000Y-155210000D01*
X144890000Y-157290000D02*
X144890000Y-158751000D01*
X144890000Y-153749000D02*
X144890000Y-155210000D01*
X144850000Y-157290000D02*
X144850000Y-158761000D01*
X144850000Y-153739000D02*
X144850000Y-155210000D01*
X144810000Y-157290000D02*
X144810000Y-158770000D01*
X144810000Y-153730000D02*
X144810000Y-155210000D01*
X144770000Y-157290000D02*
X144770000Y-158778000D01*
X144770000Y-153722000D02*
X144770000Y-155210000D01*
X144730000Y-157290000D02*
X144730000Y-158786000D01*
X144730000Y-153714000D02*
X144730000Y-155210000D01*
X144690000Y-157290000D02*
X144690000Y-158793000D01*
X144690000Y-153707000D02*
X144690000Y-155210000D01*
X144650000Y-157290000D02*
X144650000Y-158800000D01*
X144650000Y-153700000D02*
X144650000Y-155210000D01*
X144610000Y-157290000D02*
X144610000Y-158806000D01*
X144610000Y-153694000D02*
X144610000Y-155210000D01*
X144570000Y-157290000D02*
X144570000Y-158811000D01*
X144570000Y-153689000D02*
X144570000Y-155210000D01*
X144530000Y-157290000D02*
X144530000Y-158815000D01*
X144530000Y-153685000D02*
X144530000Y-155210000D01*
X144490000Y-157290000D02*
X144490000Y-158819000D01*
X144490000Y-153681000D02*
X144490000Y-155210000D01*
X144450000Y-153677000D02*
X144450000Y-158823000D01*
X144410000Y-153674000D02*
X144410000Y-158826000D01*
X144370000Y-153672000D02*
X144370000Y-158828000D01*
X144330000Y-153671000D02*
X144330000Y-158829000D01*
X144290000Y-153670000D02*
X144290000Y-158830000D01*
X144250000Y-153670000D02*
X144250000Y-158830000D01*
X146870000Y-156250000D02*
G75*
G03X146870000Y-156250000I-2620000J0D01*
G01*
X133195225Y-154525000D02*
X133195225Y-155025000D01*
X132945225Y-154775000D02*
X133445225Y-154775000D01*
X138351000Y-155966000D02*
X138351000Y-156534000D01*
X138311000Y-155732000D02*
X138311000Y-156768000D01*
X138271000Y-155573000D02*
X138271000Y-156927000D01*
X138231000Y-155445000D02*
X138231000Y-157055000D01*
X138191000Y-155335000D02*
X138191000Y-157165000D01*
X138151000Y-155239000D02*
X138151000Y-157261000D01*
X138111000Y-155152000D02*
X138111000Y-157348000D01*
X138071000Y-155072000D02*
X138071000Y-157428000D01*
X138031000Y-157290000D02*
X138031000Y-157501000D01*
X138031000Y-154999000D02*
X138031000Y-155210000D01*
X137991000Y-157290000D02*
X137991000Y-157569000D01*
X137991000Y-154931000D02*
X137991000Y-155210000D01*
X137951000Y-157290000D02*
X137951000Y-157633000D01*
X137951000Y-154867000D02*
X137951000Y-155210000D01*
X137911000Y-157290000D02*
X137911000Y-157693000D01*
X137911000Y-154807000D02*
X137911000Y-155210000D01*
X137871000Y-157290000D02*
X137871000Y-157750000D01*
X137871000Y-154750000D02*
X137871000Y-155210000D01*
X137831000Y-157290000D02*
X137831000Y-157804000D01*
X137831000Y-154696000D02*
X137831000Y-155210000D01*
X137791000Y-157290000D02*
X137791000Y-157855000D01*
X137791000Y-154645000D02*
X137791000Y-155210000D01*
X137751000Y-157290000D02*
X137751000Y-157903000D01*
X137751000Y-154597000D02*
X137751000Y-155210000D01*
X137711000Y-157290000D02*
X137711000Y-157949000D01*
X137711000Y-154551000D02*
X137711000Y-155210000D01*
X137671000Y-157290000D02*
X137671000Y-157993000D01*
X137671000Y-154507000D02*
X137671000Y-155210000D01*
X137631000Y-157290000D02*
X137631000Y-158035000D01*
X137631000Y-154465000D02*
X137631000Y-155210000D01*
X137591000Y-157290000D02*
X137591000Y-158076000D01*
X137591000Y-154424000D02*
X137591000Y-155210000D01*
X137551000Y-157290000D02*
X137551000Y-158114000D01*
X137551000Y-154386000D02*
X137551000Y-155210000D01*
X137511000Y-157290000D02*
X137511000Y-158151000D01*
X137511000Y-154349000D02*
X137511000Y-155210000D01*
X137471000Y-157290000D02*
X137471000Y-158187000D01*
X137471000Y-154313000D02*
X137471000Y-155210000D01*
X137431000Y-157290000D02*
X137431000Y-158221000D01*
X137431000Y-154279000D02*
X137431000Y-155210000D01*
X137391000Y-157290000D02*
X137391000Y-158254000D01*
X137391000Y-154246000D02*
X137391000Y-155210000D01*
X137351000Y-157290000D02*
X137351000Y-158285000D01*
X137351000Y-154215000D02*
X137351000Y-155210000D01*
X137311000Y-157290000D02*
X137311000Y-158315000D01*
X137311000Y-154185000D02*
X137311000Y-155210000D01*
X137271000Y-157290000D02*
X137271000Y-158345000D01*
X137271000Y-154155000D02*
X137271000Y-155210000D01*
X137231000Y-157290000D02*
X137231000Y-158372000D01*
X137231000Y-154128000D02*
X137231000Y-155210000D01*
X137191000Y-157290000D02*
X137191000Y-158399000D01*
X137191000Y-154101000D02*
X137191000Y-155210000D01*
X137151000Y-157290000D02*
X137151000Y-158425000D01*
X137151000Y-154075000D02*
X137151000Y-155210000D01*
X137111000Y-157290000D02*
X137111000Y-158450000D01*
X137111000Y-154050000D02*
X137111000Y-155210000D01*
X137071000Y-157290000D02*
X137071000Y-158474000D01*
X137071000Y-154026000D02*
X137071000Y-155210000D01*
X137031000Y-157290000D02*
X137031000Y-158497000D01*
X137031000Y-154003000D02*
X137031000Y-155210000D01*
X136991000Y-157290000D02*
X136991000Y-158518000D01*
X136991000Y-153982000D02*
X136991000Y-155210000D01*
X136951000Y-157290000D02*
X136951000Y-158540000D01*
X136951000Y-153960000D02*
X136951000Y-155210000D01*
X136911000Y-157290000D02*
X136911000Y-158560000D01*
X136911000Y-153940000D02*
X136911000Y-155210000D01*
X136871000Y-157290000D02*
X136871000Y-158579000D01*
X136871000Y-153921000D02*
X136871000Y-155210000D01*
X136831000Y-157290000D02*
X136831000Y-158598000D01*
X136831000Y-153902000D02*
X136831000Y-155210000D01*
X136791000Y-157290000D02*
X136791000Y-158615000D01*
X136791000Y-153885000D02*
X136791000Y-155210000D01*
X136751000Y-157290000D02*
X136751000Y-158632000D01*
X136751000Y-153868000D02*
X136751000Y-155210000D01*
X136711000Y-157290000D02*
X136711000Y-158648000D01*
X136711000Y-153852000D02*
X136711000Y-155210000D01*
X136671000Y-157290000D02*
X136671000Y-158664000D01*
X136671000Y-153836000D02*
X136671000Y-155210000D01*
X136631000Y-157290000D02*
X136631000Y-158678000D01*
X136631000Y-153822000D02*
X136631000Y-155210000D01*
X136591000Y-157290000D02*
X136591000Y-158692000D01*
X136591000Y-153808000D02*
X136591000Y-155210000D01*
X136551000Y-157290000D02*
X136551000Y-158705000D01*
X136551000Y-153795000D02*
X136551000Y-155210000D01*
X136511000Y-157290000D02*
X136511000Y-158718000D01*
X136511000Y-153782000D02*
X136511000Y-155210000D01*
X136471000Y-157290000D02*
X136471000Y-158730000D01*
X136471000Y-153770000D02*
X136471000Y-155210000D01*
X136430000Y-157290000D02*
X136430000Y-158741000D01*
X136430000Y-153759000D02*
X136430000Y-155210000D01*
X136390000Y-157290000D02*
X136390000Y-158751000D01*
X136390000Y-153749000D02*
X136390000Y-155210000D01*
X136350000Y-157290000D02*
X136350000Y-158761000D01*
X136350000Y-153739000D02*
X136350000Y-155210000D01*
X136310000Y-157290000D02*
X136310000Y-158770000D01*
X136310000Y-153730000D02*
X136310000Y-155210000D01*
X136270000Y-157290000D02*
X136270000Y-158778000D01*
X136270000Y-153722000D02*
X136270000Y-155210000D01*
X136230000Y-157290000D02*
X136230000Y-158786000D01*
X136230000Y-153714000D02*
X136230000Y-155210000D01*
X136190000Y-157290000D02*
X136190000Y-158793000D01*
X136190000Y-153707000D02*
X136190000Y-155210000D01*
X136150000Y-157290000D02*
X136150000Y-158800000D01*
X136150000Y-153700000D02*
X136150000Y-155210000D01*
X136110000Y-157290000D02*
X136110000Y-158806000D01*
X136110000Y-153694000D02*
X136110000Y-155210000D01*
X136070000Y-157290000D02*
X136070000Y-158811000D01*
X136070000Y-153689000D02*
X136070000Y-155210000D01*
X136030000Y-157290000D02*
X136030000Y-158815000D01*
X136030000Y-153685000D02*
X136030000Y-155210000D01*
X135990000Y-157290000D02*
X135990000Y-158819000D01*
X135990000Y-153681000D02*
X135990000Y-155210000D01*
X135950000Y-153677000D02*
X135950000Y-158823000D01*
X135910000Y-153674000D02*
X135910000Y-158826000D01*
X135870000Y-153672000D02*
X135870000Y-158828000D01*
X135830000Y-153671000D02*
X135830000Y-158829000D01*
X135790000Y-153670000D02*
X135790000Y-158830000D01*
X135750000Y-153670000D02*
X135750000Y-158830000D01*
X138370000Y-156250000D02*
G75*
G03X138370000Y-156250000I-2620000J0D01*
G01*
X172760000Y-125000000D02*
X172760000Y-135280000D01*
X190780000Y-125000000D02*
X172760000Y-125000000D01*
X190780000Y-135280000D02*
X190780000Y-125000000D01*
X172760000Y-135280000D02*
X190780000Y-135280000D01*
X172820000Y-127490000D02*
X172820000Y-129140000D01*
X190720000Y-127490000D02*
X172820000Y-127490000D01*
X190720000Y-132790000D02*
X190720000Y-127490000D01*
X172820000Y-132790000D02*
X190720000Y-132790000D01*
X172820000Y-131140000D02*
X172820000Y-132790000D01*
X172820000Y-129140000D02*
G75*
G02X172820000Y-131140000I0J-1000000D01*
G01*
X161680000Y-131410000D02*
X160910000Y-131410000D01*
X153600000Y-131410000D02*
X154370000Y-131410000D01*
X160910000Y-130040000D02*
X154370000Y-130040000D01*
X160910000Y-132780000D02*
X160910000Y-130040000D01*
X154370000Y-132780000D02*
X160910000Y-132780000D01*
X154370000Y-130040000D02*
X154370000Y-132780000D01*
X161680000Y-126965000D02*
X160910000Y-126965000D01*
X153600000Y-126965000D02*
X154370000Y-126965000D01*
X160910000Y-125595000D02*
X154370000Y-125595000D01*
X160910000Y-128335000D02*
X160910000Y-125595000D01*
X154370000Y-128335000D02*
X160910000Y-128335000D01*
X154370000Y-125595000D02*
X154370000Y-128335000D01*
X144245000Y-128930000D02*
X144245000Y-127600000D01*
X145575000Y-128930000D02*
X144245000Y-128930000D01*
X146845000Y-128930000D02*
X146845000Y-126270000D01*
X146845000Y-126270000D02*
X149445000Y-126270000D01*
X146845000Y-128930000D02*
X149445000Y-128930000D01*
X149445000Y-128930000D02*
X149445000Y-126270000D01*
X171895000Y-127614000D02*
X171895000Y-126356000D01*
X170055000Y-127614000D02*
X170055000Y-126356000D01*
X135695225Y-130275000D02*
X135695225Y-130775000D01*
X135445225Y-130525000D02*
X135945225Y-130525000D01*
X140851000Y-131716000D02*
X140851000Y-132284000D01*
X140811000Y-131482000D02*
X140811000Y-132518000D01*
X140771000Y-131323000D02*
X140771000Y-132677000D01*
X140731000Y-131195000D02*
X140731000Y-132805000D01*
X140691000Y-131085000D02*
X140691000Y-132915000D01*
X140651000Y-130989000D02*
X140651000Y-133011000D01*
X140611000Y-130902000D02*
X140611000Y-133098000D01*
X140571000Y-130822000D02*
X140571000Y-133178000D01*
X140531000Y-133040000D02*
X140531000Y-133251000D01*
X140531000Y-130749000D02*
X140531000Y-130960000D01*
X140491000Y-133040000D02*
X140491000Y-133319000D01*
X140491000Y-130681000D02*
X140491000Y-130960000D01*
X140451000Y-133040000D02*
X140451000Y-133383000D01*
X140451000Y-130617000D02*
X140451000Y-130960000D01*
X140411000Y-133040000D02*
X140411000Y-133443000D01*
X140411000Y-130557000D02*
X140411000Y-130960000D01*
X140371000Y-133040000D02*
X140371000Y-133500000D01*
X140371000Y-130500000D02*
X140371000Y-130960000D01*
X140331000Y-133040000D02*
X140331000Y-133554000D01*
X140331000Y-130446000D02*
X140331000Y-130960000D01*
X140291000Y-133040000D02*
X140291000Y-133605000D01*
X140291000Y-130395000D02*
X140291000Y-130960000D01*
X140251000Y-133040000D02*
X140251000Y-133653000D01*
X140251000Y-130347000D02*
X140251000Y-130960000D01*
X140211000Y-133040000D02*
X140211000Y-133699000D01*
X140211000Y-130301000D02*
X140211000Y-130960000D01*
X140171000Y-133040000D02*
X140171000Y-133743000D01*
X140171000Y-130257000D02*
X140171000Y-130960000D01*
X140131000Y-133040000D02*
X140131000Y-133785000D01*
X140131000Y-130215000D02*
X140131000Y-130960000D01*
X140091000Y-133040000D02*
X140091000Y-133826000D01*
X140091000Y-130174000D02*
X140091000Y-130960000D01*
X140051000Y-133040000D02*
X140051000Y-133864000D01*
X140051000Y-130136000D02*
X140051000Y-130960000D01*
X140011000Y-133040000D02*
X140011000Y-133901000D01*
X140011000Y-130099000D02*
X140011000Y-130960000D01*
X139971000Y-133040000D02*
X139971000Y-133937000D01*
X139971000Y-130063000D02*
X139971000Y-130960000D01*
X139931000Y-133040000D02*
X139931000Y-133971000D01*
X139931000Y-130029000D02*
X139931000Y-130960000D01*
X139891000Y-133040000D02*
X139891000Y-134004000D01*
X139891000Y-129996000D02*
X139891000Y-130960000D01*
X139851000Y-133040000D02*
X139851000Y-134035000D01*
X139851000Y-129965000D02*
X139851000Y-130960000D01*
X139811000Y-133040000D02*
X139811000Y-134065000D01*
X139811000Y-129935000D02*
X139811000Y-130960000D01*
X139771000Y-133040000D02*
X139771000Y-134095000D01*
X139771000Y-129905000D02*
X139771000Y-130960000D01*
X139731000Y-133040000D02*
X139731000Y-134122000D01*
X139731000Y-129878000D02*
X139731000Y-130960000D01*
X139691000Y-133040000D02*
X139691000Y-134149000D01*
X139691000Y-129851000D02*
X139691000Y-130960000D01*
X139651000Y-133040000D02*
X139651000Y-134175000D01*
X139651000Y-129825000D02*
X139651000Y-130960000D01*
X139611000Y-133040000D02*
X139611000Y-134200000D01*
X139611000Y-129800000D02*
X139611000Y-130960000D01*
X139571000Y-133040000D02*
X139571000Y-134224000D01*
X139571000Y-129776000D02*
X139571000Y-130960000D01*
X139531000Y-133040000D02*
X139531000Y-134247000D01*
X139531000Y-129753000D02*
X139531000Y-130960000D01*
X139491000Y-133040000D02*
X139491000Y-134268000D01*
X139491000Y-129732000D02*
X139491000Y-130960000D01*
X139451000Y-133040000D02*
X139451000Y-134290000D01*
X139451000Y-129710000D02*
X139451000Y-130960000D01*
X139411000Y-133040000D02*
X139411000Y-134310000D01*
X139411000Y-129690000D02*
X139411000Y-130960000D01*
X139371000Y-133040000D02*
X139371000Y-134329000D01*
X139371000Y-129671000D02*
X139371000Y-130960000D01*
X139331000Y-133040000D02*
X139331000Y-134348000D01*
X139331000Y-129652000D02*
X139331000Y-130960000D01*
X139291000Y-133040000D02*
X139291000Y-134365000D01*
X139291000Y-129635000D02*
X139291000Y-130960000D01*
X139251000Y-133040000D02*
X139251000Y-134382000D01*
X139251000Y-129618000D02*
X139251000Y-130960000D01*
X139211000Y-133040000D02*
X139211000Y-134398000D01*
X139211000Y-129602000D02*
X139211000Y-130960000D01*
X139171000Y-133040000D02*
X139171000Y-134414000D01*
X139171000Y-129586000D02*
X139171000Y-130960000D01*
X139131000Y-133040000D02*
X139131000Y-134428000D01*
X139131000Y-129572000D02*
X139131000Y-130960000D01*
X139091000Y-133040000D02*
X139091000Y-134442000D01*
X139091000Y-129558000D02*
X139091000Y-130960000D01*
X139051000Y-133040000D02*
X139051000Y-134455000D01*
X139051000Y-129545000D02*
X139051000Y-130960000D01*
X139011000Y-133040000D02*
X139011000Y-134468000D01*
X139011000Y-129532000D02*
X139011000Y-130960000D01*
X138971000Y-133040000D02*
X138971000Y-134480000D01*
X138971000Y-129520000D02*
X138971000Y-130960000D01*
X138930000Y-133040000D02*
X138930000Y-134491000D01*
X138930000Y-129509000D02*
X138930000Y-130960000D01*
X138890000Y-133040000D02*
X138890000Y-134501000D01*
X138890000Y-129499000D02*
X138890000Y-130960000D01*
X138850000Y-133040000D02*
X138850000Y-134511000D01*
X138850000Y-129489000D02*
X138850000Y-130960000D01*
X138810000Y-133040000D02*
X138810000Y-134520000D01*
X138810000Y-129480000D02*
X138810000Y-130960000D01*
X138770000Y-133040000D02*
X138770000Y-134528000D01*
X138770000Y-129472000D02*
X138770000Y-130960000D01*
X138730000Y-133040000D02*
X138730000Y-134536000D01*
X138730000Y-129464000D02*
X138730000Y-130960000D01*
X138690000Y-133040000D02*
X138690000Y-134543000D01*
X138690000Y-129457000D02*
X138690000Y-130960000D01*
X138650000Y-133040000D02*
X138650000Y-134550000D01*
X138650000Y-129450000D02*
X138650000Y-130960000D01*
X138610000Y-133040000D02*
X138610000Y-134556000D01*
X138610000Y-129444000D02*
X138610000Y-130960000D01*
X138570000Y-133040000D02*
X138570000Y-134561000D01*
X138570000Y-129439000D02*
X138570000Y-130960000D01*
X138530000Y-133040000D02*
X138530000Y-134565000D01*
X138530000Y-129435000D02*
X138530000Y-130960000D01*
X138490000Y-133040000D02*
X138490000Y-134569000D01*
X138490000Y-129431000D02*
X138490000Y-130960000D01*
X138450000Y-129427000D02*
X138450000Y-134573000D01*
X138410000Y-129424000D02*
X138410000Y-134576000D01*
X138370000Y-129422000D02*
X138370000Y-134578000D01*
X138330000Y-129421000D02*
X138330000Y-134579000D01*
X138290000Y-129420000D02*
X138290000Y-134580000D01*
X138250000Y-129420000D02*
X138250000Y-134580000D01*
X140870000Y-132000000D02*
G75*
G03X140870000Y-132000000I-2620000J0D01*
G01*
X144170000Y-95580000D02*
G75*
G03X144170000Y-95580000I-2620000J0D01*
G01*
X144130000Y-95580000D02*
X138970000Y-95580000D01*
X144130000Y-95620000D02*
X138970000Y-95620000D01*
X144129000Y-95660000D02*
X138971000Y-95660000D01*
X144128000Y-95700000D02*
X138972000Y-95700000D01*
X144126000Y-95740000D02*
X138974000Y-95740000D01*
X144123000Y-95780000D02*
X138977000Y-95780000D01*
X144119000Y-95820000D02*
X142590000Y-95820000D01*
X140510000Y-95820000D02*
X138981000Y-95820000D01*
X144115000Y-95860000D02*
X142590000Y-95860000D01*
X140510000Y-95860000D02*
X138985000Y-95860000D01*
X144111000Y-95900000D02*
X142590000Y-95900000D01*
X140510000Y-95900000D02*
X138989000Y-95900000D01*
X144106000Y-95940000D02*
X142590000Y-95940000D01*
X140510000Y-95940000D02*
X138994000Y-95940000D01*
X144100000Y-95980000D02*
X142590000Y-95980000D01*
X140510000Y-95980000D02*
X139000000Y-95980000D01*
X144093000Y-96020000D02*
X142590000Y-96020000D01*
X140510000Y-96020000D02*
X139007000Y-96020000D01*
X144086000Y-96060000D02*
X142590000Y-96060000D01*
X140510000Y-96060000D02*
X139014000Y-96060000D01*
X144078000Y-96100000D02*
X142590000Y-96100000D01*
X140510000Y-96100000D02*
X139022000Y-96100000D01*
X144070000Y-96140000D02*
X142590000Y-96140000D01*
X140510000Y-96140000D02*
X139030000Y-96140000D01*
X144061000Y-96180000D02*
X142590000Y-96180000D01*
X140510000Y-96180000D02*
X139039000Y-96180000D01*
X144051000Y-96220000D02*
X142590000Y-96220000D01*
X140510000Y-96220000D02*
X139049000Y-96220000D01*
X144041000Y-96260000D02*
X142590000Y-96260000D01*
X140510000Y-96260000D02*
X139059000Y-96260000D01*
X144030000Y-96301000D02*
X142590000Y-96301000D01*
X140510000Y-96301000D02*
X139070000Y-96301000D01*
X144018000Y-96341000D02*
X142590000Y-96341000D01*
X140510000Y-96341000D02*
X139082000Y-96341000D01*
X144005000Y-96381000D02*
X142590000Y-96381000D01*
X140510000Y-96381000D02*
X139095000Y-96381000D01*
X143992000Y-96421000D02*
X142590000Y-96421000D01*
X140510000Y-96421000D02*
X139108000Y-96421000D01*
X143978000Y-96461000D02*
X142590000Y-96461000D01*
X140510000Y-96461000D02*
X139122000Y-96461000D01*
X143964000Y-96501000D02*
X142590000Y-96501000D01*
X140510000Y-96501000D02*
X139136000Y-96501000D01*
X143948000Y-96541000D02*
X142590000Y-96541000D01*
X140510000Y-96541000D02*
X139152000Y-96541000D01*
X143932000Y-96581000D02*
X142590000Y-96581000D01*
X140510000Y-96581000D02*
X139168000Y-96581000D01*
X143915000Y-96621000D02*
X142590000Y-96621000D01*
X140510000Y-96621000D02*
X139185000Y-96621000D01*
X143898000Y-96661000D02*
X142590000Y-96661000D01*
X140510000Y-96661000D02*
X139202000Y-96661000D01*
X143879000Y-96701000D02*
X142590000Y-96701000D01*
X140510000Y-96701000D02*
X139221000Y-96701000D01*
X143860000Y-96741000D02*
X142590000Y-96741000D01*
X140510000Y-96741000D02*
X139240000Y-96741000D01*
X143840000Y-96781000D02*
X142590000Y-96781000D01*
X140510000Y-96781000D02*
X139260000Y-96781000D01*
X143818000Y-96821000D02*
X142590000Y-96821000D01*
X140510000Y-96821000D02*
X139282000Y-96821000D01*
X143797000Y-96861000D02*
X142590000Y-96861000D01*
X140510000Y-96861000D02*
X139303000Y-96861000D01*
X143774000Y-96901000D02*
X142590000Y-96901000D01*
X140510000Y-96901000D02*
X139326000Y-96901000D01*
X143750000Y-96941000D02*
X142590000Y-96941000D01*
X140510000Y-96941000D02*
X139350000Y-96941000D01*
X143725000Y-96981000D02*
X142590000Y-96981000D01*
X140510000Y-96981000D02*
X139375000Y-96981000D01*
X143699000Y-97021000D02*
X142590000Y-97021000D01*
X140510000Y-97021000D02*
X139401000Y-97021000D01*
X143672000Y-97061000D02*
X142590000Y-97061000D01*
X140510000Y-97061000D02*
X139428000Y-97061000D01*
X143645000Y-97101000D02*
X142590000Y-97101000D01*
X140510000Y-97101000D02*
X139455000Y-97101000D01*
X143615000Y-97141000D02*
X142590000Y-97141000D01*
X140510000Y-97141000D02*
X139485000Y-97141000D01*
X143585000Y-97181000D02*
X142590000Y-97181000D01*
X140510000Y-97181000D02*
X139515000Y-97181000D01*
X143554000Y-97221000D02*
X142590000Y-97221000D01*
X140510000Y-97221000D02*
X139546000Y-97221000D01*
X143521000Y-97261000D02*
X142590000Y-97261000D01*
X140510000Y-97261000D02*
X139579000Y-97261000D01*
X143487000Y-97301000D02*
X142590000Y-97301000D01*
X140510000Y-97301000D02*
X139613000Y-97301000D01*
X143451000Y-97341000D02*
X142590000Y-97341000D01*
X140510000Y-97341000D02*
X139649000Y-97341000D01*
X143414000Y-97381000D02*
X142590000Y-97381000D01*
X140510000Y-97381000D02*
X139686000Y-97381000D01*
X143376000Y-97421000D02*
X142590000Y-97421000D01*
X140510000Y-97421000D02*
X139724000Y-97421000D01*
X143335000Y-97461000D02*
X142590000Y-97461000D01*
X140510000Y-97461000D02*
X139765000Y-97461000D01*
X143293000Y-97501000D02*
X142590000Y-97501000D01*
X140510000Y-97501000D02*
X139807000Y-97501000D01*
X143249000Y-97541000D02*
X142590000Y-97541000D01*
X140510000Y-97541000D02*
X139851000Y-97541000D01*
X143203000Y-97581000D02*
X142590000Y-97581000D01*
X140510000Y-97581000D02*
X139897000Y-97581000D01*
X143155000Y-97621000D02*
X142590000Y-97621000D01*
X140510000Y-97621000D02*
X139945000Y-97621000D01*
X143104000Y-97661000D02*
X142590000Y-97661000D01*
X140510000Y-97661000D02*
X139996000Y-97661000D01*
X143050000Y-97701000D02*
X142590000Y-97701000D01*
X140510000Y-97701000D02*
X140050000Y-97701000D01*
X142993000Y-97741000D02*
X142590000Y-97741000D01*
X140510000Y-97741000D02*
X140107000Y-97741000D01*
X142933000Y-97781000D02*
X142590000Y-97781000D01*
X140510000Y-97781000D02*
X140167000Y-97781000D01*
X142869000Y-97821000D02*
X142590000Y-97821000D01*
X140510000Y-97821000D02*
X140231000Y-97821000D01*
X142801000Y-97861000D02*
X142590000Y-97861000D01*
X140510000Y-97861000D02*
X140299000Y-97861000D01*
X142728000Y-97901000D02*
X140372000Y-97901000D01*
X142648000Y-97941000D02*
X140452000Y-97941000D01*
X142561000Y-97981000D02*
X140539000Y-97981000D01*
X142465000Y-98021000D02*
X140635000Y-98021000D01*
X142355000Y-98061000D02*
X140745000Y-98061000D01*
X142227000Y-98101000D02*
X140873000Y-98101000D01*
X142068000Y-98141000D02*
X141032000Y-98141000D01*
X141834000Y-98181000D02*
X141266000Y-98181000D01*
X143025000Y-92775225D02*
X143025000Y-93275225D01*
X143275000Y-93025225D02*
X142775000Y-93025225D01*
X170150000Y-115559000D02*
X170150000Y-114301000D01*
X171990000Y-115559000D02*
X171990000Y-114301000D01*
X168060000Y-102849000D02*
X168060000Y-101591000D01*
X166220000Y-102849000D02*
X166220000Y-101591000D01*
X140710000Y-115629000D02*
X140710000Y-114371000D01*
X142550000Y-115629000D02*
X142550000Y-114371000D01*
X191340000Y-102849000D02*
X191340000Y-101591000D01*
X189500000Y-102849000D02*
X189500000Y-101591000D01*
X140590000Y-102919000D02*
X140590000Y-101661000D01*
X142430000Y-102919000D02*
X142430000Y-101661000D01*
X136210000Y-165130000D02*
X136210000Y-172870000D01*
X197230000Y-165130000D02*
X136210000Y-165130000D01*
X199830000Y-172870000D02*
X136210000Y-172870000D01*
X197230000Y-165130000D02*
X197230000Y-170280000D01*
X197230000Y-170270000D02*
X199830000Y-170270000D01*
X199830000Y-170270000D02*
X199830000Y-172870000D01*
X198500000Y-165130000D02*
X199830000Y-165130000D01*
X199830000Y-165130000D02*
X199830000Y-166460000D01*
X198490000Y-124300000D02*
X201150000Y-124300000D01*
X198490000Y-119160000D02*
X198490000Y-124300000D01*
X201150000Y-119160000D02*
X201150000Y-124300000D01*
X198490000Y-119160000D02*
X201150000Y-119160000D01*
X198490000Y-117890000D02*
X198490000Y-116560000D01*
X198490000Y-116560000D02*
X199820000Y-116560000D01*
X210160000Y-116510000D02*
X210160000Y-129330000D01*
X210160000Y-129330000D02*
X212820000Y-129330000D01*
X212820000Y-129330000D02*
X212820000Y-116510000D01*
X212820000Y-116510000D02*
X210160000Y-116510000D01*
X212820000Y-117460000D02*
X218820000Y-117460000D01*
X218820000Y-117460000D02*
X218820000Y-118220000D01*
X218820000Y-118220000D02*
X212820000Y-118220000D01*
X212820000Y-117520000D02*
X218820000Y-117520000D01*
X212820000Y-117640000D02*
X218820000Y-117640000D01*
X212820000Y-117760000D02*
X218820000Y-117760000D01*
X212820000Y-117880000D02*
X218820000Y-117880000D01*
X212820000Y-118000000D02*
X218820000Y-118000000D01*
X212820000Y-118120000D02*
X218820000Y-118120000D01*
X209830000Y-117460000D02*
X210160000Y-117460000D01*
X209830000Y-118220000D02*
X210160000Y-118220000D01*
X210160000Y-119110000D02*
X212820000Y-119110000D01*
X212820000Y-120000000D02*
X218820000Y-120000000D01*
X218820000Y-120000000D02*
X218820000Y-120760000D01*
X218820000Y-120760000D02*
X212820000Y-120760000D01*
X209762929Y-120000000D02*
X210160000Y-120000000D01*
X209762929Y-120760000D02*
X210160000Y-120760000D01*
X210160000Y-121650000D02*
X212820000Y-121650000D01*
X212820000Y-122540000D02*
X218820000Y-122540000D01*
X218820000Y-122540000D02*
X218820000Y-123300000D01*
X218820000Y-123300000D02*
X212820000Y-123300000D01*
X209762929Y-122540000D02*
X210160000Y-122540000D01*
X209762929Y-123300000D02*
X210160000Y-123300000D01*
X210160000Y-124190000D02*
X212820000Y-124190000D01*
X212820000Y-125080000D02*
X218820000Y-125080000D01*
X218820000Y-125080000D02*
X218820000Y-125840000D01*
X218820000Y-125840000D02*
X212820000Y-125840000D01*
X209762929Y-125080000D02*
X210160000Y-125080000D01*
X209762929Y-125840000D02*
X210160000Y-125840000D01*
X210160000Y-126730000D02*
X212820000Y-126730000D01*
X212820000Y-127620000D02*
X218820000Y-127620000D01*
X218820000Y-127620000D02*
X218820000Y-128380000D01*
X218820000Y-128380000D02*
X212820000Y-128380000D01*
X209762929Y-127620000D02*
X210160000Y-127620000D01*
X209762929Y-128380000D02*
X210160000Y-128380000D01*
X207450000Y-117840000D02*
X207450000Y-116570000D01*
X207450000Y-116570000D02*
X208720000Y-116570000D01*
X132300000Y-103530000D02*
X130970000Y-103530000D01*
X132300000Y-102200000D02*
X132300000Y-103530000D01*
X129700000Y-103530000D02*
X127100000Y-103530000D01*
X129700000Y-100930000D02*
X129700000Y-103530000D01*
X132300000Y-100930000D02*
X129700000Y-100930000D01*
X127100000Y-103530000D02*
X127100000Y-85630000D01*
X132300000Y-100930000D02*
X132300000Y-85630000D01*
X132300000Y-85630000D02*
X127100000Y-85630000D01*
X132300000Y-112300000D02*
X127100000Y-112300000D01*
X132300000Y-127600000D02*
X132300000Y-112300000D01*
X127100000Y-130200000D02*
X127100000Y-112300000D01*
X132300000Y-127600000D02*
X129700000Y-127600000D01*
X129700000Y-127600000D02*
X129700000Y-130200000D01*
X129700000Y-130200000D02*
X127100000Y-130200000D01*
X132300000Y-128870000D02*
X132300000Y-130200000D01*
X132300000Y-130200000D02*
X130970000Y-130200000D01*
X142170000Y-86020000D02*
X193090000Y-86020000D01*
X193090000Y-86020000D02*
X193090000Y-83360000D01*
X193090000Y-83360000D02*
X142170000Y-83360000D01*
X142170000Y-83360000D02*
X142170000Y-86020000D01*
X143120000Y-83360000D02*
X143120000Y-77360000D01*
X143120000Y-77360000D02*
X143880000Y-77360000D01*
X143880000Y-77360000D02*
X143880000Y-83360000D01*
X143180000Y-83360000D02*
X143180000Y-77360000D01*
X143300000Y-83360000D02*
X143300000Y-77360000D01*
X143420000Y-83360000D02*
X143420000Y-77360000D01*
X143540000Y-83360000D02*
X143540000Y-77360000D01*
X143660000Y-83360000D02*
X143660000Y-77360000D01*
X143780000Y-83360000D02*
X143780000Y-77360000D01*
X143120000Y-86417071D02*
X143120000Y-86020000D01*
X143880000Y-86417071D02*
X143880000Y-86020000D01*
X143120000Y-88890000D02*
X143120000Y-88502929D01*
X143880000Y-88890000D02*
X143880000Y-88502929D01*
X144770000Y-86020000D02*
X144770000Y-83360000D01*
X145660000Y-83360000D02*
X145660000Y-77360000D01*
X145660000Y-77360000D02*
X146420000Y-77360000D01*
X146420000Y-77360000D02*
X146420000Y-83360000D01*
X145660000Y-86417071D02*
X145660000Y-86020000D01*
X146420000Y-86417071D02*
X146420000Y-86020000D01*
X145660000Y-88957071D02*
X145660000Y-88502929D01*
X146420000Y-88957071D02*
X146420000Y-88502929D01*
X147310000Y-86020000D02*
X147310000Y-83360000D01*
X148200000Y-83360000D02*
X148200000Y-77360000D01*
X148200000Y-77360000D02*
X148960000Y-77360000D01*
X148960000Y-77360000D02*
X148960000Y-83360000D01*
X148200000Y-86417071D02*
X148200000Y-86020000D01*
X148960000Y-86417071D02*
X148960000Y-86020000D01*
X148200000Y-88957071D02*
X148200000Y-88502929D01*
X148960000Y-88957071D02*
X148960000Y-88502929D01*
X149850000Y-86020000D02*
X149850000Y-83360000D01*
X150740000Y-83360000D02*
X150740000Y-77360000D01*
X150740000Y-77360000D02*
X151500000Y-77360000D01*
X151500000Y-77360000D02*
X151500000Y-83360000D01*
X150740000Y-86417071D02*
X150740000Y-86020000D01*
X151500000Y-86417071D02*
X151500000Y-86020000D01*
X150740000Y-88957071D02*
X150740000Y-88502929D01*
X151500000Y-88957071D02*
X151500000Y-88502929D01*
X152390000Y-86020000D02*
X152390000Y-83360000D01*
X153280000Y-83360000D02*
X153280000Y-77360000D01*
X153280000Y-77360000D02*
X154040000Y-77360000D01*
X154040000Y-77360000D02*
X154040000Y-83360000D01*
X153280000Y-86417071D02*
X153280000Y-86020000D01*
X154040000Y-86417071D02*
X154040000Y-86020000D01*
X153280000Y-88957071D02*
X153280000Y-88502929D01*
X154040000Y-88957071D02*
X154040000Y-88502929D01*
X154930000Y-86020000D02*
X154930000Y-83360000D01*
X155820000Y-83360000D02*
X155820000Y-77360000D01*
X155820000Y-77360000D02*
X156580000Y-77360000D01*
X156580000Y-77360000D02*
X156580000Y-83360000D01*
X155820000Y-86417071D02*
X155820000Y-86020000D01*
X156580000Y-86417071D02*
X156580000Y-86020000D01*
X155820000Y-88957071D02*
X155820000Y-88502929D01*
X156580000Y-88957071D02*
X156580000Y-88502929D01*
X157470000Y-86020000D02*
X157470000Y-83360000D01*
X158360000Y-83360000D02*
X158360000Y-77360000D01*
X158360000Y-77360000D02*
X159120000Y-77360000D01*
X159120000Y-77360000D02*
X159120000Y-83360000D01*
X158360000Y-86417071D02*
X158360000Y-86020000D01*
X159120000Y-86417071D02*
X159120000Y-86020000D01*
X158360000Y-88957071D02*
X158360000Y-88502929D01*
X159120000Y-88957071D02*
X159120000Y-88502929D01*
X160010000Y-86020000D02*
X160010000Y-83360000D01*
X160900000Y-83360000D02*
X160900000Y-77360000D01*
X160900000Y-77360000D02*
X161660000Y-77360000D01*
X161660000Y-77360000D02*
X161660000Y-83360000D01*
X160900000Y-86417071D02*
X160900000Y-86020000D01*
X161660000Y-86417071D02*
X161660000Y-86020000D01*
X160900000Y-88957071D02*
X160900000Y-88502929D01*
X161660000Y-88957071D02*
X161660000Y-88502929D01*
X162550000Y-86020000D02*
X162550000Y-83360000D01*
X163440000Y-83360000D02*
X163440000Y-77360000D01*
X163440000Y-77360000D02*
X164200000Y-77360000D01*
X164200000Y-77360000D02*
X164200000Y-83360000D01*
X163440000Y-86417071D02*
X163440000Y-86020000D01*
X164200000Y-86417071D02*
X164200000Y-86020000D01*
X163440000Y-88957071D02*
X163440000Y-88502929D01*
X164200000Y-88957071D02*
X164200000Y-88502929D01*
X165090000Y-86020000D02*
X165090000Y-83360000D01*
X165980000Y-83360000D02*
X165980000Y-77360000D01*
X165980000Y-77360000D02*
X166740000Y-77360000D01*
X166740000Y-77360000D02*
X166740000Y-83360000D01*
X165980000Y-86417071D02*
X165980000Y-86020000D01*
X166740000Y-86417071D02*
X166740000Y-86020000D01*
X165980000Y-88957071D02*
X165980000Y-88502929D01*
X166740000Y-88957071D02*
X166740000Y-88502929D01*
X167630000Y-86020000D02*
X167630000Y-83360000D01*
X168520000Y-83360000D02*
X168520000Y-77360000D01*
X168520000Y-77360000D02*
X169280000Y-77360000D01*
X169280000Y-77360000D02*
X169280000Y-83360000D01*
X168520000Y-86417071D02*
X168520000Y-86020000D01*
X169280000Y-86417071D02*
X169280000Y-86020000D01*
X168520000Y-88957071D02*
X168520000Y-88502929D01*
X169280000Y-88957071D02*
X169280000Y-88502929D01*
X170170000Y-86020000D02*
X170170000Y-83360000D01*
X171060000Y-83360000D02*
X171060000Y-77360000D01*
X171060000Y-77360000D02*
X171820000Y-77360000D01*
X171820000Y-77360000D02*
X171820000Y-83360000D01*
X171060000Y-86417071D02*
X171060000Y-86020000D01*
X171820000Y-86417071D02*
X171820000Y-86020000D01*
X171060000Y-88957071D02*
X171060000Y-88502929D01*
X171820000Y-88957071D02*
X171820000Y-88502929D01*
X172710000Y-86020000D02*
X172710000Y-83360000D01*
X173600000Y-83360000D02*
X173600000Y-77360000D01*
X173600000Y-77360000D02*
X174360000Y-77360000D01*
X174360000Y-77360000D02*
X174360000Y-83360000D01*
X173600000Y-86417071D02*
X173600000Y-86020000D01*
X174360000Y-86417071D02*
X174360000Y-86020000D01*
X173600000Y-88957071D02*
X173600000Y-88502929D01*
X174360000Y-88957071D02*
X174360000Y-88502929D01*
X175250000Y-86020000D02*
X175250000Y-83360000D01*
X176140000Y-83360000D02*
X176140000Y-77360000D01*
X176140000Y-77360000D02*
X176900000Y-77360000D01*
X176900000Y-77360000D02*
X176900000Y-83360000D01*
X176140000Y-86417071D02*
X176140000Y-86020000D01*
X176900000Y-86417071D02*
X176900000Y-86020000D01*
X176140000Y-88957071D02*
X176140000Y-88502929D01*
X176900000Y-88957071D02*
X176900000Y-88502929D01*
X177790000Y-86020000D02*
X177790000Y-83360000D01*
X178680000Y-83360000D02*
X178680000Y-77360000D01*
X178680000Y-77360000D02*
X179440000Y-77360000D01*
X179440000Y-77360000D02*
X179440000Y-83360000D01*
X178680000Y-86417071D02*
X178680000Y-86020000D01*
X179440000Y-86417071D02*
X179440000Y-86020000D01*
X178680000Y-88957071D02*
X178680000Y-88502929D01*
X179440000Y-88957071D02*
X179440000Y-88502929D01*
X180330000Y-86020000D02*
X180330000Y-83360000D01*
X181220000Y-83360000D02*
X181220000Y-77360000D01*
X181220000Y-77360000D02*
X181980000Y-77360000D01*
X181980000Y-77360000D02*
X181980000Y-83360000D01*
X181220000Y-86417071D02*
X181220000Y-86020000D01*
X181980000Y-86417071D02*
X181980000Y-86020000D01*
X181220000Y-88957071D02*
X181220000Y-88502929D01*
X181980000Y-88957071D02*
X181980000Y-88502929D01*
X182870000Y-86020000D02*
X182870000Y-83360000D01*
X183760000Y-83360000D02*
X183760000Y-77360000D01*
X183760000Y-77360000D02*
X184520000Y-77360000D01*
X184520000Y-77360000D02*
X184520000Y-83360000D01*
X183760000Y-86417071D02*
X183760000Y-86020000D01*
X184520000Y-86417071D02*
X184520000Y-86020000D01*
X183760000Y-88957071D02*
X183760000Y-88502929D01*
X184520000Y-88957071D02*
X184520000Y-88502929D01*
X185410000Y-86020000D02*
X185410000Y-83360000D01*
X186300000Y-83360000D02*
X186300000Y-77360000D01*
X186300000Y-77360000D02*
X187060000Y-77360000D01*
X187060000Y-77360000D02*
X187060000Y-83360000D01*
X186300000Y-86417071D02*
X186300000Y-86020000D01*
X187060000Y-86417071D02*
X187060000Y-86020000D01*
X186300000Y-88957071D02*
X186300000Y-88502929D01*
X187060000Y-88957071D02*
X187060000Y-88502929D01*
X187950000Y-86020000D02*
X187950000Y-83360000D01*
X188840000Y-83360000D02*
X188840000Y-77360000D01*
X188840000Y-77360000D02*
X189600000Y-77360000D01*
X189600000Y-77360000D02*
X189600000Y-83360000D01*
X188840000Y-86417071D02*
X188840000Y-86020000D01*
X189600000Y-86417071D02*
X189600000Y-86020000D01*
X188840000Y-88957071D02*
X188840000Y-88502929D01*
X189600000Y-88957071D02*
X189600000Y-88502929D01*
X190490000Y-86020000D02*
X190490000Y-83360000D01*
X191380000Y-83360000D02*
X191380000Y-77360000D01*
X191380000Y-77360000D02*
X192140000Y-77360000D01*
X192140000Y-77360000D02*
X192140000Y-83360000D01*
X191380000Y-86417071D02*
X191380000Y-86020000D01*
X192140000Y-86417071D02*
X192140000Y-86020000D01*
X191380000Y-88957071D02*
X191380000Y-88502929D01*
X192140000Y-88957071D02*
X192140000Y-88502929D01*
X143500000Y-91270000D02*
X142230000Y-91270000D01*
X142230000Y-91270000D02*
X142230000Y-90000000D01*
X168810000Y-104160000D02*
G75*
G02X168810000Y-106160000I0J-1000000D01*
G01*
X168810000Y-106160000D02*
X168810000Y-107810000D01*
X168810000Y-107810000D02*
X186710000Y-107810000D01*
X186710000Y-107810000D02*
X186710000Y-102510000D01*
X186710000Y-102510000D02*
X168810000Y-102510000D01*
X168810000Y-102510000D02*
X168810000Y-104160000D01*
X168750000Y-110300000D02*
X186770000Y-110300000D01*
X186770000Y-110300000D02*
X186770000Y-100020000D01*
X186770000Y-100020000D02*
X168750000Y-100020000D01*
X168750000Y-100020000D02*
X168750000Y-110300000D01*
X172680000Y-112730000D02*
X172680000Y-123010000D01*
X190700000Y-112730000D02*
X172680000Y-112730000D01*
X190700000Y-123010000D02*
X190700000Y-112730000D01*
X172680000Y-123010000D02*
X190700000Y-123010000D01*
X172740000Y-115220000D02*
X172740000Y-116870000D01*
X190640000Y-115220000D02*
X172740000Y-115220000D01*
X190640000Y-120520000D02*
X190640000Y-115220000D01*
X172740000Y-120520000D02*
X190640000Y-120520000D01*
X172740000Y-118870000D02*
X172740000Y-120520000D01*
X172740000Y-116870000D02*
G75*
G02X172740000Y-118870000I0J-1000000D01*
G01*
X143300000Y-116940000D02*
G75*
G02X143300000Y-118940000I0J-1000000D01*
G01*
X143300000Y-118940000D02*
X143300000Y-120590000D01*
X143300000Y-120590000D02*
X161200000Y-120590000D01*
X161200000Y-120590000D02*
X161200000Y-115290000D01*
X161200000Y-115290000D02*
X143300000Y-115290000D01*
X143300000Y-115290000D02*
X143300000Y-116940000D01*
X143240000Y-123080000D02*
X161260000Y-123080000D01*
X161260000Y-123080000D02*
X161260000Y-112800000D01*
X161260000Y-112800000D02*
X143240000Y-112800000D01*
X143240000Y-112800000D02*
X143240000Y-123080000D01*
X143120000Y-100090000D02*
X143120000Y-110370000D01*
X163680000Y-100090000D02*
X143120000Y-100090000D01*
X163680000Y-110370000D02*
X163680000Y-100090000D01*
X143120000Y-110370000D02*
X163680000Y-110370000D01*
X143180000Y-102580000D02*
X143180000Y-104230000D01*
X163620000Y-102580000D02*
X143180000Y-102580000D01*
X163620000Y-107880000D02*
X163620000Y-102580000D01*
X143180000Y-107880000D02*
X163620000Y-107880000D01*
X143180000Y-106230000D02*
X143180000Y-107880000D01*
X143180000Y-104230000D02*
G75*
G02X143180000Y-106230000I0J-1000000D01*
G01*
X192090000Y-104160000D02*
G75*
G02X192090000Y-106160000I0J-1000000D01*
G01*
X192090000Y-106160000D02*
X192090000Y-107810000D01*
X192090000Y-107810000D02*
X212530000Y-107810000D01*
X212530000Y-107810000D02*
X212530000Y-102510000D01*
X212530000Y-102510000D02*
X192090000Y-102510000D01*
X192090000Y-102510000D02*
X192090000Y-104160000D01*
X192030000Y-110300000D02*
X212590000Y-110300000D01*
X212590000Y-110300000D02*
X212590000Y-100020000D01*
X212590000Y-100020000D02*
X192030000Y-100020000D01*
X192030000Y-100020000D02*
X192030000Y-110300000D01*
X134970000Y-115230000D02*
X137770000Y-115230000D01*
X137770000Y-115230000D02*
X137770000Y-92030000D01*
X137770000Y-92030000D02*
X134970000Y-92030000D01*
X134970000Y-92030000D02*
X134970000Y-115230000D01*
X134970000Y-112520000D02*
X137770000Y-112520000D01*
D12*
X200282380Y-143063333D02*
X200996666Y-143063333D01*
X201139523Y-143110952D01*
X201234761Y-143206190D01*
X201282380Y-143349047D01*
X201282380Y-143444285D01*
X200282380Y-142682380D02*
X200282380Y-142015714D01*
X201282380Y-142444285D01*
X129952380Y-168246666D02*
X129476190Y-168580000D01*
X129952380Y-168818095D02*
X128952380Y-168818095D01*
X128952380Y-168437142D01*
X129000000Y-168341904D01*
X129047619Y-168294285D01*
X129142857Y-168246666D01*
X129285714Y-168246666D01*
X129380952Y-168294285D01*
X129428571Y-168341904D01*
X129476190Y-168437142D01*
X129476190Y-168818095D01*
X128952380Y-167913333D02*
X128952380Y-167246666D01*
X129952380Y-167675238D01*
X130152380Y-143876666D02*
X129676190Y-144210000D01*
X130152380Y-144448095D02*
X129152380Y-144448095D01*
X129152380Y-144067142D01*
X129200000Y-143971904D01*
X129247619Y-143924285D01*
X129342857Y-143876666D01*
X129485714Y-143876666D01*
X129580952Y-143924285D01*
X129628571Y-143971904D01*
X129676190Y-144067142D01*
X129676190Y-144448095D01*
X129152380Y-143019523D02*
X129152380Y-143210000D01*
X129200000Y-143305238D01*
X129247619Y-143352857D01*
X129390476Y-143448095D01*
X129580952Y-143495714D01*
X129961904Y-143495714D01*
X130057142Y-143448095D01*
X130104761Y-143400476D01*
X130152380Y-143305238D01*
X130152380Y-143114761D01*
X130104761Y-143019523D01*
X130057142Y-142971904D01*
X129961904Y-142924285D01*
X129723809Y-142924285D01*
X129628571Y-142971904D01*
X129580952Y-143019523D01*
X129533333Y-143114761D01*
X129533333Y-143305238D01*
X129580952Y-143400476D01*
X129628571Y-143448095D01*
X129723809Y-143495714D01*
X200653333Y-131632380D02*
X200320000Y-131156190D01*
X200081904Y-131632380D02*
X200081904Y-130632380D01*
X200462857Y-130632380D01*
X200558095Y-130680000D01*
X200605714Y-130727619D01*
X200653333Y-130822857D01*
X200653333Y-130965714D01*
X200605714Y-131060952D01*
X200558095Y-131108571D01*
X200462857Y-131156190D01*
X200081904Y-131156190D01*
X201558095Y-130632380D02*
X201081904Y-130632380D01*
X201034285Y-131108571D01*
X201081904Y-131060952D01*
X201177142Y-131013333D01*
X201415238Y-131013333D01*
X201510476Y-131060952D01*
X201558095Y-131108571D01*
X201605714Y-131203809D01*
X201605714Y-131441904D01*
X201558095Y-131537142D01*
X201510476Y-131584761D01*
X201415238Y-131632380D01*
X201177142Y-131632380D01*
X201081904Y-131584761D01*
X201034285Y-131537142D01*
X168252380Y-118476666D02*
X167776190Y-118810000D01*
X168252380Y-119048095D02*
X167252380Y-119048095D01*
X167252380Y-118667142D01*
X167300000Y-118571904D01*
X167347619Y-118524285D01*
X167442857Y-118476666D01*
X167585714Y-118476666D01*
X167680952Y-118524285D01*
X167728571Y-118571904D01*
X167776190Y-118667142D01*
X167776190Y-119048095D01*
X167585714Y-117619523D02*
X168252380Y-117619523D01*
X167204761Y-117857619D02*
X167919047Y-118095714D01*
X167919047Y-117476666D01*
X164442380Y-118476666D02*
X163966190Y-118810000D01*
X164442380Y-119048095D02*
X163442380Y-119048095D01*
X163442380Y-118667142D01*
X163490000Y-118571904D01*
X163537619Y-118524285D01*
X163632857Y-118476666D01*
X163775714Y-118476666D01*
X163870952Y-118524285D01*
X163918571Y-118571904D01*
X163966190Y-118667142D01*
X163966190Y-119048095D01*
X163442380Y-118143333D02*
X163442380Y-117524285D01*
X163823333Y-117857619D01*
X163823333Y-117714761D01*
X163870952Y-117619523D01*
X163918571Y-117571904D01*
X164013809Y-117524285D01*
X164251904Y-117524285D01*
X164347142Y-117571904D01*
X164394761Y-117619523D01*
X164442380Y-117714761D01*
X164442380Y-118000476D01*
X164394761Y-118095714D01*
X164347142Y-118143333D01*
X116091666Y-173372380D02*
X116091666Y-174086666D01*
X116044047Y-174229523D01*
X115948809Y-174324761D01*
X115805952Y-174372380D01*
X115710714Y-174372380D01*
X116996428Y-173372380D02*
X116805952Y-173372380D01*
X116710714Y-173420000D01*
X116663095Y-173467619D01*
X116567857Y-173610476D01*
X116520238Y-173800952D01*
X116520238Y-174181904D01*
X116567857Y-174277142D01*
X116615476Y-174324761D01*
X116710714Y-174372380D01*
X116901190Y-174372380D01*
X116996428Y-174324761D01*
X117044047Y-174277142D01*
X117091666Y-174181904D01*
X117091666Y-173943809D01*
X117044047Y-173848571D01*
X116996428Y-173800952D01*
X116901190Y-173753333D01*
X116710714Y-173753333D01*
X116615476Y-173800952D01*
X116567857Y-173848571D01*
X116520238Y-173943809D01*
X127107142Y-152857142D02*
X127059523Y-152904761D01*
X126916666Y-152952380D01*
X126821428Y-152952380D01*
X126678571Y-152904761D01*
X126583333Y-152809523D01*
X126535714Y-152714285D01*
X126488095Y-152523809D01*
X126488095Y-152380952D01*
X126535714Y-152190476D01*
X126583333Y-152095238D01*
X126678571Y-152000000D01*
X126821428Y-151952380D01*
X126916666Y-151952380D01*
X127059523Y-152000000D01*
X127107142Y-152047619D01*
X128059523Y-152952380D02*
X127488095Y-152952380D01*
X127773809Y-152952380D02*
X127773809Y-151952380D01*
X127678571Y-152095238D01*
X127583333Y-152190476D01*
X127488095Y-152238095D01*
X129011904Y-152952380D02*
X128440476Y-152952380D01*
X128726190Y-152952380D02*
X128726190Y-151952380D01*
X128630952Y-152095238D01*
X128535714Y-152190476D01*
X128440476Y-152238095D01*
X143607142Y-152857142D02*
X143559523Y-152904761D01*
X143416666Y-152952380D01*
X143321428Y-152952380D01*
X143178571Y-152904761D01*
X143083333Y-152809523D01*
X143035714Y-152714285D01*
X142988095Y-152523809D01*
X142988095Y-152380952D01*
X143035714Y-152190476D01*
X143083333Y-152095238D01*
X143178571Y-152000000D01*
X143321428Y-151952380D01*
X143416666Y-151952380D01*
X143559523Y-152000000D01*
X143607142Y-152047619D01*
X144559523Y-152952380D02*
X143988095Y-152952380D01*
X144273809Y-152952380D02*
X144273809Y-151952380D01*
X144178571Y-152095238D01*
X144083333Y-152190476D01*
X143988095Y-152238095D01*
X145178571Y-151952380D02*
X145273809Y-151952380D01*
X145369047Y-152000000D01*
X145416666Y-152047619D01*
X145464285Y-152142857D01*
X145511904Y-152333333D01*
X145511904Y-152571428D01*
X145464285Y-152761904D01*
X145416666Y-152857142D01*
X145369047Y-152904761D01*
X145273809Y-152952380D01*
X145178571Y-152952380D01*
X145083333Y-152904761D01*
X145035714Y-152857142D01*
X144988095Y-152761904D01*
X144940476Y-152571428D01*
X144940476Y-152333333D01*
X144988095Y-152142857D01*
X145035714Y-152047619D01*
X145083333Y-152000000D01*
X145178571Y-151952380D01*
X135583333Y-152857142D02*
X135535714Y-152904761D01*
X135392857Y-152952380D01*
X135297619Y-152952380D01*
X135154761Y-152904761D01*
X135059523Y-152809523D01*
X135011904Y-152714285D01*
X134964285Y-152523809D01*
X134964285Y-152380952D01*
X135011904Y-152190476D01*
X135059523Y-152095238D01*
X135154761Y-152000000D01*
X135297619Y-151952380D01*
X135392857Y-151952380D01*
X135535714Y-152000000D01*
X135583333Y-152047619D01*
X136059523Y-152952380D02*
X136250000Y-152952380D01*
X136345238Y-152904761D01*
X136392857Y-152857142D01*
X136488095Y-152714285D01*
X136535714Y-152523809D01*
X136535714Y-152142857D01*
X136488095Y-152047619D01*
X136440476Y-152000000D01*
X136345238Y-151952380D01*
X136154761Y-151952380D01*
X136059523Y-152000000D01*
X136011904Y-152047619D01*
X135964285Y-152142857D01*
X135964285Y-152380952D01*
X136011904Y-152476190D01*
X136059523Y-152523809D01*
X136154761Y-152571428D01*
X136345238Y-152571428D01*
X136440476Y-152523809D01*
X136488095Y-152476190D01*
X136535714Y-152380952D01*
X170952380Y-133511904D02*
X171761904Y-133511904D01*
X171857142Y-133464285D01*
X171904761Y-133416666D01*
X171952380Y-133321428D01*
X171952380Y-133130952D01*
X171904761Y-133035714D01*
X171857142Y-132988095D01*
X171761904Y-132940476D01*
X170952380Y-132940476D01*
X170952380Y-132035714D02*
X170952380Y-132226190D01*
X171000000Y-132321428D01*
X171047619Y-132369047D01*
X171190476Y-132464285D01*
X171380952Y-132511904D01*
X171761904Y-132511904D01*
X171857142Y-132464285D01*
X171904761Y-132416666D01*
X171952380Y-132321428D01*
X171952380Y-132130952D01*
X171904761Y-132035714D01*
X171857142Y-131988095D01*
X171761904Y-131940476D01*
X171523809Y-131940476D01*
X171428571Y-131988095D01*
X171380952Y-132035714D01*
X171333333Y-132130952D01*
X171333333Y-132321428D01*
X171380952Y-132416666D01*
X171428571Y-132464285D01*
X171523809Y-132511904D01*
X157473333Y-131862380D02*
X157140000Y-131386190D01*
X156901904Y-131862380D02*
X156901904Y-130862380D01*
X157282857Y-130862380D01*
X157378095Y-130910000D01*
X157425714Y-130957619D01*
X157473333Y-131052857D01*
X157473333Y-131195714D01*
X157425714Y-131290952D01*
X157378095Y-131338571D01*
X157282857Y-131386190D01*
X156901904Y-131386190D01*
X157854285Y-130957619D02*
X157901904Y-130910000D01*
X157997142Y-130862380D01*
X158235238Y-130862380D01*
X158330476Y-130910000D01*
X158378095Y-130957619D01*
X158425714Y-131052857D01*
X158425714Y-131148095D01*
X158378095Y-131290952D01*
X157806666Y-131862380D01*
X158425714Y-131862380D01*
X157473333Y-127417380D02*
X157140000Y-126941190D01*
X156901904Y-127417380D02*
X156901904Y-126417380D01*
X157282857Y-126417380D01*
X157378095Y-126465000D01*
X157425714Y-126512619D01*
X157473333Y-126607857D01*
X157473333Y-126750714D01*
X157425714Y-126845952D01*
X157378095Y-126893571D01*
X157282857Y-126941190D01*
X156901904Y-126941190D01*
X158425714Y-127417380D02*
X157854285Y-127417380D01*
X158140000Y-127417380D02*
X158140000Y-126417380D01*
X158044761Y-126560238D01*
X157949523Y-126655476D01*
X157854285Y-126703095D01*
X142697380Y-128433333D02*
X143411666Y-128433333D01*
X143554523Y-128480952D01*
X143649761Y-128576190D01*
X143697380Y-128719047D01*
X143697380Y-128814285D01*
X143697380Y-127957142D02*
X142697380Y-127957142D01*
X142697380Y-127576190D01*
X142745000Y-127480952D01*
X142792619Y-127433333D01*
X142887857Y-127385714D01*
X143030714Y-127385714D01*
X143125952Y-127433333D01*
X143173571Y-127480952D01*
X143221190Y-127576190D01*
X143221190Y-127957142D01*
X142792619Y-127004761D02*
X142745000Y-126957142D01*
X142697380Y-126861904D01*
X142697380Y-126623809D01*
X142745000Y-126528571D01*
X142792619Y-126480952D01*
X142887857Y-126433333D01*
X142983095Y-126433333D01*
X143125952Y-126480952D01*
X143697380Y-127052380D01*
X143697380Y-126433333D01*
X169282142Y-127151666D02*
X169329761Y-127199285D01*
X169377380Y-127342142D01*
X169377380Y-127437380D01*
X169329761Y-127580238D01*
X169234523Y-127675476D01*
X169139285Y-127723095D01*
X168948809Y-127770714D01*
X168805952Y-127770714D01*
X168615476Y-127723095D01*
X168520238Y-127675476D01*
X168425000Y-127580238D01*
X168377380Y-127437380D01*
X168377380Y-127342142D01*
X168425000Y-127199285D01*
X168472619Y-127151666D01*
X168805952Y-126580238D02*
X168758333Y-126675476D01*
X168710714Y-126723095D01*
X168615476Y-126770714D01*
X168567857Y-126770714D01*
X168472619Y-126723095D01*
X168425000Y-126675476D01*
X168377380Y-126580238D01*
X168377380Y-126389761D01*
X168425000Y-126294523D01*
X168472619Y-126246904D01*
X168567857Y-126199285D01*
X168615476Y-126199285D01*
X168710714Y-126246904D01*
X168758333Y-126294523D01*
X168805952Y-126389761D01*
X168805952Y-126580238D01*
X168853571Y-126675476D01*
X168901190Y-126723095D01*
X168996428Y-126770714D01*
X169186904Y-126770714D01*
X169282142Y-126723095D01*
X169329761Y-126675476D01*
X169377380Y-126580238D01*
X169377380Y-126389761D01*
X169329761Y-126294523D01*
X169282142Y-126246904D01*
X169186904Y-126199285D01*
X168996428Y-126199285D01*
X168901190Y-126246904D01*
X168853571Y-126294523D01*
X168805952Y-126389761D01*
X138083333Y-128607142D02*
X138035714Y-128654761D01*
X137892857Y-128702380D01*
X137797619Y-128702380D01*
X137654761Y-128654761D01*
X137559523Y-128559523D01*
X137511904Y-128464285D01*
X137464285Y-128273809D01*
X137464285Y-128130952D01*
X137511904Y-127940476D01*
X137559523Y-127845238D01*
X137654761Y-127750000D01*
X137797619Y-127702380D01*
X137892857Y-127702380D01*
X138035714Y-127750000D01*
X138083333Y-127797619D01*
X138940476Y-127702380D02*
X138750000Y-127702380D01*
X138654761Y-127750000D01*
X138607142Y-127797619D01*
X138511904Y-127940476D01*
X138464285Y-128130952D01*
X138464285Y-128511904D01*
X138511904Y-128607142D01*
X138559523Y-128654761D01*
X138654761Y-128702380D01*
X138845238Y-128702380D01*
X138940476Y-128654761D01*
X138988095Y-128607142D01*
X139035714Y-128511904D01*
X139035714Y-128273809D01*
X138988095Y-128178571D01*
X138940476Y-128130952D01*
X138845238Y-128083333D01*
X138654761Y-128083333D01*
X138559523Y-128130952D01*
X138511904Y-128178571D01*
X138464285Y-128273809D01*
X145657142Y-95746666D02*
X145704761Y-95794285D01*
X145752380Y-95937142D01*
X145752380Y-96032380D01*
X145704761Y-96175238D01*
X145609523Y-96270476D01*
X145514285Y-96318095D01*
X145323809Y-96365714D01*
X145180952Y-96365714D01*
X144990476Y-96318095D01*
X144895238Y-96270476D01*
X144800000Y-96175238D01*
X144752380Y-96032380D01*
X144752380Y-95937142D01*
X144800000Y-95794285D01*
X144847619Y-95746666D01*
X144752380Y-94841904D02*
X144752380Y-95318095D01*
X145228571Y-95365714D01*
X145180952Y-95318095D01*
X145133333Y-95222857D01*
X145133333Y-94984761D01*
X145180952Y-94889523D01*
X145228571Y-94841904D01*
X145323809Y-94794285D01*
X145561904Y-94794285D01*
X145657142Y-94841904D01*
X145704761Y-94889523D01*
X145752380Y-94984761D01*
X145752380Y-95222857D01*
X145704761Y-95318095D01*
X145657142Y-95365714D01*
X171607142Y-118666666D02*
X171654761Y-118714285D01*
X171702380Y-118857142D01*
X171702380Y-118952380D01*
X171654761Y-119095238D01*
X171559523Y-119190476D01*
X171464285Y-119238095D01*
X171273809Y-119285714D01*
X171130952Y-119285714D01*
X170940476Y-119238095D01*
X170845238Y-119190476D01*
X170750000Y-119095238D01*
X170702380Y-118952380D01*
X170702380Y-118857142D01*
X170750000Y-118714285D01*
X170797619Y-118666666D01*
X170702380Y-118333333D02*
X170702380Y-117666666D01*
X171702380Y-118095238D01*
X165447142Y-102386666D02*
X165494761Y-102434285D01*
X165542380Y-102577142D01*
X165542380Y-102672380D01*
X165494761Y-102815238D01*
X165399523Y-102910476D01*
X165304285Y-102958095D01*
X165113809Y-103005714D01*
X164970952Y-103005714D01*
X164780476Y-102958095D01*
X164685238Y-102910476D01*
X164590000Y-102815238D01*
X164542380Y-102672380D01*
X164542380Y-102577142D01*
X164590000Y-102434285D01*
X164637619Y-102386666D01*
X164875714Y-101529523D02*
X165542380Y-101529523D01*
X164494761Y-101767619D02*
X165209047Y-102005714D01*
X165209047Y-101386666D01*
X139937142Y-115166666D02*
X139984761Y-115214285D01*
X140032380Y-115357142D01*
X140032380Y-115452380D01*
X139984761Y-115595238D01*
X139889523Y-115690476D01*
X139794285Y-115738095D01*
X139603809Y-115785714D01*
X139460952Y-115785714D01*
X139270476Y-115738095D01*
X139175238Y-115690476D01*
X139080000Y-115595238D01*
X139032380Y-115452380D01*
X139032380Y-115357142D01*
X139080000Y-115214285D01*
X139127619Y-115166666D01*
X139032380Y-114833333D02*
X139032380Y-114214285D01*
X139413333Y-114547619D01*
X139413333Y-114404761D01*
X139460952Y-114309523D01*
X139508571Y-114261904D01*
X139603809Y-114214285D01*
X139841904Y-114214285D01*
X139937142Y-114261904D01*
X139984761Y-114309523D01*
X140032380Y-114404761D01*
X140032380Y-114690476D01*
X139984761Y-114785714D01*
X139937142Y-114833333D01*
X188727142Y-102386666D02*
X188774761Y-102434285D01*
X188822380Y-102577142D01*
X188822380Y-102672380D01*
X188774761Y-102815238D01*
X188679523Y-102910476D01*
X188584285Y-102958095D01*
X188393809Y-103005714D01*
X188250952Y-103005714D01*
X188060476Y-102958095D01*
X187965238Y-102910476D01*
X187870000Y-102815238D01*
X187822380Y-102672380D01*
X187822380Y-102577142D01*
X187870000Y-102434285D01*
X187917619Y-102386666D01*
X187917619Y-102005714D02*
X187870000Y-101958095D01*
X187822380Y-101862857D01*
X187822380Y-101624761D01*
X187870000Y-101529523D01*
X187917619Y-101481904D01*
X188012857Y-101434285D01*
X188108095Y-101434285D01*
X188250952Y-101481904D01*
X188822380Y-102053333D01*
X188822380Y-101434285D01*
X139817142Y-102456666D02*
X139864761Y-102504285D01*
X139912380Y-102647142D01*
X139912380Y-102742380D01*
X139864761Y-102885238D01*
X139769523Y-102980476D01*
X139674285Y-103028095D01*
X139483809Y-103075714D01*
X139340952Y-103075714D01*
X139150476Y-103028095D01*
X139055238Y-102980476D01*
X138960000Y-102885238D01*
X138912380Y-102742380D01*
X138912380Y-102647142D01*
X138960000Y-102504285D01*
X139007619Y-102456666D01*
X139912380Y-101504285D02*
X139912380Y-102075714D01*
X139912380Y-101790000D02*
X138912380Y-101790000D01*
X139055238Y-101885238D01*
X139150476Y-101980476D01*
X139198095Y-102075714D01*
X200282380Y-168063333D02*
X200996666Y-168063333D01*
X201139523Y-168110952D01*
X201234761Y-168206190D01*
X201282380Y-168349047D01*
X201282380Y-168444285D01*
X201282380Y-167063333D02*
X201282380Y-167634761D01*
X201282380Y-167349047D02*
X200282380Y-167349047D01*
X200425238Y-167444285D01*
X200520476Y-167539523D01*
X200568095Y-167634761D01*
X198986666Y-115012380D02*
X198986666Y-115726666D01*
X198939047Y-115869523D01*
X198843809Y-115964761D01*
X198700952Y-116012380D01*
X198605714Y-116012380D01*
X199462857Y-116012380D02*
X199462857Y-115012380D01*
X199843809Y-115012380D01*
X199939047Y-115060000D01*
X199986666Y-115107619D01*
X200034285Y-115202857D01*
X200034285Y-115345714D01*
X199986666Y-115440952D01*
X199939047Y-115488571D01*
X199843809Y-115536190D01*
X199462857Y-115536190D01*
X200986666Y-116012380D02*
X200415238Y-116012380D01*
X200700952Y-116012380D02*
X200700952Y-115012380D01*
X200605714Y-115155238D01*
X200510476Y-115250476D01*
X200415238Y-115298095D01*
X212771666Y-115022380D02*
X212771666Y-115736666D01*
X212724047Y-115879523D01*
X212628809Y-115974761D01*
X212485952Y-116022380D01*
X212390714Y-116022380D01*
X213152619Y-115022380D02*
X213771666Y-115022380D01*
X213438333Y-115403333D01*
X213581190Y-115403333D01*
X213676428Y-115450952D01*
X213724047Y-115498571D01*
X213771666Y-115593809D01*
X213771666Y-115831904D01*
X213724047Y-115927142D01*
X213676428Y-115974761D01*
X213581190Y-116022380D01*
X213295476Y-116022380D01*
X213200238Y-115974761D01*
X213152619Y-115927142D01*
X129366666Y-103982380D02*
X129366666Y-104696666D01*
X129319047Y-104839523D01*
X129223809Y-104934761D01*
X129080952Y-104982380D01*
X128985714Y-104982380D01*
X130319047Y-103982380D02*
X129842857Y-103982380D01*
X129795238Y-104458571D01*
X129842857Y-104410952D01*
X129938095Y-104363333D01*
X130176190Y-104363333D01*
X130271428Y-104410952D01*
X130319047Y-104458571D01*
X130366666Y-104553809D01*
X130366666Y-104791904D01*
X130319047Y-104887142D01*
X130271428Y-104934761D01*
X130176190Y-104982380D01*
X129938095Y-104982380D01*
X129842857Y-104934761D01*
X129795238Y-104887142D01*
X129366666Y-130652380D02*
X129366666Y-131366666D01*
X129319047Y-131509523D01*
X129223809Y-131604761D01*
X129080952Y-131652380D01*
X128985714Y-131652380D01*
X130271428Y-130985714D02*
X130271428Y-131652380D01*
X130033333Y-130604761D02*
X129795238Y-131319047D01*
X130414285Y-131319047D01*
X140682380Y-84678333D02*
X141396666Y-84678333D01*
X141539523Y-84725952D01*
X141634761Y-84821190D01*
X141682380Y-84964047D01*
X141682380Y-85059285D01*
X140777619Y-84249761D02*
X140730000Y-84202142D01*
X140682380Y-84106904D01*
X140682380Y-83868809D01*
X140730000Y-83773571D01*
X140777619Y-83725952D01*
X140872857Y-83678333D01*
X140968095Y-83678333D01*
X141110952Y-83725952D01*
X141682380Y-84297380D01*
X141682380Y-83678333D01*
X167172380Y-109051904D02*
X167981904Y-109051904D01*
X168077142Y-109004285D01*
X168124761Y-108956666D01*
X168172380Y-108861428D01*
X168172380Y-108670952D01*
X168124761Y-108575714D01*
X168077142Y-108528095D01*
X167981904Y-108480476D01*
X167172380Y-108480476D01*
X167172380Y-107528095D02*
X167172380Y-108004285D01*
X167648571Y-108051904D01*
X167600952Y-108004285D01*
X167553333Y-107909047D01*
X167553333Y-107670952D01*
X167600952Y-107575714D01*
X167648571Y-107528095D01*
X167743809Y-107480476D01*
X167981904Y-107480476D01*
X168077142Y-107528095D01*
X168124761Y-107575714D01*
X168172380Y-107670952D01*
X168172380Y-107909047D01*
X168124761Y-108004285D01*
X168077142Y-108051904D01*
X170952380Y-123011904D02*
X171761904Y-123011904D01*
X171857142Y-122964285D01*
X171904761Y-122916666D01*
X171952380Y-122821428D01*
X171952380Y-122630952D01*
X171904761Y-122535714D01*
X171857142Y-122488095D01*
X171761904Y-122440476D01*
X170952380Y-122440476D01*
X171285714Y-121535714D02*
X171952380Y-121535714D01*
X170904761Y-121773809D02*
X171619047Y-122011904D01*
X171619047Y-121392857D01*
X141472380Y-122171904D02*
X142281904Y-122171904D01*
X142377142Y-122124285D01*
X142424761Y-122076666D01*
X142472380Y-121981428D01*
X142472380Y-121790952D01*
X142424761Y-121695714D01*
X142377142Y-121648095D01*
X142281904Y-121600476D01*
X141472380Y-121600476D01*
X141472380Y-121219523D02*
X141472380Y-120600476D01*
X141853333Y-120933809D01*
X141853333Y-120790952D01*
X141900952Y-120695714D01*
X141948571Y-120648095D01*
X142043809Y-120600476D01*
X142281904Y-120600476D01*
X142377142Y-120648095D01*
X142424761Y-120695714D01*
X142472380Y-120790952D01*
X142472380Y-121076666D01*
X142424761Y-121171904D01*
X142377142Y-121219523D01*
X141472380Y-109281904D02*
X142281904Y-109281904D01*
X142377142Y-109234285D01*
X142424761Y-109186666D01*
X142472380Y-109091428D01*
X142472380Y-108900952D01*
X142424761Y-108805714D01*
X142377142Y-108758095D01*
X142281904Y-108710476D01*
X141472380Y-108710476D01*
X141567619Y-108281904D02*
X141520000Y-108234285D01*
X141472380Y-108139047D01*
X141472380Y-107900952D01*
X141520000Y-107805714D01*
X141567619Y-107758095D01*
X141662857Y-107710476D01*
X141758095Y-107710476D01*
X141900952Y-107758095D01*
X142472380Y-108329523D01*
X142472380Y-107710476D01*
X190512380Y-108891904D02*
X191321904Y-108891904D01*
X191417142Y-108844285D01*
X191464761Y-108796666D01*
X191512380Y-108701428D01*
X191512380Y-108510952D01*
X191464761Y-108415714D01*
X191417142Y-108368095D01*
X191321904Y-108320476D01*
X190512380Y-108320476D01*
X191512380Y-107320476D02*
X191512380Y-107891904D01*
X191512380Y-107606190D02*
X190512380Y-107606190D01*
X190655238Y-107701428D01*
X190750476Y-107796666D01*
X190798095Y-107891904D01*
X137062380Y-90610476D02*
X136586190Y-90943809D01*
X137062380Y-91181904D02*
X136062380Y-91181904D01*
X136062380Y-90800952D01*
X136110000Y-90705714D01*
X136157619Y-90658095D01*
X136252857Y-90610476D01*
X136395714Y-90610476D01*
X136490952Y-90658095D01*
X136538571Y-90705714D01*
X136586190Y-90800952D01*
X136586190Y-91181904D01*
X137062380Y-90181904D02*
X136062380Y-90181904D01*
X137062380Y-89610476D01*
X136062380Y-89610476D01*
X137062380Y-88610476D02*
X137062380Y-89181904D01*
X137062380Y-88896190D02*
X136062380Y-88896190D01*
X136205238Y-88991428D01*
X136300476Y-89086666D01*
X136348095Y-89181904D01*
M02*
