M48
; DRILL file {KiCad (5.1.4-0-10_14)} date 2021 February 18, Thursday 19:42:21
; FORMAT={-:-/ absolute / metric / decimal}
; #@! TF.CreationDate,2021-02-18T19:42:21+09:00
; #@! TF.GenerationSoftware,Kicad,Pcbnew,(5.1.4-0-10_14)
FMAT,2
METRIC
T1C0.400
T2C0.800
T3C1.000
T4C3.200
%
G90
G05
T1
X140.229Y-86.516
X146.976Y-131.302
X155.165Y-118.23
X156.382Y-137.846
X166.32Y-116.977
X169.997Y-105.404
X172.75Y-139.587
X179.604Y-139.126
X180.262Y-138.368
X181.683Y-93.852
X192.621Y-106.851
X193.168Y-99.012
X194.545Y-110.672
X197.087Y-99.737
X197.647Y-120.095
X199.759Y-124.736
X204.478Y-146.099
X212.0Y-156.5
X212.5Y-173.5
T2
X171.07Y-113.68
X171.07Y-116.18
X144.63Y-114.13
X144.63Y-121.75
X147.17Y-114.13
X147.17Y-121.75
X149.71Y-114.13
X149.71Y-121.75
X152.25Y-114.13
X152.25Y-121.75
X154.79Y-114.13
X154.79Y-121.75
X157.33Y-114.13
X159.87Y-114.13
X170.975Y-125.735
X170.975Y-128.235
X137.0Y-132.0
X139.5Y-132.0
X141.55Y-94.33
X141.55Y-96.83
X157.33Y-121.75
X159.87Y-121.75
X167.14Y-100.97
X167.14Y-103.47
X170.14Y-101.35
X170.14Y-108.97
X172.68Y-101.35
X172.68Y-108.97
X141.63Y-113.75
X141.63Y-116.25
X175.22Y-101.35
X175.22Y-108.97
X177.76Y-101.35
X177.76Y-108.97
X180.3Y-101.35
X180.3Y-108.97
X182.84Y-101.35
X182.84Y-108.97
X185.38Y-101.35
X185.38Y-108.97
X174.15Y-126.33
X174.15Y-133.95
X176.69Y-126.33
X176.69Y-133.95
X179.23Y-126.33
X179.23Y-133.95
X181.77Y-126.33
X181.77Y-133.95
X184.31Y-126.33
X184.31Y-133.95
X186.85Y-126.33
X186.85Y-133.95
X189.39Y-126.33
X189.39Y-133.95
X152.56Y-126.965
X162.72Y-126.965
X136.37Y-93.47
X193.42Y-101.35
X193.42Y-108.97
X195.96Y-101.35
X195.96Y-108.97
X198.5Y-101.35
X198.5Y-108.97
X201.04Y-101.35
X201.04Y-108.97
X203.58Y-101.35
X203.58Y-108.97
X206.12Y-101.35
X206.12Y-108.97
X208.66Y-101.35
X211.2Y-101.35
X190.42Y-100.97
X190.42Y-103.47
X136.37Y-101.09
X136.37Y-103.63
X136.37Y-106.17
X136.37Y-108.71
X136.37Y-111.25
X136.37Y-113.79
X211.2Y-108.97
X152.56Y-131.41
X162.72Y-131.41
X136.37Y-98.55
X208.66Y-108.97
X136.37Y-96.01
X141.51Y-101.04
X141.51Y-103.54
X174.07Y-114.06
X174.07Y-121.68
X176.61Y-114.06
X176.61Y-121.68
X179.15Y-114.06
X179.15Y-121.68
X181.69Y-114.06
X181.69Y-121.68
X184.23Y-114.06
X184.23Y-121.68
X186.77Y-114.06
X186.77Y-121.68
X189.31Y-114.06
X189.31Y-121.68
X129.7Y-138.63
X129.7Y-148.79
X163.99Y-113.23
X163.99Y-123.39
X144.51Y-101.42
X144.51Y-109.04
X147.05Y-101.42
X147.05Y-109.04
X149.59Y-101.42
X149.59Y-109.04
X152.13Y-101.42
X152.13Y-109.04
X154.67Y-101.42
X154.67Y-109.04
X157.21Y-101.42
X157.21Y-109.04
X159.75Y-101.42
X159.75Y-109.04
X162.29Y-101.42
X162.29Y-109.04
X167.8Y-113.23
X167.8Y-123.39
X143.0Y-156.25
X145.5Y-156.25
X195.74Y-133.55
X205.9Y-133.55
X126.5Y-156.25
X129.0Y-156.25
X129.5Y-163.0
X129.5Y-173.16
X134.5Y-156.25
X137.0Y-156.25
T3
X128.43Y-86.96
X128.43Y-89.5
X128.43Y-92.04
X128.43Y-94.58
X137.54Y-166.46
X137.54Y-171.54
X140.08Y-166.46
X140.08Y-171.54
X142.62Y-166.46
X128.43Y-97.12
X128.43Y-99.66
X128.43Y-102.2
X130.97Y-86.96
X130.97Y-89.5
X130.97Y-92.04
X130.97Y-94.58
X130.97Y-97.12
X130.97Y-99.66
X130.97Y-102.2
X199.82Y-117.89
X199.82Y-120.43
X199.82Y-122.97
X145.575Y-127.6
X148.115Y-127.6
X208.72Y-117.84
X208.72Y-120.38
X208.72Y-122.92
X208.72Y-125.46
X208.72Y-128.0
X142.62Y-171.54
X137.54Y-141.46
X137.54Y-146.54
X140.08Y-141.46
X140.08Y-146.54
X142.62Y-141.46
X142.62Y-146.54
X145.16Y-141.46
X145.16Y-146.54
X147.7Y-141.46
X147.7Y-146.54
X150.24Y-141.46
X150.24Y-146.54
X152.78Y-141.46
X152.78Y-146.54
X155.32Y-141.46
X155.32Y-146.54
X157.86Y-141.46
X157.86Y-146.54
X160.4Y-141.46
X160.4Y-146.54
X128.43Y-121.25
X145.16Y-166.46
X145.16Y-171.54
X147.7Y-166.46
X147.7Y-171.54
X150.24Y-166.46
X150.24Y-171.54
X152.78Y-166.46
X152.78Y-171.54
X155.32Y-166.46
X155.32Y-171.54
X157.86Y-166.46
X157.86Y-171.54
X160.4Y-166.46
X160.4Y-171.54
X162.94Y-166.46
X162.94Y-171.54
X165.48Y-166.46
X165.48Y-171.54
X168.02Y-166.46
X168.02Y-171.54
X170.56Y-166.46
X170.56Y-171.54
X173.1Y-166.46
X173.1Y-171.54
X175.64Y-166.46
X175.64Y-171.54
X178.18Y-166.46
X178.18Y-171.54
X180.72Y-166.46
X180.72Y-171.54
X183.26Y-166.46
X183.26Y-171.54
X185.8Y-166.46
X185.8Y-171.54
X188.34Y-166.46
X188.34Y-171.54
X190.88Y-166.46
X190.88Y-171.54
X193.42Y-166.46
X193.42Y-171.54
X195.96Y-166.46
X195.96Y-171.54
X198.5Y-166.46
X198.5Y-171.54
X128.43Y-113.63
X128.43Y-116.17
X162.94Y-141.46
X162.94Y-146.54
X165.48Y-141.46
X165.48Y-146.54
X168.02Y-141.46
X168.02Y-146.54
X170.56Y-141.46
X170.56Y-146.54
X173.1Y-141.46
X173.1Y-146.54
X175.64Y-141.46
X175.64Y-146.54
X178.18Y-141.46
X178.18Y-146.54
X180.72Y-141.46
X180.72Y-146.54
X183.26Y-141.46
X183.26Y-146.54
X185.8Y-141.46
X185.8Y-146.54
X188.34Y-141.46
X188.34Y-146.54
X190.88Y-141.46
X190.88Y-146.54
X193.42Y-141.46
X193.42Y-146.54
X195.96Y-141.46
X195.96Y-146.54
X198.5Y-146.54
X128.43Y-123.79
X128.43Y-126.33
X128.43Y-128.87
X130.97Y-121.25
X130.97Y-123.79
X130.97Y-126.33
X130.97Y-128.87
X198.5Y-141.46
X128.43Y-118.71
X130.97Y-113.63
X130.97Y-116.17
X130.97Y-118.71
X120.81Y-169.11
X120.81Y-171.65
X143.5Y-87.46
X143.5Y-90.0
X146.04Y-87.46
X146.04Y-90.0
X148.58Y-87.46
X148.58Y-90.0
X151.12Y-87.46
X151.12Y-90.0
X153.66Y-87.46
X153.66Y-90.0
X156.2Y-87.46
X156.2Y-90.0
X158.74Y-87.46
X158.74Y-90.0
X161.28Y-87.46
X161.28Y-90.0
X163.82Y-87.46
X163.82Y-90.0
X166.36Y-87.46
X166.36Y-90.0
X168.9Y-87.46
X168.9Y-90.0
X171.44Y-87.46
X171.44Y-90.0
X173.98Y-87.46
X173.98Y-90.0
X176.52Y-87.46
X176.52Y-90.0
X179.06Y-87.46
X179.06Y-90.0
X181.6Y-87.46
X181.6Y-90.0
X184.14Y-87.46
X184.14Y-90.0
X186.68Y-87.46
X186.68Y-90.0
X189.22Y-87.46
X189.22Y-90.0
X191.76Y-87.46
X191.76Y-90.0
T4
X122.5Y-148.5
X211.5Y-82.5
X122.5Y-82.5
X211.5Y-148.5
T0
M30
