M48
;DRILL file {KiCad (5.0.0-3-g5ebb6b6)} date 
;FORMAT={-:-/ absolute / metric / decimal}
FMAT,2
METRIC,TZ
T1C0.400
T2C0.800
T3C1.000
T4C3.200
%
G90
G05
M71
T1
X121.5Y-88.
X122.5Y-143.5
X134.079Y-124.369
X140.637Y-97.985
X145.138Y-143.798
X148.222Y-127.617
X153.394Y-116.525
X160.139Y-112.578
X173.925Y-110.732
X184.381Y-120.712
X185.443Y-103.632
X185.607Y-120.935
X188.252Y-121.788
X190.308Y-134.165
X192.296Y-111.181
X193.294Y-90.069
X195.03Y-87.019
X195.049Y-136.514
X208.Y-86.
X209.5Y-143.5
X211.Y-121.
T2
X144.63Y-115.4
X144.63Y-123.02
X147.17Y-115.4
X147.17Y-123.02
X149.71Y-115.4
X149.71Y-123.02
X152.25Y-115.4
X152.25Y-123.02
X154.79Y-115.4
X154.79Y-123.02
X157.33Y-115.4
X157.33Y-123.02
X159.87Y-115.4
X159.87Y-123.02
X141.51Y-101.04
X141.51Y-103.54
X138.57Y-129.88
X141.07Y-129.88
X167.14Y-100.97
X167.14Y-103.47
X193.42Y-101.35
X193.42Y-108.97
X195.96Y-101.35
X195.96Y-108.97
X198.5Y-101.35
X198.5Y-108.97
X201.04Y-101.35
X201.04Y-108.97
X203.58Y-101.35
X203.58Y-108.97
X206.12Y-101.35
X206.12Y-108.97
X208.66Y-101.35
X208.66Y-108.97
X211.2Y-101.35
X211.2Y-108.97
X136.37Y-93.47
X136.37Y-96.01
X136.37Y-98.55
X136.37Y-101.09
X136.37Y-103.63
X136.37Y-106.17
X136.37Y-108.71
X136.37Y-111.25
X136.37Y-113.79
X170.14Y-101.35
X170.14Y-108.97
X172.68Y-101.35
X172.68Y-108.97
X175.22Y-101.35
X175.22Y-108.97
X177.76Y-101.35
X177.76Y-108.97
X180.3Y-101.35
X180.3Y-108.97
X182.84Y-101.35
X182.84Y-108.97
X185.38Y-101.35
X185.38Y-108.97
X190.42Y-100.97
X190.42Y-103.47
X167.26Y-114.95
X167.26Y-117.45
X170.26Y-115.33
X170.26Y-122.95
X172.8Y-115.33
X172.8Y-122.95
X175.34Y-115.33
X175.34Y-122.95
X177.88Y-115.33
X177.88Y-122.95
X180.42Y-115.33
X180.42Y-122.95
X182.96Y-115.33
X182.96Y-122.95
X185.5Y-115.33
X185.5Y-122.95
X144.51Y-101.42
X144.51Y-109.04
X147.05Y-101.42
X147.05Y-109.04
X149.59Y-101.42
X149.59Y-109.04
X152.13Y-101.42
X152.13Y-109.04
X154.67Y-101.42
X154.67Y-109.04
X157.21Y-101.42
X157.21Y-109.04
X159.75Y-101.42
X159.75Y-109.04
X162.29Y-101.42
X162.29Y-109.04
X141.63Y-115.02
X141.63Y-117.52
X141.55Y-94.33
X141.55Y-96.83
T3
X137.54Y-141.46
X137.54Y-146.54
X140.08Y-141.46
X140.08Y-146.54
X142.62Y-141.46
X142.62Y-146.54
X145.16Y-141.46
X145.16Y-146.54
X147.7Y-141.46
X147.7Y-146.54
X150.24Y-141.46
X150.24Y-146.54
X152.78Y-141.46
X152.78Y-146.54
X155.32Y-141.46
X155.32Y-146.54
X157.86Y-141.46
X157.86Y-146.54
X160.4Y-141.46
X160.4Y-146.54
X162.94Y-141.46
X162.94Y-146.54
X165.48Y-141.46
X165.48Y-146.54
X168.02Y-141.46
X168.02Y-146.54
X170.56Y-141.46
X170.56Y-146.54
X173.1Y-141.46
X173.1Y-146.54
X175.64Y-141.46
X175.64Y-146.54
X178.18Y-141.46
X178.18Y-146.54
X180.72Y-141.46
X180.72Y-146.54
X183.26Y-141.46
X183.26Y-146.54
X185.8Y-141.46
X185.8Y-146.54
X188.34Y-141.46
X188.34Y-146.54
X190.88Y-141.46
X190.88Y-146.54
X193.42Y-141.46
X193.42Y-146.54
X195.96Y-141.46
X195.96Y-146.54
X198.5Y-141.46
X198.5Y-146.54
X208.72Y-117.84
X208.72Y-120.38
X208.72Y-122.92
X208.72Y-125.46
X208.72Y-128.
X143.5Y-87.46
X143.5Y-90.
X146.04Y-87.46
X146.04Y-90.
X148.58Y-87.46
X148.58Y-90.
X151.12Y-87.46
X151.12Y-90.
X153.66Y-87.46
X153.66Y-90.
X156.2Y-87.46
X156.2Y-90.
X158.74Y-87.46
X158.74Y-90.
X161.28Y-87.46
X161.28Y-90.
X163.82Y-87.46
X163.82Y-90.
X166.36Y-87.46
X166.36Y-90.
X168.9Y-87.46
X168.9Y-90.
X171.44Y-87.46
X171.44Y-90.
X173.98Y-87.46
X173.98Y-90.
X176.52Y-87.46
X176.52Y-90.
X179.06Y-87.46
X179.06Y-90.
X181.6Y-87.46
X181.6Y-90.
X184.14Y-87.46
X184.14Y-90.
X186.68Y-87.46
X186.68Y-90.
X189.22Y-87.46
X189.22Y-90.
X191.76Y-87.46
X191.76Y-90.
X128.43Y-86.96
X128.43Y-89.5
X128.43Y-92.04
X128.43Y-94.58
X128.43Y-97.12
X128.43Y-99.66
X128.43Y-102.2
X130.97Y-86.96
X130.97Y-89.5
X130.97Y-92.04
X130.97Y-94.58
X130.97Y-97.12
X130.97Y-99.66
X130.97Y-102.2
X199.82Y-117.89
X199.82Y-120.43
X199.82Y-122.97
X128.43Y-113.63
X128.43Y-116.17
X128.43Y-118.71
X128.43Y-121.25
X128.43Y-123.79
X128.43Y-126.33
X128.43Y-128.87
X130.97Y-113.63
X130.97Y-116.17
X130.97Y-118.71
X130.97Y-121.25
X130.97Y-123.79
X130.97Y-126.33
X130.97Y-128.87
T4
X122.5Y-82.5
X211.5Y-82.5
X122.5Y-148.5
X211.5Y-148.5
T0
M30
