G04 #@! TF.GenerationSoftware,KiCad,Pcbnew,(5.1.4-0)*
G04 #@! TF.CreationDate,2019-12-21T12:07:29+09:00*
G04 #@! TF.ProjectId,KZ80-MSXCTRG,4b5a3830-2d4d-4535-9843-5452472e6b69,rev?*
G04 #@! TF.SameCoordinates,Original*
G04 #@! TF.FileFunction,Copper,L2,Bot*
G04 #@! TF.FilePolarity,Positive*
%FSLAX46Y46*%
G04 Gerber Fmt 4.6, Leading zero omitted, Abs format (unit mm)*
G04 Created by KiCad (PCBNEW (5.1.4-0)) date 2019-12-21 12:07:29*
%MOMM*%
%LPD*%
G04 APERTURE LIST*
%ADD10O,1.600000X1.600000*%
%ADD11R,1.600000X1.600000*%
%ADD12C,1.600000*%
%ADD13O,1.700000X1.700000*%
%ADD14R,1.700000X1.700000*%
%ADD15C,0.800000*%
%ADD16C,0.600000*%
%ADD17C,0.250000*%
%ADD18C,0.254000*%
G04 APERTURE END LIST*
D10*
X170340000Y-126330000D03*
X185580000Y-133950000D03*
X172880000Y-126330000D03*
X183040000Y-133950000D03*
X175420000Y-126330000D03*
X180500000Y-133950000D03*
X177960000Y-126330000D03*
X177960000Y-133950000D03*
X180500000Y-126330000D03*
X175420000Y-133950000D03*
X183040000Y-126330000D03*
X172880000Y-133950000D03*
X185580000Y-126330000D03*
D11*
X170340000Y-133950000D03*
D10*
X162720000Y-131410000D03*
D12*
X152560000Y-131410000D03*
D10*
X162720000Y-126965000D03*
D12*
X152560000Y-126965000D03*
D13*
X148115000Y-127600000D03*
D14*
X145575000Y-127600000D03*
D12*
X167165000Y-125735000D03*
X167165000Y-128235000D03*
D14*
X126500000Y-139500000D03*
D13*
X126500000Y-136960000D03*
D12*
X138500000Y-132000000D03*
D11*
X141000000Y-132000000D03*
X141550000Y-94330000D03*
D12*
X141550000Y-96830000D03*
X167260000Y-116180000D03*
X167260000Y-113680000D03*
X167140000Y-100970000D03*
X167140000Y-103470000D03*
X141630000Y-116250000D03*
X141630000Y-113750000D03*
X190420000Y-100970000D03*
X190420000Y-103470000D03*
X141510000Y-103540000D03*
X141510000Y-101040000D03*
D14*
X198500000Y-141460000D03*
D13*
X198500000Y-146540000D03*
X195960000Y-141460000D03*
X195960000Y-146540000D03*
X193420000Y-141460000D03*
X193420000Y-146540000D03*
X190880000Y-141460000D03*
X190880000Y-146540000D03*
X188340000Y-141460000D03*
X188340000Y-146540000D03*
X185800000Y-141460000D03*
X185800000Y-146540000D03*
X183260000Y-141460000D03*
X183260000Y-146540000D03*
X180720000Y-141460000D03*
X180720000Y-146540000D03*
X178180000Y-141460000D03*
X178180000Y-146540000D03*
X175640000Y-141460000D03*
X175640000Y-146540000D03*
X173100000Y-141460000D03*
X173100000Y-146540000D03*
X170560000Y-141460000D03*
X170560000Y-146540000D03*
X168020000Y-141460000D03*
X168020000Y-146540000D03*
X165480000Y-141460000D03*
X165480000Y-146540000D03*
X162940000Y-141460000D03*
X162940000Y-146540000D03*
X160400000Y-141460000D03*
X160400000Y-146540000D03*
X157860000Y-141460000D03*
X157860000Y-146540000D03*
X155320000Y-141460000D03*
X155320000Y-146540000D03*
X152780000Y-141460000D03*
X152780000Y-146540000D03*
X150240000Y-141460000D03*
X150240000Y-146540000D03*
X147700000Y-141460000D03*
X147700000Y-146540000D03*
X145160000Y-141460000D03*
X145160000Y-146540000D03*
X142620000Y-141460000D03*
X142620000Y-146540000D03*
X140080000Y-141460000D03*
X140080000Y-146540000D03*
X137540000Y-141460000D03*
X137540000Y-146540000D03*
D14*
X199820000Y-117890000D03*
D13*
X199820000Y-120430000D03*
X199820000Y-122970000D03*
D14*
X208720000Y-117840000D03*
D13*
X208720000Y-120380000D03*
X208720000Y-122920000D03*
X208720000Y-125460000D03*
X208720000Y-128000000D03*
X128430000Y-86960000D03*
X130970000Y-86960000D03*
X128430000Y-89500000D03*
X130970000Y-89500000D03*
X128430000Y-92040000D03*
X130970000Y-92040000D03*
X128430000Y-94580000D03*
X130970000Y-94580000D03*
X128430000Y-97120000D03*
X130970000Y-97120000D03*
X128430000Y-99660000D03*
X130970000Y-99660000D03*
X128430000Y-102200000D03*
D14*
X130970000Y-102200000D03*
X130970000Y-128870000D03*
D13*
X128430000Y-128870000D03*
X130970000Y-126330000D03*
X128430000Y-126330000D03*
X130970000Y-123790000D03*
X128430000Y-123790000D03*
X130970000Y-121250000D03*
X128430000Y-121250000D03*
X130970000Y-118710000D03*
X128430000Y-118710000D03*
X130970000Y-116170000D03*
X128430000Y-116170000D03*
X130970000Y-113630000D03*
X128430000Y-113630000D03*
D14*
X143500000Y-90000000D03*
D13*
X143500000Y-87460000D03*
X146040000Y-90000000D03*
X146040000Y-87460000D03*
X148580000Y-90000000D03*
X148580000Y-87460000D03*
X151120000Y-90000000D03*
X151120000Y-87460000D03*
X153660000Y-90000000D03*
X153660000Y-87460000D03*
X156200000Y-90000000D03*
X156200000Y-87460000D03*
X158740000Y-90000000D03*
X158740000Y-87460000D03*
X161280000Y-90000000D03*
X161280000Y-87460000D03*
X163820000Y-90000000D03*
X163820000Y-87460000D03*
X166360000Y-90000000D03*
X166360000Y-87460000D03*
X168900000Y-90000000D03*
X168900000Y-87460000D03*
X171440000Y-90000000D03*
X171440000Y-87460000D03*
X173980000Y-90000000D03*
X173980000Y-87460000D03*
X176520000Y-90000000D03*
X176520000Y-87460000D03*
X179060000Y-90000000D03*
X179060000Y-87460000D03*
X181600000Y-90000000D03*
X181600000Y-87460000D03*
X184140000Y-90000000D03*
X184140000Y-87460000D03*
X186680000Y-90000000D03*
X186680000Y-87460000D03*
X189220000Y-90000000D03*
X189220000Y-87460000D03*
X191760000Y-90000000D03*
X191760000Y-87460000D03*
D11*
X170140000Y-108970000D03*
D10*
X185380000Y-101350000D03*
X172680000Y-108970000D03*
X182840000Y-101350000D03*
X175220000Y-108970000D03*
X180300000Y-101350000D03*
X177760000Y-108970000D03*
X177760000Y-101350000D03*
X180300000Y-108970000D03*
X175220000Y-101350000D03*
X182840000Y-108970000D03*
X172680000Y-101350000D03*
X185380000Y-108970000D03*
X170140000Y-101350000D03*
X170260000Y-114060000D03*
X185500000Y-121680000D03*
X172800000Y-114060000D03*
X182960000Y-121680000D03*
X175340000Y-114060000D03*
X180420000Y-121680000D03*
X177880000Y-114060000D03*
X177880000Y-121680000D03*
X180420000Y-114060000D03*
X175340000Y-121680000D03*
X182960000Y-114060000D03*
X172800000Y-121680000D03*
X185500000Y-114060000D03*
D11*
X170260000Y-121680000D03*
X144630000Y-121750000D03*
D10*
X159870000Y-114130000D03*
X147170000Y-121750000D03*
X157330000Y-114130000D03*
X149710000Y-121750000D03*
X154790000Y-114130000D03*
X152250000Y-121750000D03*
X152250000Y-114130000D03*
X154790000Y-121750000D03*
X149710000Y-114130000D03*
X157330000Y-121750000D03*
X147170000Y-114130000D03*
X159870000Y-121750000D03*
X144630000Y-114130000D03*
X144510000Y-101420000D03*
X162290000Y-109040000D03*
X147050000Y-101420000D03*
X159750000Y-109040000D03*
X149590000Y-101420000D03*
X157210000Y-109040000D03*
X152130000Y-101420000D03*
X154670000Y-109040000D03*
X154670000Y-101420000D03*
X152130000Y-109040000D03*
X157210000Y-101420000D03*
X149590000Y-109040000D03*
X159750000Y-101420000D03*
X147050000Y-109040000D03*
X162290000Y-101420000D03*
D11*
X144510000Y-109040000D03*
X193420000Y-108970000D03*
D10*
X211200000Y-101350000D03*
X195960000Y-108970000D03*
X208660000Y-101350000D03*
X198500000Y-108970000D03*
X206120000Y-101350000D03*
X201040000Y-108970000D03*
X203580000Y-101350000D03*
X203580000Y-108970000D03*
X201040000Y-101350000D03*
X206120000Y-108970000D03*
X198500000Y-101350000D03*
X208660000Y-108970000D03*
X195960000Y-101350000D03*
X211200000Y-108970000D03*
X193420000Y-101350000D03*
D11*
X136370000Y-113790000D03*
D10*
X136370000Y-111250000D03*
X136370000Y-108710000D03*
X136370000Y-106170000D03*
X136370000Y-103630000D03*
X136370000Y-101090000D03*
X136370000Y-98550000D03*
X136370000Y-96010000D03*
X136370000Y-93470000D03*
D15*
X192307700Y-113801700D03*
X188692700Y-107376100D03*
X204533700Y-121715000D03*
X150905500Y-109886900D03*
X122000000Y-94500000D03*
X209500000Y-89000000D03*
X209500000Y-143500000D03*
X123000000Y-144000000D03*
X159069100Y-122938000D03*
X143598300Y-130144000D03*
X201991500Y-118138800D03*
X189520500Y-106378500D03*
X189421000Y-119787900D03*
X154883600Y-137607100D03*
X146507400Y-144826300D03*
X140971200Y-144711700D03*
X135892100Y-86232700D03*
X200463400Y-144436500D03*
X184169000Y-95381500D03*
X190774500Y-98466500D03*
X192984500Y-102887800D03*
D16*
X142620000Y-132000000D02*
X142300300Y-132000000D01*
X143068500Y-131231800D02*
X142620000Y-131680300D01*
X142620000Y-131680300D02*
X142620000Y-132000000D01*
X142620000Y-132000000D02*
X142620000Y-140109700D01*
X142620000Y-141460000D02*
X142620000Y-140109700D01*
X144630000Y-115430300D02*
X142679600Y-117380700D01*
X142679600Y-117380700D02*
X142679600Y-130842900D01*
X142679600Y-130842900D02*
X143068500Y-131231800D01*
X152560000Y-131231800D02*
X152560000Y-126965000D01*
X152560000Y-131410000D02*
X152560000Y-131231800D01*
X143068500Y-131231800D02*
X152560000Y-131231800D01*
X141630000Y-113750000D02*
X141630000Y-108920000D01*
X141630000Y-108920000D02*
X144510000Y-106040000D01*
X144510000Y-106040000D02*
X144510000Y-101420000D01*
X141000000Y-132000000D02*
X142300300Y-132000000D01*
X144630000Y-114130000D02*
X144630000Y-115430300D01*
X170260000Y-114060000D02*
X170260000Y-115360300D01*
X167165000Y-125735000D02*
X167165000Y-118455300D01*
X167165000Y-118455300D02*
X170260000Y-115360300D01*
X167260000Y-113680000D02*
X167260000Y-108850000D01*
X167260000Y-108850000D02*
X170140000Y-105970000D01*
X170140000Y-105970000D02*
X170140000Y-101350000D01*
X141550000Y-96830000D02*
X143500000Y-94880000D01*
X143500000Y-94880000D02*
X143500000Y-90000000D01*
D17*
X136370000Y-110124700D02*
X136088700Y-110124700D01*
X136088700Y-110124700D02*
X130970000Y-105006000D01*
X130970000Y-105006000D02*
X130970000Y-103375300D01*
X130970000Y-102200000D02*
X130970000Y-103375300D01*
X157210000Y-109040000D02*
X157210000Y-110165300D01*
X157210000Y-110165300D02*
X157330000Y-110285300D01*
X157330000Y-110285300D02*
X157330000Y-114130000D01*
X136370000Y-111250000D02*
X136370000Y-110124700D01*
X130970000Y-99660000D02*
X130970000Y-100835300D01*
X136370000Y-108710000D02*
X136370000Y-107584700D01*
X136370000Y-107584700D02*
X136088700Y-107584700D01*
X136088700Y-107584700D02*
X132145300Y-103641300D01*
X132145300Y-103641300D02*
X132145300Y-101202500D01*
X132145300Y-101202500D02*
X131778100Y-100835300D01*
X131778100Y-100835300D02*
X130970000Y-100835300D01*
X130970000Y-97120000D02*
X130970000Y-98295300D01*
X136370000Y-106170000D02*
X136370000Y-105044700D01*
X136370000Y-105044700D02*
X136088700Y-105044700D01*
X136088700Y-105044700D02*
X132668600Y-101624600D01*
X132668600Y-101624600D02*
X132668600Y-99626600D01*
X132668600Y-99626600D02*
X131337300Y-98295300D01*
X131337300Y-98295300D02*
X130970000Y-98295300D01*
X130970000Y-94580000D02*
X130970000Y-95755300D01*
X136370000Y-103630000D02*
X136370000Y-102504700D01*
X136370000Y-102504700D02*
X136088700Y-102504700D01*
X136088700Y-102504700D02*
X134305800Y-100721800D01*
X134305800Y-100721800D02*
X134305800Y-98723800D01*
X134305800Y-98723800D02*
X131337300Y-95755300D01*
X131337300Y-95755300D02*
X130970000Y-95755300D01*
X154790000Y-114130000D02*
X154790000Y-113004700D01*
X159750000Y-101420000D02*
X159750000Y-102545300D01*
X159750000Y-102545300D02*
X155915300Y-106380000D01*
X155915300Y-106380000D02*
X155915300Y-111879400D01*
X155915300Y-111879400D02*
X154790000Y-113004700D01*
X156084700Y-101420000D02*
X156084700Y-101701300D01*
X156084700Y-101701300D02*
X155238600Y-102547400D01*
X155238600Y-102547400D02*
X149107400Y-102547400D01*
X149107400Y-102547400D02*
X148320200Y-101760200D01*
X148320200Y-101760200D02*
X148320200Y-101032700D01*
X148320200Y-101032700D02*
X147173800Y-99886300D01*
X147173800Y-99886300D02*
X138831600Y-99886300D01*
X138831600Y-99886300D02*
X137495300Y-98550000D01*
X157210000Y-101420000D02*
X156084700Y-101420000D01*
X136370000Y-98550000D02*
X137495300Y-98550000D01*
X153544700Y-101420000D02*
X153544700Y-101138600D01*
X153544700Y-101138600D02*
X151325900Y-98919800D01*
X151325900Y-98919800D02*
X140451600Y-98919800D01*
X140451600Y-98919800D02*
X137541900Y-96010100D01*
X137541900Y-96010100D02*
X137495300Y-96010100D01*
X137495300Y-96010100D02*
X137495300Y-96010000D01*
X154670000Y-101420000D02*
X153544700Y-101420000D01*
X136370000Y-96010000D02*
X137495300Y-96010000D01*
X151004700Y-101420000D02*
X151004700Y-101215700D01*
X151004700Y-101215700D02*
X149159100Y-99370100D01*
X149159100Y-99370100D02*
X140265000Y-99370100D01*
X140265000Y-99370100D02*
X138174900Y-97280000D01*
X138174900Y-97280000D02*
X136048200Y-97280000D01*
X136048200Y-97280000D02*
X135244700Y-96476500D01*
X135244700Y-96476500D02*
X135244700Y-95439200D01*
X135244700Y-95439200D02*
X136088600Y-94595300D01*
X136088600Y-94595300D02*
X136370000Y-94595300D01*
X136370000Y-93470000D02*
X136370000Y-94595300D01*
X152130000Y-101420000D02*
X151004700Y-101420000D01*
X193420000Y-108970000D02*
X193420000Y-110095300D01*
X193420000Y-110095300D02*
X192307700Y-111207600D01*
X192307700Y-111207600D02*
X192307700Y-113801700D01*
X208720000Y-122920000D02*
X208720000Y-121744700D01*
X211200000Y-101350000D02*
X211200000Y-102475300D01*
X211200000Y-102475300D02*
X212372900Y-103648200D01*
X212372900Y-103648200D02*
X212372900Y-118459100D01*
X212372900Y-118459100D02*
X209087300Y-121744700D01*
X209087300Y-121744700D02*
X208720000Y-121744700D01*
X195960000Y-108970000D02*
X195960000Y-127513100D01*
X195960000Y-127513100D02*
X184530000Y-138943100D01*
X184530000Y-138943100D02*
X184530000Y-143573300D01*
X184530000Y-143573300D02*
X181990000Y-146113300D01*
X181990000Y-146113300D02*
X181990000Y-146940000D01*
X181990000Y-146940000D02*
X180731400Y-148198600D01*
X180731400Y-148198600D02*
X173094000Y-148198600D01*
X173094000Y-148198600D02*
X171830000Y-146934600D01*
X171830000Y-146934600D02*
X171830000Y-146078000D01*
X171830000Y-146078000D02*
X168387300Y-142635300D01*
X168387300Y-142635300D02*
X168020000Y-142635300D01*
X195960000Y-108970000D02*
X195960000Y-107844700D01*
X195960000Y-107844700D02*
X192247100Y-104131800D01*
X192247100Y-104131800D02*
X192247100Y-91662400D01*
X192247100Y-91662400D02*
X191760000Y-91175300D01*
X191760000Y-90000000D02*
X191760000Y-91175300D01*
X168020000Y-141460000D02*
X168020000Y-142635300D01*
X208720000Y-120380000D02*
X208720000Y-119204700D01*
X208660000Y-101350000D02*
X208660000Y-102475300D01*
X208660000Y-102475300D02*
X209895300Y-103710600D01*
X209895300Y-103710600D02*
X209895300Y-118837500D01*
X209895300Y-118837500D02*
X209528100Y-119204700D01*
X209528100Y-119204700D02*
X208720000Y-119204700D01*
X188692700Y-107376100D02*
X188692700Y-132470000D01*
X188692700Y-132470000D02*
X180954900Y-140207800D01*
X180954900Y-140207800D02*
X180278600Y-140207800D01*
X180278600Y-140207800D02*
X179355300Y-141131100D01*
X179355300Y-141131100D02*
X179355300Y-144189400D01*
X179355300Y-144189400D02*
X178180000Y-145364700D01*
X191760000Y-88635300D02*
X192127300Y-88635300D01*
X192127300Y-88635300D02*
X197320200Y-93828200D01*
X197320200Y-93828200D02*
X197320200Y-106665000D01*
X197320200Y-106665000D02*
X197320300Y-106665000D01*
X197320300Y-106665000D02*
X198500000Y-107844700D01*
X178180000Y-146540000D02*
X178180000Y-145364700D01*
X191760000Y-87460000D02*
X191760000Y-88635300D01*
X198500000Y-108970000D02*
X198500000Y-107844700D01*
X195960000Y-145364700D02*
X197135300Y-144189400D01*
X197135300Y-144189400D02*
X197135300Y-138955800D01*
X197135300Y-138955800D02*
X202722900Y-133368200D01*
X202722900Y-133368200D02*
X202722900Y-117813500D01*
X202722900Y-117813500D02*
X202441100Y-117531700D01*
X202441100Y-117531700D02*
X202441100Y-100866700D01*
X202441100Y-100866700D02*
X203088300Y-100219500D01*
X203088300Y-100219500D02*
X204145500Y-100219500D01*
X204145500Y-100219500D02*
X204994700Y-101068700D01*
X204994700Y-101068700D02*
X204994700Y-101350000D01*
X195960000Y-146540000D02*
X195960000Y-145364700D01*
X206120000Y-101350000D02*
X204994700Y-101350000D01*
X208720000Y-117840000D02*
X208720000Y-116664700D01*
X203580000Y-101350000D02*
X203580000Y-102475300D01*
X203580000Y-102475300D02*
X207293400Y-106188700D01*
X207293400Y-106188700D02*
X207293400Y-115238100D01*
X207293400Y-115238100D02*
X208720000Y-116664700D01*
X198500000Y-141460000D02*
X198500000Y-140284700D01*
X203580000Y-108970000D02*
X203580000Y-135204700D01*
X203580000Y-135204700D02*
X198500000Y-140284700D01*
X204533700Y-121715000D02*
X204533700Y-137839700D01*
X204533700Y-137839700D02*
X198500000Y-143873400D01*
X198500000Y-143873400D02*
X198500000Y-146540000D01*
X206120000Y-110095300D02*
X204533700Y-111681600D01*
X204533700Y-111681600D02*
X204533700Y-121715000D01*
X206120000Y-108970000D02*
X206120000Y-110095300D01*
X149710000Y-120624700D02*
X150905500Y-119429200D01*
X150905500Y-119429200D02*
X150905500Y-109886900D01*
X149710000Y-121750000D02*
X149710000Y-120624700D01*
D16*
X141630000Y-116250000D02*
X140320900Y-114940900D01*
X140320900Y-114940900D02*
X140320900Y-104729100D01*
X140320900Y-104729100D02*
X141510000Y-103540000D01*
X141630000Y-116250000D02*
X138500000Y-119380000D01*
X138500000Y-119380000D02*
X138500000Y-132000000D01*
X186800300Y-108970000D02*
X186800300Y-107089700D01*
X186800300Y-107089700D02*
X190420000Y-103470000D01*
X185500000Y-120379700D02*
X186800300Y-119079400D01*
X186800300Y-119079400D02*
X186800300Y-108970000D01*
X186680300Y-108970000D02*
X186800300Y-108970000D01*
X185380000Y-108970000D02*
X186680300Y-108970000D01*
X185500000Y-121680000D02*
X185500000Y-120379700D01*
X185580000Y-133950000D02*
X185580000Y-132649700D01*
X185500000Y-121680000D02*
X185500000Y-122980300D01*
X185500000Y-122980300D02*
X186880300Y-124360600D01*
X186880300Y-124360600D02*
X186880300Y-131349400D01*
X186880300Y-131349400D02*
X185580000Y-132649700D01*
X162290000Y-109040000D02*
X162290000Y-107739700D01*
X167140000Y-103470000D02*
X162870300Y-107739700D01*
X162870300Y-107739700D02*
X162290000Y-107739700D01*
X161789900Y-121750000D02*
X167260000Y-116279900D01*
X167260000Y-116279900D02*
X167260000Y-116180000D01*
X161789900Y-121750000D02*
X161789900Y-122859900D01*
X161789900Y-122859900D02*
X167165000Y-128235000D01*
X161170300Y-121750000D02*
X161789900Y-121750000D01*
X162290000Y-109040000D02*
X162290000Y-111210000D01*
X162290000Y-111210000D02*
X167260000Y-116180000D01*
X141550000Y-94330000D02*
X141550000Y-89410000D01*
X141550000Y-89410000D02*
X143500000Y-87460000D01*
X159870000Y-121750000D02*
X161170300Y-121750000D01*
D17*
X144510000Y-109040000D02*
X144510000Y-107914700D01*
X144510000Y-107914700D02*
X147050000Y-105374700D01*
X147050000Y-105374700D02*
X147050000Y-101420000D01*
X184624700Y-146540000D02*
X184624700Y-146907300D01*
X184624700Y-146907300D02*
X182872700Y-148659300D01*
X182872700Y-148659300D02*
X170971000Y-148659300D01*
X170971000Y-148659300D02*
X169290000Y-146978300D01*
X169290000Y-146978300D02*
X169290000Y-146145300D01*
X169290000Y-146145300D02*
X166268300Y-143123600D01*
X166268300Y-143123600D02*
X165433900Y-143123600D01*
X165433900Y-143123600D02*
X164286900Y-141976600D01*
X164286900Y-141976600D02*
X164286900Y-137033200D01*
X164286900Y-137033200D02*
X159069100Y-131815400D01*
X159069100Y-131815400D02*
X159069100Y-122938000D01*
X185800000Y-146540000D02*
X184624700Y-146540000D01*
X151124700Y-121750000D02*
X151124700Y-122653500D01*
X151124700Y-122653500D02*
X146750400Y-127027800D01*
X146750400Y-127027800D02*
X146750400Y-128671000D01*
X146750400Y-128671000D02*
X145277400Y-130144000D01*
X145277400Y-130144000D02*
X143598300Y-130144000D01*
X152250000Y-121750000D02*
X151124700Y-121750000D01*
X177880000Y-121680000D02*
X180420000Y-121680000D01*
X193420000Y-145364700D02*
X194595300Y-144189400D01*
X194595300Y-144189400D02*
X194595300Y-139582600D01*
X194595300Y-139582600D02*
X201991500Y-132186400D01*
X201991500Y-132186400D02*
X201991500Y-118138800D01*
X193420000Y-146540000D02*
X193420000Y-145364700D01*
X189421000Y-119787900D02*
X189421000Y-132759000D01*
X189421000Y-132759000D02*
X180720000Y-141460000D01*
X189520500Y-106378500D02*
X189520500Y-119688400D01*
X189520500Y-119688400D02*
X189421000Y-119787900D01*
X149944700Y-87460000D02*
X149944700Y-87092700D01*
X149944700Y-87092700D02*
X148678700Y-85826700D01*
X148678700Y-85826700D02*
X141082500Y-85826700D01*
X141082500Y-85826700D02*
X133504600Y-93404600D01*
X133504600Y-93404600D02*
X130474600Y-93404600D01*
X130474600Y-93404600D02*
X129794600Y-94084600D01*
X129794600Y-94084600D02*
X129794600Y-116557900D01*
X129794600Y-116557900D02*
X128853300Y-117499200D01*
X128853300Y-117499200D02*
X127911900Y-117499200D01*
X127911900Y-117499200D02*
X127197300Y-118213800D01*
X127197300Y-118213800D02*
X127197300Y-133419800D01*
X127197300Y-133419800D02*
X136863100Y-143085600D01*
X136863100Y-143085600D02*
X143437600Y-143085600D01*
X143437600Y-143085600D02*
X146524700Y-146172700D01*
X146524700Y-146172700D02*
X146524700Y-146540000D01*
X147700000Y-145364700D02*
X148003000Y-145364700D01*
X148003000Y-145364700D02*
X151594200Y-141773500D01*
X151594200Y-141773500D02*
X151594200Y-140896500D01*
X151594200Y-140896500D02*
X154883600Y-137607100D01*
X177960000Y-126330000D02*
X177960000Y-130284700D01*
X177960000Y-130284700D02*
X175420000Y-132824700D01*
X147700000Y-146540000D02*
X147700000Y-145364700D01*
X147700000Y-146540000D02*
X147112400Y-146540000D01*
X147112400Y-146540000D02*
X146524700Y-146540000D01*
X175420000Y-133950000D02*
X175420000Y-132824700D01*
X151120000Y-87460000D02*
X149944700Y-87460000D01*
X153660000Y-90000000D02*
X152484700Y-90000000D01*
X152484700Y-90000000D02*
X152484700Y-89632600D01*
X152484700Y-89632600D02*
X151676800Y-88824700D01*
X151676800Y-88824700D02*
X148280500Y-88824700D01*
X148280500Y-88824700D02*
X147310000Y-87854200D01*
X147310000Y-87854200D02*
X147310000Y-86992100D01*
X147310000Y-86992100D02*
X146594900Y-86277000D01*
X146594900Y-86277000D02*
X141904200Y-86277000D01*
X141904200Y-86277000D02*
X134756200Y-93425000D01*
X134756200Y-93425000D02*
X134756200Y-98581900D01*
X134756200Y-98581900D02*
X135994300Y-99820000D01*
X135994300Y-99820000D02*
X136744900Y-99820000D01*
X136744900Y-99820000D02*
X137495400Y-100570500D01*
X137495400Y-100570500D02*
X137495400Y-131382600D01*
X137495400Y-131382600D02*
X136301400Y-132576600D01*
X136301400Y-132576600D02*
X136301400Y-141887000D01*
X136301400Y-141887000D02*
X137049700Y-142635300D01*
X137049700Y-142635300D02*
X144316400Y-142635300D01*
X144316400Y-142635300D02*
X146507400Y-144826300D01*
X152484700Y-87460000D02*
X152484700Y-87092700D01*
X152484700Y-87092700D02*
X150768400Y-85376400D01*
X150768400Y-85376400D02*
X138447200Y-85376400D01*
X138447200Y-85376400D02*
X133053600Y-90770000D01*
X133053600Y-90770000D02*
X128019500Y-90770000D01*
X128019500Y-90770000D02*
X126736400Y-92053100D01*
X126736400Y-92053100D02*
X126736400Y-133595800D01*
X126736400Y-133595800D02*
X136676500Y-143535900D01*
X136676500Y-143535900D02*
X141324700Y-143535900D01*
X141324700Y-143535900D02*
X143890000Y-146101200D01*
X143890000Y-146101200D02*
X143890000Y-146932200D01*
X143890000Y-146932200D02*
X144676900Y-147719100D01*
X144676900Y-147719100D02*
X148282100Y-147719100D01*
X148282100Y-147719100D02*
X148970000Y-147031200D01*
X148970000Y-147031200D02*
X148970000Y-146145800D01*
X148970000Y-146145800D02*
X152480500Y-142635300D01*
X152480500Y-142635300D02*
X155876800Y-142635300D01*
X155876800Y-142635300D02*
X156684700Y-141827400D01*
X156684700Y-141827400D02*
X156684700Y-141460000D01*
X153660000Y-87460000D02*
X152484700Y-87460000D01*
X157860000Y-141460000D02*
X156684700Y-141460000D01*
X156200000Y-88824700D02*
X156567300Y-88824700D01*
X156567300Y-88824700D02*
X157400600Y-87991400D01*
X157400600Y-87991400D02*
X157400600Y-86998300D01*
X157400600Y-86998300D02*
X154878100Y-84475800D01*
X154878100Y-84475800D02*
X127828700Y-84475800D01*
X127828700Y-84475800D02*
X125353500Y-86951000D01*
X125353500Y-86951000D02*
X125353500Y-134123600D01*
X125353500Y-134123600D02*
X136567100Y-145337200D01*
X136567100Y-145337200D02*
X138014800Y-145337200D01*
X138014800Y-145337200D02*
X138810000Y-146132400D01*
X138810000Y-146132400D02*
X138810000Y-146977100D01*
X138810000Y-146977100D02*
X140457500Y-148624600D01*
X140457500Y-148624600D02*
X152427400Y-148624600D01*
X152427400Y-148624600D02*
X154144700Y-146907300D01*
X154144700Y-146907300D02*
X154144700Y-146540000D01*
X155320000Y-146540000D02*
X154144700Y-146540000D01*
X156200000Y-90000000D02*
X156200000Y-88824700D01*
X155024700Y-87460000D02*
X155024700Y-87092700D01*
X155024700Y-87092700D02*
X152858100Y-84926100D01*
X152858100Y-84926100D02*
X138260600Y-84926100D01*
X138260600Y-84926100D02*
X136215500Y-86971200D01*
X136215500Y-86971200D02*
X135604900Y-86971200D01*
X135604900Y-86971200D02*
X134394600Y-85760900D01*
X134394600Y-85760900D02*
X127932800Y-85760900D01*
X127932800Y-85760900D02*
X126261300Y-87432400D01*
X126261300Y-87432400D02*
X126261300Y-133757600D01*
X126261300Y-133757600D02*
X136489900Y-143986200D01*
X136489900Y-143986200D02*
X140245700Y-143986200D01*
X140245700Y-143986200D02*
X140971200Y-144711700D01*
X156200000Y-87460000D02*
X155024700Y-87460000D01*
X135892100Y-86232700D02*
X134944700Y-85285300D01*
X134944700Y-85285300D02*
X127715600Y-85285300D01*
X127715600Y-85285300D02*
X125806000Y-87194900D01*
X125806000Y-87194900D02*
X125806000Y-133939200D01*
X125806000Y-133939200D02*
X136753700Y-144886900D01*
X136753700Y-144886900D02*
X140103100Y-144886900D01*
X140103100Y-144886900D02*
X141350000Y-146133800D01*
X141350000Y-146133800D02*
X141350000Y-146946400D01*
X141350000Y-146946400D02*
X142573200Y-148169600D01*
X142573200Y-148169600D02*
X150342600Y-148169600D01*
X150342600Y-148169600D02*
X151604700Y-146907500D01*
X151604700Y-146907500D02*
X151604700Y-146540000D01*
X152780000Y-146540000D02*
X151604700Y-146540000D01*
X158740000Y-87460000D02*
X158740000Y-88635300D01*
X152780000Y-141460000D02*
X156060000Y-138180000D01*
X156060000Y-138180000D02*
X156060000Y-118168300D01*
X156060000Y-118168300D02*
X158480000Y-115748300D01*
X158480000Y-115748300D02*
X158480000Y-105665800D01*
X158480000Y-105665800D02*
X160899600Y-103246200D01*
X160899600Y-103246200D02*
X160899600Y-91519800D01*
X160899600Y-91519800D02*
X159915300Y-90535500D01*
X159915300Y-90535500D02*
X159915300Y-89443200D01*
X159915300Y-89443200D02*
X159107400Y-88635300D01*
X159107400Y-88635300D02*
X158740000Y-88635300D01*
X165480000Y-141460000D02*
X165480000Y-140284700D01*
X173980000Y-87460000D02*
X175155300Y-87460000D01*
X175155300Y-87460000D02*
X175155300Y-87827400D01*
X175155300Y-87827400D02*
X175963200Y-88635300D01*
X175963200Y-88635300D02*
X179396300Y-88635300D01*
X179396300Y-88635300D02*
X180236900Y-89475900D01*
X180236900Y-89475900D02*
X180236900Y-91639200D01*
X180236900Y-91639200D02*
X171429600Y-100446500D01*
X171429600Y-100446500D02*
X171429600Y-116759200D01*
X171429600Y-116759200D02*
X168638000Y-119550800D01*
X168638000Y-119550800D02*
X168638000Y-137126700D01*
X168638000Y-137126700D02*
X165480000Y-140284700D01*
X160400000Y-145364700D02*
X159224700Y-144189400D01*
X159224700Y-144189400D02*
X159224700Y-140229000D01*
X159224700Y-140229000D02*
X158332800Y-139337100D01*
X158332800Y-139337100D02*
X158332800Y-122648600D01*
X158332800Y-122648600D02*
X158720200Y-122261200D01*
X158720200Y-122261200D02*
X158720200Y-120210600D01*
X158720200Y-120210600D02*
X160995300Y-117935500D01*
X160995300Y-117935500D02*
X160995300Y-105460800D01*
X160995300Y-105460800D02*
X175280800Y-91175300D01*
X175280800Y-91175300D02*
X177076800Y-91175300D01*
X177076800Y-91175300D02*
X177884700Y-90367400D01*
X177884700Y-90367400D02*
X177884700Y-90000000D01*
X160400000Y-146540000D02*
X160400000Y-145364700D01*
X179060000Y-90000000D02*
X177884700Y-90000000D01*
X160400000Y-141460000D02*
X161575300Y-141460000D01*
X179060000Y-87460000D02*
X180235300Y-87460000D01*
X180235300Y-87460000D02*
X180235300Y-87092700D01*
X180235300Y-87092700D02*
X181991100Y-85336900D01*
X181991100Y-85336900D02*
X197444100Y-85336900D01*
X197444100Y-85336900D02*
X213309600Y-101202400D01*
X213309600Y-101202400D02*
X213309600Y-133456400D01*
X213309600Y-133456400D02*
X197179000Y-149587000D01*
X197179000Y-149587000D02*
X169358800Y-149587000D01*
X169358800Y-149587000D02*
X166750000Y-146978200D01*
X166750000Y-146978200D02*
X166750000Y-146145300D01*
X166750000Y-146145300D02*
X163240000Y-142635300D01*
X163240000Y-142635300D02*
X162383200Y-142635300D01*
X162383200Y-142635300D02*
X161575300Y-141827400D01*
X161575300Y-141827400D02*
X161575300Y-141460000D01*
X173100000Y-145364700D02*
X172732700Y-145364700D01*
X172732700Y-145364700D02*
X169342400Y-141974400D01*
X169342400Y-141974400D02*
X169342400Y-135696400D01*
X169342400Y-135696400D02*
X169117300Y-135471300D01*
X169117300Y-135471300D02*
X169117300Y-120719900D01*
X169117300Y-120719900D02*
X174094600Y-115742600D01*
X174094600Y-115742600D02*
X174094600Y-98680700D01*
X174094600Y-98680700D02*
X181600000Y-91175300D01*
X181600000Y-90000000D02*
X181600000Y-91175300D01*
X173100000Y-146540000D02*
X173100000Y-145364700D01*
X173100000Y-140284700D02*
X171746800Y-138931500D01*
X171746800Y-138931500D02*
X171746800Y-125868500D01*
X171746800Y-125868500D02*
X173941400Y-123673900D01*
X173941400Y-123673900D02*
X173941400Y-120235800D01*
X173941400Y-120235800D02*
X176610000Y-117567200D01*
X176610000Y-117567200D02*
X176610000Y-99702500D01*
X176610000Y-99702500D02*
X182790600Y-93521900D01*
X182790600Y-93521900D02*
X182790600Y-89458600D01*
X182790600Y-89458600D02*
X181967300Y-88635300D01*
X181967300Y-88635300D02*
X181600000Y-88635300D01*
X181600000Y-87460000D02*
X181600000Y-88635300D01*
X173100000Y-141460000D02*
X173100000Y-140284700D01*
X184140000Y-88824700D02*
X184507400Y-88824700D01*
X184507400Y-88824700D02*
X185315300Y-88016800D01*
X185315300Y-88016800D02*
X185315300Y-87130300D01*
X185315300Y-87130300D02*
X186658300Y-85787300D01*
X186658300Y-85787300D02*
X197257600Y-85787300D01*
X197257600Y-85787300D02*
X212823300Y-101353000D01*
X212823300Y-101353000D02*
X212823300Y-132076600D01*
X212823300Y-132076600D02*
X200463400Y-144436500D01*
X184140000Y-90000000D02*
X184140000Y-88824700D01*
X178180000Y-140284700D02*
X178326900Y-140284700D01*
X178326900Y-140284700D02*
X184169000Y-134442600D01*
X184169000Y-134442600D02*
X184169000Y-95381500D01*
X178180000Y-141460000D02*
X178180000Y-140284700D01*
X186680000Y-91175300D02*
X179005700Y-98849600D01*
X179005700Y-98849600D02*
X179005700Y-115885200D01*
X179005700Y-115885200D02*
X176690000Y-118200900D01*
X176690000Y-118200900D02*
X176690000Y-128877200D01*
X176690000Y-128877200D02*
X174275400Y-131291800D01*
X174275400Y-131291800D02*
X174275400Y-144000100D01*
X174275400Y-144000100D02*
X175640000Y-145364700D01*
X175640000Y-146540000D02*
X175640000Y-145364700D01*
X186680000Y-90000000D02*
X186680000Y-91175300D01*
X175640000Y-141460000D02*
X175640000Y-140284700D01*
X186680000Y-87460000D02*
X186680000Y-88635300D01*
X186680000Y-88635300D02*
X187047300Y-88635300D01*
X187047300Y-88635300D02*
X187874000Y-89462000D01*
X187874000Y-89462000D02*
X187874000Y-90618200D01*
X187874000Y-90618200D02*
X181690000Y-96802200D01*
X181690000Y-96802200D02*
X181690000Y-127684700D01*
X181690000Y-127684700D02*
X176690000Y-132684700D01*
X176690000Y-132684700D02*
X176690000Y-139234700D01*
X176690000Y-139234700D02*
X175640000Y-140284700D01*
X189220000Y-90000000D02*
X189220000Y-91175300D01*
X189220000Y-91175300D02*
X191549800Y-93505100D01*
X191549800Y-93505100D02*
X191549800Y-131267100D01*
X191549800Y-131267100D02*
X181895300Y-140921600D01*
X181895300Y-140921600D02*
X181895300Y-143464500D01*
X181895300Y-143464500D02*
X179450000Y-145909800D01*
X179450000Y-145909800D02*
X179450000Y-147038400D01*
X179450000Y-147038400D02*
X178740200Y-147748200D01*
X178740200Y-147748200D02*
X175178200Y-147748200D01*
X175178200Y-147748200D02*
X174285800Y-146855800D01*
X174285800Y-146855800D02*
X174285800Y-145185800D01*
X174285800Y-145185800D02*
X170560000Y-141460000D01*
X190395300Y-87460000D02*
X190395300Y-87092700D01*
X190395300Y-87092700D02*
X191250300Y-86237700D01*
X191250300Y-86237700D02*
X192234200Y-86237700D01*
X192234200Y-86237700D02*
X199770000Y-93773500D01*
X199770000Y-93773500D02*
X199770000Y-113834400D01*
X199770000Y-113834400D02*
X201262500Y-115326900D01*
X201262500Y-115326900D02*
X201262500Y-120652500D01*
X201262500Y-120652500D02*
X201471400Y-120861400D01*
X201471400Y-120861400D02*
X201471400Y-131508400D01*
X201471400Y-131508400D02*
X192150000Y-140829800D01*
X192150000Y-140829800D02*
X192150000Y-146975500D01*
X192150000Y-146975500D02*
X190011800Y-149113700D01*
X190011800Y-149113700D02*
X170593700Y-149113700D01*
X170593700Y-149113700D02*
X168020000Y-146540000D01*
X189220000Y-87460000D02*
X190395300Y-87460000D01*
X190880000Y-146540000D02*
X190880000Y-145364700D01*
X199820000Y-120430000D02*
X199820000Y-121605300D01*
X199820000Y-121605300D02*
X200187300Y-121605300D01*
X200187300Y-121605300D02*
X201011300Y-122429300D01*
X201011300Y-122429300D02*
X201011300Y-127845800D01*
X201011300Y-127845800D02*
X189704700Y-139152400D01*
X189704700Y-139152400D02*
X189704700Y-144189400D01*
X189704700Y-144189400D02*
X190880000Y-145364700D01*
X185380000Y-101350000D02*
X187891000Y-101350000D01*
X187891000Y-101350000D02*
X190774500Y-98466500D01*
X192984500Y-102887800D02*
X192984500Y-103459200D01*
X192984500Y-103459200D02*
X197230000Y-107704700D01*
X197230000Y-107704700D02*
X197230000Y-120380000D01*
X197230000Y-120380000D02*
X199820000Y-122970000D01*
X148115000Y-127600000D02*
X148115000Y-126424700D01*
X151120000Y-90000000D02*
X151120000Y-91175300D01*
X151120000Y-91175300D02*
X158369100Y-98424400D01*
X158369100Y-98424400D02*
X158369100Y-103108700D01*
X158369100Y-103108700D02*
X153520000Y-107957800D01*
X153520000Y-107957800D02*
X153520000Y-122121500D01*
X153520000Y-122121500D02*
X149216800Y-126424700D01*
X149216800Y-126424700D02*
X148115000Y-126424700D01*
X183040000Y-126330000D02*
X183040000Y-127455300D01*
X183040000Y-127455300D02*
X177960000Y-132535300D01*
X177960000Y-132535300D02*
X177960000Y-133950000D01*
D18*
G36*
X216290001Y-152290000D02*
G01*
X117710000Y-152290000D01*
X117710000Y-148279872D01*
X120265000Y-148279872D01*
X120265000Y-148720128D01*
X120350890Y-149151925D01*
X120519369Y-149558669D01*
X120763962Y-149924729D01*
X121075271Y-150236038D01*
X121441331Y-150480631D01*
X121848075Y-150649110D01*
X122279872Y-150735000D01*
X122720128Y-150735000D01*
X123151925Y-150649110D01*
X123558669Y-150480631D01*
X123924729Y-150236038D01*
X124236038Y-149924729D01*
X124480631Y-149558669D01*
X124649110Y-149151925D01*
X124735000Y-148720128D01*
X124735000Y-148279872D01*
X124649110Y-147848075D01*
X124480631Y-147441331D01*
X124236038Y-147075271D01*
X123924729Y-146763962D01*
X123558669Y-146519369D01*
X123151925Y-146350890D01*
X122720128Y-146265000D01*
X122279872Y-146265000D01*
X121848075Y-146350890D01*
X121441331Y-146519369D01*
X121075271Y-146763962D01*
X120763962Y-147075271D01*
X120519369Y-147441331D01*
X120350890Y-147848075D01*
X120265000Y-148279872D01*
X117710000Y-148279872D01*
X117710000Y-86951000D01*
X124589824Y-86951000D01*
X124593500Y-86988322D01*
X124593501Y-134086267D01*
X124589824Y-134123600D01*
X124604498Y-134272585D01*
X124647954Y-134415846D01*
X124718526Y-134547876D01*
X124789701Y-134634602D01*
X124813500Y-134663601D01*
X124842498Y-134687399D01*
X125807453Y-135652354D01*
X125618645Y-135764822D01*
X125402412Y-135959731D01*
X125228359Y-136193080D01*
X125103175Y-136455901D01*
X125058524Y-136603110D01*
X125179845Y-136833000D01*
X126373000Y-136833000D01*
X126373000Y-136813000D01*
X126627000Y-136813000D01*
X126627000Y-136833000D01*
X126647000Y-136833000D01*
X126647000Y-137087000D01*
X126627000Y-137087000D01*
X126627000Y-137107000D01*
X126373000Y-137107000D01*
X126373000Y-137087000D01*
X125179845Y-137087000D01*
X125058524Y-137316890D01*
X125103175Y-137464099D01*
X125228359Y-137726920D01*
X125402412Y-137960269D01*
X125486466Y-138036034D01*
X125405820Y-138060498D01*
X125295506Y-138119463D01*
X125198815Y-138198815D01*
X125119463Y-138295506D01*
X125060498Y-138405820D01*
X125024188Y-138525518D01*
X125011928Y-138650000D01*
X125011928Y-140350000D01*
X125024188Y-140474482D01*
X125060498Y-140594180D01*
X125119463Y-140704494D01*
X125198815Y-140801185D01*
X125295506Y-140880537D01*
X125405820Y-140939502D01*
X125525518Y-140975812D01*
X125650000Y-140988072D01*
X127350000Y-140988072D01*
X127474482Y-140975812D01*
X127594180Y-140939502D01*
X127704494Y-140880537D01*
X127801185Y-140801185D01*
X127880537Y-140704494D01*
X127939502Y-140594180D01*
X127975812Y-140474482D01*
X127988072Y-140350000D01*
X127988072Y-138650000D01*
X127975812Y-138525518D01*
X127939502Y-138405820D01*
X127880537Y-138295506D01*
X127801185Y-138198815D01*
X127704494Y-138119463D01*
X127594180Y-138060498D01*
X127513534Y-138036034D01*
X127597588Y-137960269D01*
X127771641Y-137726920D01*
X127807253Y-137652154D01*
X136003300Y-145848202D01*
X136027099Y-145877201D01*
X136142824Y-145972174D01*
X136157972Y-145980271D01*
X136076487Y-146248889D01*
X136047815Y-146540000D01*
X136076487Y-146831111D01*
X136161401Y-147111034D01*
X136299294Y-147369014D01*
X136484866Y-147595134D01*
X136710986Y-147780706D01*
X136968966Y-147918599D01*
X137248889Y-148003513D01*
X137467050Y-148025000D01*
X137612950Y-148025000D01*
X137831111Y-148003513D01*
X138111034Y-147918599D01*
X138369014Y-147780706D01*
X138462271Y-147704172D01*
X139893701Y-149135603D01*
X139917499Y-149164601D01*
X140033224Y-149259574D01*
X140165253Y-149330146D01*
X140308514Y-149373603D01*
X140420167Y-149384600D01*
X140420177Y-149384600D01*
X140457500Y-149388276D01*
X140494823Y-149384600D01*
X152390078Y-149384600D01*
X152427400Y-149388276D01*
X152464722Y-149384600D01*
X152464733Y-149384600D01*
X152576386Y-149373603D01*
X152719647Y-149330146D01*
X152851676Y-149259574D01*
X152967401Y-149164601D01*
X152991204Y-149135597D01*
X154411406Y-147715396D01*
X154490986Y-147780706D01*
X154748966Y-147918599D01*
X155028889Y-148003513D01*
X155247050Y-148025000D01*
X155392950Y-148025000D01*
X155611111Y-148003513D01*
X155891034Y-147918599D01*
X156149014Y-147780706D01*
X156375134Y-147595134D01*
X156560706Y-147369014D01*
X156590000Y-147314209D01*
X156619294Y-147369014D01*
X156804866Y-147595134D01*
X157030986Y-147780706D01*
X157288966Y-147918599D01*
X157568889Y-148003513D01*
X157787050Y-148025000D01*
X157932950Y-148025000D01*
X158151111Y-148003513D01*
X158431034Y-147918599D01*
X158689014Y-147780706D01*
X158915134Y-147595134D01*
X159100706Y-147369014D01*
X159130000Y-147314209D01*
X159159294Y-147369014D01*
X159344866Y-147595134D01*
X159570986Y-147780706D01*
X159828966Y-147918599D01*
X160108889Y-148003513D01*
X160327050Y-148025000D01*
X160472950Y-148025000D01*
X160691111Y-148003513D01*
X160971034Y-147918599D01*
X161229014Y-147780706D01*
X161455134Y-147595134D01*
X161640706Y-147369014D01*
X161670000Y-147314209D01*
X161699294Y-147369014D01*
X161884866Y-147595134D01*
X162110986Y-147780706D01*
X162368966Y-147918599D01*
X162648889Y-148003513D01*
X162867050Y-148025000D01*
X163012950Y-148025000D01*
X163231111Y-148003513D01*
X163511034Y-147918599D01*
X163769014Y-147780706D01*
X163995134Y-147595134D01*
X164180706Y-147369014D01*
X164210000Y-147314209D01*
X164239294Y-147369014D01*
X164424866Y-147595134D01*
X164650986Y-147780706D01*
X164908966Y-147918599D01*
X165188889Y-148003513D01*
X165407050Y-148025000D01*
X165552950Y-148025000D01*
X165771111Y-148003513D01*
X166051034Y-147918599D01*
X166309014Y-147780706D01*
X166401667Y-147704668D01*
X168795001Y-150098003D01*
X168818799Y-150127001D01*
X168934524Y-150221974D01*
X169066553Y-150292546D01*
X169209814Y-150336003D01*
X169321467Y-150347000D01*
X169321476Y-150347000D01*
X169358799Y-150350676D01*
X169396122Y-150347000D01*
X197141678Y-150347000D01*
X197179000Y-150350676D01*
X197216322Y-150347000D01*
X197216333Y-150347000D01*
X197327986Y-150336003D01*
X197471247Y-150292546D01*
X197603276Y-150221974D01*
X197719001Y-150127001D01*
X197742804Y-150097997D01*
X199560929Y-148279872D01*
X209265000Y-148279872D01*
X209265000Y-148720128D01*
X209350890Y-149151925D01*
X209519369Y-149558669D01*
X209763962Y-149924729D01*
X210075271Y-150236038D01*
X210441331Y-150480631D01*
X210848075Y-150649110D01*
X211279872Y-150735000D01*
X211720128Y-150735000D01*
X212151925Y-150649110D01*
X212558669Y-150480631D01*
X212924729Y-150236038D01*
X213236038Y-149924729D01*
X213480631Y-149558669D01*
X213649110Y-149151925D01*
X213735000Y-148720128D01*
X213735000Y-148279872D01*
X213649110Y-147848075D01*
X213480631Y-147441331D01*
X213236038Y-147075271D01*
X212924729Y-146763962D01*
X212558669Y-146519369D01*
X212151925Y-146350890D01*
X211720128Y-146265000D01*
X211279872Y-146265000D01*
X210848075Y-146350890D01*
X210441331Y-146519369D01*
X210075271Y-146763962D01*
X209763962Y-147075271D01*
X209519369Y-147441331D01*
X209350890Y-147848075D01*
X209265000Y-148279872D01*
X199560929Y-148279872D01*
X213820603Y-134020199D01*
X213849601Y-133996401D01*
X213944574Y-133880676D01*
X214015146Y-133748647D01*
X214058603Y-133605386D01*
X214069600Y-133493733D01*
X214069600Y-133493724D01*
X214073276Y-133456401D01*
X214069600Y-133419078D01*
X214069600Y-101239722D01*
X214073276Y-101202399D01*
X214069600Y-101165076D01*
X214069600Y-101165067D01*
X214058603Y-101053414D01*
X214015146Y-100910153D01*
X213944574Y-100778124D01*
X213849601Y-100662399D01*
X213820604Y-100638602D01*
X198007904Y-84825903D01*
X197984101Y-84796899D01*
X197868376Y-84701926D01*
X197736347Y-84631354D01*
X197593086Y-84587897D01*
X197481433Y-84576900D01*
X197481422Y-84576900D01*
X197444100Y-84573224D01*
X197406778Y-84576900D01*
X182028422Y-84576900D01*
X181991099Y-84573224D01*
X181953776Y-84576900D01*
X181953767Y-84576900D01*
X181842114Y-84587897D01*
X181698853Y-84631354D01*
X181566824Y-84701926D01*
X181451099Y-84796899D01*
X181427301Y-84825897D01*
X179968595Y-86284604D01*
X179889014Y-86219294D01*
X179631034Y-86081401D01*
X179351111Y-85996487D01*
X179132950Y-85975000D01*
X178987050Y-85975000D01*
X178768889Y-85996487D01*
X178488966Y-86081401D01*
X178230986Y-86219294D01*
X178004866Y-86404866D01*
X177819294Y-86630986D01*
X177790000Y-86685791D01*
X177760706Y-86630986D01*
X177575134Y-86404866D01*
X177349014Y-86219294D01*
X177091034Y-86081401D01*
X176811111Y-85996487D01*
X176592950Y-85975000D01*
X176447050Y-85975000D01*
X176228889Y-85996487D01*
X175948966Y-86081401D01*
X175690986Y-86219294D01*
X175464866Y-86404866D01*
X175279294Y-86630986D01*
X175250000Y-86685791D01*
X175220706Y-86630986D01*
X175035134Y-86404866D01*
X174809014Y-86219294D01*
X174551034Y-86081401D01*
X174271111Y-85996487D01*
X174052950Y-85975000D01*
X173907050Y-85975000D01*
X173688889Y-85996487D01*
X173408966Y-86081401D01*
X173150986Y-86219294D01*
X172924866Y-86404866D01*
X172739294Y-86630986D01*
X172710000Y-86685791D01*
X172680706Y-86630986D01*
X172495134Y-86404866D01*
X172269014Y-86219294D01*
X172011034Y-86081401D01*
X171731111Y-85996487D01*
X171512950Y-85975000D01*
X171367050Y-85975000D01*
X171148889Y-85996487D01*
X170868966Y-86081401D01*
X170610986Y-86219294D01*
X170384866Y-86404866D01*
X170199294Y-86630986D01*
X170170000Y-86685791D01*
X170140706Y-86630986D01*
X169955134Y-86404866D01*
X169729014Y-86219294D01*
X169471034Y-86081401D01*
X169191111Y-85996487D01*
X168972950Y-85975000D01*
X168827050Y-85975000D01*
X168608889Y-85996487D01*
X168328966Y-86081401D01*
X168070986Y-86219294D01*
X167844866Y-86404866D01*
X167659294Y-86630986D01*
X167630000Y-86685791D01*
X167600706Y-86630986D01*
X167415134Y-86404866D01*
X167189014Y-86219294D01*
X166931034Y-86081401D01*
X166651111Y-85996487D01*
X166432950Y-85975000D01*
X166287050Y-85975000D01*
X166068889Y-85996487D01*
X165788966Y-86081401D01*
X165530986Y-86219294D01*
X165304866Y-86404866D01*
X165119294Y-86630986D01*
X165090000Y-86685791D01*
X165060706Y-86630986D01*
X164875134Y-86404866D01*
X164649014Y-86219294D01*
X164391034Y-86081401D01*
X164111111Y-85996487D01*
X163892950Y-85975000D01*
X163747050Y-85975000D01*
X163528889Y-85996487D01*
X163248966Y-86081401D01*
X162990986Y-86219294D01*
X162764866Y-86404866D01*
X162579294Y-86630986D01*
X162550000Y-86685791D01*
X162520706Y-86630986D01*
X162335134Y-86404866D01*
X162109014Y-86219294D01*
X161851034Y-86081401D01*
X161571111Y-85996487D01*
X161352950Y-85975000D01*
X161207050Y-85975000D01*
X160988889Y-85996487D01*
X160708966Y-86081401D01*
X160450986Y-86219294D01*
X160224866Y-86404866D01*
X160039294Y-86630986D01*
X160010000Y-86685791D01*
X159980706Y-86630986D01*
X159795134Y-86404866D01*
X159569014Y-86219294D01*
X159311034Y-86081401D01*
X159031111Y-85996487D01*
X158812950Y-85975000D01*
X158667050Y-85975000D01*
X158448889Y-85996487D01*
X158168966Y-86081401D01*
X157910986Y-86219294D01*
X157793123Y-86316021D01*
X155441904Y-83964803D01*
X155418101Y-83935799D01*
X155302376Y-83840826D01*
X155170347Y-83770254D01*
X155027086Y-83726797D01*
X154915433Y-83715800D01*
X154915422Y-83715800D01*
X154878100Y-83712124D01*
X154840778Y-83715800D01*
X127866022Y-83715800D01*
X127828699Y-83712124D01*
X127791376Y-83715800D01*
X127791367Y-83715800D01*
X127679714Y-83726797D01*
X127536453Y-83770254D01*
X127404424Y-83840826D01*
X127404422Y-83840827D01*
X127404423Y-83840827D01*
X127317696Y-83912001D01*
X127317692Y-83912005D01*
X127288699Y-83935799D01*
X127264905Y-83964792D01*
X124842503Y-86387196D01*
X124813499Y-86410999D01*
X124767995Y-86466446D01*
X124718526Y-86526724D01*
X124650015Y-86654899D01*
X124647954Y-86658754D01*
X124604497Y-86802015D01*
X124593500Y-86913668D01*
X124593500Y-86913678D01*
X124589824Y-86951000D01*
X117710000Y-86951000D01*
X117710000Y-82279872D01*
X120265000Y-82279872D01*
X120265000Y-82720128D01*
X120350890Y-83151925D01*
X120519369Y-83558669D01*
X120763962Y-83924729D01*
X121075271Y-84236038D01*
X121441331Y-84480631D01*
X121848075Y-84649110D01*
X122279872Y-84735000D01*
X122720128Y-84735000D01*
X123151925Y-84649110D01*
X123558669Y-84480631D01*
X123924729Y-84236038D01*
X124236038Y-83924729D01*
X124480631Y-83558669D01*
X124649110Y-83151925D01*
X124735000Y-82720128D01*
X124735000Y-82279872D01*
X209265000Y-82279872D01*
X209265000Y-82720128D01*
X209350890Y-83151925D01*
X209519369Y-83558669D01*
X209763962Y-83924729D01*
X210075271Y-84236038D01*
X210441331Y-84480631D01*
X210848075Y-84649110D01*
X211279872Y-84735000D01*
X211720128Y-84735000D01*
X212151925Y-84649110D01*
X212558669Y-84480631D01*
X212924729Y-84236038D01*
X213236038Y-83924729D01*
X213480631Y-83558669D01*
X213649110Y-83151925D01*
X213735000Y-82720128D01*
X213735000Y-82279872D01*
X213649110Y-81848075D01*
X213480631Y-81441331D01*
X213236038Y-81075271D01*
X212924729Y-80763962D01*
X212558669Y-80519369D01*
X212151925Y-80350890D01*
X211720128Y-80265000D01*
X211279872Y-80265000D01*
X210848075Y-80350890D01*
X210441331Y-80519369D01*
X210075271Y-80763962D01*
X209763962Y-81075271D01*
X209519369Y-81441331D01*
X209350890Y-81848075D01*
X209265000Y-82279872D01*
X124735000Y-82279872D01*
X124649110Y-81848075D01*
X124480631Y-81441331D01*
X124236038Y-81075271D01*
X123924729Y-80763962D01*
X123558669Y-80519369D01*
X123151925Y-80350890D01*
X122720128Y-80265000D01*
X122279872Y-80265000D01*
X121848075Y-80350890D01*
X121441331Y-80519369D01*
X121075271Y-80763962D01*
X120763962Y-81075271D01*
X120519369Y-81441331D01*
X120350890Y-81848075D01*
X120265000Y-82279872D01*
X117710000Y-82279872D01*
X117710000Y-78710000D01*
X216290000Y-78710000D01*
X216290001Y-152290000D01*
X216290001Y-152290000D01*
G37*
X216290001Y-152290000D02*
X117710000Y-152290000D01*
X117710000Y-148279872D01*
X120265000Y-148279872D01*
X120265000Y-148720128D01*
X120350890Y-149151925D01*
X120519369Y-149558669D01*
X120763962Y-149924729D01*
X121075271Y-150236038D01*
X121441331Y-150480631D01*
X121848075Y-150649110D01*
X122279872Y-150735000D01*
X122720128Y-150735000D01*
X123151925Y-150649110D01*
X123558669Y-150480631D01*
X123924729Y-150236038D01*
X124236038Y-149924729D01*
X124480631Y-149558669D01*
X124649110Y-149151925D01*
X124735000Y-148720128D01*
X124735000Y-148279872D01*
X124649110Y-147848075D01*
X124480631Y-147441331D01*
X124236038Y-147075271D01*
X123924729Y-146763962D01*
X123558669Y-146519369D01*
X123151925Y-146350890D01*
X122720128Y-146265000D01*
X122279872Y-146265000D01*
X121848075Y-146350890D01*
X121441331Y-146519369D01*
X121075271Y-146763962D01*
X120763962Y-147075271D01*
X120519369Y-147441331D01*
X120350890Y-147848075D01*
X120265000Y-148279872D01*
X117710000Y-148279872D01*
X117710000Y-86951000D01*
X124589824Y-86951000D01*
X124593500Y-86988322D01*
X124593501Y-134086267D01*
X124589824Y-134123600D01*
X124604498Y-134272585D01*
X124647954Y-134415846D01*
X124718526Y-134547876D01*
X124789701Y-134634602D01*
X124813500Y-134663601D01*
X124842498Y-134687399D01*
X125807453Y-135652354D01*
X125618645Y-135764822D01*
X125402412Y-135959731D01*
X125228359Y-136193080D01*
X125103175Y-136455901D01*
X125058524Y-136603110D01*
X125179845Y-136833000D01*
X126373000Y-136833000D01*
X126373000Y-136813000D01*
X126627000Y-136813000D01*
X126627000Y-136833000D01*
X126647000Y-136833000D01*
X126647000Y-137087000D01*
X126627000Y-137087000D01*
X126627000Y-137107000D01*
X126373000Y-137107000D01*
X126373000Y-137087000D01*
X125179845Y-137087000D01*
X125058524Y-137316890D01*
X125103175Y-137464099D01*
X125228359Y-137726920D01*
X125402412Y-137960269D01*
X125486466Y-138036034D01*
X125405820Y-138060498D01*
X125295506Y-138119463D01*
X125198815Y-138198815D01*
X125119463Y-138295506D01*
X125060498Y-138405820D01*
X125024188Y-138525518D01*
X125011928Y-138650000D01*
X125011928Y-140350000D01*
X125024188Y-140474482D01*
X125060498Y-140594180D01*
X125119463Y-140704494D01*
X125198815Y-140801185D01*
X125295506Y-140880537D01*
X125405820Y-140939502D01*
X125525518Y-140975812D01*
X125650000Y-140988072D01*
X127350000Y-140988072D01*
X127474482Y-140975812D01*
X127594180Y-140939502D01*
X127704494Y-140880537D01*
X127801185Y-140801185D01*
X127880537Y-140704494D01*
X127939502Y-140594180D01*
X127975812Y-140474482D01*
X127988072Y-140350000D01*
X127988072Y-138650000D01*
X127975812Y-138525518D01*
X127939502Y-138405820D01*
X127880537Y-138295506D01*
X127801185Y-138198815D01*
X127704494Y-138119463D01*
X127594180Y-138060498D01*
X127513534Y-138036034D01*
X127597588Y-137960269D01*
X127771641Y-137726920D01*
X127807253Y-137652154D01*
X136003300Y-145848202D01*
X136027099Y-145877201D01*
X136142824Y-145972174D01*
X136157972Y-145980271D01*
X136076487Y-146248889D01*
X136047815Y-146540000D01*
X136076487Y-146831111D01*
X136161401Y-147111034D01*
X136299294Y-147369014D01*
X136484866Y-147595134D01*
X136710986Y-147780706D01*
X136968966Y-147918599D01*
X137248889Y-148003513D01*
X137467050Y-148025000D01*
X137612950Y-148025000D01*
X137831111Y-148003513D01*
X138111034Y-147918599D01*
X138369014Y-147780706D01*
X138462271Y-147704172D01*
X139893701Y-149135603D01*
X139917499Y-149164601D01*
X140033224Y-149259574D01*
X140165253Y-149330146D01*
X140308514Y-149373603D01*
X140420167Y-149384600D01*
X140420177Y-149384600D01*
X140457500Y-149388276D01*
X140494823Y-149384600D01*
X152390078Y-149384600D01*
X152427400Y-149388276D01*
X152464722Y-149384600D01*
X152464733Y-149384600D01*
X152576386Y-149373603D01*
X152719647Y-149330146D01*
X152851676Y-149259574D01*
X152967401Y-149164601D01*
X152991204Y-149135597D01*
X154411406Y-147715396D01*
X154490986Y-147780706D01*
X154748966Y-147918599D01*
X155028889Y-148003513D01*
X155247050Y-148025000D01*
X155392950Y-148025000D01*
X155611111Y-148003513D01*
X155891034Y-147918599D01*
X156149014Y-147780706D01*
X156375134Y-147595134D01*
X156560706Y-147369014D01*
X156590000Y-147314209D01*
X156619294Y-147369014D01*
X156804866Y-147595134D01*
X157030986Y-147780706D01*
X157288966Y-147918599D01*
X157568889Y-148003513D01*
X157787050Y-148025000D01*
X157932950Y-148025000D01*
X158151111Y-148003513D01*
X158431034Y-147918599D01*
X158689014Y-147780706D01*
X158915134Y-147595134D01*
X159100706Y-147369014D01*
X159130000Y-147314209D01*
X159159294Y-147369014D01*
X159344866Y-147595134D01*
X159570986Y-147780706D01*
X159828966Y-147918599D01*
X160108889Y-148003513D01*
X160327050Y-148025000D01*
X160472950Y-148025000D01*
X160691111Y-148003513D01*
X160971034Y-147918599D01*
X161229014Y-147780706D01*
X161455134Y-147595134D01*
X161640706Y-147369014D01*
X161670000Y-147314209D01*
X161699294Y-147369014D01*
X161884866Y-147595134D01*
X162110986Y-147780706D01*
X162368966Y-147918599D01*
X162648889Y-148003513D01*
X162867050Y-148025000D01*
X163012950Y-148025000D01*
X163231111Y-148003513D01*
X163511034Y-147918599D01*
X163769014Y-147780706D01*
X163995134Y-147595134D01*
X164180706Y-147369014D01*
X164210000Y-147314209D01*
X164239294Y-147369014D01*
X164424866Y-147595134D01*
X164650986Y-147780706D01*
X164908966Y-147918599D01*
X165188889Y-148003513D01*
X165407050Y-148025000D01*
X165552950Y-148025000D01*
X165771111Y-148003513D01*
X166051034Y-147918599D01*
X166309014Y-147780706D01*
X166401667Y-147704668D01*
X168795001Y-150098003D01*
X168818799Y-150127001D01*
X168934524Y-150221974D01*
X169066553Y-150292546D01*
X169209814Y-150336003D01*
X169321467Y-150347000D01*
X169321476Y-150347000D01*
X169358799Y-150350676D01*
X169396122Y-150347000D01*
X197141678Y-150347000D01*
X197179000Y-150350676D01*
X197216322Y-150347000D01*
X197216333Y-150347000D01*
X197327986Y-150336003D01*
X197471247Y-150292546D01*
X197603276Y-150221974D01*
X197719001Y-150127001D01*
X197742804Y-150097997D01*
X199560929Y-148279872D01*
X209265000Y-148279872D01*
X209265000Y-148720128D01*
X209350890Y-149151925D01*
X209519369Y-149558669D01*
X209763962Y-149924729D01*
X210075271Y-150236038D01*
X210441331Y-150480631D01*
X210848075Y-150649110D01*
X211279872Y-150735000D01*
X211720128Y-150735000D01*
X212151925Y-150649110D01*
X212558669Y-150480631D01*
X212924729Y-150236038D01*
X213236038Y-149924729D01*
X213480631Y-149558669D01*
X213649110Y-149151925D01*
X213735000Y-148720128D01*
X213735000Y-148279872D01*
X213649110Y-147848075D01*
X213480631Y-147441331D01*
X213236038Y-147075271D01*
X212924729Y-146763962D01*
X212558669Y-146519369D01*
X212151925Y-146350890D01*
X211720128Y-146265000D01*
X211279872Y-146265000D01*
X210848075Y-146350890D01*
X210441331Y-146519369D01*
X210075271Y-146763962D01*
X209763962Y-147075271D01*
X209519369Y-147441331D01*
X209350890Y-147848075D01*
X209265000Y-148279872D01*
X199560929Y-148279872D01*
X213820603Y-134020199D01*
X213849601Y-133996401D01*
X213944574Y-133880676D01*
X214015146Y-133748647D01*
X214058603Y-133605386D01*
X214069600Y-133493733D01*
X214069600Y-133493724D01*
X214073276Y-133456401D01*
X214069600Y-133419078D01*
X214069600Y-101239722D01*
X214073276Y-101202399D01*
X214069600Y-101165076D01*
X214069600Y-101165067D01*
X214058603Y-101053414D01*
X214015146Y-100910153D01*
X213944574Y-100778124D01*
X213849601Y-100662399D01*
X213820604Y-100638602D01*
X198007904Y-84825903D01*
X197984101Y-84796899D01*
X197868376Y-84701926D01*
X197736347Y-84631354D01*
X197593086Y-84587897D01*
X197481433Y-84576900D01*
X197481422Y-84576900D01*
X197444100Y-84573224D01*
X197406778Y-84576900D01*
X182028422Y-84576900D01*
X181991099Y-84573224D01*
X181953776Y-84576900D01*
X181953767Y-84576900D01*
X181842114Y-84587897D01*
X181698853Y-84631354D01*
X181566824Y-84701926D01*
X181451099Y-84796899D01*
X181427301Y-84825897D01*
X179968595Y-86284604D01*
X179889014Y-86219294D01*
X179631034Y-86081401D01*
X179351111Y-85996487D01*
X179132950Y-85975000D01*
X178987050Y-85975000D01*
X178768889Y-85996487D01*
X178488966Y-86081401D01*
X178230986Y-86219294D01*
X178004866Y-86404866D01*
X177819294Y-86630986D01*
X177790000Y-86685791D01*
X177760706Y-86630986D01*
X177575134Y-86404866D01*
X177349014Y-86219294D01*
X177091034Y-86081401D01*
X176811111Y-85996487D01*
X176592950Y-85975000D01*
X176447050Y-85975000D01*
X176228889Y-85996487D01*
X175948966Y-86081401D01*
X175690986Y-86219294D01*
X175464866Y-86404866D01*
X175279294Y-86630986D01*
X175250000Y-86685791D01*
X175220706Y-86630986D01*
X175035134Y-86404866D01*
X174809014Y-86219294D01*
X174551034Y-86081401D01*
X174271111Y-85996487D01*
X174052950Y-85975000D01*
X173907050Y-85975000D01*
X173688889Y-85996487D01*
X173408966Y-86081401D01*
X173150986Y-86219294D01*
X172924866Y-86404866D01*
X172739294Y-86630986D01*
X172710000Y-86685791D01*
X172680706Y-86630986D01*
X172495134Y-86404866D01*
X172269014Y-86219294D01*
X172011034Y-86081401D01*
X171731111Y-85996487D01*
X171512950Y-85975000D01*
X171367050Y-85975000D01*
X171148889Y-85996487D01*
X170868966Y-86081401D01*
X170610986Y-86219294D01*
X170384866Y-86404866D01*
X170199294Y-86630986D01*
X170170000Y-86685791D01*
X170140706Y-86630986D01*
X169955134Y-86404866D01*
X169729014Y-86219294D01*
X169471034Y-86081401D01*
X169191111Y-85996487D01*
X168972950Y-85975000D01*
X168827050Y-85975000D01*
X168608889Y-85996487D01*
X168328966Y-86081401D01*
X168070986Y-86219294D01*
X167844866Y-86404866D01*
X167659294Y-86630986D01*
X167630000Y-86685791D01*
X167600706Y-86630986D01*
X167415134Y-86404866D01*
X167189014Y-86219294D01*
X166931034Y-86081401D01*
X166651111Y-85996487D01*
X166432950Y-85975000D01*
X166287050Y-85975000D01*
X166068889Y-85996487D01*
X165788966Y-86081401D01*
X165530986Y-86219294D01*
X165304866Y-86404866D01*
X165119294Y-86630986D01*
X165090000Y-86685791D01*
X165060706Y-86630986D01*
X164875134Y-86404866D01*
X164649014Y-86219294D01*
X164391034Y-86081401D01*
X164111111Y-85996487D01*
X163892950Y-85975000D01*
X163747050Y-85975000D01*
X163528889Y-85996487D01*
X163248966Y-86081401D01*
X162990986Y-86219294D01*
X162764866Y-86404866D01*
X162579294Y-86630986D01*
X162550000Y-86685791D01*
X162520706Y-86630986D01*
X162335134Y-86404866D01*
X162109014Y-86219294D01*
X161851034Y-86081401D01*
X161571111Y-85996487D01*
X161352950Y-85975000D01*
X161207050Y-85975000D01*
X160988889Y-85996487D01*
X160708966Y-86081401D01*
X160450986Y-86219294D01*
X160224866Y-86404866D01*
X160039294Y-86630986D01*
X160010000Y-86685791D01*
X159980706Y-86630986D01*
X159795134Y-86404866D01*
X159569014Y-86219294D01*
X159311034Y-86081401D01*
X159031111Y-85996487D01*
X158812950Y-85975000D01*
X158667050Y-85975000D01*
X158448889Y-85996487D01*
X158168966Y-86081401D01*
X157910986Y-86219294D01*
X157793123Y-86316021D01*
X155441904Y-83964803D01*
X155418101Y-83935799D01*
X155302376Y-83840826D01*
X155170347Y-83770254D01*
X155027086Y-83726797D01*
X154915433Y-83715800D01*
X154915422Y-83715800D01*
X154878100Y-83712124D01*
X154840778Y-83715800D01*
X127866022Y-83715800D01*
X127828699Y-83712124D01*
X127791376Y-83715800D01*
X127791367Y-83715800D01*
X127679714Y-83726797D01*
X127536453Y-83770254D01*
X127404424Y-83840826D01*
X127404422Y-83840827D01*
X127404423Y-83840827D01*
X127317696Y-83912001D01*
X127317692Y-83912005D01*
X127288699Y-83935799D01*
X127264905Y-83964792D01*
X124842503Y-86387196D01*
X124813499Y-86410999D01*
X124767995Y-86466446D01*
X124718526Y-86526724D01*
X124650015Y-86654899D01*
X124647954Y-86658754D01*
X124604497Y-86802015D01*
X124593500Y-86913668D01*
X124593500Y-86913678D01*
X124589824Y-86951000D01*
X117710000Y-86951000D01*
X117710000Y-82279872D01*
X120265000Y-82279872D01*
X120265000Y-82720128D01*
X120350890Y-83151925D01*
X120519369Y-83558669D01*
X120763962Y-83924729D01*
X121075271Y-84236038D01*
X121441331Y-84480631D01*
X121848075Y-84649110D01*
X122279872Y-84735000D01*
X122720128Y-84735000D01*
X123151925Y-84649110D01*
X123558669Y-84480631D01*
X123924729Y-84236038D01*
X124236038Y-83924729D01*
X124480631Y-83558669D01*
X124649110Y-83151925D01*
X124735000Y-82720128D01*
X124735000Y-82279872D01*
X209265000Y-82279872D01*
X209265000Y-82720128D01*
X209350890Y-83151925D01*
X209519369Y-83558669D01*
X209763962Y-83924729D01*
X210075271Y-84236038D01*
X210441331Y-84480631D01*
X210848075Y-84649110D01*
X211279872Y-84735000D01*
X211720128Y-84735000D01*
X212151925Y-84649110D01*
X212558669Y-84480631D01*
X212924729Y-84236038D01*
X213236038Y-83924729D01*
X213480631Y-83558669D01*
X213649110Y-83151925D01*
X213735000Y-82720128D01*
X213735000Y-82279872D01*
X213649110Y-81848075D01*
X213480631Y-81441331D01*
X213236038Y-81075271D01*
X212924729Y-80763962D01*
X212558669Y-80519369D01*
X212151925Y-80350890D01*
X211720128Y-80265000D01*
X211279872Y-80265000D01*
X210848075Y-80350890D01*
X210441331Y-80519369D01*
X210075271Y-80763962D01*
X209763962Y-81075271D01*
X209519369Y-81441331D01*
X209350890Y-81848075D01*
X209265000Y-82279872D01*
X124735000Y-82279872D01*
X124649110Y-81848075D01*
X124480631Y-81441331D01*
X124236038Y-81075271D01*
X123924729Y-80763962D01*
X123558669Y-80519369D01*
X123151925Y-80350890D01*
X122720128Y-80265000D01*
X122279872Y-80265000D01*
X121848075Y-80350890D01*
X121441331Y-80519369D01*
X121075271Y-80763962D01*
X120763962Y-81075271D01*
X120519369Y-81441331D01*
X120350890Y-81848075D01*
X120265000Y-82279872D01*
X117710000Y-82279872D01*
X117710000Y-78710000D01*
X216290000Y-78710000D01*
X216290001Y-152290000D01*
G36*
X153988899Y-122948932D02*
G01*
X154238192Y-123082182D01*
X154508691Y-123164236D01*
X154719508Y-123185000D01*
X154860492Y-123185000D01*
X155071309Y-123164236D01*
X155300001Y-123094864D01*
X155300000Y-136659303D01*
X155185498Y-136611874D01*
X154985539Y-136572100D01*
X154781661Y-136572100D01*
X154581702Y-136611874D01*
X154393344Y-136689895D01*
X154223826Y-136803163D01*
X154079663Y-136947326D01*
X153966395Y-137116844D01*
X153888374Y-137305202D01*
X153848600Y-137505161D01*
X153848600Y-137567298D01*
X151139093Y-140276806D01*
X151069014Y-140219294D01*
X150811034Y-140081401D01*
X150531111Y-139996487D01*
X150312950Y-139975000D01*
X150167050Y-139975000D01*
X149948889Y-139996487D01*
X149668966Y-140081401D01*
X149410986Y-140219294D01*
X149184866Y-140404866D01*
X148999294Y-140630986D01*
X148964799Y-140695523D01*
X148895178Y-140578645D01*
X148700269Y-140362412D01*
X148466920Y-140188359D01*
X148204099Y-140063175D01*
X148056890Y-140018524D01*
X147827000Y-140139845D01*
X147827000Y-141333000D01*
X147847000Y-141333000D01*
X147847000Y-141587000D01*
X147827000Y-141587000D01*
X147827000Y-142780155D01*
X148056890Y-142901476D01*
X148204099Y-142856825D01*
X148466920Y-142731641D01*
X148700269Y-142557588D01*
X148895178Y-142341355D01*
X148964799Y-142224477D01*
X148999294Y-142289014D01*
X149184866Y-142515134D01*
X149410986Y-142700706D01*
X149529073Y-142763825D01*
X147690988Y-144601911D01*
X147662667Y-144604700D01*
X147551014Y-144615697D01*
X147522506Y-144624345D01*
X147502626Y-144524402D01*
X147424605Y-144336044D01*
X147311337Y-144166526D01*
X147167174Y-144022363D01*
X146997656Y-143909095D01*
X146809298Y-143831074D01*
X146609339Y-143791300D01*
X146547202Y-143791300D01*
X145624682Y-142868781D01*
X145664099Y-142856825D01*
X145926920Y-142731641D01*
X146160269Y-142557588D01*
X146355178Y-142341355D01*
X146430000Y-142215745D01*
X146504822Y-142341355D01*
X146699731Y-142557588D01*
X146933080Y-142731641D01*
X147195901Y-142856825D01*
X147343110Y-142901476D01*
X147573000Y-142780155D01*
X147573000Y-141587000D01*
X145287000Y-141587000D01*
X145287000Y-141607000D01*
X145033000Y-141607000D01*
X145033000Y-141587000D01*
X145013000Y-141587000D01*
X145013000Y-141333000D01*
X145033000Y-141333000D01*
X145033000Y-140139845D01*
X145287000Y-140139845D01*
X145287000Y-141333000D01*
X147573000Y-141333000D01*
X147573000Y-140139845D01*
X147343110Y-140018524D01*
X147195901Y-140063175D01*
X146933080Y-140188359D01*
X146699731Y-140362412D01*
X146504822Y-140578645D01*
X146430000Y-140704255D01*
X146355178Y-140578645D01*
X146160269Y-140362412D01*
X145926920Y-140188359D01*
X145664099Y-140063175D01*
X145516890Y-140018524D01*
X145287000Y-140139845D01*
X145033000Y-140139845D01*
X144803110Y-140018524D01*
X144655901Y-140063175D01*
X144393080Y-140188359D01*
X144159731Y-140362412D01*
X143964822Y-140578645D01*
X143895201Y-140695523D01*
X143860706Y-140630986D01*
X143675134Y-140404866D01*
X143555000Y-140306275D01*
X143555000Y-132166800D01*
X151339818Y-132166800D01*
X151445363Y-132324759D01*
X151645241Y-132524637D01*
X151880273Y-132681680D01*
X152141426Y-132789853D01*
X152418665Y-132845000D01*
X152701335Y-132845000D01*
X152978574Y-132789853D01*
X153239727Y-132681680D01*
X153474759Y-132524637D01*
X153674637Y-132324759D01*
X153831680Y-132089727D01*
X153939853Y-131828574D01*
X153995000Y-131551335D01*
X153995000Y-131268665D01*
X153939853Y-130991426D01*
X153831680Y-130730273D01*
X153674637Y-130495241D01*
X153495000Y-130315604D01*
X153495000Y-128059396D01*
X153674637Y-127879759D01*
X153831680Y-127644727D01*
X153939853Y-127383574D01*
X153995000Y-127106335D01*
X153995000Y-126823665D01*
X153939853Y-126546426D01*
X153831680Y-126285273D01*
X153674637Y-126050241D01*
X153474759Y-125850363D01*
X153239727Y-125693320D01*
X152978574Y-125585147D01*
X152701335Y-125530000D01*
X152418665Y-125530000D01*
X152141426Y-125585147D01*
X151880273Y-125693320D01*
X151645241Y-125850363D01*
X151445363Y-126050241D01*
X151288320Y-126285273D01*
X151180147Y-126546426D01*
X151125000Y-126823665D01*
X151125000Y-127106335D01*
X151180147Y-127383574D01*
X151288320Y-127644727D01*
X151445363Y-127879759D01*
X151625001Y-128059397D01*
X151625000Y-130296800D01*
X146199401Y-130296800D01*
X147261403Y-129234799D01*
X147290401Y-129211001D01*
X147385374Y-129095276D01*
X147455946Y-128963247D01*
X147464219Y-128935973D01*
X147543966Y-128978599D01*
X147823889Y-129063513D01*
X148042050Y-129085000D01*
X148187950Y-129085000D01*
X148406111Y-129063513D01*
X148686034Y-128978599D01*
X148944014Y-128840706D01*
X149170134Y-128655134D01*
X149355706Y-128429014D01*
X149493599Y-128171034D01*
X149578513Y-127891111D01*
X149607185Y-127600000D01*
X149578513Y-127308889D01*
X149522191Y-127123220D01*
X149641076Y-127059674D01*
X149756801Y-126964701D01*
X149780604Y-126935697D01*
X153867225Y-122849077D01*
X153988899Y-122948932D01*
X153988899Y-122948932D01*
G37*
X153988899Y-122948932D02*
X154238192Y-123082182D01*
X154508691Y-123164236D01*
X154719508Y-123185000D01*
X154860492Y-123185000D01*
X155071309Y-123164236D01*
X155300001Y-123094864D01*
X155300000Y-136659303D01*
X155185498Y-136611874D01*
X154985539Y-136572100D01*
X154781661Y-136572100D01*
X154581702Y-136611874D01*
X154393344Y-136689895D01*
X154223826Y-136803163D01*
X154079663Y-136947326D01*
X153966395Y-137116844D01*
X153888374Y-137305202D01*
X153848600Y-137505161D01*
X153848600Y-137567298D01*
X151139093Y-140276806D01*
X151069014Y-140219294D01*
X150811034Y-140081401D01*
X150531111Y-139996487D01*
X150312950Y-139975000D01*
X150167050Y-139975000D01*
X149948889Y-139996487D01*
X149668966Y-140081401D01*
X149410986Y-140219294D01*
X149184866Y-140404866D01*
X148999294Y-140630986D01*
X148964799Y-140695523D01*
X148895178Y-140578645D01*
X148700269Y-140362412D01*
X148466920Y-140188359D01*
X148204099Y-140063175D01*
X148056890Y-140018524D01*
X147827000Y-140139845D01*
X147827000Y-141333000D01*
X147847000Y-141333000D01*
X147847000Y-141587000D01*
X147827000Y-141587000D01*
X147827000Y-142780155D01*
X148056890Y-142901476D01*
X148204099Y-142856825D01*
X148466920Y-142731641D01*
X148700269Y-142557588D01*
X148895178Y-142341355D01*
X148964799Y-142224477D01*
X148999294Y-142289014D01*
X149184866Y-142515134D01*
X149410986Y-142700706D01*
X149529073Y-142763825D01*
X147690988Y-144601911D01*
X147662667Y-144604700D01*
X147551014Y-144615697D01*
X147522506Y-144624345D01*
X147502626Y-144524402D01*
X147424605Y-144336044D01*
X147311337Y-144166526D01*
X147167174Y-144022363D01*
X146997656Y-143909095D01*
X146809298Y-143831074D01*
X146609339Y-143791300D01*
X146547202Y-143791300D01*
X145624682Y-142868781D01*
X145664099Y-142856825D01*
X145926920Y-142731641D01*
X146160269Y-142557588D01*
X146355178Y-142341355D01*
X146430000Y-142215745D01*
X146504822Y-142341355D01*
X146699731Y-142557588D01*
X146933080Y-142731641D01*
X147195901Y-142856825D01*
X147343110Y-142901476D01*
X147573000Y-142780155D01*
X147573000Y-141587000D01*
X145287000Y-141587000D01*
X145287000Y-141607000D01*
X145033000Y-141607000D01*
X145033000Y-141587000D01*
X145013000Y-141587000D01*
X145013000Y-141333000D01*
X145033000Y-141333000D01*
X145033000Y-140139845D01*
X145287000Y-140139845D01*
X145287000Y-141333000D01*
X147573000Y-141333000D01*
X147573000Y-140139845D01*
X147343110Y-140018524D01*
X147195901Y-140063175D01*
X146933080Y-140188359D01*
X146699731Y-140362412D01*
X146504822Y-140578645D01*
X146430000Y-140704255D01*
X146355178Y-140578645D01*
X146160269Y-140362412D01*
X145926920Y-140188359D01*
X145664099Y-140063175D01*
X145516890Y-140018524D01*
X145287000Y-140139845D01*
X145033000Y-140139845D01*
X144803110Y-140018524D01*
X144655901Y-140063175D01*
X144393080Y-140188359D01*
X144159731Y-140362412D01*
X143964822Y-140578645D01*
X143895201Y-140695523D01*
X143860706Y-140630986D01*
X143675134Y-140404866D01*
X143555000Y-140306275D01*
X143555000Y-132166800D01*
X151339818Y-132166800D01*
X151445363Y-132324759D01*
X151645241Y-132524637D01*
X151880273Y-132681680D01*
X152141426Y-132789853D01*
X152418665Y-132845000D01*
X152701335Y-132845000D01*
X152978574Y-132789853D01*
X153239727Y-132681680D01*
X153474759Y-132524637D01*
X153674637Y-132324759D01*
X153831680Y-132089727D01*
X153939853Y-131828574D01*
X153995000Y-131551335D01*
X153995000Y-131268665D01*
X153939853Y-130991426D01*
X153831680Y-130730273D01*
X153674637Y-130495241D01*
X153495000Y-130315604D01*
X153495000Y-128059396D01*
X153674637Y-127879759D01*
X153831680Y-127644727D01*
X153939853Y-127383574D01*
X153995000Y-127106335D01*
X153995000Y-126823665D01*
X153939853Y-126546426D01*
X153831680Y-126285273D01*
X153674637Y-126050241D01*
X153474759Y-125850363D01*
X153239727Y-125693320D01*
X152978574Y-125585147D01*
X152701335Y-125530000D01*
X152418665Y-125530000D01*
X152141426Y-125585147D01*
X151880273Y-125693320D01*
X151645241Y-125850363D01*
X151445363Y-126050241D01*
X151288320Y-126285273D01*
X151180147Y-126546426D01*
X151125000Y-126823665D01*
X151125000Y-127106335D01*
X151180147Y-127383574D01*
X151288320Y-127644727D01*
X151445363Y-127879759D01*
X151625001Y-128059397D01*
X151625000Y-130296800D01*
X146199401Y-130296800D01*
X147261403Y-129234799D01*
X147290401Y-129211001D01*
X147385374Y-129095276D01*
X147455946Y-128963247D01*
X147464219Y-128935973D01*
X147543966Y-128978599D01*
X147823889Y-129063513D01*
X148042050Y-129085000D01*
X148187950Y-129085000D01*
X148406111Y-129063513D01*
X148686034Y-128978599D01*
X148944014Y-128840706D01*
X149170134Y-128655134D01*
X149355706Y-128429014D01*
X149493599Y-128171034D01*
X149578513Y-127891111D01*
X149607185Y-127600000D01*
X149578513Y-127308889D01*
X149522191Y-127123220D01*
X149641076Y-127059674D01*
X149756801Y-126964701D01*
X149780604Y-126935697D01*
X153867225Y-122849077D01*
X153988899Y-122948932D01*
G36*
X138267800Y-100397302D02*
G01*
X138291599Y-100426301D01*
X138407324Y-100521274D01*
X138539353Y-100591846D01*
X138682614Y-100635303D01*
X138775525Y-100644454D01*
X138831600Y-100649977D01*
X138868933Y-100646300D01*
X140125199Y-100646300D01*
X140075000Y-100898665D01*
X140075000Y-101181335D01*
X140130147Y-101458574D01*
X140238320Y-101719727D01*
X140395363Y-101954759D01*
X140595241Y-102154637D01*
X140795869Y-102288692D01*
X140768486Y-102303329D01*
X140696903Y-102547298D01*
X141510000Y-103360395D01*
X142323097Y-102547298D01*
X142251514Y-102303329D01*
X142222659Y-102289676D01*
X142424759Y-102154637D01*
X142624637Y-101954759D01*
X142781680Y-101719727D01*
X142889853Y-101458574D01*
X142945000Y-101181335D01*
X142945000Y-100898665D01*
X142894801Y-100646300D01*
X143296422Y-100646300D01*
X143177818Y-100868192D01*
X143095764Y-101138691D01*
X143068057Y-101420000D01*
X143095764Y-101701309D01*
X143177818Y-101971808D01*
X143311068Y-102221101D01*
X143490392Y-102439608D01*
X143575001Y-102509045D01*
X143575000Y-105652710D01*
X141001336Y-108226375D01*
X140965657Y-108255656D01*
X140848815Y-108398028D01*
X140769870Y-108545725D01*
X140761994Y-108560460D01*
X140708529Y-108736709D01*
X140690476Y-108920000D01*
X140695001Y-108965942D01*
X140695000Y-112655604D01*
X140515363Y-112835241D01*
X140358320Y-113070273D01*
X140250147Y-113331426D01*
X140195000Y-113608665D01*
X140195000Y-113891335D01*
X140250147Y-114168574D01*
X140358320Y-114429727D01*
X140515363Y-114664759D01*
X140715241Y-114864637D01*
X140915869Y-114998692D01*
X140888486Y-115013329D01*
X140816903Y-115257298D01*
X141630000Y-116070395D01*
X142443097Y-115257298D01*
X142371514Y-115013329D01*
X142342659Y-114999676D01*
X142544759Y-114864637D01*
X142744637Y-114664759D01*
X142901680Y-114429727D01*
X143009853Y-114168574D01*
X143065000Y-113891335D01*
X143065000Y-113608665D01*
X143009853Y-113331426D01*
X142901680Y-113070273D01*
X142744637Y-112835241D01*
X142565000Y-112655604D01*
X142565000Y-109307289D01*
X143071928Y-108800361D01*
X143071928Y-109840000D01*
X143084188Y-109964482D01*
X143120498Y-110084180D01*
X143179463Y-110194494D01*
X143258815Y-110291185D01*
X143355506Y-110370537D01*
X143465820Y-110429502D01*
X143585518Y-110465812D01*
X143710000Y-110478072D01*
X145310000Y-110478072D01*
X145434482Y-110465812D01*
X145554180Y-110429502D01*
X145664494Y-110370537D01*
X145761185Y-110291185D01*
X145840537Y-110194494D01*
X145899502Y-110084180D01*
X145935812Y-109964482D01*
X145937581Y-109946518D01*
X146030392Y-110059608D01*
X146248899Y-110238932D01*
X146498192Y-110372182D01*
X146768691Y-110454236D01*
X146979508Y-110475000D01*
X147120492Y-110475000D01*
X147331309Y-110454236D01*
X147601808Y-110372182D01*
X147851101Y-110238932D01*
X148069608Y-110059608D01*
X148248932Y-109841101D01*
X148320000Y-109708142D01*
X148391068Y-109841101D01*
X148570392Y-110059608D01*
X148788899Y-110238932D01*
X149038192Y-110372182D01*
X149308691Y-110454236D01*
X149519508Y-110475000D01*
X149660492Y-110475000D01*
X149871309Y-110454236D01*
X150011403Y-110411739D01*
X150101563Y-110546674D01*
X150145501Y-110590612D01*
X150145501Y-112764321D01*
X150059039Y-112738096D01*
X149837000Y-112860085D01*
X149837000Y-114003000D01*
X149857000Y-114003000D01*
X149857000Y-114257000D01*
X149837000Y-114257000D01*
X149837000Y-115399915D01*
X150059039Y-115521904D01*
X150145500Y-115495679D01*
X150145500Y-119114398D01*
X149198998Y-120060901D01*
X149170000Y-120084699D01*
X149146202Y-120113697D01*
X149146201Y-120113698D01*
X149075026Y-120200424D01*
X149004454Y-120332454D01*
X148975577Y-120427653D01*
X148960998Y-120475714D01*
X148956059Y-120525860D01*
X148908899Y-120551068D01*
X148690392Y-120730392D01*
X148511068Y-120948899D01*
X148440000Y-121081858D01*
X148368932Y-120948899D01*
X148189608Y-120730392D01*
X147971101Y-120551068D01*
X147721808Y-120417818D01*
X147451309Y-120335764D01*
X147240492Y-120315000D01*
X147099508Y-120315000D01*
X146888691Y-120335764D01*
X146618192Y-120417818D01*
X146368899Y-120551068D01*
X146150392Y-120730392D01*
X146057581Y-120843482D01*
X146055812Y-120825518D01*
X146019502Y-120705820D01*
X145960537Y-120595506D01*
X145881185Y-120498815D01*
X145784494Y-120419463D01*
X145674180Y-120360498D01*
X145554482Y-120324188D01*
X145430000Y-120311928D01*
X143830000Y-120311928D01*
X143705518Y-120324188D01*
X143614600Y-120351768D01*
X143614600Y-117767989D01*
X145258664Y-116123926D01*
X145294344Y-116094644D01*
X145411186Y-115952272D01*
X145498007Y-115789840D01*
X145551471Y-115613592D01*
X145561823Y-115508486D01*
X145569524Y-115430301D01*
X145565000Y-115384369D01*
X145565000Y-115219044D01*
X145649608Y-115149608D01*
X145828932Y-114931101D01*
X145902579Y-114793318D01*
X146017615Y-114985131D01*
X146206586Y-115193519D01*
X146432580Y-115361037D01*
X146686913Y-115481246D01*
X146820961Y-115521904D01*
X147043000Y-115399915D01*
X147043000Y-114257000D01*
X147297000Y-114257000D01*
X147297000Y-115399915D01*
X147519039Y-115521904D01*
X147653087Y-115481246D01*
X147907420Y-115361037D01*
X148133414Y-115193519D01*
X148322385Y-114985131D01*
X148440000Y-114789018D01*
X148557615Y-114985131D01*
X148746586Y-115193519D01*
X148972580Y-115361037D01*
X149226913Y-115481246D01*
X149360961Y-115521904D01*
X149583000Y-115399915D01*
X149583000Y-114257000D01*
X147297000Y-114257000D01*
X147043000Y-114257000D01*
X147023000Y-114257000D01*
X147023000Y-114003000D01*
X147043000Y-114003000D01*
X147043000Y-112860085D01*
X147297000Y-112860085D01*
X147297000Y-114003000D01*
X149583000Y-114003000D01*
X149583000Y-112860085D01*
X149360961Y-112738096D01*
X149226913Y-112778754D01*
X148972580Y-112898963D01*
X148746586Y-113066481D01*
X148557615Y-113274869D01*
X148440000Y-113470982D01*
X148322385Y-113274869D01*
X148133414Y-113066481D01*
X147907420Y-112898963D01*
X147653087Y-112778754D01*
X147519039Y-112738096D01*
X147297000Y-112860085D01*
X147043000Y-112860085D01*
X146820961Y-112738096D01*
X146686913Y-112778754D01*
X146432580Y-112898963D01*
X146206586Y-113066481D01*
X146017615Y-113274869D01*
X145902579Y-113466682D01*
X145828932Y-113328899D01*
X145649608Y-113110392D01*
X145431101Y-112931068D01*
X145181808Y-112797818D01*
X144911309Y-112715764D01*
X144700492Y-112695000D01*
X144559508Y-112695000D01*
X144348691Y-112715764D01*
X144078192Y-112797818D01*
X143828899Y-112931068D01*
X143610392Y-113110392D01*
X143431068Y-113328899D01*
X143297818Y-113578192D01*
X143215764Y-113848691D01*
X143188057Y-114130000D01*
X143215764Y-114411309D01*
X143297818Y-114681808D01*
X143431068Y-114931101D01*
X143600480Y-115137530D01*
X142978568Y-115759443D01*
X142933603Y-115633708D01*
X142866671Y-115508486D01*
X142622702Y-115436903D01*
X141809605Y-116250000D01*
X141823748Y-116264143D01*
X141644143Y-116443748D01*
X141630000Y-116429605D01*
X140816903Y-117242702D01*
X140888486Y-117486671D01*
X141143996Y-117607571D01*
X141418184Y-117676300D01*
X141700512Y-117690217D01*
X141744600Y-117683685D01*
X141744601Y-130561928D01*
X140200000Y-130561928D01*
X140075518Y-130574188D01*
X139955820Y-130610498D01*
X139845506Y-130669463D01*
X139748815Y-130748815D01*
X139669463Y-130845506D01*
X139610498Y-130955820D01*
X139574188Y-131075518D01*
X139561928Y-131200000D01*
X139561928Y-131207215D01*
X139492702Y-131186903D01*
X138679605Y-132000000D01*
X139492702Y-132813097D01*
X139561928Y-132792785D01*
X139561928Y-132800000D01*
X139574188Y-132924482D01*
X139610498Y-133044180D01*
X139669463Y-133154494D01*
X139748815Y-133251185D01*
X139845506Y-133330537D01*
X139955820Y-133389502D01*
X140075518Y-133425812D01*
X140200000Y-133438072D01*
X141685000Y-133438072D01*
X141685001Y-140063768D01*
X141685001Y-140306274D01*
X141564866Y-140404866D01*
X141379294Y-140630986D01*
X141350000Y-140685791D01*
X141320706Y-140630986D01*
X141135134Y-140404866D01*
X140909014Y-140219294D01*
X140651034Y-140081401D01*
X140371111Y-139996487D01*
X140152950Y-139975000D01*
X140007050Y-139975000D01*
X139788889Y-139996487D01*
X139508966Y-140081401D01*
X139250986Y-140219294D01*
X139024866Y-140404866D01*
X138839294Y-140630986D01*
X138810000Y-140685791D01*
X138780706Y-140630986D01*
X138595134Y-140404866D01*
X138369014Y-140219294D01*
X138111034Y-140081401D01*
X137831111Y-139996487D01*
X137612950Y-139975000D01*
X137467050Y-139975000D01*
X137248889Y-139996487D01*
X137061400Y-140053361D01*
X137061400Y-132992702D01*
X137686903Y-132992702D01*
X137758486Y-133236671D01*
X138013996Y-133357571D01*
X138288184Y-133426300D01*
X138570512Y-133440217D01*
X138850130Y-133398787D01*
X139116292Y-133303603D01*
X139241514Y-133236671D01*
X139313097Y-132992702D01*
X138500000Y-132179605D01*
X137686903Y-132992702D01*
X137061400Y-132992702D01*
X137061400Y-132891401D01*
X137245202Y-132707600D01*
X137263329Y-132741514D01*
X137507298Y-132813097D01*
X138320395Y-132000000D01*
X138306253Y-131985858D01*
X138485858Y-131806253D01*
X138500000Y-131820395D01*
X139313097Y-131007298D01*
X139241514Y-130763329D01*
X138986004Y-130642429D01*
X138711816Y-130573700D01*
X138429488Y-130559783D01*
X138255400Y-130585577D01*
X138255400Y-116320512D01*
X140189783Y-116320512D01*
X140231213Y-116600130D01*
X140326397Y-116866292D01*
X140393329Y-116991514D01*
X140637298Y-117063097D01*
X141450395Y-116250000D01*
X140637298Y-115436903D01*
X140393329Y-115508486D01*
X140272429Y-115763996D01*
X140203700Y-116038184D01*
X140189783Y-116320512D01*
X138255400Y-116320512D01*
X138255400Y-104532702D01*
X140696903Y-104532702D01*
X140768486Y-104776671D01*
X141023996Y-104897571D01*
X141298184Y-104966300D01*
X141580512Y-104980217D01*
X141860130Y-104938787D01*
X142126292Y-104843603D01*
X142251514Y-104776671D01*
X142323097Y-104532702D01*
X141510000Y-103719605D01*
X140696903Y-104532702D01*
X138255400Y-104532702D01*
X138255400Y-103610512D01*
X140069783Y-103610512D01*
X140111213Y-103890130D01*
X140206397Y-104156292D01*
X140273329Y-104281514D01*
X140517298Y-104353097D01*
X141330395Y-103540000D01*
X141689605Y-103540000D01*
X142502702Y-104353097D01*
X142746671Y-104281514D01*
X142867571Y-104026004D01*
X142936300Y-103751816D01*
X142950217Y-103469488D01*
X142908787Y-103189870D01*
X142813603Y-102923708D01*
X142746671Y-102798486D01*
X142502702Y-102726903D01*
X141689605Y-103540000D01*
X141330395Y-103540000D01*
X140517298Y-102726903D01*
X140273329Y-102798486D01*
X140152429Y-103053996D01*
X140083700Y-103328184D01*
X140069783Y-103610512D01*
X138255400Y-103610512D01*
X138255400Y-100607822D01*
X138259076Y-100570499D01*
X138255400Y-100533176D01*
X138255400Y-100533167D01*
X138244403Y-100421514D01*
X138223673Y-100353175D01*
X138267800Y-100397302D01*
X138267800Y-100397302D01*
G37*
X138267800Y-100397302D02*
X138291599Y-100426301D01*
X138407324Y-100521274D01*
X138539353Y-100591846D01*
X138682614Y-100635303D01*
X138775525Y-100644454D01*
X138831600Y-100649977D01*
X138868933Y-100646300D01*
X140125199Y-100646300D01*
X140075000Y-100898665D01*
X140075000Y-101181335D01*
X140130147Y-101458574D01*
X140238320Y-101719727D01*
X140395363Y-101954759D01*
X140595241Y-102154637D01*
X140795869Y-102288692D01*
X140768486Y-102303329D01*
X140696903Y-102547298D01*
X141510000Y-103360395D01*
X142323097Y-102547298D01*
X142251514Y-102303329D01*
X142222659Y-102289676D01*
X142424759Y-102154637D01*
X142624637Y-101954759D01*
X142781680Y-101719727D01*
X142889853Y-101458574D01*
X142945000Y-101181335D01*
X142945000Y-100898665D01*
X142894801Y-100646300D01*
X143296422Y-100646300D01*
X143177818Y-100868192D01*
X143095764Y-101138691D01*
X143068057Y-101420000D01*
X143095764Y-101701309D01*
X143177818Y-101971808D01*
X143311068Y-102221101D01*
X143490392Y-102439608D01*
X143575001Y-102509045D01*
X143575000Y-105652710D01*
X141001336Y-108226375D01*
X140965657Y-108255656D01*
X140848815Y-108398028D01*
X140769870Y-108545725D01*
X140761994Y-108560460D01*
X140708529Y-108736709D01*
X140690476Y-108920000D01*
X140695001Y-108965942D01*
X140695000Y-112655604D01*
X140515363Y-112835241D01*
X140358320Y-113070273D01*
X140250147Y-113331426D01*
X140195000Y-113608665D01*
X140195000Y-113891335D01*
X140250147Y-114168574D01*
X140358320Y-114429727D01*
X140515363Y-114664759D01*
X140715241Y-114864637D01*
X140915869Y-114998692D01*
X140888486Y-115013329D01*
X140816903Y-115257298D01*
X141630000Y-116070395D01*
X142443097Y-115257298D01*
X142371514Y-115013329D01*
X142342659Y-114999676D01*
X142544759Y-114864637D01*
X142744637Y-114664759D01*
X142901680Y-114429727D01*
X143009853Y-114168574D01*
X143065000Y-113891335D01*
X143065000Y-113608665D01*
X143009853Y-113331426D01*
X142901680Y-113070273D01*
X142744637Y-112835241D01*
X142565000Y-112655604D01*
X142565000Y-109307289D01*
X143071928Y-108800361D01*
X143071928Y-109840000D01*
X143084188Y-109964482D01*
X143120498Y-110084180D01*
X143179463Y-110194494D01*
X143258815Y-110291185D01*
X143355506Y-110370537D01*
X143465820Y-110429502D01*
X143585518Y-110465812D01*
X143710000Y-110478072D01*
X145310000Y-110478072D01*
X145434482Y-110465812D01*
X145554180Y-110429502D01*
X145664494Y-110370537D01*
X145761185Y-110291185D01*
X145840537Y-110194494D01*
X145899502Y-110084180D01*
X145935812Y-109964482D01*
X145937581Y-109946518D01*
X146030392Y-110059608D01*
X146248899Y-110238932D01*
X146498192Y-110372182D01*
X146768691Y-110454236D01*
X146979508Y-110475000D01*
X147120492Y-110475000D01*
X147331309Y-110454236D01*
X147601808Y-110372182D01*
X147851101Y-110238932D01*
X148069608Y-110059608D01*
X148248932Y-109841101D01*
X148320000Y-109708142D01*
X148391068Y-109841101D01*
X148570392Y-110059608D01*
X148788899Y-110238932D01*
X149038192Y-110372182D01*
X149308691Y-110454236D01*
X149519508Y-110475000D01*
X149660492Y-110475000D01*
X149871309Y-110454236D01*
X150011403Y-110411739D01*
X150101563Y-110546674D01*
X150145501Y-110590612D01*
X150145501Y-112764321D01*
X150059039Y-112738096D01*
X149837000Y-112860085D01*
X149837000Y-114003000D01*
X149857000Y-114003000D01*
X149857000Y-114257000D01*
X149837000Y-114257000D01*
X149837000Y-115399915D01*
X150059039Y-115521904D01*
X150145500Y-115495679D01*
X150145500Y-119114398D01*
X149198998Y-120060901D01*
X149170000Y-120084699D01*
X149146202Y-120113697D01*
X149146201Y-120113698D01*
X149075026Y-120200424D01*
X149004454Y-120332454D01*
X148975577Y-120427653D01*
X148960998Y-120475714D01*
X148956059Y-120525860D01*
X148908899Y-120551068D01*
X148690392Y-120730392D01*
X148511068Y-120948899D01*
X148440000Y-121081858D01*
X148368932Y-120948899D01*
X148189608Y-120730392D01*
X147971101Y-120551068D01*
X147721808Y-120417818D01*
X147451309Y-120335764D01*
X147240492Y-120315000D01*
X147099508Y-120315000D01*
X146888691Y-120335764D01*
X146618192Y-120417818D01*
X146368899Y-120551068D01*
X146150392Y-120730392D01*
X146057581Y-120843482D01*
X146055812Y-120825518D01*
X146019502Y-120705820D01*
X145960537Y-120595506D01*
X145881185Y-120498815D01*
X145784494Y-120419463D01*
X145674180Y-120360498D01*
X145554482Y-120324188D01*
X145430000Y-120311928D01*
X143830000Y-120311928D01*
X143705518Y-120324188D01*
X143614600Y-120351768D01*
X143614600Y-117767989D01*
X145258664Y-116123926D01*
X145294344Y-116094644D01*
X145411186Y-115952272D01*
X145498007Y-115789840D01*
X145551471Y-115613592D01*
X145561823Y-115508486D01*
X145569524Y-115430301D01*
X145565000Y-115384369D01*
X145565000Y-115219044D01*
X145649608Y-115149608D01*
X145828932Y-114931101D01*
X145902579Y-114793318D01*
X146017615Y-114985131D01*
X146206586Y-115193519D01*
X146432580Y-115361037D01*
X146686913Y-115481246D01*
X146820961Y-115521904D01*
X147043000Y-115399915D01*
X147043000Y-114257000D01*
X147297000Y-114257000D01*
X147297000Y-115399915D01*
X147519039Y-115521904D01*
X147653087Y-115481246D01*
X147907420Y-115361037D01*
X148133414Y-115193519D01*
X148322385Y-114985131D01*
X148440000Y-114789018D01*
X148557615Y-114985131D01*
X148746586Y-115193519D01*
X148972580Y-115361037D01*
X149226913Y-115481246D01*
X149360961Y-115521904D01*
X149583000Y-115399915D01*
X149583000Y-114257000D01*
X147297000Y-114257000D01*
X147043000Y-114257000D01*
X147023000Y-114257000D01*
X147023000Y-114003000D01*
X147043000Y-114003000D01*
X147043000Y-112860085D01*
X147297000Y-112860085D01*
X147297000Y-114003000D01*
X149583000Y-114003000D01*
X149583000Y-112860085D01*
X149360961Y-112738096D01*
X149226913Y-112778754D01*
X148972580Y-112898963D01*
X148746586Y-113066481D01*
X148557615Y-113274869D01*
X148440000Y-113470982D01*
X148322385Y-113274869D01*
X148133414Y-113066481D01*
X147907420Y-112898963D01*
X147653087Y-112778754D01*
X147519039Y-112738096D01*
X147297000Y-112860085D01*
X147043000Y-112860085D01*
X146820961Y-112738096D01*
X146686913Y-112778754D01*
X146432580Y-112898963D01*
X146206586Y-113066481D01*
X146017615Y-113274869D01*
X145902579Y-113466682D01*
X145828932Y-113328899D01*
X145649608Y-113110392D01*
X145431101Y-112931068D01*
X145181808Y-112797818D01*
X144911309Y-112715764D01*
X144700492Y-112695000D01*
X144559508Y-112695000D01*
X144348691Y-112715764D01*
X144078192Y-112797818D01*
X143828899Y-112931068D01*
X143610392Y-113110392D01*
X143431068Y-113328899D01*
X143297818Y-113578192D01*
X143215764Y-113848691D01*
X143188057Y-114130000D01*
X143215764Y-114411309D01*
X143297818Y-114681808D01*
X143431068Y-114931101D01*
X143600480Y-115137530D01*
X142978568Y-115759443D01*
X142933603Y-115633708D01*
X142866671Y-115508486D01*
X142622702Y-115436903D01*
X141809605Y-116250000D01*
X141823748Y-116264143D01*
X141644143Y-116443748D01*
X141630000Y-116429605D01*
X140816903Y-117242702D01*
X140888486Y-117486671D01*
X141143996Y-117607571D01*
X141418184Y-117676300D01*
X141700512Y-117690217D01*
X141744600Y-117683685D01*
X141744601Y-130561928D01*
X140200000Y-130561928D01*
X140075518Y-130574188D01*
X139955820Y-130610498D01*
X139845506Y-130669463D01*
X139748815Y-130748815D01*
X139669463Y-130845506D01*
X139610498Y-130955820D01*
X139574188Y-131075518D01*
X139561928Y-131200000D01*
X139561928Y-131207215D01*
X139492702Y-131186903D01*
X138679605Y-132000000D01*
X139492702Y-132813097D01*
X139561928Y-132792785D01*
X139561928Y-132800000D01*
X139574188Y-132924482D01*
X139610498Y-133044180D01*
X139669463Y-133154494D01*
X139748815Y-133251185D01*
X139845506Y-133330537D01*
X139955820Y-133389502D01*
X140075518Y-133425812D01*
X140200000Y-133438072D01*
X141685000Y-133438072D01*
X141685001Y-140063768D01*
X141685001Y-140306274D01*
X141564866Y-140404866D01*
X141379294Y-140630986D01*
X141350000Y-140685791D01*
X141320706Y-140630986D01*
X141135134Y-140404866D01*
X140909014Y-140219294D01*
X140651034Y-140081401D01*
X140371111Y-139996487D01*
X140152950Y-139975000D01*
X140007050Y-139975000D01*
X139788889Y-139996487D01*
X139508966Y-140081401D01*
X139250986Y-140219294D01*
X139024866Y-140404866D01*
X138839294Y-140630986D01*
X138810000Y-140685791D01*
X138780706Y-140630986D01*
X138595134Y-140404866D01*
X138369014Y-140219294D01*
X138111034Y-140081401D01*
X137831111Y-139996487D01*
X137612950Y-139975000D01*
X137467050Y-139975000D01*
X137248889Y-139996487D01*
X137061400Y-140053361D01*
X137061400Y-132992702D01*
X137686903Y-132992702D01*
X137758486Y-133236671D01*
X138013996Y-133357571D01*
X138288184Y-133426300D01*
X138570512Y-133440217D01*
X138850130Y-133398787D01*
X139116292Y-133303603D01*
X139241514Y-133236671D01*
X139313097Y-132992702D01*
X138500000Y-132179605D01*
X137686903Y-132992702D01*
X137061400Y-132992702D01*
X137061400Y-132891401D01*
X137245202Y-132707600D01*
X137263329Y-132741514D01*
X137507298Y-132813097D01*
X138320395Y-132000000D01*
X138306253Y-131985858D01*
X138485858Y-131806253D01*
X138500000Y-131820395D01*
X139313097Y-131007298D01*
X139241514Y-130763329D01*
X138986004Y-130642429D01*
X138711816Y-130573700D01*
X138429488Y-130559783D01*
X138255400Y-130585577D01*
X138255400Y-116320512D01*
X140189783Y-116320512D01*
X140231213Y-116600130D01*
X140326397Y-116866292D01*
X140393329Y-116991514D01*
X140637298Y-117063097D01*
X141450395Y-116250000D01*
X140637298Y-115436903D01*
X140393329Y-115508486D01*
X140272429Y-115763996D01*
X140203700Y-116038184D01*
X140189783Y-116320512D01*
X138255400Y-116320512D01*
X138255400Y-104532702D01*
X140696903Y-104532702D01*
X140768486Y-104776671D01*
X141023996Y-104897571D01*
X141298184Y-104966300D01*
X141580512Y-104980217D01*
X141860130Y-104938787D01*
X142126292Y-104843603D01*
X142251514Y-104776671D01*
X142323097Y-104532702D01*
X141510000Y-103719605D01*
X140696903Y-104532702D01*
X138255400Y-104532702D01*
X138255400Y-103610512D01*
X140069783Y-103610512D01*
X140111213Y-103890130D01*
X140206397Y-104156292D01*
X140273329Y-104281514D01*
X140517298Y-104353097D01*
X141330395Y-103540000D01*
X141689605Y-103540000D01*
X142502702Y-104353097D01*
X142746671Y-104281514D01*
X142867571Y-104026004D01*
X142936300Y-103751816D01*
X142950217Y-103469488D01*
X142908787Y-103189870D01*
X142813603Y-102923708D01*
X142746671Y-102798486D01*
X142502702Y-102726903D01*
X141689605Y-103540000D01*
X141330395Y-103540000D01*
X140517298Y-102726903D01*
X140273329Y-102798486D01*
X140152429Y-103053996D01*
X140083700Y-103328184D01*
X140069783Y-103610512D01*
X138255400Y-103610512D01*
X138255400Y-100607822D01*
X138259076Y-100570499D01*
X138255400Y-100533176D01*
X138255400Y-100533167D01*
X138244403Y-100421514D01*
X138223673Y-100353175D01*
X138267800Y-100397302D01*
G36*
X178230986Y-91240706D02*
G01*
X178488966Y-91378599D01*
X178768889Y-91463513D01*
X178987050Y-91485000D01*
X179132950Y-91485000D01*
X179336329Y-91464969D01*
X170918603Y-99882696D01*
X170889599Y-99906499D01*
X170847255Y-99958096D01*
X170794626Y-100022224D01*
X170773610Y-100061542D01*
X170691808Y-100017818D01*
X170421309Y-99935764D01*
X170210492Y-99915000D01*
X170069508Y-99915000D01*
X169858691Y-99935764D01*
X169588192Y-100017818D01*
X169338899Y-100151068D01*
X169120392Y-100330392D01*
X168941068Y-100548899D01*
X168807818Y-100798192D01*
X168725764Y-101068691D01*
X168698057Y-101350000D01*
X168725764Y-101631309D01*
X168807818Y-101901808D01*
X168941068Y-102151101D01*
X169120392Y-102369608D01*
X169205001Y-102439045D01*
X169205000Y-105582710D01*
X166631336Y-108156375D01*
X166595657Y-108185656D01*
X166478815Y-108328028D01*
X166403798Y-108468376D01*
X166391994Y-108490460D01*
X166338529Y-108666709D01*
X166320476Y-108850000D01*
X166325001Y-108895942D01*
X166325000Y-112585604D01*
X166145363Y-112765241D01*
X165988320Y-113000273D01*
X165880147Y-113261426D01*
X165825000Y-113538665D01*
X165825000Y-113821335D01*
X165880147Y-114098574D01*
X165988320Y-114359727D01*
X166145363Y-114594759D01*
X166345241Y-114794637D01*
X166545869Y-114928692D01*
X166518486Y-114943329D01*
X166446903Y-115187298D01*
X167260000Y-116000395D01*
X168073097Y-115187298D01*
X168001514Y-114943329D01*
X167972659Y-114929676D01*
X168174759Y-114794637D01*
X168374637Y-114594759D01*
X168531680Y-114359727D01*
X168639853Y-114098574D01*
X168695000Y-113821335D01*
X168695000Y-113538665D01*
X168639853Y-113261426D01*
X168531680Y-113000273D01*
X168374637Y-112765241D01*
X168195000Y-112585604D01*
X168195000Y-109237289D01*
X168701928Y-108730361D01*
X168701928Y-109770000D01*
X168714188Y-109894482D01*
X168750498Y-110014180D01*
X168809463Y-110124494D01*
X168888815Y-110221185D01*
X168985506Y-110300537D01*
X169095820Y-110359502D01*
X169215518Y-110395812D01*
X169340000Y-110408072D01*
X170669601Y-110408072D01*
X170669601Y-112684680D01*
X170541309Y-112645764D01*
X170330492Y-112625000D01*
X170189508Y-112625000D01*
X169978691Y-112645764D01*
X169708192Y-112727818D01*
X169458899Y-112861068D01*
X169240392Y-113040392D01*
X169061068Y-113258899D01*
X168927818Y-113508192D01*
X168845764Y-113778691D01*
X168818057Y-114060000D01*
X168845764Y-114341309D01*
X168927818Y-114611808D01*
X169061068Y-114861101D01*
X169230480Y-115067531D01*
X168608568Y-115689443D01*
X168563603Y-115563708D01*
X168496671Y-115438486D01*
X168252702Y-115366903D01*
X167439605Y-116180000D01*
X167453748Y-116194143D01*
X167274143Y-116373748D01*
X167260000Y-116359605D01*
X166446903Y-117172702D01*
X166518486Y-117416671D01*
X166764794Y-117533217D01*
X166536336Y-117761675D01*
X166500657Y-117790956D01*
X166383815Y-117933328D01*
X166300876Y-118088498D01*
X166296994Y-118095760D01*
X166243529Y-118272009D01*
X166225476Y-118455300D01*
X166230001Y-118501242D01*
X166230000Y-124640604D01*
X166050363Y-124820241D01*
X165893320Y-125055273D01*
X165785147Y-125316426D01*
X165730000Y-125593665D01*
X165730000Y-125876335D01*
X165785147Y-126153574D01*
X165893320Y-126414727D01*
X166050363Y-126649759D01*
X166250241Y-126849637D01*
X166450869Y-126983692D01*
X166423486Y-126998329D01*
X166351903Y-127242298D01*
X167165000Y-128055395D01*
X167179143Y-128041253D01*
X167358748Y-128220858D01*
X167344605Y-128235000D01*
X167358748Y-128249143D01*
X167179143Y-128428748D01*
X167165000Y-128414605D01*
X166351903Y-129227702D01*
X166423486Y-129471671D01*
X166678996Y-129592571D01*
X166953184Y-129661300D01*
X167235512Y-129675217D01*
X167515130Y-129633787D01*
X167781292Y-129538603D01*
X167878001Y-129486912D01*
X167878001Y-136811896D01*
X165046900Y-139642999D01*
X165046900Y-137070533D01*
X165050577Y-137033200D01*
X165035903Y-136884214D01*
X164992446Y-136740953D01*
X164921874Y-136608924D01*
X164850699Y-136522197D01*
X164826901Y-136493199D01*
X164797903Y-136469401D01*
X159829100Y-131500599D01*
X159829100Y-131410000D01*
X161278057Y-131410000D01*
X161305764Y-131691309D01*
X161387818Y-131961808D01*
X161521068Y-132211101D01*
X161700392Y-132429608D01*
X161918899Y-132608932D01*
X162168192Y-132742182D01*
X162438691Y-132824236D01*
X162649508Y-132845000D01*
X162790492Y-132845000D01*
X163001309Y-132824236D01*
X163271808Y-132742182D01*
X163521101Y-132608932D01*
X163739608Y-132429608D01*
X163918932Y-132211101D01*
X164052182Y-131961808D01*
X164134236Y-131691309D01*
X164161943Y-131410000D01*
X164134236Y-131128691D01*
X164052182Y-130858192D01*
X163918932Y-130608899D01*
X163739608Y-130390392D01*
X163521101Y-130211068D01*
X163271808Y-130077818D01*
X163001309Y-129995764D01*
X162790492Y-129975000D01*
X162649508Y-129975000D01*
X162438691Y-129995764D01*
X162168192Y-130077818D01*
X161918899Y-130211068D01*
X161700392Y-130390392D01*
X161521068Y-130608899D01*
X161387818Y-130858192D01*
X161305764Y-131128691D01*
X161278057Y-131410000D01*
X159829100Y-131410000D01*
X159829100Y-126965000D01*
X161278057Y-126965000D01*
X161305764Y-127246309D01*
X161387818Y-127516808D01*
X161521068Y-127766101D01*
X161700392Y-127984608D01*
X161918899Y-128163932D01*
X162168192Y-128297182D01*
X162438691Y-128379236D01*
X162649508Y-128400000D01*
X162790492Y-128400000D01*
X163001309Y-128379236D01*
X163244347Y-128305512D01*
X165724783Y-128305512D01*
X165766213Y-128585130D01*
X165861397Y-128851292D01*
X165928329Y-128976514D01*
X166172298Y-129048097D01*
X166985395Y-128235000D01*
X166172298Y-127421903D01*
X165928329Y-127493486D01*
X165807429Y-127748996D01*
X165738700Y-128023184D01*
X165724783Y-128305512D01*
X163244347Y-128305512D01*
X163271808Y-128297182D01*
X163521101Y-128163932D01*
X163739608Y-127984608D01*
X163918932Y-127766101D01*
X164052182Y-127516808D01*
X164134236Y-127246309D01*
X164161943Y-126965000D01*
X164134236Y-126683691D01*
X164052182Y-126413192D01*
X163918932Y-126163899D01*
X163739608Y-125945392D01*
X163521101Y-125766068D01*
X163271808Y-125632818D01*
X163001309Y-125550764D01*
X162790492Y-125530000D01*
X162649508Y-125530000D01*
X162438691Y-125550764D01*
X162168192Y-125632818D01*
X161918899Y-125766068D01*
X161700392Y-125945392D01*
X161521068Y-126163899D01*
X161387818Y-126413192D01*
X161305764Y-126683691D01*
X161278057Y-126965000D01*
X159829100Y-126965000D01*
X159829100Y-123641711D01*
X159873037Y-123597774D01*
X159986305Y-123428256D01*
X160064326Y-123239898D01*
X160097140Y-123074932D01*
X160219039Y-123141904D01*
X160353087Y-123101246D01*
X160607420Y-122981037D01*
X160833414Y-122813519D01*
X161022385Y-122605131D01*
X161167070Y-122363881D01*
X161261909Y-122099040D01*
X161140624Y-121877000D01*
X159997000Y-121877000D01*
X159997000Y-121897000D01*
X159743000Y-121897000D01*
X159743000Y-121877000D01*
X159723000Y-121877000D01*
X159723000Y-121623000D01*
X159743000Y-121623000D01*
X159743000Y-120480085D01*
X159997000Y-120480085D01*
X159997000Y-121623000D01*
X161140624Y-121623000D01*
X161261909Y-121400960D01*
X161167070Y-121136119D01*
X161022385Y-120894869D01*
X160833414Y-120686481D01*
X160607420Y-120518963D01*
X160353087Y-120398754D01*
X160219039Y-120358096D01*
X159997000Y-120480085D01*
X159743000Y-120480085D01*
X159602634Y-120402967D01*
X161506304Y-118499298D01*
X161535301Y-118475501D01*
X161630274Y-118359776D01*
X161700846Y-118227747D01*
X161744303Y-118084486D01*
X161755300Y-117972833D01*
X161755300Y-117972824D01*
X161758976Y-117935501D01*
X161755300Y-117898178D01*
X161755300Y-116250512D01*
X165819783Y-116250512D01*
X165861213Y-116530130D01*
X165956397Y-116796292D01*
X166023329Y-116921514D01*
X166267298Y-116993097D01*
X167080395Y-116180000D01*
X166267298Y-115366903D01*
X166023329Y-115438486D01*
X165902429Y-115693996D01*
X165833700Y-115968184D01*
X165819783Y-116250512D01*
X161755300Y-116250512D01*
X161755300Y-110366851D01*
X161806913Y-110391246D01*
X161940961Y-110431904D01*
X162163000Y-110309915D01*
X162163000Y-109167000D01*
X162417000Y-109167000D01*
X162417000Y-110309915D01*
X162639039Y-110431904D01*
X162773087Y-110391246D01*
X163027420Y-110271037D01*
X163253414Y-110103519D01*
X163442385Y-109895131D01*
X163587070Y-109653881D01*
X163681909Y-109389040D01*
X163560624Y-109167000D01*
X162417000Y-109167000D01*
X162163000Y-109167000D01*
X162143000Y-109167000D01*
X162143000Y-108913000D01*
X162163000Y-108913000D01*
X162163000Y-107770085D01*
X162417000Y-107770085D01*
X162417000Y-108913000D01*
X163560624Y-108913000D01*
X163681909Y-108690960D01*
X163587070Y-108426119D01*
X163442385Y-108184869D01*
X163253414Y-107976481D01*
X163027420Y-107808963D01*
X162773087Y-107688754D01*
X162639039Y-107648096D01*
X162417000Y-107770085D01*
X162163000Y-107770085D01*
X161940961Y-107648096D01*
X161806913Y-107688754D01*
X161755300Y-107713149D01*
X161755300Y-105775601D01*
X163068199Y-104462702D01*
X166326903Y-104462702D01*
X166398486Y-104706671D01*
X166653996Y-104827571D01*
X166928184Y-104896300D01*
X167210512Y-104910217D01*
X167490130Y-104868787D01*
X167756292Y-104773603D01*
X167881514Y-104706671D01*
X167953097Y-104462702D01*
X167140000Y-103649605D01*
X166326903Y-104462702D01*
X163068199Y-104462702D01*
X163990389Y-103540512D01*
X165699783Y-103540512D01*
X165741213Y-103820130D01*
X165836397Y-104086292D01*
X165903329Y-104211514D01*
X166147298Y-104283097D01*
X166960395Y-103470000D01*
X167319605Y-103470000D01*
X168132702Y-104283097D01*
X168376671Y-104211514D01*
X168497571Y-103956004D01*
X168566300Y-103681816D01*
X168580217Y-103399488D01*
X168538787Y-103119870D01*
X168443603Y-102853708D01*
X168376671Y-102728486D01*
X168132702Y-102656903D01*
X167319605Y-103470000D01*
X166960395Y-103470000D01*
X166147298Y-102656903D01*
X165903329Y-102728486D01*
X165782429Y-102983996D01*
X165713700Y-103258184D01*
X165699783Y-103540512D01*
X163990389Y-103540512D01*
X165873469Y-101657433D01*
X166025363Y-101884759D01*
X166225241Y-102084637D01*
X166425869Y-102218692D01*
X166398486Y-102233329D01*
X166326903Y-102477298D01*
X167140000Y-103290395D01*
X167953097Y-102477298D01*
X167881514Y-102233329D01*
X167852659Y-102219676D01*
X168054759Y-102084637D01*
X168254637Y-101884759D01*
X168411680Y-101649727D01*
X168519853Y-101388574D01*
X168575000Y-101111335D01*
X168575000Y-100828665D01*
X168519853Y-100551426D01*
X168411680Y-100290273D01*
X168254637Y-100055241D01*
X168054759Y-99855363D01*
X167827433Y-99703469D01*
X175595602Y-91935300D01*
X177039478Y-91935300D01*
X177076800Y-91938976D01*
X177114122Y-91935300D01*
X177114133Y-91935300D01*
X177225786Y-91924303D01*
X177369047Y-91880846D01*
X177501076Y-91810274D01*
X177616801Y-91715301D01*
X177640603Y-91686298D01*
X178151461Y-91175441D01*
X178230986Y-91240706D01*
X178230986Y-91240706D01*
G37*
X178230986Y-91240706D02*
X178488966Y-91378599D01*
X178768889Y-91463513D01*
X178987050Y-91485000D01*
X179132950Y-91485000D01*
X179336329Y-91464969D01*
X170918603Y-99882696D01*
X170889599Y-99906499D01*
X170847255Y-99958096D01*
X170794626Y-100022224D01*
X170773610Y-100061542D01*
X170691808Y-100017818D01*
X170421309Y-99935764D01*
X170210492Y-99915000D01*
X170069508Y-99915000D01*
X169858691Y-99935764D01*
X169588192Y-100017818D01*
X169338899Y-100151068D01*
X169120392Y-100330392D01*
X168941068Y-100548899D01*
X168807818Y-100798192D01*
X168725764Y-101068691D01*
X168698057Y-101350000D01*
X168725764Y-101631309D01*
X168807818Y-101901808D01*
X168941068Y-102151101D01*
X169120392Y-102369608D01*
X169205001Y-102439045D01*
X169205000Y-105582710D01*
X166631336Y-108156375D01*
X166595657Y-108185656D01*
X166478815Y-108328028D01*
X166403798Y-108468376D01*
X166391994Y-108490460D01*
X166338529Y-108666709D01*
X166320476Y-108850000D01*
X166325001Y-108895942D01*
X166325000Y-112585604D01*
X166145363Y-112765241D01*
X165988320Y-113000273D01*
X165880147Y-113261426D01*
X165825000Y-113538665D01*
X165825000Y-113821335D01*
X165880147Y-114098574D01*
X165988320Y-114359727D01*
X166145363Y-114594759D01*
X166345241Y-114794637D01*
X166545869Y-114928692D01*
X166518486Y-114943329D01*
X166446903Y-115187298D01*
X167260000Y-116000395D01*
X168073097Y-115187298D01*
X168001514Y-114943329D01*
X167972659Y-114929676D01*
X168174759Y-114794637D01*
X168374637Y-114594759D01*
X168531680Y-114359727D01*
X168639853Y-114098574D01*
X168695000Y-113821335D01*
X168695000Y-113538665D01*
X168639853Y-113261426D01*
X168531680Y-113000273D01*
X168374637Y-112765241D01*
X168195000Y-112585604D01*
X168195000Y-109237289D01*
X168701928Y-108730361D01*
X168701928Y-109770000D01*
X168714188Y-109894482D01*
X168750498Y-110014180D01*
X168809463Y-110124494D01*
X168888815Y-110221185D01*
X168985506Y-110300537D01*
X169095820Y-110359502D01*
X169215518Y-110395812D01*
X169340000Y-110408072D01*
X170669601Y-110408072D01*
X170669601Y-112684680D01*
X170541309Y-112645764D01*
X170330492Y-112625000D01*
X170189508Y-112625000D01*
X169978691Y-112645764D01*
X169708192Y-112727818D01*
X169458899Y-112861068D01*
X169240392Y-113040392D01*
X169061068Y-113258899D01*
X168927818Y-113508192D01*
X168845764Y-113778691D01*
X168818057Y-114060000D01*
X168845764Y-114341309D01*
X168927818Y-114611808D01*
X169061068Y-114861101D01*
X169230480Y-115067531D01*
X168608568Y-115689443D01*
X168563603Y-115563708D01*
X168496671Y-115438486D01*
X168252702Y-115366903D01*
X167439605Y-116180000D01*
X167453748Y-116194143D01*
X167274143Y-116373748D01*
X167260000Y-116359605D01*
X166446903Y-117172702D01*
X166518486Y-117416671D01*
X166764794Y-117533217D01*
X166536336Y-117761675D01*
X166500657Y-117790956D01*
X166383815Y-117933328D01*
X166300876Y-118088498D01*
X166296994Y-118095760D01*
X166243529Y-118272009D01*
X166225476Y-118455300D01*
X166230001Y-118501242D01*
X166230000Y-124640604D01*
X166050363Y-124820241D01*
X165893320Y-125055273D01*
X165785147Y-125316426D01*
X165730000Y-125593665D01*
X165730000Y-125876335D01*
X165785147Y-126153574D01*
X165893320Y-126414727D01*
X166050363Y-126649759D01*
X166250241Y-126849637D01*
X166450869Y-126983692D01*
X166423486Y-126998329D01*
X166351903Y-127242298D01*
X167165000Y-128055395D01*
X167179143Y-128041253D01*
X167358748Y-128220858D01*
X167344605Y-128235000D01*
X167358748Y-128249143D01*
X167179143Y-128428748D01*
X167165000Y-128414605D01*
X166351903Y-129227702D01*
X166423486Y-129471671D01*
X166678996Y-129592571D01*
X166953184Y-129661300D01*
X167235512Y-129675217D01*
X167515130Y-129633787D01*
X167781292Y-129538603D01*
X167878001Y-129486912D01*
X167878001Y-136811896D01*
X165046900Y-139642999D01*
X165046900Y-137070533D01*
X165050577Y-137033200D01*
X165035903Y-136884214D01*
X164992446Y-136740953D01*
X164921874Y-136608924D01*
X164850699Y-136522197D01*
X164826901Y-136493199D01*
X164797903Y-136469401D01*
X159829100Y-131500599D01*
X159829100Y-131410000D01*
X161278057Y-131410000D01*
X161305764Y-131691309D01*
X161387818Y-131961808D01*
X161521068Y-132211101D01*
X161700392Y-132429608D01*
X161918899Y-132608932D01*
X162168192Y-132742182D01*
X162438691Y-132824236D01*
X162649508Y-132845000D01*
X162790492Y-132845000D01*
X163001309Y-132824236D01*
X163271808Y-132742182D01*
X163521101Y-132608932D01*
X163739608Y-132429608D01*
X163918932Y-132211101D01*
X164052182Y-131961808D01*
X164134236Y-131691309D01*
X164161943Y-131410000D01*
X164134236Y-131128691D01*
X164052182Y-130858192D01*
X163918932Y-130608899D01*
X163739608Y-130390392D01*
X163521101Y-130211068D01*
X163271808Y-130077818D01*
X163001309Y-129995764D01*
X162790492Y-129975000D01*
X162649508Y-129975000D01*
X162438691Y-129995764D01*
X162168192Y-130077818D01*
X161918899Y-130211068D01*
X161700392Y-130390392D01*
X161521068Y-130608899D01*
X161387818Y-130858192D01*
X161305764Y-131128691D01*
X161278057Y-131410000D01*
X159829100Y-131410000D01*
X159829100Y-126965000D01*
X161278057Y-126965000D01*
X161305764Y-127246309D01*
X161387818Y-127516808D01*
X161521068Y-127766101D01*
X161700392Y-127984608D01*
X161918899Y-128163932D01*
X162168192Y-128297182D01*
X162438691Y-128379236D01*
X162649508Y-128400000D01*
X162790492Y-128400000D01*
X163001309Y-128379236D01*
X163244347Y-128305512D01*
X165724783Y-128305512D01*
X165766213Y-128585130D01*
X165861397Y-128851292D01*
X165928329Y-128976514D01*
X166172298Y-129048097D01*
X166985395Y-128235000D01*
X166172298Y-127421903D01*
X165928329Y-127493486D01*
X165807429Y-127748996D01*
X165738700Y-128023184D01*
X165724783Y-128305512D01*
X163244347Y-128305512D01*
X163271808Y-128297182D01*
X163521101Y-128163932D01*
X163739608Y-127984608D01*
X163918932Y-127766101D01*
X164052182Y-127516808D01*
X164134236Y-127246309D01*
X164161943Y-126965000D01*
X164134236Y-126683691D01*
X164052182Y-126413192D01*
X163918932Y-126163899D01*
X163739608Y-125945392D01*
X163521101Y-125766068D01*
X163271808Y-125632818D01*
X163001309Y-125550764D01*
X162790492Y-125530000D01*
X162649508Y-125530000D01*
X162438691Y-125550764D01*
X162168192Y-125632818D01*
X161918899Y-125766068D01*
X161700392Y-125945392D01*
X161521068Y-126163899D01*
X161387818Y-126413192D01*
X161305764Y-126683691D01*
X161278057Y-126965000D01*
X159829100Y-126965000D01*
X159829100Y-123641711D01*
X159873037Y-123597774D01*
X159986305Y-123428256D01*
X160064326Y-123239898D01*
X160097140Y-123074932D01*
X160219039Y-123141904D01*
X160353087Y-123101246D01*
X160607420Y-122981037D01*
X160833414Y-122813519D01*
X161022385Y-122605131D01*
X161167070Y-122363881D01*
X161261909Y-122099040D01*
X161140624Y-121877000D01*
X159997000Y-121877000D01*
X159997000Y-121897000D01*
X159743000Y-121897000D01*
X159743000Y-121877000D01*
X159723000Y-121877000D01*
X159723000Y-121623000D01*
X159743000Y-121623000D01*
X159743000Y-120480085D01*
X159997000Y-120480085D01*
X159997000Y-121623000D01*
X161140624Y-121623000D01*
X161261909Y-121400960D01*
X161167070Y-121136119D01*
X161022385Y-120894869D01*
X160833414Y-120686481D01*
X160607420Y-120518963D01*
X160353087Y-120398754D01*
X160219039Y-120358096D01*
X159997000Y-120480085D01*
X159743000Y-120480085D01*
X159602634Y-120402967D01*
X161506304Y-118499298D01*
X161535301Y-118475501D01*
X161630274Y-118359776D01*
X161700846Y-118227747D01*
X161744303Y-118084486D01*
X161755300Y-117972833D01*
X161755300Y-117972824D01*
X161758976Y-117935501D01*
X161755300Y-117898178D01*
X161755300Y-116250512D01*
X165819783Y-116250512D01*
X165861213Y-116530130D01*
X165956397Y-116796292D01*
X166023329Y-116921514D01*
X166267298Y-116993097D01*
X167080395Y-116180000D01*
X166267298Y-115366903D01*
X166023329Y-115438486D01*
X165902429Y-115693996D01*
X165833700Y-115968184D01*
X165819783Y-116250512D01*
X161755300Y-116250512D01*
X161755300Y-110366851D01*
X161806913Y-110391246D01*
X161940961Y-110431904D01*
X162163000Y-110309915D01*
X162163000Y-109167000D01*
X162417000Y-109167000D01*
X162417000Y-110309915D01*
X162639039Y-110431904D01*
X162773087Y-110391246D01*
X163027420Y-110271037D01*
X163253414Y-110103519D01*
X163442385Y-109895131D01*
X163587070Y-109653881D01*
X163681909Y-109389040D01*
X163560624Y-109167000D01*
X162417000Y-109167000D01*
X162163000Y-109167000D01*
X162143000Y-109167000D01*
X162143000Y-108913000D01*
X162163000Y-108913000D01*
X162163000Y-107770085D01*
X162417000Y-107770085D01*
X162417000Y-108913000D01*
X163560624Y-108913000D01*
X163681909Y-108690960D01*
X163587070Y-108426119D01*
X163442385Y-108184869D01*
X163253414Y-107976481D01*
X163027420Y-107808963D01*
X162773087Y-107688754D01*
X162639039Y-107648096D01*
X162417000Y-107770085D01*
X162163000Y-107770085D01*
X161940961Y-107648096D01*
X161806913Y-107688754D01*
X161755300Y-107713149D01*
X161755300Y-105775601D01*
X163068199Y-104462702D01*
X166326903Y-104462702D01*
X166398486Y-104706671D01*
X166653996Y-104827571D01*
X166928184Y-104896300D01*
X167210512Y-104910217D01*
X167490130Y-104868787D01*
X167756292Y-104773603D01*
X167881514Y-104706671D01*
X167953097Y-104462702D01*
X167140000Y-103649605D01*
X166326903Y-104462702D01*
X163068199Y-104462702D01*
X163990389Y-103540512D01*
X165699783Y-103540512D01*
X165741213Y-103820130D01*
X165836397Y-104086292D01*
X165903329Y-104211514D01*
X166147298Y-104283097D01*
X166960395Y-103470000D01*
X167319605Y-103470000D01*
X168132702Y-104283097D01*
X168376671Y-104211514D01*
X168497571Y-103956004D01*
X168566300Y-103681816D01*
X168580217Y-103399488D01*
X168538787Y-103119870D01*
X168443603Y-102853708D01*
X168376671Y-102728486D01*
X168132702Y-102656903D01*
X167319605Y-103470000D01*
X166960395Y-103470000D01*
X166147298Y-102656903D01*
X165903329Y-102728486D01*
X165782429Y-102983996D01*
X165713700Y-103258184D01*
X165699783Y-103540512D01*
X163990389Y-103540512D01*
X165873469Y-101657433D01*
X166025363Y-101884759D01*
X166225241Y-102084637D01*
X166425869Y-102218692D01*
X166398486Y-102233329D01*
X166326903Y-102477298D01*
X167140000Y-103290395D01*
X167953097Y-102477298D01*
X167881514Y-102233329D01*
X167852659Y-102219676D01*
X168054759Y-102084637D01*
X168254637Y-101884759D01*
X168411680Y-101649727D01*
X168519853Y-101388574D01*
X168575000Y-101111335D01*
X168575000Y-100828665D01*
X168519853Y-100551426D01*
X168411680Y-100290273D01*
X168254637Y-100055241D01*
X168054759Y-99855363D01*
X167827433Y-99703469D01*
X175595602Y-91935300D01*
X177039478Y-91935300D01*
X177076800Y-91938976D01*
X177114122Y-91935300D01*
X177114133Y-91935300D01*
X177225786Y-91924303D01*
X177369047Y-91880846D01*
X177501076Y-91810274D01*
X177616801Y-91715301D01*
X177640603Y-91686298D01*
X178151461Y-91175441D01*
X178230986Y-91240706D01*
G36*
X189040147Y-101388574D02*
G01*
X189148320Y-101649727D01*
X189305363Y-101884759D01*
X189505241Y-102084637D01*
X189705869Y-102218692D01*
X189678486Y-102233329D01*
X189606903Y-102477298D01*
X190420000Y-103290395D01*
X190434143Y-103276253D01*
X190613748Y-103455858D01*
X190599605Y-103470000D01*
X190613748Y-103484143D01*
X190434143Y-103663748D01*
X190420000Y-103649605D01*
X189606903Y-104462702D01*
X189678486Y-104706671D01*
X189933996Y-104827571D01*
X190208184Y-104896300D01*
X190490512Y-104910217D01*
X190770130Y-104868787D01*
X190789800Y-104861753D01*
X190789801Y-130952297D01*
X190181000Y-131561098D01*
X190181000Y-120491611D01*
X190224937Y-120447674D01*
X190338205Y-120278156D01*
X190416226Y-120089798D01*
X190456000Y-119889839D01*
X190456000Y-119685961D01*
X190416226Y-119486002D01*
X190338205Y-119297644D01*
X190280500Y-119211282D01*
X190280500Y-107082211D01*
X190324437Y-107038274D01*
X190437705Y-106868756D01*
X190515726Y-106680398D01*
X190555500Y-106480439D01*
X190555500Y-106276561D01*
X190515726Y-106076602D01*
X190437705Y-105888244D01*
X190324437Y-105718726D01*
X190180274Y-105574563D01*
X190010756Y-105461295D01*
X189822398Y-105383274D01*
X189622439Y-105343500D01*
X189418561Y-105343500D01*
X189218602Y-105383274D01*
X189030244Y-105461295D01*
X188860726Y-105574563D01*
X188716563Y-105718726D01*
X188603295Y-105888244D01*
X188525274Y-106076602D01*
X188485500Y-106276561D01*
X188485500Y-106362038D01*
X188390802Y-106380874D01*
X188202444Y-106458895D01*
X188032926Y-106572163D01*
X187888763Y-106716326D01*
X187775495Y-106885844D01*
X187697474Y-107074202D01*
X187657700Y-107274161D01*
X187657700Y-107478039D01*
X187697474Y-107677998D01*
X187775495Y-107866356D01*
X187888763Y-108035874D01*
X187932700Y-108079811D01*
X187932701Y-132155197D01*
X186830099Y-133257799D01*
X186732385Y-133094869D01*
X186543414Y-132886481D01*
X186317420Y-132718963D01*
X186063087Y-132598754D01*
X185929039Y-132558096D01*
X185707000Y-132680085D01*
X185707000Y-133823000D01*
X185727000Y-133823000D01*
X185727000Y-134077000D01*
X185707000Y-134077000D01*
X185707000Y-134097000D01*
X185453000Y-134097000D01*
X185453000Y-134077000D01*
X185433000Y-134077000D01*
X185433000Y-133823000D01*
X185453000Y-133823000D01*
X185453000Y-132680085D01*
X185230961Y-132558096D01*
X185096913Y-132598754D01*
X184929000Y-132678117D01*
X184929000Y-127609163D01*
X185028192Y-127662182D01*
X185298691Y-127744236D01*
X185509508Y-127765000D01*
X185650492Y-127765000D01*
X185861309Y-127744236D01*
X186131808Y-127662182D01*
X186381101Y-127528932D01*
X186599608Y-127349608D01*
X186778932Y-127131101D01*
X186912182Y-126881808D01*
X186994236Y-126611309D01*
X187021943Y-126330000D01*
X186994236Y-126048691D01*
X186912182Y-125778192D01*
X186778932Y-125528899D01*
X186599608Y-125310392D01*
X186381101Y-125131068D01*
X186131808Y-124997818D01*
X185861309Y-124915764D01*
X185650492Y-124895000D01*
X185509508Y-124895000D01*
X185298691Y-124915764D01*
X185028192Y-124997818D01*
X184929000Y-125050837D01*
X184929000Y-122989694D01*
X185016913Y-123031246D01*
X185150961Y-123071904D01*
X185373000Y-122949915D01*
X185373000Y-121807000D01*
X185627000Y-121807000D01*
X185627000Y-122949915D01*
X185849039Y-123071904D01*
X185983087Y-123031246D01*
X186237420Y-122911037D01*
X186463414Y-122743519D01*
X186652385Y-122535131D01*
X186797070Y-122293881D01*
X186891909Y-122029040D01*
X186770624Y-121807000D01*
X185627000Y-121807000D01*
X185373000Y-121807000D01*
X185353000Y-121807000D01*
X185353000Y-121553000D01*
X185373000Y-121553000D01*
X185373000Y-120410085D01*
X185627000Y-120410085D01*
X185627000Y-121553000D01*
X186770624Y-121553000D01*
X186891909Y-121330960D01*
X186797070Y-121066119D01*
X186652385Y-120824869D01*
X186463414Y-120616481D01*
X186237420Y-120448963D01*
X185983087Y-120328754D01*
X185849039Y-120288096D01*
X185627000Y-120410085D01*
X185373000Y-120410085D01*
X185150961Y-120288096D01*
X185016913Y-120328754D01*
X184929000Y-120370306D01*
X184929000Y-115381924D01*
X184948192Y-115392182D01*
X185218691Y-115474236D01*
X185429508Y-115495000D01*
X185570492Y-115495000D01*
X185781309Y-115474236D01*
X186051808Y-115392182D01*
X186301101Y-115258932D01*
X186519608Y-115079608D01*
X186698932Y-114861101D01*
X186832182Y-114611808D01*
X186914236Y-114341309D01*
X186941943Y-114060000D01*
X186914236Y-113778691D01*
X186832182Y-113508192D01*
X186698932Y-113258899D01*
X186519608Y-113040392D01*
X186301101Y-112861068D01*
X186051808Y-112727818D01*
X185781309Y-112645764D01*
X185570492Y-112625000D01*
X185429508Y-112625000D01*
X185218691Y-112645764D01*
X184948192Y-112727818D01*
X184929000Y-112738076D01*
X184929000Y-110330978D01*
X185030961Y-110361904D01*
X185253000Y-110239915D01*
X185253000Y-109097000D01*
X185507000Y-109097000D01*
X185507000Y-110239915D01*
X185729039Y-110361904D01*
X185863087Y-110321246D01*
X186117420Y-110201037D01*
X186343414Y-110033519D01*
X186532385Y-109825131D01*
X186677070Y-109583881D01*
X186771909Y-109319040D01*
X186650624Y-109097000D01*
X185507000Y-109097000D01*
X185253000Y-109097000D01*
X185233000Y-109097000D01*
X185233000Y-108843000D01*
X185253000Y-108843000D01*
X185253000Y-107700085D01*
X185507000Y-107700085D01*
X185507000Y-108843000D01*
X186650624Y-108843000D01*
X186771909Y-108620960D01*
X186677070Y-108356119D01*
X186532385Y-108114869D01*
X186343414Y-107906481D01*
X186117420Y-107738963D01*
X185863087Y-107618754D01*
X185729039Y-107578096D01*
X185507000Y-107700085D01*
X185253000Y-107700085D01*
X185030961Y-107578096D01*
X184929000Y-107609022D01*
X184929000Y-103540512D01*
X188979783Y-103540512D01*
X189021213Y-103820130D01*
X189116397Y-104086292D01*
X189183329Y-104211514D01*
X189427298Y-104283097D01*
X190240395Y-103470000D01*
X189427298Y-102656903D01*
X189183329Y-102728486D01*
X189062429Y-102983996D01*
X188993700Y-103258184D01*
X188979783Y-103540512D01*
X184929000Y-103540512D01*
X184929000Y-102712761D01*
X185098691Y-102764236D01*
X185309508Y-102785000D01*
X185450492Y-102785000D01*
X185661309Y-102764236D01*
X185931808Y-102682182D01*
X186181101Y-102548932D01*
X186399608Y-102369608D01*
X186578932Y-102151101D01*
X186600901Y-102110000D01*
X187853678Y-102110000D01*
X187891000Y-102113676D01*
X187928322Y-102110000D01*
X187928333Y-102110000D01*
X188039986Y-102099003D01*
X188183247Y-102055546D01*
X188315276Y-101984974D01*
X188431001Y-101890001D01*
X188454804Y-101860997D01*
X189021412Y-101294389D01*
X189040147Y-101388574D01*
X189040147Y-101388574D01*
G37*
X189040147Y-101388574D02*
X189148320Y-101649727D01*
X189305363Y-101884759D01*
X189505241Y-102084637D01*
X189705869Y-102218692D01*
X189678486Y-102233329D01*
X189606903Y-102477298D01*
X190420000Y-103290395D01*
X190434143Y-103276253D01*
X190613748Y-103455858D01*
X190599605Y-103470000D01*
X190613748Y-103484143D01*
X190434143Y-103663748D01*
X190420000Y-103649605D01*
X189606903Y-104462702D01*
X189678486Y-104706671D01*
X189933996Y-104827571D01*
X190208184Y-104896300D01*
X190490512Y-104910217D01*
X190770130Y-104868787D01*
X190789800Y-104861753D01*
X190789801Y-130952297D01*
X190181000Y-131561098D01*
X190181000Y-120491611D01*
X190224937Y-120447674D01*
X190338205Y-120278156D01*
X190416226Y-120089798D01*
X190456000Y-119889839D01*
X190456000Y-119685961D01*
X190416226Y-119486002D01*
X190338205Y-119297644D01*
X190280500Y-119211282D01*
X190280500Y-107082211D01*
X190324437Y-107038274D01*
X190437705Y-106868756D01*
X190515726Y-106680398D01*
X190555500Y-106480439D01*
X190555500Y-106276561D01*
X190515726Y-106076602D01*
X190437705Y-105888244D01*
X190324437Y-105718726D01*
X190180274Y-105574563D01*
X190010756Y-105461295D01*
X189822398Y-105383274D01*
X189622439Y-105343500D01*
X189418561Y-105343500D01*
X189218602Y-105383274D01*
X189030244Y-105461295D01*
X188860726Y-105574563D01*
X188716563Y-105718726D01*
X188603295Y-105888244D01*
X188525274Y-106076602D01*
X188485500Y-106276561D01*
X188485500Y-106362038D01*
X188390802Y-106380874D01*
X188202444Y-106458895D01*
X188032926Y-106572163D01*
X187888763Y-106716326D01*
X187775495Y-106885844D01*
X187697474Y-107074202D01*
X187657700Y-107274161D01*
X187657700Y-107478039D01*
X187697474Y-107677998D01*
X187775495Y-107866356D01*
X187888763Y-108035874D01*
X187932700Y-108079811D01*
X187932701Y-132155197D01*
X186830099Y-133257799D01*
X186732385Y-133094869D01*
X186543414Y-132886481D01*
X186317420Y-132718963D01*
X186063087Y-132598754D01*
X185929039Y-132558096D01*
X185707000Y-132680085D01*
X185707000Y-133823000D01*
X185727000Y-133823000D01*
X185727000Y-134077000D01*
X185707000Y-134077000D01*
X185707000Y-134097000D01*
X185453000Y-134097000D01*
X185453000Y-134077000D01*
X185433000Y-134077000D01*
X185433000Y-133823000D01*
X185453000Y-133823000D01*
X185453000Y-132680085D01*
X185230961Y-132558096D01*
X185096913Y-132598754D01*
X184929000Y-132678117D01*
X184929000Y-127609163D01*
X185028192Y-127662182D01*
X185298691Y-127744236D01*
X185509508Y-127765000D01*
X185650492Y-127765000D01*
X185861309Y-127744236D01*
X186131808Y-127662182D01*
X186381101Y-127528932D01*
X186599608Y-127349608D01*
X186778932Y-127131101D01*
X186912182Y-126881808D01*
X186994236Y-126611309D01*
X187021943Y-126330000D01*
X186994236Y-126048691D01*
X186912182Y-125778192D01*
X186778932Y-125528899D01*
X186599608Y-125310392D01*
X186381101Y-125131068D01*
X186131808Y-124997818D01*
X185861309Y-124915764D01*
X185650492Y-124895000D01*
X185509508Y-124895000D01*
X185298691Y-124915764D01*
X185028192Y-124997818D01*
X184929000Y-125050837D01*
X184929000Y-122989694D01*
X185016913Y-123031246D01*
X185150961Y-123071904D01*
X185373000Y-122949915D01*
X185373000Y-121807000D01*
X185627000Y-121807000D01*
X185627000Y-122949915D01*
X185849039Y-123071904D01*
X185983087Y-123031246D01*
X186237420Y-122911037D01*
X186463414Y-122743519D01*
X186652385Y-122535131D01*
X186797070Y-122293881D01*
X186891909Y-122029040D01*
X186770624Y-121807000D01*
X185627000Y-121807000D01*
X185373000Y-121807000D01*
X185353000Y-121807000D01*
X185353000Y-121553000D01*
X185373000Y-121553000D01*
X185373000Y-120410085D01*
X185627000Y-120410085D01*
X185627000Y-121553000D01*
X186770624Y-121553000D01*
X186891909Y-121330960D01*
X186797070Y-121066119D01*
X186652385Y-120824869D01*
X186463414Y-120616481D01*
X186237420Y-120448963D01*
X185983087Y-120328754D01*
X185849039Y-120288096D01*
X185627000Y-120410085D01*
X185373000Y-120410085D01*
X185150961Y-120288096D01*
X185016913Y-120328754D01*
X184929000Y-120370306D01*
X184929000Y-115381924D01*
X184948192Y-115392182D01*
X185218691Y-115474236D01*
X185429508Y-115495000D01*
X185570492Y-115495000D01*
X185781309Y-115474236D01*
X186051808Y-115392182D01*
X186301101Y-115258932D01*
X186519608Y-115079608D01*
X186698932Y-114861101D01*
X186832182Y-114611808D01*
X186914236Y-114341309D01*
X186941943Y-114060000D01*
X186914236Y-113778691D01*
X186832182Y-113508192D01*
X186698932Y-113258899D01*
X186519608Y-113040392D01*
X186301101Y-112861068D01*
X186051808Y-112727818D01*
X185781309Y-112645764D01*
X185570492Y-112625000D01*
X185429508Y-112625000D01*
X185218691Y-112645764D01*
X184948192Y-112727818D01*
X184929000Y-112738076D01*
X184929000Y-110330978D01*
X185030961Y-110361904D01*
X185253000Y-110239915D01*
X185253000Y-109097000D01*
X185507000Y-109097000D01*
X185507000Y-110239915D01*
X185729039Y-110361904D01*
X185863087Y-110321246D01*
X186117420Y-110201037D01*
X186343414Y-110033519D01*
X186532385Y-109825131D01*
X186677070Y-109583881D01*
X186771909Y-109319040D01*
X186650624Y-109097000D01*
X185507000Y-109097000D01*
X185253000Y-109097000D01*
X185233000Y-109097000D01*
X185233000Y-108843000D01*
X185253000Y-108843000D01*
X185253000Y-107700085D01*
X185507000Y-107700085D01*
X185507000Y-108843000D01*
X186650624Y-108843000D01*
X186771909Y-108620960D01*
X186677070Y-108356119D01*
X186532385Y-108114869D01*
X186343414Y-107906481D01*
X186117420Y-107738963D01*
X185863087Y-107618754D01*
X185729039Y-107578096D01*
X185507000Y-107700085D01*
X185253000Y-107700085D01*
X185030961Y-107578096D01*
X184929000Y-107609022D01*
X184929000Y-103540512D01*
X188979783Y-103540512D01*
X189021213Y-103820130D01*
X189116397Y-104086292D01*
X189183329Y-104211514D01*
X189427298Y-104283097D01*
X190240395Y-103470000D01*
X189427298Y-102656903D01*
X189183329Y-102728486D01*
X189062429Y-102983996D01*
X188993700Y-103258184D01*
X188979783Y-103540512D01*
X184929000Y-103540512D01*
X184929000Y-102712761D01*
X185098691Y-102764236D01*
X185309508Y-102785000D01*
X185450492Y-102785000D01*
X185661309Y-102764236D01*
X185931808Y-102682182D01*
X186181101Y-102548932D01*
X186399608Y-102369608D01*
X186578932Y-102151101D01*
X186600901Y-102110000D01*
X187853678Y-102110000D01*
X187891000Y-102113676D01*
X187928322Y-102110000D01*
X187928333Y-102110000D01*
X188039986Y-102099003D01*
X188183247Y-102055546D01*
X188315276Y-101984974D01*
X188431001Y-101890001D01*
X188454804Y-101860997D01*
X189021412Y-101294389D01*
X189040147Y-101388574D01*
G36*
X210001068Y-102151101D02*
G01*
X210180392Y-102369608D01*
X210398899Y-102548932D01*
X210446059Y-102574140D01*
X210450568Y-102619915D01*
X210450998Y-102624285D01*
X210494454Y-102767546D01*
X210565026Y-102899576D01*
X210636201Y-102986302D01*
X210660000Y-103015301D01*
X210688998Y-103039099D01*
X211612900Y-103963002D01*
X211612900Y-107597466D01*
X211549039Y-107578096D01*
X211327000Y-107700085D01*
X211327000Y-108843000D01*
X211347000Y-108843000D01*
X211347000Y-109097000D01*
X211327000Y-109097000D01*
X211327000Y-110239915D01*
X211549039Y-110361904D01*
X211612900Y-110342534D01*
X211612901Y-118144297D01*
X210570295Y-119186904D01*
X210600846Y-119129747D01*
X210644303Y-118986486D01*
X210655300Y-118874833D01*
X210655300Y-118874824D01*
X210658976Y-118837501D01*
X210655300Y-118800178D01*
X210655300Y-110292125D01*
X210716913Y-110321246D01*
X210850961Y-110361904D01*
X211073000Y-110239915D01*
X211073000Y-109097000D01*
X211053000Y-109097000D01*
X211053000Y-108843000D01*
X211073000Y-108843000D01*
X211073000Y-107700085D01*
X210850961Y-107578096D01*
X210716913Y-107618754D01*
X210655300Y-107647875D01*
X210655300Y-103747922D01*
X210658976Y-103710599D01*
X210655300Y-103673277D01*
X210655300Y-103673267D01*
X210644303Y-103561614D01*
X210600846Y-103418353D01*
X210581841Y-103382798D01*
X210530274Y-103286323D01*
X210459099Y-103199597D01*
X210435301Y-103170599D01*
X210406304Y-103146802D01*
X209651872Y-102392370D01*
X209679608Y-102369608D01*
X209858932Y-102151101D01*
X209930000Y-102018142D01*
X210001068Y-102151101D01*
X210001068Y-102151101D01*
G37*
X210001068Y-102151101D02*
X210180392Y-102369608D01*
X210398899Y-102548932D01*
X210446059Y-102574140D01*
X210450568Y-102619915D01*
X210450998Y-102624285D01*
X210494454Y-102767546D01*
X210565026Y-102899576D01*
X210636201Y-102986302D01*
X210660000Y-103015301D01*
X210688998Y-103039099D01*
X211612900Y-103963002D01*
X211612900Y-107597466D01*
X211549039Y-107578096D01*
X211327000Y-107700085D01*
X211327000Y-108843000D01*
X211347000Y-108843000D01*
X211347000Y-109097000D01*
X211327000Y-109097000D01*
X211327000Y-110239915D01*
X211549039Y-110361904D01*
X211612900Y-110342534D01*
X211612901Y-118144297D01*
X210570295Y-119186904D01*
X210600846Y-119129747D01*
X210644303Y-118986486D01*
X210655300Y-118874833D01*
X210655300Y-118874824D01*
X210658976Y-118837501D01*
X210655300Y-118800178D01*
X210655300Y-110292125D01*
X210716913Y-110321246D01*
X210850961Y-110361904D01*
X211073000Y-110239915D01*
X211073000Y-109097000D01*
X211053000Y-109097000D01*
X211053000Y-108843000D01*
X211073000Y-108843000D01*
X211073000Y-107700085D01*
X210850961Y-107578096D01*
X210716913Y-107618754D01*
X210655300Y-107647875D01*
X210655300Y-103747922D01*
X210658976Y-103710599D01*
X210655300Y-103673277D01*
X210655300Y-103673267D01*
X210644303Y-103561614D01*
X210600846Y-103418353D01*
X210581841Y-103382798D01*
X210530274Y-103286323D01*
X210459099Y-103199597D01*
X210435301Y-103170599D01*
X210406304Y-103146802D01*
X209651872Y-102392370D01*
X209679608Y-102369608D01*
X209858932Y-102151101D01*
X209930000Y-102018142D01*
X210001068Y-102151101D01*
G36*
X172807000Y-101223000D02*
G01*
X172827000Y-101223000D01*
X172827000Y-101477000D01*
X172807000Y-101477000D01*
X172807000Y-102619915D01*
X173029039Y-102741904D01*
X173163087Y-102701246D01*
X173334601Y-102620181D01*
X173334600Y-107692762D01*
X173231808Y-107637818D01*
X172961309Y-107555764D01*
X172750492Y-107535000D01*
X172609508Y-107535000D01*
X172398691Y-107555764D01*
X172189600Y-107619190D01*
X172189600Y-102697790D01*
X172196913Y-102701246D01*
X172330961Y-102741904D01*
X172553000Y-102619915D01*
X172553000Y-101477000D01*
X172533000Y-101477000D01*
X172533000Y-101223000D01*
X172553000Y-101223000D01*
X172553000Y-101203000D01*
X172807000Y-101203000D01*
X172807000Y-101223000D01*
X172807000Y-101223000D01*
G37*
X172807000Y-101223000D02*
X172827000Y-101223000D01*
X172827000Y-101477000D01*
X172807000Y-101477000D01*
X172807000Y-102619915D01*
X173029039Y-102741904D01*
X173163087Y-102701246D01*
X173334601Y-102620181D01*
X173334600Y-107692762D01*
X173231808Y-107637818D01*
X172961309Y-107555764D01*
X172750492Y-107535000D01*
X172609508Y-107535000D01*
X172398691Y-107555764D01*
X172189600Y-107619190D01*
X172189600Y-102697790D01*
X172196913Y-102701246D01*
X172330961Y-102741904D01*
X172553000Y-102619915D01*
X172553000Y-101477000D01*
X172533000Y-101477000D01*
X172533000Y-101223000D01*
X172553000Y-101223000D01*
X172553000Y-101203000D01*
X172807000Y-101203000D01*
X172807000Y-101223000D01*
G36*
X182030600Y-93207098D02*
G01*
X176098998Y-99138701D01*
X176070000Y-99162499D01*
X176046202Y-99191497D01*
X176046201Y-99191498D01*
X175975026Y-99278224D01*
X175904454Y-99410254D01*
X175882206Y-99483599D01*
X175868813Y-99527753D01*
X175860998Y-99553515D01*
X175846324Y-99702500D01*
X175850001Y-99739833D01*
X175850001Y-100068192D01*
X175703087Y-99998754D01*
X175569039Y-99958096D01*
X175347000Y-100080085D01*
X175347000Y-101223000D01*
X175367000Y-101223000D01*
X175367000Y-101477000D01*
X175347000Y-101477000D01*
X175347000Y-102619915D01*
X175569039Y-102741904D01*
X175703087Y-102701246D01*
X175850001Y-102631808D01*
X175850001Y-107679613D01*
X175771808Y-107637818D01*
X175501309Y-107555764D01*
X175290492Y-107535000D01*
X175149508Y-107535000D01*
X174938691Y-107555764D01*
X174854600Y-107581272D01*
X174854600Y-102736942D01*
X174870961Y-102741904D01*
X175093000Y-102619915D01*
X175093000Y-101477000D01*
X175073000Y-101477000D01*
X175073000Y-101223000D01*
X175093000Y-101223000D01*
X175093000Y-100080085D01*
X174870961Y-99958096D01*
X174854600Y-99963058D01*
X174854600Y-98995501D01*
X182030600Y-91819503D01*
X182030600Y-93207098D01*
X182030600Y-93207098D01*
G37*
X182030600Y-93207098D02*
X176098998Y-99138701D01*
X176070000Y-99162499D01*
X176046202Y-99191497D01*
X176046201Y-99191498D01*
X175975026Y-99278224D01*
X175904454Y-99410254D01*
X175882206Y-99483599D01*
X175868813Y-99527753D01*
X175860998Y-99553515D01*
X175846324Y-99702500D01*
X175850001Y-99739833D01*
X175850001Y-100068192D01*
X175703087Y-99998754D01*
X175569039Y-99958096D01*
X175347000Y-100080085D01*
X175347000Y-101223000D01*
X175367000Y-101223000D01*
X175367000Y-101477000D01*
X175347000Y-101477000D01*
X175347000Y-102619915D01*
X175569039Y-102741904D01*
X175703087Y-102701246D01*
X175850001Y-102631808D01*
X175850001Y-107679613D01*
X175771808Y-107637818D01*
X175501309Y-107555764D01*
X175290492Y-107535000D01*
X175149508Y-107535000D01*
X174938691Y-107555764D01*
X174854600Y-107581272D01*
X174854600Y-102736942D01*
X174870961Y-102741904D01*
X175093000Y-102619915D01*
X175093000Y-101477000D01*
X175073000Y-101477000D01*
X175073000Y-101223000D01*
X175093000Y-101223000D01*
X175093000Y-100080085D01*
X174870961Y-99958096D01*
X174854600Y-99963058D01*
X174854600Y-98995501D01*
X182030600Y-91819503D01*
X182030600Y-93207098D01*
G36*
X142179186Y-87333000D02*
G01*
X143373000Y-87333000D01*
X143373000Y-87313000D01*
X143627000Y-87313000D01*
X143627000Y-87333000D01*
X145913000Y-87333000D01*
X145913000Y-87313000D01*
X146167000Y-87313000D01*
X146167000Y-87333000D01*
X146187000Y-87333000D01*
X146187000Y-87587000D01*
X146167000Y-87587000D01*
X146167000Y-87607000D01*
X145913000Y-87607000D01*
X145913000Y-87587000D01*
X143627000Y-87587000D01*
X143627000Y-87607000D01*
X143373000Y-87607000D01*
X143373000Y-87587000D01*
X142179186Y-87587000D01*
X142058519Y-87816891D01*
X142155843Y-88091252D01*
X142304822Y-88341355D01*
X142481626Y-88537502D01*
X142405820Y-88560498D01*
X142295506Y-88619463D01*
X142198815Y-88698815D01*
X142119463Y-88795506D01*
X142060498Y-88905820D01*
X142024188Y-89025518D01*
X142011928Y-89150000D01*
X142011928Y-90850000D01*
X142024188Y-90974482D01*
X142060498Y-91094180D01*
X142119463Y-91204494D01*
X142198815Y-91301185D01*
X142295506Y-91380537D01*
X142405820Y-91439502D01*
X142525518Y-91475812D01*
X142565001Y-91479701D01*
X142565000Y-92931646D01*
X142474482Y-92904188D01*
X142350000Y-92891928D01*
X141835750Y-92895000D01*
X141677000Y-93053750D01*
X141677000Y-94203000D01*
X141697000Y-94203000D01*
X141697000Y-94457000D01*
X141677000Y-94457000D01*
X141677000Y-94477000D01*
X141423000Y-94477000D01*
X141423000Y-94457000D01*
X140273750Y-94457000D01*
X140115000Y-94615750D01*
X140111928Y-95130000D01*
X140124188Y-95254482D01*
X140160498Y-95374180D01*
X140219463Y-95484494D01*
X140298815Y-95581185D01*
X140395506Y-95660537D01*
X140505820Y-95719502D01*
X140601943Y-95748661D01*
X140435363Y-95915241D01*
X140278320Y-96150273D01*
X140170147Y-96411426D01*
X140115000Y-96688665D01*
X140115000Y-96971335D01*
X140170147Y-97248574D01*
X140278320Y-97509727D01*
X140435363Y-97744759D01*
X140635241Y-97944637D01*
X140870273Y-98101680D01*
X141010587Y-98159800D01*
X140766402Y-98159800D01*
X138105704Y-95499103D01*
X138081901Y-95470099D01*
X137966176Y-95375126D01*
X137834147Y-95304554D01*
X137690886Y-95261097D01*
X137591606Y-95251319D01*
X137568932Y-95208899D01*
X137389608Y-94990392D01*
X137171101Y-94811068D01*
X137108840Y-94777789D01*
X137119003Y-94744286D01*
X137123942Y-94694139D01*
X137171101Y-94668932D01*
X137389608Y-94489608D01*
X137568932Y-94271101D01*
X137702182Y-94021808D01*
X137784236Y-93751309D01*
X137806033Y-93530000D01*
X140111928Y-93530000D01*
X140115000Y-94044250D01*
X140273750Y-94203000D01*
X141423000Y-94203000D01*
X141423000Y-93053750D01*
X141264250Y-92895000D01*
X140750000Y-92891928D01*
X140625518Y-92904188D01*
X140505820Y-92940498D01*
X140395506Y-92999463D01*
X140298815Y-93078815D01*
X140219463Y-93175506D01*
X140160498Y-93285820D01*
X140124188Y-93405518D01*
X140111928Y-93530000D01*
X137806033Y-93530000D01*
X137811943Y-93470000D01*
X137784236Y-93188691D01*
X137702182Y-92918192D01*
X137568932Y-92668899D01*
X137389608Y-92450392D01*
X137171101Y-92271068D01*
X137049780Y-92206221D01*
X142091004Y-87164998D01*
X142179186Y-87333000D01*
X142179186Y-87333000D01*
G37*
X142179186Y-87333000D02*
X143373000Y-87333000D01*
X143373000Y-87313000D01*
X143627000Y-87313000D01*
X143627000Y-87333000D01*
X145913000Y-87333000D01*
X145913000Y-87313000D01*
X146167000Y-87313000D01*
X146167000Y-87333000D01*
X146187000Y-87333000D01*
X146187000Y-87587000D01*
X146167000Y-87587000D01*
X146167000Y-87607000D01*
X145913000Y-87607000D01*
X145913000Y-87587000D01*
X143627000Y-87587000D01*
X143627000Y-87607000D01*
X143373000Y-87607000D01*
X143373000Y-87587000D01*
X142179186Y-87587000D01*
X142058519Y-87816891D01*
X142155843Y-88091252D01*
X142304822Y-88341355D01*
X142481626Y-88537502D01*
X142405820Y-88560498D01*
X142295506Y-88619463D01*
X142198815Y-88698815D01*
X142119463Y-88795506D01*
X142060498Y-88905820D01*
X142024188Y-89025518D01*
X142011928Y-89150000D01*
X142011928Y-90850000D01*
X142024188Y-90974482D01*
X142060498Y-91094180D01*
X142119463Y-91204494D01*
X142198815Y-91301185D01*
X142295506Y-91380537D01*
X142405820Y-91439502D01*
X142525518Y-91475812D01*
X142565001Y-91479701D01*
X142565000Y-92931646D01*
X142474482Y-92904188D01*
X142350000Y-92891928D01*
X141835750Y-92895000D01*
X141677000Y-93053750D01*
X141677000Y-94203000D01*
X141697000Y-94203000D01*
X141697000Y-94457000D01*
X141677000Y-94457000D01*
X141677000Y-94477000D01*
X141423000Y-94477000D01*
X141423000Y-94457000D01*
X140273750Y-94457000D01*
X140115000Y-94615750D01*
X140111928Y-95130000D01*
X140124188Y-95254482D01*
X140160498Y-95374180D01*
X140219463Y-95484494D01*
X140298815Y-95581185D01*
X140395506Y-95660537D01*
X140505820Y-95719502D01*
X140601943Y-95748661D01*
X140435363Y-95915241D01*
X140278320Y-96150273D01*
X140170147Y-96411426D01*
X140115000Y-96688665D01*
X140115000Y-96971335D01*
X140170147Y-97248574D01*
X140278320Y-97509727D01*
X140435363Y-97744759D01*
X140635241Y-97944637D01*
X140870273Y-98101680D01*
X141010587Y-98159800D01*
X140766402Y-98159800D01*
X138105704Y-95499103D01*
X138081901Y-95470099D01*
X137966176Y-95375126D01*
X137834147Y-95304554D01*
X137690886Y-95261097D01*
X137591606Y-95251319D01*
X137568932Y-95208899D01*
X137389608Y-94990392D01*
X137171101Y-94811068D01*
X137108840Y-94777789D01*
X137119003Y-94744286D01*
X137123942Y-94694139D01*
X137171101Y-94668932D01*
X137389608Y-94489608D01*
X137568932Y-94271101D01*
X137702182Y-94021808D01*
X137784236Y-93751309D01*
X137806033Y-93530000D01*
X140111928Y-93530000D01*
X140115000Y-94044250D01*
X140273750Y-94203000D01*
X141423000Y-94203000D01*
X141423000Y-93053750D01*
X141264250Y-92895000D01*
X140750000Y-92891928D01*
X140625518Y-92904188D01*
X140505820Y-92940498D01*
X140395506Y-92999463D01*
X140298815Y-93078815D01*
X140219463Y-93175506D01*
X140160498Y-93285820D01*
X140124188Y-93405518D01*
X140111928Y-93530000D01*
X137806033Y-93530000D01*
X137811943Y-93470000D01*
X137784236Y-93188691D01*
X137702182Y-92918192D01*
X137568932Y-92668899D01*
X137389608Y-92450392D01*
X137171101Y-92271068D01*
X137049780Y-92206221D01*
X142091004Y-87164998D01*
X142179186Y-87333000D01*
M02*
